<?xml version="1.0" encoding="UTF-8"?>
<svg xmlns="http://www.w3.org/2000/svg" xmlns:xlink="http://www.w3.org/1999/xlink" width="61pt" height="62pt" viewBox="0 0 61 62" version="1.1">
<g id="surface1">
<path style="fill:none;stroke-width:0.3985;stroke-linecap:butt;stroke-linejoin:miter;stroke:rgb(0%,0%,0%);stroke-opacity:1;stroke-miterlimit:10;" d="M -0.00125 0.00171875 L 56.694062 0.00171875 L 56.694062 56.693125 L -0.00125 56.693125 L -0.00125 0.00171875 L 56.694062 56.693125 M 56.694062 0.00171875 L -0.00125 56.693125 " transform="matrix(1,0,0,-1,2.22,59.49)"/>
<path style=" stroke:none;fill-rule:nonzero;fill:rgb(0%,0%,0%);fill-opacity:1;" d="M 4.210938 59.488281 C 4.210938 58.390625 3.320312 57.496094 2.21875 57.496094 C 1.121094 57.496094 0.226562 58.390625 0.226562 59.488281 C 0.226562 60.589844 1.121094 61.484375 2.21875 61.484375 C 3.320312 61.484375 4.210938 60.589844 4.210938 59.488281 Z M 4.210938 59.488281 "/>
<path style=" stroke:none;fill-rule:nonzero;fill:rgb(0%,0%,0%);fill-opacity:1;" d="M 60.90625 59.488281 C 60.90625 58.390625 60.015625 57.496094 58.914062 57.496094 C 57.8125 57.496094 56.921875 58.390625 56.921875 59.488281 C 56.921875 60.589844 57.8125 61.484375 58.914062 61.484375 C 60.015625 61.484375 60.90625 60.589844 60.90625 59.488281 Z M 60.90625 59.488281 "/>
<path style=" stroke:none;fill-rule:nonzero;fill:rgb(0%,0%,0%);fill-opacity:1;" d="M 60.90625 2.796875 C 60.90625 1.695312 60.015625 0.804688 58.914062 0.804688 C 57.8125 0.804688 56.921875 1.695312 56.921875 2.796875 C 56.921875 3.898438 57.8125 4.789062 58.914062 4.789062 C 60.015625 4.789062 60.90625 3.898438 60.90625 2.796875 Z M 60.90625 2.796875 "/>
<path style=" stroke:none;fill-rule:nonzero;fill:rgb(0%,0%,0%);fill-opacity:1;" d="M 4.210938 2.796875 C 4.210938 1.695312 3.320312 0.804688 2.21875 0.804688 C 1.121094 0.804688 0.226562 1.695312 0.226562 2.796875 C 0.226562 3.898438 1.121094 4.789062 2.21875 4.789062 C 3.320312 4.789062 4.210938 3.898438 4.210938 2.796875 Z M 4.210938 2.796875 "/>
<path style=" stroke:none;fill-rule:nonzero;fill:rgb(0%,0%,0%);fill-opacity:1;" d="M 32.558594 31.144531 C 32.558594 30.042969 31.667969 29.152344 30.566406 29.152344 C 29.464844 29.152344 28.574219 30.042969 28.574219 31.144531 C 28.574219 32.242188 29.464844 33.136719 30.566406 33.136719 C 31.667969 33.136719 32.558594 32.242188 32.558594 31.144531 Z M 32.558594 31.144531 "/>
</g>
</svg>
