<?xml version="1.0" encoding="UTF-8"?>
<svg xmlns="http://www.w3.org/2000/svg" xmlns:xlink="http://www.w3.org/1999/xlink" width="78pt" height="78pt" viewBox="0 0 78 78" version="1.1">
<g id="surface1">
<path style="fill:none;stroke-width:0.3985;stroke-linecap:butt;stroke-linejoin:miter;stroke:rgb(75%,75%,75%);stroke-opacity:1;stroke-miterlimit:10;" d="M 0.00075 0.00175 L 74.410906 0.00175 M 0.00075 21.259563 L 74.410906 21.259563 M 0.00075 42.521281 L 74.410906 42.521281 M 0.00075 63.779094 L 74.410906 63.779094 M 0.00075 0.00175 L 0.00075 74.411906 M 21.258562 0.00175 L 21.258562 74.411906 M 42.520281 0.00175 L 42.520281 74.411906 M 63.782 0.00175 L 63.782 74.411906 " transform="matrix(1,0,0,-1,3.093,75.408)"/>
<path style="fill:none;stroke-width:0.79701;stroke-linecap:butt;stroke-linejoin:miter;stroke:rgb(0%,0%,0%);stroke-opacity:1;stroke-miterlimit:10;" d="M 0.00075 0.00175 L 0.00075 73.704875 " transform="matrix(1,0,0,-1,3.093,75.408)"/>
<path style="fill:none;stroke-width:0.6376;stroke-linecap:round;stroke-linejoin:round;stroke:rgb(0%,0%,0%);stroke-opacity:1;stroke-miterlimit:10;" d="M -1.552813 2.073469 C -1.423906 1.296125 0.001875 0.128156 0.388594 -0.00075 C 0.001875 -0.129656 -1.423906 -1.293719 -1.552813 -2.071062 " transform="matrix(0,-1,-1,0,3.093,1.705)"/>
<path style="fill:none;stroke-width:0.79701;stroke-linecap:butt;stroke-linejoin:miter;stroke:rgb(0%,0%,0%);stroke-opacity:1;stroke-miterlimit:10;" d="M 0.00075 0.00175 L 73.703875 0.00175 " transform="matrix(1,0,0,-1,3.093,75.408)"/>
<path style="fill:none;stroke-width:0.6376;stroke-linecap:round;stroke-linejoin:round;stroke:rgb(0%,0%,0%);stroke-opacity:1;stroke-miterlimit:10;" d="M -1.553813 2.072063 C -1.424906 1.294719 0.000875 0.130656 0.387594 0.00175 C 0.000875 -0.131062 -1.424906 -1.295125 -1.553813 -2.072469 " transform="matrix(1,0,0,-1,76.796,75.408)"/>
<path style=" stroke:none;fill-rule:nonzero;fill:rgb(0%,0%,0%);fill-opacity:1;" d="M 26.59375 32.886719 C 26.59375 31.648438 25.589844 30.644531 24.351562 30.644531 C 23.113281 30.644531 22.113281 31.648438 22.113281 32.886719 C 22.113281 34.125 23.113281 35.128906 24.351562 35.128906 C 25.589844 35.128906 26.59375 34.125 26.59375 32.886719 Z M 47.855469 54.148438 C 47.855469 52.910156 46.851562 51.90625 45.613281 51.90625 C 44.375 51.90625 43.371094 52.910156 43.371094 54.148438 C 43.371094 55.386719 44.375 56.390625 45.613281 56.390625 C 46.851562 56.390625 47.855469 55.386719 47.855469 54.148438 Z M 69.113281 11.628906 C 69.113281 10.390625 68.113281 9.386719 66.875 9.386719 C 65.636719 9.386719 64.632812 10.390625 64.632812 11.628906 C 64.632812 12.867188 65.636719 13.871094 66.875 13.871094 C 68.113281 13.871094 69.113281 12.867188 69.113281 11.628906 Z M 69.113281 11.628906 "/>
</g>
</svg>
