<?xml version="1.0" encoding="UTF-8"?>
<svg xmlns="http://www.w3.org/2000/svg" xmlns:xlink="http://www.w3.org/1999/xlink" width="78pt" height="78pt" viewBox="0 0 78 78" version="1.1">
<g id="surface1">
<path style="fill:none;stroke-width:0.3985;stroke-linecap:butt;stroke-linejoin:miter;stroke:rgb(75%,75%,75%);stroke-opacity:1;stroke-miterlimit:10;" d="M -0.00125 -0.00015625 L 74.408906 -0.00015625 M -0.00125 21.261562 L 74.408906 21.261562 M -0.00125 42.519375 L 74.408906 42.519375 M -0.00125 63.781094 L 74.408906 63.781094 M -0.00125 -0.00015625 L -0.00125 74.41 M 21.260469 -0.00015625 L 21.260469 74.41 M 42.518281 -0.00015625 L 42.518281 74.41 M 63.78 -0.00015625 L 63.78 74.41 " transform="matrix(1,0,0,-1,2.72,75.41)"/>
<path style="fill:none;stroke-width:0.79701;stroke-linecap:butt;stroke-linejoin:miter;stroke:rgb(0%,0%,0%);stroke-opacity:1;stroke-miterlimit:10;" d="M -0.00125 -0.00015625 L -0.00125 73.702969 " transform="matrix(1,0,0,-1,2.72,75.41)"/>
<path style="fill:none;stroke-width:0.6376;stroke-linecap:round;stroke-linejoin:round;stroke:rgb(0%,0%,0%);stroke-opacity:1;stroke-miterlimit:10;" d="M -1.554719 2.071563 C -1.425813 1.294219 -0.00003125 0.130156 0.386687 0.00125 C -0.00003125 -0.127656 -1.425813 -1.295625 -1.554719 -2.072969 " transform="matrix(0,-1,-1,0,2.72,1.707)"/>
<path style="fill:none;stroke-width:0.79701;stroke-linecap:butt;stroke-linejoin:miter;stroke:rgb(0%,0%,0%);stroke-opacity:1;stroke-miterlimit:10;" d="M -0.00125 -0.00015625 L 73.701875 -0.00015625 " transform="matrix(1,0,0,-1,2.72,75.41)"/>
<path style="fill:none;stroke-width:0.6376;stroke-linecap:round;stroke-linejoin:round;stroke:rgb(0%,0%,0%);stroke-opacity:1;stroke-miterlimit:10;" d="M -1.555813 2.074062 C -1.423 1.296719 -0.001125 0.12875 0.3895 -0.00015625 C -0.001125 -0.129063 -1.423 -1.297031 -1.555813 -2.070469 " transform="matrix(1,0,0,-1,76.423,75.41)"/>
<path style=" stroke:none;fill-rule:nonzero;fill:rgb(0%,0%,0%);fill-opacity:1;" d="M 26.222656 32.890625 C 26.222656 31.652344 25.21875 30.648438 23.980469 30.648438 C 22.742188 30.648438 21.738281 31.652344 21.738281 32.890625 C 21.738281 34.128906 22.742188 35.132812 23.980469 35.132812 C 25.21875 35.132812 26.222656 34.128906 26.222656 32.890625 Z M 47.480469 54.148438 C 47.480469 52.910156 46.476562 51.910156 45.238281 51.910156 C 44.003906 51.910156 43 52.910156 43 54.148438 C 43 55.386719 44.003906 56.390625 45.238281 56.390625 C 46.476562 56.390625 47.480469 55.386719 47.480469 54.148438 Z M 68.742188 11.628906 C 68.742188 10.390625 67.738281 9.386719 66.5 9.386719 C 65.261719 9.386719 64.257812 10.390625 64.257812 11.628906 C 64.257812 12.867188 65.261719 13.871094 66.5 13.871094 C 67.738281 13.871094 68.742188 12.867188 68.742188 11.628906 Z M 68.742188 11.628906 "/>
</g>
</svg>
