<?xml version="1.0" encoding="UTF-8"?>
<svg xmlns="http://www.w3.org/2000/svg" xmlns:xlink="http://www.w3.org/1999/xlink" width="61pt" height="56pt" viewBox="0 0 61 56" version="1.1">
<g id="surface1">
<path style="fill:none;stroke-width:0.3985;stroke-linecap:butt;stroke-linejoin:miter;stroke:rgb(0%,0%,0%);stroke-opacity:1;stroke-miterlimit:10;" d="M -25.51125 -25.512375 C -35.460469 -16.895188 -35.460469 -8.617844 -25.51125 -0.00065625 C -35.460469 8.616531 -35.460469 16.897781 -25.51125 25.511062 C -15.562031 16.897781 -15.562031 8.616531 -25.51125 -0.00065625 C -15.562031 -8.617844 -15.562031 -16.895188 -25.51125 -25.512375 " transform="matrix(1,0,0,-1,33.355,28.472)"/>
<path style=" stroke:none;fill-rule:nonzero;fill:rgb(0%,0%,0%);fill-opacity:1;" d="M 9.835938 53.984375 C 9.835938 52.882812 8.945312 51.992188 7.84375 51.992188 C 6.742188 51.992188 5.851562 52.882812 5.851562 53.984375 C 5.851562 55.085938 6.742188 55.976562 7.84375 55.976562 C 8.945312 55.976562 9.835938 55.085938 9.835938 53.984375 Z M 9.835938 53.984375 "/>
<path style=" stroke:none;fill-rule:nonzero;fill:rgb(0%,0%,0%);fill-opacity:1;" d="M 9.835938 28.472656 C 9.835938 27.371094 8.945312 26.480469 7.84375 26.480469 C 6.742188 26.480469 5.851562 27.371094 5.851562 28.472656 C 5.851562 29.574219 6.742188 30.464844 7.84375 30.464844 C 8.945312 30.464844 9.835938 29.574219 9.835938 28.472656 Z M 9.835938 28.472656 "/>
<path style=" stroke:none;fill-rule:nonzero;fill:rgb(0%,0%,0%);fill-opacity:1;" d="M 9.835938 2.960938 C 9.835938 1.859375 8.945312 0.96875 7.84375 0.96875 C 6.742188 0.96875 5.851562 1.859375 5.851562 2.960938 C 5.851562 4.058594 6.742188 4.953125 7.84375 4.953125 C 8.945312 4.953125 9.835938 4.058594 9.835938 2.960938 Z M 9.835938 2.960938 "/>
<path style="fill:none;stroke-width:0.3985;stroke-linecap:butt;stroke-linejoin:miter;stroke:rgb(0%,0%,0%);stroke-opacity:1;stroke-miterlimit:10;" d="M 25.512188 -0.00065625 L -25.51125 25.511062 M -25.51125 -0.00065625 L 25.512188 -0.00065625 L -25.51125 -25.512375 " transform="matrix(1,0,0,-1,33.355,28.472)"/>
<path style=" stroke:none;fill-rule:nonzero;fill:rgb(0%,0%,0%);fill-opacity:1;" d="M 60.859375 28.472656 C 60.859375 27.371094 59.96875 26.480469 58.867188 26.480469 C 57.765625 26.480469 56.875 27.371094 56.875 28.472656 C 56.875 29.574219 57.765625 30.464844 58.867188 30.464844 C 59.96875 30.464844 60.859375 29.574219 60.859375 28.472656 Z M 60.859375 28.472656 "/>
</g>
</svg>
