<?xml version="1.0" encoding="UTF-8"?>
<svg xmlns="http://www.w3.org/2000/svg" xmlns:xlink="http://www.w3.org/1999/xlink" width="62pt" height="56pt" viewBox="0 0 62 56" version="1.1">
<g id="surface1">
<path style="fill:none;stroke-width:0.3985;stroke-linecap:butt;stroke-linejoin:miter;stroke:rgb(0%,0%,0%);stroke-opacity:1;stroke-miterlimit:10;" d="M -25.51125 -25.510312 C -35.460469 -16.897031 -35.460469 -8.615781 -25.51125 0.00140625 C -35.460469 8.614688 -35.460469 16.895938 -25.51125 25.513125 C -15.562031 16.895938 -15.562031 8.614688 -25.51125 0.00140625 C -15.562031 -8.615781 -15.562031 -16.897031 -25.51125 -25.510312 " transform="matrix(1,0,0,-1,33.98,28.31)"/>
<path style=" stroke:none;fill-rule:nonzero;fill:rgb(0%,0%,0%);fill-opacity:1;" d="M 10.460938 53.820312 C 10.460938 52.722656 9.570312 51.828125 8.46875 51.828125 C 7.367188 51.828125 6.476562 52.722656 6.476562 53.820312 C 6.476562 54.921875 7.367188 55.816406 8.46875 55.816406 C 9.570312 55.816406 10.460938 54.921875 10.460938 53.820312 Z M 10.460938 53.820312 "/>
<path style=" stroke:none;fill-rule:nonzero;fill:rgb(0%,0%,0%);fill-opacity:1;" d="M 10.460938 28.308594 C 10.460938 27.210938 9.570312 26.316406 8.46875 26.316406 C 7.367188 26.316406 6.476562 27.210938 6.476562 28.308594 C 6.476562 29.410156 7.367188 30.300781 8.46875 30.300781 C 9.570312 30.300781 10.460938 29.410156 10.460938 28.308594 Z M 10.460938 28.308594 "/>
<path style=" stroke:none;fill-rule:nonzero;fill:rgb(0%,0%,0%);fill-opacity:1;" d="M 10.460938 2.796875 C 10.460938 1.699219 9.570312 0.804688 8.46875 0.804688 C 7.367188 0.804688 6.476562 1.699219 6.476562 2.796875 C 6.476562 3.898438 7.367188 4.789062 8.46875 4.789062 C 9.570312 4.789062 10.460938 3.898438 10.460938 2.796875 Z M 10.460938 2.796875 "/>
<path style="fill:none;stroke-width:0.3985;stroke-linecap:butt;stroke-linejoin:miter;stroke:rgb(0%,0%,0%);stroke-opacity:1;stroke-miterlimit:10;" d="M 25.512187 0.00140625 L -25.51125 25.513125 M -25.51125 0.00140625 L 25.512187 0.00140625 L -25.51125 -25.510312 " transform="matrix(1,0,0,-1,33.98,28.31)"/>
<path style=" stroke:none;fill-rule:nonzero;fill:rgb(0%,0%,0%);fill-opacity:1;" d="M 61.484375 28.308594 C 61.484375 27.210938 60.59375 26.316406 59.492188 26.316406 C 58.390625 26.316406 57.5 27.210938 57.5 28.308594 C 57.5 29.410156 58.390625 30.300781 59.492188 30.300781 C 60.59375 30.300781 61.484375 29.410156 61.484375 28.308594 Z M 61.484375 28.308594 "/>
</g>
</svg>
