<?xml version="1.0" encoding="UTF-8"?>
<svg xmlns="http://www.w3.org/2000/svg" xmlns:xlink="http://www.w3.org/1999/xlink" width="62pt" height="28pt" viewBox="0 0 62 28" version="1.1">
<g id="surface1">
<path style="fill:none;stroke-width:0.3985;stroke-linecap:butt;stroke-linejoin:miter;stroke:rgb(0%,0%,0%);stroke-opacity:1;stroke-miterlimit:10;" d="M -28.346312 22.678063 L -28.346312 -0.001625 L 0.00134375 22.678063 L 0.00134375 -0.001625 L 28.345094 22.678063 L 28.345094 -0.001625 L 0.00134375 22.678063 L -28.346312 -0.001625 L 28.345094 22.678063 M 28.345094 -0.001625 L -28.346312 22.678063 L 0.00134375 -0.001625 " transform="matrix(1,0,0,-1,31.026,25.639)"/>
<path style=" stroke:none;fill-rule:nonzero;fill:rgb(0%,0%,0%);fill-opacity:1;" d="M 4.671875 2.960938 C 4.671875 1.859375 3.78125 0.96875 2.679688 0.96875 C 1.578125 0.96875 0.6875 1.859375 0.6875 2.960938 C 0.6875 4.0625 1.578125 4.953125 2.679688 4.953125 C 3.78125 4.953125 4.671875 4.0625 4.671875 2.960938 Z M 4.671875 2.960938 "/>
<path style=" stroke:none;fill-rule:nonzero;fill:rgb(0%,0%,0%);fill-opacity:1;" d="M 4.671875 25.640625 C 4.671875 24.539062 3.78125 23.644531 2.679688 23.644531 C 1.578125 23.644531 0.6875 24.539062 0.6875 25.640625 C 0.6875 26.738281 1.578125 27.632812 2.679688 27.632812 C 3.78125 27.632812 4.671875 26.738281 4.671875 25.640625 Z M 4.671875 25.640625 "/>
<path style=" stroke:none;fill-rule:nonzero;fill:rgb(0%,0%,0%);fill-opacity:1;" d="M 33.019531 2.960938 C 33.019531 1.859375 32.125 0.96875 31.027344 0.96875 C 29.925781 0.96875 29.035156 1.859375 29.035156 2.960938 C 29.035156 4.0625 29.925781 4.953125 31.027344 4.953125 C 32.125 4.953125 33.019531 4.0625 33.019531 2.960938 Z M 33.019531 2.960938 "/>
<path style=" stroke:none;fill-rule:nonzero;fill:rgb(0%,0%,0%);fill-opacity:1;" d="M 33.019531 25.640625 C 33.019531 24.539062 32.125 23.644531 31.027344 23.644531 C 29.925781 23.644531 29.035156 24.539062 29.035156 25.640625 C 29.035156 26.738281 29.925781 27.632812 31.027344 27.632812 C 32.125 27.632812 33.019531 26.738281 33.019531 25.640625 Z M 33.019531 25.640625 "/>
<path style=" stroke:none;fill-rule:nonzero;fill:rgb(0%,0%,0%);fill-opacity:1;" d="M 61.367188 2.960938 C 61.367188 1.859375 60.472656 0.96875 59.371094 0.96875 C 58.273438 0.96875 57.378906 1.859375 57.378906 2.960938 C 57.378906 4.0625 58.273438 4.953125 59.371094 4.953125 C 60.472656 4.953125 61.367188 4.0625 61.367188 2.960938 Z M 61.367188 2.960938 "/>
<path style=" stroke:none;fill-rule:nonzero;fill:rgb(0%,0%,0%);fill-opacity:1;" d="M 61.367188 25.640625 C 61.367188 24.539062 60.472656 23.644531 59.371094 23.644531 C 58.273438 23.644531 57.378906 24.539062 57.378906 25.640625 C 57.378906 26.738281 58.273438 27.632812 59.371094 27.632812 C 60.472656 27.632812 61.367188 26.738281 61.367188 25.640625 Z M 61.367188 25.640625 "/>
</g>
</svg>
