<?xml version="1.0" encoding="UTF-8"?>
<svg xmlns="http://www.w3.org/2000/svg" xmlns:xlink="http://www.w3.org/1999/xlink" width="61pt" height="28pt" viewBox="0 0 61 28" version="1.1">
<g id="surface1">
<path style="fill:none;stroke-width:0.3985;stroke-linecap:butt;stroke-linejoin:miter;stroke:rgb(0%,0%,0%);stroke-opacity:1;stroke-miterlimit:10;" d="M -28.347344 22.677031 L -28.347344 0.00125 L 0.0003125 22.677031 L 0.0003125 0.00125 L 28.347969 22.677031 L 28.347969 0.00125 L 0.0003125 22.677031 L -28.347344 0.00125 L 28.347969 22.677031 M 28.347969 0.00125 L -28.347344 22.677031 L 0.0003125 0.00125 " transform="matrix(1,0,0,-1,30.57,25.47)"/>
<path style=" stroke:none;fill-rule:nonzero;fill:rgb(0%,0%,0%);fill-opacity:1;" d="M 4.214844 2.792969 C 4.214844 1.691406 3.324219 0.800781 2.222656 0.800781 C 1.121094 0.800781 0.230469 1.691406 0.230469 2.792969 C 0.230469 3.894531 1.121094 4.785156 2.222656 4.785156 C 3.324219 4.785156 4.214844 3.894531 4.214844 2.792969 Z M 4.214844 2.792969 "/>
<path style=" stroke:none;fill-rule:nonzero;fill:rgb(0%,0%,0%);fill-opacity:1;" d="M 4.214844 25.46875 C 4.214844 24.371094 3.324219 23.476562 2.222656 23.476562 C 1.121094 23.476562 0.230469 24.371094 0.230469 25.46875 C 0.230469 26.570312 1.121094 27.460938 2.222656 27.460938 C 3.324219 27.460938 4.214844 26.570312 4.214844 25.46875 Z M 4.214844 25.46875 "/>
<path style=" stroke:none;fill-rule:nonzero;fill:rgb(0%,0%,0%);fill-opacity:1;" d="M 32.5625 2.792969 C 32.5625 1.691406 31.671875 0.800781 30.570312 0.800781 C 29.46875 0.800781 28.578125 1.691406 28.578125 2.792969 C 28.578125 3.894531 29.46875 4.785156 30.570312 4.785156 C 31.671875 4.785156 32.5625 3.894531 32.5625 2.792969 Z M 32.5625 2.792969 "/>
<path style=" stroke:none;fill-rule:nonzero;fill:rgb(0%,0%,0%);fill-opacity:1;" d="M 32.5625 25.46875 C 32.5625 24.371094 31.671875 23.476562 30.570312 23.476562 C 29.46875 23.476562 28.578125 24.371094 28.578125 25.46875 C 28.578125 26.570312 29.46875 27.460938 30.570312 27.460938 C 31.671875 27.460938 32.5625 26.570312 32.5625 25.46875 Z M 32.5625 25.46875 "/>
<path style=" stroke:none;fill-rule:nonzero;fill:rgb(0%,0%,0%);fill-opacity:1;" d="M 60.910156 2.792969 C 60.910156 1.691406 60.015625 0.800781 58.917969 0.800781 C 57.816406 0.800781 56.925781 1.691406 56.925781 2.792969 C 56.925781 3.894531 57.816406 4.785156 58.917969 4.785156 C 60.015625 4.785156 60.910156 3.894531 60.910156 2.792969 Z M 60.910156 2.792969 "/>
<path style=" stroke:none;fill-rule:nonzero;fill:rgb(0%,0%,0%);fill-opacity:1;" d="M 60.910156 25.46875 C 60.910156 24.371094 60.015625 23.476562 58.917969 23.476562 C 57.816406 23.476562 56.925781 24.371094 56.925781 25.46875 C 56.925781 26.570312 57.816406 27.460938 58.917969 27.460938 C 60.015625 27.460938 60.910156 26.570312 60.910156 25.46875 Z M 60.910156 25.46875 "/>
</g>
</svg>
