<?xml version="1.0" encoding="UTF-8"?>
<svg xmlns="http://www.w3.org/2000/svg" xmlns:xlink="http://www.w3.org/1999/xlink" width="59pt" height="61pt" viewBox="0 0 59 61" version="1.1">
<g id="surface1">
<path style="fill:none;stroke-width:0.3985;stroke-linecap:butt;stroke-linejoin:miter;stroke:rgb(0%,0%,0%);stroke-opacity:1;stroke-miterlimit:10;" d="M 17.673594 22.160469 L -6.306875 27.637031 L -25.537344 12.297187 L -25.537344 -12.296563 L -6.306875 -27.636406 L 17.673594 -22.159844 L 28.345469 0.0003125 Z M 17.673594 22.160469 " transform="matrix(1,0,0,-1,27.76,30.43)"/>
<path style=" stroke:none;fill-rule:nonzero;fill:rgb(0%,0%,0%);fill-opacity:1;" d="M 47.425781 8.269531 C 47.425781 7.167969 46.53125 6.277344 45.433594 6.277344 C 44.332031 6.277344 43.441406 7.167969 43.441406 8.269531 C 43.441406 9.367188 44.332031 10.261719 45.433594 10.261719 C 46.53125 10.261719 47.425781 9.367188 47.425781 8.269531 Z M 47.425781 8.269531 "/>
<path style=" stroke:none;fill-rule:nonzero;fill:rgb(0%,0%,0%);fill-opacity:1;" d="M 23.445312 2.792969 C 23.445312 1.695312 22.554688 0.800781 21.453125 0.800781 C 20.351562 0.800781 19.460938 1.695312 19.460938 2.792969 C 19.460938 3.894531 20.351562 4.789062 21.453125 4.789062 C 22.554688 4.789062 23.445312 3.894531 23.445312 2.792969 Z M 23.445312 2.792969 "/>
<path style=" stroke:none;fill-rule:nonzero;fill:rgb(0%,0%,0%);fill-opacity:1;" d="M 4.214844 18.132812 C 4.214844 17.03125 3.320312 16.140625 2.222656 16.140625 C 1.121094 16.140625 0.230469 17.03125 0.230469 18.132812 C 0.230469 19.230469 1.121094 20.125 2.222656 20.125 C 3.320312 20.125 4.214844 19.230469 4.214844 18.132812 Z M 4.214844 18.132812 "/>
<path style=" stroke:none;fill-rule:nonzero;fill:rgb(0%,0%,0%);fill-opacity:1;" d="M 4.214844 42.726562 C 4.214844 41.628906 3.320312 40.734375 2.222656 40.734375 C 1.121094 40.734375 0.230469 41.628906 0.230469 42.726562 C 0.230469 43.828125 1.121094 44.722656 2.222656 44.722656 C 3.320312 44.722656 4.214844 43.828125 4.214844 42.726562 Z M 4.214844 42.726562 "/>
<path style=" stroke:none;fill-rule:nonzero;fill:rgb(0%,0%,0%);fill-opacity:1;" d="M 23.445312 58.066406 C 23.445312 56.964844 22.554688 56.074219 21.453125 56.074219 C 20.351562 56.074219 19.460938 56.964844 19.460938 58.066406 C 19.460938 59.164062 20.351562 60.058594 21.453125 60.058594 C 22.554688 60.058594 23.445312 59.164062 23.445312 58.066406 Z M 23.445312 58.066406 "/>
<path style=" stroke:none;fill-rule:nonzero;fill:rgb(0%,0%,0%);fill-opacity:1;" d="M 47.425781 52.589844 C 47.425781 51.492188 46.535156 50.597656 45.433594 50.597656 C 44.332031 50.597656 43.441406 51.492188 43.441406 52.589844 C 43.441406 53.691406 44.332031 54.582031 45.433594 54.582031 C 46.535156 54.582031 47.425781 53.691406 47.425781 52.589844 Z M 47.425781 52.589844 "/>
<path style=" stroke:none;fill-rule:nonzero;fill:rgb(0%,0%,0%);fill-opacity:1;" d="M 58.097656 30.429688 C 58.097656 29.328125 57.207031 28.4375 56.105469 28.4375 C 55.007812 28.4375 54.113281 29.328125 54.113281 30.429688 C 54.113281 31.53125 55.007812 32.421875 56.105469 32.421875 C 57.207031 32.421875 58.097656 31.53125 58.097656 30.429688 Z M 58.097656 30.429688 "/>
</g>
</svg>
