<?xml version="1.0" encoding="UTF-8"?>
<svg xmlns="http://www.w3.org/2000/svg" xmlns:xlink="http://www.w3.org/1999/xlink" width="61pt" height="39pt" viewBox="0 0 61 39" version="1.1">
<g id="surface1">
<path style="fill:none;stroke-width:0.3985;stroke-linecap:butt;stroke-linejoin:miter;stroke:rgb(0%,0%,0%);stroke-opacity:1;stroke-miterlimit:10;" d="M -28.347344 34.015313 L -28.347344 -0.0003125 L 0.0003125 34.015313 L 0.0003125 -0.0003125 L 28.347969 34.015313 L 28.347969 -0.0003125 L 0.0003125 34.015313 L -28.347344 -0.0003125 L 28.347969 34.015313 M 28.347969 -0.0003125 L -28.347344 34.015313 L 0.0003125 -0.0003125 " transform="matrix(1,0,0,-1,30.57,36.82)"/>
<path style=" stroke:none;fill-rule:nonzero;fill:rgb(0%,0%,0%);fill-opacity:1;" d="M 4.214844 2.804688 C 4.214844 1.703125 3.324219 0.8125 2.222656 0.8125 C 1.121094 0.8125 0.230469 1.703125 0.230469 2.804688 C 0.230469 3.90625 1.121094 4.796875 2.222656 4.796875 C 3.324219 4.796875 4.214844 3.90625 4.214844 2.804688 Z M 4.214844 2.804688 "/>
<path style=" stroke:none;fill-rule:nonzero;fill:rgb(0%,0%,0%);fill-opacity:1;" d="M 4.214844 36.820312 C 4.214844 35.71875 3.324219 34.828125 2.222656 34.828125 C 1.121094 34.828125 0.230469 35.71875 0.230469 36.820312 C 0.230469 37.921875 1.121094 38.8125 2.222656 38.8125 C 3.324219 38.8125 4.214844 37.921875 4.214844 36.820312 Z M 4.214844 36.820312 "/>
<path style=" stroke:none;fill-rule:nonzero;fill:rgb(0%,0%,0%);fill-opacity:1;" d="M 32.5625 2.804688 C 32.5625 1.703125 31.671875 0.8125 30.570312 0.8125 C 29.46875 0.8125 28.578125 1.703125 28.578125 2.804688 C 28.578125 3.90625 29.46875 4.796875 30.570312 4.796875 C 31.671875 4.796875 32.5625 3.90625 32.5625 2.804688 Z M 32.5625 2.804688 "/>
<path style=" stroke:none;fill-rule:nonzero;fill:rgb(0%,0%,0%);fill-opacity:1;" d="M 32.5625 36.820312 C 32.5625 35.71875 31.671875 34.828125 30.570312 34.828125 C 29.46875 34.828125 28.578125 35.71875 28.578125 36.820312 C 28.578125 37.921875 29.46875 38.8125 30.570312 38.8125 C 31.671875 38.8125 32.5625 37.921875 32.5625 36.820312 Z M 32.5625 36.820312 "/>
<path style=" stroke:none;fill-rule:nonzero;fill:rgb(0%,0%,0%);fill-opacity:1;" d="M 60.910156 2.804688 C 60.910156 1.703125 60.015625 0.8125 58.917969 0.8125 C 57.816406 0.8125 56.925781 1.703125 56.925781 2.804688 C 56.925781 3.90625 57.816406 4.796875 58.917969 4.796875 C 60.015625 4.796875 60.910156 3.90625 60.910156 2.804688 Z M 60.910156 2.804688 "/>
<path style=" stroke:none;fill-rule:nonzero;fill:rgb(0%,0%,0%);fill-opacity:1;" d="M 60.910156 36.820312 C 60.910156 35.71875 60.015625 34.828125 58.917969 34.828125 C 57.816406 34.828125 56.925781 35.71875 56.925781 36.820312 C 56.925781 37.921875 57.816406 38.8125 58.917969 38.8125 C 60.015625 38.8125 60.910156 37.921875 60.910156 36.820312 Z M 60.910156 36.820312 "/>
</g>
</svg>
