<?xml version="1.0" encoding="UTF-8"?>
<svg xmlns="http://www.w3.org/2000/svg" xmlns:xlink="http://www.w3.org/1999/xlink" width="89pt" height="88pt" viewBox="0 0 89 88" version="1.1">
<g id="surface1">
<path style=" stroke:none;fill-rule:nonzero;fill:rgb(0%,0%,0%);fill-opacity:1;" d="M 73.878906 12.90625 C 73.878906 11.808594 72.984375 10.914062 71.882812 10.914062 C 70.785156 10.914062 69.890625 11.808594 69.890625 12.90625 C 69.890625 14.007812 70.785156 14.902344 71.882812 14.902344 C 72.984375 14.902344 73.878906 14.007812 73.878906 12.90625 Z M 73.878906 12.90625 "/>
<path style=" stroke:none;fill-rule:nonzero;fill:rgb(0%,0%,0%);fill-opacity:1;" d="M 88.421875 38.097656 C 88.421875 36.996094 87.527344 36.105469 86.425781 36.105469 C 85.328125 36.105469 84.433594 36.996094 84.433594 38.097656 C 84.433594 39.195312 85.328125 40.089844 86.425781 40.089844 C 87.527344 40.089844 88.421875 39.195312 88.421875 38.097656 Z M 88.421875 38.097656 "/>
<path style=" stroke:none;fill-rule:nonzero;fill:rgb(0%,0%,0%);fill-opacity:1;" d="M 83.371094 66.738281 C 83.371094 65.640625 82.476562 64.746094 81.375 64.746094 C 80.277344 64.746094 79.382812 65.640625 79.382812 66.738281 C 79.382812 67.839844 80.277344 68.734375 81.375 68.734375 C 82.476562 68.734375 83.371094 67.839844 83.371094 66.738281 Z M 83.371094 66.738281 "/>
<path style=" stroke:none;fill-rule:nonzero;fill:rgb(0%,0%,0%);fill-opacity:1;" d="M 61.089844 85.4375 C 61.089844 84.335938 60.195312 83.445312 59.097656 83.445312 C 57.996094 83.445312 57.101562 84.335938 57.101562 85.4375 C 57.101562 86.535156 57.996094 87.429688 59.097656 87.429688 C 60.195312 87.429688 61.089844 86.535156 61.089844 85.4375 Z M 61.089844 85.4375 "/>
<path style=" stroke:none;fill-rule:nonzero;fill:rgb(0%,0%,0%);fill-opacity:1;" d="M 32.003906 85.4375 C 32.003906 84.335938 31.109375 83.445312 30.011719 83.445312 C 28.910156 83.445312 28.019531 84.335938 28.019531 85.4375 C 28.019531 86.535156 28.910156 87.429688 30.011719 87.429688 C 31.109375 87.429688 32.003906 86.535156 32.003906 85.4375 Z M 32.003906 85.4375 "/>
<path style=" stroke:none;fill-rule:nonzero;fill:rgb(0%,0%,0%);fill-opacity:1;" d="M 9.722656 66.738281 C 9.722656 65.640625 8.828125 64.746094 7.730469 64.746094 C 6.628906 64.746094 5.738281 65.640625 5.738281 66.738281 C 5.738281 67.839844 6.628906 68.734375 7.730469 68.734375 C 8.828125 68.734375 9.722656 67.839844 9.722656 66.738281 Z M 9.722656 66.738281 "/>
<path style=" stroke:none;fill-rule:nonzero;fill:rgb(0%,0%,0%);fill-opacity:1;" d="M 4.671875 38.097656 C 4.671875 36.996094 3.777344 36.105469 2.679688 36.105469 C 1.578125 36.105469 0.6875 36.996094 0.6875 38.097656 C 0.6875 39.195312 1.578125 40.089844 2.679688 40.089844 C 3.777344 40.089844 4.671875 39.195312 4.671875 38.097656 Z M 4.671875 38.097656 "/>
<path style=" stroke:none;fill-rule:nonzero;fill:rgb(0%,0%,0%);fill-opacity:1;" d="M 19.214844 12.90625 C 19.214844 11.808594 18.320312 10.914062 17.222656 10.914062 C 16.121094 10.914062 15.230469 11.808594 15.230469 12.90625 C 15.230469 14.007812 16.121094 14.902344 17.222656 14.902344 C 18.320312 14.902344 19.214844 14.007812 19.214844 12.90625 Z M 19.214844 12.90625 "/>
<path style=" stroke:none;fill-rule:nonzero;fill:rgb(0%,0%,0%);fill-opacity:1;" d="M 46.546875 2.960938 C 46.546875 1.859375 45.652344 0.96875 44.554688 0.96875 C 43.453125 0.96875 42.558594 1.859375 42.558594 2.960938 C 42.558594 4.058594 43.453125 4.953125 44.554688 4.953125 C 45.652344 4.953125 46.546875 4.058594 46.546875 2.960938 Z M 46.546875 2.960938 "/>
<path style="fill:none;stroke-width:0.3985;stroke-linecap:butt;stroke-linejoin:miter;stroke:rgb(0%,0%,0%);stroke-opacity:1;stroke-miterlimit:10;" d="M 27.329813 32.57375 L -36.822531 -21.258281 L 36.822 -21.258281 L -27.330344 32.57375 L 14.544656 -39.9575 L -41.873312 7.382344 L 41.872781 7.382344 L -14.541281 -39.9575 L 0.0016875 42.519062 L 27.329813 32.57375 " transform="matrix(1,0,0,-1,44.553,45.48)"/>
<path style="fill:none;stroke-width:0.3985;stroke-linecap:butt;stroke-linejoin:miter;stroke:rgb(0%,0%,0%);stroke-opacity:1;stroke-miterlimit:10;" d="M 27.329813 32.57375 L 36.822 -21.258281 L -14.541281 -39.9575 M 14.544656 -39.9575 L -14.541281 -39.9575 M 14.544656 -39.9575 L -41.873312 7.382344 L -36.822531 -21.258281 L 0.0016875 42.519062 M 36.822 -21.258281 L -41.873312 7.382344 M 0.0016875 42.519062 L 36.822 -21.258281 " transform="matrix(1,0,0,-1,44.553,45.48)"/>
</g>
</svg>
