<?xml version="1.0" encoding="UTF-8"?>
<svg xmlns="http://www.w3.org/2000/svg" xmlns:xlink="http://www.w3.org/1999/xlink" width="113pt" height="108pt" viewBox="0 0 113 108" version="1.1">
<g id="surface1">
<path style="fill:none;stroke-width:0.3985;stroke-linecap:butt;stroke-linejoin:miter;stroke:rgb(0%,0%,0%);stroke-opacity:1;stroke-miterlimit:10;" d="M 26.960594 8.758469 L -0.00034375 28.348312 L -26.961281 8.758469 L -16.6605 -22.932938 L 16.663719 -22.932938 Z M 26.960594 8.758469 " transform="matrix(1,0,0,-1,56.598,59.653)"/>
<path style="fill:none;stroke-width:0.3985;stroke-linecap:butt;stroke-linejoin:miter;stroke:rgb(0%,0%,0%);stroke-opacity:1;stroke-miterlimit:10;" d="M 26.960594 8.758469 L -26.961281 8.758469 L 16.663719 -22.932938 L -0.00034375 28.348312 L -16.6605 -22.932938 Z M 26.960594 8.758469 " transform="matrix(1,0,0,-1,56.598,59.653)"/>
<path style="fill:none;stroke-width:0.3985;stroke-linecap:butt;stroke-linejoin:miter;stroke:rgb(0%,0%,0%);stroke-opacity:1;stroke-miterlimit:10;" d="M 26.960594 8.758469 L 53.917625 17.520187 " transform="matrix(1,0,0,-1,56.598,59.653)"/>
<path style=" stroke:none;fill-rule:nonzero;fill:rgb(0%,0%,0%);fill-opacity:1;" d="M 85.550781 50.894531 C 85.550781 49.792969 84.65625 48.902344 83.558594 48.902344 C 82.457031 48.902344 81.566406 49.792969 81.566406 50.894531 C 81.566406 51.992188 82.457031 52.886719 83.558594 52.886719 C 84.65625 52.886719 85.550781 51.992188 85.550781 50.894531 Z M 85.550781 50.894531 "/>
<path style=" stroke:none;fill-rule:nonzero;fill:rgb(0%,0%,0%);fill-opacity:1;" d="M 112.511719 42.132812 C 112.511719 41.03125 111.617188 40.140625 110.515625 40.140625 C 109.417969 40.140625 108.523438 41.03125 108.523438 42.132812 C 108.523438 43.234375 109.417969 44.125 110.515625 44.125 C 111.617188 44.125 112.511719 43.234375 112.511719 42.132812 Z M 112.511719 42.132812 "/>
<path style="fill:none;stroke-width:0.3985;stroke-linecap:butt;stroke-linejoin:miter;stroke:rgb(0%,0%,0%);stroke-opacity:1;stroke-miterlimit:10;" d="M -0.00034375 28.348312 L -0.00034375 56.692062 " transform="matrix(1,0,0,-1,56.598,59.653)"/>
<path style=" stroke:none;fill-rule:nonzero;fill:rgb(0%,0%,0%);fill-opacity:1;" d="M 58.589844 31.304688 C 58.589844 30.207031 57.699219 29.3125 56.597656 29.3125 C 55.496094 29.3125 54.605469 30.207031 54.605469 31.304688 C 54.605469 32.40625 55.496094 33.296875 56.597656 33.296875 C 57.699219 33.296875 58.589844 32.40625 58.589844 31.304688 Z M 58.589844 31.304688 "/>
<path style=" stroke:none;fill-rule:nonzero;fill:rgb(0%,0%,0%);fill-opacity:1;" d="M 58.589844 2.960938 C 58.589844 1.859375 57.699219 0.96875 56.597656 0.96875 C 55.496094 0.96875 54.605469 1.859375 54.605469 2.960938 C 54.605469 4.058594 55.496094 4.953125 56.597656 4.953125 C 57.699219 4.953125 58.589844 4.058594 58.589844 2.960938 Z M 58.589844 2.960938 "/>
<path style="fill:none;stroke-width:0.3985;stroke-linecap:butt;stroke-linejoin:miter;stroke:rgb(0%,0%,0%);stroke-opacity:1;stroke-miterlimit:10;" d="M -26.961281 8.758469 L -53.918312 17.520187 " transform="matrix(1,0,0,-1,56.598,59.653)"/>
<path style=" stroke:none;fill-rule:nonzero;fill:rgb(0%,0%,0%);fill-opacity:1;" d="M 31.632812 50.894531 C 31.632812 49.792969 30.738281 48.902344 29.636719 48.902344 C 28.539062 48.902344 27.644531 49.792969 27.644531 50.894531 C 27.644531 51.992188 28.539062 52.886719 29.636719 52.886719 C 30.738281 52.886719 31.632812 51.992188 31.632812 50.894531 Z M 31.632812 50.894531 "/>
<path style=" stroke:none;fill-rule:nonzero;fill:rgb(0%,0%,0%);fill-opacity:1;" d="M 4.671875 42.132812 C 4.671875 41.03125 3.777344 40.140625 2.679688 40.140625 C 1.578125 40.140625 0.6875 41.03125 0.6875 42.132812 C 0.6875 43.234375 1.578125 44.125 2.679688 44.125 C 3.777344 44.125 4.671875 43.234375 4.671875 42.132812 Z M 4.671875 42.132812 "/>
<path style="fill:none;stroke-width:0.3985;stroke-linecap:butt;stroke-linejoin:miter;stroke:rgb(0%,0%,0%);stroke-opacity:1;stroke-miterlimit:10;" d="M -16.6605 -22.932938 L -33.324562 -45.866531 " transform="matrix(1,0,0,-1,56.598,59.653)"/>
<path style=" stroke:none;fill-rule:nonzero;fill:rgb(0%,0%,0%);fill-opacity:1;" d="M 41.929688 82.585938 C 41.929688 81.484375 41.035156 80.59375 39.9375 80.59375 C 38.835938 80.59375 37.945312 81.484375 37.945312 82.585938 C 37.945312 83.6875 38.835938 84.578125 39.9375 84.578125 C 41.035156 84.578125 41.929688 83.6875 41.929688 82.585938 Z M 41.929688 82.585938 "/>
<path style=" stroke:none;fill-rule:nonzero;fill:rgb(0%,0%,0%);fill-opacity:1;" d="M 25.265625 105.519531 C 25.265625 104.417969 24.375 103.527344 23.273438 103.527344 C 22.175781 103.527344 21.28125 104.417969 21.28125 105.519531 C 21.28125 106.621094 22.175781 107.511719 23.273438 107.511719 C 24.375 107.511719 25.265625 106.621094 25.265625 105.519531 Z M 25.265625 105.519531 "/>
<path style="fill:none;stroke-width:0.3985;stroke-linecap:butt;stroke-linejoin:miter;stroke:rgb(0%,0%,0%);stroke-opacity:1;stroke-miterlimit:10;" d="M 16.663719 -22.932938 L 33.323875 -45.866531 " transform="matrix(1,0,0,-1,56.598,59.653)"/>
<path style=" stroke:none;fill-rule:nonzero;fill:rgb(0%,0%,0%);fill-opacity:1;" d="M 75.253906 82.585938 C 75.253906 81.484375 74.359375 80.59375 73.261719 80.59375 C 72.160156 80.59375 71.265625 81.484375 71.265625 82.585938 C 71.265625 83.6875 72.160156 84.578125 73.261719 84.578125 C 74.359375 84.578125 75.253906 83.6875 75.253906 82.585938 Z M 75.253906 82.585938 "/>
<path style=" stroke:none;fill-rule:nonzero;fill:rgb(0%,0%,0%);fill-opacity:1;" d="M 91.914062 105.519531 C 91.914062 104.417969 91.023438 103.527344 89.921875 103.527344 C 88.820312 103.527344 87.929688 104.417969 87.929688 105.519531 C 87.929688 106.621094 88.820312 107.511719 89.921875 107.511719 C 91.023438 107.511719 91.914062 106.621094 91.914062 105.519531 Z M 91.914062 105.519531 "/>
</g>
</svg>
