<?xml version="1.0" encoding="UTF-8"?>
<svg xmlns="http://www.w3.org/2000/svg" xmlns:xlink="http://www.w3.org/1999/xlink" width="43pt" height="36pt" viewBox="0 0 43 36" version="1.1">
<g id="surface1">
<path style="fill:none;stroke-width:1.79329;stroke-linecap:butt;stroke-linejoin:miter;stroke:rgb(0%,0%,0%);stroke-opacity:1;stroke-miterlimit:10;" d="M 0.0015625 22.675812 L 19.638281 -11.339813 L -19.639062 -11.339813 L 0.0015625 22.675812 " transform="matrix(1,0,0,-1,21.725,23.668)"/>
<path style=" stroke:none;fill-rule:nonzero;fill:rgb(100%,100%,100%);fill-opacity:1;" d="M 24.117188 0.992188 C 24.117188 -0.332031 23.046875 -1.402344 21.726562 -1.402344 C 20.40625 -1.402344 19.332031 -0.332031 19.332031 0.992188 C 19.332031 2.3125 20.40625 3.382812 21.726562 3.382812 C 23.046875 3.382812 24.117188 2.3125 24.117188 0.992188 Z M 24.117188 0.992188 "/>
<path style=" stroke:none;fill-rule:nonzero;fill:rgb(100%,100%,100%);fill-opacity:1;" d="M 43.753906 35.007812 C 43.753906 33.6875 42.683594 32.617188 41.363281 32.617188 C 40.042969 32.617188 38.972656 33.6875 38.972656 35.007812 C 38.972656 36.328125 40.042969 37.398438 41.363281 37.398438 C 42.683594 37.398438 43.753906 36.328125 43.753906 35.007812 Z M 43.753906 35.007812 "/>
<path style=" stroke:none;fill-rule:nonzero;fill:rgb(100%,100%,100%);fill-opacity:1;" d="M 4.476562 35.007812 C 4.476562 33.6875 3.40625 32.617188 2.085938 32.617188 C 0.765625 32.617188 -0.304688 33.6875 -0.304688 35.007812 C -0.304688 36.328125 0.765625 37.398438 2.085938 37.398438 C 3.40625 37.398438 4.476562 36.328125 4.476562 35.007812 Z M 4.476562 35.007812 "/>
</g>
</svg>
