<?xml version="1.0" encoding="UTF-8"?>
<svg xmlns="http://www.w3.org/2000/svg" xmlns:xlink="http://www.w3.org/1999/xlink" width="208pt" height="206pt" viewBox="0 0 208 206" version="1.1">
<g id="surface1">
<path style="fill:none;stroke-width:0.79701;stroke-linecap:butt;stroke-linejoin:miter;stroke:rgb(0%,0%,0%);stroke-opacity:1;stroke-miterlimit:10;" d="M 2.833437 28.348594 C 2.833437 28.348594 -7.47125 3.934531 0.00140625 0.0009375 C 7.474062 -3.932656 40.962344 -0.393594 56.692812 0.0009375 C 72.427188 0.391562 101.587344 2.832969 113.388125 2.832969 C 125.185 2.832969 133.868594 0.391562 141.735781 0.0009375 C 149.599063 -0.393594 162.21625 0.0009375 170.079531 0.0009375 C 177.946719 0.0009375 194.493594 -3.932656 198.427188 0.0009375 C 202.360781 3.934531 198.032656 14.582969 198.427188 28.348594 C 198.821719 42.114219 201.263125 99.211875 201.263125 99.211875 M 28.345156 28.348594 C 28.345156 28.348594 6.767031 12.614219 2.833437 28.348594 C -1.09625 44.079062 0.00140625 141.735312 0.00140625 141.735312 M 56.692812 141.735312 C 56.692812 141.735312 32.27875 145.668906 28.345156 141.735312 C 24.415469 137.801719 28.345156 129.118125 28.345156 113.387656 C 28.345156 97.653281 28.345156 42.114219 28.345156 28.348594 C 28.345156 14.582969 20.481875 16.141562 28.345156 14.172812 C 36.212344 12.207969 77.173281 11.223594 85.040469 14.172812 C 92.907656 17.122031 85.040469 35.434531 85.040469 35.434531 M 141.735781 0.0009375 C 141.735781 0.0009375 137.802188 24.415 141.735781 28.348594 C 145.665469 32.278281 166.145938 32.278281 170.079531 28.348594 C 174.013125 24.415 170.079531 0.0009375 170.079531 0.0009375 M 170.079531 28.348594 C 170.079531 28.348594 170.079531 75.207969 170.079531 85.04 C 170.079531 94.872031 172.048281 97.247031 170.079531 99.211875 C 168.114688 101.180625 155.907656 99.211875 155.907656 99.211875 M 141.735781 28.348594 C 141.735781 28.348594 117.321719 27.364219 113.388125 28.348594 C 109.454531 29.329062 113.388125 33.465781 113.388125 35.434531 C 113.388125 37.399375 113.388125 35.637656 113.388125 42.520469 C 113.388125 49.403281 121.255313 79.141562 113.388125 85.04 C 105.520938 90.938437 64.56 92.907187 56.692812 85.04 C 48.825625 77.172812 52.759219 35.231406 56.692812 28.348594 C 60.626406 21.465781 77.173281 34.450156 85.040469 35.434531 C 92.907656 36.415 113.388125 35.434531 113.388125 35.434531 M 113.388125 42.520469 C 113.388125 42.520469 137.802188 36.622031 141.735781 42.520469 C 145.665469 48.418906 141.735781 75.207969 141.735781 85.04 C 141.735781 94.872031 145.665469 109.454062 141.735781 113.387656 C 137.802188 117.32125 121.255313 113.9775 113.388125 113.387656 C 105.520938 112.797812 92.907656 109.13375 85.040469 109.13375 C 77.173281 109.13375 62.595156 112.797812 56.692812 113.387656 C 50.794375 113.9775 44.485781 117.32125 42.520937 113.387656 C 40.552187 109.454062 40.552187 88.973594 42.520937 85.04 C 44.485781 81.106406 56.692812 85.04 56.692812 85.04 M 141.735781 85.04 C 141.735781 85.04 153.942813 83.075156 155.907656 85.04 C 157.8725 87.00875 155.907656 94.493125 155.907656 99.211875 C 155.907656 103.934531 155.907656 113.157187 155.907656 119.055625 C 155.907656 124.957969 161.806094 138.586875 155.907656 141.735312 C 150.009219 144.879844 119.286563 145.668906 113.388125 141.735312 C 107.485781 137.801719 113.388125 113.387656 113.388125 113.387656 M 170.079531 85.04 C 170.079531 85.04 197.329531 91.348594 201.263125 99.211875 C 205.196719 107.079062 204.720156 138.981406 198.427188 141.735312 C 192.134219 144.485312 155.907656 119.055625 155.907656 119.055625 M 198.427188 141.735312 C 198.427188 141.735312 153.532656 176.387656 141.735781 184.254844 C 129.935 192.122031 129.118594 196.461875 113.388125 198.426719 C 97.65375 200.395469 44.079531 206.293906 28.345156 198.426719 C 12.614687 190.563437 0.00140625 153.532187 0.00140625 141.735312 C 0.00140625 129.934531 28.345156 113.387656 28.345156 113.387656 M 56.692812 113.387656 C 56.692812 113.387656 57.481875 135.832969 56.692812 141.735312 C 55.907656 147.63375 51.024844 151.973594 51.024844 155.907187 C 51.024844 159.840781 51.974062 166.149375 56.692812 170.079062 C 61.411562 174.012656 77.173281 188.188437 85.040469 184.254844 C 92.907656 180.32125 113.388125 141.735312 113.388125 141.735312 M 28.345156 198.426719 C 28.345156 198.426719 85.040469 184.254844 85.040469 184.254844 " transform="matrix(1,0,0,-1,3.19,203.29)"/>
</g>
</svg>
