<?xml version="1.0" encoding="UTF-8"?>
<svg xmlns="http://www.w3.org/2000/svg" xmlns:xlink="http://www.w3.org/1999/xlink" width="59pt" height="57pt" viewBox="0 0 59 57" version="1.1">
<g id="surface1">
<path style="fill:none;stroke-width:0.3985;stroke-linecap:butt;stroke-linejoin:miter;stroke:rgb(0%,0%,0%);stroke-opacity:1;stroke-miterlimit:10;" d="M -26.96125 8.761094 L 16.659844 -22.934219 L -0.0003125 28.347031 L -16.660469 -22.934219 L 26.960625 8.761094 L -26.96125 8.761094 " transform="matrix(1,0,0,-1,29.18,31.14)"/>
<path style=" stroke:none;fill-rule:nonzero;fill:rgb(0%,0%,0%);fill-opacity:1;" d="M 4.214844 22.378906 C 4.214844 21.28125 3.320312 20.386719 2.21875 20.386719 C 1.121094 20.386719 0.226562 21.28125 0.226562 22.378906 C 0.226562 23.480469 1.121094 24.371094 2.21875 24.371094 C 3.320312 24.371094 4.214844 23.480469 4.214844 22.378906 Z M 4.214844 22.378906 "/>
<path style=" stroke:none;fill-rule:nonzero;fill:rgb(0%,0%,0%);fill-opacity:1;" d="M 14.511719 54.074219 C 14.511719 52.972656 13.617188 52.082031 12.519531 52.082031 C 11.417969 52.082031 10.527344 52.972656 10.527344 54.074219 C 10.527344 55.171875 11.417969 56.066406 12.519531 56.066406 C 13.617188 56.066406 14.511719 55.171875 14.511719 54.074219 Z M 14.511719 54.074219 "/>
<path style=" stroke:none;fill-rule:nonzero;fill:rgb(0%,0%,0%);fill-opacity:1;" d="M 47.835938 54.074219 C 47.835938 52.972656 46.941406 52.082031 45.839844 52.082031 C 44.742188 52.082031 43.847656 52.972656 43.847656 54.074219 C 43.847656 55.171875 44.742188 56.066406 45.839844 56.066406 C 46.941406 56.066406 47.835938 55.171875 47.835938 54.074219 Z M 47.835938 54.074219 "/>
<path style=" stroke:none;fill-rule:nonzero;fill:rgb(0%,0%,0%);fill-opacity:1;" d="M 58.132812 22.378906 C 58.132812 21.28125 57.238281 20.386719 56.140625 20.386719 C 55.039062 20.386719 54.148438 21.28125 54.148438 22.378906 C 54.148438 23.480469 55.039062 24.371094 56.140625 24.371094 C 57.238281 24.371094 58.132812 23.480469 58.132812 22.378906 Z M 58.132812 22.378906 "/>
<path style=" stroke:none;fill-rule:nonzero;fill:rgb(0%,0%,0%);fill-opacity:1;" d="M 31.171875 2.792969 C 31.171875 1.691406 30.28125 0.800781 29.179688 0.800781 C 28.078125 0.800781 27.1875 1.691406 27.1875 2.792969 C 27.1875 3.894531 28.078125 4.785156 29.179688 4.785156 C 30.28125 4.785156 31.171875 3.894531 31.171875 2.792969 Z M 31.171875 2.792969 "/>
</g>
</svg>
