<?xml version="1.0" encoding="UTF-8"?>
<svg xmlns="http://www.w3.org/2000/svg" xmlns:xlink="http://www.w3.org/1999/xlink" width="184pt" height="117pt" viewBox="0 0 184 117" version="1.1">
<g id="surface1">
<path style="fill-rule:nonzero;fill:rgb(89.99939%,89.99939%,89.99939%);fill-opacity:1;stroke-width:0.69739;stroke-linecap:butt;stroke-linejoin:miter;stroke:rgb(100%,100%,100%);stroke-opacity:1;stroke-miterlimit:10;" d="M 46.443781 -103.47425 L 46.8305 -102.767219 L 47.279719 -102.700812 L 47.346125 -102.864875 L 46.928156 -103.47425 Z M 48.475031 -102.735969 L 49.697688 -103.251594 L 50.115656 -103.185187 L 50.439875 -102.41175 L 50.310969 -101.735969 L 49.471125 -101.638312 L 48.666438 -101.993781 Z M 54.592219 -104.732062 L 55.334406 -105.825812 L 55.818781 -105.763312 L 56.041438 -105.665656 L 56.334406 -105.923469 L 57.072688 -105.892219 L 57.268 -105.603156 L 56.685969 -105.247687 L 56.29925 -104.5055 L 55.881281 -103.798469 L 54.721125 -104.376594 Z M 58.619563 -106.501594 L 58.877375 -106.118781 L 59.810969 -106.310187 L 59.939875 -106.212531 L 61.166438 -106.341437 L 61.100031 -106.59925 L 60.584406 -106.888312 L 59.717219 -106.825812 Z M 59.682063 -107.532844 L 60.068781 -108.306281 L 60.682063 -108.083625 L 60.744563 -107.759406 L 60.42425 -107.341437 L 59.682063 -107.275031 Z M 61.068781 -107.310187 L 61.518 -106.728156 L 62.451594 -107.212531 L 63.322688 -107.439094 L 64.193781 -107.985969 L 64.193781 -108.372687 L 63.482844 -108.72425 L 62.518 -108.919562 L 62.033625 -108.6305 Z M 64.385188 -110.400031 L 64.709406 -110.142219 L 65.385188 -110.466437 L 66.896906 -111.173469 L 67.576594 -111.591437 L 67.896906 -112.075812 L 68.283625 -112.946906 L 69.088313 -113.462531 L 69.025813 -113.720344 L 68.252375 -114.364875 L 67.412531 -114.653937 L 67.123469 -114.525031 L 66.514094 -114.8805 L 66.029719 -115.521125 L 65.576594 -116.103156 L 65.225031 -116.071906 L 64.514094 -115.556281 L 64.451594 -114.653937 L 64.5805 -114.169562 L 64.256281 -113.040656 L 63.838313 -112.689094 L 63.807063 -112.173469 L 64.256281 -111.978156 L 64.67425 -111.368781 L 64.771906 -111.173469 L 64.451594 -110.818 Z M 64.385188 -110.400031 " transform="matrix(1,0,0,-1,-1.143,-0.568)"/>
<path style="fill-rule:nonzero;fill:rgb(89.99939%,89.99939%,89.99939%);fill-opacity:1;stroke-width:0.69739;stroke-linecap:butt;stroke-linejoin:miter;stroke:rgb(100%,100%,100%);stroke-opacity:1;stroke-miterlimit:10;" d="M 31.498469 -90.396125 L 31.432063 -107.403937 L 31.756281 -107.59925 L 32.365656 -107.6305 L 32.658625 -107.403937 L 33.17425 -107.403937 L 33.2055 -107.985969 L 34.588313 -109.337531 L 34.685969 -109.853156 L 35.36175 -109.466437 L 35.490656 -109.435187 L 35.557063 -108.821906 L 35.846125 -108.501594 L 36.072688 -108.470344 L 36.459406 -108.177375 L 37.068781 -108.595344 L 37.197688 -109.177375 L 37.584406 -109.403937 L 37.810969 -109.884406 L 38.584406 -110.239875 L 39.260188 -111.431281 L 39.807063 -112.204719 L 40.260188 -112.751594 L 40.54925 -113.493781 L 41.54925 -113.84925 L 42.5805 -114.267219 L 42.771906 -115.134406 L 42.869563 -115.747687 L 42.67425 -116.423469 L 42.322688 -116.876594 L 41.998469 -116.716437 L 41.709406 -116.103156 L 41.162531 -115.814094 L 40.807063 -115.587531 L 40.646906 -115.747687 L 40.935969 -116.294562 L 40.967219 -117.03675 L 40.740656 -117.134406 L 40.357844 -116.747687 L 39.935969 -116.489875 L 40.033625 -116.810187 L 40.291438 -117.165656 L 40.131281 -117.325812 C 40.131281 -117.325812 39.971125 -117.263312 39.873469 -117.134406 C 39.775813 -117.0055 39.4555 -116.458625 39.4555 -116.458625 L 39.260188 -116.0055 C 39.260188 -116.0055 39.197688 -116.263312 39.068781 -116.200812 C 38.939875 -116.134406 38.810969 -115.907844 38.810969 -115.907844 L 39.162531 -115.521125 L 38.873469 -115.232062 L 38.873469 -114.235969 L 38.713313 -114.235969 L 38.553156 -114.91175 L 38.326594 -115.009406 L 38.135188 -114.267219 L 38.006281 -113.525031 L 37.842219 -113.427375 L 37.908625 -114.556281 L 37.908625 -114.782844 L 37.619563 -114.525031 L 36.908625 -113.333625 L 36.490656 -113.235969 L 36.36175 -112.493781 L 36.041438 -111.915656 L 35.717219 -111.689094 L 35.717219 -111.239875 L 36.135188 -110.982062 L 36.041438 -110.915656 L 35.525813 -111.044562 L 34.846125 -110.564094 L 34.3305 -109.982062 L 33.365656 -109.466437 L 32.560969 -108.950812 L 32.818781 -108.306281 L 32.818781 -107.985969 L 32.463313 -108.306281 L 31.885188 -108.532844 L 31.143 -108.306281 L 30.014094 -107.825812 L 28.920344 -107.825812 L 28.791438 -107.919562 L 27.502375 -107.146125 L 27.084406 -107.083625 L 26.537531 -105.923469 L 25.826594 -105.989875 L 25.119563 -106.278937 L 25.217219 -107.181281 L 25.443781 -106.59925 L 25.635188 -106.665656 L 25.346125 -107.532844 L 25.990656 -106.985969 L 26.119563 -107.310187 L 25.346125 -108.177375 L 25.088313 -108.114875 L 24.990656 -107.728156 L 24.732844 -107.568 L 24.475031 -107.790656 L 23.928156 -107.439094 L 23.314875 -107.857062 L 22.963313 -108.275031 L 22.283625 -108.693 L 21.350031 -108.66175 L 21.252375 -108.243781 L 21.994563 -108.114875 L 21.994563 -107.857062 L 21.545344 -107.728156 L 21.73675 -107.243781 L 22.189875 -106.470344 L 22.189875 -106.118781 L 22.221125 -105.954719 L 23.092219 -105.5055 L 23.283625 -105.763312 L 23.8305 -105.763312 L 23.572688 -105.247687 L 22.834406 -105.181281 L 21.834406 -105.732062 L 21.350031 -106.407844 L 20.998469 -106.923469 L 20.771906 -107.372687 L 19.932063 -107.66175 L 19.322688 -108.177375 L 19.256281 -108.501594 L 19.709406 -108.693 L 19.869563 -109.110969 L 19.322688 -109.7555 L 18.033625 -110.595344 L 16.48675 -111.431281 L 16.068781 -111.657844 L 15.006281 -111.884406 L 13.943781 -112.333625 L 14.295344 -112.591437 L 14.006281 -112.8805 L 13.908625 -113.107062 L 13.36175 -112.91175 L 12.717219 -112.946906 L 12.557063 -113.396125 L 12.365656 -113.396125 L 12.428156 -112.91175 L 11.721125 -113.169562 L 11.139094 -113.364875 L 10.463313 -113.107062 L 9.885188 -113.493781 L 9.240656 -113.493781 L 8.818781 -113.751594 L 8.498469 -113.91175 L 8.0805 -113.84925 L 7.564875 -113.622687 L 7.11175 -113.751594 L 6.920344 -113.943 L 6.596125 -113.720344 L 6.596125 -113.333625 L 7.209406 -113.075812 L 8.467219 -113.204719 L 9.334406 -112.8805 L 9.756281 -112.462531 L 10.334406 -112.333625 L 10.689875 -112.173469 L 11.23675 -112.204719 L 11.557063 -112.462531 L 11.752375 -112.400031 L 12.201594 -111.84925 L 12.814875 -111.657844 L 13.490656 -111.528937 L 13.748469 -111.462531 L 13.877375 -111.560187 L 14.037531 -111.560187 L 14.295344 -110.818 L 15.100031 -110.528937 L 15.48675 -109.790656 L 15.939875 -108.888312 L 16.260188 -108.595344 L 16.326594 -108.083625 L 16.002375 -108.341437 L 15.326594 -108.470344 L 15.197688 -107.985969 L 14.939875 -107.919562 L 14.748469 -108.114875 L 14.717219 -108.693 L 14.42425 -108.66175 L 14.135188 -107.501594 L 13.877375 -107.759406 L 13.650813 -107.66175 L 13.588313 -107.275031 L 12.783625 -107.310187 L 12.365656 -107.532844 L 11.850031 -107.470344 L 12.139094 -107.181281 L 12.23675 -106.665656 L 12.107844 -106.278937 L 12.396906 -106.083625 L 12.654719 -106.052375 L 12.525813 -105.696906 L 12.525813 -104.829719 L 12.3305 -104.634406 L 12.170344 -104.923469 L 10.947688 -104.923469 L 10.654719 -104.665656 L 10.525813 -103.896125 L 10.107844 -103.185187 L 10.107844 -102.993781 L 10.525813 -102.829719 L 10.560969 -102.41175 L 10.783625 -102.185187 L 10.623469 -102.091437 L 10.365656 -102.185187 L 10.143 -101.638312 L 10.334406 -100.642219 L 11.23675 -99.997687 L 11.752375 -99.673469 L 12.139094 -98.935187 L 12.685969 -98.677375 L 13.201594 -98.900031 L 13.264094 -99.384406 L 13.748469 -99.321906 L 14.393 -98.837531 L 14.717219 -98.966437 L 14.908625 -99.095344 L 15.228938 -99.095344 L 15.682063 -98.837531 L 15.842219 -97.966437 C 15.842219 -97.966437 15.908625 -97.388312 16.037531 -97.290656 C 16.166438 -97.193 16.228938 -97.09925 16.228938 -97.09925 L 16.002375 -96.712531 L 15.48675 -96.872687 L 14.842219 -97.032844 L 14.459406 -96.935187 L 13.748469 -96.583625 L 12.748469 -96.548469 L 12.041438 -95.810187 L 12.139094 -95.03675 L 12.268 -94.552375 L 11.850031 -94.196906 L 11.463313 -93.458625 L 11.557063 -93.298469 L 12.912531 -93.200812 L 13.3305 -93.200812 L 13.521906 -93.392219 L 13.650813 -93.392219 L 13.619563 -93.071906 L 14.393 -92.943 L 14.908625 -93.0055 L 15.197688 -93.232062 L 14.908625 -93.650031 L 14.810969 -93.939094 L 15.357844 -94.263312 L 16.357844 -94.618781 L 16.713313 -94.423469 L 16.260188 -93.552375 L 16.068781 -92.91175 L 16.260188 -92.747687 L 15.584406 -92.360969 L 15.48675 -92.138312 L 15.584406 -91.814094 L 15.42425 -91.040656 L 14.842219 -90.107062 L 14.36175 -89.271125 L 14.939875 -88.884406 L 15.584406 -88.884406 L 15.939875 -89.013312 L 16.775813 -88.982062 L 17.518 -88.271125 L 17.744563 -87.657844 L 18.482844 -87.177375 L 18.807063 -87.368781 L 19.353938 -87.239875 L 20.096125 -86.821906 L 20.318781 -86.790656 L 20.514094 -86.950812 L 21.416438 -86.919562 L 21.963313 -86.306281 L 22.189875 -86.306281 L 22.896906 -86.790656 L 23.283625 -87.208625 L 23.185969 -87.435187 L 23.314875 -87.657844 L 23.639094 -87.337531 L 24.412531 -87.400031 L 24.475031 -88.142219 L 24.86175 -88.431281 L 26.279719 -88.560187 L 27.537531 -89.400031 L 27.826594 -89.204719 L 28.857844 -89.720344 L 29.275813 -89.591437 L 29.662531 -89.431281 L 30.627375 -89.818 Z M 8.560969 -96.16175 L 8.982844 -97.228156 L 8.947688 -97.419562 L 8.369563 -97.357062 L 8.014094 -96.548469 L 7.662531 -96.259406 L 7.178156 -96.259406 L 7.146906 -95.743781 L 7.498469 -95.263312 L 7.725031 -95.743781 L 8.014094 -96.032844 Z M 8.04925 -102.829719 L 8.787531 -102.993781 L 9.529719 -103.185187 L 9.689875 -103.3805 L 9.369563 -104.118781 L 8.756281 -104.087531 L 8.0805 -103.3805 Z M 3.92425 -100.028937 L 4.150813 -100.544562 L 4.373469 -100.864875 L 4.150813 -101.028937 L 3.732844 -100.415656 L 3.732844 -100.028937 Z M 1.185969 -114.587531 L 1.86175 -114.138312 L 2.537531 -113.943 L 3.053156 -114.009406 L 3.150813 -114.329719 L 3.537531 -114.427375 L 3.92425 -114.040656 L 3.86175 -113.720344 L 4.408625 -113.591437 L 4.98675 -114.107062 L 4.760188 -114.458625 L 3.893 -114.685187 L 3.346125 -114.587531 L 2.603938 -114.364875 L 1.732844 -114.653937 L 1.412531 -114.716437 Z M 10.947688 -113.685187 L 11.268 -114.071906 L 11.685969 -113.751594 L 11.396906 -113.493781 Z M 11.525813 -114.298469 L 11.752375 -113.84925 L 12.170344 -113.91175 L 12.010188 -114.298469 Z M 16.228938 -113.91175 L 16.518 -114.267219 L 16.713313 -114.040656 L 16.553156 -113.653937 Z M 17.967219 -111.431281 L 18.193781 -112.591437 L 18.775813 -112.751594 L 19.771906 -112.173469 L 20.643 -111.657844 L 20.318781 -111.173469 L 20.416438 -110.693 L 19.998469 -110.946906 L 19.416438 -110.78675 L 19.740656 -110.564094 L 20.127375 -110.72425 L 20.900813 -110.368781 L 20.998469 -110.079719 L 20.514094 -109.919562 L 20.67425 -109.532844 L 20.127375 -109.919562 L 19.193781 -110.626594 L 18.225031 -111.204719 Z M 26.408625 -107.470344 L 26.893 -107.181281 L 26.697688 -106.825812 L 26.342219 -107.017219 Z M 26.408625 -107.470344 " transform="matrix(1,0,0,-1,-1.143,-0.568)"/>
<path style="fill-rule:nonzero;fill:rgb(89.99939%,89.99939%,89.99939%);fill-opacity:1;stroke-width:0.69739;stroke-linecap:butt;stroke-linejoin:miter;stroke:rgb(100%,100%,100%);stroke-opacity:1;stroke-miterlimit:10;" d="M 151.396906 -87.501594 L 151.850031 -88.958625 L 152.592219 -90.900031 L 153.654719 -92.771125 L 154.396906 -94.025031 L 155.36175 -95.122687 L 156.166438 -95.860969 L 156.490656 -96.443 L 156.264094 -96.700812 L 156.103938 -96.958625 L 156.682063 -98.439094 L 157.264094 -99.017219 L 157.779719 -100.083625 L 158.48675 -101.239875 L 159.389094 -102.884406 L 159.646906 -104.400031 L 159.744563 -106.782844 L 159.873469 -107.134406 L 159.807063 -107.814094 L 159.326594 -108.071906 L 159.389094 -108.458625 L 159.260188 -108.841437 L 159.326594 -109.325812 L 159.420344 -109.712531 L 158.873469 -110.357062 L 158.260188 -110.646125 L 157.490656 -110.681281 L 157.197688 -111.001594 L 156.717219 -111.193 L 156.459406 -111.09925 L 156.232844 -110.903937 L 156.166438 -110.325812 L 156.006281 -109.650031 L 155.3305 -108.618781 L 154.623469 -108.165656 L 153.850031 -108.103156 L 153.689875 -108.360969 L 153.076594 -107.489875 L 152.947688 -106.782844 L 152.432063 -105.978156 L 152.076594 -105.751594 L 151.756281 -106.169562 L 151.400813 -106.107062 L 150.982844 -105.107062 L 150.400813 -104.333625 L 149.822688 -103.271125 L 149.307063 -102.657844 L 148.600031 -101.919562 L 149.018 -101.435187 L 149.662531 -100.337531 L 149.627375 -100.017219 L 148.728938 -99.825812 L 148.404719 -99.954719 L 148.471125 -100.083625 L 148.98675 -100.275031 L 148.693781 -101.177375 L 148.533625 -101.275031 L 148.178156 -100.466437 L 147.920344 -99.501594 L 147.857844 -98.954719 L 148.146906 -98.021125 L 148.146906 -96.118781 L 147.533625 -95.3805 L 147.279719 -94.767219 L 146.248469 -94.509406 L 145.86175 -94.3805 L 145.537531 -93.864875 L 144.86175 -93.544562 L 144.635188 -92.864875 L 144.088313 -92.673469 L 143.603938 -91.931281 L 142.768 -91.642219 L 142.189875 -91.353156 L 141.67425 -91.353156 L 140.869563 -91.513312 L 140.834406 -91.900031 L 140.994563 -92.091437 L 140.900813 -92.318 L 140.287531 -92.28675 L 139.545344 -92.993781 L 138.838313 -93.3805 L 138.064875 -93.3805 L 137.420344 -93.638312 L 137.357844 -93.091437 L 137.033625 -92.704719 L 136.4555 -92.478156 L 136.131281 -92.189094 L 134.521906 -91.415656 L 133.006281 -91.064094 L 132.139094 -91.193 L 130.947688 -91.28675 L 129.756281 -91.704719 L 129.060969 -91.829719 L 129.014094 -90.22425 L 128.498469 -89.837531 L 128.143 -89.482062 L 128.209406 -88.872687 L 130.23675 -88.614875 L 135.326594 -88.032844 L 136.682063 -87.903937 L 137.764094 -87.962531 L 138.279719 -88.735969 L 138.568781 -89.025031 L 140.182063 -89.126594 L 142.338313 -88.997687 L 146.623469 -88.739875 L 147.709406 -88.607062 L 148.728938 -88.646125 L 148.810969 -89.228156 L 149.256281 -89.388312 L 149.303156 -88.466437 L 148.998469 -87.634406 L 149.260188 -87.345344 L 150.365656 -87.439094 Z M 153.896906 -113.884406 L 154.381281 -113.7555 L 154.639094 -113.708625 L 154.928156 -113.239875 L 155.396906 -112.919562 L 155.654719 -113.013312 L 155.990656 -113.079719 L 156.072688 -113.28675 L 155.381281 -113.528937 L 154.541438 -113.821906 L 154.076594 -114.060187 Z M 156.588313 -112.884406 L 156.8305 -113.095344 L 157.377375 -112.677375 L 158.439875 -111.837531 L 159.182063 -111.064094 L 159.678156 -109.743781 L 159.873469 -109.407844 L 159.904719 -108.732062 L 159.760188 -108.825812 L 159.568781 -109.392219 L 159.275813 -110.310187 L 158.631281 -111.357062 L 157.764094 -112.193 L 157.088313 -112.579719 Z M 156.588313 -112.884406 " transform="matrix(1,0,0,-1,-1.143,-0.568)"/>
<path style="fill-rule:nonzero;fill:rgb(89.99939%,89.99939%,89.99939%);fill-opacity:1;stroke-width:0.69739;stroke-linecap:butt;stroke-linejoin:miter;stroke:rgb(100%,100%,100%);stroke-opacity:1;stroke-miterlimit:10;" d="M 175.506281 -28.3805 L 175.678156 -28.165656 L 175.896906 -27.509406 L 175.389094 -27.325812 L 175.291438 -26.716437 L 174.518 -26.489875 L 174.4555 -25.943 L 173.006281 -21.271125 L 172.088313 -18.372687 L 171.908625 -18.372687 L 171.779719 -18.693 L 171.650813 -18.59925 L 171.459406 -18.403937 L 171.166438 -18.790656 L 171.158625 -19.794562 L 171.221125 -20.923469 L 171.607844 -21.470344 L 171.607844 -22.275031 L 170.865656 -23.282844 L 170.350031 -23.509406 L 170.350031 -23.735969 L 170.576594 -24.091437 L 170.576594 -25.798469 L 170.416438 -27.634406 L 170.381281 -28.59925 L 170.576594 -28.857062 L 170.545344 -29.759406 L 170.447688 -30.114875 L 170.639094 -30.2555 L 173.98675 -29.372687 L 174.420344 -29.251594 L 174.787531 -28.700812 Z M 175.506281 -28.3805 " transform="matrix(1,0,0,-1,-1.143,-0.568)"/>
<path style="fill-rule:nonzero;fill:rgb(89.99939%,89.99939%,89.99939%);fill-opacity:1;stroke-width:0.69739;stroke-linecap:butt;stroke-linejoin:miter;stroke:rgb(100%,100%,100%);stroke-opacity:1;stroke-miterlimit:10;" d="M 139.053156 -35.314094 L 138.408625 -33.673469 L 137.959406 -31.868781 L 137.475031 -31.22425 L 136.959406 -30.868781 L 136.635188 -31.095344 L 135.865656 -31.450812 L 135.478938 -32.446906 L 134.928156 -33.189094 L 134.7055 -33.318 L 134.412531 -33.189094 C 134.412531 -33.189094 133.900813 -32.900031 133.932063 -32.771125 C 133.963313 -32.642219 134.029719 -31.771125 134.029719 -31.771125 L 134.7055 -31.513312 L 134.865656 -30.837531 L 134.994563 -30.321906 L 135.478938 -30.001594 L 135.412531 -28.001594 L 135.092219 -27.552375 L 134.834406 -27.392219 L 134.670344 -26.97425 L 134.834406 -26.810187 L 135.154719 -26.876594 L 135.185969 -26.552375 L 134.7055 -26.103156 L 134.447688 -25.587531 L 133.932063 -25.587531 L 133.029719 -25.298469 L 131.935969 -24.622687 L 131.385188 -24.622687 L 131.256281 -24.751594 L 131.064875 -24.653937 L 130.451594 -24.200812 L 129.873469 -24.556281 L 129.291438 -25.009406 L 129.357844 -25.716437 L 129.54925 -25.778937 L 129.967219 -25.876594 L 130.064875 -26.03675 L 129.54925 -26.200812 L 129.033625 -26.263312 L 128.744563 -26.618781 L 128.682063 -27.03675 L 128.744563 -27.360969 L 128.810969 -28.454719 L 128.100031 -28.872687 L 127.971125 -28.841437 L 127.971125 -28.001594 L 128.228938 -27.521125 L 128.357844 -27.03675 L 128.197688 -26.876594 L 127.810969 -27.03675 L 127.619563 -27.872687 L 127.068781 -28.09925 L 126.717219 -28.485969 L 126.682063 -28.681281 L 126.810969 -28.841437 L 126.682063 -29.357062 L 126.232844 -29.454719 L 126.232844 -29.677375 L 126.393 -30.16175 L 126.166438 -31.384406 L 125.846125 -32.189094 L 125.975031 -33.126594 L 126.072688 -33.34925 L 125.908625 -33.833625 L 125.846125 -33.993781 L 125.779719 -34.540656 L 126.490656 -35.735969 L 127.068781 -37.021125 L 127.36175 -37.989875 L 127.197688 -38.923469 L 127.006281 -40.114875 L 126.521906 -41.146125 L 126.459406 -41.693 L 125.807063 -42.306281 L 126.685969 -42.275031 L 130.9555 -41.825812 L 132.404719 -41.626594 L 132.42425 -41.958625 L 133.791438 -41.720344 L 135.842219 -41.419562 L 136.607844 -41.325812 L 136.635188 -41.208625 L 136.670344 -40.919562 L 137.088313 -40.181281 L 137.48675 -39.833625 L 137.443781 -38.825812 L 137.760188 -38.509406 L 137.978938 -38.439094 L 138.021906 -37.732062 L 138.326594 -37.126594 L 138.537531 -37.247687 L 138.568781 -37.376594 L 138.728938 -37.407844 L 139.115656 -37.216437 Z M 139.053156 -35.314094 " transform="matrix(1,0,0,-1,-1.143,-0.568)"/>
<path style="fill-rule:nonzero;fill:rgb(89.99939%,89.99939%,89.99939%);fill-opacity:1;stroke-width:0.69739;stroke-linecap:butt;stroke-linejoin:miter;stroke:rgb(100%,100%,100%);stroke-opacity:1;stroke-miterlimit:10;" d="M 115.893 -16.34925 L 116.256281 -15.939094 L 116.689875 -15.782844 L 117.760188 -15.0055 L 118.213313 -14.892219 L 118.307063 -14.985969 L 117.279719 -16.009406 L 116.619563 -16.396125 L 116.209406 -16.579719 Z M 133.060969 -22.751594 L 133.189875 -23.251594 L 133.834406 -23.282844 L 134.092219 -23.040656 C 134.092219 -23.040656 134.076594 -22.751594 134.014094 -22.720344 C 133.947688 -22.689094 133.689875 -22.34925 133.689875 -22.34925 L 133.256281 -22.400031 L 132.932063 -22.431281 L 132.869563 -22.653937 Z M 113.076594 -22.16175 L 113.217219 -22.044562 L 113.768 -21.884406 L 114.475031 -21.431281 L 114.475031 -21.239875 L 114.603938 -21.110969 L 115.795344 -20.915656 L 116.279719 -20.528937 L 117.146906 -20.110969 L 117.182063 -19.853156 L 117.568781 -19.275031 L 117.920344 -19.114875 L 118.178156 -18.759406 L 118.631281 -18.306281 L 119.498469 -17.825812 L 120.435969 -17.728156 L 120.658625 -17.954719 L 120.596125 -18.146125 L 119.853938 -18.341437 L 119.564875 -18.950812 L 119.115656 -19.114875 L 119.018 -19.595344 L 118.533625 -20.239875 L 118.471125 -20.7555 L 118.631281 -20.853156 L 118.822688 -20.626594 L 119.533625 -20.048469 L 119.791438 -20.306281 L 120.240656 -20.306281 L 120.885188 -20.497687 L 121.17425 -20.72425 L 121.463313 -21.333625 L 122.014094 -21.884406 L 122.787531 -21.84925 L 123.076594 -21.657844 L 123.396906 -21.915656 L 123.721125 -22.013312 L 123.978938 -21.84925 L 124.201594 -21.84925 L 124.525813 -21.657844 L 125.3305 -20.950812 L 126.006281 -20.72425 L 127.326594 -20.657844 L 128.228938 -20.271125 L 128.744563 -20.013312 L 129.033625 -20.048469 L 129.033625 -21.173469 L 129.131281 -21.239875 L 129.713313 -21.400031 L 130.096125 -21.302375 L 131.322688 -20.982062 L 131.54925 -20.7555 L 131.838313 -20.853156 L 131.838313 -22.235969 L 132.482844 -22.84925 L 132.740656 -22.978156 L 132.998469 -23.173469 L 132.740656 -23.235969 L 132.576594 -23.173469 L 131.838313 -23.075812 L 131.420344 -23.204719 L 130.967219 -23.173469 L 130.322688 -23.462531 L 129.967219 -23.462531 L 128.810969 -23.204719 L 127.779719 -23.235969 L 127.393 -23.751594 L 126.006281 -23.8805 L 125.525813 -24.040656 L 125.29925 -24.653937 L 125.041438 -24.8805 L 124.943781 -24.845344 L 124.654719 -24.525031 L 123.752375 -25.009406 L 123.623469 -25.009406 L 123.396906 -24.685187 L 123.23675 -24.716437 L 122.850031 -25.587531 L 122.658625 -26.392219 L 122.021906 -27.78675 L 121.787531 -27.583625 L 121.514094 -27.376594 L 121.127375 -25.325812 L 120.42425 -25.052375 L 120.014094 -24.59925 L 117.600031 -24.052375 L 117.029719 -23.845344 L 115.389094 -23.41175 L 113.818781 -23.185187 Z M 113.076594 -22.16175 " transform="matrix(1,0,0,-1,-1.143,-0.568)"/>
<path style="fill-rule:nonzero;fill:rgb(89.99939%,89.99939%,89.99939%);fill-opacity:1;stroke-width:0.69739;stroke-linecap:butt;stroke-linejoin:miter;stroke:rgb(100%,100%,100%);stroke-opacity:1;stroke-miterlimit:10;" d="M 168.268 -30.696906 L 168.3305 -29.6305 L 167.756281 -27.482062 L 167.627375 -27.419562 L 167.045344 -27.16175 L 167.209406 -26.579719 L 167.045344 -26.16175 L 166.510188 -25.235969 L 166.701594 -24.466437 L 166.541438 -23.435187 L 166.057063 -22.146125 L 165.896906 -21.165656 L 171.162531 -19.821906 L 171.225031 -20.923469 L 171.603938 -21.470344 L 171.603938 -22.275031 L 170.865656 -23.282844 L 170.350031 -23.509406 L 170.350031 -23.735969 L 170.61175 -24.03675 L 170.54925 -25.650031 L 170.428156 -27.493781 L 170.381281 -28.603156 L 170.572688 -28.860969 L 170.541438 -29.771125 L 170.443781 -30.107062 L 170.646906 -30.251594 L 169.166438 -30.552375 Z M 168.268 -30.696906 " transform="matrix(1,0,0,-1,-1.143,-0.568)"/>
<path style="fill-rule:nonzero;fill:rgb(89.99939%,89.99939%,89.99939%);fill-opacity:1;stroke-width:0.69739;stroke-linecap:butt;stroke-linejoin:miter;stroke:rgb(100%,100%,100%);stroke-opacity:1;stroke-miterlimit:10;" d="M 183.881281 -15.708625 L 184.268 -16.126594 L 184.717219 -16.868781 L 184.717219 -17.2555 L 184.29925 -18.189094 L 183.912531 -18.318 L 183.23675 -18.927375 L 182.271906 -20.025031 C 182.271906 -20.025031 182.143 -20.025031 182.014094 -20.025031 C 181.885188 -20.025031 181.818781 -19.607062 181.818781 -19.607062 L 181.467219 -19.638312 L 181.271906 -19.927375 L 180.787531 -20.216437 L 180.596125 -20.5055 L 180.916438 -20.798469 L 180.822688 -20.927375 L 180.725031 -21.47425 L 180.338313 -21.443 L 180.338313 -21.118781 L 180.271906 -20.860969 L 179.982844 -20.927375 L 179.631281 -20.282844 L 179.209406 -20.540656 L 179.467219 -20.829719 L 179.533625 -21.056281 L 179.373469 -21.314094 L 179.435969 -21.923469 L 179.467219 -22.247687 L 179.146906 -22.763312 L 178.564875 -22.857062 L 178.502375 -23.439094 L 177.439875 -24.048469 L 177.182063 -24.146125 L 176.857844 -23.857062 L 176.248469 -24.564094 L 176.439875 -25.208625 L 176.150813 -25.466437 L 176.119563 -26.337531 L 175.893 -27.583625 L 175.404719 -27.353156 L 175.307063 -26.743781 L 174.533625 -26.517219 L 174.471125 -25.970344 L 173.021906 -21.298469 L 172.084406 -18.3805 L 172.365656 -18.357062 L 172.670344 -18.439094 L 172.670344 -17.923469 L 172.928156 -17.028937 L 173.443781 -16.095344 L 173.732844 -15.290656 L 173.350031 -14.806281 L 173.350031 -13.614875 L 173.510188 -13.419562 L 173.670344 -12.872687 L 173.639094 -12.583625 L 173.603938 -11.614875 L 173.959406 -10.650031 L 174.541438 -8.8805 L 174.959406 -8.040656 L 175.217219 -8.040656 L 175.475031 -8.071906 L 175.475031 -8.298469 L 175.732844 -8.751594 L 176.279719 -8.8805 L 176.439875 -8.716437 L 176.439875 -8.525031 L 177.244563 -7.943 L 177.600031 -7.591437 L 177.889094 -7.622687 L 179.0805 -8.107062 L 179.467219 -8.298469 L 181.271906 -14.259406 L 182.463313 -14.259406 L 182.623469 -14.646125 L 182.658625 -15.610969 L 183.23675 -16.060187 L 183.396906 -16.060187 L 183.432063 -15.966437 L 183.334406 -15.739875 Z M 179.709406 -21.716437 L 180.018 -21.407844 L 180.291438 -21.618781 L 180.404719 -22.09925 L 180.064875 -22.278937 Z M 181.04925 -20.540656 L 181.400813 -20.907844 C 181.400813 -20.907844 181.658625 -20.923469 181.658625 -20.860969 C 181.658625 -20.798469 181.709406 -20.458625 181.709406 -20.458625 L 181.885188 -20.298469 L 181.725031 -19.943 L 181.322688 -20.087531 Z M 181.04925 -20.540656 " transform="matrix(1,0,0,-1,-1.143,-0.568)"/>
<path style="fill-rule:nonzero;fill:rgb(89.99939%,89.99939%,89.99939%);fill-opacity:1;stroke-width:0.69739;stroke-linecap:butt;stroke-linejoin:miter;stroke:rgb(100%,100%,100%);stroke-opacity:1;stroke-miterlimit:10;" d="M 174.162531 -35.646125 L 173.428156 -32.665656 L 174.678156 -32.298469 L 175.11175 -32.681281 L 175.771906 -33.544562 L 176.307063 -34.419562 L 175.709406 -34.743781 L 175.451594 -34.712531 L 175.225031 -35.068 L 174.744563 -35.450812 Z M 174.162531 -35.646125 " transform="matrix(1,0,0,-1,-1.143,-0.568)"/>
<path style="fill-rule:nonzero;fill:rgb(89.99939%,89.99939%,89.99939%);fill-opacity:1;stroke-width:0.69739;stroke-linecap:butt;stroke-linejoin:miter;stroke:rgb(100%,100%,100%);stroke-opacity:1;stroke-miterlimit:10;" d="M 165.459406 -37.607062 L 165.232844 -37.415656 L 164.717219 -37.384406 L 164.268 -36.997687 L 163.939875 -35.775031 L 163.252375 -35.794562 L 162.764094 -35.2555 L 158.900813 -36.126594 L 150.334406 -37.864875 L 148.834406 -38.110969 L 148.685969 -36.821906 L 148.971125 -36.59925 L 149.228938 -36.372687 L 149.42425 -36.048469 L 149.775813 -35.825812 L 150.162531 -35.470344 L 150.260188 -35.150031 L 150.678156 -34.59925 L 150.904719 -34.407844 L 150.873469 -34.212531 L 150.615656 -33.603156 L 150.260188 -33.571906 L 149.873469 -32.345344 L 150.451594 -31.989875 L 151.322688 -31.700812 L 152.127375 -31.443 L 152.771906 -31.34925 L 154.029719 -31.314094 L 154.416438 -31.571906 L 154.73675 -31.607062 L 155.154719 -31.34925 L 155.670344 -31.122687 L 156.701594 -31.025031 L 157.119563 -30.669562 L 157.475031 -30.025031 L 157.79925 -29.638312 L 158.217219 -29.638312 L 158.603938 -29.415656 L 158.635188 -28.962531 L 158.346125 -28.544562 L 158.279719 -28.2555 L 158.506281 -27.837531 L 158.506281 -27.544562 L 158.150813 -27.544562 L 157.79925 -27.384406 L 157.635188 -27.16175 L 157.603938 -26.646125 L 158.764094 -25.548469 L 158.893 -25.388312 L 159.182063 -24.810187 L 159.764094 -23.907844 L 160.310969 -23.165656 L 160.728938 -22.681281 L 161.209406 -22.318 L 161.822688 -22.071906 L 162.920344 -21.814094 L 163.564875 -21.845344 L 164.467219 -21.556281 L 165.971125 -21.142219 L 166.076594 -22.134406 L 166.560969 -23.423469 L 166.721125 -24.454719 L 166.525813 -25.228156 L 167.041438 -26.1305 L 167.2055 -26.548469 L 167.041438 -27.126594 L 167.623469 -27.384406 L 167.752375 -27.450812 L 168.36175 -29.638312 L 168.256281 -30.650031 L 168.158625 -32.806281 L 168.322688 -33.900031 L 168.482844 -34.610969 L 168.771906 -36.060187 L 168.771906 -37.669562 L 168.545344 -38.122687 L 168.912531 -38.517219 L 169.072688 -38.853156 L 168.685969 -39.208625 L 168.748469 -39.466437 L 169.006281 -39.400031 L 169.295344 -39.142219 L 169.748469 -38.626594 L 169.975031 -38.497687 L 170.295344 -38.626594 L 170.748469 -38.657844 L 172.326594 -37.888312 L 172.904719 -37.337531 L 173.162531 -37.048469 L 173.998469 -37.372687 L 173.322688 -38.079719 L 172.54925 -38.657844 L 171.135188 -39.72425 L 170.619563 -39.915656 L 169.459406 -40.302375 L 168.654719 -40.528937 L 168.420344 -40.423469 L 168.369563 -39.685187 L 168.467219 -39.138312 L 168.435969 -38.720344 L 167.873469 -38.3805 L 166.971125 -38.189094 L 166.197688 -37.962531 Z M 165.459406 -37.607062 " transform="matrix(1,0,0,-1,-1.143,-0.568)"/>
<path style="fill-rule:nonzero;fill:rgb(89.99939%,89.99939%,89.99939%);fill-opacity:1;stroke-width:0.69739;stroke-linecap:butt;stroke-linejoin:miter;stroke:rgb(100%,100%,100%);stroke-opacity:1;stroke-miterlimit:10;" d="M 164.412531 -44.771125 L 164.670344 -44.716437 L 165.135188 -44.466437 L 165.377375 -43.97425 L 165.697688 -43.521125 L 166.342219 -42.907844 L 166.342219 -42.747687 L 165.86175 -42.427375 L 165.150813 -41.943 L 164.959406 -41.427375 L 164.412531 -41.364875 L 164.377375 -41.138312 L 164.217219 -40.591437 L 164.670344 -40.364875 L 164.701594 -39.8805 L 164.443781 -39.622687 L 164.475031 -39.302375 L 164.86175 -38.689094 L 164.86175 -38.079719 L 165.400813 -37.552375 L 165.217219 -37.415656 L 164.713313 -37.376594 L 164.256281 -36.989875 L 163.947688 -35.771125 L 163.248469 -35.794562 L 162.760188 -35.2555 L 159.154719 -36.091437 L 150.588313 -37.829719 L 148.814875 -38.118781 L 148.689875 -36.821906 L 147.623469 -37.829719 L 147.365656 -37.927375 L 146.525813 -38.525031 L 147.107844 -42.341437 L 147.603938 -44.278937 L 148.314875 -48.114875 L 148.963313 -47.989875 L 151.346125 -47.689094 L 158.900813 -46.16175 L 161.865656 -45.59925 L 163.521906 -45.275031 L 163.572688 -45.228156 L 163.990656 -44.907844 Z M 164.412531 -44.771125 " transform="matrix(1,0,0,-1,-1.143,-0.568)"/>
<path style="fill-rule:nonzero;fill:rgb(89.99939%,89.99939%,89.99939%);fill-opacity:1;stroke-width:0.69739;stroke-linecap:butt;stroke-linejoin:miter;stroke:rgb(100%,100%,100%);stroke-opacity:1;stroke-miterlimit:10;" d="M 165.318781 -37.552375 L 164.857844 -38.095344 L 164.857844 -38.708625 L 164.471125 -39.321906 L 164.435969 -39.642219 L 164.693781 -39.900031 L 164.662531 -40.384406 L 164.213313 -40.610969 L 164.373469 -41.157844 L 164.404719 -41.3805 L 164.951594 -41.446906 L 165.146906 -41.962531 L 165.853938 -42.446906 L 166.338313 -42.767219 L 166.338313 -42.927375 L 165.744563 -43.466437 L 165.420344 -43.915656 L 165.131281 -44.462531 L 164.682063 -44.720344 L 164.588313 -45.040656 L 164.541438 -45.282844 L 164.416438 -45.802375 L 164.635188 -46.247687 L 165.279719 -46.829719 L 166.248469 -47.278937 L 167.053156 -47.407844 L 167.084406 -47.700812 L 166.92425 -47.892219 L 166.98675 -48.439094 L 167.146906 -48.439094 L 167.568781 -47.958625 L 167.728938 -46.989875 L 168.275813 -46.185187 L 168.889094 -44.896125 L 169.11175 -43.802375 L 168.982844 -43.575812 L 168.951594 -41.708625 L 168.631281 -41.032844 L 168.404719 -41.193 L 167.857844 -41.2555 L 167.760188 -41.16175 L 167.98675 -40.966437 L 168.404719 -40.579719 L 168.416438 -40.360969 L 168.342219 -39.677375 L 168.4555 -39.1305 L 168.432063 -38.739875 L 167.873469 -38.388312 L 166.857844 -38.153937 L 166.033625 -37.8805 Z M 165.318781 -37.552375 " transform="matrix(1,0,0,-1,-1.143,-0.568)"/>
<path style="fill-rule:nonzero;fill:rgb(89.99939%,89.99939%,89.99939%);fill-opacity:1;stroke-width:0.69739;stroke-linecap:butt;stroke-linejoin:miter;stroke:rgb(100%,100%,100%);stroke-opacity:1;stroke-miterlimit:10;" d="M 164.510188 -45.485969 L 164.584406 -45.056281 L 164.658625 -44.720344 L 164.334406 -44.802375 L 164.014094 -44.892219 L 163.572688 -45.243781 L 163.916438 -46.251594 L 164.369563 -47.376594 L 164.787531 -49.310187 L 165.107844 -50.568 L 166.107844 -50.532844 L 167.3305 -50.298469 L 166.881281 -48.825812 L 166.685969 -48.923469 L 165.978938 -48.439094 L 165.623469 -47.5055 L 165.23675 -46.798469 L 164.61175 -46.22425 L 164.439875 -45.806281 Z M 164.510188 -45.485969 " transform="matrix(1,0,0,-1,-1.143,-0.568)"/>
<path style="fill-rule:nonzero;fill:rgb(89.99939%,89.99939%,89.99939%);fill-opacity:1;stroke-width:0.69739;stroke-linecap:butt;stroke-linejoin:miter;stroke:rgb(100%,100%,100%);stroke-opacity:1;stroke-miterlimit:10;" d="M 167.334406 -50.294562 L 166.135188 -50.53675 L 165.11175 -50.560187 L 164.744563 -49.177375 L 164.36175 -47.353156 L 163.850031 -46.118781 L 163.592219 -45.243781 L 162.096125 -45.564094 L 159.131281 -46.126594 L 151.670344 -47.634406 L 151.893 -48.6305 L 152.088313 -49.759406 L 152.150813 -49.693 L 152.572688 -49.212531 L 153.021906 -48.689094 L 153.506281 -48.568 L 153.795344 -48.278937 L 154.150813 -47.763312 L 154.408625 -47.892219 L 154.98675 -47.825812 L 155.502375 -47.407844 L 155.900813 -47.118781 L 156.268 -47.021125 L 156.596125 -47.247687 L 157.178156 -47.53675 L 157.564875 -47.892219 L 157.807063 -48.196906 L 158.627375 -48.53675 L 158.627375 -49.114875 L 159.721125 -49.372687 L 159.951594 -49.482062 L 160.232844 -49.075812 L 160.807063 -49.470344 L 160.54925 -49.962531 L 160.396906 -50.759406 L 160.045344 -51.271125 L 160.045344 -51.693 L 160.17425 -52.044562 L 161.182063 -52.318 L 162.041438 -52.302375 L 162.654719 -52.497687 L 163.072688 -52.560187 L 163.264094 -52.142219 L 162.975031 -51.72425 L 162.975031 -51.368781 L 162.490656 -50.950812 L 162.072688 -49.857062 L 162.3305 -48.794562 L 162.29925 -48.372687 L 162.041438 -48.114875 C 162.041438 -48.114875 162.3305 -47.794562 162.3305 -47.665656 C 162.3305 -47.53675 162.428156 -47.247687 162.428156 -47.247687 L 162.814875 -46.989875 L 163.201594 -46.665656 L 163.29925 -46.860969 L 163.006281 -47.181281 L 162.748469 -47.923469 L 162.814875 -48.150031 L 163.170344 -48.212531 L 163.264094 -49.306281 L 162.846125 -49.501594 L 162.912531 -50.208625 L 163.006281 -50.177375 L 163.232844 -49.790656 L 163.553156 -50.146125 L 163.232844 -50.403937 L 163.170344 -51.079719 L 163.682063 -51.7555 L 164.4555 -51.853156 L 164.779719 -51.693 L 165.42425 -52.525031 L 165.693781 -52.6305 L 167.021906 -52.075812 L 167.420344 -51.275031 Z M 164.150813 -52.095344 L 164.377375 -52.595344 L 164.408625 -52.946906 L 164.635188 -53.318 C 164.635188 -53.318 164.810969 -53.142219 164.810969 -53.075812 C 164.810969 -53.013312 164.666438 -52.466437 164.666438 -52.466437 L 164.521906 -51.997687 Z M 164.150813 -52.095344 " transform="matrix(1,0,0,-1,-1.143,-0.568)"/>
<path style="fill-rule:nonzero;fill:rgb(89.99939%,89.99939%,89.99939%);fill-opacity:1;stroke-width:0.69739;stroke-linecap:butt;stroke-linejoin:miter;stroke:rgb(100%,100%,100%);stroke-opacity:1;stroke-miterlimit:10;" d="M 165.709406 -53.017219 L 165.682063 -52.626594 L 166.967219 -52.118781 L 166.810969 -52.759406 L 166.232844 -53.513312 L 166.146906 -54.427375 L 166.240656 -55.103156 L 165.877375 -56.095344 L 165.443781 -56.478156 L 165.150813 -55.552375 L 165.240656 -54.466437 L 165.557063 -53.634406 Z M 166.373469 -58.653937 L 154.783625 -61.16175 L 147.326594 -62.212531 L 145.994563 -62.138312 L 145.478938 -62.521125 L 144.018 -62.564094 L 142.346125 -62.759406 L 140.17425 -63.083625 L 142.260188 -61.962531 L 142.256281 -61.552375 L 142.557063 -61.122687 L 144.662531 -58.829719 L 145.447688 -59.72425 L 146.201594 -59.915656 L 146.709406 -59.689094 L 147.154719 -59.427375 L 147.658625 -59.693 L 148.439875 -59.41175 L 148.814875 -58.501594 L 149.3305 -58.610969 L 149.900813 -58.185187 L 150.260188 -58.282844 L 150.822688 -57.552375 L 150.893 -57.134406 L 150.701594 -56.8805 L 150.900813 -56.509406 L 151.951594 -54.064094 L 152.072688 -52.919562 L 152.318781 -52.818 L 152.752375 -53.302375 L 153.537531 -53.243781 L 153.920344 -51.735969 L 154.478938 -51.622687 L 154.685969 -51.075812 L 155.201594 -50.607062 L 155.752375 -49.47425 L 155.771906 -48.462531 L 157.728938 -49.22425 C 157.86175 -49.294562 157.893 -48.220344 157.893 -48.220344 L 158.619563 -48.53675 L 158.635188 -49.122687 L 159.787531 -49.384406 L 160.213313 -49.618781 L 160.541438 -50.025031 L 160.412531 -50.7555 L 160.025813 -51.271125 L 160.045344 -51.681281 L 160.162531 -52.048469 L 161.154719 -52.302375 L 162.041438 -52.310187 L 162.654719 -52.501594 L 163.041438 -52.564094 L 163.185969 -53.177375 L 163.818781 -53.259406 L 163.994563 -53.497687 L 163.904719 -54.431281 L 164.178156 -54.650031 L 164.084406 -55.03675 L 164.3305 -55.193 L 164.283625 -55.470344 L 163.748469 -55.450812 L 163.764094 -55.771125 L 164.221125 -56.079719 L 164.244563 -56.360969 L 164.596125 -56.716437 L 164.693781 -57.220344 L 164.185969 -57.493781 L 164.498469 -57.794562 L 165.654719 -57.458625 Z M 166.373469 -58.653937 " transform="matrix(1,0,0,-1,-1.143,-0.568)"/>
<path style="fill-rule:nonzero;fill:rgb(89.99939%,89.99939%,89.99939%);fill-opacity:1;stroke-width:0.69739;stroke-linecap:butt;stroke-linejoin:miter;stroke:rgb(100%,100%,100%);stroke-opacity:1;stroke-miterlimit:10;" d="M 151.670344 -47.614875 L 151.893 -48.59925 L 152.107844 -49.802375 L 152.533625 -49.28675 L 152.982844 -48.677375 L 153.490656 -48.552375 L 153.779719 -48.263312 L 154.135188 -47.747687 L 154.420344 -47.876594 L 155.002375 -47.814094 L 155.518 -47.396125 L 155.916438 -47.103156 L 156.283625 -47.009406 L 156.545344 -47.208625 L 157.271906 -47.571906 L 157.658625 -47.927375 L 157.932063 -48.185187 L 157.779719 -49.290656 L 156.615656 -48.78675 L 155.771906 -48.462531 L 155.748469 -49.493781 L 155.201594 -50.59925 L 154.697688 -51.079719 L 154.459406 -51.6305 L 153.935969 -51.728156 L 153.756281 -52.446906 L 153.54925 -53.232062 L 152.756281 -53.302375 L 152.295344 -52.814094 L 152.0805 -52.927375 L 151.9555 -54.017219 L 151.685969 -54.720344 L 150.697688 -56.903937 L 150.877375 -57.134406 L 150.834406 -57.517219 L 150.275813 -58.290656 L 149.916438 -58.181281 L 149.322688 -58.610969 L 148.818781 -58.497687 L 148.420344 -59.403937 C 148.420344 -59.403937 147.768 -59.689094 147.635188 -59.677375 C 147.603938 -59.673469 147.143 -59.427375 147.143 -59.427375 L 146.678156 -59.704719 L 146.197688 -59.91175 L 145.451594 -59.735969 L 145.228938 -59.501594 L 144.791438 -58.900031 L 144.166438 -58.501594 L 143.826594 -57.782844 L 142.971125 -57.091437 L 142.842219 -56.638312 L 142.326594 -56.34925 L 142.166438 -56.028937 L 142.119563 -54.982062 L 142.553156 -54.962531 L 142.939875 -54.802375 L 142.971125 -54.2555 L 143.295344 -53.966437 L 143.326594 -52.966437 L 143.518 -52.193 L 143.775813 -52.064094 L 144.033625 -52.290656 L 144.131281 -52.646125 L 144.48675 -52.450812 L 144.5805 -52.1305 L 144.357844 -51.775031 L 144.357844 -51.290656 L 144.54925 -51.032844 L 145.002375 -50.357062 L 145.260188 -50.068 L 145.678156 -50.165656 L 146.127375 -49.841437 L 146.740656 -49.165656 L 147.189875 -48.392219 L 147.256281 -47.267219 L 147.353938 -46.267219 L 147.353938 -45.333625 L 147.127375 -44.720344 L 147.318781 -44.431281 L 147.576594 -44.173469 L 148.271906 -48.122687 L 149.193781 -47.97425 Z M 151.670344 -47.614875 " transform="matrix(1,0,0,-1,-1.143,-0.568)"/>
<path style="fill-rule:nonzero;fill:rgb(89.99939%,89.99939%,89.99939%);fill-opacity:1;stroke-width:0.69739;stroke-linecap:butt;stroke-linejoin:miter;stroke:rgb(100%,100%,100%);stroke-opacity:1;stroke-miterlimit:10;" d="M 146.518 -38.521125 L 145.303156 -39.329719 L 144.529719 -39.778937 L 143.853938 -40.521125 L 143.04925 -41.294562 L 142.404719 -41.454719 L 141.826594 -41.552375 L 140.728938 -42.068 L 140.310969 -42.09925 L 139.635188 -41.485969 L 138.603938 -41.614875 L 138.088313 -41.325812 L 137.615656 -41.056281 L 136.639094 -41.196906 L 134.607844 -41.521125 L 132.377375 -41.954719 L 132.635188 -44.868781 L 132.98675 -47.607062 L 133.502375 -52.278937 L 133.615656 -53.239875 L 134.439875 -53.216437 L 134.920344 -53.056281 L 135.592219 -53.353156 L 136.002375 -54.22425 L 137.029719 -54.220344 L 137.404719 -54.642219 L 137.756281 -54.6305 L 138.260188 -54.360969 L 138.760188 -54.435187 L 139.842219 -54.532844 L 140.185969 -54.107062 L 140.650813 -53.84925 L 141.064875 -53.712531 L 141.193781 -54.263312 L 141.54925 -54.454719 L 142.240656 -54.923469 L 142.67425 -54.907844 L 142.939875 -54.806281 L 142.978938 -54.259406 L 143.295344 -53.966437 L 143.314875 -53.013312 C 143.314875 -53.013312 143.518 -52.193 143.518 -52.193 L 143.775813 -52.075812 L 144.041438 -52.302375 L 144.146906 -52.642219 L 144.490656 -52.435187 L 144.576594 -52.142219 L 144.353938 -51.763312 L 144.369563 -51.302375 L 144.518 -51.087531 L 144.947688 -50.431281 L 145.154719 -50.122687 L 145.572688 -50.220344 L 146.025813 -49.896125 L 146.635188 -49.220344 L 147.189875 -48.407844 L 147.252375 -47.400031 L 147.350031 -46.403937 L 147.314875 -45.345344 L 147.123469 -44.767219 L 147.193781 -44.532844 L 147.553156 -44.181281 L 147.096125 -42.3805 Z M 146.518 -38.521125 " transform="matrix(1,0,0,-1,-1.143,-0.568)"/>
<path style="fill-rule:nonzero;fill:rgb(89.99939%,89.99939%,89.99939%);fill-opacity:1;stroke-width:0.69739;stroke-linecap:butt;stroke-linejoin:miter;stroke:rgb(100%,100%,100%);stroke-opacity:1;stroke-miterlimit:10;" d="M 123.451594 -59.771125 L 123.467219 -59.200812 L 123.560969 -58.298469 L 124.014094 -57.720344 L 124.369563 -56.946906 L 124.885188 -56.110969 L 124.787531 -54.950812 L 124.432063 -54.400031 L 124.369563 -53.759406 L 124.529719 -52.66175 L 124.432063 -51.278937 L 124.17425 -48.087531 L 123.916438 -45.028937 L 123.725031 -42.693 L 124.334406 -42.868781 L 124.627375 -43.064094 L 124.850031 -42.997687 L 125.268 -42.610969 L 125.834406 -42.290656 L 126.850031 -42.259406 L 131.228938 -41.806281 L 132.338313 -41.700812 L 132.639094 -44.8805 L 133.48675 -52.220344 L 133.607844 -53.372687 L 133.533625 -53.821906 L 133.775813 -54.181281 L 133.795344 -54.454719 L 133.295344 -54.771125 L 132.588313 -55.079719 L 131.951594 -55.189094 L 131.8305 -56.16175 L 130.920344 -56.821906 L 130.36175 -57.618781 L 130.428156 -58.091437 L 130.310969 -58.400031 L 129.646906 -58.400031 L 129.3305 -58.075812 L 128.834406 -58.329719 L 128.29925 -58.626594 L 128.334406 -59.235969 L 128.096125 -59.28675 L 128.002375 -59.083625 L 127.568781 -58.78675 L 126.92425 -59.052375 L 126.61175 -59.650031 L 126.326594 -59.489875 L 126.037531 -59.173469 L 125.146906 -59.267219 L 124.033625 -59.462531 Z M 123.451594 -59.771125 " transform="matrix(1,0,0,-1,-1.143,-0.568)"/>
<path style="fill-rule:nonzero;fill:rgb(89.99939%,89.99939%,89.99939%);fill-opacity:1;stroke-width:0.69739;stroke-linecap:butt;stroke-linejoin:miter;stroke:rgb(100%,100%,100%);stroke-opacity:1;stroke-miterlimit:10;" d="M 123.447688 -59.845344 L 123.4555 -59.200812 L 123.564875 -58.275031 L 124.029719 -57.693 L 124.404719 -56.884406 L 124.850031 -56.087531 L 124.775813 -55.040656 L 124.373469 -54.333625 L 124.353938 -53.665656 L 124.494563 -52.618781 L 124.3305 -51.185187 L 124.115656 -48.044562 L 123.857844 -45.052375 L 123.67425 -42.732062 L 123.619563 -42.548469 L 123.459406 -42.032844 L 123.201594 -41.290656 L 122.881281 -40.939094 L 122.592219 -40.423469 L 122.545344 -39.329719 L 113.420344 -39.845344 L 113.463313 -40.318 L 113.920344 -40.454719 L 114.103938 -40.681281 L 114.193781 -41.048469 L 114.967219 -41.732062 L 115.103938 -42.185187 L 114.967219 -42.868781 L 114.603938 -43.59925 L 114.467219 -44.09925 L 114.010188 -44.462531 L 113.646906 -44.59925 L 112.600031 -44.872687 L 112.463313 -45.239875 L 112.326594 -45.650031 L 112.463313 -45.923469 L 112.826594 -46.239875 L 112.779719 -47.060187 L 112.416438 -47.3805 L 112.279719 -47.696906 L 112.279719 -48.243781 L 111.916438 -48.337531 L 111.596125 -48.564094 L 111.54925 -48.837531 L 111.596125 -49.247687 L 111.256281 -49.509406 L 111.04925 -50.068 L 111.143 -50.794562 L 111.596125 -52.2555 L 113.053156 -53.7555 L 114.146906 -54.485969 L 114.103938 -55.353156 L 114.283625 -55.626594 L 115.560969 -55.716437 L 116.107844 -55.989875 L 115.971125 -56.716437 L 115.514094 -57.903937 L 115.377375 -58.540656 L 115.834406 -59.314094 L 117.107844 -60.360969 L 118.018 -60.497687 L 118.428156 -61.501594 L 118.838313 -62.138312 L 118.658625 -62.732062 L 118.975031 -63.552375 L 119.342219 -63.962531 L 119.623469 -63.78675 L 119.803156 -63.372687 L 120.244563 -63.025031 L 120.670344 -62.903937 L 121.185969 -63.138312 L 121.908625 -63.41175 L 122.146906 -63.353156 L 122.185969 -62.900031 L 121.932063 -62.419562 L 121.990656 -61.946906 L 122.357844 -61.677375 L 122.959406 -61.517219 L 123.209406 -61.427375 L 123.088313 -61.150031 L 122.932063 -60.681281 L 123.217219 -60.485969 Z M 123.447688 -59.845344 " transform="matrix(1,0,0,-1,-1.143,-0.568)"/>
<path style="fill-rule:nonzero;fill:rgb(89.99939%,89.99939%,89.99939%);fill-opacity:1;stroke-width:0.69739;stroke-linecap:butt;stroke-linejoin:miter;stroke:rgb(100%,100%,100%);stroke-opacity:1;stroke-miterlimit:10;" d="M 174.162531 -35.638312 L 173.432063 -32.673469 L 172.490656 -32.857062 L 168.260188 -33.802375 L 168.459406 -34.446906 L 168.748469 -35.896125 L 168.783625 -37.681281 L 168.541438 -38.114875 L 168.92425 -38.501594 L 169.775813 -37.72425 L 170.482844 -37.079719 L 170.869563 -36.657844 L 171.033625 -36.78675 L 171.5805 -36.497687 L 172.61175 -36.271125 Z M 174.162531 -35.638312 " transform="matrix(1,0,0,-1,-1.143,-0.568)"/>
<path style="fill-rule:nonzero;fill:rgb(89.99939%,89.99939%,89.99939%);fill-opacity:1;stroke-width:0.69739;stroke-linecap:butt;stroke-linejoin:miter;stroke:rgb(100%,100%,100%);stroke-opacity:1;stroke-miterlimit:10;" d="M 122.557063 -39.325812 L 122.541438 -38.696906 L 122.307063 -37.794562 L 122.178156 -36.571906 L 121.951594 -36.087531 L 122.146906 -35.478156 L 122.307063 -34.896125 L 122.596125 -34.3805 L 122.467219 -33.704719 L 122.338313 -32.997687 L 122.435969 -32.642219 L 122.822688 -32.157844 L 122.853938 -31.610969 L 122.693781 -31.353156 L 122.822688 -30.837531 L 122.732844 -30.0055 L 123.279719 -28.8805 L 123.86175 -27.525031 L 123.893 -27.075812 L 123.826594 -26.884406 L 123.666438 -26.978156 L 122.8305 -28.235969 L 122.279719 -29.040656 L 121.896906 -29.396125 L 121.732844 -29.845344 L 121.346125 -30.0055 L 121.119563 -30.392219 L 120.8305 -30.329719 L 120.795344 -29.97425 L 121.053156 -29.489875 L 121.475031 -28.556281 L 121.826594 -28.235969 L 122.025813 -27.767219 L 121.514094 -27.388312 L 121.119563 -25.321906 L 120.416438 -25.052375 L 120.025813 -24.595344 L 117.61175 -24.052375 L 117.037531 -23.84925 L 115.400813 -23.419562 L 113.822688 -23.185187 L 113.072688 -22.165656 L 112.92425 -22.275031 L 112.685969 -22.243781 L 112.557063 -22.017219 L 112.291438 -22.075812 L 112.064875 -22.107062 L 111.709406 -22.302375 L 111.518 -22.173469 L 111.646906 -21.78675 L 112.033625 -21.173469 L 112.256281 -20.950812 L 111.869563 -20.657844 L 111.451594 -20.821906 L 110.873469 -21.208625 L 109.389094 -21.84925 L 108.810969 -21.978156 L 108.228938 -21.884406 L 108.033625 -21.708625 L 107.61175 -22.275031 L 107.568781 -22.818 L 107.568781 -24.5055 L 107.338313 -24.825812 L 106.291438 -25.59925 L 105.838313 -26.782844 L 105.928156 -26.829719 L 106.428156 -27.239875 L 106.564875 -27.876594 L 106.201594 -28.513312 L 106.201594 -29.28675 L 106.291438 -30.610969 L 106.885188 -31.200812 L 107.568781 -31.200812 L 107.932063 -31.841437 L 108.615656 -31.931281 L 109.389094 -33.068 L 110.803156 -33.888312 L 111.213313 -34.435187 L 111.393 -35.915656 L 111.529719 -36.575812 L 111.98675 -36.896125 L 112.033625 -37.169562 L 111.623469 -37.853156 L 111.666438 -38.489875 L 112.170344 -39.263312 L 112.670344 -39.493781 L 113.264094 -39.583625 L 113.529719 -39.857062 Z M 122.557063 -39.325812 " transform="matrix(1,0,0,-1,-1.143,-0.568)"/>
<path style="fill-rule:nonzero;fill:rgb(89.99939%,89.99939%,89.99939%);fill-opacity:1;stroke-width:0.69739;stroke-linecap:butt;stroke-linejoin:miter;stroke:rgb(100%,100%,100%);stroke-opacity:1;stroke-miterlimit:10;" d="M 166.373469 -58.642219 L 166.791438 -59.622687 L 167.498469 -60.91175 L 167.982844 -61.396125 L 168.11175 -61.845344 L 167.627375 -61.8805 L 167.787531 -62.009406 L 167.725031 -62.845344 L 167.209406 -63.103156 L 167.0805 -63.521125 L 166.822688 -64.103156 L 166.0805 -64.423469 L 165.600031 -64.360969 L 165.307063 -64.325812 L 164.98675 -64.068 L 165.04925 -64.325812 L 165.04925 -64.521125 L 165.435969 -64.521125 L 165.600031 -64.778937 L 165.213313 -66.032844 L 166.04925 -66.032844 L 166.178156 -66.357062 L 166.631281 -65.903937 L 166.889094 -65.810187 L 166.502375 -66.517219 L 165.889094 -67.482062 L 165.631281 -67.482062 L 165.404719 -67.388312 L 164.857844 -67.517219 L 163.826594 -67.997687 L 162.537531 -69.060187 L 161.86175 -69.997687 L 161.475031 -71.282844 L 161.377375 -71.767219 L 160.443781 -71.864875 L 159.357844 -72.1305 L 157.377375 -70.497687 L 154.865656 -68.982062 L 154.283625 -68.821906 L 151.771906 -69.110969 L 150.920344 -69.259406 L 150.596125 -68.614875 L 150.006281 -68.193 L 146.721125 -68.290656 L 145.271906 -68.450812 L 143.467219 -69.353156 L 142.240656 -69.868781 L 138.021906 -70.384406 L 138.123469 -69.575812 L 138.475031 -69.28675 L 139.025813 -69.157844 L 139.154719 -68.419562 L 139.990656 -67.868781 L 140.764094 -67.579719 L 141.600031 -66.872687 L 142.471125 -66.450812 L 142.600031 -65.841437 L 143.373469 -65.068 L 143.502375 -65.03675 C 143.502375 -65.03675 143.502375 -65.259406 143.662531 -65.259406 C 143.822688 -65.259406 144.04925 -65.325812 144.04925 -65.325812 L 144.498469 -64.614875 L 144.920344 -64.485969 L 145.369563 -64.552375 L 145.693781 -63.845344 L 146.271906 -63.329719 L 146.369563 -62.907844 L 146.404719 -62.181281 L 147.256281 -62.177375 L 148.693781 -62.009406 L 151.8305 -61.560187 L 154.846125 -61.142219 L 159.158625 -60.200812 L 163.143 -59.353156 L 165.369563 -58.876594 L 166.373469 -58.646125 Z M 167.225031 -65.259406 L 167.740656 -64.763312 L 168.369563 -64.247687 L 168.67425 -64.118781 L 168.709406 -63.716437 L 168.5805 -62.489875 L 168.287531 -62.025031 L 168.158625 -61.653937 L 168.307063 -61.603156 L 168.853938 -62.700812 L 168.932063 -63.587531 L 168.900813 -64.263312 L 168.225031 -64.568 L 167.662531 -65.052375 L 167.435969 -65.294562 Z M 167.225031 -65.259406 " transform="matrix(1,0,0,-1,-1.143,-0.568)"/>
<path style="fill-rule:nonzero;fill:rgb(89.99939%,89.99939%,89.99939%);fill-opacity:1;stroke-width:0.69739;stroke-linecap:butt;stroke-linejoin:miter;stroke:rgb(100%,100%,100%);stroke-opacity:1;stroke-miterlimit:10;" d="M 160.564875 -49.982062 L 160.193781 -49.618781 L 159.947688 -49.482062 L 160.23675 -49.079719 L 160.810969 -49.466437 Z M 160.564875 -49.982062 " transform="matrix(1,0,0,-1,-1.143,-0.568)"/>
<path style="fill-rule:nonzero;fill:rgb(89.99939%,89.99939%,89.99939%);fill-opacity:1;stroke-width:0.69739;stroke-linecap:butt;stroke-linejoin:miter;stroke:rgb(100%,100%,100%);stroke-opacity:1;stroke-miterlimit:10;" d="M 179.256281 -34.521125 L 179.689875 -34.384406 L 179.779719 -34.044562 L 179.982844 -34.068 L 180.189875 -34.521125 L 179.939875 -34.614875 L 179.162531 -34.634406 Z M 177.389094 -34.681281 L 177.842219 -34.157844 L 178.162531 -34.157844 L 178.525813 -34.454719 L 178.04925 -34.657844 L 177.615656 -34.864875 Z M 170.4555 -30.298469 L 173.971125 -29.376594 L 174.420344 -29.247687 L 174.803156 -28.689094 L 175.545344 -28.357062 L 176.123469 -29.235969 L 175.639094 -30.267219 L 175.576594 -30.556281 L 175.963313 -31.071906 L 176.185969 -30.91175 L 176.541438 -30.91175 L 176.990656 -31.427375 L 177.764094 -32.618781 L 178.475031 -32.716437 L 178.92425 -32.521125 L 179.279719 -32.169562 L 179.119563 -31.622687 L 178.701594 -31.298469 L 178.408625 -31.458625 L 178.217219 -31.200812 L 178.314875 -31.107062 L 178.732844 -31.071906 L 179.084406 -31.235969 L 179.471125 -31.716437 L 179.666438 -32.298469 L 179.728938 -32.778937 L 178.893 -33.071906 L 178.119563 -33.458625 L 177.346125 -34.357062 L 176.959406 -34.650031 L 176.959406 -34.454719 L 177.443781 -34.165656 L 177.541438 -33.810187 L 177.377375 -33.200812 L 176.79925 -33.489875 L 176.639094 -33.778937 L 176.732844 -34.232062 L 176.322688 -34.431281 L 175.775813 -33.528937 L 175.100031 -32.657844 L 174.685969 -32.298469 L 173.385188 -32.669562 L 172.369563 -32.8805 L 168.252375 -33.794562 L 168.115656 -32.845344 L 168.244563 -30.735969 L 169.100031 -30.556281 Z M 170.4555 -30.298469 " transform="matrix(1,0,0,-1,-1.143,-0.568)"/>
<path style="fill-rule:nonzero;fill:rgb(89.99939%,89.99939%,89.99939%);fill-opacity:1;stroke-width:0.69739;stroke-linecap:butt;stroke-linejoin:miter;stroke:rgb(100%,100%,100%);stroke-opacity:1;stroke-miterlimit:10;" d="M 138.818781 -63.415656 L 128.478938 -64.41175 L 125.338313 -64.767219 L 124.416438 -64.868781 L 123.646906 -64.864875 L 123.600031 -65.681281 L 121.971125 -65.732062 L 120.584406 -65.860969 L 118.975031 -65.837531 L 118.689875 -67.247687 L 118.353938 -68.337531 L 117.697688 -68.888312 L 117.428156 -69.759406 L 117.365656 -70.275031 L 116.557063 -70.72425 L 116.850031 -71.435187 L 116.654719 -72.306281 L 116.463313 -72.462531 L 138.014094 -70.388312 L 138.096125 -69.59925 L 138.4555 -69.302375 L 139.018 -69.153937 L 139.154719 -68.41175 L 139.971125 -67.872687 L 140.775813 -67.575812 L 141.592219 -66.864875 L 142.475031 -66.462531 L 142.576594 -65.84925 L 143.389094 -65.056281 L 143.498469 -65.032844 C 143.498469 -65.032844 143.502375 -65.259406 143.666438 -65.259406 C 143.826594 -65.259406 144.053156 -65.329719 144.053156 -65.329719 L 144.502375 -64.614875 L 144.916438 -64.485969 L 145.369563 -64.544562 L 145.685969 -63.841437 L 146.275813 -63.314094 L 146.357844 -62.927375 L 146.420344 -62.189094 L 145.994563 -62.150031 L 145.475031 -62.552375 L 144.0805 -62.560187 L 140.42425 -63.032844 Z M 138.818781 -63.415656 " transform="matrix(1,0,0,-1,-1.143,-0.568)"/>
<path style="fill-rule:nonzero;fill:rgb(89.99939%,89.99939%,89.99939%);fill-opacity:1;stroke-width:0.69739;stroke-linecap:butt;stroke-linejoin:miter;stroke:rgb(100%,100%,100%);stroke-opacity:1;stroke-miterlimit:10;" d="M 118.322688 -68.357062 L 117.529719 -68.497687 L 116.510188 -68.372687 L 116.596125 -68.052375 L 117.189875 -67.540656 L 117.377375 -66.814094 L 117.014094 -66.220344 L 101.389094 -66.720344 L 101.7055 -68.087531 L 101.7055 -69.728156 L 101.978938 -71.915656 L 102.025813 -79.454719 L 102.478938 -79.841437 L 103.072688 -79.568 L 103.619563 -79.794562 L 103.756281 -81.107062 L 114.838313 -80.876594 L 115.064875 -80.462531 L 115.010188 -79.7555 L 114.646906 -79.16175 L 114.963313 -78.864875 L 114.646906 -78.364875 L 114.783625 -77.864875 L 115.053156 -76.747687 L 115.557063 -76.337531 L 115.420344 -75.884406 L 116.146906 -74.814094 L 116.693781 -74.540656 L 116.67425 -74.243781 L 116.603938 -73.876594 L 117.17425 -72.763312 L 117.650813 -72.513312 L 117.728938 -71.829719 L 118.0805 -71.583625 L 117.4555 -71.485969 L 117.185969 -70.685187 L 117.744563 -70.212531 L 117.853938 -69.810187 L 118.11175 -69.0055 Z M 118.322688 -68.357062 " transform="matrix(1,0,0,-1,-1.143,-0.568)"/>
<path style="fill-rule:nonzero;fill:rgb(89.99939%,89.99939%,89.99939%);fill-opacity:1;stroke-width:0.69739;stroke-linecap:butt;stroke-linejoin:miter;stroke:rgb(100%,100%,100%);stroke-opacity:1;stroke-miterlimit:10;" d="M 111.271906 -49.439094 L 110.771906 -48.821906 L 110.541438 -48.368781 L 97.721125 -48.845344 L 97.264094 -48.868781 L 97.514094 -49.368781 L 97.467219 -49.825812 L 97.971125 -50.59925 L 98.584406 -51.419562 L 99.201594 -51.966437 L 99.631281 -52.013312 L 99.928156 -52.193 L 99.928156 -52.78675 L 99.564875 -53.103156 L 99.471125 -53.560187 L 99.881281 -54.243781 L 100.385188 -54.837531 L 100.885188 -55.200812 L 101.158625 -57.525031 L 101.221125 -64.712531 L 101.268 -65.646125 L 101.357844 -66.716437 L 105.826594 -66.544562 L 110.451594 -66.407844 L 114.596125 -66.247687 L 116.920344 -66.204719 L 117.350031 -66.884406 L 117.217219 -67.544562 L 116.600031 -68.025031 L 116.48675 -68.388312 L 117.557063 -68.482062 L 118.334406 -68.345344 L 118.67425 -67.247687 L 118.807063 -66.083625 L 119.225031 -65.571906 L 119.740656 -65.278937 L 119.752375 -64.669562 L 119.9555 -64.282844 L 119.615656 -63.775031 L 119.350031 -63.97425 L 118.9555 -63.528937 L 118.697688 -62.579719 L 118.857844 -62.079719 L 118.471125 -61.396125 L 118.103938 -60.485969 L 117.150813 -60.325812 L 115.760188 -59.208625 L 115.416438 -58.388312 L 115.576594 -57.751594 L 115.98675 -56.544562 L 116.0805 -55.97425 L 115.689875 -55.767219 L 114.326594 -55.610969 L 114.119563 -55.267219 L 114.096125 -54.427375 L 113.006281 -53.743781 L 111.615656 -52.193 L 111.158625 -50.735969 L 111.11175 -49.892219 Z M 111.271906 -49.439094 " transform="matrix(1,0,0,-1,-1.143,-0.568)"/>
<path style="fill-rule:nonzero;fill:rgb(89.99939%,89.99939%,89.99939%);fill-opacity:1;stroke-width:0.69739;stroke-linecap:butt;stroke-linejoin:miter;stroke:rgb(100%,100%,100%);stroke-opacity:1;stroke-miterlimit:10;" d="M 133.959406 -70.845344 L 133.959406 -71.278937 L 133.990656 -71.700812 L 134.119563 -72.376594 L 134.795344 -73.954719 L 135.279719 -75.919562 L 135.568781 -77.142219 L 135.893 -78.110969 L 136.182063 -79.493781 L 136.600031 -80.751594 L 137.115656 -81.427375 L 137.213313 -82.103156 L 137.600031 -82.263312 L 137.631281 -82.685187 L 137.275813 -83.650031 L 137.178156 -84.294562 L 137.146906 -84.681281 L 137.471125 -85.552375 L 137.533625 -86.614875 L 137.373469 -87.095344 L 137.502375 -87.259406 L 137.791438 -87.419562 L 137.8305 -88.060187 L 138.275813 -88.728156 L 138.725031 -89.157844 L 140.303156 -89.189094 L 142.459406 -89.060187 L 146.744563 -88.802375 L 147.8305 -88.669562 L 148.744563 -88.673469 L 148.775813 -89.2555 L 149.291438 -89.415656 L 149.353938 -88.544562 L 149.033625 -87.646125 L 149.260188 -87.321906 L 150.420344 -87.482062 L 151.408625 -87.548469 L 151.256281 -86.290656 L 151.7055 -84.294562 L 151.998469 -83.458625 L 151.900813 -82.943 L 152.564875 -81.696906 L 152.463313 -81.427375 L 152.0805 -81.568 L 151.564875 -81.310187 L 151.435969 -80.892219 L 151.178156 -80.185187 L 150.728938 -79.763312 L 150.213313 -79.634406 L 149.893 -78.669562 L 149.307063 -77.407844 L 148.471125 -77.021125 L 148.053156 -76.634406 L 147.795344 -76.118781 L 147.377375 -75.732062 L 146.92425 -75.47425 L 146.475031 -74.896125 L 145.86175 -74.443 L 144.959406 -74.087531 L 144.86175 -73.798469 L 144.381281 -73.220344 L 144.283625 -72.931281 L 143.607844 -71.939094 L 142.904719 -71.958625 L 142.158625 -71.489875 L 141.873469 -71.232062 L 141.810969 -70.876594 L 141.982844 -70.489875 L 142.428156 -70.271125 L 142.29925 -69.853156 Z M 133.959406 -70.845344 " transform="matrix(1,0,0,-1,-1.143,-0.568)"/>
<path style="fill-rule:nonzero;fill:rgb(89.99939%,89.99939%,89.99939%);fill-opacity:1;stroke-width:0.69739;stroke-linecap:butt;stroke-linejoin:miter;stroke:rgb(100%,100%,100%);stroke-opacity:1;stroke-miterlimit:10;" d="M 152.420344 -81.329719 L 152.064875 -81.521125 L 151.54925 -81.263312 L 151.420344 -80.845344 L 151.162531 -80.138312 L 150.713313 -79.720344 L 150.197688 -79.591437 L 149.873469 -78.622687 L 149.326594 -77.431281 L 148.490656 -77.044562 L 148.072688 -76.657844 L 147.814875 -76.142219 L 147.393 -75.7555 L 146.943781 -75.497687 L 146.494563 -74.919562 L 145.881281 -74.466437 L 144.978938 -74.114875 L 144.881281 -73.825812 L 144.400813 -73.243781 L 144.303156 -72.954719 L 143.627375 -71.923469 L 142.947688 -71.954719 L 142.143 -71.47425 L 141.885188 -71.216437 L 141.822688 -70.860969 L 141.982844 -70.47425 L 142.435969 -70.278937 L 142.3305 -69.825812 L 143.482844 -69.357062 L 145.29925 -68.443 L 146.846125 -68.282844 L 150.057063 -68.200812 L 150.584406 -68.571906 L 150.916438 -69.243781 L 151.775813 -69.122687 L 154.287531 -68.829719 L 154.869563 -68.993781 L 157.381281 -70.5055 L 159.393 -72.122687 L 158.314875 -73.212531 L 157.79925 -74.435187 L 157.701594 -75.693 L 157.381281 -75.853156 L 157.154719 -76.400031 L 156.670344 -76.528937 L 156.252375 -77.239875 L 155.7055 -77.78675 L 155.252375 -78.462531 L 154.932063 -78.622687 L 154.225031 -79.298469 L 153.643 -79.333625 L 153.838313 -79.978156 L 152.838313 -81.071906 Z M 152.420344 -81.329719 " transform="matrix(1,0,0,-1,-1.143,-0.568)"/>
<path style="fill-rule:nonzero;fill:rgb(89.99939%,89.99939%,89.99939%);fill-opacity:1;stroke-width:0.69739;stroke-linecap:butt;stroke-linejoin:miter;stroke:rgb(100%,100%,100%);stroke-opacity:1;stroke-miterlimit:10;" d="M 144.658625 -58.833625 L 144.201594 -59.314094 L 143.490656 -60.107062 L 142.506281 -61.196906 L 142.264094 -61.540656 L 142.252375 -61.958625 L 141.381281 -62.388312 L 140.252375 -63.064094 L 138.810969 -63.423469 L 128.475031 -64.400031 L 125.338313 -64.7555 L 124.416438 -64.857062 L 123.646906 -64.853156 L 123.600031 -65.693 L 121.971125 -65.720344 L 120.584406 -65.84925 L 118.994563 -65.837531 L 119.232844 -65.575812 L 119.732844 -65.267219 L 119.775813 -64.6305 L 119.959406 -64.267219 L 119.639094 -63.759406 L 119.79925 -63.3805 L 120.248469 -63.025031 L 120.670344 -62.896125 L 121.217219 -63.153937 L 121.92425 -63.41175 L 122.150813 -63.34925 L 122.182063 -62.896125 L 121.92425 -62.41175 L 121.990656 -61.962531 L 122.377375 -61.673469 L 122.893 -61.544562 L 123.213313 -61.415656 L 123.053156 -61.060187 L 122.92425 -60.673469 L 123.225031 -60.47425 C 123.225031 -60.470344 123.475031 -59.775031 123.471125 -59.747687 L 124.0805 -59.450812 L 125.139094 -59.259406 L 126.033625 -59.16175 L 126.310969 -59.485969 L 126.615656 -59.66175 L 126.932063 -59.040656 L 127.568781 -58.78675 L 128.006281 -59.079719 L 128.088313 -59.278937 L 128.322688 -59.228156 L 128.291438 -58.638312 L 128.916438 -58.290656 L 129.342219 -58.075812 L 129.646906 -58.407844 L 130.310969 -58.400031 L 130.428156 -58.087531 L 130.353938 -57.634406 L 130.869563 -56.837531 L 131.822688 -56.153937 L 131.963313 -55.189094 L 132.545344 -55.09925 L 133.303156 -54.771125 L 133.787531 -54.431281 L 133.748469 -54.118781 L 133.521906 -53.829719 L 133.635188 -53.232062 L 134.467219 -53.208625 L 134.928156 -53.060187 L 135.592219 -53.345344 L 136.002375 -54.212531 L 137.025813 -54.216437 L 137.435969 -54.657844 L 137.756281 -54.626594 L 138.275813 -54.372687 L 139.318781 -54.485969 L 139.8305 -54.528937 L 140.166438 -54.118781 L 140.689875 -53.837531 L 141.064875 -53.696906 L 141.193781 -54.259406 L 141.600031 -54.470344 L 142.127375 -54.884406 L 142.150813 -56.017219 L 142.310969 -56.329719 L 142.826594 -56.638312 L 142.978938 -57.095344 L 143.810969 -57.782844 L 144.170344 -58.5055 Z M 144.658625 -58.833625 " transform="matrix(1,0,0,-1,-1.143,-0.568)"/>
<path style="fill-rule:nonzero;fill:rgb(89.99939%,89.99939%,89.99939%);fill-opacity:1;stroke-width:0.69739;stroke-linecap:butt;stroke-linejoin:miter;stroke:rgb(100%,100%,100%);stroke-opacity:1;stroke-miterlimit:10;" d="M 125.791438 -91.739875 L 125.494563 -88.888312 L 124.947688 -85.150031 L 124.978938 -82.34925 L 125.139094 -76.16175 L 125.107844 -72.845344 L 125.139094 -71.568 L 134.006281 -70.845344 L 133.975031 -71.278937 L 134.006281 -71.700812 L 134.135188 -72.376594 L 134.810969 -73.954719 L 135.295344 -75.919562 L 135.584406 -77.142219 L 135.908625 -78.110969 L 136.197688 -79.493781 L 136.615656 -80.751594 L 137.131281 -81.427375 L 137.228938 -82.103156 L 137.615656 -82.263312 L 137.646906 -82.681281 L 137.291438 -83.650031 L 137.197688 -84.294562 L 137.162531 -84.681281 L 137.48675 -85.548469 L 137.54925 -86.614875 L 137.389094 -87.095344 L 137.518 -87.2555 L 137.807063 -87.419562 L 137.873469 -87.993781 L 136.760188 -87.923469 L 135.404719 -88.052375 L 130.314875 -88.6305 L 128.240656 -88.91175 L 128.197688 -89.485969 L 128.553156 -89.841437 L 129.068781 -90.228156 L 129.182063 -91.806281 L 128.0805 -92.321906 L 127.529719 -92.2555 L 128.0805 -91.868781 L 128.0805 -91.677375 L 127.467219 -90.485969 L 127.014094 -90.357062 L 126.725031 -91.22425 L 126.467219 -91.771125 L 126.338313 -91.739875 Z M 125.791438 -91.739875 " transform="matrix(1,0,0,-1,-1.143,-0.568)"/>
<path style="fill-rule:nonzero;fill:rgb(89.99939%,89.99939%,89.99939%);fill-opacity:1;stroke-width:0.69739;stroke-linecap:butt;stroke-linejoin:miter;stroke:rgb(100%,100%,100%);stroke-opacity:1;stroke-miterlimit:10;" d="M 121.143 -91.489875 L 120.48675 -90.860969 L 120.685969 -89.763312 L 120.557063 -89.587531 L 118.709406 -89.78675 L 113.725031 -89.876594 L 113.588313 -89.400031 L 113.768 -87.716437 L 114.428156 -86.532844 L 115.432063 -84.798469 L 115.318781 -84.321906 L 115.568781 -84.185187 L 115.658625 -83.798469 L 115.2055 -83.388312 L 115.182063 -83.001594 L 114.818781 -82.134406 L 114.787531 -80.872687 L 103.732844 -81.056281 L 103.740656 -82.962531 L 103.877375 -84.829719 L 104.014094 -85.607062 L 104.514094 -86.423469 L 104.697688 -87.427375 L 105.560969 -88.521125 L 105.607844 -89.157844 L 105.744563 -89.294562 L 105.607844 -90.982062 L 105.014094 -91.982062 L 105.334406 -92.392219 L 105.197688 -92.892219 L 105.060969 -94.353156 L 104.787531 -94.989875 L 104.810969 -95.708625 L 105.744563 -95.407844 L 108.158625 -95.446906 L 110.221125 -96.157844 L 111.510188 -96.384406 L 112.252375 -96.091437 L 112.893 -96.318 L 113.537531 -96.509406 L 113.701594 -96.091437 L 113.057063 -95.868781 L 112.541438 -95.962531 L 111.994563 -95.642219 C 111.994563 -95.642219 112.025813 -95.384406 112.154719 -95.353156 C 112.283625 -95.318 112.768 -95.157844 112.768 -95.157844 L 113.119563 -95.446906 L 113.475031 -95.2555 L 114.119563 -95.384406 L 114.408625 -95.868781 L 114.475031 -96.318 L 115.373469 -96.384406 L 115.728938 -96.735969 L 115.568781 -97.060187 L 115.310969 -97.220344 L 115.631281 -97.540656 L 117.307063 -98.251594 L 118.018 -97.993781 L 118.209406 -97.509406 L 118.725031 -97.3805 L 119.0805 -97.091437 L 119.338313 -97.282844 L 119.498469 -97.864875 L 119.04925 -98.025031 L 119.178156 -98.153937 L 119.853938 -97.896125 L 120.303156 -97.220344 L 120.463313 -97.122687 L 120.045344 -97.060187 L 120.2055 -96.735969 L 120.17425 -96.446906 L 120.592219 -96.34925 L 120.818781 -96.091437 L 120.947688 -96.2555 C 120.947688 -96.2555 120.916438 -96.864875 121.076594 -96.864875 C 121.23675 -96.864875 121.912531 -96.993781 121.912531 -96.993781 L 122.721125 -97.3805 L 122.912531 -97.669562 L 123.494563 -97.669562 L 123.717219 -97.864875 L 124.170344 -97.251594 L 124.170344 -96.962531 L 123.912531 -96.962531 L 123.23675 -96.415656 L 122.076594 -96.2555 L 121.432063 -95.802375 L 121.654719 -95.2555 L 122.107844 -95.318 L 122.139094 -95.189094 L 121.783625 -94.997687 L 121.783625 -94.900031 L 122.428156 -94.900031 L 122.783625 -94.28675 L 122.525813 -93.903937 L 122.463313 -93.353156 L 122.170344 -93.388312 L 121.783625 -93.806281 L 121.654719 -94.321906 L 121.045344 -94.193 L 120.850031 -93.837531 L 121.2055 -93.450812 L 121.584406 -92.763312 L 121.373469 -92.282844 Z M 121.143 -91.489875 " transform="matrix(1,0,0,-1,-1.143,-0.568)"/>
<path style="fill-rule:nonzero;fill:rgb(89.99939%,89.99939%,89.99939%);fill-opacity:1;stroke-width:0.69739;stroke-linecap:butt;stroke-linejoin:miter;stroke:rgb(100%,100%,100%);stroke-opacity:1;stroke-miterlimit:10;" d="M 125.842219 -91.528937 L 125.791438 -91.778937 L 124.760188 -91.778937 L 124.471125 -91.614875 L 124.053156 -91.552375 L 122.697688 -91.939094 L 122.346125 -91.778937 L 121.8305 -92.614875 L 121.607844 -92.771125 L 121.385188 -92.275031 L 121.158625 -91.501594 L 120.475031 -90.860969 L 120.701594 -89.7555 L 120.564875 -89.575812 L 120.201594 -89.618781 L 118.623469 -89.794562 L 113.732844 -89.868781 L 113.5805 -89.427375 L 113.752375 -87.7555 L 114.373469 -86.626594 L 115.416438 -84.802375 L 115.326594 -84.318 L 115.572688 -84.189094 L 115.658625 -83.806281 L 115.197688 -83.392219 L 115.17425 -82.966437 L 114.810969 -82.142219 L 114.787531 -80.954719 L 115.053156 -80.462531 L 115.006281 -79.778937 L 114.654719 -79.165656 L 114.959406 -78.872687 L 114.646906 -78.372687 L 114.73675 -78.044562 L 115.053156 -76.743781 L 115.54925 -76.337531 L 115.420344 -75.864875 L 116.146906 -74.810187 L 116.713313 -74.540656 L 116.670344 -74.204719 L 116.61175 -73.868781 L 117.185969 -72.759406 L 117.650813 -72.517219 L 117.682063 -72.337531 L 125.123469 -71.564094 L 125.158625 -72.818 L 125.193781 -76.134406 L 125.029719 -82.318 L 124.998469 -85.122687 L 125.545344 -88.857062 Z M 125.842219 -91.528937 " transform="matrix(1,0,0,-1,-1.143,-0.568)"/>
<path style="fill-rule:nonzero;fill:rgb(89.99939%,89.99939%,89.99939%);fill-opacity:1;stroke-width:0.69739;stroke-linecap:butt;stroke-linejoin:miter;stroke:rgb(100%,100%,100%);stroke-opacity:1;stroke-miterlimit:10;" d="M 113.416438 -39.767219 L 113.467219 -40.321906 L 113.912531 -40.439094 L 114.100031 -40.681281 L 114.201594 -41.052375 L 114.9555 -41.720344 L 115.092219 -42.196906 L 114.959406 -42.8805 L 114.643 -43.525031 L 114.482844 -44.071906 L 114.04925 -44.388312 L 113.709406 -44.5055 L 112.596125 -44.876594 L 112.318781 -45.642219 L 112.467219 -45.915656 L 112.8305 -46.251594 L 112.775813 -47.056281 L 112.42425 -47.360969 L 112.271906 -47.689094 L 112.295344 -48.239875 L 111.920344 -48.333625 L 111.596125 -48.552375 L 111.541438 -48.821906 L 111.596125 -49.243781 L 111.287531 -49.466437 L 110.795344 -48.841437 L 110.545344 -48.353156 L 97.443781 -48.853156 L 97.264094 -48.888312 L 96.853938 -47.985969 L 96.807063 -46.665656 L 96.490656 -45.845344 L 96.353938 -44.798469 L 95.896906 -44.071906 L 95.713313 -43.114875 L 95.166438 -41.610969 L 94.939875 -40.540656 L 94.666438 -40.107062 L 94.346125 -39.560187 L 94.73675 -38.595344 L 95.010188 -37.454719 L 94.463313 -37.044562 L 94.373469 -36.497687 L 94.553156 -35.997687 L 94.896906 -35.997687 L 111.365656 -35.743781 L 111.533625 -36.579719 L 111.978938 -36.888312 L 112.033625 -37.173469 L 111.627375 -37.84925 L 111.666438 -38.485969 L 112.166438 -39.243781 L 112.670344 -39.501594 L 113.283625 -39.603156 Z M 113.416438 -39.767219 " transform="matrix(1,0,0,-1,-1.143,-0.568)"/>
<path style="fill-rule:nonzero;fill:rgb(89.99939%,89.99939%,89.99939%);fill-opacity:1;stroke-width:0.69739;stroke-linecap:butt;stroke-linejoin:miter;stroke:rgb(100%,100%,100%);stroke-opacity:1;stroke-miterlimit:10;" d="M 94.693781 -25.669562 L 94.603938 -23.982062 L 94.23675 -22.525031 L 93.873469 -19.837531 L 93.783625 -17.8805 L 93.420344 -17.196906 L 93.100031 -16.193 L 93.100031 -14.142219 L 93.23675 -13.368781 L 92.873469 -12.282844 L 98.877375 -12.290656 L 98.943781 -10.646125 L 99.072688 -10.614875 L 99.521906 -10.712531 L 99.908625 -10.872687 L 100.068781 -11.966437 L 100.357844 -13.193 L 100.682063 -13.513312 L 101.646906 -13.513312 L 101.713313 -13.802375 L 102.967219 -13.868781 L 102.967219 -14.28675 L 103.935969 -14.28675 L 103.998469 -14.028937 L 104.225031 -13.802375 L 104.67425 -13.673469 L 104.932063 -13.868781 L 105.514094 -13.868781 L 106.287531 -14.384406 L 107.350031 -14.868781 L 107.8305 -14.962531 L 107.928156 -14.771125 L 108.217219 -14.673469 L 108.314875 -15.2555 L 108.8305 -15.509406 L 108.928156 -15.415656 L 109.185969 -15.446906 L 109.185969 -15.864875 L 109.701594 -16.060187 L 110.310969 -16.060187 L 110.635188 -15.896125 L 111.279719 -15.2555 L 111.795344 -15.157844 L 111.9555 -15.509406 L 112.053156 -15.767219 L 112.244563 -15.767219 L 112.439875 -15.607062 L 114.209406 -15.544562 L 114.564875 -16.153937 L 114.693781 -16.153937 L 114.834406 -15.939094 L 115.721125 -15.864875 L 115.600031 -16.318 L 114.814875 -16.685187 L 112.971125 -17.493781 L 112.018 -17.896125 L 111.408625 -18.41175 L 110.92425 -19.118781 L 110.475031 -19.892219 L 110.119563 -20.052375 L 109.217219 -21.052375 L 108.959406 -21.083625 L 108.096125 -21.634406 L 107.607844 -22.271125 L 107.560969 -22.907844 L 107.5805 -24.509406 L 107.307063 -24.845344 L 106.291438 -25.595344 L 105.850031 -26.78675 L 106.420344 -27.232062 L 106.557063 -27.876594 L 106.185969 -28.521125 L 106.221125 -29.267219 L 106.295344 -30.610969 L 106.896906 -31.208625 L 107.560969 -31.208625 L 107.939875 -31.833625 L 108.61175 -31.931281 L 109.381281 -33.064094 L 110.791438 -33.884406 L 111.221125 -34.454719 L 111.353938 -35.739875 L 95.170344 -35.966437 L 95.103938 -28.857062 L 95.014094 -28.267219 L 94.193781 -27.583625 L 93.963313 -27.216437 L 93.963313 -26.900031 L 94.373469 -26.579719 L 94.646906 -26.306281 Z M 94.693781 -25.669562 " transform="matrix(1,0,0,-1,-1.143,-0.568)"/>
<path style="fill-rule:nonzero;fill:rgb(50%,50%,50%);fill-opacity:1;stroke-width:0.69739;stroke-linecap:butt;stroke-linejoin:miter;stroke:rgb(100%,100%,100%);stroke-opacity:1;stroke-miterlimit:10;" d="M 75.787531 -63.927375 L 72.459406 -63.673469 L 72.287531 -65.853156 L 76.365656 -66.083625 L 82.752375 -66.345344 L 82.287531 -71.208625 L 82.193781 -74.763312 L 82.240656 -75.083625 L 83.103938 -75.810187 L 83.514094 -76.040656 L 83.650813 -75.993781 L 83.787531 -75.583625 L 84.060969 -75.946906 L 84.471125 -75.946906 L 84.471125 -75.673469 L 85.018 -75.946906 L 84.928156 -76.720344 L 85.748469 -76.767219 L 86.248469 -76.993781 L 87.068781 -77.1305 L 87.568781 -77.497687 L 88.025813 -77.087531 L 88.709406 -77.22425 L 89.209406 -77.907844 L 89.393 -77.907844 L 89.393 -78.360969 L 89.846125 -78.497687 L 90.303156 -78.044562 L 90.666438 -78.181281 L 91.170344 -78.181281 L 91.350031 -78.681281 L 92.607844 -79.095344 L 92.881281 -78.958625 L 93.244563 -78.138312 L 93.471125 -78.138312 L 93.701594 -78.548469 L 94.521906 -78.685187 L 95.248469 -78.958625 L 95.842219 -79.142219 L 96.2055 -78.958625 L 96.342219 -78.458625 L 97.209406 -78.458625 L 97.619563 -78.638312 L 98.162531 -78.228156 L 98.393 -78.228156 L 98.529719 -78.548469 L 99.350031 -78.548469 L 99.666438 -78.138312 L 100.033625 -78.228156 L 100.443781 -78.732062 L 101.0805 -79.095344 L 101.717219 -79.278937 L 102.103938 -79.501594 L 102.025813 -72.083625 L 101.752375 -69.900031 L 101.721125 -68.1305 L 101.435969 -66.825812 L 101.279719 -65.396125 L 101.264094 -64.638312 L 98.846125 -64.700812 L 89.600031 -64.607062 L 80.627375 -64.200812 Z M 75.787531 -63.927375 " transform="matrix(1,0,0,-1,-1.143,-0.568)"/>
<path style="fill-rule:nonzero;fill:rgb(50%,50%,50%);fill-opacity:1;stroke-width:0.69739;stroke-linecap:butt;stroke-linejoin:miter;stroke:rgb(100%,100%,100%);stroke-opacity:1;stroke-miterlimit:10;" d="M 72.025813 -65.868781 L 76.545344 -66.083625 L 82.740656 -66.314094 L 82.275813 -70.985969 L 82.217219 -74.603156 L 82.228938 -75.017219 L 83.096125 -75.778937 L 83.490656 -76.068 L 83.728938 -75.954719 L 83.803156 -75.595344 L 84.029719 -75.954719 L 84.447688 -75.962531 L 84.447688 -75.673469 L 84.783625 -75.864875 L 85.010188 -75.946906 L 84.935969 -76.739875 L 85.752375 -76.7555 L 86.334406 -76.997687 L 87.123469 -77.09925 L 87.596125 -77.513312 L 88.021906 -77.09925 L 88.764094 -77.22425 L 89.2055 -77.864875 L 89.420344 -77.931281 L 89.389094 -78.321906 L 89.826594 -78.478156 L 90.291438 -78.071906 L 90.717219 -78.193 L 91.162531 -78.200812 L 91.346125 -78.685187 L 92.607844 -79.107062 L 92.92425 -78.954719 L 93.221125 -78.122687 L 93.291438 -78.122687 L 93.471125 -78.138312 L 93.717219 -78.548469 L 94.498469 -78.681281 L 95.162531 -78.907844 L 95.846125 -79.146125 L 96.213313 -78.950812 L 96.353938 -78.450812 L 97.244563 -78.458625 L 97.603938 -78.642219 L 98.162531 -78.22425 L 98.381281 -78.232062 L 98.54925 -78.552375 L 99.357844 -78.552375 L 99.662531 -78.146125 L 100.033625 -78.228156 L 100.420344 -78.708625 L 101.123469 -79.114875 L 101.693781 -79.275031 L 101.994563 -79.435187 L 102.482844 -79.833625 L 103.088313 -79.568 L 103.623469 -79.794562 L 103.73675 -81.013312 L 103.728938 -82.946906 L 103.865656 -84.845344 L 104.006281 -85.564094 L 104.537531 -86.443 L 104.717219 -87.431281 L 105.557063 -88.532844 L 105.596125 -89.16175 L 105.744563 -89.318 L 105.600031 -90.985969 L 105.025813 -91.985969 L 105.334406 -92.415656 L 105.2055 -92.8805 L 105.072688 -94.357062 L 104.775813 -95.021125 L 104.834406 -95.720344 L 103.7055 -96.032844 L 101.740656 -96.935187 L 101.545344 -97.321906 L 101.029719 -97.708625 L 100.61175 -97.997687 L 100.353938 -98.16175 L 99.225031 -99.22425 L 98.678156 -99.642219 L 97.615656 -100.28675 L 96.48675 -100.771125 L 95.232844 -101.446906 L 94.877375 -101.735969 L 93.717219 -102.443 L 93.041438 -102.571906 L 92.268 -103.669562 L 91.463313 -103.732062 L 91.271906 -104.118781 L 91.721125 -104.5055 L 91.432063 -105.603156 L 91.17425 -106.501594 L 90.947688 -107.275031 L 90.787531 -108.177375 L 90.947688 -108.66175 L 91.303156 -110.048469 L 91.494563 -111.271125 L 91.850031 -111.818 L 91.654719 -112.107062 L 91.045344 -112.493781 L 89.916438 -111.720344 L 88.822688 -111.497687 L 88.564875 -111.591437 L 87.920344 -111.462531 L 87.084406 -110.853156 L 86.053156 -110.626594 L 84.537531 -109.950812 L 84.119563 -109.177375 L 83.86175 -107.888312 L 83.217219 -107.501594 L 83.088313 -107.052375 L 83.217219 -106.923469 L 83.279719 -106.243781 L 83.025813 -106.114875 L 82.896906 -105.923469 L 83.150813 -105.052375 L 82.8305 -104.603156 L 82.185969 -104.345344 L 81.510188 -103.47425 L 80.803156 -102.153937 L 79.963313 -101.638312 L 79.994563 -101.251594 L 78.932063 -98.806281 L 78.771906 -97.966437 L 78.416438 -97.579719 L 78.385188 -97.290656 L 77.193781 -96.228156 L 76.678156 -95.614875 L 76.678156 -95.388312 L 76.162531 -94.970344 L 74.810969 -94.747687 L 73.326594 -94.618781 L 72.717219 -94.165656 L 71.814875 -94.521125 L 71.103938 -94.810187 L 70.654719 -95.454719 L 70.459406 -96.196906 L 69.592219 -97.419562 L 69.107844 -97.903937 L 68.592219 -97.708625 L 68.23675 -97.482062 L 67.853938 -97.353156 L 67.0805 -96.903937 L 67.0805 -96.775031 L 66.725031 -96.388312 L 65.693781 -95.970344 L 64.213313 -94.423469 L 63.760188 -93.489875 L 63.760188 -91.8805 L 63.115656 -90.591437 L 63.021906 -90.044562 L 62.697688 -89.84925 L 62.471125 -89.431281 L 61.475031 -89.013312 L 61.217219 -88.689094 L 59.79925 -87.110969 L 59.541438 -86.466437 L 58.607844 -86.017219 L 58.318781 -85.146125 L 57.803156 -84.568 L 57.416438 -84.470344 L 57.287531 -83.53675 L 58.881281 -83.673469 L 64.666438 -84.220344 L 70.451594 -84.540656 L 70.896906 -80.66175 L 71.670344 -69.591437 L 71.990656 -65.857062 L 72.264094 -65.864875 M 91.994563 -111.626594 L 91.881281 -110.208625 L 91.334406 -108.775031 L 91.221125 -107.372687 L 91.529719 -105.728156 L 92.189875 -104.360969 L 92.881281 -103.282844 L 93.510188 -102.571906 L 93.639094 -102.622687 L 92.685969 -103.943 L 91.818781 -105.247687 L 91.416438 -106.568 L 91.350031 -107.59925 L 91.529719 -108.821906 L 92.045344 -110.2555 L 92.139094 -111.28675 L 92.17425 -111.575812 Z M 91.994563 -111.626594 " transform="matrix(1,0,0,-1,-1.143,-0.568)"/>
<path style="fill-rule:nonzero;fill:rgb(50%,50%,50%);fill-opacity:1;stroke-width:0.69739;stroke-linecap:butt;stroke-linejoin:miter;stroke:rgb(100%,100%,100%);stroke-opacity:1;stroke-miterlimit:10;" d="M 57.416438 -84.485969 L 57.260188 -83.540656 L 58.982844 -83.646125 L 64.994563 -84.232062 L 70.428156 -84.568 L 70.869563 -80.841437 L 71.639094 -69.708625 L 71.98675 -65.845344 L 72.29925 -65.868781 L 72.463313 -63.646125 L 51.740656 -61.525031 L 48.252375 -85.525031 L 51.334406 -85.919562 L 51.592219 -83.923469 Z M 57.416438 -84.485969 " transform="matrix(1,0,0,-1,-1.143,-0.568)"/>
<path style="fill-rule:nonzero;fill:rgb(50%,50%,50%);fill-opacity:1;stroke-width:0.69739;stroke-linecap:butt;stroke-linejoin:miter;stroke:rgb(100%,100%,100%);stroke-opacity:1;stroke-miterlimit:10;" d="M 101.197688 -64.634406 L 98.685969 -64.677375 L 89.502375 -64.583625 L 80.623469 -64.173469 L 75.713313 -63.923469 L 76.490656 -51.052375 L 80.889094 -51.189094 L 88.920344 -51.353156 L 97.744563 -51.552375 L 98.760188 -51.552375 L 99.197688 -51.982062 L 99.600031 -51.978156 L 99.92425 -52.181281 L 99.912531 -52.778937 L 99.54925 -53.122687 L 99.482844 -53.568 L 99.850031 -54.247687 L 100.435969 -54.884406 L 100.900813 -55.204719 L 101.162531 -57.443 Z M 101.197688 -64.634406 " transform="matrix(1,0,0,-1,-1.143,-0.568)"/>
<path style="fill-rule:nonzero;fill:rgb(89.99939%,89.99939%,89.99939%);fill-opacity:1;stroke-width:0.69739;stroke-linecap:butt;stroke-linejoin:miter;stroke:rgb(100%,100%,100%);stroke-opacity:1;stroke-miterlimit:10;" d="M 96.857844 -47.962531 L 97.502375 -49.360969 L 97.475031 -49.818 L 98.166438 -50.91175 L 98.7055 -51.540656 L 97.701594 -51.540656 L 89.037531 -51.353156 L 80.908625 -51.177375 L 76.475031 -51.021125 L 76.689875 -46.771125 L 70.248469 -46.189094 L 71.115656 -37.419562 L 74.213313 -37.626594 L 78.221125 -37.853156 L 81.775813 -38.079719 L 86.514094 -38.310187 L 88.654719 -38.216437 L 89.064875 -38.673469 L 90.021906 -39.263312 L 90.248469 -39.446906 L 91.115656 -39.173469 L 91.889094 -39.083625 L 92.435969 -39.03675 L 92.79925 -39.310187 L 93.607844 -39.6305 L 94.201594 -39.946906 L 94.291438 -40.267219 L 94.475031 -40.677375 L 94.838313 -40.677375 L 94.998469 -40.685187 L 95.17425 -41.618781 L 95.756281 -43.306281 L 95.869563 -44.056281 L 96.373469 -44.806281 L 96.48675 -45.825812 L 96.807063 -46.669562 Z M 96.857844 -47.962531 " transform="matrix(1,0,0,-1,-1.143,-0.568)"/>
<path style="fill-rule:nonzero;fill:rgb(89.99939%,89.99939%,89.99939%);fill-opacity:1;stroke-width:0.69739;stroke-linecap:butt;stroke-linejoin:miter;stroke:rgb(100%,100%,100%);stroke-opacity:1;stroke-miterlimit:10;" d="M 94.935969 -40.653937 L 94.92425 -40.53675 L 94.350031 -39.571906 L 94.721125 -38.634406 L 95.018 -37.458625 L 94.463313 -37.044562 L 94.385188 -36.497687 L 94.545344 -35.989875 L 95.178156 -35.993781 L 95.154719 -34.993781 L 95.088313 -28.982062 L 94.963313 -28.232062 L 94.154719 -27.568 L 93.959406 -27.235969 L 93.943781 -26.915656 L 94.346125 -26.610969 L 94.654719 -26.278937 L 94.701594 -25.747687 L 83.092219 -25.427375 L 72.17425 -24.743781 L 71.115656 -37.431281 L 74.021906 -37.610969 L 77.994563 -37.853156 L 81.529719 -38.03675 L 86.268 -38.298469 L 88.658625 -38.212531 L 89.04925 -38.66175 L 90.084406 -39.310187 L 90.23675 -39.454719 L 91.139094 -39.16175 L 92.443781 -39.040656 L 92.779719 -39.306281 L 93.615656 -39.626594 L 94.201594 -39.950812 L 94.283625 -40.247687 L 94.490656 -40.693 Z M 94.935969 -40.653937 " transform="matrix(1,0,0,-1,-1.143,-0.568)"/>
<path style="fill-rule:nonzero;fill:rgb(89.99939%,89.99939%,89.99939%);fill-opacity:1;stroke-width:0.69739;stroke-linecap:butt;stroke-linejoin:miter;stroke:rgb(100%,100%,100%);stroke-opacity:1;stroke-miterlimit:10;" d="M 94.709406 -25.689094 L 94.584406 -24.0055 L 94.252375 -22.650031 L 93.873469 -20.052375 L 93.783625 -17.864875 L 93.435969 -17.251594 L 93.084406 -16.216437 L 93.092219 -14.134406 L 93.217219 -13.372687 L 92.850031 -12.282844 L 87.143 -12.173469 L 83.439875 -12.044562 L 78.158625 -11.78675 L 73.584406 -11.360969 L 72.189875 -24.743781 L 83.135188 -25.41175 Z M 94.709406 -25.689094 " transform="matrix(1,0,0,-1,-1.143,-0.568)"/>
<path style="fill-rule:nonzero;fill:rgb(89.99939%,89.99939%,89.99939%);fill-opacity:1;stroke-width:0.69739;stroke-linecap:butt;stroke-linejoin:miter;stroke:rgb(100%,100%,100%);stroke-opacity:1;stroke-miterlimit:10;" d="M 71.807063 -28.548469 L 50.537531 -25.868781 L 47.732844 -43.493781 L 70.29925 -46.200812 Z M 71.807063 -28.548469 " transform="matrix(1,0,0,-1,-1.143,-0.568)"/>
<path style="fill-rule:nonzero;fill:rgb(89.99939%,89.99939%,89.99939%);fill-opacity:1;stroke-width:0.69739;stroke-linecap:butt;stroke-linejoin:miter;stroke:rgb(100%,100%,100%);stroke-opacity:1;stroke-miterlimit:10;" d="M 73.568781 -11.353156 L 67.4555 -10.790656 L 61.623469 -10.083625 L 55.795344 -9.278937 L 49.353938 -8.216437 L 45.678156 -7.53675 L 39.158625 -6.157844 L 38.268 -10.41175 L 38.951594 -11.915656 L 38.678156 -12.825812 L 39.041438 -13.735969 L 39.678156 -14.009406 L 40.600031 -16.153937 L 41.135188 -16.78675 L 41.228938 -17.017219 L 41.912531 -17.243781 L 42.002375 -17.653937 L 40.592219 -21.16175 L 40.592219 -21.66175 L 41.092219 -22.302375 L 41.271906 -22.302375 L 42.228938 -21.708625 L 42.365656 -21.482062 L 42.685969 -21.618781 L 42.639094 -22.665656 L 43.185969 -25.169562 L 43.779719 -25.673469 L 43.963313 -25.806281 L 44.326594 -26.263312 L 44.232844 -26.946906 L 44.369563 -27.6305 L 44.600031 -27.814094 L 45.053156 -27.357062 L 45.600031 -27.357062 L 46.240656 -27.677375 L 46.740656 -27.493781 L 47.560969 -27.493781 L 48.287531 -27.814094 L 48.834406 -27.720344 L 48.928156 -27.1305 L 49.518 -26.993781 L 49.791438 -27.267219 L 49.885188 -27.903937 L 50.166438 -28.071906 L 50.545344 -25.872687 L 71.814875 -28.548469 Z M 73.568781 -11.353156 " transform="matrix(1,0,0,-1,-1.143,-0.568)"/>
<path style="fill-rule:nonzero;fill:rgb(50%,50%,50%);fill-opacity:1;stroke-width:0.69739;stroke-linecap:butt;stroke-linejoin:miter;stroke:rgb(100%,100%,100%);stroke-opacity:1;stroke-miterlimit:10;" d="M 75.725031 -63.954719 L 76.701594 -46.751594 L 54.107844 -44.232062 L 51.67425 -61.7555 Z M 75.725031 -63.954719 " transform="matrix(1,0,0,-1,-1.143,-0.568)"/>
<path style="fill-rule:nonzero;fill:rgb(89.99939%,89.99939%,89.99939%);fill-opacity:1;stroke-width:0.69739;stroke-linecap:butt;stroke-linejoin:miter;stroke:rgb(100%,100%,100%);stroke-opacity:1;stroke-miterlimit:10;" d="M 29.584406 -35.165656 L 31.334406 -28.146125 L 31.607844 -27.306281 L 32.107844 -26.118781 L 31.857844 -25.665656 L 31.353938 -25.689094 L 31.197688 -25.482062 L 31.287531 -25.2555 L 31.353938 -24.638312 L 32.244563 -23.548469 L 32.607844 -23.454719 L 32.834406 -23.228156 L 32.951594 -22.591437 L 33.131281 -22.454719 L 33.908625 -21.290656 L 34.682063 -20.427375 L 34.725031 -19.673469 L 34.045344 -19.150031 L 33.73675 -18.275031 L 36.451594 -5.653937 L 39.146906 -6.157844 L 38.268 -10.415656 L 38.975031 -11.907844 L 38.662531 -12.837531 L 39.053156 -13.763312 L 39.678156 -14.013312 L 40.443781 -15.915656 L 41.143 -16.798469 L 41.244563 -17.028937 L 41.908625 -17.2555 L 41.982844 -17.673469 L 40.596125 -21.134406 L 40.560969 -21.646125 L 41.088313 -22.310187 L 41.268 -22.298469 L 42.244563 -21.696906 L 42.381281 -21.478156 L 42.689875 -21.610969 L 42.635188 -22.677375 L 43.182063 -25.185187 L 43.963313 -25.818 L 44.29925 -26.247687 L 44.154719 -27.060187 L 44.365656 -27.622687 L 44.5805 -27.837531 L 45.072688 -27.368781 L 45.639094 -27.3805 L 46.221125 -27.646125 L 46.775813 -27.509406 L 47.533625 -27.478156 L 48.326594 -27.798469 L 48.869563 -27.739875 L 48.971125 -27.134406 L 49.553156 -26.982062 L 49.807063 -27.282844 L 49.893 -27.868781 L 50.178156 -28.110969 L 48.506281 -38.794562 C 48.506281 -38.794562 30.978938 -35.466437 29.584406 -35.165656 Z M 29.584406 -35.165656 " transform="matrix(1,0,0,-1,-1.143,-0.568)"/>
<path style="fill-rule:nonzero;fill:rgb(50%,50%,50%);fill-opacity:1;stroke-width:0.69739;stroke-linecap:butt;stroke-linejoin:miter;stroke:rgb(100%,100%,100%);stroke-opacity:1;stroke-miterlimit:10;" d="M 51.7055 -61.790656 L 35.018 -59.423469 L 39.119563 -37.001594 L 48.443781 -38.743781 L 48.146906 -40.860969 L 47.685969 -43.485969 L 49.240656 -43.669562 L 52.510188 -44.028937 L 54.146906 -44.200812 Z M 51.7055 -61.790656 " transform="matrix(1,0,0,-1,-1.143,-0.568)"/>
<path style="fill-rule:nonzero;fill:rgb(50%,50%,50%);fill-opacity:1;stroke-width:0.69739;stroke-linecap:butt;stroke-linejoin:miter;stroke:rgb(100%,100%,100%);stroke-opacity:1;stroke-miterlimit:10;" d="M 28.873469 -76.239875 L 28.350031 -76.669562 L 28.287531 -76.962531 L 28.381281 -77.153937 L 32.150813 -79.278937 L 34.568781 -80.794562 L 37.498469 -82.501594 L 40.850031 -84.497687 L 43.295344 -84.982062 L 48.268 -85.521125 L 51.7055 -61.782844 L 35.021906 -59.407844 L 34.404719 -62.681281 L 34.084406 -62.681281 L 33.744563 -63.208625 L 33.244563 -63.185187 L 32.994563 -62.638312 L 32.447688 -62.568 L 32.264094 -62.341437 L 32.0805 -62.341437 L 31.900813 -62.454719 L 31.514094 -62.66175 L 31.490656 -64.048469 L 31.443781 -64.392219 L 31.3305 -66.896125 L 31.033625 -67.329719 L 30.920344 -67.989875 L 31.467219 -68.970344 L 31.717219 -70.1305 L 31.877375 -70.337531 L 32.0805 -70.450812 L 32.057063 -70.903937 L 31.740656 -71.177375 L 31.057063 -71.521125 L 30.670344 -71.907844 L 30.373469 -72.638312 L 30.260188 -73.614875 L 29.689875 -74.16175 L 29.279719 -74.298469 L 29.307063 -74.466437 L 29.217219 -74.806281 L 29.307063 -74.966437 L 30.037531 -75.079719 L 29.920344 -75.626594 L 29.627375 -76.060187 Z M 28.873469 -76.239875 " transform="matrix(1,0,0,-1,-1.143,-0.568)"/>
<path style="fill-rule:nonzero;fill:rgb(50%,50%,50%);fill-opacity:1;stroke-width:0.69739;stroke-linecap:butt;stroke-linejoin:miter;stroke:rgb(100%,100%,100%);stroke-opacity:1;stroke-miterlimit:10;" d="M 39.131281 -36.978156 L 34.420344 -62.646125 L 34.057063 -62.716437 L 33.744563 -63.193 L 33.271906 -63.196906 L 32.978938 -62.650031 L 32.4555 -62.575812 L 32.303156 -62.353156 L 32.096125 -62.345344 L 31.541438 -62.669562 L 31.478938 -64.025031 L 31.408625 -65.173469 L 31.338313 -66.888312 L 31.04925 -67.302375 L 30.564875 -67.087531 L 16.79925 -46.325812 L 20.584406 -32.860969 Z M 39.131281 -36.978156 " transform="matrix(1,0,0,-1,-1.143,-0.568)"/>
<path style="fill-rule:nonzero;fill:rgb(89.99939%,89.99939%,89.99939%);fill-opacity:1;stroke-width:0.69739;stroke-linecap:butt;stroke-linejoin:miter;stroke:rgb(100%,100%,100%);stroke-opacity:1;stroke-miterlimit:10;" d="M 29.635188 -34.97425 L 31.396906 -28.040656 L 31.607844 -27.196906 L 32.076594 -26.079719 L 31.951594 -25.845344 L 31.451594 -25.837531 L 31.197688 -25.5055 L 31.287531 -25.212531 L 31.389094 -24.564094 L 32.275813 -23.470344 L 32.639094 -23.251594 L 32.869563 -23.025031 L 33.166438 -22.314094 L 33.971125 -21.185187 L 34.682063 -20.415656 L 34.725031 -19.728156 L 34.076594 -19.235969 L 33.721125 -18.310187 L 31.197688 -17.591437 L 28.189875 -16.884406 L 25.115656 -16.907844 L 25.025813 -16.634406 L 23.932063 -17.044562 L 23.041438 -16.931281 L 22.564875 -16.610969 L 22.314875 -16.747687 L 21.381281 -16.704719 L 21.037531 -16.431281 L 19.990656 -16.021125 L 19.8305 -16.040656 L 18.967219 -15.747687 L 18.576594 -16.110969 L 17.350031 -16.040656 L 16.162531 -15.22425 L 16.29925 -15.064094 L 16.346125 -13.513312 L 15.889094 -12.739875 L 15.068781 -12.626594 L 14.932063 -12.126594 L 14.463313 -12.032844 L 13.310969 -12.443 L 12.857844 -13.732062 L 12.213313 -15.728156 L 11.568781 -17.017219 L 10.572688 -19.818 L 9.283625 -22.525031 L 7.67425 -25.03675 L 7.287531 -25.614875 L 7.123469 -27.325812 L 7.201594 -29.732062 Z M 29.635188 -34.97425 " transform="matrix(1,0,0,-1,-1.143,-0.568)"/>
<path style="fill-rule:nonzero;fill:rgb(89.99939%,89.99939%,89.99939%);fill-opacity:1;stroke-width:0.69739;stroke-linecap:butt;stroke-linejoin:miter;stroke:rgb(100%,100%,100%);stroke-opacity:1;stroke-miterlimit:10;" d="M 20.338313 -1.517219 L 21.209406 -1.806281 L 23.143 -2.353156 L 24.850031 -2.739875 L 28.842219 -3.868781 L 33.416438 -4.993781 L 36.451594 -5.634406 L 33.732844 -18.306281 L 31.252375 -17.603156 L 28.162531 -16.892219 L 25.131281 -16.896125 L 25.037531 -16.6305 L 23.92425 -17.064094 L 23.006281 -16.915656 L 22.5805 -16.59925 L 22.318781 -16.732062 L 21.373469 -16.704719 L 21.037531 -16.435187 L 19.98675 -16.013312 L 19.842219 -16.044562 L 18.967219 -15.739875 L 18.588313 -16.103156 L 17.342219 -16.040656 L 16.158625 -15.220344 L 16.314875 -15.032844 L 16.338313 -13.5055 L 15.885188 -12.739875 L 15.064875 -12.618781 L 14.928156 -12.118781 L 14.475031 -12.028937 L 13.768 -12.271125 L 13.314875 -11.6305 L 13.381281 -11.052375 L 13.928156 -10.985969 L 14.252375 -10.181281 L 13.73675 -9.954719 L 13.768 -9.216437 L 14.639094 -9.087531 L 14.088313 -8.540656 L 13.79925 -7.122687 L 13.928156 -6.540656 L 13.928156 -4.962531 L 13.572688 -4.318 L 14.025813 -2.450812 L 14.443781 -2.548469 L 14.928156 -3.126594 L 15.475031 -3.642219 L 16.119563 -4.028937 L 17.021906 -4.446906 L 17.631281 -4.575812 L 18.213313 -4.864875 L 18.889094 -5.060187 L 19.338313 -5.028937 L 19.338313 -4.544562 L 19.596125 -4.318 L 20.018 -4.060187 L 20.0805 -4.28675 L 20.146906 -4.642219 L 19.693781 -4.735969 L 19.631281 -5.157844 L 19.982844 -5.446906 L 20.209406 -5.931281 L 20.338313 -6.318 L 20.627375 -6.282844 L 20.662531 -6.025031 L 20.467219 -5.767219 L 20.369563 -5.122687 L 20.533625 -4.771125 L 20.404719 -4.482062 L 20.404719 -4.028937 L 20.756281 -3.321906 L 20.533625 -2.806281 L 20.04925 -1.837531 L 20.11175 -1.677375 Z M 18.4555 -2.708625 L 18.857844 -2.677375 L 18.9555 -2.950812 L 19.260188 -2.626594 L 19.725031 -2.626594 L 19.889094 -2.935187 L 19.5805 -3.271125 L 19.709406 -3.431281 L 19.564875 -3.833625 L 19.291438 -3.915656 C 19.291438 -3.915656 19.115656 -3.931281 19.115656 -3.868781 C 19.115656 -3.802375 19.404719 -3.353156 19.404719 -3.353156 L 19.064875 -3.239875 L 19.002375 -3.528937 L 18.857844 -3.657844 L 18.54925 -3.208625 Z M 18.4555 -2.708625 " transform="matrix(1,0,0,-1,-1.143,-0.568)"/>
<path style="fill-rule:nonzero;fill:rgb(50%,50%,50%);fill-opacity:1;stroke-width:0.69739;stroke-linecap:butt;stroke-linejoin:miter;stroke:rgb(100%,100%,100%);stroke-opacity:1;stroke-miterlimit:10;" d="M 28.8305 -76.153937 L 29.615656 -76.056281 L 29.912531 -75.657844 L 30.021906 -75.071906 L 29.314875 -74.954719 L 29.209406 -74.821906 L 29.307063 -74.415656 L 29.275813 -74.298469 L 29.658625 -74.173469 L 30.264094 -73.610969 L 30.381281 -72.614875 L 30.654719 -71.935187 L 31.041438 -71.5055 L 31.744563 -71.189094 L 32.072688 -70.868781 L 32.084406 -70.446906 L 31.889094 -70.333625 L 31.685969 -70.118781 L 31.4555 -68.954719 L 30.920344 -67.989875 L 31.033625 -67.294562 L 30.54925 -67.087531 L 16.787531 -46.329719 L 20.557063 -32.860969 L 7.189875 -29.732062 L 6.889094 -30.673469 L 6.857844 -32.157844 L 5.826594 -34.509406 L 5.213313 -35.025031 L 5.150813 -35.247687 L 4.795344 -35.41175 L 4.506281 -36.247687 L 4.342219 -36.892219 L 4.893 -37.728156 L 5.213313 -38.568 L 5.439875 -39.275031 L 5.373469 -40.564094 L 5.021906 -41.177375 L 4.893 -42.337531 L 4.697688 -43.075812 L 5.053156 -43.84925 L 5.600031 -44.751594 L 6.053156 -45.716437 L 6.310969 -46.525031 L 6.244563 -47.165656 L 6.182063 -47.263312 L 6.182063 -47.681281 L 7.307063 -48.939094 L 7.209406 -49.423469 L 7.0805 -49.872687 L 6.951594 -50.259406 L 6.98675 -51.903937 L 7.404719 -52.642219 L 7.791438 -53.157844 L 8.338313 -53.2555 L 8.533625 -53.802375 L 8.307063 -54.513312 L 7.889094 -54.833625 L 7.662531 -54.833625 L 7.502375 -55.607062 L 7.596125 -56.185187 L 8.240656 -57.056281 L 8.564875 -58.118781 L 8.853938 -59.052375 L 9.11175 -59.665656 L 9.787531 -60.825812 L 10.076594 -61.341437 L 10.17425 -61.919562 L 10.498469 -62.114875 L 10.498469 -62.595344 L 10.334406 -62.982062 L 9.982844 -64.400031 L 9.885188 -64.78675 L 10.369563 -65.333625 L 11.2055 -65.431281 L 12.107844 -65.78675 L 12.881281 -66.204719 L 13.459406 -66.204719 L 14.041438 -66.818 L 14.557063 -67.782844 L 14.779719 -68.232062 L 15.553156 -68.653937 L 16.521906 -68.814094 L 16.810969 -69.232062 L 16.939875 -69.876594 L 16.650813 -70.0055 L 16.713313 -70.200812 L 17.357844 -70.360969 L 17.904719 -70.392219 L 18.533625 -70.056281 L 19.307063 -70.892219 L 19.467219 -71.345344 L 19.982844 -72.181281 L 20.04925 -72.825812 L 20.04925 -74.693 L 20.146906 -75.048469 L 22.143 -75.337531 L 26.072688 -75.888312 Z M 11.268 -67.443 L 11.525813 -67.751594 L 11.494563 -68.009406 L 10.850031 -67.993781 L 10.73675 -67.751594 L 10.607844 -67.462531 Z M 11.654719 -67.443 L 11.896906 -67.314094 L 12.607844 -67.735969 L 13.217219 -67.97425 L 13.041438 -68.103156 L 12.139094 -68.056281 L 11.818781 -67.735969 Z M 15.779719 -71.392219 L 16.135188 -71.857062 L 16.295344 -72.052375 L 16.600031 -72.16175 L 16.713313 -71.872687 L 16.521906 -71.521125 L 15.990656 -71.114875 L 15.779719 -71.150031 Z M 15.490656 -73.114875 L 15.842219 -73.743781 L 16.084406 -74.126594 L 15.795344 -74.177375 L 15.537531 -73.935187 C 15.537531 -73.935187 15.393 -73.646125 15.393 -73.564094 C 15.393 -73.485969 15.393 -73.1305 15.393 -73.1305 Z M 15.490656 -73.114875 " transform="matrix(1,0,0,-1,-1.143,-0.568)"/>
</g>
</svg>
