<?xml version="1.0" encoding="UTF-8"?>
<svg xmlns="http://www.w3.org/2000/svg" xmlns:xlink="http://www.w3.org/1999/xlink" width="84pt" height="85pt" viewBox="0 0 84 85" version="1.1">
<g id="surface1">
<path style="fill:none;stroke-width:0.3985;stroke-linecap:butt;stroke-linejoin:miter;stroke:rgb(0%,0%,0%);stroke-opacity:1;stroke-miterlimit:10;" d="M 39.68375 -0.00046875 L 28.062656 28.062031 " transform="matrix(1,0,0,-1,41.91,42.48)"/>
<path style=" stroke:none;fill-rule:nonzero;fill:rgb(0%,0%,0%);fill-opacity:1;" d="M 83.589844 42.480469 C 83.589844 41.378906 82.695312 40.488281 81.59375 40.488281 C 80.496094 40.488281 79.601562 41.378906 79.601562 42.480469 C 79.601562 43.582031 80.496094 44.472656 81.59375 44.472656 C 82.695312 44.472656 83.589844 43.582031 83.589844 42.480469 Z M 83.589844 42.480469 "/>
<path style="fill:none;stroke-width:0.3985;stroke-linecap:butt;stroke-linejoin:miter;stroke:rgb(0%,0%,0%);stroke-opacity:1;stroke-miterlimit:10;" d="M 28.062656 28.062031 L 0.00015625 39.687031 " transform="matrix(1,0,0,-1,41.91,42.48)"/>
<path style=" stroke:none;fill-rule:nonzero;fill:rgb(0%,0%,0%);fill-opacity:1;" d="M 71.964844 14.417969 C 71.964844 13.316406 71.070312 12.425781 69.972656 12.425781 C 68.871094 12.425781 67.980469 13.316406 67.980469 14.417969 C 67.980469 15.519531 68.871094 16.410156 69.972656 16.410156 C 71.070312 16.410156 71.964844 15.519531 71.964844 14.417969 Z M 71.964844 14.417969 "/>
<path style="fill:none;stroke-width:0.3985;stroke-linecap:butt;stroke-linejoin:miter;stroke:rgb(0%,0%,0%);stroke-opacity:1;stroke-miterlimit:10;" d="M 0.00015625 39.687031 L -28.062344 28.062031 " transform="matrix(1,0,0,-1,41.91,42.48)"/>
<path style=" stroke:none;fill-rule:nonzero;fill:rgb(0%,0%,0%);fill-opacity:1;" d="M 43.902344 2.792969 C 43.902344 1.695312 43.011719 0.800781 41.910156 0.800781 C 40.808594 0.800781 39.917969 1.695312 39.917969 2.792969 C 39.917969 3.894531 40.808594 4.789062 41.910156 4.789062 C 43.011719 4.789062 43.902344 3.894531 43.902344 2.792969 Z M 43.902344 2.792969 "/>
<path style="fill:none;stroke-width:0.3985;stroke-linecap:butt;stroke-linejoin:miter;stroke:rgb(0%,0%,0%);stroke-opacity:1;stroke-miterlimit:10;" d="M -28.062344 28.062031 L -39.683438 -0.00046875 " transform="matrix(1,0,0,-1,41.91,42.48)"/>
<path style=" stroke:none;fill-rule:nonzero;fill:rgb(0%,0%,0%);fill-opacity:1;" d="M 15.839844 14.417969 C 15.839844 13.316406 14.949219 12.425781 13.847656 12.425781 C 12.746094 12.425781 11.855469 13.316406 11.855469 14.417969 C 11.855469 15.519531 12.746094 16.410156 13.847656 16.410156 C 14.949219 16.410156 15.839844 15.519531 15.839844 14.417969 Z M 15.839844 14.417969 "/>
<path style="fill:none;stroke-width:0.3985;stroke-linecap:butt;stroke-linejoin:miter;stroke:rgb(0%,0%,0%);stroke-opacity:1;stroke-miterlimit:10;" d="M -39.683438 -0.00046875 L -28.062344 -28.062969 " transform="matrix(1,0,0,-1,41.91,42.48)"/>
<path style=" stroke:none;fill-rule:nonzero;fill:rgb(0%,0%,0%);fill-opacity:1;" d="M 4.21875 42.480469 C 4.21875 41.378906 3.324219 40.488281 2.226562 40.488281 C 1.125 40.488281 0.230469 41.378906 0.230469 42.480469 C 0.230469 43.582031 1.125 44.472656 2.226562 44.472656 C 3.324219 44.472656 4.21875 43.582031 4.21875 42.480469 Z M 4.21875 42.480469 "/>
<path style="fill:none;stroke-width:0.3985;stroke-linecap:butt;stroke-linejoin:miter;stroke:rgb(0%,0%,0%);stroke-opacity:1;stroke-miterlimit:10;" d="M -28.062344 -28.062969 L 0.00015625 -39.684063 " transform="matrix(1,0,0,-1,41.91,42.48)"/>
<path style=" stroke:none;fill-rule:nonzero;fill:rgb(0%,0%,0%);fill-opacity:1;" d="M 15.839844 70.542969 C 15.839844 69.441406 14.949219 68.550781 13.847656 68.550781 C 12.746094 68.550781 11.855469 69.441406 11.855469 70.542969 C 11.855469 71.640625 12.746094 72.535156 13.847656 72.535156 C 14.949219 72.535156 15.839844 71.640625 15.839844 70.542969 Z M 15.839844 70.542969 "/>
<path style="fill:none;stroke-width:0.3985;stroke-linecap:butt;stroke-linejoin:miter;stroke:rgb(0%,0%,0%);stroke-opacity:1;stroke-miterlimit:10;" d="M 0.00015625 -39.684063 L 28.062656 -28.062969 " transform="matrix(1,0,0,-1,41.91,42.48)"/>
<path style=" stroke:none;fill-rule:nonzero;fill:rgb(0%,0%,0%);fill-opacity:1;" d="M 43.902344 82.164062 C 43.902344 81.066406 43.011719 80.171875 41.910156 80.171875 C 40.808594 80.171875 39.917969 81.066406 39.917969 82.164062 C 39.917969 83.265625 40.808594 84.15625 41.910156 84.15625 C 43.011719 84.15625 43.902344 83.265625 43.902344 82.164062 Z M 43.902344 82.164062 "/>
<path style="fill:none;stroke-width:0.3985;stroke-linecap:butt;stroke-linejoin:miter;stroke:rgb(0%,0%,0%);stroke-opacity:1;stroke-miterlimit:10;" d="M 28.062656 -28.062969 L 39.68375 -0.00046875 " transform="matrix(1,0,0,-1,41.91,42.48)"/>
<path style=" stroke:none;fill-rule:nonzero;fill:rgb(0%,0%,0%);fill-opacity:1;" d="M 71.964844 70.542969 C 71.964844 69.441406 71.070312 68.550781 69.972656 68.550781 C 68.871094 68.550781 67.980469 69.441406 67.980469 70.542969 C 67.980469 71.640625 68.871094 72.535156 69.972656 72.535156 C 71.070312 72.535156 71.964844 71.640625 71.964844 70.542969 Z M 71.964844 70.542969 "/>
<path style="fill:none;stroke-width:0.3985;stroke-linecap:butt;stroke-linejoin:miter;stroke:rgb(0%,0%,0%);stroke-opacity:1;stroke-miterlimit:10;" d="M 0.00015625 -0.00046875 L 28.062656 28.062031 M 0.00015625 -0.00046875 L -28.062344 28.062031 M 0.00015625 -0.00046875 L -28.062344 -28.062969 M 0.00015625 -0.00046875 L 28.062656 -28.062969 " transform="matrix(1,0,0,-1,41.91,42.48)"/>
<path style=" stroke:none;fill-rule:nonzero;fill:rgb(0%,0%,0%);fill-opacity:1;" d="M 43.902344 42.480469 C 43.902344 41.378906 43.011719 40.488281 41.910156 40.488281 C 40.808594 40.488281 39.917969 41.378906 39.917969 42.480469 C 39.917969 43.582031 40.808594 44.472656 41.910156 44.472656 C 43.011719 44.472656 43.902344 43.582031 43.902344 42.480469 Z M 43.902344 42.480469 "/>
<path style="fill:none;stroke-width:0.3985;stroke-linecap:butt;stroke-linejoin:miter;stroke:rgb(0%,0%,0%);stroke-opacity:1;stroke-miterlimit:10;" d="M -19.843594 -0.00046875 L 0.00015625 39.687031 M -19.843594 -0.00046875 L -39.683438 -0.00046875 M -19.843594 -0.00046875 L 0.00015625 -39.684063 " transform="matrix(1,0,0,-1,41.91,42.48)"/>
<path style=" stroke:none;fill-rule:nonzero;fill:rgb(0%,0%,0%);fill-opacity:1;" d="M 24.058594 42.480469 C 24.058594 41.378906 23.167969 40.488281 22.066406 40.488281 C 20.96875 40.488281 20.074219 41.378906 20.074219 42.480469 C 20.074219 43.582031 20.96875 44.472656 22.066406 44.472656 C 23.167969 44.472656 24.058594 43.582031 24.058594 42.480469 Z M 24.058594 42.480469 "/>
<path style="fill:none;stroke-width:0.3985;stroke-linecap:butt;stroke-linejoin:miter;stroke:rgb(0%,0%,0%);stroke-opacity:1;stroke-miterlimit:10;" d="M 19.843906 -0.00046875 L 0.00015625 39.687031 M 19.843906 -0.00046875 L 39.68375 -0.00046875 M 19.843906 -0.00046875 L 0.00015625 -39.684063 " transform="matrix(1,0,0,-1,41.91,42.48)"/>
<path style=" stroke:none;fill-rule:nonzero;fill:rgb(0%,0%,0%);fill-opacity:1;" d="M 63.746094 42.480469 C 63.746094 41.378906 62.851562 40.488281 61.753906 40.488281 C 60.652344 40.488281 59.761719 41.378906 59.761719 42.480469 C 59.761719 43.582031 60.652344 44.472656 61.753906 44.472656 C 62.851562 44.472656 63.746094 43.582031 63.746094 42.480469 Z M 63.746094 42.480469 "/>
</g>
</svg>
