<?xml version="1.0" encoding="UTF-8"?>
<svg xmlns="http://www.w3.org/2000/svg" xmlns:xlink="http://www.w3.org/1999/xlink" width="45pt" height="45pt" viewBox="0 0 45 45" version="1.1">
<g id="surface1">
<path style="fill:none;stroke-width:0.3985;stroke-linecap:butt;stroke-linejoin:miter;stroke:rgb(0%,0%,0%);stroke-opacity:1;stroke-miterlimit:10;" d="M 20.0425 20.043125 L -20.043437 20.043125 L -20.043437 -20.042813 L 20.0425 -20.042813 L 20.0425 20.043125 L -20.043437 -20.042813 M -20.043437 20.043125 L 20.0425 -20.042813 " transform="matrix(1,0,0,-1,22.27,22.84)"/>
<path style=" stroke:none;fill-rule:nonzero;fill:rgb(0%,0%,0%);fill-opacity:1;" d="M 44.308594 2.796875 C 44.308594 1.695312 43.414062 0.804688 42.3125 0.804688 C 41.214844 0.804688 40.320312 1.695312 40.320312 2.796875 C 40.320312 3.894531 41.214844 4.789062 42.3125 4.789062 C 43.414062 4.789062 44.308594 3.894531 44.308594 2.796875 Z M 44.308594 2.796875 "/>
<path style=" stroke:none;fill-rule:nonzero;fill:rgb(0%,0%,0%);fill-opacity:1;" d="M 4.21875 2.796875 C 4.21875 1.695312 3.328125 0.804688 2.226562 0.804688 C 1.125 0.804688 0.234375 1.695312 0.234375 2.796875 C 0.234375 3.894531 1.125 4.789062 2.226562 4.789062 C 3.328125 4.789062 4.21875 3.894531 4.21875 2.796875 Z M 4.21875 2.796875 "/>
<path style=" stroke:none;fill-rule:nonzero;fill:rgb(0%,0%,0%);fill-opacity:1;" d="M 4.21875 42.882812 C 4.21875 41.785156 3.328125 40.890625 2.226562 40.890625 C 1.125 40.890625 0.234375 41.785156 0.234375 42.882812 C 0.234375 43.984375 1.125 44.875 2.226562 44.875 C 3.328125 44.875 4.21875 43.984375 4.21875 42.882812 Z M 4.21875 42.882812 "/>
<path style=" stroke:none;fill-rule:nonzero;fill:rgb(0%,0%,0%);fill-opacity:1;" d="M 44.308594 42.882812 C 44.308594 41.785156 43.414062 40.890625 42.3125 40.890625 C 41.214844 40.890625 40.320312 41.785156 40.320312 42.882812 C 40.320312 43.984375 41.214844 44.875 42.3125 44.875 C 43.414062 44.875 44.308594 43.984375 44.308594 42.882812 Z M 44.308594 42.882812 "/>
</g>
</svg>
