<?xml version="1.0" encoding="UTF-8"?>
<svg xmlns="http://www.w3.org/2000/svg" xmlns:xlink="http://www.w3.org/1999/xlink" width="62pt" height="62pt" viewBox="0 0 62 62" version="1.1">
<g id="surface1">
<path style="fill:none;stroke-width:0.3985;stroke-linecap:butt;stroke-linejoin:miter;stroke:rgb(0%,0%,0%);stroke-opacity:1;stroke-miterlimit:10;" d="M -28.346312 28.348312 L 0.00134375 56.692062 L 28.345094 28.348312 L 0.00134375 0.00065625 L -28.346312 28.348312 L 28.345094 28.348312 " transform="matrix(1,0,0,-1,31.026,59.653)"/>
<path style=" stroke:none;fill-rule:nonzero;fill:rgb(0%,0%,0%);fill-opacity:1;" d="M 4.671875 31.304688 C 4.671875 30.207031 3.78125 29.3125 2.679688 29.3125 C 1.578125 29.3125 0.6875 30.207031 0.6875 31.304688 C 0.6875 32.40625 1.578125 33.296875 2.679688 33.296875 C 3.78125 33.296875 4.671875 32.40625 4.671875 31.304688 Z M 4.671875 31.304688 "/>
<path style=" stroke:none;fill-rule:nonzero;fill:rgb(0%,0%,0%);fill-opacity:1;" d="M 33.019531 2.960938 C 33.019531 1.859375 32.125 0.96875 31.027344 0.96875 C 29.925781 0.96875 29.035156 1.859375 29.035156 2.960938 C 29.035156 4.058594 29.925781 4.953125 31.027344 4.953125 C 32.125 4.953125 33.019531 4.058594 33.019531 2.960938 Z M 33.019531 2.960938 "/>
<path style=" stroke:none;fill-rule:nonzero;fill:rgb(0%,0%,0%);fill-opacity:1;" d="M 61.367188 31.304688 C 61.367188 30.207031 60.472656 29.3125 59.371094 29.3125 C 58.273438 29.3125 57.378906 30.207031 57.378906 31.304688 C 57.378906 32.40625 58.273438 33.296875 59.371094 33.296875 C 60.472656 33.296875 61.367188 32.40625 61.367188 31.304688 Z M 61.367188 31.304688 "/>
<path style=" stroke:none;fill-rule:nonzero;fill:rgb(0%,0%,0%);fill-opacity:1;" d="M 33.019531 59.652344 C 33.019531 58.550781 32.125 57.660156 31.027344 57.660156 C 29.925781 57.660156 29.035156 58.550781 29.035156 59.652344 C 29.035156 60.753906 29.925781 61.644531 31.027344 61.644531 C 32.125 61.644531 33.019531 60.753906 33.019531 59.652344 Z M 33.019531 59.652344 "/>
<path style=" stroke:none;fill-rule:nonzero;fill:rgb(0%,0%,0%);fill-opacity:1;" d="M 33.019531 31.304688 C 33.019531 30.207031 32.125 29.3125 31.027344 29.3125 C 29.925781 29.3125 29.035156 30.207031 29.035156 31.304688 C 29.035156 32.40625 29.925781 33.296875 31.027344 33.296875 C 32.125 33.296875 33.019531 32.40625 33.019531 31.304688 Z M 33.019531 31.304688 "/>
</g>
</svg>
