<?xml version="1.0" encoding="UTF-8"?>
<svg xmlns="http://www.w3.org/2000/svg" xmlns:xlink="http://www.w3.org/1999/xlink" width="56pt" height="56pt" viewBox="0 0 56 56" version="1.1">
<g id="surface1">
<path style="fill:none;stroke-width:0.3985;stroke-linecap:butt;stroke-linejoin:miter;stroke:rgb(0%,0%,0%);stroke-opacity:1;stroke-miterlimit:10;" d="M -25.511313 -0.001375 L 25.512125 -0.001375 L 25.512125 51.022062 L -25.511313 51.022062 L -25.511313 -0.001375 L 25.512125 51.022062 M -25.511313 51.022062 L 25.512125 -0.001375 " transform="matrix(1,0,0,-1,28.191,53.983)"/>
<path style=" stroke:none;fill-rule:nonzero;fill:rgb(0%,0%,0%);fill-opacity:1;" d="M 4.671875 53.984375 C 4.671875 52.882812 3.78125 51.992188 2.679688 51.992188 C 1.578125 51.992188 0.6875 52.882812 0.6875 53.984375 C 0.6875 55.082031 1.578125 55.976562 2.679688 55.976562 C 3.78125 55.976562 4.671875 55.082031 4.671875 53.984375 Z M 4.671875 53.984375 "/>
<path style=" stroke:none;fill-rule:nonzero;fill:rgb(0%,0%,0%);fill-opacity:1;" d="M 55.695312 53.984375 C 55.695312 52.882812 54.804688 51.992188 53.703125 51.992188 C 52.601562 51.992188 51.710938 52.882812 51.710938 53.984375 C 51.710938 55.082031 52.601562 55.976562 53.703125 55.976562 C 54.804688 55.976562 55.695312 55.082031 55.695312 53.984375 Z M 55.695312 53.984375 "/>
<path style=" stroke:none;fill-rule:nonzero;fill:rgb(0%,0%,0%);fill-opacity:1;" d="M 55.695312 2.960938 C 55.695312 1.859375 54.804688 0.964844 53.703125 0.964844 C 52.601562 0.964844 51.710938 1.859375 51.710938 2.960938 C 51.710938 4.058594 52.601562 4.953125 53.703125 4.953125 C 54.804688 4.953125 55.695312 4.058594 55.695312 2.960938 Z M 55.695312 2.960938 "/>
<path style=" stroke:none;fill-rule:nonzero;fill:rgb(0%,0%,0%);fill-opacity:1;" d="M 4.671875 2.960938 C 4.671875 1.859375 3.78125 0.964844 2.679688 0.964844 C 1.578125 0.964844 0.6875 1.859375 0.6875 2.960938 C 0.6875 4.058594 1.578125 4.953125 2.679688 4.953125 C 3.78125 4.953125 4.671875 4.058594 4.671875 2.960938 Z M 4.671875 2.960938 "/>
<path style=" stroke:none;fill-rule:nonzero;fill:rgb(0%,0%,0%);fill-opacity:1;" d="M 30.183594 28.472656 C 30.183594 27.371094 29.292969 26.476562 28.191406 26.476562 C 27.089844 26.476562 26.199219 27.371094 26.199219 28.472656 C 26.199219 29.570312 27.089844 30.464844 28.191406 30.464844 C 29.292969 30.464844 30.183594 29.570312 30.183594 28.472656 Z M 30.183594 28.472656 "/>
</g>
</svg>
