<?xml version="1.0" encoding="UTF-8"?>
<svg xmlns="http://www.w3.org/2000/svg" xmlns:xlink="http://www.w3.org/1999/xlink" width="56pt" height="59pt" viewBox="0 0 56 59" version="1.1">
<g id="surface1">
<path style=" stroke:none;fill-rule:nonzero;fill:rgb(0%,0%,0%);fill-opacity:1;" d="M 27.605469 29.921875 C 27.605469 28.820312 26.710938 27.925781 25.613281 27.925781 C 24.511719 27.925781 23.621094 28.820312 23.621094 29.921875 C 23.621094 31.019531 24.511719 31.914062 25.613281 31.914062 C 26.710938 31.914062 27.605469 31.019531 27.605469 29.921875 Z M 27.605469 29.921875 "/>
<path style="fill:none;stroke-width:0.3985;stroke-linecap:butt;stroke-linejoin:miter;stroke:rgb(0%,0%,0%);stroke-opacity:1;stroke-miterlimit:10;" d="M 0.00128125 -0.001875 L 28.345031 -0.001875 L 8.759094 26.959062 " transform="matrix(1,0,0,-1,25.612,29.92)"/>
<path style=" stroke:none;fill-rule:nonzero;fill:rgb(0%,0%,0%);fill-opacity:1;" d="M 55.953125 29.921875 C 55.953125 28.820312 55.058594 27.925781 53.957031 27.925781 C 52.859375 27.925781 51.964844 28.820312 51.964844 29.921875 C 51.964844 31.019531 52.859375 31.914062 53.957031 31.914062 C 55.058594 31.914062 55.953125 31.019531 55.953125 29.921875 Z M 55.953125 29.921875 "/>
<path style="fill:none;stroke-width:0.3985;stroke-linecap:butt;stroke-linejoin:miter;stroke:rgb(0%,0%,0%);stroke-opacity:1;stroke-miterlimit:10;" d="M 0.00128125 -0.001875 L 8.759094 26.959062 L -22.932312 16.662187 " transform="matrix(1,0,0,-1,25.612,29.92)"/>
<path style=" stroke:none;fill-rule:nonzero;fill:rgb(0%,0%,0%);fill-opacity:1;" d="M 36.363281 2.960938 C 36.363281 1.859375 35.472656 0.96875 34.371094 0.96875 C 33.269531 0.96875 32.378906 1.859375 32.378906 2.960938 C 32.378906 4.0625 33.269531 4.953125 34.371094 4.953125 C 35.472656 4.953125 36.363281 4.0625 36.363281 2.960938 Z M 36.363281 2.960938 "/>
<path style="fill:none;stroke-width:0.3985;stroke-linecap:butt;stroke-linejoin:miter;stroke:rgb(0%,0%,0%);stroke-opacity:1;stroke-miterlimit:10;" d="M 0.00128125 -0.001875 L -22.932312 16.662187 L -22.932312 -16.662031 " transform="matrix(1,0,0,-1,25.612,29.92)"/>
<path style=" stroke:none;fill-rule:nonzero;fill:rgb(0%,0%,0%);fill-opacity:1;" d="M 4.671875 13.257812 C 4.671875 12.15625 3.78125 11.265625 2.679688 11.265625 C 1.578125 11.265625 0.6875 12.15625 0.6875 13.257812 C 0.6875 14.359375 1.578125 15.25 2.679688 15.25 C 3.78125 15.25 4.671875 14.359375 4.671875 13.257812 Z M 4.671875 13.257812 "/>
<path style="fill:none;stroke-width:0.3985;stroke-linecap:butt;stroke-linejoin:miter;stroke:rgb(0%,0%,0%);stroke-opacity:1;stroke-miterlimit:10;" d="M 0.00128125 -0.001875 L -22.932312 -16.662031 L 8.759094 -26.958906 " transform="matrix(1,0,0,-1,25.612,29.92)"/>
<path style=" stroke:none;fill-rule:nonzero;fill:rgb(0%,0%,0%);fill-opacity:1;" d="M 4.671875 46.582031 C 4.671875 45.480469 3.78125 44.589844 2.679688 44.589844 C 1.578125 44.589844 0.6875 45.480469 0.6875 46.582031 C 0.6875 47.683594 1.578125 48.574219 2.679688 48.574219 C 3.78125 48.574219 4.671875 47.683594 4.671875 46.582031 Z M 4.671875 46.582031 "/>
<path style="fill:none;stroke-width:0.3985;stroke-linecap:butt;stroke-linejoin:miter;stroke:rgb(0%,0%,0%);stroke-opacity:1;stroke-miterlimit:10;" d="M 0.00128125 -0.001875 L 8.759094 -26.958906 L 28.345031 -0.001875 " transform="matrix(1,0,0,-1,25.612,29.92)"/>
<path style=" stroke:none;fill-rule:nonzero;fill:rgb(0%,0%,0%);fill-opacity:1;" d="M 36.363281 56.878906 C 36.363281 55.777344 35.472656 54.886719 34.371094 54.886719 C 33.269531 54.886719 32.378906 55.777344 32.378906 56.878906 C 32.378906 57.980469 33.269531 58.871094 34.371094 58.871094 C 35.472656 58.871094 36.363281 57.980469 36.363281 56.878906 Z M 36.363281 56.878906 "/>
</g>
</svg>
