<?xml version="1.0" encoding="UTF-8"?>
<svg xmlns="http://www.w3.org/2000/svg" xmlns:xlink="http://www.w3.org/1999/xlink" width="80pt" height="76pt" viewBox="0 0 80 76" version="1.1">
<g id="surface1">
<path style="fill:none;stroke-width:0.79701;stroke-linecap:butt;stroke-linejoin:miter;stroke:rgb(0%,0%,0%);stroke-opacity:1;stroke-miterlimit:10;" d="M 37.744844 12.262812 L -0.00125 39.684687 L -37.743437 12.262812 L -23.325469 -32.104375 L 23.326875 -32.104375 Z M 37.744844 12.262812 " transform="matrix(1,0,0,-1,39.97,41.88)"/>
<path style="fill:none;stroke-width:0.79701;stroke-linecap:butt;stroke-linejoin:miter;stroke:rgb(0%,0%,0%);stroke-opacity:1;stroke-miterlimit:10;" d="M 18.869844 6.13 L -18.872344 6.13 L 11.662813 -16.053594 L -0.00125 19.840937 L -11.661406 -16.053594 Z M 18.869844 6.13 " transform="matrix(1,0,0,-1,39.97,41.88)"/>
<path style="fill:none;stroke-width:0.79701;stroke-linecap:butt;stroke-linejoin:miter;stroke:rgb(0%,0%,0%);stroke-opacity:1;stroke-miterlimit:10;" d="M 18.869844 6.13 L 37.744844 12.262812 " transform="matrix(1,0,0,-1,39.97,41.88)"/>
<path style=" stroke:none;fill-rule:nonzero;fill:rgb(0%,0%,0%);fill-opacity:1;" d="M 60.835938 35.75 C 60.835938 34.648438 59.941406 33.753906 58.839844 33.753906 C 57.742188 33.753906 56.847656 34.648438 56.847656 35.75 C 56.847656 36.847656 57.742188 37.742188 58.839844 37.742188 C 59.941406 37.742188 60.835938 36.847656 60.835938 35.75 Z M 60.835938 35.75 "/>
<path style=" stroke:none;fill-rule:nonzero;fill:rgb(0%,0%,0%);fill-opacity:1;" d="M 79.707031 29.617188 C 79.707031 28.515625 78.8125 27.625 77.714844 27.625 C 76.613281 27.625 75.722656 28.515625 75.722656 29.617188 C 75.722656 30.71875 76.613281 31.609375 77.714844 31.609375 C 78.8125 31.609375 79.707031 30.71875 79.707031 29.617188 Z M 79.707031 29.617188 "/>
<path style="fill:none;stroke-width:0.79701;stroke-linecap:butt;stroke-linejoin:miter;stroke:rgb(0%,0%,0%);stroke-opacity:1;stroke-miterlimit:10;" d="M -0.00125 19.840937 L -0.00125 39.684687 " transform="matrix(1,0,0,-1,39.97,41.88)"/>
<path style=" stroke:none;fill-rule:nonzero;fill:rgb(0%,0%,0%);fill-opacity:1;" d="M 41.960938 22.039062 C 41.960938 20.9375 41.070312 20.042969 39.96875 20.042969 C 38.871094 20.042969 37.976562 20.9375 37.976562 22.039062 C 37.976562 23.136719 38.871094 24.03125 39.96875 24.03125 C 41.070312 24.03125 41.960938 23.136719 41.960938 22.039062 Z M 41.960938 22.039062 "/>
<path style=" stroke:none;fill-rule:nonzero;fill:rgb(0%,0%,0%);fill-opacity:1;" d="M 41.960938 2.195312 C 41.960938 1.09375 41.070312 0.203125 39.96875 0.203125 C 38.871094 0.203125 37.976562 1.09375 37.976562 2.195312 C 37.976562 3.296875 38.871094 4.1875 39.96875 4.1875 C 41.070312 4.1875 41.960938 3.296875 41.960938 2.195312 Z M 41.960938 2.195312 "/>
<path style="fill:none;stroke-width:0.79701;stroke-linecap:butt;stroke-linejoin:miter;stroke:rgb(0%,0%,0%);stroke-opacity:1;stroke-miterlimit:10;" d="M -18.872344 6.13 L -37.743437 12.262812 " transform="matrix(1,0,0,-1,39.97,41.88)"/>
<path style=" stroke:none;fill-rule:nonzero;fill:rgb(0%,0%,0%);fill-opacity:1;" d="M 23.089844 35.75 C 23.089844 34.648438 22.199219 33.753906 21.097656 33.753906 C 19.996094 33.753906 19.105469 34.648438 19.105469 35.75 C 19.105469 36.847656 19.996094 37.742188 21.097656 37.742188 C 22.199219 37.742188 23.089844 36.847656 23.089844 35.75 Z M 23.089844 35.75 "/>
<path style=" stroke:none;fill-rule:nonzero;fill:rgb(0%,0%,0%);fill-opacity:1;" d="M 4.21875 29.617188 C 4.21875 28.515625 3.328125 27.625 2.226562 27.625 C 1.125 27.625 0.234375 28.515625 0.234375 29.617188 C 0.234375 30.71875 1.125 31.609375 2.226562 31.609375 C 3.328125 31.609375 4.21875 30.71875 4.21875 29.617188 Z M 4.21875 29.617188 "/>
<path style="fill:none;stroke-width:0.79701;stroke-linecap:butt;stroke-linejoin:miter;stroke:rgb(0%,0%,0%);stroke-opacity:1;stroke-miterlimit:10;" d="M -11.661406 -16.053594 L -23.325469 -32.104375 " transform="matrix(1,0,0,-1,39.97,41.88)"/>
<path style=" stroke:none;fill-rule:nonzero;fill:rgb(0%,0%,0%);fill-opacity:1;" d="M 30.300781 57.933594 C 30.300781 56.832031 29.40625 55.941406 28.308594 55.941406 C 27.207031 55.941406 26.3125 56.832031 26.3125 57.933594 C 26.3125 59.035156 27.207031 59.925781 28.308594 59.925781 C 29.40625 59.925781 30.300781 59.035156 30.300781 57.933594 Z M 30.300781 57.933594 "/>
<path style=" stroke:none;fill-rule:nonzero;fill:rgb(0%,0%,0%);fill-opacity:1;" d="M 18.636719 73.984375 C 18.636719 72.886719 17.742188 71.992188 16.644531 71.992188 C 15.542969 71.992188 14.652344 72.886719 14.652344 73.984375 C 14.652344 75.085938 15.542969 75.980469 16.644531 75.980469 C 17.742188 75.980469 18.636719 75.085938 18.636719 73.984375 Z M 18.636719 73.984375 "/>
<path style="fill:none;stroke-width:0.79701;stroke-linecap:butt;stroke-linejoin:miter;stroke:rgb(0%,0%,0%);stroke-opacity:1;stroke-miterlimit:10;" d="M 11.662813 -16.053594 L 23.326875 -32.104375 " transform="matrix(1,0,0,-1,39.97,41.88)"/>
<path style=" stroke:none;fill-rule:nonzero;fill:rgb(0%,0%,0%);fill-opacity:1;" d="M 53.625 57.933594 C 53.625 56.832031 52.734375 55.941406 51.632812 55.941406 C 50.53125 55.941406 49.640625 56.832031 49.640625 57.933594 C 49.640625 59.035156 50.53125 59.925781 51.632812 59.925781 C 52.734375 59.925781 53.625 59.035156 53.625 57.933594 Z M 53.625 57.933594 "/>
<path style=" stroke:none;fill-rule:nonzero;fill:rgb(0%,0%,0%);fill-opacity:1;" d="M 65.289062 73.984375 C 65.289062 72.886719 64.398438 71.992188 63.296875 71.992188 C 62.195312 71.992188 61.304688 72.886719 61.304688 73.984375 C 61.304688 75.085938 62.195312 75.980469 63.296875 75.980469 C 64.398438 75.980469 65.289062 75.085938 65.289062 73.984375 Z M 65.289062 73.984375 "/>
</g>
</svg>
