<?xml version="1.0" encoding="UTF-8"?>
<svg xmlns="http://www.w3.org/2000/svg" xmlns:xlink="http://www.w3.org/1999/xlink" width="62pt" height="51pt" viewBox="0 0 62 51" version="1.1">
<g id="surface1">
<path style="fill:none;stroke-width:0.3985;stroke-linecap:butt;stroke-linejoin:miter;stroke:rgb(0%,0%,0%);stroke-opacity:1;stroke-miterlimit:10;" d="M -28.346312 0.00059375 L 28.345094 0.00059375 L 14.173219 22.676375 L 0.00134375 0.00059375 L -14.174437 22.676375 L 0.00134375 45.356062 L 14.173219 22.676375 L -14.174437 22.676375 L -28.346312 0.00059375 " transform="matrix(1,0,0,-1,31.026,48.317)"/>
<path style=" stroke:none;fill-rule:nonzero;fill:rgb(0%,0%,0%);fill-opacity:1;" d="M 4.671875 48.316406 C 4.671875 47.214844 3.78125 46.324219 2.679688 46.324219 C 1.578125 46.324219 0.6875 47.214844 0.6875 48.316406 C 0.6875 49.417969 1.578125 50.308594 2.679688 50.308594 C 3.78125 50.308594 4.671875 49.417969 4.671875 48.316406 Z M 4.671875 48.316406 "/>
<path style=" stroke:none;fill-rule:nonzero;fill:rgb(0%,0%,0%);fill-opacity:1;" d="M 33.019531 48.316406 C 33.019531 47.214844 32.125 46.324219 31.027344 46.324219 C 29.925781 46.324219 29.035156 47.214844 29.035156 48.316406 C 29.035156 49.417969 29.925781 50.308594 31.027344 50.308594 C 32.125 50.308594 33.019531 49.417969 33.019531 48.316406 Z M 33.019531 48.316406 "/>
<path style=" stroke:none;fill-rule:nonzero;fill:rgb(0%,0%,0%);fill-opacity:1;" d="M 61.367188 48.316406 C 61.367188 47.214844 60.472656 46.324219 59.371094 46.324219 C 58.273438 46.324219 57.378906 47.214844 57.378906 48.316406 C 57.378906 49.417969 58.273438 50.308594 59.371094 50.308594 C 60.472656 50.308594 61.367188 49.417969 61.367188 48.316406 Z M 61.367188 48.316406 "/>
<path style=" stroke:none;fill-rule:nonzero;fill:rgb(0%,0%,0%);fill-opacity:1;" d="M 47.191406 25.640625 C 47.191406 24.539062 46.300781 23.648438 45.199219 23.648438 C 44.097656 23.648438 43.207031 24.539062 43.207031 25.640625 C 43.207031 26.738281 44.097656 27.632812 45.199219 27.632812 C 46.300781 27.632812 47.191406 26.738281 47.191406 25.640625 Z M 47.191406 25.640625 "/>
<path style=" stroke:none;fill-rule:nonzero;fill:rgb(0%,0%,0%);fill-opacity:1;" d="M 18.84375 25.640625 C 18.84375 24.539062 17.953125 23.648438 16.851562 23.648438 C 15.753906 23.648438 14.859375 24.539062 14.859375 25.640625 C 14.859375 26.738281 15.753906 27.632812 16.851562 27.632812 C 17.953125 27.632812 18.84375 26.738281 18.84375 25.640625 Z M 18.84375 25.640625 "/>
<path style=" stroke:none;fill-rule:nonzero;fill:rgb(0%,0%,0%);fill-opacity:1;" d="M 33.019531 2.960938 C 33.019531 1.863281 32.125 0.96875 31.027344 0.96875 C 29.925781 0.96875 29.035156 1.863281 29.035156 2.960938 C 29.035156 4.0625 29.925781 4.953125 31.027344 4.953125 C 32.125 4.953125 33.019531 4.0625 33.019531 2.960938 Z M 33.019531 2.960938 "/>
</g>
</svg>
