<?xml version="1.0" encoding="UTF-8"?>
<svg xmlns="http://www.w3.org/2000/svg" xmlns:xlink="http://www.w3.org/1999/xlink" width="62pt" height="39pt" viewBox="0 0 62 39" version="1.1">
<g id="surface1">
<path style="fill:none;stroke-width:0.3985;stroke-linecap:butt;stroke-linejoin:miter;stroke:rgb(0%,0%,0%);stroke-opacity:1;stroke-miterlimit:10;" d="M -28.346312 34.01425 L -28.346312 -0.001375 L 0.00134375 34.01425 L 0.00134375 -0.001375 L 28.345094 34.01425 L 28.345094 -0.001375 L 0.00134375 34.01425 L -28.346312 -0.001375 L 28.345094 34.01425 M 28.345094 -0.001375 L -28.346312 34.01425 L 0.00134375 -0.001375 " transform="matrix(1,0,0,-1,31.026,36.983)"/>
<path style=" stroke:none;fill-rule:nonzero;fill:rgb(0%,0%,0%);fill-opacity:1;" d="M 4.671875 2.96875 C 4.671875 1.867188 3.78125 0.972656 2.679688 0.972656 C 1.578125 0.972656 0.6875 1.867188 0.6875 2.96875 C 0.6875 4.066406 1.578125 4.960938 2.679688 4.960938 C 3.78125 4.960938 4.671875 4.066406 4.671875 2.96875 Z M 4.671875 2.96875 "/>
<path style=" stroke:none;fill-rule:nonzero;fill:rgb(0%,0%,0%);fill-opacity:1;" d="M 4.671875 36.984375 C 4.671875 35.882812 3.78125 34.992188 2.679688 34.992188 C 1.578125 34.992188 0.6875 35.882812 0.6875 36.984375 C 0.6875 38.082031 1.578125 38.976562 2.679688 38.976562 C 3.78125 38.976562 4.671875 38.082031 4.671875 36.984375 Z M 4.671875 36.984375 "/>
<path style=" stroke:none;fill-rule:nonzero;fill:rgb(0%,0%,0%);fill-opacity:1;" d="M 33.019531 2.96875 C 33.019531 1.867188 32.125 0.972656 31.027344 0.972656 C 29.925781 0.972656 29.035156 1.867188 29.035156 2.96875 C 29.035156 4.066406 29.925781 4.960938 31.027344 4.960938 C 32.125 4.960938 33.019531 4.066406 33.019531 2.96875 Z M 33.019531 2.96875 "/>
<path style=" stroke:none;fill-rule:nonzero;fill:rgb(0%,0%,0%);fill-opacity:1;" d="M 33.019531 36.984375 C 33.019531 35.882812 32.125 34.992188 31.027344 34.992188 C 29.925781 34.992188 29.035156 35.882812 29.035156 36.984375 C 29.035156 38.082031 29.925781 38.976562 31.027344 38.976562 C 32.125 38.976562 33.019531 38.082031 33.019531 36.984375 Z M 33.019531 36.984375 "/>
<path style=" stroke:none;fill-rule:nonzero;fill:rgb(0%,0%,0%);fill-opacity:1;" d="M 61.367188 2.96875 C 61.367188 1.867188 60.472656 0.972656 59.371094 0.972656 C 58.273438 0.972656 57.378906 1.867188 57.378906 2.96875 C 57.378906 4.066406 58.273438 4.960938 59.371094 4.960938 C 60.472656 4.960938 61.367188 4.066406 61.367188 2.96875 Z M 61.367188 2.96875 "/>
<path style=" stroke:none;fill-rule:nonzero;fill:rgb(0%,0%,0%);fill-opacity:1;" d="M 61.367188 36.984375 C 61.367188 35.882812 60.472656 34.992188 59.371094 34.992188 C 58.273438 34.992188 57.378906 35.882812 57.378906 36.984375 C 57.378906 38.082031 58.273438 38.976562 59.371094 38.976562 C 60.472656 38.976562 61.367188 38.082031 61.367188 36.984375 Z M 61.367188 36.984375 "/>
</g>
</svg>
