<?xml version="1.0" encoding="UTF-8"?>
<svg xmlns="http://www.w3.org/2000/svg" xmlns:xlink="http://www.w3.org/1999/xlink" width="83pt" height="71pt" viewBox="0 0 83 71" version="1.1">
<g id="surface1">
<path style="fill:none;stroke-width:1.79329;stroke-linecap:butt;stroke-linejoin:miter;stroke:rgb(0%,0%,0%);stroke-opacity:1;stroke-miterlimit:10;" d="M -0.00071875 -22.677438 L -39.278063 -22.677438 L -19.637438 11.338187 L -0.00071875 -22.677438 L 39.280531 -22.677438 L 19.639906 11.338187 L -19.637438 11.338187 L -0.00071875 45.353812 L 19.639906 11.338187 L -0.00071875 -22.677438 " transform="matrix(1,0,0,-1,41.364,47.346)"/>
<path style=" stroke:none;fill-rule:nonzero;fill:rgb(100%,100%,100%);fill-opacity:1;" d="M 43.753906 70.023438 C 43.753906 68.703125 42.683594 67.632812 41.363281 67.632812 C 40.042969 67.632812 38.972656 68.703125 38.972656 70.023438 C 38.972656 71.34375 40.042969 72.414062 41.363281 72.414062 C 42.683594 72.414062 43.753906 71.34375 43.753906 70.023438 Z M 43.753906 70.023438 "/>
<path style=" stroke:none;fill-rule:nonzero;fill:rgb(100%,100%,100%);fill-opacity:1;" d="M 83.035156 70.023438 C 83.035156 68.703125 81.964844 67.632812 80.644531 67.632812 C 79.320312 67.632812 78.25 68.703125 78.25 70.023438 C 78.25 71.34375 79.320312 72.414062 80.644531 72.414062 C 81.964844 72.414062 83.035156 71.34375 83.035156 70.023438 Z M 83.035156 70.023438 "/>
<path style=" stroke:none;fill-rule:nonzero;fill:rgb(100%,100%,100%);fill-opacity:1;" d="M 4.476562 70.023438 C 4.476562 68.703125 3.40625 67.632812 2.085938 67.632812 C 0.765625 67.632812 -0.304688 68.703125 -0.304688 70.023438 C -0.304688 71.34375 0.765625 72.414062 2.085938 72.414062 C 3.40625 72.414062 4.476562 71.34375 4.476562 70.023438 Z M 4.476562 70.023438 "/>
<path style=" stroke:none;fill-rule:nonzero;fill:rgb(100%,100%,100%);fill-opacity:1;" d="M 43.753906 1.992188 C 43.753906 0.671875 42.683594 -0.398438 41.363281 -0.398438 C 40.042969 -0.398438 38.972656 0.671875 38.972656 1.992188 C 38.972656 3.3125 40.042969 4.382812 41.363281 4.382812 C 42.683594 4.382812 43.753906 3.3125 43.753906 1.992188 Z M 43.753906 1.992188 "/>
<path style=" stroke:none;fill-rule:nonzero;fill:rgb(100%,100%,100%);fill-opacity:1;" d="M 63.394531 36.007812 C 63.394531 34.6875 62.324219 33.617188 61.003906 33.617188 C 59.683594 33.617188 58.613281 34.6875 58.613281 36.007812 C 58.613281 37.328125 59.683594 38.398438 61.003906 38.398438 C 62.324219 38.398438 63.394531 37.328125 63.394531 36.007812 Z M 63.394531 36.007812 "/>
<path style=" stroke:none;fill-rule:nonzero;fill:rgb(100%,100%,100%);fill-opacity:1;" d="M 24.117188 36.007812 C 24.117188 34.6875 23.046875 33.617188 21.726562 33.617188 C 20.402344 33.617188 19.332031 34.6875 19.332031 36.007812 C 19.332031 37.328125 20.402344 38.398438 21.726562 38.398438 C 23.046875 38.398438 24.117188 37.328125 24.117188 36.007812 Z M 24.117188 36.007812 "/>
</g>
</svg>
