<?xml version="1.0" encoding="UTF-8"?>
<svg xmlns="http://www.w3.org/2000/svg" xmlns:xlink="http://www.w3.org/1999/xlink" width="61pt" height="34pt" viewBox="0 0 61 34" version="1.1">
<g id="surface1">
<path style="fill:none;stroke-width:0.3985;stroke-linecap:butt;stroke-linejoin:miter;stroke:rgb(0%,0%,0%);stroke-opacity:1;stroke-miterlimit:10;" d="M 0.0003125 -0.000625 L -28.347344 28.347031 M 0.0003125 -0.000625 L 14.172188 14.175156 L 28.347969 28.347031 " transform="matrix(1,0,0,-1,30.57,31.14)"/>
<path style=" stroke:none;fill-rule:nonzero;fill:rgb(0%,0%,0%);fill-opacity:1;" d="M 32.5625 31.140625 C 32.5625 30.039062 31.671875 29.148438 30.570312 29.148438 C 29.46875 29.148438 28.578125 30.039062 28.578125 31.140625 C 28.578125 32.242188 29.46875 33.132812 30.570312 33.132812 C 31.671875 33.132812 32.5625 32.242188 32.5625 31.140625 Z M 32.5625 31.140625 "/>
<path style=" stroke:none;fill-rule:nonzero;fill:rgb(0%,0%,0%);fill-opacity:1;" d="M 4.214844 2.792969 C 4.214844 1.691406 3.324219 0.800781 2.222656 0.800781 C 1.121094 0.800781 0.230469 1.691406 0.230469 2.792969 C 0.230469 3.894531 1.121094 4.785156 2.222656 4.785156 C 3.324219 4.785156 4.214844 3.894531 4.214844 2.792969 Z M 4.214844 2.792969 "/>
<path style=" stroke:none;fill-rule:nonzero;fill:rgb(0%,0%,0%);fill-opacity:1;" d="M 46.734375 16.964844 C 46.734375 15.867188 45.84375 14.972656 44.742188 14.972656 C 43.644531 14.972656 42.75 15.867188 42.75 16.964844 C 42.75 18.066406 43.644531 18.960938 44.742188 18.960938 C 45.84375 18.960938 46.734375 18.066406 46.734375 16.964844 Z M 46.734375 16.964844 "/>
<path style=" stroke:none;fill-rule:nonzero;fill:rgb(0%,0%,0%);fill-opacity:1;" d="M 60.910156 2.792969 C 60.910156 1.691406 60.015625 0.800781 58.917969 0.800781 C 57.816406 0.800781 56.925781 1.691406 56.925781 2.792969 C 56.925781 3.894531 57.816406 4.785156 58.917969 4.785156 C 60.015625 4.785156 60.910156 3.894531 60.910156 2.792969 Z M 60.910156 2.792969 "/>
</g>
</svg>
