<?xml version="1.0" encoding="UTF-8"?>
<svg xmlns="http://www.w3.org/2000/svg" xmlns:xlink="http://www.w3.org/1999/xlink" width="185pt" height="117pt" viewBox="0 0 185 117" version="1.1">
<g id="surface1">
<path style="fill-rule:nonzero;fill:rgb(89.99939%,89.99939%,89.99939%);fill-opacity:1;stroke-width:0.69739;stroke-linecap:butt;stroke-linejoin:miter;stroke:rgb(100%,100%,100%);stroke-opacity:1;stroke-miterlimit:10;" d="M 46.445781 -103.47625 L 46.8325 -102.765312 L 47.281719 -102.702812 L 47.344219 -102.862969 L 46.92625 -103.47625 Z M 48.473125 -102.734062 L 49.695781 -103.249687 L 50.117656 -103.187187 L 50.437969 -102.41375 L 50.309063 -101.737969 L 49.473125 -101.640312 L 48.668438 -101.995781 Z M 54.594219 -104.730156 L 55.336406 -105.827812 L 55.816875 -105.761406 L 56.043438 -105.667656 L 56.3325 -105.925469 L 57.074688 -105.890312 L 57.266094 -105.60125 L 56.687969 -105.245781 L 56.30125 -104.5075 L 55.883281 -103.796562 L 54.723125 -104.378594 Z M 58.621563 -106.503594 L 58.879375 -106.116875 L 59.812969 -106.312187 L 59.941875 -106.214531 L 61.164531 -106.343437 L 61.102031 -106.60125 L 60.586406 -106.890312 L 59.715313 -106.823906 Z M 59.684063 -107.534844 L 60.070781 -108.308281 L 60.680156 -108.081719 L 60.746563 -107.761406 L 60.422344 -107.339531 L 59.684063 -107.277031 Z M 61.066875 -107.308281 L 61.52 -106.730156 L 62.453594 -107.210625 L 63.324688 -107.437187 L 64.191875 -107.984062 L 64.191875 -108.370781 L 63.484844 -108.72625 L 62.516094 -108.917656 L 62.035625 -108.628594 Z M 64.387188 -110.402031 L 64.7075 -110.144219 L 65.383281 -110.464531 L 66.898906 -111.175469 L 67.574688 -111.593437 L 67.898906 -112.077812 L 68.285625 -112.945 L 69.090313 -113.460625 L 69.023906 -113.718437 L 68.250469 -114.362969 L 67.414531 -114.652031 L 67.125469 -114.523125 L 66.512188 -114.878594 L 66.027813 -115.523125 L 65.578594 -116.10125 L 65.223125 -116.07 L 64.516094 -115.554375 L 64.449688 -114.652031 L 64.578594 -114.171562 L 64.258281 -113.042656 L 63.840313 -112.687187 L 63.805156 -112.171562 L 64.258281 -111.980156 L 64.67625 -111.366875 L 64.773906 -111.175469 L 64.449688 -110.82 Z M 64.387188 -110.402031 " transform="matrix(1,0,0,-1,-0.52,-0.57)"/>
<path style="fill-rule:nonzero;fill:rgb(89.99939%,89.99939%,89.99939%);fill-opacity:1;stroke-width:0.69739;stroke-linecap:butt;stroke-linejoin:miter;stroke:rgb(100%,100%,100%);stroke-opacity:1;stroke-miterlimit:10;" d="M 31.496563 -90.398125 L 31.434063 -107.405937 L 31.754375 -107.597344 L 32.367656 -107.6325 L 32.656719 -107.405937 L 33.172344 -107.405937 L 33.203594 -107.984062 L 34.590313 -109.339531 L 34.687969 -109.855156 L 35.36375 -109.468437 L 35.492656 -109.433281 L 35.555156 -108.823906 L 35.848125 -108.499687 L 36.070781 -108.468437 L 36.4575 -108.179375 L 37.070781 -108.597344 L 37.199688 -109.175469 L 37.586406 -109.402031 L 37.812969 -109.886406 L 38.5825 -110.241875 L 39.262188 -111.433281 L 39.809063 -112.206719 L 40.258281 -112.753594 L 40.55125 -113.491875 L 41.547344 -113.847344 L 42.578594 -114.265312 L 42.77 -115.136406 L 42.867656 -115.749687 L 42.67625 -116.425469 L 42.320781 -116.874687 L 42.000469 -116.714531 L 41.7075 -116.10125 L 41.160625 -115.812187 L 40.805156 -115.585625 L 40.645 -115.749687 L 40.934063 -116.296562 L 40.969219 -117.03875 L 40.742656 -117.1325 L 40.355938 -116.745781 L 39.937969 -116.487969 L 40.035625 -116.812187 L 40.293438 -117.16375 L 40.129375 -117.327812 C 40.129375 -117.327812 39.969219 -117.261406 39.871563 -117.1325 C 39.777813 -117.003594 39.453594 -116.456719 39.453594 -116.456719 L 39.262188 -116.0075 C 39.262188 -116.0075 39.195781 -116.265312 39.066875 -116.198906 C 38.937969 -116.136406 38.809063 -115.909844 38.809063 -115.909844 L 39.164531 -115.523125 L 38.875469 -115.234062 L 38.875469 -114.234062 L 38.711406 -114.234062 L 38.55125 -114.909844 L 38.328594 -115.0075 L 38.133281 -114.265312 L 38.004375 -113.527031 L 37.844219 -113.429375 L 37.906719 -114.558281 L 37.906719 -114.780937 L 37.617656 -114.523125 L 36.910625 -113.331719 L 36.48875 -113.234062 L 36.359844 -112.495781 L 36.039531 -111.91375 L 35.719219 -111.691094 L 35.719219 -111.237969 L 36.137188 -110.980156 L 36.039531 -110.917656 L 35.523906 -111.046562 L 34.848125 -110.562187 L 34.3325 -109.984062 L 33.367656 -109.468437 L 32.559063 -108.952812 L 32.816875 -108.308281 L 32.816875 -107.984062 L 32.465313 -108.308281 L 31.883281 -108.530937 L 31.145 -108.308281 L 30.016094 -107.823906 L 28.922344 -107.823906 L 28.793438 -107.921562 L 27.504375 -107.148125 L 27.086406 -107.081719 L 26.535625 -105.925469 L 25.828594 -105.987969 L 25.121563 -106.277031 L 25.215313 -107.179375 L 25.441875 -106.60125 L 25.633281 -106.66375 L 25.344219 -107.534844 L 25.98875 -106.987969 L 26.117656 -107.308281 L 25.344219 -108.179375 L 25.086406 -108.112969 L 24.992656 -107.72625 L 24.734844 -107.566094 L 24.477031 -107.792656 L 23.92625 -107.437187 L 23.316875 -107.855156 L 22.961406 -108.277031 L 22.285625 -108.695 L 21.352031 -108.659844 L 21.254375 -108.241875 L 21.996563 -108.112969 L 21.996563 -107.855156 L 21.543438 -107.72625 L 21.73875 -107.245781 L 22.187969 -106.472344 L 22.187969 -106.116875 L 22.219219 -105.956719 L 23.090313 -105.503594 L 23.285625 -105.761406 L 23.8325 -105.761406 L 23.574688 -105.245781 L 22.8325 -105.183281 L 21.8325 -105.730156 L 21.352031 -106.405937 L 20.996563 -106.921562 L 20.77 -107.374687 L 19.934063 -107.66375 L 19.320781 -108.179375 L 19.258281 -108.499687 L 19.7075 -108.695 L 19.867656 -109.112969 L 19.320781 -109.7575 L 18.031719 -110.593437 L 16.48875 -111.433281 L 16.066875 -111.655937 L 15.004375 -111.8825 L 13.941875 -112.335625 L 14.297344 -112.593437 L 14.008281 -112.8825 L 13.910625 -113.105156 L 13.36375 -112.91375 L 12.719219 -112.945 L 12.555156 -113.398125 L 12.36375 -113.398125 L 12.430156 -112.91375 L 11.719219 -113.171562 L 11.141094 -113.362969 L 10.461406 -113.105156 L 9.883281 -113.491875 L 9.23875 -113.491875 L 8.820781 -113.749687 L 8.496563 -113.91375 L 8.078594 -113.847344 L 7.562969 -113.620781 L 7.11375 -113.749687 L 6.918438 -113.945 L 6.598125 -113.718437 L 6.598125 -113.331719 L 7.211406 -113.073906 L 8.465313 -113.202812 L 9.336406 -112.8825 L 9.754375 -112.464531 L 10.336406 -112.335625 L 10.687969 -112.171562 L 11.234844 -112.206719 L 11.559063 -112.464531 L 11.750469 -112.398125 L 12.203594 -111.85125 L 12.812969 -111.655937 L 13.492656 -111.527031 L 13.750469 -111.464531 L 13.879375 -111.562187 L 14.039531 -111.562187 L 14.297344 -110.82 L 15.102031 -110.530937 L 15.48875 -109.78875 L 15.937969 -108.886406 L 16.262188 -108.597344 L 16.324688 -108.081719 L 16.004375 -108.339531 L 15.328594 -108.468437 L 15.199688 -107.984062 L 14.941875 -107.921562 L 14.746563 -108.112969 L 14.715313 -108.695 L 14.42625 -108.659844 L 14.137188 -107.503594 L 13.879375 -107.761406 L 13.652813 -107.66375 L 13.586406 -107.277031 L 12.781719 -107.308281 L 12.36375 -107.534844 L 11.848125 -107.468437 L 12.137188 -107.179375 L 12.234844 -106.66375 L 12.105938 -106.277031 L 12.395 -106.085625 L 12.652813 -106.054375 L 12.523906 -105.698906 L 12.523906 -104.827812 L 12.3325 -104.636406 L 12.172344 -104.925469 L 10.945781 -104.925469 L 10.656719 -104.667656 L 10.527813 -103.894219 L 10.109844 -103.187187 L 10.109844 -102.991875 L 10.527813 -102.831719 L 10.559063 -102.41375 L 10.785625 -102.187187 L 10.625469 -102.089531 L 10.367656 -102.187187 L 10.141094 -101.640312 L 10.336406 -100.640312 L 11.234844 -99.995781 L 11.750469 -99.675469 L 12.137188 -98.933281 L 12.684063 -98.675469 L 13.199688 -98.902031 L 13.266094 -99.386406 L 13.750469 -99.32 L 14.395 -98.835625 L 14.715313 -98.964531 L 14.906719 -99.093437 L 15.230938 -99.093437 L 15.680156 -98.835625 L 15.844219 -97.968437 C 15.844219 -97.968437 15.906719 -97.386406 16.035625 -97.292656 C 16.164531 -97.195 16.230938 -97.097344 16.230938 -97.097344 L 16.004375 -96.710625 L 15.48875 -96.870781 L 14.844219 -97.034844 L 14.4575 -96.937187 L 13.750469 -96.581719 L 12.750469 -96.550469 L 12.043438 -95.808281 L 12.137188 -95.034844 L 12.266094 -94.554375 L 11.848125 -94.198906 L 11.461406 -93.456719 L 11.559063 -93.296562 L 12.910625 -93.198906 L 13.328594 -93.198906 L 13.523906 -93.394219 L 13.652813 -93.394219 L 13.621563 -93.07 L 14.395 -92.941094 L 14.906719 -93.0075 L 15.199688 -93.234062 L 14.906719 -93.652031 L 14.812969 -93.941094 L 15.359844 -94.261406 L 16.359844 -94.616875 L 16.711406 -94.425469 L 16.262188 -93.554375 L 16.066875 -92.909844 L 16.262188 -92.749687 L 15.586406 -92.362969 L 15.48875 -92.136406 L 15.586406 -91.816094 L 15.422344 -91.042656 L 14.844219 -90.109062 L 14.359844 -89.269219 L 14.941875 -88.8825 L 15.586406 -88.8825 L 15.937969 -89.011406 L 16.777813 -88.980156 L 17.516094 -88.273125 L 17.742656 -87.659844 L 18.484844 -87.175469 L 18.805156 -87.370781 L 19.352031 -87.241875 L 20.094219 -86.823906 L 20.320781 -86.78875 L 20.512188 -86.948906 L 21.414531 -86.917656 L 21.961406 -86.308281 L 22.187969 -86.308281 L 22.898906 -86.78875 L 23.285625 -87.206719 L 23.187969 -87.433281 L 23.316875 -87.659844 L 23.637188 -87.335625 L 24.410625 -87.402031 L 24.477031 -88.144219 L 24.86375 -88.433281 L 26.277813 -88.562187 L 27.535625 -89.398125 L 27.824688 -89.206719 L 28.855938 -89.722344 L 29.273906 -89.593437 L 29.660625 -89.429375 L 30.629375 -89.816094 Z M 8.562969 -96.16375 L 8.980938 -97.22625 L 8.949688 -97.421562 L 8.367656 -97.355156 L 8.016094 -96.550469 L 7.660625 -96.261406 L 7.17625 -96.261406 L 7.145 -95.745781 L 7.500469 -95.261406 L 7.727031 -95.745781 L 8.016094 -96.034844 Z M 8.047344 -102.831719 L 8.789531 -102.991875 L 9.527813 -103.187187 L 9.691875 -103.378594 L 9.367656 -104.120781 L 8.754375 -104.089531 L 8.078594 -103.378594 Z M 3.922344 -100.027031 L 4.148906 -100.542656 L 4.375469 -100.866875 L 4.148906 -101.027031 L 3.730938 -100.41375 L 3.730938 -100.027031 Z M 1.187969 -114.589531 L 1.86375 -114.136406 L 2.539531 -113.945 L 3.055156 -114.0075 L 3.152813 -114.331719 L 3.539531 -114.429375 L 3.922344 -114.042656 L 3.859844 -113.718437 L 4.406719 -113.589531 L 4.98875 -114.105156 L 4.762188 -114.460625 L 3.891094 -114.687187 L 3.344219 -114.589531 L 2.602031 -114.362969 L 1.734844 -114.652031 L 1.410625 -114.718437 Z M 10.945781 -113.687187 L 11.27 -114.073906 L 11.687969 -113.749687 L 11.398906 -113.491875 Z M 11.527813 -114.300469 L 11.750469 -113.847344 L 12.172344 -113.91375 L 12.008281 -114.300469 Z M 16.230938 -113.91375 L 16.52 -114.265312 L 16.711406 -114.042656 L 16.55125 -113.655937 Z M 17.969219 -111.433281 L 18.195781 -112.593437 L 18.773906 -112.753594 L 19.773906 -112.171562 L 20.641094 -111.655937 L 20.320781 -111.175469 L 20.418438 -110.691094 L 19.996563 -110.948906 L 19.418438 -110.78875 L 19.73875 -110.562187 L 20.125469 -110.722344 L 20.898906 -110.370781 L 20.996563 -110.077812 L 20.512188 -109.917656 L 20.67625 -109.530937 L 20.125469 -109.917656 L 19.191875 -110.628594 L 18.227031 -111.206719 Z M 26.406719 -107.468437 L 26.891094 -107.179375 L 26.699688 -106.823906 L 26.344219 -107.019219 Z M 26.406719 -107.468437 " transform="matrix(1,0,0,-1,-0.52,-0.57)"/>
<path style="fill-rule:nonzero;fill:rgb(89.99939%,89.99939%,89.99939%);fill-opacity:1;stroke-width:0.69739;stroke-linecap:butt;stroke-linejoin:miter;stroke:rgb(100%,100%,100%);stroke-opacity:1;stroke-miterlimit:10;" d="M 151.398906 -87.503594 L 151.848125 -88.960625 L 152.594219 -90.902031 L 153.656719 -92.769219 L 154.395 -94.027031 L 155.36375 -95.120781 L 156.168438 -95.862969 L 156.48875 -96.441094 L 156.266094 -96.698906 L 156.102031 -96.956719 L 156.684063 -98.437187 L 157.262188 -99.019219 L 157.777813 -100.081719 L 158.48875 -101.241875 L 159.391094 -102.8825 L 159.648906 -104.398125 L 159.742656 -106.780937 L 159.871563 -107.136406 L 159.809063 -107.812187 L 159.324688 -108.07 L 159.391094 -108.456719 L 159.262188 -108.843437 L 159.324688 -109.327812 L 159.422344 -109.714531 L 158.875469 -110.359062 L 158.262188 -110.648125 L 157.48875 -110.679375 L 157.199688 -110.999687 L 156.715313 -111.195 L 156.4575 -111.097344 L 156.230938 -110.905937 L 156.168438 -110.323906 L 156.008281 -109.648125 L 155.3325 -108.616875 L 154.621563 -108.167656 L 153.848125 -108.10125 L 153.687969 -108.359062 L 153.074688 -107.491875 L 152.945781 -106.780937 L 152.430156 -105.97625 L 152.078594 -105.749687 L 151.754375 -106.171562 L 151.402813 -106.105156 L 150.980938 -105.105156 L 150.402813 -104.335625 L 149.820781 -103.269219 L 149.309063 -102.659844 L 148.598125 -101.917656 L 149.016094 -101.433281 L 149.660625 -100.339531 L 149.629375 -100.019219 L 148.727031 -99.823906 L 148.406719 -99.952812 L 148.469219 -100.081719 L 148.984844 -100.273125 L 148.695781 -101.175469 L 148.535625 -101.273125 L 148.180156 -100.468437 L 147.922344 -99.503594 L 147.855938 -98.952812 L 148.148906 -98.019219 L 148.148906 -96.120781 L 147.535625 -95.378594 L 147.277813 -94.765312 L 146.246563 -94.5075 L 145.859844 -94.378594 L 145.539531 -93.862969 L 144.86375 -93.542656 L 144.637188 -92.866875 L 144.090313 -92.671562 L 143.605938 -91.933281 L 142.77 -91.640312 L 142.187969 -91.35125 L 141.672344 -91.35125 L 140.867656 -91.515312 L 140.836406 -91.898125 L 140.996563 -92.093437 L 140.898906 -92.32 L 140.289531 -92.284844 L 139.547344 -92.995781 L 138.836406 -93.3825 L 138.066875 -93.3825 L 137.422344 -93.640312 L 137.355938 -93.093437 L 137.035625 -92.706719 L 136.453594 -92.480156 L 136.133281 -92.191094 L 134.52 -91.417656 L 133.008281 -91.062187 L 132.137188 -91.191094 L 130.945781 -91.28875 L 129.754375 -91.706719 L 129.062969 -91.827812 L 129.012188 -90.22625 L 128.496563 -89.839531 L 128.145 -89.484062 L 128.2075 -88.870781 L 130.23875 -88.612969 L 135.328594 -88.034844 L 136.680156 -87.905937 L 137.762188 -87.960625 L 138.277813 -88.734062 L 138.566875 -89.023125 L 140.184063 -89.128594 L 142.336406 -88.999687 L 146.625469 -88.741875 L 147.711406 -88.605156 L 148.727031 -88.648125 L 148.812969 -89.22625 L 149.258281 -89.386406 L 149.305156 -88.464531 L 149.000469 -87.6325 L 149.262188 -87.347344 L 150.367656 -87.437187 Z M 153.898906 -113.8825 L 154.379375 -113.753594 L 154.637188 -113.706719 L 154.930156 -113.241875 L 155.395 -112.917656 L 155.652813 -113.015312 L 155.992656 -113.077812 L 156.070781 -113.28875 L 155.379375 -113.530937 L 154.543438 -113.82 L 154.074688 -114.062187 Z M 156.586406 -112.886406 L 156.828594 -113.093437 L 157.375469 -112.675469 L 158.437969 -111.839531 L 159.180156 -111.066094 L 159.680156 -109.745781 L 159.871563 -109.405937 L 159.906719 -108.730156 L 159.762188 -108.827812 L 159.566875 -109.390312 L 159.277813 -110.308281 L 158.633281 -111.355156 L 157.762188 -112.195 L 157.086406 -112.581719 Z M 156.586406 -112.886406 " transform="matrix(1,0,0,-1,-0.52,-0.57)"/>
<path style="fill-rule:nonzero;fill:rgb(89.99939%,89.99939%,89.99939%);fill-opacity:1;stroke-width:0.69739;stroke-linecap:butt;stroke-linejoin:miter;stroke:rgb(100%,100%,100%);stroke-opacity:1;stroke-miterlimit:10;" d="M 175.504375 -28.378594 L 175.67625 -28.16375 L 175.895 -27.5075 L 175.387188 -27.327813 L 175.293438 -26.714531 L 174.52 -26.487969 L 174.453594 -25.941094 L 173.004375 -21.269219 L 172.086406 -18.374688 L 171.910625 -18.370781 L 171.781719 -18.695 L 171.652813 -18.597344 L 171.4575 -18.405938 L 171.168438 -18.792656 L 171.156719 -19.792656 L 171.219219 -20.921563 L 171.605938 -21.468438 L 171.605938 -22.277031 L 170.867656 -23.284844 L 170.352031 -23.511406 L 170.352031 -23.734063 L 170.574688 -24.089531 L 170.574688 -25.796563 L 170.414531 -27.6325 L 170.383281 -28.60125 L 170.574688 -28.855156 L 170.543438 -29.7575 L 170.445781 -30.112969 L 170.641094 -30.253594 L 173.984844 -29.374688 L 174.418438 -29.253594 L 174.785625 -28.698906 Z M 175.504375 -28.378594 " transform="matrix(1,0,0,-1,-0.52,-0.57)"/>
<path style="fill-rule:nonzero;fill:rgb(89.99939%,89.99939%,89.99939%);fill-opacity:1;stroke-width:0.69739;stroke-linecap:butt;stroke-linejoin:miter;stroke:rgb(100%,100%,100%);stroke-opacity:1;stroke-miterlimit:10;" d="M 139.05125 -35.316094 L 138.406719 -33.671563 L 137.9575 -31.870781 L 137.473125 -31.22625 L 136.9575 -30.870781 L 136.637188 -31.097344 L 135.86375 -31.448906 L 135.477031 -32.448906 L 134.930156 -33.191094 L 134.703594 -33.32 L 134.414531 -33.191094 C 134.414531 -33.191094 133.898906 -32.898125 133.930156 -32.769219 C 133.965313 -32.640313 134.027813 -31.773125 134.027813 -31.773125 L 134.703594 -31.515313 L 134.86375 -30.839531 L 134.992656 -30.323906 L 135.477031 -29.999688 L 135.414531 -28.003594 L 135.090313 -27.554375 L 134.8325 -27.390313 L 134.672344 -26.972344 L 134.8325 -26.812188 L 135.156719 -26.874688 L 135.187969 -26.554375 L 134.703594 -26.10125 L 134.445781 -25.585625 L 133.930156 -25.585625 L 133.027813 -25.296563 L 131.934063 -24.620781 L 131.387188 -24.620781 L 131.258281 -24.749688 L 131.062969 -24.652031 L 130.453594 -24.202813 L 129.871563 -24.558281 L 129.293438 -25.0075 L 129.355938 -25.714531 L 129.55125 -25.780938 L 129.969219 -25.878594 L 130.066875 -26.03875 L 129.55125 -26.198906 L 129.035625 -26.265313 L 128.746563 -26.616875 L 128.680156 -27.03875 L 128.746563 -27.359063 L 128.809063 -28.452813 L 128.102031 -28.874688 L 127.973125 -28.839531 L 127.973125 -28.003594 L 128.230938 -27.519219 L 128.359844 -27.03875 L 128.195781 -26.874688 L 127.809063 -27.03875 L 127.617656 -27.874688 L 127.070781 -28.10125 L 126.715313 -28.487969 L 126.684063 -28.679375 L 126.812969 -28.839531 L 126.684063 -29.355156 L 126.230938 -29.452813 L 126.230938 -29.679375 L 126.395 -30.159844 L 126.168438 -31.386406 L 125.844219 -32.191094 L 125.973125 -33.124688 L 126.070781 -33.35125 L 125.910625 -33.835625 L 125.844219 -33.995781 L 125.781719 -34.542656 L 126.48875 -35.734063 L 127.070781 -37.023125 L 127.359844 -37.987969 L 127.199688 -38.921563 L 127.004375 -40.116875 L 126.523906 -41.144219 L 126.4575 -41.695 L 125.809063 -42.308281 L 126.687969 -42.277031 L 130.953594 -41.823906 L 132.406719 -41.628594 L 132.422344 -41.960625 L 133.789531 -41.718438 L 135.840313 -41.417656 L 136.609844 -41.327813 L 136.637188 -41.210625 L 136.668438 -40.921563 L 137.086406 -40.179375 L 137.484844 -39.831719 L 137.441875 -38.827813 L 137.762188 -38.5075 L 137.977031 -38.441094 L 138.023906 -37.730156 L 138.328594 -37.128594 L 138.535625 -37.249688 L 138.570781 -37.378594 L 138.730938 -37.409844 L 139.117656 -37.214531 Z M 139.05125 -35.316094 " transform="matrix(1,0,0,-1,-0.52,-0.57)"/>
<path style="fill-rule:nonzero;fill:rgb(89.99939%,89.99939%,89.99939%);fill-opacity:1;stroke-width:0.69739;stroke-linecap:butt;stroke-linejoin:miter;stroke:rgb(100%,100%,100%);stroke-opacity:1;stroke-miterlimit:10;" d="M 115.891094 -16.35125 L 116.254375 -15.941094 L 116.687969 -15.780938 L 117.758281 -15.0075 L 118.215313 -14.894219 L 118.305156 -14.984063 L 117.281719 -16.0075 L 116.621563 -16.398125 L 116.211406 -16.577813 Z M 133.062969 -22.753594 L 133.191875 -23.253594 L 133.836406 -23.284844 L 134.094219 -23.042656 C 134.094219 -23.042656 134.078594 -22.753594 134.012188 -22.718438 C 133.949688 -22.687188 133.691875 -22.35125 133.691875 -22.35125 L 133.254375 -22.398125 L 132.934063 -22.429375 L 132.867656 -22.655938 Z M 113.074688 -22.159844 L 113.219219 -22.042656 L 113.766094 -21.8825 L 114.477031 -21.433281 L 114.477031 -21.237969 L 114.605938 -21.109063 L 115.797344 -20.917656 L 116.277813 -20.530938 L 117.148906 -20.112969 L 117.180156 -19.855156 L 117.566875 -19.273125 L 117.922344 -19.112969 L 118.180156 -18.7575 L 118.629375 -18.308281 L 119.500469 -17.823906 L 120.434063 -17.72625 L 120.660625 -17.952813 L 120.594219 -18.148125 L 119.855938 -18.339531 L 119.562969 -18.952813 L 119.11375 -19.112969 L 119.016094 -19.597344 L 118.535625 -20.241875 L 118.469219 -20.7575 L 118.629375 -20.85125 L 118.824688 -20.628594 L 119.531719 -20.046563 L 119.789531 -20.304375 L 120.242656 -20.304375 L 120.887188 -20.499688 L 121.17625 -20.722344 L 121.465313 -21.335625 L 122.012188 -21.8825 L 122.785625 -21.85125 L 123.074688 -21.655938 L 123.398906 -21.91375 L 123.719219 -22.011406 L 123.977031 -21.85125 L 124.203594 -21.85125 L 124.523906 -21.655938 L 125.3325 -20.948906 L 126.008281 -20.722344 L 127.328594 -20.659844 L 128.230938 -20.273125 L 128.746563 -20.015313 L 129.035625 -20.046563 L 129.035625 -21.175469 L 129.133281 -21.237969 L 129.711406 -21.398125 L 130.098125 -21.304375 L 131.320781 -20.980156 L 131.547344 -20.7575 L 131.836406 -20.85125 L 131.836406 -22.237969 L 132.480938 -22.85125 L 132.73875 -22.980156 L 132.996563 -23.171563 L 132.73875 -23.237969 L 132.578594 -23.171563 L 131.836406 -23.073906 L 131.418438 -23.202813 L 130.969219 -23.171563 L 130.324688 -23.460625 L 129.969219 -23.460625 L 128.809063 -23.202813 L 127.777813 -23.237969 L 127.391094 -23.749688 L 126.008281 -23.878594 L 125.523906 -24.042656 L 125.297344 -24.652031 L 125.039531 -24.878594 L 124.945781 -24.847344 L 124.652813 -24.523125 L 123.750469 -25.0075 L 123.621563 -25.0075 L 123.398906 -24.687188 L 123.23875 -24.718438 L 122.852031 -25.585625 L 122.656719 -26.394219 L 122.023906 -27.78875 L 121.789531 -27.581719 L 121.516094 -27.374688 L 121.129375 -25.327813 L 120.422344 -25.054375 L 120.012188 -24.597344 L 117.598125 -24.050469 L 117.027813 -23.847344 L 115.391094 -23.41375 L 113.816875 -23.183281 Z M 113.074688 -22.159844 " transform="matrix(1,0,0,-1,-0.52,-0.57)"/>
<path style="fill-rule:nonzero;fill:rgb(89.99939%,89.99939%,89.99939%);fill-opacity:1;stroke-width:0.69739;stroke-linecap:butt;stroke-linejoin:miter;stroke:rgb(100%,100%,100%);stroke-opacity:1;stroke-miterlimit:10;" d="M 168.27 -30.698906 L 168.3325 -29.6325 L 167.754375 -27.484063 L 167.625469 -27.417656 L 167.047344 -27.159844 L 167.2075 -26.581719 L 167.047344 -26.16375 L 166.508281 -25.237969 L 166.703594 -24.464531 L 166.539531 -23.433281 L 166.059063 -22.144219 L 165.898906 -21.16375 L 171.160625 -19.823906 L 171.223125 -20.925469 L 171.605938 -21.468438 L 171.605938 -22.277031 L 170.867656 -23.284844 L 170.352031 -23.511406 L 170.348125 -23.734063 L 170.609844 -24.034844 L 170.547344 -25.652031 L 170.42625 -27.495781 L 170.379375 -28.60125 L 170.574688 -28.859063 L 170.543438 -29.769219 L 170.445781 -30.109063 L 170.648906 -30.253594 L 169.164531 -30.554375 Z M 168.27 -30.698906 " transform="matrix(1,0,0,-1,-0.52,-0.57)"/>
<path style="fill-rule:nonzero;fill:rgb(89.99939%,89.99939%,89.99939%);fill-opacity:1;stroke-width:0.69739;stroke-linecap:butt;stroke-linejoin:miter;stroke:rgb(100%,100%,100%);stroke-opacity:1;stroke-miterlimit:10;" d="M 183.883281 -15.706719 L 184.266094 -16.124688 L 184.719219 -16.866875 L 184.719219 -17.253594 L 184.30125 -18.187188 L 183.914531 -18.316094 L 183.23875 -18.929375 L 182.27 -20.023125 C 182.27 -20.023125 182.141094 -20.023125 182.012188 -20.023125 C 181.883281 -20.023125 181.820781 -19.605156 181.820781 -19.605156 L 181.465313 -19.636406 L 181.273906 -19.925469 L 180.789531 -20.218438 L 180.594219 -20.5075 L 180.918438 -20.796563 L 180.820781 -20.925469 L 180.723125 -21.472344 L 180.336406 -21.441094 L 180.336406 -21.120781 L 180.273906 -20.862969 L 179.984844 -20.925469 L 179.629375 -20.280938 L 179.211406 -20.53875 L 179.469219 -20.827813 L 179.531719 -21.054375 L 179.371563 -21.312188 L 179.437969 -21.925469 L 179.469219 -22.245781 L 179.145 -22.761406 L 178.566875 -22.859063 L 178.500469 -23.437188 L 177.437969 -24.050469 L 177.180156 -24.148125 L 176.859844 -23.855156 L 176.246563 -24.566094 L 176.441875 -25.210625 L 176.148906 -25.468438 L 176.117656 -26.335625 L 175.895 -27.585625 L 175.402813 -27.355156 L 175.309063 -26.741875 L 174.535625 -26.515313 L 174.469219 -25.968438 L 173.02 -21.296563 L 172.0825 -18.3825 L 172.367656 -18.359063 L 172.668438 -18.441094 L 172.668438 -17.925469 L 172.930156 -17.027031 L 173.445781 -16.093438 L 173.734844 -15.28875 L 173.348125 -14.804375 L 173.348125 -13.612969 L 173.508281 -13.421563 L 173.668438 -12.874688 L 173.637188 -12.581719 L 173.605938 -11.616875 L 173.961406 -10.652031 L 174.539531 -8.878594 L 174.9575 -8.042656 L 175.215313 -8.042656 L 175.473125 -8.073906 L 175.473125 -8.300469 L 175.730938 -8.749688 L 176.277813 -8.878594 L 176.441875 -8.718438 L 176.441875 -8.523125 L 177.246563 -7.945 L 177.602031 -7.589531 L 177.891094 -7.620781 L 179.0825 -8.105156 L 179.469219 -8.300469 L 181.273906 -14.2575 L 182.465313 -14.2575 L 182.625469 -14.644219 L 182.656719 -15.609063 L 183.23875 -16.062188 L 183.398906 -16.062188 L 183.430156 -15.964531 L 183.3325 -15.737969 Z M 179.711406 -21.714531 L 180.016094 -21.409844 L 180.289531 -21.616875 L 180.402813 -22.10125 L 180.066875 -22.277031 Z M 181.047344 -20.53875 L 181.402813 -20.909844 C 181.402813 -20.909844 181.660625 -20.925469 181.660625 -20.859063 C 181.660625 -20.796563 181.7075 -20.456719 181.7075 -20.456719 L 181.883281 -20.296563 L 181.723125 -19.941094 L 181.320781 -20.089531 Z M 181.047344 -20.53875 " transform="matrix(1,0,0,-1,-0.52,-0.57)"/>
<path style="fill-rule:nonzero;fill:rgb(89.99939%,89.99939%,89.99939%);fill-opacity:1;stroke-width:0.69739;stroke-linecap:butt;stroke-linejoin:miter;stroke:rgb(100%,100%,100%);stroke-opacity:1;stroke-miterlimit:10;" d="M 174.164531 -35.644219 L 173.42625 -32.667656 L 174.67625 -32.296563 L 175.11375 -32.683281 L 175.773906 -33.542656 L 176.309063 -34.421563 L 175.711406 -34.745781 L 175.453594 -34.710625 L 175.227031 -35.066094 L 174.742656 -35.452813 Z M 174.164531 -35.644219 " transform="matrix(1,0,0,-1,-0.52,-0.57)"/>
<path style="fill-rule:nonzero;fill:rgb(89.99939%,89.99939%,89.99939%);fill-opacity:1;stroke-width:0.69739;stroke-linecap:butt;stroke-linejoin:miter;stroke:rgb(100%,100%,100%);stroke-opacity:1;stroke-miterlimit:10;" d="M 165.4575 -37.609063 L 165.230938 -37.41375 L 164.719219 -37.3825 L 164.266094 -36.995781 L 163.941875 -35.777031 L 163.250469 -35.792656 L 162.766094 -35.253594 L 158.902813 -36.128594 L 150.3325 -37.866875 L 148.8325 -38.112969 L 148.687969 -36.823906 L 148.973125 -36.597344 L 149.230938 -36.370781 L 149.422344 -36.050469 L 149.777813 -35.823906 L 150.164531 -35.472344 L 150.258281 -35.148125 L 150.680156 -34.60125 L 150.902813 -34.405938 L 150.871563 -34.214531 L 150.61375 -33.60125 L 150.258281 -33.57 L 149.871563 -32.347344 L 150.453594 -31.991875 L 151.324688 -31.702813 L 152.129375 -31.445 L 152.773906 -31.347344 L 154.027813 -31.316094 L 154.414531 -31.573906 L 154.73875 -31.605156 L 155.156719 -31.347344 L 155.672344 -31.120781 L 156.703594 -31.027031 L 157.121563 -30.671563 L 157.477031 -30.027031 L 157.797344 -29.640313 L 158.215313 -29.640313 L 158.602031 -29.41375 L 158.633281 -28.964531 L 158.344219 -28.546563 L 158.281719 -28.253594 L 158.504375 -27.835625 L 158.504375 -27.546563 L 158.152813 -27.546563 L 157.797344 -27.386406 L 157.637188 -27.159844 L 157.605938 -26.644219 L 158.762188 -25.550469 L 158.891094 -25.386406 L 159.184063 -24.808281 L 159.762188 -23.905938 L 160.309063 -23.16375 L 160.727031 -22.683281 L 161.211406 -22.32 L 161.824688 -22.07 L 162.918438 -21.812188 L 163.562969 -21.843438 L 164.465313 -21.554375 L 165.973125 -21.144219 L 166.074688 -22.136406 L 166.559063 -23.421563 L 166.719219 -24.452813 L 166.527813 -25.22625 L 167.043438 -26.128594 L 167.203594 -26.546563 L 167.043438 -27.128594 L 167.621563 -27.386406 L 167.750469 -27.448906 L 168.36375 -29.640313 L 168.258281 -30.648125 L 168.160625 -32.808281 L 168.320781 -33.902031 L 168.480938 -34.609063 L 168.773906 -36.058281 L 168.773906 -37.671563 L 168.547344 -38.120781 L 168.914531 -38.519219 L 169.070781 -38.85125 L 168.684063 -39.206719 L 168.750469 -39.464531 L 169.008281 -39.402031 L 169.297344 -39.144219 L 169.746563 -38.628594 L 169.973125 -38.499688 L 170.297344 -38.628594 L 170.746563 -38.659844 L 172.324688 -37.886406 L 172.906719 -37.339531 L 173.164531 -37.050469 L 174.000469 -37.370781 L 173.324688 -38.077813 L 172.55125 -38.659844 L 171.133281 -39.722344 L 170.617656 -39.917656 L 169.4575 -40.300469 L 168.652813 -40.527031 L 168.418438 -40.421563 L 168.371563 -39.687188 L 168.465313 -39.140313 L 168.434063 -38.718438 L 167.875469 -38.3825 L 166.973125 -38.187188 L 166.199688 -37.964531 Z M 165.4575 -37.609063 " transform="matrix(1,0,0,-1,-0.52,-0.57)"/>
<path style="fill-rule:nonzero;fill:rgb(89.99939%,89.99939%,89.99939%);fill-opacity:1;stroke-width:0.69739;stroke-linecap:butt;stroke-linejoin:miter;stroke:rgb(100%,100%,100%);stroke-opacity:1;stroke-miterlimit:10;" d="M 164.410625 -44.773125 L 164.672344 -44.718438 L 165.137188 -44.468438 L 165.375469 -43.972344 L 165.699688 -43.523125 L 166.344219 -42.909844 L 166.344219 -42.749688 L 165.859844 -42.425469 L 165.152813 -41.945 L 164.9575 -41.429375 L 164.410625 -41.362969 L 164.379375 -41.136406 L 164.219219 -40.589531 L 164.668438 -40.366875 L 164.699688 -39.8825 L 164.441875 -39.624688 L 164.477031 -39.300469 L 164.86375 -38.691094 L 164.86375 -38.077813 L 165.398906 -37.550469 L 165.215313 -37.417656 L 164.711406 -37.378594 L 164.254375 -36.991875 L 163.945781 -35.773125 L 163.250469 -35.792656 L 162.758281 -35.253594 L 159.156719 -36.089531 L 150.586406 -37.831719 L 148.812969 -38.120781 L 148.691875 -36.82 L 147.621563 -37.831719 L 147.36375 -37.925469 L 146.527813 -38.527031 L 147.105938 -42.339531 L 147.602031 -44.277031 L 148.312969 -48.116875 L 148.965313 -47.987969 L 151.344219 -47.691094 L 158.902813 -46.16375 L 161.867656 -45.60125 L 163.52 -45.277031 L 163.574688 -45.230156 L 163.992656 -44.905938 Z M 164.410625 -44.773125 " transform="matrix(1,0,0,-1,-0.52,-0.57)"/>
<path style="fill-rule:nonzero;fill:rgb(89.99939%,89.99939%,89.99939%);fill-opacity:1;stroke-width:0.69739;stroke-linecap:butt;stroke-linejoin:miter;stroke:rgb(100%,100%,100%);stroke-opacity:1;stroke-miterlimit:10;" d="M 165.316875 -37.550469 L 164.855938 -38.097344 L 164.855938 -38.710625 L 164.469219 -39.32 L 164.437969 -39.644219 L 164.695781 -39.902031 L 164.664531 -40.3825 L 164.211406 -40.609063 L 164.371563 -41.155938 L 164.406719 -41.3825 L 164.953594 -41.445 L 165.145 -41.960625 L 165.855938 -42.445 L 166.336406 -42.769219 L 166.336406 -42.929375 L 165.742656 -43.464531 L 165.422344 -43.917656 L 165.129375 -44.464531 L 164.680156 -44.722344 L 164.586406 -45.042656 L 164.539531 -45.280938 L 164.418438 -45.800469 L 164.637188 -46.249688 L 165.281719 -46.827813 L 166.246563 -47.280938 L 167.05125 -47.409844 L 167.0825 -47.698906 L 166.922344 -47.894219 L 166.98875 -48.441094 L 167.148906 -48.441094 L 167.566875 -47.956719 L 167.727031 -46.991875 L 168.277813 -46.183281 L 168.887188 -44.898125 L 169.11375 -43.800469 L 168.984844 -43.577813 L 168.953594 -41.706719 L 168.629375 -41.030938 L 168.406719 -41.191094 L 167.855938 -41.2575 L 167.762188 -41.159844 L 167.984844 -40.968438 L 168.406719 -40.581719 L 168.418438 -40.362969 L 168.340313 -39.679375 L 168.453594 -39.128594 L 168.430156 -38.737969 L 167.871563 -38.390313 L 166.855938 -38.155938 L 166.031719 -37.878594 Z M 165.316875 -37.550469 " transform="matrix(1,0,0,-1,-0.52,-0.57)"/>
<path style="fill-rule:nonzero;fill:rgb(89.99939%,89.99939%,89.99939%);fill-opacity:1;stroke-width:0.69739;stroke-linecap:butt;stroke-linejoin:miter;stroke:rgb(100%,100%,100%);stroke-opacity:1;stroke-miterlimit:10;" d="M 164.512188 -45.484063 L 164.5825 -45.058281 L 164.660625 -44.722344 L 164.336406 -44.800469 L 164.012188 -44.894219 L 163.574688 -45.245781 L 163.918438 -46.249688 L 164.367656 -47.378594 L 164.785625 -49.308281 L 165.109844 -50.566094 L 166.105938 -50.534844 L 167.3325 -50.300469 L 166.879375 -48.827813 L 166.687969 -48.925469 L 165.977031 -48.441094 L 165.625469 -47.5075 L 165.23875 -46.796563 L 164.609844 -46.22625 L 164.437969 -45.808281 Z M 164.512188 -45.484063 " transform="matrix(1,0,0,-1,-0.52,-0.57)"/>
<path style="fill-rule:nonzero;fill:rgb(89.99939%,89.99939%,89.99939%);fill-opacity:1;stroke-width:0.69739;stroke-linecap:butt;stroke-linejoin:miter;stroke:rgb(100%,100%,100%);stroke-opacity:1;stroke-miterlimit:10;" d="M 167.3325 -50.296563 L 166.137188 -50.534844 L 165.109844 -50.558281 L 164.742656 -49.179375 L 164.359844 -47.35125 L 163.848125 -46.120781 L 163.590313 -45.241875 L 162.094219 -45.566094 L 159.133281 -46.128594 L 151.668438 -47.6325 L 151.895 -48.6325 L 152.086406 -49.7575 L 152.152813 -49.695 L 152.570781 -49.210625 L 153.023906 -48.691094 L 153.504375 -48.566094 L 153.793438 -48.277031 L 154.148906 -47.761406 L 154.406719 -47.890313 L 154.98875 -47.827813 L 155.500469 -47.405938 L 155.902813 -47.116875 L 156.27 -47.023125 L 156.598125 -47.245781 L 157.17625 -47.534844 L 157.562969 -47.890313 L 157.805156 -48.195 L 158.625469 -48.534844 L 158.625469 -49.112969 L 159.723125 -49.370781 L 159.949688 -49.480156 L 160.230938 -49.077813 L 160.805156 -49.468438 L 160.55125 -49.964531 L 160.398906 -50.7575 L 160.043438 -51.273125 L 160.043438 -51.691094 L 160.172344 -52.046563 L 161.184063 -52.316094 L 162.039531 -52.304375 L 162.652813 -52.495781 L 163.070781 -52.562188 L 163.266094 -52.144219 L 162.977031 -51.722344 L 162.977031 -51.370781 L 162.492656 -50.952813 L 162.074688 -49.855156 L 162.3325 -48.792656 L 162.297344 -48.374688 L 162.039531 -48.116875 C 162.039531 -48.116875 162.3325 -47.792656 162.3325 -47.66375 C 162.3325 -47.534844 162.42625 -47.245781 162.42625 -47.245781 L 162.812969 -46.987969 L 163.199688 -46.667656 L 163.297344 -46.859063 L 163.008281 -47.183281 L 162.750469 -47.921563 L 162.812969 -48.148125 L 163.168438 -48.214531 L 163.266094 -49.308281 L 162.848125 -49.499688 L 162.910625 -50.210625 L 163.008281 -50.179375 L 163.234844 -49.792656 L 163.555156 -50.144219 L 163.234844 -50.402031 L 163.168438 -51.081719 L 163.684063 -51.7575 L 164.4575 -51.85125 L 164.777813 -51.691094 L 165.422344 -52.527031 L 165.695781 -52.6325 L 167.02 -52.073906 L 167.422344 -51.273125 Z M 164.152813 -52.093438 L 164.375469 -52.593438 L 164.410625 -52.948906 L 164.633281 -53.32 C 164.633281 -53.32 164.812969 -53.140313 164.812969 -53.077813 C 164.812969 -53.011406 164.668438 -52.464531 164.668438 -52.464531 L 164.523906 -51.995781 Z M 164.152813 -52.093438 " transform="matrix(1,0,0,-1,-0.52,-0.57)"/>
<path style="fill-rule:nonzero;fill:rgb(89.99939%,89.99939%,89.99939%);fill-opacity:1;stroke-width:0.69739;stroke-linecap:butt;stroke-linejoin:miter;stroke:rgb(100%,100%,100%);stroke-opacity:1;stroke-miterlimit:10;" d="M 165.7075 -53.015313 L 165.680156 -52.628594 L 166.965313 -52.120781 L 166.812969 -52.761406 L 166.230938 -53.515313 L 166.148906 -54.429375 L 166.23875 -55.105156 L 165.875469 -56.093438 L 165.445781 -56.47625 L 165.152813 -55.550469 L 165.23875 -54.468438 L 165.555156 -53.6325 Z M 166.375469 -58.655938 L 154.781719 -61.159844 L 147.324688 -62.214531 L 145.996563 -62.136406 L 145.480938 -62.523125 L 144.016094 -62.566094 L 142.348125 -62.761406 L 140.172344 -63.081719 L 142.258281 -61.964531 L 142.254375 -61.550469 L 142.559063 -61.124688 L 144.660625 -58.831719 L 145.449688 -59.722344 L 146.203594 -59.91375 L 146.7075 -59.687188 L 147.152813 -59.425469 L 147.660625 -59.695 L 148.437969 -59.409844 L 148.812969 -58.503594 L 149.3325 -58.609063 L 149.898906 -58.187188 L 150.258281 -58.284844 L 150.820781 -57.550469 L 150.891094 -57.136406 L 150.699688 -56.8825 L 150.898906 -56.511406 L 151.949688 -54.062188 L 152.074688 -52.921563 L 152.316875 -52.816094 L 152.754375 -53.304375 L 153.535625 -53.241875 L 153.922344 -51.734063 L 154.477031 -51.620781 L 154.687969 -51.077813 L 155.199688 -50.609063 L 155.754375 -49.472344 L 155.77 -48.464531 L 157.727031 -49.22625 C 157.86375 -49.292656 157.895 -48.218438 157.895 -48.218438 L 158.621563 -48.53875 L 158.633281 -49.124688 L 159.785625 -49.3825 L 160.211406 -49.616875 L 160.543438 -50.027031 L 160.414531 -50.753594 L 160.023906 -51.269219 L 160.047344 -51.679375 L 160.164531 -52.050469 L 161.156719 -52.300469 L 162.043438 -52.308281 L 162.652813 -52.499688 L 163.043438 -52.562188 L 163.184063 -53.179375 L 163.820781 -53.2575 L 163.992656 -53.495781 L 163.906719 -54.433281 L 164.180156 -54.652031 L 164.0825 -55.034844 L 164.328594 -55.195 L 164.285625 -55.468438 L 163.746563 -55.448906 L 163.766094 -55.773125 L 164.219219 -56.081719 L 164.242656 -56.362969 L 164.598125 -56.718438 L 164.695781 -57.218438 L 164.187969 -57.495781 L 164.500469 -57.792656 L 165.656719 -57.456719 Z M 166.375469 -58.655938 " transform="matrix(1,0,0,-1,-0.52,-0.57)"/>
<path style="fill-rule:nonzero;fill:rgb(89.99939%,89.99939%,89.99939%);fill-opacity:1;stroke-width:0.69739;stroke-linecap:butt;stroke-linejoin:miter;stroke:rgb(100%,100%,100%);stroke-opacity:1;stroke-miterlimit:10;" d="M 151.672344 -47.616875 L 151.891094 -48.60125 L 152.109844 -49.804375 L 152.531719 -49.28875 L 152.984844 -48.675469 L 153.48875 -48.554375 L 153.777813 -48.265313 L 154.133281 -47.749688 L 154.422344 -47.878594 L 155.000469 -47.812188 L 155.516094 -47.394219 L 155.918438 -47.105156 L 156.285625 -47.0075 L 156.543438 -47.210625 L 157.27 -47.573906 L 157.656719 -47.929375 L 157.930156 -48.187188 L 157.777813 -49.292656 L 156.617656 -48.784844 L 155.77 -48.464531 L 155.750469 -49.495781 L 155.203594 -50.597344 L 154.699688 -51.081719 L 154.461406 -51.628594 L 153.934063 -51.730156 L 153.754375 -52.445 L 153.547344 -53.234063 L 152.758281 -53.300469 L 152.293438 -52.816094 L 152.078594 -52.925469 L 151.953594 -54.015313 L 151.684063 -54.722344 L 150.695781 -56.905938 L 150.875469 -57.136406 L 150.836406 -57.515313 L 150.273906 -58.28875 L 149.914531 -58.179375 L 149.324688 -58.612969 L 148.816875 -58.495781 L 148.418438 -59.405938 C 148.418438 -59.405938 147.77 -59.691094 147.637188 -59.679375 C 147.605938 -59.675469 147.145 -59.429375 147.145 -59.429375 L 146.680156 -59.702813 L 146.199688 -59.909844 L 145.453594 -59.734063 L 145.230938 -59.503594 L 144.793438 -58.898125 L 144.168438 -58.503594 L 143.824688 -57.780938 L 142.973125 -57.089531 L 142.844219 -56.640313 L 142.328594 -56.35125 L 142.164531 -56.027031 L 142.117656 -54.980156 L 142.55125 -54.964531 L 142.937969 -54.804375 L 142.973125 -54.2575 L 143.293438 -53.964531 L 143.324688 -52.968438 L 143.52 -52.195 L 143.777813 -52.066094 L 144.035625 -52.28875 L 144.129375 -52.644219 L 144.484844 -52.452813 L 144.5825 -52.128594 L 144.355938 -51.777031 L 144.355938 -51.292656 L 144.55125 -51.034844 L 145.000469 -50.359063 L 145.258281 -50.066094 L 145.67625 -50.16375 L 146.129375 -49.843438 L 146.73875 -49.167656 L 147.191875 -48.394219 L 147.254375 -47.265313 L 147.352031 -46.265313 L 147.352031 -45.331719 L 147.125469 -44.722344 L 147.320781 -44.429375 L 147.574688 -44.171563 L 148.27 -48.124688 L 149.195781 -47.972344 Z M 151.672344 -47.616875 " transform="matrix(1,0,0,-1,-0.52,-0.57)"/>
<path style="fill-rule:nonzero;fill:rgb(89.99939%,89.99939%,89.99939%);fill-opacity:1;stroke-width:0.69739;stroke-linecap:butt;stroke-linejoin:miter;stroke:rgb(100%,100%,100%);stroke-opacity:1;stroke-miterlimit:10;" d="M 146.516094 -38.523125 L 145.305156 -39.327813 L 144.531719 -39.780938 L 143.855938 -40.523125 L 143.047344 -41.292656 L 142.402813 -41.456719 L 141.824688 -41.550469 L 140.730938 -42.066094 L 140.309063 -42.10125 L 139.633281 -41.487969 L 138.602031 -41.616875 L 138.090313 -41.327813 L 137.61375 -41.058281 L 136.637188 -41.198906 L 134.609844 -41.519219 L 132.375469 -41.956719 L 132.633281 -44.870781 L 132.98875 -47.609063 L 133.504375 -52.277031 L 133.617656 -53.241875 L 134.437969 -53.214531 L 134.922344 -53.054375 L 135.590313 -53.355156 L 136.004375 -54.222344 L 137.027813 -54.222344 L 137.406719 -54.644219 L 137.754375 -54.628594 L 138.262188 -54.362969 L 138.762188 -54.437188 L 139.840313 -54.530938 L 140.184063 -54.109063 L 140.652813 -53.85125 L 141.066875 -53.714531 L 141.195781 -54.261406 L 141.547344 -54.456719 L 142.242656 -54.921563 L 142.67625 -54.905938 L 142.941875 -54.808281 L 142.977031 -54.2575 L 143.293438 -53.968438 L 143.312969 -53.011406 C 143.312969 -53.011406 143.516094 -52.195 143.516094 -52.195 L 143.777813 -52.073906 L 144.039531 -52.304375 L 144.148906 -52.640313 L 144.48875 -52.433281 L 144.578594 -52.144219 L 144.355938 -51.765313 L 144.367656 -51.304375 L 144.516094 -51.089531 L 144.945781 -50.429375 L 145.156719 -50.124688 L 145.574688 -50.218438 L 146.023906 -49.898125 L 146.637188 -49.222344 L 147.187969 -48.409844 L 147.254375 -47.402031 L 147.348125 -46.402031 L 147.312969 -45.343438 L 147.125469 -44.769219 L 147.195781 -44.530938 L 147.555156 -44.183281 L 147.098125 -42.378594 Z M 146.516094 -38.523125 " transform="matrix(1,0,0,-1,-0.52,-0.57)"/>
<path style="fill-rule:nonzero;fill:rgb(89.99939%,89.99939%,89.99939%);fill-opacity:1;stroke-width:0.69739;stroke-linecap:butt;stroke-linejoin:miter;stroke:rgb(100%,100%,100%);stroke-opacity:1;stroke-miterlimit:10;" d="M 123.453594 -59.769219 L 123.465313 -59.202813 L 123.562969 -58.300469 L 124.012188 -57.718438 L 124.367656 -56.945 L 124.883281 -56.109063 L 124.785625 -54.948906 L 124.434063 -54.402031 L 124.367656 -53.7575 L 124.527813 -52.66375 L 124.434063 -51.277031 L 124.17625 -48.089531 L 123.918438 -45.027031 L 123.723125 -42.691094 L 124.336406 -42.870781 L 124.625469 -43.062188 L 124.852031 -42.999688 L 125.27 -42.612969 L 125.8325 -42.28875 L 126.848125 -42.2575 L 131.230938 -41.808281 L 132.340313 -41.702813 L 132.641094 -44.878594 L 133.484844 -52.222344 L 133.605938 -53.370781 L 133.531719 -53.823906 L 133.777813 -54.179375 L 133.797344 -54.452813 L 133.293438 -54.773125 L 132.586406 -55.081719 L 131.949688 -55.191094 L 131.8325 -56.159844 L 130.918438 -56.82 L 130.36375 -57.620781 L 130.42625 -58.093438 L 130.309063 -58.398125 L 129.648906 -58.398125 L 129.3325 -58.077813 L 128.836406 -58.327813 L 128.30125 -58.628594 L 128.3325 -59.237969 L 128.094219 -59.28875 L 128.000469 -59.085625 L 127.570781 -58.784844 L 126.922344 -59.054375 L 126.61375 -59.652031 L 126.328594 -59.491875 L 126.035625 -59.171563 L 125.148906 -59.269219 L 124.031719 -59.460625 Z M 123.453594 -59.769219 " transform="matrix(1,0,0,-1,-0.52,-0.57)"/>
<path style="fill-rule:nonzero;fill:rgb(89.99939%,89.99939%,89.99939%);fill-opacity:1;stroke-width:0.69739;stroke-linecap:butt;stroke-linejoin:miter;stroke:rgb(100%,100%,100%);stroke-opacity:1;stroke-miterlimit:10;" d="M 123.445781 -59.843438 L 123.453594 -59.202813 L 123.566875 -58.277031 L 124.031719 -57.695 L 124.402813 -56.8825 L 124.848125 -56.085625 L 124.773906 -55.03875 L 124.375469 -54.335625 L 124.355938 -53.667656 L 124.492656 -52.616875 L 124.328594 -51.187188 L 124.117656 -48.042656 L 123.859844 -45.050469 L 123.67625 -42.730156 L 123.621563 -42.546563 L 123.461406 -42.030938 L 123.203594 -41.292656 L 122.879375 -40.937188 L 122.590313 -40.421563 L 122.543438 -39.327813 L 113.418438 -39.847344 L 113.465313 -40.32 L 113.918438 -40.456719 L 114.102031 -40.683281 L 114.191875 -41.046563 L 114.969219 -41.730156 L 115.105938 -42.187188 L 114.969219 -42.870781 L 114.602031 -43.597344 L 114.465313 -44.10125 L 114.012188 -44.464531 L 113.645 -44.60125 L 112.598125 -44.874688 L 112.461406 -45.237969 L 112.324688 -45.648125 L 112.461406 -45.921563 L 112.824688 -46.241875 L 112.781719 -47.062188 L 112.418438 -47.378594 L 112.281719 -47.698906 L 112.281719 -48.245781 L 111.914531 -48.335625 L 111.598125 -48.566094 L 111.55125 -48.835625 L 111.598125 -49.245781 L 111.254375 -49.5075 L 111.05125 -50.066094 L 111.141094 -50.796563 L 111.598125 -52.253594 L 113.055156 -53.7575 L 114.148906 -54.487969 L 114.102031 -55.35125 L 114.285625 -55.624688 L 115.559063 -55.714531 L 116.105938 -55.987969 L 115.969219 -56.718438 L 115.516094 -57.902031 L 115.379375 -58.53875 L 115.8325 -59.316094 L 117.109844 -60.362969 L 118.02 -60.499688 L 118.430156 -61.499688 L 118.840313 -62.140313 L 118.656719 -62.730156 L 118.977031 -63.550469 L 119.340313 -63.960625 L 119.621563 -63.784844 L 119.805156 -63.370781 L 120.242656 -63.023125 L 120.668438 -62.902031 L 121.187969 -63.136406 L 121.910625 -63.409844 L 122.148906 -63.35125 L 122.187969 -62.902031 L 121.930156 -62.421563 L 121.992656 -61.948906 L 122.355938 -61.679375 L 122.961406 -61.519219 L 123.211406 -61.425469 L 123.090313 -61.148125 L 122.930156 -60.679375 L 123.215313 -60.484063 Z M 123.445781 -59.843438 " transform="matrix(1,0,0,-1,-0.52,-0.57)"/>
<path style="fill-rule:nonzero;fill:rgb(89.99939%,89.99939%,89.99939%);fill-opacity:1;stroke-width:0.69739;stroke-linecap:butt;stroke-linejoin:miter;stroke:rgb(100%,100%,100%);stroke-opacity:1;stroke-miterlimit:10;" d="M 174.164531 -35.640313 L 173.430156 -32.675469 L 172.48875 -32.859063 L 168.262188 -33.804375 L 168.461406 -34.445 L 168.750469 -35.894219 L 168.785625 -37.683281 L 168.543438 -38.116875 L 168.92625 -38.499688 L 169.773906 -37.722344 L 170.484844 -37.077813 L 170.871563 -36.659844 L 171.031719 -36.78875 L 171.578594 -36.499688 L 172.609844 -36.273125 Z M 174.164531 -35.640313 " transform="matrix(1,0,0,-1,-0.52,-0.57)"/>
<path style="fill-rule:nonzero;fill:rgb(89.99939%,89.99939%,89.99939%);fill-opacity:1;stroke-width:0.69739;stroke-linecap:butt;stroke-linejoin:miter;stroke:rgb(100%,100%,100%);stroke-opacity:1;stroke-miterlimit:10;" d="M 122.555156 -39.327813 L 122.543438 -38.698906 L 122.309063 -37.796563 L 122.180156 -36.57 L 121.953594 -36.089531 L 122.145 -35.47625 L 122.309063 -34.898125 L 122.598125 -34.3825 L 122.469219 -33.706719 L 122.340313 -32.995781 L 122.437969 -32.640313 L 122.824688 -32.159844 L 122.855938 -31.612969 L 122.695781 -31.355156 L 122.824688 -30.839531 L 122.730938 -30.0075 L 123.281719 -28.878594 L 123.859844 -27.527031 L 123.891094 -27.073906 L 123.828594 -26.8825 L 123.668438 -26.980156 L 122.828594 -28.234063 L 122.281719 -29.03875 L 121.895 -29.394219 L 121.734844 -29.847344 L 121.344219 -30.0075 L 121.117656 -30.394219 L 120.828594 -30.327813 L 120.797344 -29.97625 L 121.055156 -29.491875 L 121.473125 -28.558281 L 121.828594 -28.234063 L 122.023906 -27.765313 L 121.516094 -27.386406 L 121.121563 -25.32 L 120.414531 -25.054375 L 120.027813 -24.593438 L 117.609844 -24.050469 L 117.035625 -23.85125 L 115.398906 -23.417656 L 113.820781 -23.187188 L 113.070781 -22.16375 L 112.922344 -22.273125 L 112.684063 -22.241875 L 112.555156 -22.019219 L 112.289531 -22.077813 L 112.062969 -22.109063 L 111.711406 -22.300469 L 111.516094 -22.171563 L 111.645 -21.784844 L 112.031719 -21.175469 L 112.258281 -20.948906 L 111.871563 -20.659844 L 111.453594 -20.82 L 110.871563 -21.206719 L 109.391094 -21.85125 L 108.809063 -21.980156 L 108.230938 -21.8825 L 108.035625 -21.706719 L 107.61375 -22.273125 L 107.566875 -22.82 L 107.566875 -24.503594 L 107.340313 -24.823906 L 106.293438 -25.597344 L 105.836406 -26.784844 L 105.92625 -26.827813 L 106.430156 -27.237969 L 106.566875 -27.874688 L 106.199688 -28.515313 L 106.199688 -29.28875 L 106.293438 -30.609063 L 106.883281 -31.202813 L 107.566875 -31.202813 L 107.934063 -31.839531 L 108.61375 -31.929375 L 109.391094 -33.07 L 110.80125 -33.890313 L 111.211406 -34.437188 L 111.395 -35.917656 L 111.531719 -36.577813 L 111.984844 -36.894219 L 112.031719 -37.167656 L 111.621563 -37.85125 L 111.668438 -38.491875 L 112.168438 -39.265313 L 112.668438 -39.491875 L 113.262188 -39.585625 L 113.527813 -39.859063 Z M 122.555156 -39.327813 " transform="matrix(1,0,0,-1,-0.52,-0.57)"/>
<path style="fill-rule:nonzero;fill:rgb(89.99939%,89.99939%,89.99939%);fill-opacity:1;stroke-width:0.69739;stroke-linecap:butt;stroke-linejoin:miter;stroke:rgb(100%,100%,100%);stroke-opacity:1;stroke-miterlimit:10;" d="M 166.375469 -58.644219 L 166.789531 -59.624688 L 167.500469 -60.91375 L 167.980938 -61.394219 L 168.109844 -61.847344 L 167.629375 -61.878594 L 167.789531 -62.0075 L 167.723125 -62.843438 L 167.2075 -63.10125 L 167.078594 -63.523125 L 166.824688 -64.10125 L 166.0825 -64.425469 L 165.598125 -64.359062 L 165.309063 -64.327812 L 164.984844 -64.07 L 165.05125 -64.327812 L 165.05125 -64.519219 L 165.437969 -64.519219 L 165.598125 -64.777031 L 165.211406 -66.034844 L 166.05125 -66.034844 L 166.180156 -66.355156 L 166.629375 -65.905937 L 166.887188 -65.808281 L 166.500469 -66.519219 L 165.887188 -67.484062 L 165.629375 -67.484062 L 165.406719 -67.386406 L 164.859844 -67.515312 L 163.828594 -67.999687 L 162.539531 -69.062187 L 161.86375 -69.995781 L 161.477031 -71.284844 L 161.379375 -71.769219 L 160.445781 -71.862969 L 159.359844 -72.1325 L 157.375469 -70.495781 L 154.86375 -68.984062 L 154.285625 -68.82 L 151.77 -69.112969 L 150.918438 -69.261406 L 150.598125 -68.616875 L 150.004375 -68.195 L 146.719219 -68.292656 L 145.27 -68.452812 L 143.465313 -69.355156 L 142.242656 -69.870781 L 138.023906 -70.386406 L 138.121563 -69.577812 L 138.477031 -69.28875 L 139.023906 -69.159844 L 139.152813 -68.417656 L 139.98875 -67.870781 L 140.762188 -67.581719 L 141.602031 -66.870781 L 142.469219 -66.452812 L 142.598125 -65.839531 L 143.371563 -65.066094 L 143.500469 -65.034844 C 143.500469 -65.034844 143.500469 -65.261406 143.664531 -65.261406 C 143.824688 -65.261406 144.047344 -65.323906 144.047344 -65.323906 L 144.500469 -64.616875 L 144.918438 -64.487969 L 145.371563 -64.550469 L 145.691875 -63.843438 L 146.27 -63.327813 L 146.367656 -62.909844 L 146.406719 -62.183281 L 147.258281 -62.179375 L 148.691875 -62.0075 L 151.8325 -61.558281 L 154.848125 -61.144219 L 159.160625 -60.202813 L 163.141094 -59.355156 L 165.367656 -58.874688 Z M 167.227031 -65.261406 L 167.742656 -64.761406 L 168.371563 -64.245781 L 168.67625 -64.116875 L 168.7075 -63.714531 L 168.578594 -62.491875 L 168.289531 -62.023125 L 168.160625 -61.652031 L 168.305156 -61.605156 L 168.852031 -62.698906 L 168.934063 -63.585625 L 168.902813 -64.261406 L 168.223125 -64.57 L 167.660625 -65.050469 L 167.434063 -65.292656 Z M 167.227031 -65.261406 " transform="matrix(1,0,0,-1,-0.52,-0.57)"/>
<path style="fill-rule:nonzero;fill:rgb(89.99939%,89.99939%,89.99939%);fill-opacity:1;stroke-width:0.69739;stroke-linecap:butt;stroke-linejoin:miter;stroke:rgb(100%,100%,100%);stroke-opacity:1;stroke-miterlimit:10;" d="M 160.562969 -49.984063 L 160.195781 -49.616875 L 159.949688 -49.480156 L 160.234844 -49.077813 L 160.812969 -49.468438 Z M 160.562969 -49.984063 " transform="matrix(1,0,0,-1,-0.52,-0.57)"/>
<path style="fill-rule:nonzero;fill:rgb(89.99939%,89.99939%,89.99939%);fill-opacity:1;stroke-width:0.69739;stroke-linecap:butt;stroke-linejoin:miter;stroke:rgb(100%,100%,100%);stroke-opacity:1;stroke-miterlimit:10;" d="M 179.254375 -34.523125 L 179.687969 -34.386406 L 179.777813 -34.042656 L 179.984844 -34.066094 L 180.187969 -34.523125 L 179.937969 -34.612969 L 179.164531 -34.636406 Z M 177.387188 -34.683281 L 177.844219 -34.155938 L 178.160625 -34.155938 L 178.527813 -34.452813 L 178.047344 -34.659844 L 177.61375 -34.862969 Z M 170.453594 -30.300469 L 173.969219 -29.374688 L 174.422344 -29.245781 L 174.80125 -28.691094 L 175.547344 -28.359063 L 176.121563 -29.237969 L 175.641094 -30.269219 L 175.574688 -30.558281 L 175.961406 -31.073906 L 176.187969 -30.91375 L 176.539531 -30.91375 L 176.992656 -31.429375 L 177.766094 -32.620781 L 178.473125 -32.714531 L 178.92625 -32.523125 L 179.277813 -32.167656 L 179.117656 -31.620781 L 178.699688 -31.300469 L 178.410625 -31.460625 L 178.215313 -31.202813 L 178.312969 -31.105156 L 178.730938 -31.073906 L 179.086406 -31.234063 L 179.473125 -31.718438 L 179.664531 -32.296563 L 179.730938 -32.780938 L 178.891094 -33.07 L 178.121563 -33.456719 L 177.348125 -34.359063 L 176.961406 -34.648125 L 176.961406 -34.456719 L 177.441875 -34.167656 L 177.539531 -33.812188 L 177.379375 -33.198906 L 176.797344 -33.487969 L 176.637188 -33.780938 L 176.734844 -34.230156 L 176.324688 -34.429375 L 175.773906 -33.527031 L 175.098125 -32.655938 L 174.687969 -32.296563 L 173.383281 -32.671563 L 172.371563 -32.878594 L 168.250469 -33.796563 L 168.117656 -32.843438 L 168.246563 -30.734063 L 169.102031 -30.558281 Z M 170.453594 -30.300469 " transform="matrix(1,0,0,-1,-0.52,-0.57)"/>
<path style="fill-rule:nonzero;fill:rgb(89.99939%,89.99939%,89.99939%);fill-opacity:1;stroke-width:0.69739;stroke-linecap:butt;stroke-linejoin:miter;stroke:rgb(100%,100%,100%);stroke-opacity:1;stroke-miterlimit:10;" d="M 138.816875 -63.41375 L 128.477031 -64.41375 L 125.336406 -64.765312 L 124.414531 -64.870781 L 123.645 -64.862969 L 123.602031 -65.679375 L 121.969219 -65.734062 L 120.586406 -65.862969 L 118.973125 -65.835625 L 118.691875 -67.245781 L 118.352031 -68.339531 L 117.695781 -68.886406 L 117.430156 -69.761406 L 117.36375 -70.277031 L 116.559063 -70.72625 L 116.848125 -71.433281 L 116.656719 -72.304375 L 116.461406 -72.460625 L 138.012188 -70.386406 L 138.094219 -69.60125 L 138.453594 -69.304375 L 139.02 -69.152031 L 139.152813 -68.41375 L 139.969219 -67.874687 L 140.777813 -67.577812 L 141.590313 -66.866875 L 142.473125 -66.460625 L 142.578594 -65.85125 L 143.387188 -65.054375 L 143.496563 -65.034844 C 143.496563 -65.034844 143.504375 -65.2575 143.664531 -65.2575 C 143.824688 -65.2575 144.05125 -65.327812 144.05125 -65.327812 L 144.504375 -64.612969 L 144.914531 -64.484062 L 145.367656 -64.546562 L 145.687969 -63.839531 L 146.273906 -63.312188 L 146.359844 -62.929375 L 146.422344 -62.187188 L 145.992656 -62.148125 L 145.477031 -62.554375 L 144.0825 -62.558281 L 140.422344 -63.034844 Z M 138.816875 -63.41375 " transform="matrix(1,0,0,-1,-0.52,-0.57)"/>
<path style="fill-rule:nonzero;fill:rgb(89.99939%,89.99939%,89.99939%);fill-opacity:1;stroke-width:0.69739;stroke-linecap:butt;stroke-linejoin:miter;stroke:rgb(100%,100%,100%);stroke-opacity:1;stroke-miterlimit:10;" d="M 118.324688 -68.355156 L 117.531719 -68.499687 L 116.512188 -68.370781 L 116.594219 -68.054375 L 117.187969 -67.542656 L 117.375469 -66.812187 L 117.012188 -66.222344 L 101.387188 -66.722344 L 101.7075 -68.089531 L 101.7075 -69.72625 L 101.980938 -71.91375 L 102.023906 -79.452812 L 102.480938 -79.839531 L 103.074688 -79.566094 L 103.621563 -79.796562 L 103.754375 -81.105156 L 114.836406 -80.878594 L 115.066875 -80.460625 L 115.008281 -79.753594 L 114.645 -79.16375 L 114.965313 -78.866875 L 114.645 -78.366875 L 114.781719 -77.866875 L 115.055156 -76.749687 L 115.555156 -76.339531 L 115.418438 -75.8825 L 116.148906 -74.812187 L 116.695781 -74.53875 L 116.672344 -74.241875 L 116.602031 -73.878594 L 117.172344 -72.761406 L 117.652813 -72.511406 L 117.727031 -71.827812 L 118.0825 -71.581719 L 117.453594 -71.484062 L 117.187969 -70.687187 L 117.746563 -70.214531 L 117.855938 -69.812187 L 118.109844 -69.003594 Z M 118.324688 -68.355156 " transform="matrix(1,0,0,-1,-0.52,-0.57)"/>
<path style="fill-rule:nonzero;fill:rgb(89.99939%,89.99939%,89.99939%);fill-opacity:1;stroke-width:0.69739;stroke-linecap:butt;stroke-linejoin:miter;stroke:rgb(100%,100%,100%);stroke-opacity:1;stroke-miterlimit:10;" d="M 111.273906 -49.437188 L 110.77 -48.823906 L 110.543438 -48.366875 L 97.719219 -48.847344 L 97.262188 -48.866875 L 97.516094 -49.370781 L 97.469219 -49.823906 L 97.969219 -50.60125 L 98.586406 -51.417656 L 99.199688 -51.964531 L 99.629375 -52.011406 L 99.930156 -52.195 L 99.930156 -52.784844 L 99.562969 -53.105156 L 99.473125 -53.562188 L 99.883281 -54.245781 L 100.383281 -54.835625 L 100.883281 -55.198906 L 101.156719 -57.523125 L 101.219219 -64.710625 L 101.266094 -65.644219 L 101.355938 -66.718437 L 105.828594 -66.546562 L 110.449688 -66.409844 L 114.598125 -66.249687 L 116.918438 -66.202812 L 117.352031 -66.886406 L 117.215313 -67.546562 L 116.602031 -68.023125 L 116.484844 -68.390312 L 117.559063 -68.480156 L 118.3325 -68.343437 L 118.67625 -67.249687 L 118.805156 -66.081719 L 119.223125 -65.573906 L 119.742656 -65.277031 L 119.750469 -64.667656 L 119.953594 -64.284844 L 119.617656 -63.777031 L 119.352031 -63.972344 L 118.953594 -63.527031 L 118.699688 -62.581719 L 118.855938 -62.077813 L 118.469219 -61.394219 L 118.105938 -60.484063 L 117.148906 -60.323906 L 115.762188 -59.210625 L 115.418438 -58.390313 L 115.578594 -57.753594 L 115.98875 -56.546563 L 116.078594 -55.972344 L 115.691875 -55.769219 L 114.324688 -55.609063 L 114.121563 -55.269219 L 114.098125 -54.425469 L 113.004375 -53.741875 L 111.61375 -52.195 L 111.160625 -50.734063 L 111.11375 -49.894219 Z M 111.273906 -49.437188 " transform="matrix(1,0,0,-1,-0.52,-0.57)"/>
<path style="fill-rule:nonzero;fill:rgb(89.99939%,89.99939%,89.99939%);fill-opacity:1;stroke-width:0.69739;stroke-linecap:butt;stroke-linejoin:miter;stroke:rgb(100%,100%,100%);stroke-opacity:1;stroke-miterlimit:10;" d="M 133.9575 -70.847344 L 133.9575 -71.280937 L 133.98875 -71.698906 L 134.117656 -72.374687 L 134.797344 -73.952812 L 135.277813 -75.917656 L 135.570781 -77.144219 L 135.891094 -78.109062 L 136.180156 -79.495781 L 136.598125 -80.749687 L 137.11375 -81.429375 L 137.211406 -82.105156 L 137.598125 -82.265312 L 137.629375 -82.683281 L 137.277813 -83.652031 L 137.180156 -84.292656 L 137.148906 -84.679375 L 137.469219 -85.550469 L 137.535625 -86.612969 L 137.371563 -87.097344 L 137.500469 -87.2575 L 137.793438 -87.417656 L 137.8325 -88.058281 L 138.277813 -88.72625 L 138.727031 -89.159844 L 140.305156 -89.191094 L 142.461406 -89.062187 L 146.746563 -88.804375 L 147.8325 -88.671562 L 148.742656 -88.675469 L 148.773906 -89.253594 L 149.289531 -89.417656 L 149.355938 -88.546562 L 149.031719 -87.644219 L 149.258281 -87.323906 L 150.418438 -87.484062 L 151.410625 -87.546562 L 151.254375 -86.292656 L 151.7075 -84.292656 L 151.996563 -83.456719 L 151.898906 -82.941094 L 152.562969 -81.698906 L 152.461406 -81.429375 L 152.0825 -81.57 L 151.566875 -81.312187 L 151.437969 -80.890312 L 151.180156 -80.183281 L 150.727031 -79.765312 L 150.211406 -79.636406 L 149.891094 -78.667656 L 149.309063 -77.405937 L 148.469219 -77.019219 L 148.05125 -76.6325 L 147.793438 -76.116875 L 147.375469 -75.730156 L 146.92625 -75.472344 L 146.473125 -74.894219 L 145.859844 -74.445 L 144.961406 -74.089531 L 144.86375 -73.800469 L 144.379375 -73.218437 L 144.281719 -72.929375 L 143.605938 -71.941094 L 142.906719 -71.960625 L 142.156719 -71.487969 L 141.875469 -71.230156 L 141.809063 -70.878594 L 141.984844 -70.491875 L 142.42625 -70.269219 L 142.30125 -69.85125 Z M 133.9575 -70.847344 " transform="matrix(1,0,0,-1,-0.52,-0.57)"/>
<path style="fill-rule:nonzero;fill:rgb(89.99939%,89.99939%,89.99939%);fill-opacity:1;stroke-width:0.69739;stroke-linecap:butt;stroke-linejoin:miter;stroke:rgb(100%,100%,100%);stroke-opacity:1;stroke-miterlimit:10;" d="M 152.418438 -81.327812 L 152.066875 -81.523125 L 151.55125 -81.265312 L 151.422344 -80.847344 L 151.164531 -80.136406 L 150.711406 -79.718437 L 150.195781 -79.589531 L 149.875469 -78.624687 L 149.328594 -77.433281 L 148.48875 -77.046562 L 148.070781 -76.659844 L 147.812969 -76.144219 L 147.395 -75.7575 L 146.945781 -75.499687 L 146.492656 -74.917656 L 145.879375 -74.468437 L 144.977031 -74.112969 L 144.883281 -73.823906 L 144.398906 -73.245781 L 144.30125 -72.952812 L 143.625469 -71.921562 L 142.949688 -71.956719 L 142.145 -71.472344 L 141.887188 -71.214531 L 141.820781 -70.859062 L 141.984844 -70.472344 L 142.434063 -70.280937 L 142.3325 -69.823906 L 143.480938 -69.359062 L 145.297344 -68.445 L 146.848125 -68.284844 L 150.059063 -68.198906 L 150.5825 -68.573906 L 150.918438 -69.241875 L 151.773906 -69.120781 L 154.289531 -68.831719 L 154.867656 -68.991875 L 157.379375 -70.5075 L 159.395 -72.124687 L 158.312969 -73.210625 L 157.797344 -74.437187 L 157.703594 -75.691094 L 157.379375 -75.855156 L 157.156719 -76.402031 L 156.672344 -76.530937 L 156.254375 -77.237969 L 155.703594 -77.784844 L 155.254375 -78.460625 L 154.934063 -78.624687 L 154.223125 -79.300469 L 153.645 -79.331719 L 153.836406 -79.97625 L 152.840313 -81.07 Z M 152.418438 -81.327812 " transform="matrix(1,0,0,-1,-0.52,-0.57)"/>
<path style="fill-rule:nonzero;fill:rgb(89.99939%,89.99939%,89.99939%);fill-opacity:1;stroke-width:0.69739;stroke-linecap:butt;stroke-linejoin:miter;stroke:rgb(100%,100%,100%);stroke-opacity:1;stroke-miterlimit:10;" d="M 144.660625 -58.835625 L 144.203594 -59.312188 L 143.48875 -60.109063 L 142.508281 -61.198906 L 142.266094 -61.53875 L 142.254375 -61.956719 L 141.379375 -62.390313 L 140.254375 -63.066094 L 138.812969 -63.425469 L 128.477031 -64.402031 L 125.336406 -64.753594 L 124.414531 -64.855156 L 123.645 -64.85125 L 123.598125 -65.691094 L 121.969219 -65.722344 L 120.586406 -65.85125 L 118.992656 -65.839531 L 119.234844 -65.573906 L 119.730938 -65.269219 L 119.777813 -64.628594 L 119.961406 -64.265312 L 119.641094 -63.761406 L 119.80125 -63.378594 L 120.250469 -63.027031 L 120.668438 -62.898125 L 121.215313 -63.155938 L 121.92625 -63.41375 L 122.152813 -63.347344 L 122.184063 -62.898125 L 121.92625 -62.41375 L 121.98875 -61.964531 L 122.375469 -61.671563 L 122.891094 -61.542656 L 123.215313 -61.41375 L 123.05125 -61.062188 L 122.922344 -60.675469 L 123.223125 -60.47625 C 123.223125 -60.468438 123.473125 -59.773125 123.469219 -59.745781 L 124.078594 -59.452813 L 125.141094 -59.2575 L 126.035625 -59.16375 L 126.312969 -59.487969 L 126.617656 -59.659844 L 126.934063 -59.042656 L 127.566875 -58.784844 L 128.008281 -59.081719 L 128.090313 -59.280938 L 128.324688 -59.22625 L 128.293438 -58.640313 L 128.914531 -58.28875 L 129.344219 -58.077813 L 129.648906 -58.405938 L 130.309063 -58.398125 L 130.42625 -58.085625 L 130.352031 -57.636406 L 130.871563 -56.839531 L 131.824688 -56.152031 L 131.965313 -55.191094 L 132.547344 -55.097344 L 133.30125 -54.769219 L 133.789531 -54.429375 L 133.750469 -54.116875 L 133.52 -53.827813 L 133.633281 -53.230156 L 134.469219 -53.206719 L 134.92625 -53.058281 L 135.594219 -53.343438 L 136.004375 -54.214531 L 137.023906 -54.214531 L 137.434063 -54.655938 L 137.754375 -54.628594 L 138.273906 -54.370781 L 139.316875 -54.487969 L 139.8325 -54.530938 L 140.168438 -54.120781 L 140.687969 -53.835625 L 141.062969 -53.695 L 141.191875 -54.261406 L 141.598125 -54.472344 L 142.125469 -54.886406 L 142.148906 -56.015313 L 142.309063 -56.331719 L 142.828594 -56.640313 L 142.980938 -57.097344 L 143.809063 -57.780938 L 144.168438 -58.503594 Z M 144.660625 -58.835625 " transform="matrix(1,0,0,-1,-0.52,-0.57)"/>
<path style="fill-rule:nonzero;fill:rgb(89.99939%,89.99939%,89.99939%);fill-opacity:1;stroke-width:0.69739;stroke-linecap:butt;stroke-linejoin:miter;stroke:rgb(100%,100%,100%);stroke-opacity:1;stroke-miterlimit:10;" d="M 125.793438 -91.741875 L 125.496563 -88.886406 L 124.945781 -85.152031 L 124.980938 -82.347344 L 125.141094 -76.16375 L 125.109844 -72.847344 L 125.141094 -71.566094 L 134.004375 -70.843437 L 133.977031 -71.280937 L 134.008281 -71.698906 L 134.137188 -72.374687 L 134.812969 -73.952812 L 135.297344 -75.917656 L 135.586406 -77.144219 L 135.906719 -78.109062 L 136.199688 -79.495781 L 136.617656 -80.749687 L 137.133281 -81.425469 L 137.227031 -82.105156 L 137.61375 -82.265312 L 137.648906 -82.683281 L 137.293438 -83.648125 L 137.195781 -84.292656 L 137.164531 -84.679375 L 137.484844 -85.550469 L 137.55125 -86.612969 L 137.391094 -87.097344 L 137.52 -87.2575 L 137.809063 -87.417656 L 137.875469 -87.995781 L 136.758281 -87.921562 L 135.406719 -88.050469 L 130.316875 -88.6325 L 128.242656 -88.91375 L 128.195781 -89.484062 L 128.55125 -89.839531 L 129.066875 -90.22625 L 129.184063 -91.808281 L 128.078594 -92.32 L 127.531719 -92.2575 L 128.078594 -91.870781 L 128.078594 -91.675469 L 127.465313 -90.484062 L 127.016094 -90.355156 L 126.727031 -91.22625 L 126.469219 -91.773125 L 126.340313 -91.741875 Z M 125.793438 -91.741875 " transform="matrix(1,0,0,-1,-0.52,-0.57)"/>
<path style="fill-rule:nonzero;fill:rgb(89.99939%,89.99939%,89.99939%);fill-opacity:1;stroke-width:0.69739;stroke-linecap:butt;stroke-linejoin:miter;stroke:rgb(100%,100%,100%);stroke-opacity:1;stroke-miterlimit:10;" d="M 121.141094 -91.491875 L 120.484844 -90.859062 L 120.687969 -89.765312 L 120.555156 -89.585625 L 118.711406 -89.784844 L 113.723125 -89.878594 L 113.586406 -89.402031 L 113.77 -87.714531 L 114.430156 -86.530937 L 115.434063 -84.800469 L 115.316875 -84.32 L 115.566875 -84.187187 L 115.660625 -83.796562 L 115.203594 -83.386406 L 115.180156 -82.999687 L 114.816875 -82.1325 L 114.789531 -80.870781 L 103.734844 -81.054375 L 103.73875 -82.964531 L 103.875469 -84.831719 L 104.012188 -85.605156 L 104.516094 -86.425469 L 104.695781 -87.425469 L 105.562969 -88.519219 L 105.609844 -89.159844 L 105.742656 -89.296562 L 105.609844 -90.980156 L 105.016094 -91.984062 L 105.336406 -92.394219 L 105.199688 -92.894219 L 105.062969 -94.35125 L 104.789531 -94.987969 L 104.812969 -95.710625 L 105.746563 -95.405937 L 108.160625 -95.448906 L 110.223125 -96.155937 L 111.508281 -96.3825 L 112.250469 -96.093437 L 112.895 -96.316094 L 113.539531 -96.511406 L 113.699688 -96.093437 L 113.055156 -95.866875 L 112.539531 -95.964531 L 111.992656 -95.640312 C 111.992656 -95.640312 112.023906 -95.3825 112.152813 -95.35125 C 112.281719 -95.32 112.766094 -95.159844 112.766094 -95.159844 L 113.121563 -95.448906 L 113.473125 -95.253594 L 114.117656 -95.3825 L 114.410625 -95.866875 L 114.473125 -96.316094 L 115.375469 -96.3825 L 115.730938 -96.737969 L 115.566875 -97.058281 L 115.309063 -97.218437 L 115.633281 -97.542656 L 117.309063 -98.249687 L 118.016094 -97.991875 L 118.211406 -97.511406 L 118.727031 -97.3825 L 119.078594 -97.089531 L 119.336406 -97.284844 L 119.496563 -97.862969 L 119.047344 -98.027031 L 119.17625 -98.155937 L 119.852031 -97.898125 L 120.305156 -97.218437 L 120.465313 -97.124687 L 120.047344 -97.058281 L 120.2075 -96.737969 L 120.17625 -96.445 L 120.594219 -96.35125 L 120.820781 -96.093437 L 120.949688 -96.253594 C 120.949688 -96.253594 120.914531 -96.866875 121.078594 -96.866875 C 121.23875 -96.866875 121.914531 -96.995781 121.914531 -96.995781 L 122.719219 -97.3825 L 122.914531 -97.671562 L 123.492656 -97.671562 L 123.719219 -97.862969 L 124.168438 -97.253594 L 124.168438 -96.960625 L 123.910625 -96.960625 L 123.234844 -96.41375 L 122.074688 -96.253594 L 121.430156 -95.804375 L 121.656719 -95.253594 L 122.105938 -95.32 L 122.141094 -95.191094 L 121.785625 -94.995781 L 121.785625 -94.902031 L 122.430156 -94.902031 L 122.785625 -94.28875 L 122.527813 -93.902031 L 122.461406 -93.355156 L 122.172344 -93.386406 L 121.785625 -93.804375 L 121.656719 -94.32 L 121.043438 -94.191094 L 120.852031 -93.839531 L 121.2075 -93.452812 L 121.586406 -92.765312 L 121.371563 -92.284844 Z M 121.141094 -91.491875 " transform="matrix(1,0,0,-1,-0.52,-0.57)"/>
<path style="fill-rule:nonzero;fill:rgb(89.99939%,89.99939%,89.99939%);fill-opacity:1;stroke-width:0.69739;stroke-linecap:butt;stroke-linejoin:miter;stroke:rgb(100%,100%,100%);stroke-opacity:1;stroke-miterlimit:10;" d="M 125.840313 -91.527031 L 125.789531 -91.777031 L 124.762188 -91.777031 L 124.469219 -91.616875 L 124.05125 -91.550469 L 122.699688 -91.937187 L 122.344219 -91.777031 L 121.828594 -92.616875 L 121.609844 -92.769219 L 121.387188 -92.273125 L 121.156719 -91.499687 L 120.473125 -90.862969 L 120.703594 -89.7575 L 120.566875 -89.573906 L 120.199688 -89.620781 L 118.621563 -89.796562 L 113.730938 -89.870781 L 113.578594 -89.425469 L 113.754375 -87.7575 L 114.375469 -86.624687 L 115.414531 -84.804375 L 115.328594 -84.32 L 115.574688 -84.187187 L 115.660625 -83.804375 L 115.199688 -83.390312 L 115.17625 -82.964531 L 114.809063 -82.144219 L 114.789531 -80.956719 L 115.05125 -80.460625 L 115.008281 -79.780937 L 114.656719 -79.167656 L 114.961406 -78.870781 L 114.645 -78.374687 L 114.73875 -78.042656 L 115.05125 -76.741875 L 115.547344 -76.339531 L 115.418438 -75.866875 L 116.148906 -74.808281 L 116.711406 -74.53875 L 116.668438 -74.206719 L 116.609844 -73.870781 L 117.184063 -72.761406 L 117.652813 -72.515312 L 117.680156 -72.339531 L 125.121563 -71.566094 L 125.160625 -72.816094 L 125.191875 -76.1325 L 125.031719 -82.32 L 125.000469 -85.120781 L 125.547344 -88.859062 Z M 125.840313 -91.527031 " transform="matrix(1,0,0,-1,-0.52,-0.57)"/>
<path style="fill-rule:nonzero;fill:rgb(89.99939%,89.99939%,89.99939%);fill-opacity:1;stroke-width:0.69739;stroke-linecap:butt;stroke-linejoin:miter;stroke:rgb(100%,100%,100%);stroke-opacity:1;stroke-miterlimit:10;" d="M 113.414531 -39.769219 L 113.469219 -40.323906 L 113.910625 -40.437188 L 114.102031 -40.683281 L 114.199688 -41.054375 L 114.9575 -41.722344 L 115.094219 -42.198906 L 114.9575 -42.878594 L 114.645 -43.523125 L 114.484844 -44.07 L 114.05125 -44.390313 L 113.7075 -44.503594 L 112.598125 -44.874688 L 112.320781 -45.640313 L 112.465313 -45.91375 L 112.8325 -46.249688 L 112.773906 -47.054375 L 112.42625 -47.359063 L 112.27 -47.687188 L 112.297344 -48.241875 L 111.918438 -48.331719 L 111.598125 -48.554375 L 111.539531 -48.823906 L 111.598125 -49.241875 L 111.285625 -49.464531 L 110.793438 -48.843438 L 110.543438 -48.355156 L 97.445781 -48.855156 L 97.262188 -48.886406 L 96.852031 -47.987969 L 96.809063 -46.667656 L 96.48875 -45.847344 L 96.352031 -44.800469 L 95.895 -44.07 L 95.715313 -43.112969 L 95.168438 -41.609063 L 94.941875 -40.53875 L 94.668438 -40.105156 L 94.348125 -39.562188 L 94.73875 -38.593438 L 95.012188 -37.456719 L 94.465313 -37.046563 L 94.371563 -36.499688 L 94.555156 -35.999688 L 94.895 -35.999688 L 111.367656 -35.745781 L 111.531719 -36.577813 L 111.980938 -36.890313 L 112.031719 -37.175469 L 111.629375 -37.847344 L 111.664531 -38.487969 L 112.168438 -39.245781 L 112.668438 -39.503594 L 113.285625 -39.60125 Z M 113.414531 -39.769219 " transform="matrix(1,0,0,-1,-0.52,-0.57)"/>
<path style="fill-rule:nonzero;fill:rgb(89.99939%,89.99939%,89.99939%);fill-opacity:1;stroke-width:0.69739;stroke-linecap:butt;stroke-linejoin:miter;stroke:rgb(100%,100%,100%);stroke-opacity:1;stroke-miterlimit:10;" d="M 94.695781 -25.667656 L 94.602031 -23.984063 L 94.23875 -22.527031 L 93.875469 -19.839531 L 93.781719 -17.878594 L 93.418438 -17.195 L 93.098125 -16.195 L 93.098125 -14.144219 L 93.234844 -13.370781 L 92.871563 -12.284844 L 98.879375 -12.28875 L 98.941875 -10.648125 L 99.070781 -10.616875 L 99.52 -10.710625 L 99.906719 -10.874688 L 100.070781 -11.968438 L 100.359844 -13.191094 L 100.680156 -13.515313 L 101.648906 -13.515313 L 101.711406 -13.804375 L 102.969219 -13.866875 L 102.969219 -14.28875 L 103.934063 -14.28875 L 104.000469 -14.030938 L 104.223125 -13.804375 L 104.67625 -13.675469 L 104.934063 -13.866875 L 105.512188 -13.866875 L 106.285625 -14.3825 L 107.348125 -14.866875 L 107.8325 -14.964531 L 107.930156 -14.769219 L 108.219219 -14.675469 L 108.316875 -15.253594 L 108.8325 -15.511406 L 108.92625 -15.41375 L 109.184063 -15.445 L 109.184063 -15.866875 L 109.699688 -16.058281 L 110.312969 -16.058281 L 110.633281 -15.898125 L 111.277813 -15.253594 L 111.793438 -15.155938 L 111.953594 -15.511406 L 112.05125 -15.769219 L 112.246563 -15.769219 L 112.437969 -15.609063 L 114.211406 -15.542656 L 114.562969 -16.155938 L 114.691875 -16.155938 L 114.836406 -15.941094 L 115.719219 -15.866875 L 115.598125 -16.32 L 114.812969 -16.687188 L 112.973125 -17.495781 L 112.02 -17.894219 L 111.406719 -18.409844 L 110.92625 -19.120781 L 110.473125 -19.890313 L 110.117656 -20.054375 L 109.219219 -21.050469 L 108.961406 -21.085625 L 108.098125 -21.6325 L 107.605938 -22.273125 L 107.562969 -22.905938 L 107.578594 -24.511406 L 107.305156 -24.847344 L 106.293438 -25.597344 L 105.848125 -26.78875 L 106.422344 -27.234063 L 106.555156 -27.874688 L 106.187969 -28.523125 L 106.219219 -29.269219 L 106.293438 -30.609063 L 106.898906 -31.206719 L 107.562969 -31.206719 L 107.937969 -31.831719 L 108.609844 -31.933281 L 109.379375 -33.062188 L 110.793438 -33.8825 L 111.219219 -34.456719 L 111.352031 -35.737969 L 95.172344 -35.968438 L 95.105938 -28.859063 L 95.012188 -28.265313 L 94.191875 -27.581719 L 93.965313 -27.218438 L 93.965313 -26.898125 L 94.375469 -26.581719 L 94.648906 -26.308281 Z M 94.695781 -25.667656 " transform="matrix(1,0,0,-1,-0.52,-0.57)"/>
<path style="fill-rule:nonzero;fill:rgb(50%,50%,50%);fill-opacity:1;stroke-width:0.69739;stroke-linecap:butt;stroke-linejoin:miter;stroke:rgb(100%,100%,100%);stroke-opacity:1;stroke-miterlimit:10;" d="M 75.785625 -63.925469 L 72.461406 -63.671563 L 72.285625 -65.855156 L 76.36375 -66.085625 L 82.750469 -66.343437 L 82.285625 -71.210625 L 82.195781 -74.761406 L 82.23875 -75.081719 L 83.105938 -75.812187 L 83.516094 -76.03875 L 83.652813 -75.991875 L 83.789531 -75.581719 L 84.062969 -75.948906 L 84.473125 -75.948906 L 84.473125 -75.675469 L 85.02 -75.948906 L 84.92625 -76.722344 L 85.746563 -76.769219 L 86.250469 -76.995781 L 87.070781 -77.1325 L 87.570781 -77.495781 L 88.023906 -77.085625 L 88.7075 -77.222344 L 89.211406 -77.905937 L 89.391094 -77.905937 L 89.391094 -78.362969 L 89.848125 -78.499687 L 90.305156 -78.042656 L 90.668438 -78.179375 L 91.168438 -78.179375 L 91.352031 -78.679375 L 92.605938 -79.093437 L 92.879375 -78.956719 L 93.242656 -78.140312 L 93.473125 -78.140312 L 93.699688 -78.550469 L 94.52 -78.687187 L 95.250469 -78.956719 L 95.840313 -79.140312 L 96.203594 -78.956719 L 96.340313 -78.456719 L 97.2075 -78.456719 L 97.617656 -78.640312 L 98.164531 -78.230156 L 98.391094 -78.230156 L 98.527813 -78.550469 L 99.348125 -78.550469 L 99.668438 -78.140312 L 100.031719 -78.230156 L 100.441875 -78.730156 L 101.078594 -79.093437 L 101.719219 -79.277031 L 102.105938 -79.499687 L 102.027813 -72.085625 L 101.754375 -69.898125 L 101.723125 -68.128594 L 101.434063 -66.827812 L 101.277813 -65.398125 L 101.266094 -64.636406 L 98.848125 -64.698906 L 89.602031 -64.609062 L 80.625469 -64.198906 Z M 75.785625 -63.925469 " transform="matrix(1,0,0,-1,-0.52,-0.57)"/>
<path style="fill-rule:nonzero;fill:rgb(50%,50%,50%);fill-opacity:1;stroke-width:0.69739;stroke-linecap:butt;stroke-linejoin:miter;stroke:rgb(100%,100%,100%);stroke-opacity:1;stroke-miterlimit:10;" d="M 72.023906 -65.866875 L 76.543438 -66.085625 L 82.73875 -66.312187 L 82.273906 -70.987969 L 82.215313 -74.605156 L 82.230938 -75.019219 L 83.094219 -75.780937 L 83.492656 -76.066094 L 83.727031 -75.956719 L 83.80125 -75.593437 L 84.027813 -75.952812 L 84.449688 -75.960625 L 84.449688 -75.675469 L 84.781719 -75.866875 L 85.008281 -75.948906 L 84.937969 -76.737969 L 85.750469 -76.7575 L 86.336406 -76.995781 L 87.121563 -77.10125 L 87.598125 -77.515312 L 88.02 -77.10125 L 88.762188 -77.222344 L 89.203594 -77.866875 L 89.418438 -77.929375 L 89.387188 -78.32 L 89.828594 -78.480156 L 90.293438 -78.07 L 90.719219 -78.191094 L 91.160625 -78.198906 L 91.348125 -78.683281 L 92.609844 -79.105156 L 92.92625 -78.952812 L 93.223125 -78.120781 L 93.289531 -78.120781 L 93.473125 -78.136406 L 93.715313 -78.550469 L 94.500469 -78.683281 L 95.164531 -78.905937 L 95.848125 -79.144219 L 96.215313 -78.948906 L 96.355938 -78.448906 L 97.242656 -78.456719 L 97.602031 -78.644219 L 98.160625 -78.222344 L 98.379375 -78.234062 L 98.55125 -78.550469 L 99.359844 -78.550469 L 99.660625 -78.148125 L 100.031719 -78.230156 L 100.422344 -78.706719 L 101.121563 -79.116875 L 101.691875 -79.277031 L 101.992656 -79.437187 L 102.480938 -79.835625 L 103.086406 -79.57 L 103.625469 -79.796562 L 103.734844 -81.011406 L 103.727031 -82.945 L 103.86375 -84.847344 L 104.004375 -85.562187 L 104.539531 -86.445 L 104.715313 -87.429375 L 105.559063 -88.534844 L 105.598125 -89.159844 L 105.746563 -89.316094 L 105.598125 -90.987969 L 105.027813 -91.984062 L 105.3325 -92.41375 L 105.2075 -92.878594 L 105.074688 -94.355156 L 104.773906 -95.019219 L 104.8325 -95.718437 L 103.703594 -96.034844 L 101.73875 -96.937187 L 101.547344 -97.323906 L 101.031719 -97.710625 L 100.609844 -97.999687 L 100.352031 -98.159844 L 99.227031 -99.222344 L 98.680156 -99.640312 L 97.617656 -100.284844 L 96.48875 -100.769219 L 95.230938 -101.445 L 94.879375 -101.734062 L 93.719219 -102.445 L 93.043438 -102.573906 L 92.27 -103.667656 L 91.465313 -103.734062 L 91.27 -104.120781 L 91.719219 -104.5075 L 91.430156 -105.60125 L 91.172344 -106.503594 L 90.949688 -107.277031 L 90.785625 -108.179375 L 90.949688 -108.659844 L 91.30125 -110.046562 L 91.496563 -111.269219 L 91.848125 -111.82 L 91.656719 -112.109062 L 91.043438 -112.495781 L 89.918438 -111.722344 L 88.820781 -111.495781 L 88.562969 -111.593437 L 87.918438 -111.464531 L 87.0825 -110.85125 L 86.05125 -110.624687 L 84.539531 -109.948906 L 84.117656 -109.175469 L 83.859844 -107.886406 L 83.215313 -107.503594 L 83.086406 -107.050469 L 83.215313 -106.921562 L 83.281719 -106.245781 L 83.023906 -106.116875 L 82.895 -105.921562 L 83.152813 -105.054375 L 82.8325 -104.60125 L 82.187969 -104.343437 L 81.508281 -103.47625 L 80.80125 -102.155937 L 79.965313 -101.640312 L 79.996563 -101.253594 L 78.934063 -98.804375 L 78.77 -97.968437 L 78.418438 -97.581719 L 78.387188 -97.28875 L 77.191875 -96.22625 L 76.67625 -95.616875 L 76.67625 -95.390312 L 76.164531 -94.972344 L 74.809063 -94.745781 L 73.328594 -94.616875 L 72.715313 -94.167656 L 71.812969 -94.519219 L 71.105938 -94.812187 L 70.652813 -95.452812 L 70.461406 -96.195 L 69.590313 -97.417656 L 69.109844 -97.902031 L 68.594219 -97.710625 L 68.23875 -97.484062 L 67.852031 -97.355156 L 67.078594 -96.905937 L 67.078594 -96.777031 L 66.723125 -96.390312 L 65.695781 -95.968437 L 64.211406 -94.425469 L 63.762188 -93.487969 L 63.762188 -91.878594 L 63.117656 -90.589531 L 63.02 -90.042656 L 62.699688 -89.85125 L 62.473125 -89.429375 L 61.473125 -89.011406 L 61.215313 -88.691094 L 59.797344 -87.112969 L 59.539531 -86.468437 L 58.605938 -86.015312 L 58.316875 -85.148125 L 57.80125 -84.566094 L 57.414531 -84.468437 L 57.285625 -83.53875 L 58.879375 -83.675469 L 64.664531 -84.222344 L 70.449688 -84.53875 L 70.895 -80.66375 L 71.672344 -69.593437 L 71.98875 -65.859062 L 72.262188 -65.862969 M 91.996563 -111.624687 L 91.883281 -110.206719 L 91.336406 -108.773125 L 91.223125 -107.374687 L 91.527813 -105.730156 L 92.187969 -104.362969 L 92.879375 -103.280937 L 93.508281 -102.573906 L 93.637188 -102.620781 L 92.687969 -103.941094 L 91.816875 -105.245781 L 91.414531 -106.566094 L 91.352031 -107.597344 L 91.527813 -108.823906 L 92.043438 -110.2575 L 92.141094 -111.284844 L 92.172344 -111.577812 Z M 91.996563 -111.624687 " transform="matrix(1,0,0,-1,-0.52,-0.57)"/>
<path style="fill-rule:nonzero;fill:rgb(50%,50%,50%);fill-opacity:1;stroke-width:0.69739;stroke-linecap:butt;stroke-linejoin:miter;stroke:rgb(100%,100%,100%);stroke-opacity:1;stroke-miterlimit:10;" d="M 57.414531 -84.487969 L 57.262188 -83.542656 L 58.984844 -83.644219 L 64.996563 -84.234062 L 70.430156 -84.57 L 70.871563 -80.843437 L 71.641094 -69.706719 L 71.984844 -65.843437 L 72.297344 -65.870781 L 72.461406 -63.644219 L 51.73875 -61.527031 L 48.254375 -85.523125 L 51.3325 -85.921562 L 51.590313 -83.921562 Z M 57.414531 -84.487969 " transform="matrix(1,0,0,-1,-0.52,-0.57)"/>
<path style="fill-rule:nonzero;fill:rgb(50%,50%,50%);fill-opacity:1;stroke-width:0.69739;stroke-linecap:butt;stroke-linejoin:miter;stroke:rgb(100%,100%,100%);stroke-opacity:1;stroke-miterlimit:10;" d="M 101.199688 -64.636406 L 98.684063 -64.675469 L 89.500469 -64.585625 L 80.621563 -64.175469 L 75.715313 -63.925469 L 76.48875 -51.054375 L 80.891094 -51.187188 L 88.918438 -51.355156 L 97.746563 -51.550469 L 98.762188 -51.550469 L 99.195781 -51.984063 L 99.598125 -51.980156 L 99.92625 -52.179375 L 99.914531 -52.780938 L 99.547344 -53.124688 L 99.480938 -53.57 L 99.848125 -54.245781 L 100.437969 -54.8825 L 100.902813 -55.202813 L 101.160625 -57.445 Z M 101.199688 -64.636406 " transform="matrix(1,0,0,-1,-0.52,-0.57)"/>
<path style="fill-rule:nonzero;fill:rgb(89.99939%,89.99939%,89.99939%);fill-opacity:1;stroke-width:0.69739;stroke-linecap:butt;stroke-linejoin:miter;stroke:rgb(100%,100%,100%);stroke-opacity:1;stroke-miterlimit:10;" d="M 96.859844 -47.960625 L 97.500469 -49.359063 L 97.477031 -49.82 L 98.164531 -50.91375 L 98.7075 -51.542656 L 97.699688 -51.542656 L 89.035625 -51.355156 L 80.910625 -51.175469 L 76.477031 -51.019219 L 76.687969 -46.769219 L 70.250469 -46.191094 L 71.11375 -37.421563 L 74.211406 -37.624688 L 78.223125 -37.85125 L 81.773906 -38.081719 L 86.512188 -38.308281 L 88.652813 -38.218438 L 89.062969 -38.671563 L 90.02 -39.265313 L 90.246563 -39.448906 L 91.11375 -39.175469 L 91.887188 -39.081719 L 92.434063 -39.03875 L 92.80125 -39.312188 L 93.609844 -39.628594 L 94.199688 -39.948906 L 94.289531 -40.265313 L 94.473125 -40.675469 L 94.836406 -40.675469 L 94.996563 -40.687188 L 95.17625 -41.620781 L 95.758281 -43.308281 L 95.871563 -44.054375 L 96.375469 -44.808281 L 96.48875 -45.827813 L 96.809063 -46.671563 Z M 96.859844 -47.960625 " transform="matrix(1,0,0,-1,-0.52,-0.57)"/>
<path style="fill-rule:nonzero;fill:rgb(89.99939%,89.99939%,89.99939%);fill-opacity:1;stroke-width:0.69739;stroke-linecap:butt;stroke-linejoin:miter;stroke:rgb(100%,100%,100%);stroke-opacity:1;stroke-miterlimit:10;" d="M 94.934063 -40.652031 L 94.92625 -40.53875 L 94.348125 -39.57 L 94.719219 -38.6325 L 95.016094 -37.460625 L 94.461406 -37.046563 L 94.387188 -36.499688 L 94.543438 -35.991875 L 95.180156 -35.991875 L 95.152813 -34.995781 L 95.086406 -28.984063 L 94.965313 -28.234063 L 94.152813 -27.57 L 93.9575 -27.234063 L 93.945781 -26.91375 L 94.348125 -26.609063 L 94.652813 -26.277031 L 94.703594 -25.749688 L 83.094219 -25.429375 L 72.17625 -24.741875 L 71.11375 -37.433281 L 74.02 -37.612969 L 77.996563 -37.85125 L 81.531719 -38.03875 L 86.27 -38.296563 L 88.656719 -38.214531 L 89.047344 -38.659844 L 90.0825 -39.308281 L 90.234844 -39.452813 L 91.141094 -39.16375 L 92.445781 -39.042656 L 92.777813 -39.308281 L 93.61375 -39.624688 L 94.203594 -39.952813 L 94.281719 -40.245781 L 94.48875 -40.695 Z M 94.934063 -40.652031 " transform="matrix(1,0,0,-1,-0.52,-0.57)"/>
<path style="fill-rule:nonzero;fill:rgb(89.99939%,89.99939%,89.99939%);fill-opacity:1;stroke-width:0.69739;stroke-linecap:butt;stroke-linejoin:miter;stroke:rgb(100%,100%,100%);stroke-opacity:1;stroke-miterlimit:10;" d="M 94.7075 -25.687188 L 94.586406 -24.0075 L 94.250469 -22.648125 L 93.875469 -20.054375 L 93.781719 -17.862969 L 93.437969 -17.253594 L 93.086406 -16.218438 L 93.094219 -14.136406 L 93.215313 -13.374688 L 92.852031 -12.284844 L 87.145 -12.171563 L 83.437969 -12.042656 L 78.156719 -11.784844 L 73.586406 -11.359063 L 72.191875 -24.745781 L 83.137188 -25.409844 Z M 94.7075 -25.687188 " transform="matrix(1,0,0,-1,-0.52,-0.57)"/>
<path style="fill-rule:nonzero;fill:rgb(89.99939%,89.99939%,89.99939%);fill-opacity:1;stroke-width:0.69739;stroke-linecap:butt;stroke-linejoin:miter;stroke:rgb(100%,100%,100%);stroke-opacity:1;stroke-miterlimit:10;" d="M 71.809063 -28.550469 L 50.539531 -25.866875 L 47.730938 -43.491875 L 70.30125 -46.198906 Z M 71.809063 -28.550469 " transform="matrix(1,0,0,-1,-0.52,-0.57)"/>
<path style="fill-rule:nonzero;fill:rgb(89.99939%,89.99939%,89.99939%);fill-opacity:1;stroke-width:0.69739;stroke-linecap:butt;stroke-linejoin:miter;stroke:rgb(100%,100%,100%);stroke-opacity:1;stroke-miterlimit:10;" d="M 73.566875 -11.35125 L 67.453594 -10.792656 L 61.625469 -10.081719 L 55.793438 -9.277031 L 49.352031 -8.214531 L 45.680156 -7.53875 L 39.160625 -6.155938 L 38.266094 -10.409844 L 38.949688 -11.91375 L 38.67625 -12.823906 L 39.043438 -13.737969 L 39.680156 -14.011406 L 40.598125 -16.155938 L 41.137188 -16.78875 L 41.227031 -17.015313 L 41.910625 -17.245781 L 42.004375 -17.652031 L 40.590313 -21.159844 L 40.590313 -21.66375 L 41.090313 -22.300469 L 41.273906 -22.300469 L 42.230938 -21.706719 L 42.367656 -21.480156 L 42.684063 -21.616875 L 42.641094 -22.66375 L 43.187969 -25.171563 L 43.777813 -25.671563 L 43.961406 -25.808281 L 44.324688 -26.265313 L 44.234844 -26.948906 L 44.371563 -27.628594 L 44.598125 -27.812188 L 45.055156 -27.355156 L 45.602031 -27.355156 L 46.23875 -27.675469 L 46.73875 -27.491875 L 47.559063 -27.491875 L 48.289531 -27.812188 L 48.836406 -27.722344 L 48.92625 -27.128594 L 49.52 -26.991875 L 49.793438 -27.265313 L 49.883281 -27.902031 L 50.168438 -28.07 L 50.543438 -25.870781 L 71.812969 -28.546563 Z M 73.566875 -11.35125 " transform="matrix(1,0,0,-1,-0.52,-0.57)"/>
<path style="fill-rule:nonzero;fill:rgb(50%,50%,50%);fill-opacity:1;stroke-width:0.69739;stroke-linecap:butt;stroke-linejoin:miter;stroke:rgb(100%,100%,100%);stroke-opacity:1;stroke-miterlimit:10;" d="M 75.723125 -63.952813 L 76.699688 -46.753594 L 54.105938 -44.234063 L 51.672344 -61.7575 Z M 75.723125 -63.952813 " transform="matrix(1,0,0,-1,-0.52,-0.57)"/>
<path style="fill-rule:nonzero;fill:rgb(89.99939%,89.99939%,89.99939%);fill-opacity:1;stroke-width:0.69739;stroke-linecap:butt;stroke-linejoin:miter;stroke:rgb(100%,100%,100%);stroke-opacity:1;stroke-miterlimit:10;" d="M 29.586406 -35.16375 L 31.3325 -28.148125 L 31.605938 -27.304375 L 32.105938 -26.120781 L 31.855938 -25.66375 L 31.355938 -25.687188 L 31.195781 -25.484063 L 31.285625 -25.253594 L 31.355938 -24.640313 L 32.242656 -23.546563 L 32.609844 -23.456719 L 32.836406 -23.22625 L 32.949688 -22.589531 L 33.133281 -22.452813 L 33.906719 -21.292656 L 34.680156 -20.425469 L 34.727031 -19.675469 L 34.043438 -19.152031 L 33.73875 -18.273125 L 36.453594 -5.652031 L 39.145 -6.155938 L 38.266094 -10.417656 L 38.977031 -11.909844 L 38.660625 -12.835625 L 39.055156 -13.761406 L 39.680156 -14.011406 L 40.445781 -15.917656 L 41.145 -16.800469 L 41.246563 -17.027031 L 41.910625 -17.2575 L 41.984844 -17.675469 L 40.594219 -21.136406 L 40.562969 -21.648125 L 41.086406 -22.308281 L 41.266094 -22.300469 L 42.246563 -21.695 L 42.379375 -21.480156 L 42.691875 -21.609063 L 42.637188 -22.675469 L 43.180156 -25.183281 L 43.961406 -25.816094 L 44.297344 -26.249688 L 44.156719 -27.062188 L 44.367656 -27.620781 L 44.578594 -27.839531 L 45.074688 -27.370781 L 45.641094 -27.378594 L 46.223125 -27.644219 L 46.777813 -27.511406 L 47.531719 -27.480156 L 48.324688 -27.796563 L 48.871563 -27.737969 L 48.969219 -27.1325 L 49.555156 -26.980156 L 49.805156 -27.280938 L 49.895 -27.870781 L 50.17625 -28.109063 L 48.508281 -38.792656 C 48.508281 -38.792656 30.977031 -35.464531 29.586406 -35.16375 Z M 29.586406 -35.16375 " transform="matrix(1,0,0,-1,-0.52,-0.57)"/>
<path style="fill-rule:nonzero;fill:rgb(50%,50%,50%);fill-opacity:1;stroke-width:0.69739;stroke-linecap:butt;stroke-linejoin:miter;stroke:rgb(100%,100%,100%);stroke-opacity:1;stroke-miterlimit:10;" d="M 51.7075 -61.78875 L 35.02 -59.425469 L 39.121563 -36.999688 L 48.441875 -38.741875 L 48.145 -40.859063 L 47.687969 -43.484063 L 49.242656 -43.671563 L 52.512188 -44.030938 L 54.148906 -44.198906 Z M 51.7075 -61.78875 " transform="matrix(1,0,0,-1,-0.52,-0.57)"/>
<path style="fill-rule:nonzero;fill:rgb(50%,50%,50%);fill-opacity:1;stroke-width:0.69739;stroke-linecap:butt;stroke-linejoin:miter;stroke:rgb(100%,100%,100%);stroke-opacity:1;stroke-miterlimit:10;" d="M 28.875469 -76.241875 L 28.352031 -76.671562 L 28.285625 -76.960625 L 28.383281 -77.155937 L 32.152813 -79.280937 L 34.566875 -80.792656 L 37.500469 -82.499687 L 40.848125 -84.499687 L 43.297344 -84.980156 L 48.27 -85.519219 L 51.7075 -61.784844 L 35.023906 -59.409844 L 34.406719 -62.679375 L 34.086406 -62.683281 L 33.742656 -63.206719 L 33.242656 -63.183281 L 32.992656 -62.636406 L 32.445781 -62.57 L 32.262188 -62.339531 L 32.0825 -62.339531 L 31.898906 -62.456719 L 31.512188 -62.659844 L 31.48875 -64.050469 L 31.445781 -64.390312 L 31.328594 -66.898125 L 31.035625 -67.327812 L 30.918438 -67.987969 L 31.465313 -68.968437 L 31.719219 -70.1325 L 31.875469 -70.335625 L 32.0825 -70.448906 L 32.059063 -70.905937 L 31.73875 -71.179375 L 31.055156 -71.519219 L 30.668438 -71.905937 L 30.371563 -72.636406 L 30.258281 -73.616875 L 29.691875 -74.16375 L 29.281719 -74.300469 L 29.309063 -74.464531 L 29.215313 -74.804375 L 29.309063 -74.964531 L 30.035625 -75.077812 L 29.922344 -75.624687 L 29.625469 -76.058281 Z M 28.875469 -76.241875 " transform="matrix(1,0,0,-1,-0.52,-0.57)"/>
<path style="fill-rule:nonzero;fill:rgb(50%,50%,50%);fill-opacity:1;stroke-width:0.69739;stroke-linecap:butt;stroke-linejoin:miter;stroke:rgb(100%,100%,100%);stroke-opacity:1;stroke-miterlimit:10;" d="M 39.133281 -36.97625 L 34.422344 -62.644219 L 34.059063 -62.714531 L 33.742656 -63.195 L 33.27 -63.195 L 32.977031 -62.652031 L 32.4575 -62.573906 L 32.30125 -62.355156 L 32.094219 -62.343438 L 31.543438 -62.671563 L 31.480938 -64.023125 L 31.406719 -65.175469 L 31.340313 -66.886406 L 31.05125 -67.304375 L 30.562969 -67.089531 L 16.80125 -46.327813 L 20.5825 -32.859063 Z M 39.133281 -36.97625 " transform="matrix(1,0,0,-1,-0.52,-0.57)"/>
<path style="fill-rule:nonzero;fill:rgb(89.99939%,89.99939%,89.99939%);fill-opacity:1;stroke-width:0.69739;stroke-linecap:butt;stroke-linejoin:miter;stroke:rgb(100%,100%,100%);stroke-opacity:1;stroke-miterlimit:10;" d="M 29.633281 -34.97625 L 31.398906 -28.042656 L 31.605938 -27.198906 L 32.074688 -26.077813 L 31.953594 -25.847344 L 31.453594 -25.835625 L 31.195781 -25.503594 L 31.289531 -25.210625 L 31.387188 -24.566094 L 32.277813 -23.472344 L 32.641094 -23.253594 L 32.867656 -23.027031 L 33.164531 -22.316094 L 33.969219 -21.187188 L 34.680156 -20.417656 L 34.727031 -19.72625 L 34.074688 -19.237969 L 33.719219 -18.312188 L 31.195781 -17.589531 L 28.191875 -16.886406 L 25.11375 -16.909844 L 25.023906 -16.636406 L 23.930156 -17.046563 L 23.043438 -16.929375 L 22.562969 -16.612969 L 22.312969 -16.749688 L 21.379375 -16.702813 L 21.039531 -16.429375 L 19.98875 -16.019219 L 19.8325 -16.042656 L 18.965313 -15.745781 L 18.578594 -16.109063 L 17.348125 -16.042656 L 16.164531 -15.222344 L 16.30125 -15.062188 L 16.344219 -13.515313 L 15.891094 -12.737969 L 15.070781 -12.624688 L 14.934063 -12.124688 L 14.465313 -12.030938 L 13.309063 -12.441094 L 12.859844 -13.730156 L 12.215313 -15.72625 L 11.570781 -17.015313 L 10.570781 -19.82 L 9.281719 -22.523125 L 7.672344 -25.03875 L 7.285625 -25.616875 L 7.125469 -27.323906 L 7.203594 -29.730156 Z M 29.633281 -34.97625 " transform="matrix(1,0,0,-1,-0.52,-0.57)"/>
<path style="fill-rule:nonzero;fill:rgb(89.99939%,89.99939%,89.99939%);fill-opacity:1;stroke-width:0.69739;stroke-linecap:butt;stroke-linejoin:miter;stroke:rgb(100%,100%,100%);stroke-opacity:1;stroke-miterlimit:10;" d="M 20.340313 -1.515313 L 21.2075 -1.808281 L 23.141094 -2.355156 L 24.848125 -2.741875 L 28.844219 -3.866875 L 33.418438 -4.995781 L 36.449688 -5.636406 L 33.734844 -18.304375 L 31.254375 -17.60125 L 28.164531 -16.890313 L 25.129375 -16.898125 L 25.039531 -16.628594 L 23.922344 -17.062188 L 23.008281 -16.917656 L 22.578594 -16.60125 L 22.316875 -16.734063 L 21.375469 -16.702813 L 21.035625 -16.437188 L 19.98875 -16.015313 L 19.840313 -16.042656 L 18.965313 -15.737969 L 18.590313 -16.10125 L 17.340313 -16.042656 L 16.160625 -15.222344 L 16.312969 -15.034844 L 16.340313 -13.503594 L 15.883281 -12.737969 L 15.062969 -12.616875 L 14.930156 -12.116875 L 14.477031 -12.027031 L 13.766094 -12.273125 L 13.316875 -11.6325 L 13.379375 -11.050469 L 13.930156 -10.987969 L 14.250469 -10.183281 L 13.734844 -9.956719 L 13.766094 -9.214531 L 14.637188 -9.085625 L 14.090313 -8.53875 L 13.80125 -7.120781 L 13.930156 -6.542656 L 13.930156 -4.964531 L 13.574688 -4.32 L 14.023906 -2.448906 L 14.445781 -2.546563 L 14.92625 -3.128594 L 15.473125 -3.644219 L 16.117656 -4.030938 L 17.02 -4.448906 L 17.633281 -4.577813 L 18.211406 -4.866875 L 18.891094 -5.058281 L 19.340313 -5.027031 L 19.340313 -4.542656 L 19.598125 -4.32 L 20.016094 -4.062188 L 20.0825 -4.28875 L 20.145 -4.640313 L 19.695781 -4.737969 L 19.629375 -5.155938 L 19.984844 -5.445 L 20.211406 -5.929375 L 20.340313 -6.316094 L 20.629375 -6.284844 L 20.660625 -6.027031 L 20.469219 -5.769219 L 20.371563 -5.124688 L 20.531719 -4.769219 L 20.402813 -4.480156 L 20.402813 -4.030938 L 20.758281 -3.32 L 20.531719 -2.804375 L 20.047344 -1.839531 L 20.11375 -1.679375 Z M 18.453594 -2.706719 L 18.855938 -2.675469 L 18.953594 -2.948906 L 19.258281 -2.628594 L 19.727031 -2.628594 L 19.887188 -2.933281 L 19.5825 -3.273125 L 19.711406 -3.433281 L 19.566875 -3.835625 L 19.293438 -3.917656 C 19.293438 -3.917656 19.11375 -3.933281 19.11375 -3.866875 C 19.11375 -3.804375 19.402813 -3.35125 19.402813 -3.35125 L 19.066875 -3.237969 L 19.000469 -3.530938 L 18.855938 -3.659844 L 18.55125 -3.206719 Z M 18.453594 -2.706719 " transform="matrix(1,0,0,-1,-0.52,-0.57)"/>
<path style="fill-rule:nonzero;fill:rgb(50%,50%,50%);fill-opacity:1;stroke-width:0.69739;stroke-linecap:butt;stroke-linejoin:miter;stroke:rgb(100%,100%,100%);stroke-opacity:1;stroke-miterlimit:10;" d="M 28.8325 -76.155937 L 29.617656 -76.058281 L 29.910625 -75.655937 L 30.02 -75.07 L 29.312969 -74.952812 L 29.211406 -74.82 L 29.305156 -74.41375 L 29.273906 -74.296562 L 29.656719 -74.175469 L 30.262188 -73.609062 L 30.379375 -72.612969 L 30.652813 -71.937187 L 31.043438 -71.503594 L 31.742656 -71.187187 L 32.070781 -70.866875 L 32.086406 -70.448906 L 31.887188 -70.331719 L 31.684063 -70.120781 L 31.453594 -68.952812 L 30.918438 -67.991875 L 31.031719 -67.292656 L 30.55125 -67.089531 L 16.789531 -46.327813 L 20.555156 -32.859063 L 7.187969 -29.730156 L 6.887188 -30.675469 L 6.855938 -32.155938 L 5.824688 -34.5075 L 5.215313 -35.023125 L 5.148906 -35.249688 L 4.793438 -35.409844 L 4.504375 -36.245781 L 4.344219 -36.890313 L 4.891094 -37.730156 L 5.215313 -38.566094 L 5.437969 -39.277031 L 5.375469 -40.562188 L 5.02 -41.175469 L 4.891094 -42.335625 L 4.699688 -43.077813 L 5.05125 -43.85125 L 5.602031 -44.749688 L 6.05125 -45.718438 L 6.309063 -46.523125 L 6.246563 -47.167656 L 6.180156 -47.265313 L 6.180156 -47.683281 L 7.309063 -48.937188 L 7.211406 -49.421563 L 7.0825 -49.874688 L 6.953594 -50.261406 L 6.984844 -51.902031 L 7.402813 -52.644219 L 7.789531 -53.159844 L 8.340313 -53.253594 L 8.531719 -53.804375 L 8.305156 -54.511406 L 7.887188 -54.835625 L 7.660625 -54.835625 L 7.500469 -55.605156 L 7.598125 -56.187188 L 8.242656 -57.058281 L 8.562969 -58.120781 L 8.852031 -59.054375 L 9.109844 -59.66375 L 9.789531 -60.823906 L 10.078594 -61.339531 L 10.17625 -61.921563 L 10.496563 -62.112969 L 10.496563 -62.597344 L 10.336406 -62.984063 L 9.980938 -64.402031 L 9.883281 -64.78875 L 10.367656 -65.335625 L 11.203594 -65.433281 L 12.105938 -65.784844 L 12.879375 -66.202812 L 13.461406 -66.202812 L 14.039531 -66.816094 L 14.555156 -67.784844 L 14.781719 -68.234062 L 15.555156 -68.652031 L 16.52 -68.812187 L 16.809063 -69.234062 L 16.937969 -69.878594 L 16.648906 -70.0075 L 16.715313 -70.198906 L 17.355938 -70.359062 L 17.906719 -70.390312 L 18.535625 -70.054375 L 19.309063 -70.894219 L 19.469219 -71.343437 L 19.984844 -72.183281 L 20.047344 -72.827812 L 20.047344 -74.695 L 20.145 -75.050469 L 22.141094 -75.339531 L 26.070781 -75.886406 Z M 11.27 -67.445 L 11.527813 -67.749687 L 11.496563 -68.0075 L 10.852031 -67.991875 L 10.73875 -67.749687 L 10.609844 -67.460625 Z M 11.656719 -67.445 L 11.898906 -67.316094 L 12.605938 -67.734062 L 13.219219 -67.97625 L 13.039531 -68.105156 L 12.141094 -68.058281 L 11.816875 -67.734062 Z M 15.777813 -71.390312 L 16.133281 -71.859062 L 16.293438 -72.050469 L 16.602031 -72.16375 L 16.715313 -71.874687 L 16.52 -71.519219 L 15.98875 -71.116875 L 15.777813 -71.148125 Z M 15.48875 -73.112969 L 15.844219 -73.741875 L 16.086406 -74.128594 L 15.797344 -74.175469 L 15.539531 -73.933281 C 15.539531 -73.933281 15.391094 -73.644219 15.391094 -73.566094 C 15.391094 -73.484062 15.391094 -73.128594 15.391094 -73.128594 Z M 15.48875 -73.112969 " transform="matrix(1,0,0,-1,-0.52,-0.57)"/>
</g>
</svg>
