<?xml version="1.0" encoding="UTF-8"?>
<svg xmlns="http://www.w3.org/2000/svg" xmlns:xlink="http://www.w3.org/1999/xlink" width="59pt" height="57pt" viewBox="0 0 59 57" version="1.1">
<g id="surface1">
<path style="fill:none;stroke-width:1.19553;stroke-linecap:butt;stroke-linejoin:miter;stroke:rgb(0%,0%,0%);stroke-opacity:1;stroke-miterlimit:10;" d="M -0.0003125 28.347031 L -0.0003125 14.175156 M -0.0003125 14.175156 L -8.332344 -11.465469 M -8.332344 -11.465469 L -16.660469 -22.934219 L -26.96125 8.761094 L -13.480781 4.378281 L 13.480156 4.378281 L 26.960625 8.761094 L 16.659844 -22.934219 L 8.331719 -11.465469 " transform="matrix(1,0,0,-1,29.18,31.14)"/>
<path style="fill:none;stroke-width:0.9564;stroke-linecap:round;stroke-linejoin:round;stroke:rgb(0%,0%,0%);stroke-opacity:1;stroke-miterlimit:10;" d="M -1.913934 2.550783 C -1.751535 1.593268 -0.00203927 0.160353 0.477147 -0.00057533 C -0.00103189 -0.159606 -1.753709 -1.593866 -1.912472 -2.548672 " transform="matrix(0.9513,0.30821,0.30821,-0.9513,8.05408,24.27036)"/>
<path style="fill:none;stroke-width:0.3985;stroke-linecap:butt;stroke-linejoin:miter;stroke:rgb(0%,0%,0%);stroke-opacity:1;stroke-miterlimit:10;" d="M 26.960625 8.761094 L -0.0003125 28.347031 L -26.96125 8.761094 L -16.660469 -22.934219 L 16.659844 -22.934219 Z M 26.960625 8.761094 " transform="matrix(1,0,0,-1,29.18,31.14)"/>
<path style="fill:none;stroke-width:0.3985;stroke-linecap:butt;stroke-linejoin:miter;stroke:rgb(0%,0%,0%);stroke-opacity:1;stroke-miterlimit:10;" d="M 13.480156 4.378281 L -13.480781 4.378281 L 8.331719 -11.465469 L -0.0003125 14.175156 L -8.332344 -11.465469 Z M 13.480156 4.378281 " transform="matrix(1,0,0,-1,29.18,31.14)"/>
<path style="fill:none;stroke-width:0.3985;stroke-linecap:butt;stroke-linejoin:miter;stroke:rgb(0%,0%,0%);stroke-opacity:1;stroke-miterlimit:10;" d="M 13.480156 4.378281 L 26.960625 8.761094 " transform="matrix(1,0,0,-1,29.18,31.14)"/>
<path style=" stroke:none;fill-rule:nonzero;fill:rgb(0%,0%,0%);fill-opacity:1;" d="M 44.652344 26.761719 C 44.652344 25.660156 43.761719 24.769531 42.660156 24.769531 C 41.558594 24.769531 40.667969 25.660156 40.667969 26.761719 C 40.667969 27.859375 41.558594 28.753906 42.660156 28.753906 C 43.761719 28.753906 44.652344 27.859375 44.652344 26.761719 Z M 44.652344 26.761719 "/>
<path style=" stroke:none;fill-rule:nonzero;fill:rgb(0%,0%,0%);fill-opacity:1;" d="M 58.132812 22.378906 C 58.132812 21.28125 57.238281 20.386719 56.140625 20.386719 C 55.039062 20.386719 54.148438 21.28125 54.148438 22.378906 C 54.148438 23.480469 55.039062 24.371094 56.140625 24.371094 C 57.238281 24.371094 58.132812 23.480469 58.132812 22.378906 Z M 58.132812 22.378906 "/>
<path style="fill:none;stroke-width:0.3985;stroke-linecap:butt;stroke-linejoin:miter;stroke:rgb(0%,0%,0%);stroke-opacity:1;stroke-miterlimit:10;" d="M -0.0003125 14.175156 L -0.0003125 28.347031 " transform="matrix(1,0,0,-1,29.18,31.14)"/>
<path style=" stroke:none;fill-rule:nonzero;fill:rgb(0%,0%,0%);fill-opacity:1;" d="M 31.171875 16.964844 C 31.171875 15.867188 30.28125 14.972656 29.179688 14.972656 C 28.078125 14.972656 27.1875 15.867188 27.1875 16.964844 C 27.1875 18.066406 28.078125 18.960938 29.179688 18.960938 C 30.28125 18.960938 31.171875 18.066406 31.171875 16.964844 Z M 31.171875 16.964844 "/>
<path style=" stroke:none;fill-rule:nonzero;fill:rgb(0%,0%,0%);fill-opacity:1;" d="M 31.171875 2.792969 C 31.171875 1.691406 30.28125 0.800781 29.179688 0.800781 C 28.078125 0.800781 27.1875 1.691406 27.1875 2.792969 C 27.1875 3.894531 28.078125 4.785156 29.179688 4.785156 C 30.28125 4.785156 31.171875 3.894531 31.171875 2.792969 Z M 31.171875 2.792969 "/>
<path style="fill:none;stroke-width:0.3985;stroke-linecap:butt;stroke-linejoin:miter;stroke:rgb(0%,0%,0%);stroke-opacity:1;stroke-miterlimit:10;" d="M -13.480781 4.378281 L -26.96125 8.761094 " transform="matrix(1,0,0,-1,29.18,31.14)"/>
<path style=" stroke:none;fill-rule:nonzero;fill:rgb(0%,0%,0%);fill-opacity:1;" d="M 17.691406 26.761719 C 17.691406 25.660156 16.800781 24.769531 15.699219 24.769531 C 14.601562 24.769531 13.707031 25.660156 13.707031 26.761719 C 13.707031 27.859375 14.601562 28.753906 15.699219 28.753906 C 16.800781 28.753906 17.691406 27.859375 17.691406 26.761719 Z M 17.691406 26.761719 "/>
<path style=" stroke:none;fill-rule:nonzero;fill:rgb(0%,0%,0%);fill-opacity:1;" d="M 4.214844 22.378906 C 4.214844 21.28125 3.320312 20.386719 2.21875 20.386719 C 1.121094 20.386719 0.226562 21.28125 0.226562 22.378906 C 0.226562 23.480469 1.121094 24.371094 2.21875 24.371094 C 3.320312 24.371094 4.214844 23.480469 4.214844 22.378906 Z M 4.214844 22.378906 "/>
<path style="fill:none;stroke-width:0.3985;stroke-linecap:butt;stroke-linejoin:miter;stroke:rgb(0%,0%,0%);stroke-opacity:1;stroke-miterlimit:10;" d="M -8.332344 -11.465469 L -16.660469 -22.934219 " transform="matrix(1,0,0,-1,29.18,31.14)"/>
<path style=" stroke:none;fill-rule:nonzero;fill:rgb(0%,0%,0%);fill-opacity:1;" d="M 22.839844 42.605469 C 22.839844 41.507812 21.949219 40.613281 20.847656 40.613281 C 19.75 40.613281 18.855469 41.507812 18.855469 42.605469 C 18.855469 43.707031 19.75 44.597656 20.847656 44.597656 C 21.949219 44.597656 22.839844 43.707031 22.839844 42.605469 Z M 22.839844 42.605469 "/>
<path style=" stroke:none;fill-rule:nonzero;fill:rgb(0%,0%,0%);fill-opacity:1;" d="M 14.511719 54.074219 C 14.511719 52.972656 13.617188 52.082031 12.519531 52.082031 C 11.417969 52.082031 10.527344 52.972656 10.527344 54.074219 C 10.527344 55.171875 11.417969 56.066406 12.519531 56.066406 C 13.617188 56.066406 14.511719 55.171875 14.511719 54.074219 Z M 14.511719 54.074219 "/>
<path style="fill:none;stroke-width:0.3985;stroke-linecap:butt;stroke-linejoin:miter;stroke:rgb(0%,0%,0%);stroke-opacity:1;stroke-miterlimit:10;" d="M 8.331719 -11.465469 L 16.659844 -22.934219 " transform="matrix(1,0,0,-1,29.18,31.14)"/>
<path style=" stroke:none;fill-rule:nonzero;fill:rgb(0%,0%,0%);fill-opacity:1;" d="M 39.503906 42.605469 C 39.503906 41.507812 38.613281 40.613281 37.511719 40.613281 C 36.410156 40.613281 35.519531 41.507812 35.519531 42.605469 C 35.519531 43.707031 36.410156 44.597656 37.511719 44.597656 C 38.613281 44.597656 39.503906 43.707031 39.503906 42.605469 Z M 39.503906 42.605469 "/>
<path style=" stroke:none;fill-rule:nonzero;fill:rgb(0%,0%,0%);fill-opacity:1;" d="M 47.835938 54.074219 C 47.835938 52.972656 46.941406 52.082031 45.839844 52.082031 C 44.742188 52.082031 43.847656 52.972656 43.847656 54.074219 C 43.847656 55.171875 44.742188 56.066406 45.839844 56.066406 C 46.941406 56.066406 47.835938 55.171875 47.835938 54.074219 Z M 47.835938 54.074219 "/>
</g>
</svg>
