<?xml version="1.0" encoding="UTF-8"?>
<svg xmlns="http://www.w3.org/2000/svg" xmlns:xlink="http://www.w3.org/1999/xlink" width="85pt" height="85pt" viewBox="0 0 85 85" version="1.1">
<g id="surface1">
<path style="fill:none;stroke-width:0.3985;stroke-linecap:butt;stroke-linejoin:miter;stroke:rgb(0%,0%,0%);stroke-opacity:1;stroke-miterlimit:10;" d="M 39.685781 0.00146875 L 28.060781 28.060063 " transform="matrix(1,0,0,-1,42.365,42.646)"/>
<path style=" stroke:none;fill-rule:nonzero;fill:rgb(0%,0%,0%);fill-opacity:1;" d="M 84.042969 42.644531 C 84.042969 41.546875 83.152344 40.652344 82.050781 40.652344 C 80.949219 40.652344 80.058594 41.546875 80.058594 42.644531 C 80.058594 43.746094 80.949219 44.636719 82.050781 44.636719 C 83.152344 44.636719 84.042969 43.746094 84.042969 42.644531 Z M 84.042969 42.644531 "/>
<path style="fill:none;stroke-width:0.3985;stroke-linecap:butt;stroke-linejoin:miter;stroke:rgb(0%,0%,0%);stroke-opacity:1;stroke-miterlimit:10;" d="M 28.060781 28.060063 L -0.00171875 39.685063 " transform="matrix(1,0,0,-1,42.365,42.646)"/>
<path style=" stroke:none;fill-rule:nonzero;fill:rgb(0%,0%,0%);fill-opacity:1;" d="M 72.417969 14.585938 C 72.417969 13.484375 71.527344 12.589844 70.425781 12.589844 C 69.328125 12.589844 68.433594 13.484375 68.433594 14.585938 C 68.433594 15.683594 69.328125 16.578125 70.425781 16.578125 C 71.527344 16.578125 72.417969 15.683594 72.417969 14.585938 Z M 72.417969 14.585938 "/>
<path style="fill:none;stroke-width:0.3985;stroke-linecap:butt;stroke-linejoin:miter;stroke:rgb(0%,0%,0%);stroke-opacity:1;stroke-miterlimit:10;" d="M -0.00171875 39.685063 L -28.060312 28.060063 " transform="matrix(1,0,0,-1,42.365,42.646)"/>
<path style=" stroke:none;fill-rule:nonzero;fill:rgb(0%,0%,0%);fill-opacity:1;" d="M 44.359375 2.960938 C 44.359375 1.859375 43.464844 0.96875 42.363281 0.96875 C 41.265625 0.96875 40.371094 1.859375 40.371094 2.960938 C 40.371094 4.0625 41.265625 4.953125 42.363281 4.953125 C 43.464844 4.953125 44.359375 4.0625 44.359375 2.960938 Z M 44.359375 2.960938 "/>
<path style="fill:none;stroke-width:0.3985;stroke-linecap:butt;stroke-linejoin:miter;stroke:rgb(0%,0%,0%);stroke-opacity:1;stroke-miterlimit:10;" d="M -28.060312 28.060063 L -39.685312 0.00146875 " transform="matrix(1,0,0,-1,42.365,42.646)"/>
<path style=" stroke:none;fill-rule:nonzero;fill:rgb(0%,0%,0%);fill-opacity:1;" d="M 16.296875 14.585938 C 16.296875 13.484375 15.402344 12.589844 14.304688 12.589844 C 13.203125 12.589844 12.3125 13.484375 12.3125 14.585938 C 12.3125 15.683594 13.203125 16.578125 14.304688 16.578125 C 15.402344 16.578125 16.296875 15.683594 16.296875 14.585938 Z M 16.296875 14.585938 "/>
<path style="fill:none;stroke-width:0.3985;stroke-linecap:butt;stroke-linejoin:miter;stroke:rgb(0%,0%,0%);stroke-opacity:1;stroke-miterlimit:10;" d="M -39.685312 0.00146875 L -28.060312 -28.061031 " transform="matrix(1,0,0,-1,42.365,42.646)"/>
<path style=" stroke:none;fill-rule:nonzero;fill:rgb(0%,0%,0%);fill-opacity:1;" d="M 4.671875 42.644531 C 4.671875 41.546875 3.78125 40.652344 2.679688 40.652344 C 1.578125 40.652344 0.6875 41.546875 0.6875 42.644531 C 0.6875 43.746094 1.578125 44.636719 2.679688 44.636719 C 3.78125 44.636719 4.671875 43.746094 4.671875 42.644531 Z M 4.671875 42.644531 "/>
<path style="fill:none;stroke-width:0.3985;stroke-linecap:butt;stroke-linejoin:miter;stroke:rgb(0%,0%,0%);stroke-opacity:1;stroke-miterlimit:10;" d="M -28.060312 -28.061031 L -0.00171875 -39.686031 " transform="matrix(1,0,0,-1,42.365,42.646)"/>
<path style=" stroke:none;fill-rule:nonzero;fill:rgb(0%,0%,0%);fill-opacity:1;" d="M 16.296875 70.707031 C 16.296875 69.605469 15.402344 68.714844 14.304688 68.714844 C 13.203125 68.714844 12.3125 69.605469 12.3125 70.707031 C 12.3125 71.808594 13.203125 72.699219 14.304688 72.699219 C 15.402344 72.699219 16.296875 71.808594 16.296875 70.707031 Z M 16.296875 70.707031 "/>
<path style="fill:none;stroke-width:0.3985;stroke-linecap:butt;stroke-linejoin:miter;stroke:rgb(0%,0%,0%);stroke-opacity:1;stroke-miterlimit:10;" d="M -0.00171875 -39.686031 L 28.060781 -28.061031 " transform="matrix(1,0,0,-1,42.365,42.646)"/>
<path style=" stroke:none;fill-rule:nonzero;fill:rgb(0%,0%,0%);fill-opacity:1;" d="M 44.359375 82.332031 C 44.359375 81.230469 43.464844 80.339844 42.363281 80.339844 C 41.265625 80.339844 40.371094 81.230469 40.371094 82.332031 C 40.371094 83.433594 41.265625 84.324219 42.363281 84.324219 C 43.464844 84.324219 44.359375 83.433594 44.359375 82.332031 Z M 44.359375 82.332031 "/>
<path style="fill:none;stroke-width:0.3985;stroke-linecap:butt;stroke-linejoin:miter;stroke:rgb(0%,0%,0%);stroke-opacity:1;stroke-miterlimit:10;" d="M 28.060781 -28.061031 L 39.685781 0.00146875 " transform="matrix(1,0,0,-1,42.365,42.646)"/>
<path style=" stroke:none;fill-rule:nonzero;fill:rgb(0%,0%,0%);fill-opacity:1;" d="M 72.417969 70.707031 C 72.417969 69.605469 71.527344 68.714844 70.425781 68.714844 C 69.328125 68.714844 68.433594 69.605469 68.433594 70.707031 C 68.433594 71.808594 69.328125 72.699219 70.425781 72.699219 C 71.527344 72.699219 72.417969 71.808594 72.417969 70.707031 Z M 72.417969 70.707031 "/>
<path style="fill:none;stroke-width:0.3985;stroke-linecap:butt;stroke-linejoin:miter;stroke:rgb(0%,0%,0%);stroke-opacity:1;stroke-miterlimit:10;" d="M -0.00171875 0.00146875 L 28.060781 28.060063 M -0.00171875 0.00146875 L -28.060312 28.060063 M -0.00171875 0.00146875 L -28.060312 -28.061031 M -0.00171875 0.00146875 L 28.060781 -28.061031 " transform="matrix(1,0,0,-1,42.365,42.646)"/>
<path style=" stroke:none;fill-rule:nonzero;fill:rgb(0%,0%,0%);fill-opacity:1;" d="M 44.359375 42.644531 C 44.359375 41.546875 43.464844 40.652344 42.363281 40.652344 C 41.265625 40.652344 40.371094 41.546875 40.371094 42.644531 C 40.371094 43.746094 41.265625 44.636719 42.363281 44.636719 C 43.464844 44.636719 44.359375 43.746094 44.359375 42.644531 Z M 44.359375 42.644531 "/>
<path style="fill:none;stroke-width:0.3985;stroke-linecap:butt;stroke-linejoin:miter;stroke:rgb(0%,0%,0%);stroke-opacity:1;stroke-miterlimit:10;" d="M -19.841562 0.00146875 L -0.00171875 39.685063 M -19.841562 0.00146875 L -39.685312 0.00146875 M -19.841562 0.00146875 L -0.00171875 -39.686031 " transform="matrix(1,0,0,-1,42.365,42.646)"/>
<path style=" stroke:none;fill-rule:nonzero;fill:rgb(0%,0%,0%);fill-opacity:1;" d="M 24.515625 42.644531 C 24.515625 41.546875 23.621094 40.652344 22.523438 40.652344 C 21.421875 40.652344 20.53125 41.546875 20.53125 42.644531 C 20.53125 43.746094 21.421875 44.636719 22.523438 44.636719 C 23.621094 44.636719 24.515625 43.746094 24.515625 42.644531 Z M 24.515625 42.644531 "/>
<path style="fill:none;stroke-width:0.3985;stroke-linecap:butt;stroke-linejoin:miter;stroke:rgb(0%,0%,0%);stroke-opacity:1;stroke-miterlimit:10;" d="M 19.842031 0.00146875 L -0.00171875 39.685063 M 19.842031 0.00146875 L 39.685781 0.00146875 M 19.842031 0.00146875 L -0.00171875 -39.686031 " transform="matrix(1,0,0,-1,42.365,42.646)"/>
<path style=" stroke:none;fill-rule:nonzero;fill:rgb(0%,0%,0%);fill-opacity:1;" d="M 64.199219 42.644531 C 64.199219 41.546875 63.308594 40.652344 62.207031 40.652344 C 61.105469 40.652344 60.214844 41.546875 60.214844 42.644531 C 60.214844 43.746094 61.105469 44.636719 62.207031 44.636719 C 63.308594 44.636719 64.199219 43.746094 64.199219 42.644531 Z M 64.199219 42.644531 "/>
</g>
</svg>
