<?xml version="1.0" encoding="UTF-8"?>
<svg xmlns="http://www.w3.org/2000/svg" xmlns:xlink="http://www.w3.org/1999/xlink" width="155pt" height="55pt" viewBox="0 0 155 55" version="1.1">
<g id="surface1">
<path style="fill:none;stroke-width:0.3985;stroke-linecap:butt;stroke-linejoin:miter;stroke:rgb(0%,0%,0%);stroke-opacity:1;stroke-miterlimit:10;" d="M -51.02275 -0.00065625 L 0.0006875 25.511062 L 51.024125 -0.00065625 " transform="matrix(1,0,0,-1,77.429,28.472)"/>
<path style=" stroke:none;fill-rule:nonzero;fill:rgb(0%,0%,0%);fill-opacity:1;" d="M 28.398438 28.472656 C 28.398438 27.371094 27.503906 26.480469 26.40625 26.480469 C 25.304688 26.480469 24.414062 27.371094 24.414062 28.472656 C 24.414062 29.574219 25.304688 30.464844 26.40625 30.464844 C 27.503906 30.464844 28.398438 29.574219 28.398438 28.472656 Z M 28.398438 28.472656 "/>
<path style=" stroke:none;fill-rule:nonzero;fill:rgb(0%,0%,0%);fill-opacity:1;" d="M 79.421875 2.960938 C 79.421875 1.859375 78.53125 0.96875 77.429688 0.96875 C 76.328125 0.96875 75.4375 1.859375 75.4375 2.960938 C 75.4375 4.058594 76.328125 4.953125 77.429688 4.953125 C 78.53125 4.953125 79.421875 4.058594 79.421875 2.960938 Z M 79.421875 2.960938 "/>
<path style=" stroke:none;fill-rule:nonzero;fill:rgb(0%,0%,0%);fill-opacity:1;" d="M 130.445312 28.472656 C 130.445312 27.371094 129.554688 26.480469 128.453125 26.480469 C 127.351562 26.480469 126.460938 27.371094 126.460938 28.472656 C 126.460938 29.574219 127.351562 30.464844 128.453125 30.464844 C 129.554688 30.464844 130.445312 29.574219 130.445312 28.472656 Z M 130.445312 28.472656 "/>
<path style="fill:none;stroke-width:0.3985;stroke-linecap:butt;stroke-linejoin:miter;stroke:rgb(0%,0%,0%);stroke-opacity:1;stroke-miterlimit:10;" d="M -51.02275 -0.00065625 L -63.780563 -12.754563 M -51.02275 -0.00065625 L -51.02275 -12.754563 M -51.02275 -0.00065625 L -38.268844 -12.754563 " transform="matrix(1,0,0,-1,77.429,28.472)"/>
<path style="fill:none;stroke-width:0.3985;stroke-linecap:butt;stroke-linejoin:miter;stroke:rgb(0%,0%,0%);stroke-opacity:1;stroke-dasharray:2.98883,2.98883;stroke-miterlimit:10;" d="M -63.780563 -12.754563 L -76.534469 -25.512375 M -51.02275 -12.754563 L -51.02275 -25.512375 M -38.268844 -12.754563 L -25.511031 -25.512375 " transform="matrix(1,0,0,-1,77.429,28.472)"/>
<path style="fill:none;stroke-width:0.3985;stroke-linecap:butt;stroke-linejoin:miter;stroke:rgb(0%,0%,0%);stroke-opacity:1;stroke-miterlimit:10;" d="M 51.024125 -0.00065625 L 63.778031 -12.754563 M 51.024125 -0.00065625 L 51.024125 -12.754563 M 51.024125 -0.00065625 L 38.266312 -12.754563 " transform="matrix(1,0,0,-1,77.429,28.472)"/>
<path style="fill:none;stroke-width:0.3985;stroke-linecap:butt;stroke-linejoin:miter;stroke:rgb(0%,0%,0%);stroke-opacity:1;stroke-dasharray:2.98883,2.98883;stroke-miterlimit:10;" d="M 63.778031 -12.754563 L 76.535844 -25.512375 M 51.024125 -12.754563 L 51.024125 -25.512375 M 38.266312 -12.754563 L 25.512406 -25.512375 " transform="matrix(1,0,0,-1,77.429,28.472)"/>
<path style="fill:none;stroke-width:0.3985;stroke-linecap:butt;stroke-linejoin:miter;stroke:rgb(0%,0%,0%);stroke-opacity:1;stroke-miterlimit:10;" d="M 0.0006875 25.511062 L -6.378219 -0.00065625 M 0.0006875 25.511062 L 0.0006875 -0.00065625 M 0.0006875 25.511062 L 6.379594 -0.00065625 " transform="matrix(1,0,0,-1,77.429,28.472)"/>
<path style="fill:none;stroke-width:0.3985;stroke-linecap:butt;stroke-linejoin:miter;stroke:rgb(0%,0%,0%);stroke-opacity:1;stroke-dasharray:2.98883,2.98883;stroke-miterlimit:10;" d="M -6.378219 -0.00065625 L -12.757125 -25.512375 M 0.0006875 -0.00065625 L 0.0006875 -25.512375 M 6.379594 -0.00065625 L 12.754594 -25.512375 " transform="matrix(1,0,0,-1,77.429,28.472)"/>
</g>
</svg>
