<?xml version="1.0" encoding="UTF-8"?>
<svg xmlns="http://www.w3.org/2000/svg" xmlns:xlink="http://www.w3.org/1999/xlink" width="104pt" height="79pt" viewBox="0 0 104 79" version="1.1">
<g id="surface1">
<path style="fill:none;stroke-width:0.3985;stroke-linecap:butt;stroke-linejoin:miter;stroke:rgb(0%,0%,0%);stroke-opacity:1;stroke-miterlimit:10;" d="M -19.841563 19.843281 L -29.763438 29.765156 M -19.841563 19.843281 L -17.857188 39.687031 M -19.841563 19.843281 L -3.966563 9.921406 M -19.841563 19.843281 L -9.919688 3.968281 " transform="matrix(1,0,0,-1,31.99,42.48)"/>
<path style=" stroke:none;fill-rule:nonzero;fill:rgb(0%,0%,0%);fill-opacity:1;" d="M 14.140625 22.636719 C 14.140625 21.535156 13.246094 20.644531 12.148438 20.644531 C 11.046875 20.644531 10.15625 21.535156 10.15625 22.636719 C 10.15625 23.738281 11.046875 24.628906 12.148438 24.628906 C 13.246094 24.628906 14.140625 23.738281 14.140625 22.636719 Z M 14.140625 22.636719 "/>
<path style=" stroke:none;fill-rule:nonzero;fill:rgb(0%,0%,0%);fill-opacity:1;" d="M 4.21875 12.714844 C 4.21875 11.617188 3.328125 10.722656 2.226562 10.722656 C 1.125 10.722656 0.234375 11.617188 0.234375 12.714844 C 0.234375 13.816406 1.125 14.707031 2.226562 14.707031 C 3.328125 14.707031 4.21875 13.816406 4.21875 12.714844 Z M 4.21875 12.714844 "/>
<path style=" stroke:none;fill-rule:nonzero;fill:rgb(0%,0%,0%);fill-opacity:1;" d="M 16.125 2.792969 C 16.125 1.695312 15.230469 0.800781 14.132812 0.800781 C 13.03125 0.800781 12.140625 1.695312 12.140625 2.792969 C 12.140625 3.894531 13.03125 4.789062 14.132812 4.789062 C 15.230469 4.789062 16.125 3.894531 16.125 2.792969 Z M 16.125 2.792969 "/>
<path style=" stroke:none;fill-rule:nonzero;fill:rgb(0%,0%,0%);fill-opacity:1;" d="M 30.015625 32.558594 C 30.015625 31.457031 29.121094 30.566406 28.023438 30.566406 C 26.921875 30.566406 26.027344 31.457031 26.027344 32.558594 C 26.027344 33.660156 26.921875 34.550781 28.023438 34.550781 C 29.121094 34.550781 30.015625 33.660156 30.015625 32.558594 Z M 30.015625 32.558594 "/>
<path style=" stroke:none;fill-rule:nonzero;fill:rgb(0%,0%,0%);fill-opacity:1;" d="M 24.0625 38.511719 C 24.0625 37.410156 23.167969 36.519531 22.070312 36.519531 C 20.96875 36.519531 20.074219 37.410156 20.074219 38.511719 C 20.074219 39.613281 20.96875 40.503906 22.070312 40.503906 C 23.167969 40.503906 24.0625 39.613281 24.0625 38.511719 Z M 24.0625 38.511719 "/>
<path style="fill:none;stroke-width:0.3985;stroke-linecap:butt;stroke-linejoin:miter;stroke:rgb(0%,0%,0%);stroke-opacity:1;stroke-miterlimit:10;" d="M -19.841563 19.843281 L 19.842031 19.843281 L 9.920156 25.796406 M 19.842031 19.843281 L 19.842031 39.687031 M 19.842031 19.843281 L 29.763906 25.796406 M 19.842031 19.843281 L 29.763906 19.843281 " transform="matrix(1,0,0,-1,31.99,42.48)"/>
<path style=" stroke:none;fill-rule:nonzero;fill:rgb(0%,0%,0%);fill-opacity:1;" d="M 53.824219 22.636719 C 53.824219 21.535156 52.933594 20.644531 51.832031 20.644531 C 50.730469 20.644531 49.839844 21.535156 49.839844 22.636719 C 49.839844 23.738281 50.730469 24.628906 51.832031 24.628906 C 52.933594 24.628906 53.824219 23.738281 53.824219 22.636719 Z M 53.824219 22.636719 "/>
<path style=" stroke:none;fill-rule:nonzero;fill:rgb(0%,0%,0%);fill-opacity:1;" d="M 43.902344 16.683594 C 43.902344 15.585938 43.011719 14.691406 41.910156 14.691406 C 40.8125 14.691406 39.917969 15.585938 39.917969 16.683594 C 39.917969 17.785156 40.8125 18.675781 41.910156 18.675781 C 43.011719 18.675781 43.902344 17.785156 43.902344 16.683594 Z M 43.902344 16.683594 "/>
<path style=" stroke:none;fill-rule:nonzero;fill:rgb(0%,0%,0%);fill-opacity:1;" d="M 53.824219 2.792969 C 53.824219 1.695312 52.933594 0.800781 51.832031 0.800781 C 50.730469 0.800781 49.839844 1.695312 49.839844 2.792969 C 49.839844 3.894531 50.730469 4.789062 51.832031 4.789062 C 52.933594 4.789062 53.824219 3.894531 53.824219 2.792969 Z M 53.824219 2.792969 "/>
<path style=" stroke:none;fill-rule:nonzero;fill:rgb(0%,0%,0%);fill-opacity:1;" d="M 63.746094 16.683594 C 63.746094 15.585938 62.855469 14.691406 61.753906 14.691406 C 60.652344 14.691406 59.761719 15.585938 59.761719 16.683594 C 59.761719 17.785156 60.652344 18.675781 61.753906 18.675781 C 62.855469 18.675781 63.746094 17.785156 63.746094 16.683594 Z M 63.746094 16.683594 "/>
<path style=" stroke:none;fill-rule:nonzero;fill:rgb(0%,0%,0%);fill-opacity:1;" d="M 63.746094 22.636719 C 63.746094 21.535156 62.855469 20.644531 61.753906 20.644531 C 60.652344 20.644531 59.761719 21.535156 59.761719 22.636719 C 59.761719 23.738281 60.652344 24.628906 61.753906 24.628906 C 62.855469 24.628906 63.746094 23.738281 63.746094 22.636719 Z M 63.746094 22.636719 "/>
<path style="fill:none;stroke-width:0.3985;stroke-linecap:butt;stroke-linejoin:miter;stroke:rgb(0%,0%,0%);stroke-opacity:1;stroke-miterlimit:10;" d="M 19.842031 19.843281 L -0.00171875 -0.00046875 L -3.966563 -19.844219 M -0.00171875 -0.00046875 L 3.967031 -19.844219 M -0.00171875 -0.00046875 L 39.685781 -0.00046875 L 39.685781 19.843281 L 49.607656 29.765156 M 39.685781 19.843281 L 47.623281 21.827656 " transform="matrix(1,0,0,-1,31.99,42.48)"/>
<path style=" stroke:none;fill-rule:nonzero;fill:rgb(0%,0%,0%);fill-opacity:1;" d="M 33.984375 42.480469 C 33.984375 41.378906 33.089844 40.488281 31.988281 40.488281 C 30.890625 40.488281 29.996094 41.378906 29.996094 42.480469 C 29.996094 43.582031 30.890625 44.472656 31.988281 44.472656 C 33.089844 44.472656 33.984375 43.582031 33.984375 42.480469 Z M 33.984375 42.480469 "/>
<path style=" stroke:none;fill-rule:nonzero;fill:rgb(0%,0%,0%);fill-opacity:1;" d="M 30.015625 62.324219 C 30.015625 61.222656 29.121094 60.332031 28.023438 60.332031 C 26.921875 60.332031 26.027344 61.222656 26.027344 62.324219 C 26.027344 63.421875 26.921875 64.316406 28.023438 64.316406 C 29.121094 64.316406 30.015625 63.421875 30.015625 62.324219 Z M 30.015625 62.324219 "/>
<path style=" stroke:none;fill-rule:nonzero;fill:rgb(0%,0%,0%);fill-opacity:1;" d="M 37.949219 62.324219 C 37.949219 61.222656 37.058594 60.332031 35.957031 60.332031 C 34.859375 60.332031 33.964844 61.222656 33.964844 62.324219 C 33.964844 63.421875 34.859375 64.316406 35.957031 64.316406 C 37.058594 64.316406 37.949219 63.421875 37.949219 62.324219 Z M 37.949219 62.324219 "/>
<path style=" stroke:none;fill-rule:nonzero;fill:rgb(0%,0%,0%);fill-opacity:1;" d="M 73.667969 42.480469 C 73.667969 41.378906 72.777344 40.488281 71.675781 40.488281 C 70.574219 40.488281 69.683594 41.378906 69.683594 42.480469 C 69.683594 43.582031 70.574219 44.472656 71.675781 44.472656 C 72.777344 44.472656 73.667969 43.582031 73.667969 42.480469 Z M 73.667969 42.480469 "/>
<path style=" stroke:none;fill-rule:nonzero;fill:rgb(0%,0%,0%);fill-opacity:1;" d="M 73.667969 22.636719 C 73.667969 21.535156 72.777344 20.644531 71.675781 20.644531 C 70.574219 20.644531 69.683594 21.535156 69.683594 22.636719 C 69.683594 23.738281 70.574219 24.628906 71.675781 24.628906 C 72.777344 24.628906 73.667969 23.738281 73.667969 22.636719 Z M 73.667969 22.636719 "/>
<path style=" stroke:none;fill-rule:nonzero;fill:rgb(0%,0%,0%);fill-opacity:1;" d="M 83.589844 12.714844 C 83.589844 11.617188 82.695312 10.722656 81.597656 10.722656 C 80.496094 10.722656 79.605469 11.617188 79.605469 12.714844 C 79.605469 13.816406 80.496094 14.707031 81.597656 14.707031 C 82.695312 14.707031 83.589844 13.816406 83.589844 12.714844 Z M 83.589844 12.714844 "/>
<path style=" stroke:none;fill-rule:nonzero;fill:rgb(0%,0%,0%);fill-opacity:1;" d="M 81.605469 20.652344 C 81.605469 19.550781 80.710938 18.660156 79.613281 18.660156 C 78.511719 18.660156 77.621094 19.550781 77.621094 20.652344 C 77.621094 21.753906 78.511719 22.644531 79.613281 22.644531 C 80.710938 22.644531 81.605469 21.753906 81.605469 20.652344 Z M 81.605469 20.652344 "/>
<path style="fill:none;stroke-width:0.3985;stroke-linecap:butt;stroke-linejoin:miter;stroke:rgb(0%,0%,0%);stroke-opacity:1;stroke-miterlimit:10;" d="M 39.685781 -0.00046875 L 39.685781 -19.844219 L 47.623281 -9.922344 M 39.685781 -19.844219 L 47.623281 -27.777813 M 39.685781 -19.844219 L 39.685781 -33.730938 M 39.685781 -19.844219 L 31.748281 -27.777813 M 39.685781 -19.844219 L 31.748281 -11.906719 " transform="matrix(1,0,0,-1,31.99,42.48)"/>
<path style=" stroke:none;fill-rule:nonzero;fill:rgb(0%,0%,0%);fill-opacity:1;" d="M 73.667969 62.324219 C 73.667969 61.222656 72.777344 60.332031 71.675781 60.332031 C 70.574219 60.332031 69.683594 61.222656 69.683594 62.324219 C 69.683594 63.421875 70.574219 64.316406 71.675781 64.316406 C 72.777344 64.316406 73.667969 63.421875 73.667969 62.324219 Z M 73.667969 62.324219 "/>
<path style=" stroke:none;fill-rule:nonzero;fill:rgb(0%,0%,0%);fill-opacity:1;" d="M 81.605469 52.402344 C 81.605469 51.300781 80.710938 50.410156 79.613281 50.410156 C 78.511719 50.410156 77.621094 51.300781 77.621094 52.402344 C 77.621094 53.5 78.511719 54.394531 79.613281 54.394531 C 80.710938 54.394531 81.605469 53.5 81.605469 52.402344 Z M 81.605469 52.402344 "/>
<path style=" stroke:none;fill-rule:nonzero;fill:rgb(0%,0%,0%);fill-opacity:1;" d="M 81.605469 70.257812 C 81.605469 69.160156 80.710938 68.265625 79.613281 68.265625 C 78.511719 68.265625 77.621094 69.160156 77.621094 70.257812 C 77.621094 71.359375 78.511719 72.253906 79.613281 72.253906 C 80.710938 72.253906 81.605469 71.359375 81.605469 70.257812 Z M 81.605469 70.257812 "/>
<path style=" stroke:none;fill-rule:nonzero;fill:rgb(0%,0%,0%);fill-opacity:1;" d="M 73.667969 76.210938 C 73.667969 75.113281 72.777344 74.21875 71.675781 74.21875 C 70.574219 74.21875 69.683594 75.113281 69.683594 76.210938 C 69.683594 77.3125 70.574219 78.203125 71.675781 78.203125 C 72.777344 78.203125 73.667969 77.3125 73.667969 76.210938 Z M 73.667969 76.210938 "/>
<path style=" stroke:none;fill-rule:nonzero;fill:rgb(0%,0%,0%);fill-opacity:1;" d="M 65.730469 70.257812 C 65.730469 69.160156 64.839844 68.265625 63.738281 68.265625 C 62.636719 68.265625 61.746094 69.160156 61.746094 70.257812 C 61.746094 71.359375 62.636719 72.253906 63.738281 72.253906 C 64.839844 72.253906 65.730469 71.359375 65.730469 70.257812 Z M 65.730469 70.257812 "/>
<path style=" stroke:none;fill-rule:nonzero;fill:rgb(0%,0%,0%);fill-opacity:1;" d="M 65.730469 54.386719 C 65.730469 53.285156 64.839844 52.394531 63.738281 52.394531 C 62.636719 52.394531 61.746094 53.285156 61.746094 54.386719 C 61.746094 55.484375 62.636719 56.378906 63.738281 56.378906 C 64.839844 56.378906 65.730469 55.484375 65.730469 54.386719 Z M 65.730469 54.386719 "/>
<path style="fill:none;stroke-width:0.3985;stroke-linecap:butt;stroke-linejoin:miter;stroke:rgb(0%,0%,0%);stroke-opacity:1;stroke-miterlimit:10;" d="M 39.685781 -0.00046875 L 59.529531 19.843281 L 59.529531 29.765156 L 69.4475 39.687031 M 59.529531 19.843281 L 59.529531 9.921406 L 69.4475 -0.00046875 " transform="matrix(1,0,0,-1,31.99,42.48)"/>
<path style=" stroke:none;fill-rule:nonzero;fill:rgb(0%,0%,0%);fill-opacity:1;" d="M 93.511719 22.636719 C 93.511719 21.535156 92.617188 20.644531 91.519531 20.644531 C 90.417969 20.644531 89.527344 21.535156 89.527344 22.636719 C 89.527344 23.738281 90.417969 24.628906 91.519531 24.628906 C 92.617188 24.628906 93.511719 23.738281 93.511719 22.636719 Z M 93.511719 22.636719 "/>
<path style=" stroke:none;fill-rule:nonzero;fill:rgb(0%,0%,0%);fill-opacity:1;" d="M 93.511719 12.714844 C 93.511719 11.617188 92.617188 10.722656 91.519531 10.722656 C 90.417969 10.722656 89.527344 11.617188 89.527344 12.714844 C 89.527344 13.816406 90.417969 14.707031 91.519531 14.707031 C 92.617188 14.707031 93.511719 13.816406 93.511719 12.714844 Z M 93.511719 12.714844 "/>
<path style=" stroke:none;fill-rule:nonzero;fill:rgb(0%,0%,0%);fill-opacity:1;" d="M 103.433594 2.792969 C 103.433594 1.695312 102.539062 0.800781 101.4375 0.800781 C 100.339844 0.800781 99.445312 1.695312 99.445312 2.792969 C 99.445312 3.894531 100.339844 4.789062 101.4375 4.789062 C 102.539062 4.789062 103.433594 3.894531 103.433594 2.792969 Z M 103.433594 2.792969 "/>
<path style=" stroke:none;fill-rule:nonzero;fill:rgb(0%,0%,0%);fill-opacity:1;" d="M 93.511719 32.558594 C 93.511719 31.457031 92.617188 30.566406 91.519531 30.566406 C 90.417969 30.566406 89.527344 31.457031 89.527344 32.558594 C 89.527344 33.660156 90.417969 34.550781 91.519531 34.550781 C 92.617188 34.550781 93.511719 33.660156 93.511719 32.558594 Z M 93.511719 32.558594 "/>
<path style=" stroke:none;fill-rule:nonzero;fill:rgb(0%,0%,0%);fill-opacity:1;" d="M 103.433594 42.480469 C 103.433594 41.378906 102.539062 40.488281 101.4375 40.488281 C 100.339844 40.488281 99.445312 41.378906 99.445312 42.480469 C 99.445312 43.582031 100.339844 44.472656 101.4375 44.472656 C 102.539062 44.472656 103.433594 43.582031 103.433594 42.480469 Z M 103.433594 42.480469 "/>
</g>
</svg>
