<?xml version="1.0" encoding="UTF-8"?>
<svg xmlns="http://www.w3.org/2000/svg" xmlns:xlink="http://www.w3.org/1999/xlink" width="59pt" height="59pt" viewBox="0 0 59 59" version="1.1">
<g id="surface1">
<path style="fill-rule:nonzero;fill:rgb(84.999084%,84.999084%,84.999084%);fill-opacity:1;stroke-width:0.3985;stroke-linecap:butt;stroke-linejoin:miter;stroke:rgb(0%,0%,0%);stroke-opacity:1;stroke-miterlimit:10;" d="M -0.00003125 0.000375 L -0.00003125 7.086312 L 7.085906 7.086312 L 7.085906 0.000375 Z M 7.085906 7.086312 L 7.085906 14.17225 L 14.171844 14.17225 L 14.171844 7.086312 Z M 7.085906 7.086312 " transform="matrix(1,0,0,-1,1.293,57.891)"/>
<path style="fill-rule:nonzero;fill:rgb(84.999084%,84.999084%,84.999084%);fill-opacity:1;stroke-width:0.3985;stroke-linecap:butt;stroke-linejoin:miter;stroke:rgb(0%,0%,0%);stroke-opacity:1;stroke-miterlimit:10;" d="M -0.00003125 14.17225 L -0.00003125 21.258187 L 7.085906 21.258187 L 7.085906 14.17225 Z M 7.085906 21.258187 L 7.085906 28.348031 L 14.171844 28.348031 L 14.171844 21.258187 Z M 7.085906 21.258187 " transform="matrix(1,0,0,-1,1.293,57.891)"/>
<path style="fill-rule:nonzero;fill:rgb(84.999084%,84.999084%,84.999084%);fill-opacity:1;stroke-width:0.3985;stroke-linecap:butt;stroke-linejoin:miter;stroke:rgb(0%,0%,0%);stroke-opacity:1;stroke-miterlimit:10;" d="M -0.00003125 28.348031 L -0.00003125 35.433969 L 7.085906 35.433969 L 7.085906 28.348031 Z M 7.085906 35.433969 L 7.085906 42.519906 L 14.171844 42.519906 L 14.171844 35.433969 Z M 7.085906 35.433969 " transform="matrix(1,0,0,-1,1.293,57.891)"/>
<path style="fill-rule:nonzero;fill:rgb(84.999084%,84.999084%,84.999084%);fill-opacity:1;stroke-width:0.3985;stroke-linecap:butt;stroke-linejoin:miter;stroke:rgb(0%,0%,0%);stroke-opacity:1;stroke-miterlimit:10;" d="M -0.00003125 42.519906 L -0.00003125 49.605844 L 7.085906 49.605844 L 7.085906 42.519906 Z M 7.085906 49.605844 L 7.085906 56.691781 L 14.171844 56.691781 L 14.171844 49.605844 Z M 7.085906 49.605844 " transform="matrix(1,0,0,-1,1.293,57.891)"/>
<path style="fill-rule:nonzero;fill:rgb(84.999084%,84.999084%,84.999084%);fill-opacity:1;stroke-width:0.3985;stroke-linecap:butt;stroke-linejoin:miter;stroke:rgb(0%,0%,0%);stroke-opacity:1;stroke-miterlimit:10;" d="M 14.171844 0.000375 L 14.171844 7.086312 L 21.261687 7.086312 L 21.261687 0.000375 Z M 21.261687 7.086312 L 21.261687 14.17225 L 28.347625 14.17225 L 28.347625 7.086312 Z M 21.261687 7.086312 " transform="matrix(1,0,0,-1,1.293,57.891)"/>
<path style="fill-rule:nonzero;fill:rgb(84.999084%,84.999084%,84.999084%);fill-opacity:1;stroke-width:0.3985;stroke-linecap:butt;stroke-linejoin:miter;stroke:rgb(0%,0%,0%);stroke-opacity:1;stroke-miterlimit:10;" d="M 14.171844 14.17225 L 14.171844 21.258187 L 21.261687 21.258187 L 21.261687 14.17225 Z M 21.261687 21.258187 L 21.261687 28.348031 L 28.347625 28.348031 L 28.347625 21.258187 Z M 21.261687 21.258187 " transform="matrix(1,0,0,-1,1.293,57.891)"/>
<path style="fill-rule:nonzero;fill:rgb(84.999084%,84.999084%,84.999084%);fill-opacity:1;stroke-width:0.3985;stroke-linecap:butt;stroke-linejoin:miter;stroke:rgb(0%,0%,0%);stroke-opacity:1;stroke-miterlimit:10;" d="M 14.171844 28.348031 L 14.171844 35.433969 L 21.261687 35.433969 L 21.261687 28.348031 Z M 21.261687 35.433969 L 21.261687 42.519906 L 28.347625 42.519906 L 28.347625 35.433969 Z M 21.261687 35.433969 " transform="matrix(1,0,0,-1,1.293,57.891)"/>
<path style="fill-rule:nonzero;fill:rgb(84.999084%,84.999084%,84.999084%);fill-opacity:1;stroke-width:0.3985;stroke-linecap:butt;stroke-linejoin:miter;stroke:rgb(0%,0%,0%);stroke-opacity:1;stroke-miterlimit:10;" d="M 14.171844 42.519906 L 14.171844 49.605844 L 21.261687 49.605844 L 21.261687 42.519906 Z M 21.261687 49.605844 L 21.261687 56.691781 L 28.347625 56.691781 L 28.347625 49.605844 Z M 21.261687 49.605844 " transform="matrix(1,0,0,-1,1.293,57.891)"/>
<path style="fill-rule:nonzero;fill:rgb(84.999084%,84.999084%,84.999084%);fill-opacity:1;stroke-width:0.3985;stroke-linecap:butt;stroke-linejoin:miter;stroke:rgb(0%,0%,0%);stroke-opacity:1;stroke-miterlimit:10;" d="M 28.347625 0.000375 L 28.347625 7.086312 L 35.433562 7.086312 L 35.433562 0.000375 Z M 35.433562 7.086312 L 35.433562 14.17225 L 42.5195 14.17225 L 42.5195 7.086312 Z M 35.433562 7.086312 " transform="matrix(1,0,0,-1,1.293,57.891)"/>
<path style="fill-rule:nonzero;fill:rgb(84.999084%,84.999084%,84.999084%);fill-opacity:1;stroke-width:0.3985;stroke-linecap:butt;stroke-linejoin:miter;stroke:rgb(0%,0%,0%);stroke-opacity:1;stroke-miterlimit:10;" d="M 28.347625 14.17225 L 28.347625 21.258187 L 35.433562 21.258187 L 35.433562 14.17225 Z M 35.433562 21.258187 L 35.433562 28.348031 L 42.5195 28.348031 L 42.5195 21.258187 Z M 35.433562 21.258187 " transform="matrix(1,0,0,-1,1.293,57.891)"/>
<path style="fill-rule:nonzero;fill:rgb(84.999084%,84.999084%,84.999084%);fill-opacity:1;stroke-width:0.3985;stroke-linecap:butt;stroke-linejoin:miter;stroke:rgb(0%,0%,0%);stroke-opacity:1;stroke-miterlimit:10;" d="M 28.347625 28.348031 L 28.347625 35.433969 L 35.433562 35.433969 L 35.433562 28.348031 Z M 35.433562 35.433969 L 35.433562 42.519906 L 42.5195 42.519906 L 42.5195 35.433969 Z M 35.433562 35.433969 " transform="matrix(1,0,0,-1,1.293,57.891)"/>
<path style="fill-rule:nonzero;fill:rgb(84.999084%,84.999084%,84.999084%);fill-opacity:1;stroke-width:0.3985;stroke-linecap:butt;stroke-linejoin:miter;stroke:rgb(0%,0%,0%);stroke-opacity:1;stroke-miterlimit:10;" d="M 28.347625 42.519906 L 28.347625 49.605844 L 35.433562 49.605844 L 35.433562 42.519906 Z M 35.433562 49.605844 L 35.433562 56.691781 L 42.5195 56.691781 L 42.5195 49.605844 Z M 35.433562 49.605844 " transform="matrix(1,0,0,-1,1.293,57.891)"/>
<path style="fill-rule:nonzero;fill:rgb(84.999084%,84.999084%,84.999084%);fill-opacity:1;stroke-width:0.3985;stroke-linecap:butt;stroke-linejoin:miter;stroke:rgb(0%,0%,0%);stroke-opacity:1;stroke-miterlimit:10;" d="M 42.5195 0.000375 L 42.5195 7.086312 L 49.605437 7.086312 L 49.605437 0.000375 Z M 49.605437 7.086312 L 49.605437 14.17225 L 56.695281 14.17225 L 56.695281 7.086312 Z M 49.605437 7.086312 " transform="matrix(1,0,0,-1,1.293,57.891)"/>
<path style="fill-rule:nonzero;fill:rgb(84.999084%,84.999084%,84.999084%);fill-opacity:1;stroke-width:0.3985;stroke-linecap:butt;stroke-linejoin:miter;stroke:rgb(0%,0%,0%);stroke-opacity:1;stroke-miterlimit:10;" d="M 42.5195 14.17225 L 42.5195 21.258187 L 49.605437 21.258187 L 49.605437 14.17225 Z M 49.605437 21.258187 L 49.605437 28.348031 L 56.695281 28.348031 L 56.695281 21.258187 Z M 49.605437 21.258187 " transform="matrix(1,0,0,-1,1.293,57.891)"/>
<path style="fill-rule:nonzero;fill:rgb(84.999084%,84.999084%,84.999084%);fill-opacity:1;stroke-width:0.3985;stroke-linecap:butt;stroke-linejoin:miter;stroke:rgb(0%,0%,0%);stroke-opacity:1;stroke-miterlimit:10;" d="M 42.5195 28.348031 L 42.5195 35.433969 L 49.605437 35.433969 L 49.605437 28.348031 Z M 49.605437 35.433969 L 49.605437 42.519906 L 56.695281 42.519906 L 56.695281 35.433969 Z M 49.605437 35.433969 " transform="matrix(1,0,0,-1,1.293,57.891)"/>
<path style="fill-rule:nonzero;fill:rgb(84.999084%,84.999084%,84.999084%);fill-opacity:1;stroke-width:0.3985;stroke-linecap:butt;stroke-linejoin:miter;stroke:rgb(0%,0%,0%);stroke-opacity:1;stroke-miterlimit:10;" d="M 42.5195 42.519906 L 42.5195 49.605844 L 49.605437 49.605844 L 49.605437 42.519906 Z M 49.605437 49.605844 L 49.605437 56.691781 L 56.695281 56.691781 L 56.695281 49.605844 Z M 49.605437 49.605844 " transform="matrix(1,0,0,-1,1.293,57.891)"/>
<path style="fill:none;stroke-width:0.3985;stroke-linecap:butt;stroke-linejoin:miter;stroke:rgb(0%,0%,0%);stroke-opacity:1;stroke-miterlimit:10;" d="M -0.00003125 0.000375 L 56.695281 0.000375 M -0.00003125 7.086312 L 56.695281 7.086312 M -0.00003125 14.17225 L 56.695281 14.17225 M -0.00003125 21.258187 L 56.695281 21.258187 M -0.00003125 28.348031 L 56.695281 28.348031 M -0.00003125 35.433969 L 56.695281 35.433969 M -0.00003125 42.519906 L 56.695281 42.519906 M -0.00003125 49.605844 L 56.695281 49.605844 M -0.00003125 56.691781 L 56.695281 56.691781 M -0.00003125 0.000375 L -0.00003125 56.691781 M 7.085906 0.000375 L 7.085906 56.691781 M 14.171844 0.000375 L 14.171844 56.691781 M 21.261687 0.000375 L 21.261687 56.691781 M 28.347625 0.000375 L 28.347625 56.691781 M 35.433562 0.000375 L 35.433562 56.691781 M 42.5195 0.000375 L 42.5195 56.691781 M 49.605437 0.000375 L 49.605437 56.691781 M 56.691375 0.000375 L 56.691375 56.691781 " transform="matrix(1,0,0,-1,1.293,57.891)"/>
<path style="fill-rule:nonzero;fill:rgb(100%,100%,100%);fill-opacity:1;stroke-width:0.3985;stroke-linecap:butt;stroke-linejoin:miter;stroke:rgb(100%,100%,100%);stroke-opacity:1;stroke-miterlimit:10;" d="M 49.605437 49.605844 L 49.605437 56.691781 L 56.695281 56.691781 L 56.695281 49.605844 Z M -0.00003125 0.000375 L -0.00003125 7.086312 L 7.085906 7.086312 L 7.085906 0.000375 Z M -0.00003125 0.000375 " transform="matrix(1,0,0,-1,1.293,57.891)"/>
<path style="fill:none;stroke-width:1.19553;stroke-linecap:butt;stroke-linejoin:miter;stroke:rgb(0%,0%,0%);stroke-opacity:1;stroke-miterlimit:10;" d="M -0.00003125 7.086312 L 7.085906 7.086312 L 7.085906 0.000375 L 56.695281 0.000375 L 56.695281 49.605844 L 49.605437 49.605844 L 49.605437 56.691781 L -0.00003125 56.691781 L -0.00003125 7.086312 " transform="matrix(1,0,0,-1,1.293,57.891)"/>
</g>
</svg>
