<?xml version="1.0" encoding="UTF-8"?>
<svg xmlns="http://www.w3.org/2000/svg" xmlns:xlink="http://www.w3.org/1999/xlink" width="68pt" height="56pt" viewBox="0 0 68 56" version="1.1">
<g id="surface1">
<path style="fill:none;stroke-width:0.3985;stroke-linecap:butt;stroke-linejoin:miter;stroke:rgb(0%,0%,0%);stroke-opacity:1;stroke-miterlimit:10;" d="M -28.345781 -25.510312 C -39.400469 -16.897031 -39.400469 -8.615781 -28.345781 0.00140625 C -39.400469 8.614688 -39.400469 16.895938 -28.345781 25.513125 C -17.291094 16.895938 -17.291094 8.614688 -28.345781 0.00140625 C -17.291094 -8.615781 -17.291094 -16.897031 -28.345781 -25.510312 " transform="matrix(1,0,0,-1,36.92,28.31)"/>
<path style=" stroke:none;fill-rule:nonzero;fill:rgb(0%,0%,0%);fill-opacity:1;" d="M 10.566406 53.820312 C 10.566406 52.722656 9.671875 51.828125 8.574219 51.828125 C 7.472656 51.828125 6.582031 52.722656 6.582031 53.820312 C 6.582031 54.921875 7.472656 55.816406 8.574219 55.816406 C 9.671875 55.816406 10.566406 54.921875 10.566406 53.820312 Z M 10.566406 53.820312 "/>
<path style=" stroke:none;fill-rule:nonzero;fill:rgb(0%,0%,0%);fill-opacity:1;" d="M 10.566406 28.308594 C 10.566406 27.210938 9.671875 26.316406 8.574219 26.316406 C 7.472656 26.316406 6.582031 27.210938 6.582031 28.308594 C 6.582031 29.410156 7.472656 30.300781 8.574219 30.300781 C 9.671875 30.300781 10.566406 29.410156 10.566406 28.308594 Z M 10.566406 28.308594 "/>
<path style=" stroke:none;fill-rule:nonzero;fill:rgb(0%,0%,0%);fill-opacity:1;" d="M 10.566406 2.796875 C 10.566406 1.699219 9.671875 0.804688 8.574219 0.804688 C 7.472656 0.804688 6.582031 1.699219 6.582031 2.796875 C 6.582031 3.898438 7.472656 4.789062 8.574219 4.789062 C 9.671875 4.789062 10.566406 3.898438 10.566406 2.796875 Z M 10.566406 2.796875 "/>
<path style="fill:none;stroke-width:0.3985;stroke-linecap:butt;stroke-linejoin:miter;stroke:rgb(0%,0%,0%);stroke-opacity:1;stroke-miterlimit:10;" d="M 28.345625 0.00140625 L -28.345781 25.513125 M -28.345781 0.00140625 L 28.345625 0.00140625 L -28.345781 -25.510312 " transform="matrix(1,0,0,-1,36.92,28.31)"/>
<path style=" stroke:none;fill-rule:nonzero;fill:rgb(0%,0%,0%);fill-opacity:1;" d="M 67.257812 28.308594 C 67.257812 27.210938 66.367188 26.316406 65.265625 26.316406 C 64.167969 26.316406 63.273438 27.210938 63.273438 28.308594 C 63.273438 29.410156 64.167969 30.300781 65.265625 30.300781 C 66.367188 30.300781 67.257812 29.410156 67.257812 28.308594 Z M 67.257812 28.308594 "/>
</g>
</svg>
