<?xml version="1.0" encoding="UTF-8"?>
<svg xmlns="http://www.w3.org/2000/svg" xmlns:xlink="http://www.w3.org/1999/xlink" width="58pt" height="58pt" viewBox="0 0 58 58" version="1.1">
<g id="surface1">
<path style=" stroke:none;fill-rule:nonzero;fill:rgb(0%,0%,0%);fill-opacity:1;" d="M 30.859375 29.148438 C 30.859375 28.046875 29.96875 27.15625 28.867188 27.15625 C 27.765625 27.15625 26.875 28.046875 26.875 29.148438 C 26.875 30.25 27.765625 31.140625 28.867188 31.140625 C 29.96875 31.140625 30.859375 30.25 30.859375 29.148438 Z M 30.859375 29.148438 "/>
<path style="fill:none;stroke-width:0.3985;stroke-linecap:butt;stroke-linejoin:miter;stroke:rgb(0%,0%,0%);stroke-opacity:1;stroke-miterlimit:10;" d="M 0.0001875 -0.0004375 L 26.187687 10.847219 " transform="matrix(1,0,0,-1,28.867,29.148)"/>
<path style=" stroke:none;fill-rule:nonzero;fill:rgb(0%,0%,0%);fill-opacity:1;" d="M 57.046875 18.300781 C 57.046875 17.199219 56.15625 16.308594 55.054688 16.308594 C 53.953125 16.308594 53.0625 17.199219 53.0625 18.300781 C 53.0625 19.402344 53.953125 20.292969 55.054688 20.292969 C 56.15625 20.292969 57.046875 19.402344 57.046875 18.300781 Z M 57.046875 18.300781 "/>
<path style="fill:none;stroke-width:0.3985;stroke-linecap:butt;stroke-linejoin:miter;stroke:rgb(0%,0%,0%);stroke-opacity:1;stroke-miterlimit:10;" d="M 0.0001875 -0.0004375 L 10.847844 26.187062 " transform="matrix(1,0,0,-1,28.867,29.148)"/>
<path style=" stroke:none;fill-rule:nonzero;fill:rgb(0%,0%,0%);fill-opacity:1;" d="M 41.707031 2.960938 C 41.707031 1.859375 40.816406 0.96875 39.714844 0.96875 C 38.613281 0.96875 37.722656 1.859375 37.722656 2.960938 C 37.722656 4.058594 38.613281 4.953125 39.714844 4.953125 C 40.816406 4.953125 41.707031 4.058594 41.707031 2.960938 Z M 41.707031 2.960938 "/>
<path style="fill:none;stroke-width:0.3985;stroke-linecap:butt;stroke-linejoin:miter;stroke:rgb(0%,0%,0%);stroke-opacity:1;stroke-miterlimit:10;" d="M 0.0001875 -0.0004375 L -10.847469 26.187062 " transform="matrix(1,0,0,-1,28.867,29.148)"/>
<path style=" stroke:none;fill-rule:nonzero;fill:rgb(0%,0%,0%);fill-opacity:1;" d="M 20.011719 2.960938 C 20.011719 1.859375 19.121094 0.96875 18.019531 0.96875 C 16.917969 0.96875 16.027344 1.859375 16.027344 2.960938 C 16.027344 4.058594 16.917969 4.953125 18.019531 4.953125 C 19.121094 4.953125 20.011719 4.058594 20.011719 2.960938 Z M 20.011719 2.960938 "/>
<path style="fill:none;stroke-width:0.3985;stroke-linecap:butt;stroke-linejoin:miter;stroke:rgb(0%,0%,0%);stroke-opacity:1;stroke-miterlimit:10;" d="M 0.0001875 -0.0004375 L -26.187313 10.847219 " transform="matrix(1,0,0,-1,28.867,29.148)"/>
<path style=" stroke:none;fill-rule:nonzero;fill:rgb(0%,0%,0%);fill-opacity:1;" d="M 4.671875 18.300781 C 4.671875 17.199219 3.78125 16.308594 2.679688 16.308594 C 1.578125 16.308594 0.6875 17.199219 0.6875 18.300781 C 0.6875 19.402344 1.578125 20.292969 2.679688 20.292969 C 3.78125 20.292969 4.671875 19.402344 4.671875 18.300781 Z M 4.671875 18.300781 "/>
<path style="fill:none;stroke-width:0.3985;stroke-linecap:butt;stroke-linejoin:miter;stroke:rgb(0%,0%,0%);stroke-opacity:1;stroke-miterlimit:10;" d="M 0.0001875 -0.0004375 L -26.187313 -10.848094 " transform="matrix(1,0,0,-1,28.867,29.148)"/>
<path style=" stroke:none;fill-rule:nonzero;fill:rgb(0%,0%,0%);fill-opacity:1;" d="M 4.671875 39.996094 C 4.671875 38.894531 3.78125 38.003906 2.679688 38.003906 C 1.578125 38.003906 0.6875 38.894531 0.6875 39.996094 C 0.6875 41.09375 1.578125 41.988281 2.679688 41.988281 C 3.78125 41.988281 4.671875 41.09375 4.671875 39.996094 Z M 4.671875 39.996094 "/>
<path style="fill:none;stroke-width:0.3985;stroke-linecap:butt;stroke-linejoin:miter;stroke:rgb(0%,0%,0%);stroke-opacity:1;stroke-miterlimit:10;" d="M 0.0001875 -0.0004375 L -10.847469 -26.187938 " transform="matrix(1,0,0,-1,28.867,29.148)"/>
<path style=" stroke:none;fill-rule:nonzero;fill:rgb(0%,0%,0%);fill-opacity:1;" d="M 20.011719 55.335938 C 20.011719 54.234375 19.121094 53.34375 18.019531 53.34375 C 16.917969 53.34375 16.027344 54.234375 16.027344 55.335938 C 16.027344 56.4375 16.917969 57.328125 18.019531 57.328125 C 19.121094 57.328125 20.011719 56.4375 20.011719 55.335938 Z M 20.011719 55.335938 "/>
<path style="fill:none;stroke-width:0.3985;stroke-linecap:butt;stroke-linejoin:miter;stroke:rgb(0%,0%,0%);stroke-opacity:1;stroke-miterlimit:10;" d="M 0.0001875 -0.0004375 L 10.847844 -26.187938 " transform="matrix(1,0,0,-1,28.867,29.148)"/>
<path style=" stroke:none;fill-rule:nonzero;fill:rgb(0%,0%,0%);fill-opacity:1;" d="M 41.707031 55.335938 C 41.707031 54.234375 40.816406 53.34375 39.714844 53.34375 C 38.613281 53.34375 37.722656 54.234375 37.722656 55.335938 C 37.722656 56.4375 38.613281 57.328125 39.714844 57.328125 C 40.816406 57.328125 41.707031 56.4375 41.707031 55.335938 Z M 41.707031 55.335938 "/>
<path style="fill:none;stroke-width:0.3985;stroke-linecap:butt;stroke-linejoin:miter;stroke:rgb(0%,0%,0%);stroke-opacity:1;stroke-miterlimit:10;" d="M 0.0001875 -0.0004375 L 26.187687 -10.848094 " transform="matrix(1,0,0,-1,28.867,29.148)"/>
<path style=" stroke:none;fill-rule:nonzero;fill:rgb(0%,0%,0%);fill-opacity:1;" d="M 57.046875 39.996094 C 57.046875 38.894531 56.15625 38.003906 55.054688 38.003906 C 53.953125 38.003906 53.0625 38.894531 53.0625 39.996094 C 53.0625 41.09375 53.953125 41.988281 55.054688 41.988281 C 56.15625 41.988281 57.046875 41.09375 57.046875 39.996094 Z M 57.046875 39.996094 "/>
</g>
</svg>
