<?xml version="1.0" encoding="UTF-8"?>
<svg xmlns="http://www.w3.org/2000/svg" xmlns:xlink="http://www.w3.org/1999/xlink" width="57pt" height="57pt" viewBox="0 0 57 57" version="1.1">
<g id="surface1">
<path style="fill:none;stroke-width:0.3985;stroke-linecap:butt;stroke-linejoin:miter;stroke:rgb(0%,0%,0%);stroke-opacity:1;stroke-miterlimit:10;" d="M 20.0425 20.042656 L -20.043437 20.042656 L -20.043437 -20.043281 L 20.0425 -20.043281 L 20.0425 20.042656 L -20.043437 -20.043281 " transform="matrix(1,0,0,-1,22.27,34.07)"/>
<path style=" stroke:none;fill-rule:nonzero;fill:rgb(0%,0%,0%);fill-opacity:1;" d="M 44.308594 14.027344 C 44.308594 12.925781 43.414062 12.035156 42.3125 12.035156 C 41.214844 12.035156 40.320312 12.925781 40.320312 14.027344 C 40.320312 15.125 41.214844 16.019531 42.3125 16.019531 C 43.414062 16.019531 44.308594 15.125 44.308594 14.027344 Z M 44.308594 14.027344 "/>
<path style=" stroke:none;fill-rule:nonzero;fill:rgb(0%,0%,0%);fill-opacity:1;" d="M 4.21875 14.027344 C 4.21875 12.925781 3.328125 12.035156 2.226562 12.035156 C 1.125 12.035156 0.234375 12.925781 0.234375 14.027344 C 0.234375 15.125 1.125 16.019531 2.226562 16.019531 C 3.328125 16.019531 4.21875 15.125 4.21875 14.027344 Z M 4.21875 14.027344 "/>
<path style=" stroke:none;fill-rule:nonzero;fill:rgb(0%,0%,0%);fill-opacity:1;" d="M 4.21875 54.113281 C 4.21875 53.015625 3.328125 52.121094 2.226562 52.121094 C 1.125 52.121094 0.234375 53.015625 0.234375 54.113281 C 0.234375 55.214844 1.125 56.105469 2.226562 56.105469 C 3.328125 56.105469 4.21875 55.214844 4.21875 54.113281 Z M 4.21875 54.113281 "/>
<path style=" stroke:none;fill-rule:nonzero;fill:rgb(0%,0%,0%);fill-opacity:1;" d="M 44.308594 54.113281 C 44.308594 53.015625 43.414062 52.121094 42.3125 52.121094 C 41.214844 52.121094 40.320312 53.015625 40.320312 54.113281 C 40.320312 55.214844 41.214844 56.105469 42.3125 56.105469 C 43.414062 56.105469 44.308594 55.214844 44.308594 54.113281 Z M 44.308594 54.113281 "/>
<path style="fill:none;stroke-width:0.3985;stroke-linecap:butt;stroke-linejoin:miter;stroke:rgb(0%,0%,0%);stroke-opacity:1;stroke-miterlimit:10;" d="M -20.043437 20.042656 C 19.390156 53.273125 53.272969 19.390313 20.0425 -20.043281 " transform="matrix(1,0,0,-1,22.27,34.07)"/>
</g>
</svg>
