<?xml version="1.0" encoding="UTF-8"?>
<svg xmlns="http://www.w3.org/2000/svg" xmlns:xlink="http://www.w3.org/1999/xlink" width="82pt" height="71pt" viewBox="0 0 82 71" version="1.1">
<g id="surface1">
<path style="fill:none;stroke-width:1.79329;stroke-linecap:butt;stroke-linejoin:miter;stroke:rgb(0%,0%,0%);stroke-opacity:1;stroke-miterlimit:10;" d="M -0.00171875 -22.677344 L -39.279063 -22.677344 L -19.638438 11.338281 L -0.00171875 -22.677344 L 39.279531 -22.677344 L 19.638906 11.338281 L -19.638438 11.338281 L -0.00171875 45.353906 L 19.638906 11.338281 L -0.00171875 -22.677344 " transform="matrix(1,0,0,-1,40.99,47.35)"/>
<path style=" stroke:none;fill-rule:nonzero;fill:rgb(100%,100%,100%);fill-opacity:1;" d="M 43.382812 70.027344 C 43.382812 68.707031 42.3125 67.636719 40.988281 67.636719 C 39.667969 67.636719 38.597656 68.707031 38.597656 70.027344 C 38.597656 71.347656 39.667969 72.417969 40.988281 72.417969 C 42.3125 72.417969 43.382812 71.347656 43.382812 70.027344 Z M 43.382812 70.027344 "/>
<path style=" stroke:none;fill-rule:nonzero;fill:rgb(100%,100%,100%);fill-opacity:1;" d="M 82.660156 70.027344 C 82.660156 68.707031 81.589844 67.636719 80.269531 67.636719 C 78.949219 67.636719 77.878906 68.707031 77.878906 70.027344 C 77.878906 71.347656 78.949219 72.417969 80.269531 72.417969 C 81.589844 72.417969 82.660156 71.347656 82.660156 70.027344 Z M 82.660156 70.027344 "/>
<path style=" stroke:none;fill-rule:nonzero;fill:rgb(100%,100%,100%);fill-opacity:1;" d="M 4.101562 70.027344 C 4.101562 68.707031 3.03125 67.636719 1.710938 67.636719 C 0.390625 67.636719 -0.679688 68.707031 -0.679688 70.027344 C -0.679688 71.347656 0.390625 72.417969 1.710938 72.417969 C 3.03125 72.417969 4.101562 71.347656 4.101562 70.027344 Z M 4.101562 70.027344 "/>
<path style=" stroke:none;fill-rule:nonzero;fill:rgb(100%,100%,100%);fill-opacity:1;" d="M 43.382812 1.996094 C 43.382812 0.675781 42.3125 -0.394531 40.988281 -0.394531 C 39.667969 -0.394531 38.597656 0.675781 38.597656 1.996094 C 38.597656 3.316406 39.667969 4.386719 40.988281 4.386719 C 42.3125 4.386719 43.382812 3.316406 43.382812 1.996094 Z M 43.382812 1.996094 "/>
<path style=" stroke:none;fill-rule:nonzero;fill:rgb(100%,100%,100%);fill-opacity:1;" d="M 63.019531 36.011719 C 63.019531 34.691406 61.949219 33.621094 60.628906 33.621094 C 59.308594 33.621094 58.238281 34.691406 58.238281 36.011719 C 58.238281 37.332031 59.308594 38.402344 60.628906 38.402344 C 61.949219 38.402344 63.019531 37.332031 63.019531 36.011719 Z M 63.019531 36.011719 "/>
<path style=" stroke:none;fill-rule:nonzero;fill:rgb(100%,100%,100%);fill-opacity:1;" d="M 23.742188 36.011719 C 23.742188 34.691406 22.671875 33.621094 21.351562 33.621094 C 20.03125 33.621094 18.960938 34.691406 18.960938 36.011719 C 18.960938 37.332031 20.03125 38.402344 21.351562 38.402344 C 22.671875 38.402344 23.742188 37.332031 23.742188 36.011719 Z M 23.742188 36.011719 "/>
</g>
</svg>
