<?xml version="1.0" encoding="UTF-8"?>
<svg xmlns="http://www.w3.org/2000/svg" xmlns:xlink="http://www.w3.org/1999/xlink" width="59pt" height="61pt" viewBox="0 0 59 61" version="1.1">
<g id="surface1">
<path style="fill:none;stroke-width:0.3985;stroke-linecap:butt;stroke-linejoin:miter;stroke:rgb(0%,0%,0%);stroke-opacity:1;stroke-miterlimit:10;" d="M 17.672625 22.161406 L -6.307844 27.634062 L -25.538313 12.298125 L -25.538313 -12.299531 L -6.307844 -27.635469 L 17.672625 -22.162813 L 28.348406 0.00125 Z M 17.672625 22.161406 " transform="matrix(1,0,0,-1,28.218,30.595)"/>
<path style=" stroke:none;fill-rule:nonzero;fill:rgb(0%,0%,0%);fill-opacity:1;" d="M 47.882812 8.433594 C 47.882812 7.332031 46.992188 6.441406 45.890625 6.441406 C 44.789062 6.441406 43.898438 7.332031 43.898438 8.433594 C 43.898438 9.535156 44.789062 10.425781 45.890625 10.425781 C 46.992188 10.425781 47.882812 9.535156 47.882812 8.433594 Z M 47.882812 8.433594 "/>
<path style=" stroke:none;fill-rule:nonzero;fill:rgb(0%,0%,0%);fill-opacity:1;" d="M 23.902344 2.960938 C 23.902344 1.859375 23.011719 0.96875 21.910156 0.96875 C 20.8125 0.96875 19.917969 1.859375 19.917969 2.960938 C 19.917969 4.058594 20.8125 4.953125 21.910156 4.953125 C 23.011719 4.953125 23.902344 4.058594 23.902344 2.960938 Z M 23.902344 2.960938 "/>
<path style=" stroke:none;fill-rule:nonzero;fill:rgb(0%,0%,0%);fill-opacity:1;" d="M 4.671875 18.296875 C 4.671875 17.195312 3.78125 16.304688 2.679688 16.304688 C 1.578125 16.304688 0.6875 17.195312 0.6875 18.296875 C 0.6875 19.398438 1.578125 20.289062 2.679688 20.289062 C 3.78125 20.289062 4.671875 19.398438 4.671875 18.296875 Z M 4.671875 18.296875 "/>
<path style=" stroke:none;fill-rule:nonzero;fill:rgb(0%,0%,0%);fill-opacity:1;" d="M 4.671875 42.894531 C 4.671875 41.792969 3.78125 40.902344 2.679688 40.902344 C 1.578125 40.902344 0.6875 41.792969 0.6875 42.894531 C 0.6875 43.992188 1.578125 44.886719 2.679688 44.886719 C 3.78125 44.886719 4.671875 43.992188 4.671875 42.894531 Z M 4.671875 42.894531 "/>
<path style=" stroke:none;fill-rule:nonzero;fill:rgb(0%,0%,0%);fill-opacity:1;" d="M 23.902344 58.230469 C 23.902344 57.128906 23.011719 56.238281 21.910156 56.238281 C 20.808594 56.238281 19.917969 57.128906 19.917969 58.230469 C 19.917969 59.332031 20.808594 60.222656 21.910156 60.222656 C 23.011719 60.222656 23.902344 59.332031 23.902344 58.230469 Z M 23.902344 58.230469 "/>
<path style=" stroke:none;fill-rule:nonzero;fill:rgb(0%,0%,0%);fill-opacity:1;" d="M 47.882812 52.757812 C 47.882812 51.65625 46.992188 50.761719 45.890625 50.761719 C 44.789062 50.761719 43.898438 51.65625 43.898438 52.757812 C 43.898438 53.855469 44.789062 54.75 45.890625 54.75 C 46.992188 54.75 47.882812 53.855469 47.882812 52.757812 Z M 47.882812 52.757812 "/>
<path style=" stroke:none;fill-rule:nonzero;fill:rgb(0%,0%,0%);fill-opacity:1;" d="M 58.558594 30.59375 C 58.558594 29.496094 57.664062 28.601562 56.566406 28.601562 C 55.464844 28.601562 54.570312 29.496094 54.570312 30.59375 C 54.570312 31.695312 55.464844 32.585938 56.566406 32.585938 C 57.664062 32.585938 58.558594 31.695312 58.558594 30.59375 Z M 58.558594 30.59375 "/>
</g>
</svg>
