<?xml version="1.0" encoding="UTF-8"?>
<svg xmlns="http://www.w3.org/2000/svg" xmlns:xlink="http://www.w3.org/1999/xlink" width="56pt" height="59pt" viewBox="0 0 56 59" version="1.1">
<g id="surface1">
<path style=" stroke:none;fill-rule:nonzero;fill:rgb(0%,0%,0%);fill-opacity:1;" d="M 27.152344 29.75 C 27.152344 28.648438 26.261719 27.757812 25.160156 27.757812 C 24.058594 27.757812 23.167969 28.648438 23.167969 29.75 C 23.167969 30.851562 24.058594 31.742188 25.160156 31.742188 C 26.261719 31.742188 27.152344 30.851562 27.152344 29.75 Z M 27.152344 29.75 "/>
<path style="fill:none;stroke-width:0.3985;stroke-linecap:butt;stroke-linejoin:miter;stroke:rgb(0%,0%,0%);stroke-opacity:1;stroke-miterlimit:10;" d="M 0.00015625 0 L 28.347813 0 L 8.757969 26.960938 " transform="matrix(1,0,0,-1,25.16,29.75)"/>
<path style=" stroke:none;fill-rule:nonzero;fill:rgb(0%,0%,0%);fill-opacity:1;" d="M 55.5 29.75 C 55.5 28.648438 54.605469 27.757812 53.507812 27.757812 C 52.40625 27.757812 51.515625 28.648438 51.515625 29.75 C 51.515625 30.851562 52.40625 31.742188 53.507812 31.742188 C 54.605469 31.742188 55.5 30.851562 55.5 29.75 Z M 55.5 29.75 "/>
<path style="fill:none;stroke-width:0.3985;stroke-linecap:butt;stroke-linejoin:miter;stroke:rgb(0%,0%,0%);stroke-opacity:1;stroke-miterlimit:10;" d="M 0.00015625 0 L 8.757969 26.960938 L -22.933437 16.660156 " transform="matrix(1,0,0,-1,25.16,29.75)"/>
<path style=" stroke:none;fill-rule:nonzero;fill:rgb(0%,0%,0%);fill-opacity:1;" d="M 35.914062 2.789062 C 35.914062 1.691406 35.019531 0.796875 33.917969 0.796875 C 32.820312 0.796875 31.925781 1.691406 31.925781 2.789062 C 31.925781 3.890625 32.820312 4.78125 33.917969 4.78125 C 35.019531 4.78125 35.914062 3.890625 35.914062 2.789062 Z M 35.914062 2.789062 "/>
<path style="fill:none;stroke-width:0.3985;stroke-linecap:butt;stroke-linejoin:miter;stroke:rgb(0%,0%,0%);stroke-opacity:1;stroke-miterlimit:10;" d="M 0.00015625 0 L -22.933437 16.660156 L -22.933437 -16.660156 " transform="matrix(1,0,0,-1,25.16,29.75)"/>
<path style=" stroke:none;fill-rule:nonzero;fill:rgb(0%,0%,0%);fill-opacity:1;" d="M 4.21875 13.089844 C 4.21875 11.988281 3.328125 11.09375 2.226562 11.09375 C 1.125 11.09375 0.234375 11.988281 0.234375 13.089844 C 0.234375 14.1875 1.125 15.082031 2.226562 15.082031 C 3.328125 15.082031 4.21875 14.1875 4.21875 13.089844 Z M 4.21875 13.089844 "/>
<path style="fill:none;stroke-width:0.3985;stroke-linecap:butt;stroke-linejoin:miter;stroke:rgb(0%,0%,0%);stroke-opacity:1;stroke-miterlimit:10;" d="M 0.00015625 0 L -22.933437 -16.660156 L 8.757969 -26.960938 " transform="matrix(1,0,0,-1,25.16,29.75)"/>
<path style=" stroke:none;fill-rule:nonzero;fill:rgb(0%,0%,0%);fill-opacity:1;" d="M 4.21875 46.410156 C 4.21875 45.3125 3.328125 44.417969 2.226562 44.417969 C 1.125 44.417969 0.234375 45.3125 0.234375 46.410156 C 0.234375 47.511719 1.125 48.40625 2.226562 48.40625 C 3.328125 48.40625 4.21875 47.511719 4.21875 46.410156 Z M 4.21875 46.410156 "/>
<path style="fill:none;stroke-width:0.3985;stroke-linecap:butt;stroke-linejoin:miter;stroke:rgb(0%,0%,0%);stroke-opacity:1;stroke-miterlimit:10;" d="M 0.00015625 0 L 8.757969 -26.960938 L 28.347813 0 " transform="matrix(1,0,0,-1,25.16,29.75)"/>
<path style=" stroke:none;fill-rule:nonzero;fill:rgb(0%,0%,0%);fill-opacity:1;" d="M 35.914062 56.710938 C 35.914062 55.609375 35.019531 54.71875 33.917969 54.71875 C 32.820312 54.71875 31.925781 55.609375 31.925781 56.710938 C 31.925781 57.808594 32.820312 58.703125 33.917969 58.703125 C 35.019531 58.703125 35.914062 57.808594 35.914062 56.710938 Z M 35.914062 56.710938 "/>
</g>
</svg>
