<?xml version="1.0" encoding="UTF-8"?>
<svg xmlns="http://www.w3.org/2000/svg" xmlns:xlink="http://www.w3.org/1999/xlink" width="59pt" height="59pt" viewBox="0 0 59 59" version="1.1">
<g id="surface1">
<path style="fill-rule:nonzero;fill:rgb(84.999084%,84.999084%,84.999084%);fill-opacity:1;stroke-width:0.3985;stroke-linecap:butt;stroke-linejoin:miter;stroke:rgb(0%,0%,0%);stroke-opacity:1;stroke-miterlimit:10;" d="M 0.001875 -0.000625 L 0.001875 7.085313 L 7.087812 7.085313 L 7.087812 -0.000625 Z M 7.087812 7.085313 L 7.087812 14.175156 L 14.17375 14.175156 L 14.17375 7.085313 Z M 7.087812 7.085313 " transform="matrix(1,0,0,-1,0.92,57.89)"/>
<path style="fill-rule:nonzero;fill:rgb(84.999084%,84.999084%,84.999084%);fill-opacity:1;stroke-width:0.3985;stroke-linecap:butt;stroke-linejoin:miter;stroke:rgb(0%,0%,0%);stroke-opacity:1;stroke-miterlimit:10;" d="M 0.001875 14.175156 L 0.001875 21.261094 L 7.087812 21.261094 L 7.087812 14.175156 Z M 7.087812 21.261094 L 7.087812 28.347031 L 14.17375 28.347031 L 14.17375 21.261094 Z M 7.087812 21.261094 " transform="matrix(1,0,0,-1,0.92,57.89)"/>
<path style="fill-rule:nonzero;fill:rgb(84.999084%,84.999084%,84.999084%);fill-opacity:1;stroke-width:0.3985;stroke-linecap:butt;stroke-linejoin:miter;stroke:rgb(0%,0%,0%);stroke-opacity:1;stroke-miterlimit:10;" d="M 0.001875 28.347031 L 0.001875 35.432969 L 7.087812 35.432969 L 7.087812 28.347031 Z M 7.087812 35.432969 L 7.087812 42.518906 L 14.17375 42.518906 L 14.17375 35.432969 Z M 7.087812 35.432969 " transform="matrix(1,0,0,-1,0.92,57.89)"/>
<path style="fill-rule:nonzero;fill:rgb(84.999084%,84.999084%,84.999084%);fill-opacity:1;stroke-width:0.3985;stroke-linecap:butt;stroke-linejoin:miter;stroke:rgb(0%,0%,0%);stroke-opacity:1;stroke-miterlimit:10;" d="M 0.001875 42.518906 L 0.001875 49.60875 L 7.087812 49.60875 L 7.087812 42.518906 Z M 7.087812 49.60875 L 7.087812 56.694688 L 14.17375 56.694688 L 14.17375 49.60875 Z M 7.087812 49.60875 " transform="matrix(1,0,0,-1,0.92,57.89)"/>
<path style="fill-rule:nonzero;fill:rgb(84.999084%,84.999084%,84.999084%);fill-opacity:1;stroke-width:0.3985;stroke-linecap:butt;stroke-linejoin:miter;stroke:rgb(0%,0%,0%);stroke-opacity:1;stroke-miterlimit:10;" d="M 14.17375 -0.000625 L 14.17375 7.085313 L 21.259687 7.085313 L 21.259687 -0.000625 Z M 21.259687 7.085313 L 21.259687 14.175156 L 28.345625 14.175156 L 28.345625 7.085313 Z M 21.259687 7.085313 " transform="matrix(1,0,0,-1,0.92,57.89)"/>
<path style="fill-rule:nonzero;fill:rgb(84.999084%,84.999084%,84.999084%);fill-opacity:1;stroke-width:0.3985;stroke-linecap:butt;stroke-linejoin:miter;stroke:rgb(0%,0%,0%);stroke-opacity:1;stroke-miterlimit:10;" d="M 14.17375 14.175156 L 14.17375 21.261094 L 21.259687 21.261094 L 21.259687 14.175156 Z M 21.259687 21.261094 L 21.259687 28.347031 L 28.345625 28.347031 L 28.345625 21.261094 Z M 21.259687 21.261094 " transform="matrix(1,0,0,-1,0.92,57.89)"/>
<path style="fill-rule:nonzero;fill:rgb(84.999084%,84.999084%,84.999084%);fill-opacity:1;stroke-width:0.3985;stroke-linecap:butt;stroke-linejoin:miter;stroke:rgb(0%,0%,0%);stroke-opacity:1;stroke-miterlimit:10;" d="M 14.17375 28.347031 L 14.17375 35.432969 L 21.259687 35.432969 L 21.259687 28.347031 Z M 21.259687 35.432969 L 21.259687 42.518906 L 28.345625 42.518906 L 28.345625 35.432969 Z M 21.259687 35.432969 " transform="matrix(1,0,0,-1,0.92,57.89)"/>
<path style="fill-rule:nonzero;fill:rgb(84.999084%,84.999084%,84.999084%);fill-opacity:1;stroke-width:0.3985;stroke-linecap:butt;stroke-linejoin:miter;stroke:rgb(0%,0%,0%);stroke-opacity:1;stroke-miterlimit:10;" d="M 14.17375 42.518906 L 14.17375 49.60875 L 21.259687 49.60875 L 21.259687 42.518906 Z M 21.259687 49.60875 L 21.259687 56.694688 L 28.345625 56.694688 L 28.345625 49.60875 Z M 21.259687 49.60875 " transform="matrix(1,0,0,-1,0.92,57.89)"/>
<path style="fill-rule:nonzero;fill:rgb(84.999084%,84.999084%,84.999084%);fill-opacity:1;stroke-width:0.3985;stroke-linecap:butt;stroke-linejoin:miter;stroke:rgb(0%,0%,0%);stroke-opacity:1;stroke-miterlimit:10;" d="M 28.345625 -0.000625 L 28.345625 7.085313 L 35.431562 7.085313 L 35.431562 -0.000625 Z M 35.431562 7.085313 L 35.431562 14.175156 L 42.521406 14.175156 L 42.521406 7.085313 Z M 35.431562 7.085313 " transform="matrix(1,0,0,-1,0.92,57.89)"/>
<path style="fill-rule:nonzero;fill:rgb(84.999084%,84.999084%,84.999084%);fill-opacity:1;stroke-width:0.3985;stroke-linecap:butt;stroke-linejoin:miter;stroke:rgb(0%,0%,0%);stroke-opacity:1;stroke-miterlimit:10;" d="M 28.345625 14.175156 L 28.345625 21.261094 L 35.431562 21.261094 L 35.431562 14.175156 Z M 35.431562 21.261094 L 35.431562 28.347031 L 42.521406 28.347031 L 42.521406 21.261094 Z M 35.431562 21.261094 " transform="matrix(1,0,0,-1,0.92,57.89)"/>
<path style="fill-rule:nonzero;fill:rgb(84.999084%,84.999084%,84.999084%);fill-opacity:1;stroke-width:0.3985;stroke-linecap:butt;stroke-linejoin:miter;stroke:rgb(0%,0%,0%);stroke-opacity:1;stroke-miterlimit:10;" d="M 28.345625 28.347031 L 28.345625 35.432969 L 35.431562 35.432969 L 35.431562 28.347031 Z M 35.431562 35.432969 L 35.431562 42.518906 L 42.521406 42.518906 L 42.521406 35.432969 Z M 35.431562 35.432969 " transform="matrix(1,0,0,-1,0.92,57.89)"/>
<path style="fill-rule:nonzero;fill:rgb(84.999084%,84.999084%,84.999084%);fill-opacity:1;stroke-width:0.3985;stroke-linecap:butt;stroke-linejoin:miter;stroke:rgb(0%,0%,0%);stroke-opacity:1;stroke-miterlimit:10;" d="M 28.345625 42.518906 L 28.345625 49.60875 L 35.431562 49.60875 L 35.431562 42.518906 Z M 35.431562 49.60875 L 35.431562 56.694688 L 42.521406 56.694688 L 42.521406 49.60875 Z M 35.431562 49.60875 " transform="matrix(1,0,0,-1,0.92,57.89)"/>
<path style="fill-rule:nonzero;fill:rgb(84.999084%,84.999084%,84.999084%);fill-opacity:1;stroke-width:0.3985;stroke-linecap:butt;stroke-linejoin:miter;stroke:rgb(0%,0%,0%);stroke-opacity:1;stroke-miterlimit:10;" d="M 42.521406 -0.000625 L 42.521406 7.085313 L 49.607344 7.085313 L 49.607344 -0.000625 Z M 49.607344 7.085313 L 49.607344 14.175156 L 56.693281 14.175156 L 56.693281 7.085313 Z M 49.607344 7.085313 " transform="matrix(1,0,0,-1,0.92,57.89)"/>
<path style="fill-rule:nonzero;fill:rgb(84.999084%,84.999084%,84.999084%);fill-opacity:1;stroke-width:0.3985;stroke-linecap:butt;stroke-linejoin:miter;stroke:rgb(0%,0%,0%);stroke-opacity:1;stroke-miterlimit:10;" d="M 42.521406 14.175156 L 42.521406 21.261094 L 49.607344 21.261094 L 49.607344 14.175156 Z M 49.607344 21.261094 L 49.607344 28.347031 L 56.693281 28.347031 L 56.693281 21.261094 Z M 49.607344 21.261094 " transform="matrix(1,0,0,-1,0.92,57.89)"/>
<path style="fill-rule:nonzero;fill:rgb(84.999084%,84.999084%,84.999084%);fill-opacity:1;stroke-width:0.3985;stroke-linecap:butt;stroke-linejoin:miter;stroke:rgb(0%,0%,0%);stroke-opacity:1;stroke-miterlimit:10;" d="M 42.521406 28.347031 L 42.521406 35.432969 L 49.607344 35.432969 L 49.607344 28.347031 Z M 49.607344 35.432969 L 49.607344 42.518906 L 56.693281 42.518906 L 56.693281 35.432969 Z M 49.607344 35.432969 " transform="matrix(1,0,0,-1,0.92,57.89)"/>
<path style="fill-rule:nonzero;fill:rgb(84.999084%,84.999084%,84.999084%);fill-opacity:1;stroke-width:0.3985;stroke-linecap:butt;stroke-linejoin:miter;stroke:rgb(0%,0%,0%);stroke-opacity:1;stroke-miterlimit:10;" d="M 42.521406 42.518906 L 42.521406 49.60875 L 49.607344 49.60875 L 49.607344 42.518906 Z M 49.607344 49.60875 L 49.607344 56.694688 L 56.693281 56.694688 L 56.693281 49.60875 Z M 49.607344 49.60875 " transform="matrix(1,0,0,-1,0.92,57.89)"/>
<path style="fill:none;stroke-width:0.3985;stroke-linecap:butt;stroke-linejoin:miter;stroke:rgb(0%,0%,0%);stroke-opacity:1;stroke-miterlimit:10;" d="M 0.001875 -0.000625 L 56.693281 -0.000625 M 0.001875 7.085313 L 56.693281 7.085313 M 0.001875 14.175156 L 56.693281 14.175156 M 0.001875 21.261094 L 56.693281 21.261094 M 0.001875 28.347031 L 56.693281 28.347031 M 0.001875 35.432969 L 56.693281 35.432969 M 0.001875 42.518906 L 56.693281 42.518906 M 0.001875 49.60875 L 56.693281 49.60875 M 0.001875 56.690781 L 56.693281 56.690781 M 0.001875 -0.000625 L 0.001875 56.694688 M 7.087812 -0.000625 L 7.087812 56.694688 M 14.17375 -0.000625 L 14.17375 56.694688 M 21.259687 -0.000625 L 21.259687 56.694688 M 28.345625 -0.000625 L 28.345625 56.694688 M 35.431562 -0.000625 L 35.431562 56.694688 M 42.521406 -0.000625 L 42.521406 56.694688 M 49.607344 -0.000625 L 49.607344 56.694688 M 56.689375 -0.000625 L 56.689375 56.694688 " transform="matrix(1,0,0,-1,0.92,57.89)"/>
<path style="fill-rule:nonzero;fill:rgb(100%,100%,100%);fill-opacity:1;stroke-width:0.3985;stroke-linecap:butt;stroke-linejoin:miter;stroke:rgb(100%,100%,100%);stroke-opacity:1;stroke-miterlimit:10;" d="M 49.607344 49.60875 L 49.607344 56.694688 L 56.693281 56.694688 L 56.693281 49.60875 Z M 0.001875 -0.000625 L 0.001875 7.085313 L 7.087812 7.085313 L 7.087812 -0.000625 Z M 0.001875 -0.000625 " transform="matrix(1,0,0,-1,0.92,57.89)"/>
<path style="fill:none;stroke-width:1.19553;stroke-linecap:butt;stroke-linejoin:miter;stroke:rgb(0%,0%,0%);stroke-opacity:1;stroke-miterlimit:10;" d="M 0.001875 7.085313 L 7.087812 7.085313 L 7.087812 -0.000625 L 56.693281 -0.000625 L 56.693281 49.60875 L 49.607344 49.60875 L 49.607344 56.694688 L 0.001875 56.694688 L 0.001875 7.085313 " transform="matrix(1,0,0,-1,0.92,57.89)"/>
</g>
</svg>
