<?xml version="1.0" encoding="UTF-8"?>
<svg xmlns="http://www.w3.org/2000/svg" xmlns:xlink="http://www.w3.org/1999/xlink" width="61pt" height="34pt" viewBox="0 0 61 34" version="1.1">
<g id="surface1">
<path style="fill:none;stroke-width:0.3985;stroke-linecap:butt;stroke-linejoin:miter;stroke:rgb(0%,0%,0%);stroke-opacity:1;stroke-miterlimit:10;" d="M -28.347344 -0.000625 L -14.171562 28.347031 L 0.0003125 -0.000625 L 14.172188 28.347031 L 28.347969 -0.000625 L -14.171562 28.347031 M -28.347344 -0.000625 L 14.172188 28.347031 " transform="matrix(1,0,0,-1,30.57,31.14)"/>
<path style=" stroke:none;fill-rule:nonzero;fill:rgb(0%,0%,0%);fill-opacity:1;" d="M 4.214844 31.140625 C 4.214844 30.039062 3.324219 29.148438 2.222656 29.148438 C 1.121094 29.148438 0.230469 30.039062 0.230469 31.140625 C 0.230469 32.242188 1.121094 33.132812 2.222656 33.132812 C 3.324219 33.132812 4.214844 32.242188 4.214844 31.140625 Z M 4.214844 31.140625 "/>
<path style=" stroke:none;fill-rule:nonzero;fill:rgb(0%,0%,0%);fill-opacity:1;" d="M 32.5625 31.140625 C 32.5625 30.039062 31.671875 29.148438 30.570312 29.148438 C 29.46875 29.148438 28.578125 30.039062 28.578125 31.140625 C 28.578125 32.242188 29.46875 33.132812 30.570312 33.132812 C 31.671875 33.132812 32.5625 32.242188 32.5625 31.140625 Z M 32.5625 31.140625 "/>
<path style=" stroke:none;fill-rule:nonzero;fill:rgb(0%,0%,0%);fill-opacity:1;" d="M 60.910156 31.140625 C 60.910156 30.039062 60.015625 29.148438 58.917969 29.148438 C 57.816406 29.148438 56.925781 30.039062 56.925781 31.140625 C 56.925781 32.242188 57.816406 33.132812 58.917969 33.132812 C 60.015625 33.132812 60.910156 32.242188 60.910156 31.140625 Z M 60.910156 31.140625 "/>
<path style=" stroke:none;fill-rule:nonzero;fill:rgb(0%,0%,0%);fill-opacity:1;" d="M 18.390625 2.792969 C 18.390625 1.691406 17.496094 0.800781 16.398438 0.800781 C 15.296875 0.800781 14.402344 1.691406 14.402344 2.792969 C 14.402344 3.894531 15.296875 4.785156 16.398438 4.785156 C 17.496094 4.785156 18.390625 3.894531 18.390625 2.792969 Z M 18.390625 2.792969 "/>
<path style=" stroke:none;fill-rule:nonzero;fill:rgb(0%,0%,0%);fill-opacity:1;" d="M 46.734375 2.792969 C 46.734375 1.691406 45.84375 0.800781 44.742188 0.800781 C 43.644531 0.800781 42.75 1.691406 42.75 2.792969 C 42.75 3.894531 43.644531 4.785156 44.742188 4.785156 C 45.84375 4.785156 46.734375 3.894531 46.734375 2.792969 Z M 46.734375 2.792969 "/>
</g>
</svg>
