<?xml version="1.0" encoding="UTF-8"?>
<svg xmlns="http://www.w3.org/2000/svg" xmlns:xlink="http://www.w3.org/1999/xlink" width="113pt" height="108pt" viewBox="0 0 113 108" version="1.1">
<g id="surface1">
<path style="fill:none;stroke-width:0.3985;stroke-linecap:butt;stroke-linejoin:miter;stroke:rgb(0%,0%,0%);stroke-opacity:1;stroke-miterlimit:10;" d="M 26.961562 8.759531 L 0.000625 28.345469 L -26.960313 8.759531 L -16.663438 -22.931875 L 16.660781 -22.931875 Z M 26.961562 8.759531 " transform="matrix(1,0,0,-1,56.14,59.49)"/>
<path style="fill:none;stroke-width:0.3985;stroke-linecap:butt;stroke-linejoin:miter;stroke:rgb(0%,0%,0%);stroke-opacity:1;stroke-miterlimit:10;" d="M 26.961562 8.759531 L -26.960313 8.759531 L 16.660781 -22.931875 L 0.000625 28.345469 L -16.663438 -22.931875 Z M 26.961562 8.759531 " transform="matrix(1,0,0,-1,56.14,59.49)"/>
<path style="fill:none;stroke-width:0.3985;stroke-linecap:butt;stroke-linejoin:miter;stroke:rgb(0%,0%,0%);stroke-opacity:1;stroke-miterlimit:10;" d="M 26.961562 8.759531 L 53.918594 17.52125 " transform="matrix(1,0,0,-1,56.14,59.49)"/>
<path style=" stroke:none;fill-rule:nonzero;fill:rgb(0%,0%,0%);fill-opacity:1;" d="M 85.09375 50.730469 C 85.09375 49.628906 84.199219 48.738281 83.101562 48.738281 C 82 48.738281 81.105469 49.628906 81.105469 50.730469 C 81.105469 51.832031 82 52.722656 83.101562 52.722656 C 84.199219 52.722656 85.09375 51.832031 85.09375 50.730469 Z M 85.09375 50.730469 "/>
<path style=" stroke:none;fill-rule:nonzero;fill:rgb(0%,0%,0%);fill-opacity:1;" d="M 112.050781 41.96875 C 112.050781 40.871094 111.160156 39.976562 110.058594 39.976562 C 108.957031 39.976562 108.066406 40.871094 108.066406 41.96875 C 108.066406 43.070312 108.957031 43.964844 110.058594 43.964844 C 111.160156 43.964844 112.050781 43.070312 112.050781 41.96875 Z M 112.050781 41.96875 "/>
<path style="fill:none;stroke-width:0.3985;stroke-linecap:butt;stroke-linejoin:miter;stroke:rgb(0%,0%,0%);stroke-opacity:1;stroke-miterlimit:10;" d="M 0.000625 28.345469 L 0.000625 56.693125 " transform="matrix(1,0,0,-1,56.14,59.49)"/>
<path style=" stroke:none;fill-rule:nonzero;fill:rgb(0%,0%,0%);fill-opacity:1;" d="M 58.132812 31.144531 C 58.132812 30.042969 57.242188 29.152344 56.140625 29.152344 C 55.039062 29.152344 54.148438 30.042969 54.148438 31.144531 C 54.148438 32.242188 55.039062 33.136719 56.140625 33.136719 C 57.242188 33.136719 58.132812 32.242188 58.132812 31.144531 Z M 58.132812 31.144531 "/>
<path style=" stroke:none;fill-rule:nonzero;fill:rgb(0%,0%,0%);fill-opacity:1;" d="M 58.132812 2.796875 C 58.132812 1.695312 57.242188 0.804688 56.140625 0.804688 C 55.039062 0.804688 54.148438 1.695312 54.148438 2.796875 C 54.148438 3.898438 55.039062 4.789062 56.140625 4.789062 C 57.242188 4.789062 58.132812 3.898438 58.132812 2.796875 Z M 58.132812 2.796875 "/>
<path style="fill:none;stroke-width:0.3985;stroke-linecap:butt;stroke-linejoin:miter;stroke:rgb(0%,0%,0%);stroke-opacity:1;stroke-miterlimit:10;" d="M -26.960313 8.759531 L -53.92125 17.52125 " transform="matrix(1,0,0,-1,56.14,59.49)"/>
<path style=" stroke:none;fill-rule:nonzero;fill:rgb(0%,0%,0%);fill-opacity:1;" d="M 31.171875 50.730469 C 31.171875 49.628906 30.28125 48.738281 29.179688 48.738281 C 28.078125 48.738281 27.1875 49.628906 27.1875 50.730469 C 27.1875 51.832031 28.078125 52.722656 29.179688 52.722656 C 30.28125 52.722656 31.171875 51.832031 31.171875 50.730469 Z M 31.171875 50.730469 "/>
<path style=" stroke:none;fill-rule:nonzero;fill:rgb(0%,0%,0%);fill-opacity:1;" d="M 4.214844 41.96875 C 4.214844 40.871094 3.320312 39.976562 2.21875 39.976562 C 1.121094 39.976562 0.226562 40.871094 0.226562 41.96875 C 0.226562 43.070312 1.121094 43.964844 2.21875 43.964844 C 3.320312 43.964844 4.214844 43.070312 4.214844 41.96875 Z M 4.214844 41.96875 "/>
<path style="fill:none;stroke-width:0.3985;stroke-linecap:butt;stroke-linejoin:miter;stroke:rgb(0%,0%,0%);stroke-opacity:1;stroke-miterlimit:10;" d="M -16.663438 -22.931875 L -33.323594 -45.865469 " transform="matrix(1,0,0,-1,56.14,59.49)"/>
<path style=" stroke:none;fill-rule:nonzero;fill:rgb(0%,0%,0%);fill-opacity:1;" d="M 41.472656 82.421875 C 41.472656 81.324219 40.578125 80.429688 39.476562 80.429688 C 38.378906 80.429688 37.484375 81.324219 37.484375 82.421875 C 37.484375 83.523438 38.378906 84.414062 39.476562 84.414062 C 40.578125 84.414062 41.472656 83.523438 41.472656 82.421875 Z M 41.472656 82.421875 "/>
<path style=" stroke:none;fill-rule:nonzero;fill:rgb(0%,0%,0%);fill-opacity:1;" d="M 24.808594 105.355469 C 24.808594 104.253906 23.917969 103.363281 22.816406 103.363281 C 21.714844 103.363281 20.824219 104.253906 20.824219 105.355469 C 20.824219 106.457031 21.714844 107.347656 22.816406 107.347656 C 23.917969 107.347656 24.808594 106.457031 24.808594 105.355469 Z M 24.808594 105.355469 "/>
<path style="fill:none;stroke-width:0.3985;stroke-linecap:butt;stroke-linejoin:miter;stroke:rgb(0%,0%,0%);stroke-opacity:1;stroke-miterlimit:10;" d="M 16.660781 -22.931875 L 33.324844 -45.865469 " transform="matrix(1,0,0,-1,56.14,59.49)"/>
<path style=" stroke:none;fill-rule:nonzero;fill:rgb(0%,0%,0%);fill-opacity:1;" d="M 74.792969 82.421875 C 74.792969 81.324219 73.902344 80.429688 72.800781 80.429688 C 71.703125 80.429688 70.808594 81.324219 70.808594 82.421875 C 70.808594 83.523438 71.703125 84.414062 72.800781 84.414062 C 73.902344 84.414062 74.792969 83.523438 74.792969 82.421875 Z M 74.792969 82.421875 "/>
<path style=" stroke:none;fill-rule:nonzero;fill:rgb(0%,0%,0%);fill-opacity:1;" d="M 91.457031 105.355469 C 91.457031 104.253906 90.5625 103.363281 89.464844 103.363281 C 88.363281 103.363281 87.472656 104.253906 87.472656 105.355469 C 87.472656 106.457031 88.363281 107.347656 89.464844 107.347656 C 90.5625 107.347656 91.457031 106.457031 91.457031 105.355469 Z M 91.457031 105.355469 "/>
</g>
</svg>
