<?xml version="1.0" encoding="UTF-8"?>
<svg xmlns="http://www.w3.org/2000/svg" xmlns:xlink="http://www.w3.org/1999/xlink" width="107pt" height="56pt" viewBox="0 0 107 56" version="1.1">
<g id="surface1">
<path style="fill:none;stroke-width:0.3985;stroke-linecap:butt;stroke-linejoin:miter;stroke:rgb(0%,0%,0%);stroke-opacity:1;stroke-miterlimit:10;" d="M -25.511594 -0.001375 L 25.511844 -0.001375 L 25.511844 51.022062 L -25.511594 51.022062 L -25.511594 -0.001375 L 25.511844 51.022062 M -25.511594 51.022062 L 25.511844 -0.001375 " transform="matrix(1,0,0,-1,53.703,53.983)"/>
<path style=" stroke:none;fill-rule:nonzero;fill:rgb(0%,0%,0%);fill-opacity:1;" d="M 30.183594 53.984375 C 30.183594 52.882812 29.292969 51.992188 28.191406 51.992188 C 27.089844 51.992188 26.199219 52.882812 26.199219 53.984375 C 26.199219 55.082031 27.089844 55.976562 28.191406 55.976562 C 29.292969 55.976562 30.183594 55.082031 30.183594 53.984375 Z M 30.183594 53.984375 "/>
<path style=" stroke:none;fill-rule:nonzero;fill:rgb(0%,0%,0%);fill-opacity:1;" d="M 81.207031 53.984375 C 81.207031 52.882812 80.316406 51.992188 79.214844 51.992188 C 78.113281 51.992188 77.222656 52.882812 77.222656 53.984375 C 77.222656 55.082031 78.113281 55.976562 79.214844 55.976562 C 80.316406 55.976562 81.207031 55.082031 81.207031 53.984375 Z M 81.207031 53.984375 "/>
<path style=" stroke:none;fill-rule:nonzero;fill:rgb(0%,0%,0%);fill-opacity:1;" d="M 81.207031 2.960938 C 81.207031 1.859375 80.316406 0.964844 79.214844 0.964844 C 78.113281 0.964844 77.222656 1.859375 77.222656 2.960938 C 77.222656 4.058594 78.113281 4.953125 79.214844 4.953125 C 80.316406 4.953125 81.207031 4.058594 81.207031 2.960938 Z M 81.207031 2.960938 "/>
<path style=" stroke:none;fill-rule:nonzero;fill:rgb(0%,0%,0%);fill-opacity:1;" d="M 30.183594 2.960938 C 30.183594 1.859375 29.292969 0.964844 28.191406 0.964844 C 27.089844 0.964844 26.199219 1.859375 26.199219 2.960938 C 26.199219 4.058594 27.089844 4.953125 28.191406 4.953125 C 29.292969 4.953125 30.183594 4.058594 30.183594 2.960938 Z M 30.183594 2.960938 "/>
<path style=" stroke:none;fill-rule:nonzero;fill:rgb(0%,0%,0%);fill-opacity:1;" d="M 55.695312 28.472656 C 55.695312 27.371094 54.804688 26.476562 53.703125 26.476562 C 52.601562 26.476562 51.710938 27.371094 51.710938 28.472656 C 51.710938 29.570312 52.601562 30.464844 53.703125 30.464844 C 54.804688 30.464844 55.695312 29.570312 55.695312 28.472656 Z M 55.695312 28.472656 "/>
<path style="fill:none;stroke-width:0.3985;stroke-linecap:butt;stroke-linejoin:miter;stroke:rgb(0%,0%,0%);stroke-opacity:1;stroke-miterlimit:10;" d="M -25.511594 -0.001375 L -51.023313 25.510344 L -25.511594 51.022062 M 25.511844 51.022062 L 51.023562 25.510344 L 25.511844 -0.001375 " transform="matrix(1,0,0,-1,53.703,53.983)"/>
<path style=" stroke:none;fill-rule:nonzero;fill:rgb(0%,0%,0%);fill-opacity:1;" d="M 4.671875 28.472656 C 4.671875 27.371094 3.78125 26.476562 2.679688 26.476562 C 1.578125 26.476562 0.6875 27.371094 0.6875 28.472656 C 0.6875 29.570312 1.578125 30.464844 2.679688 30.464844 C 3.78125 30.464844 4.671875 29.570312 4.671875 28.472656 Z M 4.671875 28.472656 "/>
<path style=" stroke:none;fill-rule:nonzero;fill:rgb(0%,0%,0%);fill-opacity:1;" d="M 106.71875 28.472656 C 106.71875 27.371094 105.828125 26.476562 104.726562 26.476562 C 103.625 26.476562 102.734375 27.371094 102.734375 28.472656 C 102.734375 29.570312 103.625 30.464844 104.726562 30.464844 C 105.828125 30.464844 106.71875 29.570312 106.71875 28.472656 Z M 106.71875 28.472656 "/>
</g>
</svg>
