<?xml version="1.0" encoding="UTF-8"?>
<svg xmlns="http://www.w3.org/2000/svg" xmlns:xlink="http://www.w3.org/1999/xlink" width="88pt" height="88pt" viewBox="0 0 88 88" version="1.1">
<g id="surface1">
<path style=" stroke:none;fill-rule:nonzero;fill:rgb(0%,0%,0%);fill-opacity:1;" d="M 73.425781 12.738281 C 73.425781 11.636719 72.53125 10.746094 71.429688 10.746094 C 70.332031 10.746094 69.4375 11.636719 69.4375 12.738281 C 69.4375 13.839844 70.332031 14.730469 71.429688 14.730469 C 72.53125 14.730469 73.425781 13.839844 73.425781 12.738281 Z M 73.425781 12.738281 "/>
<path style=" stroke:none;fill-rule:nonzero;fill:rgb(0%,0%,0%);fill-opacity:1;" d="M 87.96875 37.925781 C 87.96875 36.824219 87.074219 35.933594 85.972656 35.933594 C 84.875 35.933594 83.980469 36.824219 83.980469 37.925781 C 83.980469 39.027344 84.875 39.917969 85.972656 39.917969 C 87.074219 39.917969 87.96875 39.027344 87.96875 37.925781 Z M 87.96875 37.925781 "/>
<path style=" stroke:none;fill-rule:nonzero;fill:rgb(0%,0%,0%);fill-opacity:1;" d="M 82.917969 66.570312 C 82.917969 65.46875 82.023438 64.578125 80.921875 64.578125 C 79.824219 64.578125 78.929688 65.46875 78.929688 66.570312 C 78.929688 67.671875 79.824219 68.5625 80.921875 68.5625 C 82.023438 68.5625 82.917969 67.671875 82.917969 66.570312 Z M 82.917969 66.570312 "/>
<path style=" stroke:none;fill-rule:nonzero;fill:rgb(0%,0%,0%);fill-opacity:1;" d="M 60.636719 85.265625 C 60.636719 84.164062 59.742188 83.273438 58.644531 83.273438 C 57.542969 83.273438 56.648438 84.164062 56.648438 85.265625 C 56.648438 86.367188 57.542969 87.257812 58.644531 87.257812 C 59.742188 87.257812 60.636719 86.367188 60.636719 85.265625 Z M 60.636719 85.265625 "/>
<path style=" stroke:none;fill-rule:nonzero;fill:rgb(0%,0%,0%);fill-opacity:1;" d="M 31.550781 85.265625 C 31.550781 84.164062 30.65625 83.273438 29.558594 83.273438 C 28.457031 83.273438 27.566406 84.164062 27.566406 85.265625 C 27.566406 86.367188 28.457031 87.257812 29.558594 87.257812 C 30.65625 87.257812 31.550781 86.367188 31.550781 85.265625 Z M 31.550781 85.265625 "/>
<path style=" stroke:none;fill-rule:nonzero;fill:rgb(0%,0%,0%);fill-opacity:1;" d="M 9.269531 66.570312 C 9.269531 65.46875 8.375 64.578125 7.277344 64.578125 C 6.175781 64.578125 5.285156 65.46875 5.285156 66.570312 C 5.285156 67.671875 6.175781 68.5625 7.277344 68.5625 C 8.375 68.5625 9.269531 67.671875 9.269531 66.570312 Z M 9.269531 66.570312 "/>
<path style=" stroke:none;fill-rule:nonzero;fill:rgb(0%,0%,0%);fill-opacity:1;" d="M 4.21875 37.925781 C 4.21875 36.824219 3.324219 35.933594 2.226562 35.933594 C 1.125 35.933594 0.234375 36.824219 0.234375 37.925781 C 0.234375 39.027344 1.125 39.917969 2.226562 39.917969 C 3.324219 39.917969 4.21875 39.027344 4.21875 37.925781 Z M 4.21875 37.925781 "/>
<path style=" stroke:none;fill-rule:nonzero;fill:rgb(0%,0%,0%);fill-opacity:1;" d="M 18.761719 12.738281 C 18.761719 11.636719 17.867188 10.746094 16.769531 10.746094 C 15.667969 10.746094 14.777344 11.636719 14.777344 12.738281 C 14.777344 13.839844 15.667969 14.730469 16.769531 14.730469 C 17.867188 14.730469 18.761719 13.839844 18.761719 12.738281 Z M 18.761719 12.738281 "/>
<path style=" stroke:none;fill-rule:nonzero;fill:rgb(0%,0%,0%);fill-opacity:1;" d="M 46.09375 2.789062 C 46.09375 1.6875 45.199219 0.796875 44.101562 0.796875 C 43 0.796875 42.109375 1.6875 42.109375 2.789062 C 42.109375 3.890625 43 4.78125 44.101562 4.78125 C 45.199219 4.78125 46.09375 3.890625 46.09375 2.789062 Z M 46.09375 2.789062 "/>
<path style="fill:none;stroke-width:0.3985;stroke-linecap:butt;stroke-linejoin:miter;stroke:rgb(0%,0%,0%);stroke-opacity:1;stroke-miterlimit:10;" d="M 27.329688 32.571719 L -36.822656 -21.260313 L 36.821875 -21.260313 L -27.330469 32.571719 L 14.544531 -39.955625 L -41.873437 7.384219 L 41.872656 7.384219 L -14.541406 -39.955625 L 0.0015625 42.520937 L 27.329688 32.571719 " transform="matrix(1,0,0,-1,44.1,45.31)"/>
<path style="fill:none;stroke-width:0.3985;stroke-linecap:butt;stroke-linejoin:miter;stroke:rgb(0%,0%,0%);stroke-opacity:1;stroke-miterlimit:10;" d="M 27.329688 32.571719 L 36.821875 -21.260313 L -14.541406 -39.955625 M 14.544531 -39.955625 L -14.541406 -39.955625 M 14.544531 -39.955625 L -41.873437 7.384219 L -36.822656 -21.260313 L 0.0015625 42.520937 M 36.821875 -21.260313 L -41.873437 7.384219 M 0.0015625 42.520937 L 36.821875 -21.260313 " transform="matrix(1,0,0,-1,44.1,45.31)"/>
</g>
</svg>
