<?xml version="1.0" encoding="UTF-8"?>
<svg xmlns="http://www.w3.org/2000/svg" xmlns:xlink="http://www.w3.org/1999/xlink" width="57pt" height="58pt" viewBox="0 0 57 58" version="1.1">
<g id="surface1">
<path style=" stroke:none;fill-rule:nonzero;fill:rgb(0%,0%,0%);fill-opacity:1;" d="M 30.402344 28.980469 C 30.402344 27.878906 29.511719 26.988281 28.410156 26.988281 C 27.308594 26.988281 26.417969 27.878906 26.417969 28.980469 C 26.417969 30.082031 27.308594 30.972656 28.410156 30.972656 C 29.511719 30.972656 30.402344 30.082031 30.402344 28.980469 Z M 30.402344 28.980469 "/>
<path style="fill:none;stroke-width:0.3985;stroke-linecap:butt;stroke-linejoin:miter;stroke:rgb(0%,0%,0%);stroke-opacity:1;stroke-miterlimit:10;" d="M 0.00015625 -0.00046875 L 26.187656 10.847187 " transform="matrix(1,0,0,-1,28.41,28.98)"/>
<path style=" stroke:none;fill-rule:nonzero;fill:rgb(0%,0%,0%);fill-opacity:1;" d="M 56.589844 18.132812 C 56.589844 17.03125 55.699219 16.140625 54.597656 16.140625 C 53.496094 16.140625 52.605469 17.03125 52.605469 18.132812 C 52.605469 19.234375 53.496094 20.125 54.597656 20.125 C 55.699219 20.125 56.589844 19.234375 56.589844 18.132812 Z M 56.589844 18.132812 "/>
<path style="fill:none;stroke-width:0.3985;stroke-linecap:butt;stroke-linejoin:miter;stroke:rgb(0%,0%,0%);stroke-opacity:1;stroke-miterlimit:10;" d="M 0.00015625 -0.00046875 L 10.847812 26.187031 " transform="matrix(1,0,0,-1,28.41,28.98)"/>
<path style=" stroke:none;fill-rule:nonzero;fill:rgb(0%,0%,0%);fill-opacity:1;" d="M 41.25 2.792969 C 41.25 1.691406 40.359375 0.800781 39.257812 0.800781 C 38.15625 0.800781 37.265625 1.691406 37.265625 2.792969 C 37.265625 3.890625 38.15625 4.785156 39.257812 4.785156 C 40.359375 4.785156 41.25 3.890625 41.25 2.792969 Z M 41.25 2.792969 "/>
<path style="fill:none;stroke-width:0.3985;stroke-linecap:butt;stroke-linejoin:miter;stroke:rgb(0%,0%,0%);stroke-opacity:1;stroke-miterlimit:10;" d="M 0.00015625 -0.00046875 L -10.8475 26.187031 " transform="matrix(1,0,0,-1,28.41,28.98)"/>
<path style=" stroke:none;fill-rule:nonzero;fill:rgb(0%,0%,0%);fill-opacity:1;" d="M 19.554688 2.792969 C 19.554688 1.691406 18.664062 0.800781 17.5625 0.800781 C 16.460938 0.800781 15.570312 1.691406 15.570312 2.792969 C 15.570312 3.890625 16.460938 4.785156 17.5625 4.785156 C 18.664062 4.785156 19.554688 3.890625 19.554688 2.792969 Z M 19.554688 2.792969 "/>
<path style="fill:none;stroke-width:0.3985;stroke-linecap:butt;stroke-linejoin:miter;stroke:rgb(0%,0%,0%);stroke-opacity:1;stroke-miterlimit:10;" d="M 0.00015625 -0.00046875 L -26.187344 10.847187 " transform="matrix(1,0,0,-1,28.41,28.98)"/>
<path style=" stroke:none;fill-rule:nonzero;fill:rgb(0%,0%,0%);fill-opacity:1;" d="M 4.214844 18.132812 C 4.214844 17.03125 3.324219 16.140625 2.222656 16.140625 C 1.121094 16.140625 0.230469 17.03125 0.230469 18.132812 C 0.230469 19.234375 1.121094 20.125 2.222656 20.125 C 3.324219 20.125 4.214844 19.234375 4.214844 18.132812 Z M 4.214844 18.132812 "/>
<path style="fill:none;stroke-width:0.3985;stroke-linecap:butt;stroke-linejoin:miter;stroke:rgb(0%,0%,0%);stroke-opacity:1;stroke-miterlimit:10;" d="M 0.00015625 -0.00046875 L -26.187344 -10.848125 " transform="matrix(1,0,0,-1,28.41,28.98)"/>
<path style=" stroke:none;fill-rule:nonzero;fill:rgb(0%,0%,0%);fill-opacity:1;" d="M 4.214844 39.828125 C 4.214844 38.726562 3.324219 37.835938 2.222656 37.835938 C 1.121094 37.835938 0.230469 38.726562 0.230469 39.828125 C 0.230469 40.925781 1.121094 41.820312 2.222656 41.820312 C 3.324219 41.820312 4.214844 40.925781 4.214844 39.828125 Z M 4.214844 39.828125 "/>
<path style="fill:none;stroke-width:0.3985;stroke-linecap:butt;stroke-linejoin:miter;stroke:rgb(0%,0%,0%);stroke-opacity:1;stroke-miterlimit:10;" d="M 0.00015625 -0.00046875 L -10.8475 -26.187969 " transform="matrix(1,0,0,-1,28.41,28.98)"/>
<path style=" stroke:none;fill-rule:nonzero;fill:rgb(0%,0%,0%);fill-opacity:1;" d="M 19.554688 55.167969 C 19.554688 54.066406 18.664062 53.175781 17.5625 53.175781 C 16.460938 53.175781 15.570312 54.066406 15.570312 55.167969 C 15.570312 56.269531 16.460938 57.160156 17.5625 57.160156 C 18.664062 57.160156 19.554688 56.269531 19.554688 55.167969 Z M 19.554688 55.167969 "/>
<path style="fill:none;stroke-width:0.3985;stroke-linecap:butt;stroke-linejoin:miter;stroke:rgb(0%,0%,0%);stroke-opacity:1;stroke-miterlimit:10;" d="M 0.00015625 -0.00046875 L 10.847812 -26.187969 " transform="matrix(1,0,0,-1,28.41,28.98)"/>
<path style=" stroke:none;fill-rule:nonzero;fill:rgb(0%,0%,0%);fill-opacity:1;" d="M 41.25 55.167969 C 41.25 54.066406 40.359375 53.175781 39.257812 53.175781 C 38.15625 53.175781 37.265625 54.066406 37.265625 55.167969 C 37.265625 56.269531 38.15625 57.160156 39.257812 57.160156 C 40.359375 57.160156 41.25 56.269531 41.25 55.167969 Z M 41.25 55.167969 "/>
<path style="fill:none;stroke-width:0.3985;stroke-linecap:butt;stroke-linejoin:miter;stroke:rgb(0%,0%,0%);stroke-opacity:1;stroke-miterlimit:10;" d="M 0.00015625 -0.00046875 L 26.187656 -10.848125 " transform="matrix(1,0,0,-1,28.41,28.98)"/>
<path style=" stroke:none;fill-rule:nonzero;fill:rgb(0%,0%,0%);fill-opacity:1;" d="M 56.589844 39.828125 C 56.589844 38.726562 55.699219 37.835938 54.597656 37.835938 C 53.496094 37.835938 52.605469 38.726562 52.605469 39.828125 C 52.605469 40.925781 53.496094 41.820312 54.597656 41.820312 C 55.699219 41.820312 56.589844 40.925781 56.589844 39.828125 Z M 56.589844 39.828125 "/>
</g>
</svg>
