<?xml version="1.0" encoding="UTF-8"?>
<svg xmlns="http://www.w3.org/2000/svg" xmlns:xlink="http://www.w3.org/1999/xlink" width="90pt" height="51pt" viewBox="0 0 90 51" version="1.1">
<g id="surface1">
<path style="fill:none;stroke-width:0.3985;stroke-linecap:butt;stroke-linejoin:miter;stroke:rgb(0%,0%,0%);stroke-opacity:1;stroke-miterlimit:10;" d="M -42.519531 0.0015625 L -21.261719 45.353125 L 0 0.0015625 L 21.261719 45.353125 L 42.519531 0.0015625 L -21.261719 45.353125 M 21.261719 45.353125 L -42.519531 0.0015625 " transform="matrix(1,0,0,-1,44.75,48.15)"/>
<path style=" stroke:none;fill-rule:nonzero;fill:rgb(0%,0%,0%);fill-opacity:1;" d="M 4.222656 48.148438 C 4.222656 47.050781 3.332031 46.15625 2.230469 46.15625 C 1.128906 46.15625 0.238281 47.050781 0.238281 48.148438 C 0.238281 49.25 1.128906 50.140625 2.230469 50.140625 C 3.332031 50.140625 4.222656 49.25 4.222656 48.148438 Z M 4.222656 48.148438 "/>
<path style=" stroke:none;fill-rule:nonzero;fill:rgb(0%,0%,0%);fill-opacity:1;" d="M 25.484375 2.796875 C 25.484375 1.695312 24.589844 0.800781 23.488281 0.800781 C 22.390625 0.800781 21.496094 1.695312 21.496094 2.796875 C 21.496094 3.894531 22.390625 4.789062 23.488281 4.789062 C 24.589844 4.789062 25.484375 3.894531 25.484375 2.796875 Z M 25.484375 2.796875 "/>
<path style=" stroke:none;fill-rule:nonzero;fill:rgb(0%,0%,0%);fill-opacity:1;" d="M 46.742188 48.148438 C 46.742188 47.050781 45.851562 46.15625 44.75 46.15625 C 43.648438 46.15625 42.757812 47.050781 42.757812 48.148438 C 42.757812 49.25 43.648438 50.140625 44.75 50.140625 C 45.851562 50.140625 46.742188 49.25 46.742188 48.148438 Z M 46.742188 48.148438 "/>
<path style=" stroke:none;fill-rule:nonzero;fill:rgb(0%,0%,0%);fill-opacity:1;" d="M 68.003906 2.796875 C 68.003906 1.695312 67.109375 0.800781 66.011719 0.800781 C 64.910156 0.800781 64.015625 1.695312 64.015625 2.796875 C 64.015625 3.894531 64.910156 4.789062 66.011719 4.789062 C 67.109375 4.789062 68.003906 3.894531 68.003906 2.796875 Z M 68.003906 2.796875 "/>
<path style=" stroke:none;fill-rule:nonzero;fill:rgb(0%,0%,0%);fill-opacity:1;" d="M 89.261719 48.148438 C 89.261719 47.050781 88.371094 46.15625 87.269531 46.15625 C 86.167969 46.15625 85.277344 47.050781 85.277344 48.148438 C 85.277344 49.25 86.167969 50.140625 87.269531 50.140625 C 88.371094 50.140625 89.261719 49.25 89.261719 48.148438 Z M 89.261719 48.148438 "/>
</g>
</svg>
