<?xml version="1.0" encoding="UTF-8"?>
<svg xmlns="http://www.w3.org/2000/svg" xmlns:xlink="http://www.w3.org/1999/xlink" width="30pt" height="59pt" viewBox="0 0 30 59" version="1.1">
<g id="surface1">
<path style="fill:none;stroke-width:0.79701;stroke-linecap:butt;stroke-linejoin:miter;stroke:rgb(0%,0%,0%);stroke-opacity:1;stroke-miterlimit:10;" d="M -0.00125 3.986875 L -0.00125 52.709531 C -0.00125 54.90875 1.783906 56.693906 3.987031 56.693906 L 24.362031 56.693906 C 26.56125 56.693906 28.346406 54.90875 28.346406 52.709531 L 28.346406 3.986875 C 28.346406 1.78375 26.56125 -0.00140625 24.362031 -0.00140625 L 3.987031 -0.00140625 C 1.783906 -0.00140625 -0.00125 1.78375 -0.00125 3.986875 Z M -0.00125 3.986875 " transform="matrix(1,0,0,-1,0.72,57.69)"/>
<path style="fill:none;stroke-width:0.3985;stroke-linecap:butt;stroke-linejoin:miter;stroke:rgb(0%,0%,0%);stroke-opacity:1;stroke-miterlimit:10;" d="M -0.00125 28.34625 L 28.346406 28.34625 " transform="matrix(1,0,0,-1,0.72,57.69)"/>
<path style=" stroke:none;fill-rule:nonzero;fill:rgb(0%,0%,0%);fill-opacity:1;" d="M 9.800781 50.601562 C 9.800781 49.503906 8.90625 48.609375 7.808594 48.609375 C 6.707031 48.609375 5.8125 49.503906 5.8125 50.601562 C 5.8125 51.703125 6.707031 52.597656 7.808594 52.597656 C 8.90625 52.597656 9.800781 51.703125 9.800781 50.601562 Z M 9.800781 50.601562 "/>
<path style=" stroke:none;fill-rule:nonzero;fill:rgb(0%,0%,0%);fill-opacity:1;" d="M 16.886719 43.515625 C 16.886719 42.417969 15.992188 41.523438 14.894531 41.523438 C 13.792969 41.523438 12.902344 42.417969 12.902344 43.515625 C 12.902344 44.617188 13.792969 45.507812 14.894531 45.507812 C 15.992188 45.507812 16.886719 44.617188 16.886719 43.515625 Z M 16.886719 43.515625 "/>
<path style=" stroke:none;fill-rule:nonzero;fill:rgb(0%,0%,0%);fill-opacity:1;" d="M 23.972656 36.429688 C 23.972656 35.328125 23.082031 34.4375 21.980469 34.4375 C 20.878906 34.4375 19.988281 35.328125 19.988281 36.429688 C 19.988281 37.53125 20.878906 38.421875 21.980469 38.421875 C 23.082031 38.421875 23.972656 37.53125 23.972656 36.429688 Z M 23.972656 36.429688 "/>
<path style=" stroke:none;fill-rule:nonzero;fill:rgb(0%,0%,0%);fill-opacity:1;" d="M 16.886719 15.167969 C 16.886719 14.070312 15.992188 13.175781 14.894531 13.175781 C 13.792969 13.175781 12.902344 14.070312 12.902344 15.167969 C 12.902344 16.269531 13.792969 17.164062 14.894531 17.164062 C 15.992188 17.164062 16.886719 16.269531 16.886719 15.167969 Z M 16.886719 15.167969 "/>
</g>
</svg>
