<?xml version="1.0" encoding="UTF-8"?>
<svg xmlns="http://www.w3.org/2000/svg" xmlns:xlink="http://www.w3.org/1999/xlink" width="61pt" height="54pt" viewBox="0 0 61 54" version="1.1">
<g id="surface1">
<path style="fill:none;stroke-width:0.3985;stroke-linecap:butt;stroke-linejoin:miter;stroke:rgb(0%,0%,0%);stroke-opacity:1;stroke-miterlimit:10;" d="M 28.347969 0.00015625 L 14.172188 24.550937 L -28.347344 0.00015625 Z M 28.347969 0.00015625 " transform="matrix(1,0,0,-1,30.57,27.34)"/>
<path style=" stroke:none;fill-rule:nonzero;fill:rgb(0%,0%,0%);fill-opacity:1;" d="M 60.910156 27.339844 C 60.910156 26.238281 60.015625 25.347656 58.917969 25.347656 C 57.816406 25.347656 56.925781 26.238281 56.925781 27.339844 C 56.925781 28.441406 57.816406 29.332031 58.917969 29.332031 C 60.015625 29.332031 60.910156 28.441406 60.910156 27.339844 Z M 60.910156 27.339844 "/>
<path style="fill:none;stroke-width:0.3985;stroke-linecap:butt;stroke-linejoin:miter;stroke:rgb(0%,0%,0%);stroke-opacity:1;stroke-miterlimit:10;" d="M 14.172188 24.550937 L -14.171562 24.550937 L -14.171562 -24.550625 Z M 14.172188 24.550937 " transform="matrix(1,0,0,-1,30.57,27.34)"/>
<path style=" stroke:none;fill-rule:nonzero;fill:rgb(0%,0%,0%);fill-opacity:1;" d="M 46.734375 2.789062 C 46.734375 1.691406 45.84375 0.796875 44.742188 0.796875 C 43.644531 0.796875 42.75 1.691406 42.75 2.789062 C 42.75 3.890625 43.644531 4.785156 44.742188 4.785156 C 45.84375 4.785156 46.734375 3.890625 46.734375 2.789062 Z M 46.734375 2.789062 "/>
<path style="fill:none;stroke-width:0.3985;stroke-linecap:butt;stroke-linejoin:miter;stroke:rgb(0%,0%,0%);stroke-opacity:1;stroke-miterlimit:10;" d="M -14.171562 24.550937 L -28.347344 0.00015625 L 14.172188 -24.550625 Z M -14.171562 24.550937 " transform="matrix(1,0,0,-1,30.57,27.34)"/>
<path style=" stroke:none;fill-rule:nonzero;fill:rgb(0%,0%,0%);fill-opacity:1;" d="M 18.390625 2.789062 C 18.390625 1.691406 17.496094 0.796875 16.398438 0.796875 C 15.296875 0.796875 14.402344 1.691406 14.402344 2.789062 C 14.402344 3.890625 15.296875 4.785156 16.398438 4.785156 C 17.496094 4.785156 18.390625 3.890625 18.390625 2.789062 Z M 18.390625 2.789062 "/>
<path style="fill:none;stroke-width:0.3985;stroke-linecap:butt;stroke-linejoin:miter;stroke:rgb(0%,0%,0%);stroke-opacity:1;stroke-miterlimit:10;" d="M -28.347344 0.00015625 L -14.171562 -24.550625 L 28.347969 0.00015625 Z M -28.347344 0.00015625 " transform="matrix(1,0,0,-1,30.57,27.34)"/>
<path style=" stroke:none;fill-rule:nonzero;fill:rgb(0%,0%,0%);fill-opacity:1;" d="M 4.214844 27.339844 C 4.214844 26.238281 3.324219 25.347656 2.222656 25.347656 C 1.121094 25.347656 0.230469 26.238281 0.230469 27.339844 C 0.230469 28.441406 1.121094 29.332031 2.222656 29.332031 C 3.324219 29.332031 4.214844 28.441406 4.214844 27.339844 Z M 4.214844 27.339844 "/>
<path style="fill:none;stroke-width:0.3985;stroke-linecap:butt;stroke-linejoin:miter;stroke:rgb(0%,0%,0%);stroke-opacity:1;stroke-miterlimit:10;" d="M -14.171562 -24.550625 L 14.172188 -24.550625 L 14.172188 24.550937 Z M -14.171562 -24.550625 " transform="matrix(1,0,0,-1,30.57,27.34)"/>
<path style=" stroke:none;fill-rule:nonzero;fill:rgb(0%,0%,0%);fill-opacity:1;" d="M 18.390625 51.890625 C 18.390625 50.789062 17.496094 49.898438 16.398438 49.898438 C 15.296875 49.898438 14.402344 50.789062 14.402344 51.890625 C 14.402344 52.988281 15.296875 53.882812 16.398438 53.882812 C 17.496094 53.882812 18.390625 52.988281 18.390625 51.890625 Z M 18.390625 51.890625 "/>
<path style="fill:none;stroke-width:0.3985;stroke-linecap:butt;stroke-linejoin:miter;stroke:rgb(0%,0%,0%);stroke-opacity:1;stroke-miterlimit:10;" d="M 14.172188 -24.550625 L 28.347969 0.00015625 L -14.171562 24.550937 Z M 14.172188 -24.550625 " transform="matrix(1,0,0,-1,30.57,27.34)"/>
<path style=" stroke:none;fill-rule:nonzero;fill:rgb(0%,0%,0%);fill-opacity:1;" d="M 46.734375 51.890625 C 46.734375 50.789062 45.84375 49.898438 44.742188 49.898438 C 43.644531 49.898438 42.75 50.789062 42.75 51.890625 C 42.75 52.988281 43.644531 53.882812 44.742188 53.882812 C 45.84375 53.882812 46.734375 52.988281 46.734375 51.890625 Z M 46.734375 51.890625 "/>
<path style="fill:none;stroke-width:0.3985;stroke-linecap:butt;stroke-linejoin:miter;stroke:rgb(0%,0%,0%);stroke-opacity:1;stroke-miterlimit:10;" d="M 28.347969 0.00015625 L 14.172188 24.550937 L -28.347344 0.00015625 Z M 28.347969 0.00015625 " transform="matrix(1,0,0,-1,30.57,27.34)"/>
<path style=" stroke:none;fill-rule:nonzero;fill:rgb(0%,0%,0%);fill-opacity:1;" d="M 60.910156 27.339844 C 60.910156 26.238281 60.015625 25.347656 58.917969 25.347656 C 57.816406 25.347656 56.925781 26.238281 56.925781 27.339844 C 56.925781 28.441406 57.816406 29.332031 58.917969 29.332031 C 60.015625 29.332031 60.910156 28.441406 60.910156 27.339844 Z M 60.910156 27.339844 "/>
</g>
</svg>
