<?xml version="1.0" encoding="UTF-8"?>
<svg xmlns="http://www.w3.org/2000/svg" xmlns:xlink="http://www.w3.org/1999/xlink" width="62pt" height="54pt" viewBox="0 0 62 54" version="1.1">
<g id="surface1">
<path style="fill:none;stroke-width:0.19925;stroke-linecap:butt;stroke-linejoin:miter;stroke:rgb(0%,0%,0%);stroke-opacity:1;stroke-miterlimit:10;" d="M 28.345094 0.00140625 L 14.173219 24.548281 L -28.346312 0.00140625 Z M 28.345094 0.00140625 " transform="matrix(1,0,0,-1,31.026,27.31)"/>
<path style=" stroke:none;fill-rule:nonzero;fill:rgb(0%,0%,0%);fill-opacity:1;" d="M 61.367188 27.308594 C 61.367188 26.210938 60.472656 25.316406 59.371094 25.316406 C 58.273438 25.316406 57.378906 26.210938 57.378906 27.308594 C 57.378906 28.410156 58.273438 29.300781 59.371094 29.300781 C 60.472656 29.300781 61.367188 28.410156 61.367188 27.308594 Z M 61.367188 27.308594 "/>
<path style="fill:none;stroke-width:0.19925;stroke-linecap:butt;stroke-linejoin:miter;stroke:rgb(0%,0%,0%);stroke-opacity:1;stroke-miterlimit:10;" d="M 14.173219 24.548281 L -14.174437 24.548281 L -14.174437 -24.549375 Z M 14.173219 24.548281 " transform="matrix(1,0,0,-1,31.026,27.31)"/>
<path style=" stroke:none;fill-rule:nonzero;fill:rgb(0%,0%,0%);fill-opacity:1;" d="M 47.191406 2.761719 C 47.191406 1.660156 46.300781 0.769531 45.199219 0.769531 C 44.097656 0.769531 43.207031 1.660156 43.207031 2.761719 C 43.207031 3.863281 44.097656 4.753906 45.199219 4.753906 C 46.300781 4.753906 47.191406 3.863281 47.191406 2.761719 Z M 47.191406 2.761719 "/>
<path style="fill:none;stroke-width:0.19925;stroke-linecap:butt;stroke-linejoin:miter;stroke:rgb(0%,0%,0%);stroke-opacity:1;stroke-miterlimit:10;" d="M -14.174437 24.548281 L -28.346312 0.00140625 L 14.173219 -24.549375 Z M -14.174437 24.548281 " transform="matrix(1,0,0,-1,31.026,27.31)"/>
<path style=" stroke:none;fill-rule:nonzero;fill:rgb(0%,0%,0%);fill-opacity:1;" d="M 18.84375 2.761719 C 18.84375 1.660156 17.953125 0.769531 16.851562 0.769531 C 15.753906 0.769531 14.859375 1.660156 14.859375 2.761719 C 14.859375 3.863281 15.753906 4.753906 16.851562 4.753906 C 17.953125 4.753906 18.84375 3.863281 18.84375 2.761719 Z M 18.84375 2.761719 "/>
<path style="fill:none;stroke-width:0.19925;stroke-linecap:butt;stroke-linejoin:miter;stroke:rgb(0%,0%,0%);stroke-opacity:1;stroke-miterlimit:10;" d="M -28.346312 0.00140625 L -14.174437 -24.549375 L 28.345094 0.00140625 Z M -28.346312 0.00140625 " transform="matrix(1,0,0,-1,31.026,27.31)"/>
<path style=" stroke:none;fill-rule:nonzero;fill:rgb(0%,0%,0%);fill-opacity:1;" d="M 4.671875 27.308594 C 4.671875 26.210938 3.78125 25.316406 2.679688 25.316406 C 1.578125 25.316406 0.6875 26.210938 0.6875 27.308594 C 0.6875 28.410156 1.578125 29.300781 2.679688 29.300781 C 3.78125 29.300781 4.671875 28.410156 4.671875 27.308594 Z M 4.671875 27.308594 "/>
<path style="fill:none;stroke-width:0.19925;stroke-linecap:butt;stroke-linejoin:miter;stroke:rgb(0%,0%,0%);stroke-opacity:1;stroke-miterlimit:10;" d="M -14.174437 -24.549375 L 14.173219 -24.549375 L 14.173219 24.548281 Z M -14.174437 -24.549375 " transform="matrix(1,0,0,-1,31.026,27.31)"/>
<path style=" stroke:none;fill-rule:nonzero;fill:rgb(0%,0%,0%);fill-opacity:1;" d="M 18.84375 51.859375 C 18.84375 50.757812 17.953125 49.867188 16.851562 49.867188 C 15.753906 49.867188 14.859375 50.757812 14.859375 51.859375 C 14.859375 52.960938 15.753906 53.851562 16.851562 53.851562 C 17.953125 53.851562 18.84375 52.960938 18.84375 51.859375 Z M 18.84375 51.859375 "/>
<path style="fill:none;stroke-width:0.19925;stroke-linecap:butt;stroke-linejoin:miter;stroke:rgb(0%,0%,0%);stroke-opacity:1;stroke-miterlimit:10;" d="M 14.173219 -24.549375 L 28.345094 0.00140625 L -14.174437 24.548281 Z M 14.173219 -24.549375 " transform="matrix(1,0,0,-1,31.026,27.31)"/>
<path style=" stroke:none;fill-rule:nonzero;fill:rgb(0%,0%,0%);fill-opacity:1;" d="M 47.191406 51.859375 C 47.191406 50.757812 46.300781 49.867188 45.199219 49.867188 C 44.097656 49.867188 43.207031 50.757812 43.207031 51.859375 C 43.207031 52.960938 44.097656 53.851562 45.199219 53.851562 C 46.300781 53.851562 47.191406 52.960938 47.191406 51.859375 Z M 47.191406 51.859375 "/>
<path style="fill:none;stroke-width:0.19925;stroke-linecap:butt;stroke-linejoin:miter;stroke:rgb(0%,0%,0%);stroke-opacity:1;stroke-miterlimit:10;" d="M 28.345094 0.00140625 L 14.173219 24.548281 L -28.346312 0.00140625 Z M 28.345094 0.00140625 " transform="matrix(1,0,0,-1,31.026,27.31)"/>
<path style=" stroke:none;fill-rule:nonzero;fill:rgb(0%,0%,0%);fill-opacity:1;" d="M 61.367188 27.308594 C 61.367188 26.210938 60.472656 25.316406 59.371094 25.316406 C 58.273438 25.316406 57.378906 26.210938 57.378906 27.308594 C 57.378906 28.410156 58.273438 29.300781 59.371094 29.300781 C 60.472656 29.300781 61.367188 28.410156 61.367188 27.308594 Z M 61.367188 27.308594 "/>
<path style="fill:none;stroke-width:1.19553;stroke-linecap:butt;stroke-linejoin:miter;stroke:rgb(0%,0%,0%);stroke-opacity:1;stroke-miterlimit:10;" d="M 28.345094 0.00140625 L 14.173219 24.548281 L -28.346312 0.00140625 L -14.174437 -24.549375 L 28.345094 0.00140625 L -28.346312 0.00140625 M 14.173219 24.548281 L -14.174437 -24.549375 " transform="matrix(1,0,0,-1,31.026,27.31)"/>
</g>
</svg>
