<?xml version="1.0" encoding="UTF-8"?>
<svg xmlns="http://www.w3.org/2000/svg" xmlns:xlink="http://www.w3.org/1999/xlink" width="68pt" height="62pt" viewBox="0 0 68 62" version="1.1">
<g id="surface1">
<path style="fill:none;stroke-width:0.3985;stroke-linecap:butt;stroke-linejoin:miter;stroke:rgb(0%,0%,0%);stroke-opacity:1;stroke-miterlimit:10;" d="M -28.345781 -28.348281 C -39.400469 -18.774062 -39.400469 -9.574844 -28.345781 -0.000625 C -39.400469 9.573594 -39.400469 18.772813 -28.345781 28.347031 C -17.291094 18.772813 -17.291094 9.573594 -28.345781 -0.000625 C -17.291094 -9.574844 -17.291094 -18.774062 -28.345781 -28.348281 " transform="matrix(1,0,0,-1,36.92,31.14)"/>
<path style=" stroke:none;fill-rule:nonzero;fill:rgb(0%,0%,0%);fill-opacity:1;" d="M 10.566406 59.488281 C 10.566406 58.386719 9.671875 57.496094 8.574219 57.496094 C 7.472656 57.496094 6.582031 58.386719 6.582031 59.488281 C 6.582031 60.585938 7.472656 61.480469 8.574219 61.480469 C 9.671875 61.480469 10.566406 60.585938 10.566406 59.488281 Z M 10.566406 59.488281 "/>
<path style=" stroke:none;fill-rule:nonzero;fill:rgb(0%,0%,0%);fill-opacity:1;" d="M 10.566406 31.140625 C 10.566406 30.039062 9.671875 29.148438 8.574219 29.148438 C 7.472656 29.148438 6.582031 30.039062 6.582031 31.140625 C 6.582031 32.242188 7.472656 33.132812 8.574219 33.132812 C 9.671875 33.132812 10.566406 32.242188 10.566406 31.140625 Z M 10.566406 31.140625 "/>
<path style=" stroke:none;fill-rule:nonzero;fill:rgb(0%,0%,0%);fill-opacity:1;" d="M 10.566406 2.792969 C 10.566406 1.691406 9.671875 0.800781 8.574219 0.800781 C 7.472656 0.800781 6.582031 1.691406 6.582031 2.792969 C 6.582031 3.894531 7.472656 4.785156 8.574219 4.785156 C 9.671875 4.785156 10.566406 3.894531 10.566406 2.792969 Z M 10.566406 2.792969 "/>
<path style="fill:none;stroke-width:0.3985;stroke-linecap:butt;stroke-linejoin:miter;stroke:rgb(0%,0%,0%);stroke-opacity:1;stroke-miterlimit:10;" d="M 28.345625 -0.000625 L -28.345781 28.347031 M -28.345781 -0.000625 L 28.345625 -0.000625 L -28.345781 -28.348281 " transform="matrix(1,0,0,-1,36.92,31.14)"/>
<path style=" stroke:none;fill-rule:nonzero;fill:rgb(0%,0%,0%);fill-opacity:1;" d="M 67.257812 31.140625 C 67.257812 30.039062 66.367188 29.148438 65.265625 29.148438 C 64.167969 29.148438 63.273438 30.039062 63.273438 31.140625 C 63.273438 32.242188 64.167969 33.132812 65.265625 33.132812 C 66.367188 33.132812 67.257812 32.242188 67.257812 31.140625 Z M 67.257812 31.140625 "/>
</g>
</svg>
