<?xml version="1.0" encoding="UTF-8"?>
<svg xmlns="http://www.w3.org/2000/svg" xmlns:xlink="http://www.w3.org/1999/xlink" width="90pt" height="51pt" viewBox="0 0 90 51" version="1.1">
<g id="surface1">
<path style="fill:none;stroke-width:0.3985;stroke-linecap:butt;stroke-linejoin:miter;stroke:rgb(0%,0%,0%);stroke-opacity:1;stroke-miterlimit:10;" d="M -42.520406 0.00059375 L -21.258688 45.356062 L -0.000875 0.00059375 L 21.260844 45.356062 L 42.518656 0.00059375 L -21.258688 45.356062 M 21.260844 45.356062 L -42.520406 0.00059375 " transform="matrix(1,0,0,-1,45.204,48.317)"/>
<path style=" stroke:none;fill-rule:nonzero;fill:rgb(0%,0%,0%);fill-opacity:1;" d="M 4.675781 48.316406 C 4.675781 47.214844 3.785156 46.324219 2.683594 46.324219 C 1.582031 46.324219 0.691406 47.214844 0.691406 48.316406 C 0.691406 49.417969 1.582031 50.308594 2.683594 50.308594 C 3.785156 50.308594 4.675781 49.417969 4.675781 48.316406 Z M 4.675781 48.316406 "/>
<path style=" stroke:none;fill-rule:nonzero;fill:rgb(0%,0%,0%);fill-opacity:1;" d="M 25.9375 2.960938 C 25.9375 1.863281 25.042969 0.96875 23.945312 0.96875 C 22.84375 0.96875 21.953125 1.863281 21.953125 2.960938 C 21.953125 4.0625 22.84375 4.953125 23.945312 4.953125 C 25.042969 4.953125 25.9375 4.0625 25.9375 2.960938 Z M 25.9375 2.960938 "/>
<path style=" stroke:none;fill-rule:nonzero;fill:rgb(0%,0%,0%);fill-opacity:1;" d="M 47.195312 48.316406 C 47.195312 47.214844 46.304688 46.324219 45.203125 46.324219 C 44.105469 46.324219 43.210938 47.214844 43.210938 48.316406 C 43.210938 49.417969 44.105469 50.308594 45.203125 50.308594 C 46.304688 50.308594 47.195312 49.417969 47.195312 48.316406 Z M 47.195312 48.316406 "/>
<path style=" stroke:none;fill-rule:nonzero;fill:rgb(0%,0%,0%);fill-opacity:1;" d="M 68.457031 2.960938 C 68.457031 1.863281 67.566406 0.96875 66.464844 0.96875 C 65.363281 0.96875 64.472656 1.863281 64.472656 2.960938 C 64.472656 4.0625 65.363281 4.953125 66.464844 4.953125 C 67.566406 4.953125 68.457031 4.0625 68.457031 2.960938 Z M 68.457031 2.960938 "/>
<path style=" stroke:none;fill-rule:nonzero;fill:rgb(0%,0%,0%);fill-opacity:1;" d="M 89.714844 48.316406 C 89.714844 47.214844 88.824219 46.324219 87.722656 46.324219 C 86.625 46.324219 85.730469 47.214844 85.730469 48.316406 C 85.730469 49.417969 86.625 50.308594 87.722656 50.308594 C 88.824219 50.308594 89.714844 49.417969 89.714844 48.316406 Z M 89.714844 48.316406 "/>
</g>
</svg>
