<?xml version="1.0" encoding="UTF-8"?>
<svg xmlns="http://www.w3.org/2000/svg" xmlns:xlink="http://www.w3.org/1999/xlink" width="79pt" height="65pt" viewBox="0 0 79 65" version="1.1">
<g id="surface1">
<path style="fill:none;stroke-width:0.3985;stroke-linecap:butt;stroke-linejoin:miter;stroke:rgb(0%,0%,0%);stroke-opacity:1;stroke-miterlimit:10;" d="M -29.763438 -0.00046875 L -14.880625 39.687031 L -0.00171875 -0.00046875 L 44.646719 -19.844219 L 29.763906 -0.00046875 L -14.880625 39.687031 M 44.646719 -19.844219 L -29.763438 -0.00046875 " transform="matrix(1,0,0,-1,31.99,42.48)"/>
<path style=" stroke:none;fill-rule:nonzero;fill:rgb(0%,0%,0%);fill-opacity:1;" d="M 4.21875 42.480469 C 4.21875 41.378906 3.328125 40.488281 2.226562 40.488281 C 1.125 40.488281 0.234375 41.378906 0.234375 42.480469 C 0.234375 43.582031 1.125 44.472656 2.226562 44.472656 C 3.328125 44.472656 4.21875 43.582031 4.21875 42.480469 Z M 4.21875 42.480469 "/>
<path style=" stroke:none;fill-rule:nonzero;fill:rgb(0%,0%,0%);fill-opacity:1;" d="M 19.101562 2.792969 C 19.101562 1.695312 18.207031 0.800781 17.109375 0.800781 C 16.007812 0.800781 15.117188 1.695312 15.117188 2.792969 C 15.117188 3.894531 16.007812 4.789062 17.109375 4.789062 C 18.207031 4.789062 19.101562 3.894531 19.101562 2.792969 Z M 19.101562 2.792969 "/>
<path style=" stroke:none;fill-rule:nonzero;fill:rgb(0%,0%,0%);fill-opacity:1;" d="M 33.984375 42.480469 C 33.984375 41.378906 33.089844 40.488281 31.988281 40.488281 C 30.890625 40.488281 29.996094 41.378906 29.996094 42.480469 C 29.996094 43.582031 30.890625 44.472656 31.988281 44.472656 C 33.089844 44.472656 33.984375 43.582031 33.984375 42.480469 Z M 33.984375 42.480469 "/>
<path style=" stroke:none;fill-rule:nonzero;fill:rgb(0%,0%,0%);fill-opacity:1;" d="M 78.628906 62.324219 C 78.628906 61.222656 77.734375 60.332031 76.636719 60.332031 C 75.535156 60.332031 74.644531 61.222656 74.644531 62.324219 C 74.644531 63.421875 75.535156 64.316406 76.636719 64.316406 C 77.734375 64.316406 78.628906 63.421875 78.628906 62.324219 Z M 78.628906 62.324219 "/>
<path style=" stroke:none;fill-rule:nonzero;fill:rgb(0%,0%,0%);fill-opacity:1;" d="M 63.746094 42.480469 C 63.746094 41.378906 62.855469 40.488281 61.753906 40.488281 C 60.652344 40.488281 59.761719 41.378906 59.761719 42.480469 C 59.761719 43.582031 60.652344 44.472656 61.753906 44.472656 C 62.855469 44.472656 63.746094 43.582031 63.746094 42.480469 Z M 63.746094 42.480469 "/>
</g>
</svg>
