<?xml version="1.0" encoding="UTF-8"?>
<svg xmlns="http://www.w3.org/2000/svg" xmlns:xlink="http://www.w3.org/1999/xlink" width="68pt" height="62pt" viewBox="0 0 68 62" version="1.1">
<g id="surface1">
<path style="fill:none;stroke-width:0.3985;stroke-linecap:butt;stroke-linejoin:miter;stroke:rgb(0%,0%,0%);stroke-opacity:1;stroke-miterlimit:10;" d="M -28.345781 -28.345344 C -39.400469 -18.775031 -39.400469 -9.571906 -28.345781 -0.00159375 C -39.400469 9.572625 -39.400469 18.771844 -28.345781 28.346063 C -17.291094 18.771844 -17.291094 9.572625 -28.345781 -0.00159375 C -17.291094 -9.571906 -17.291094 -18.775031 -28.345781 -28.345344 " transform="matrix(1,0,0,-1,37.295,31.307)"/>
<path style=" stroke:none;fill-rule:nonzero;fill:rgb(0%,0%,0%);fill-opacity:1;" d="M 10.941406 59.652344 C 10.941406 58.554688 10.046875 57.660156 8.949219 57.660156 C 7.847656 57.660156 6.957031 58.554688 6.957031 59.652344 C 6.957031 60.753906 7.847656 61.644531 8.949219 61.644531 C 10.046875 61.644531 10.941406 60.753906 10.941406 59.652344 Z M 10.941406 59.652344 "/>
<path style=" stroke:none;fill-rule:nonzero;fill:rgb(0%,0%,0%);fill-opacity:1;" d="M 10.941406 31.308594 C 10.941406 30.207031 10.046875 29.3125 8.949219 29.3125 C 7.847656 29.3125 6.957031 30.207031 6.957031 31.308594 C 6.957031 32.40625 7.847656 33.300781 8.949219 33.300781 C 10.046875 33.300781 10.941406 32.40625 10.941406 31.308594 Z M 10.941406 31.308594 "/>
<path style=" stroke:none;fill-rule:nonzero;fill:rgb(0%,0%,0%);fill-opacity:1;" d="M 10.941406 2.960938 C 10.941406 1.859375 10.046875 0.96875 8.949219 0.96875 C 7.847656 0.96875 6.957031 1.859375 6.957031 2.960938 C 6.957031 4.0625 7.847656 4.953125 8.949219 4.953125 C 10.046875 4.953125 10.941406 4.0625 10.941406 2.960938 Z M 10.941406 2.960938 "/>
<path style="fill:none;stroke-width:0.3985;stroke-linecap:butt;stroke-linejoin:miter;stroke:rgb(0%,0%,0%);stroke-opacity:1;stroke-miterlimit:10;" d="M 28.345625 -0.00159375 L -28.345781 28.346063 M -28.345781 -0.00159375 L 28.345625 -0.00159375 L -28.345781 -28.345344 " transform="matrix(1,0,0,-1,37.295,31.307)"/>
<path style=" stroke:none;fill-rule:nonzero;fill:rgb(0%,0%,0%);fill-opacity:1;" d="M 67.632812 31.308594 C 67.632812 30.207031 66.742188 29.3125 65.640625 29.3125 C 64.542969 29.3125 63.648438 30.207031 63.648438 31.308594 C 63.648438 32.40625 64.542969 33.300781 65.640625 33.300781 C 66.742188 33.300781 67.632812 32.40625 67.632812 31.308594 Z M 67.632812 31.308594 "/>
</g>
</svg>
