<?xml version="1.0" encoding="UTF-8"?>
<svg xmlns="http://www.w3.org/2000/svg" xmlns:xlink="http://www.w3.org/1999/xlink" width="30pt" height="58pt" viewBox="0 0 30 58" version="1.1">
<g id="surface1">
<path style="fill:none;stroke-width:0.79701;stroke-linecap:butt;stroke-linejoin:miter;stroke:rgb(0%,0%,0%);stroke-opacity:1;stroke-miterlimit:10;" d="M -0.00125 3.985937 L -0.00125 52.708594 C -0.00125 54.907812 1.783906 56.692969 3.987031 56.692969 L 24.362031 56.692969 C 26.56125 56.692969 28.346406 54.907812 28.346406 52.708594 L 28.346406 3.985937 C 28.346406 1.782812 26.56125 0.0015625 24.362031 0.0015625 L 3.987031 0.0015625 C 1.783906 0.0015625 -0.00125 1.782812 -0.00125 3.985937 Z M -0.00125 3.985937 " transform="matrix(1,0,0,-1,0.72,57.4)"/>
<path style="fill:none;stroke-width:0.3985;stroke-linecap:butt;stroke-linejoin:miter;stroke:rgb(0%,0%,0%);stroke-opacity:1;stroke-miterlimit:10;" d="M -0.00125 28.345312 L 28.346406 28.345312 " transform="matrix(1,0,0,-1,0.72,57.4)"/>
<path style=" stroke:none;fill-rule:nonzero;fill:rgb(0%,0%,0%);fill-opacity:1;" d="M 9.800781 43.226562 C 9.800781 42.125 8.90625 41.234375 7.808594 41.234375 C 6.707031 41.234375 5.8125 42.125 5.8125 43.226562 C 5.8125 44.328125 6.707031 45.21875 7.808594 45.21875 C 8.90625 45.21875 9.800781 44.328125 9.800781 43.226562 Z M 9.800781 43.226562 "/>
<path style=" stroke:none;fill-rule:nonzero;fill:rgb(0%,0%,0%);fill-opacity:1;" d="M 23.972656 43.226562 C 23.972656 42.125 23.082031 41.234375 21.980469 41.234375 C 20.878906 41.234375 19.988281 42.125 19.988281 43.226562 C 19.988281 44.328125 20.878906 45.21875 21.980469 45.21875 C 23.082031 45.21875 23.972656 44.328125 23.972656 43.226562 Z M 23.972656 43.226562 "/>
<path style=" stroke:none;fill-rule:nonzero;fill:rgb(0%,0%,0%);fill-opacity:1;" d="M 9.800781 50.3125 C 9.800781 49.210938 8.90625 48.320312 7.808594 48.320312 C 6.707031 48.320312 5.8125 49.210938 5.8125 50.3125 C 5.8125 51.414062 6.707031 52.304688 7.808594 52.304688 C 8.90625 52.304688 9.800781 51.414062 9.800781 50.3125 Z M 9.800781 50.3125 "/>
<path style=" stroke:none;fill-rule:nonzero;fill:rgb(0%,0%,0%);fill-opacity:1;" d="M 9.800781 36.140625 C 9.800781 35.039062 8.90625 34.148438 7.808594 34.148438 C 6.707031 34.148438 5.8125 35.039062 5.8125 36.140625 C 5.8125 37.242188 6.707031 38.132812 7.808594 38.132812 C 8.90625 38.132812 9.800781 37.242188 9.800781 36.140625 Z M 9.800781 36.140625 "/>
<path style=" stroke:none;fill-rule:nonzero;fill:rgb(0%,0%,0%);fill-opacity:1;" d="M 23.972656 50.3125 C 23.972656 49.210938 23.082031 48.320312 21.980469 48.320312 C 20.878906 48.320312 19.988281 49.210938 19.988281 50.3125 C 19.988281 51.414062 20.878906 52.304688 21.980469 52.304688 C 23.082031 52.304688 23.972656 51.414062 23.972656 50.3125 Z M 23.972656 50.3125 "/>
<path style=" stroke:none;fill-rule:nonzero;fill:rgb(0%,0%,0%);fill-opacity:1;" d="M 23.972656 36.140625 C 23.972656 35.039062 23.082031 34.148438 21.980469 34.148438 C 20.878906 34.148438 19.988281 35.039062 19.988281 36.140625 C 19.988281 37.242188 20.878906 38.132812 21.980469 38.132812 C 23.082031 38.132812 23.972656 37.242188 23.972656 36.140625 Z M 23.972656 36.140625 "/>
<path style=" stroke:none;fill-rule:nonzero;fill:rgb(0%,0%,0%);fill-opacity:1;" d="M 9.800781 21.964844 C 9.800781 20.867188 8.90625 19.972656 7.808594 19.972656 C 6.707031 19.972656 5.8125 20.867188 5.8125 21.964844 C 5.8125 23.066406 6.707031 23.960938 7.808594 23.960938 C 8.90625 23.960938 9.800781 23.066406 9.800781 21.964844 Z M 9.800781 21.964844 "/>
<path style=" stroke:none;fill-rule:nonzero;fill:rgb(0%,0%,0%);fill-opacity:1;" d="M 9.800781 7.792969 C 9.800781 6.691406 8.90625 5.800781 7.808594 5.800781 C 6.707031 5.800781 5.8125 6.691406 5.8125 7.792969 C 5.8125 8.894531 6.707031 9.785156 7.808594 9.785156 C 8.90625 9.785156 9.800781 8.894531 9.800781 7.792969 Z M 9.800781 7.792969 "/>
<path style=" stroke:none;fill-rule:nonzero;fill:rgb(0%,0%,0%);fill-opacity:1;" d="M 23.972656 21.964844 C 23.972656 20.867188 23.082031 19.972656 21.980469 19.972656 C 20.878906 19.972656 19.988281 20.867188 19.988281 21.964844 C 19.988281 23.066406 20.878906 23.960938 21.980469 23.960938 C 23.082031 23.960938 23.972656 23.066406 23.972656 21.964844 Z M 23.972656 21.964844 "/>
<path style=" stroke:none;fill-rule:nonzero;fill:rgb(0%,0%,0%);fill-opacity:1;" d="M 23.972656 7.792969 C 23.972656 6.691406 23.082031 5.800781 21.980469 5.800781 C 20.878906 5.800781 19.988281 6.691406 19.988281 7.792969 C 19.988281 8.894531 20.878906 9.785156 21.980469 9.785156 C 23.082031 9.785156 23.972656 8.894531 23.972656 7.792969 Z M 23.972656 7.792969 "/>
</g>
</svg>
