<?xml version="1.0" encoding="UTF-8"?>
<svg xmlns="http://www.w3.org/2000/svg" xmlns:xlink="http://www.w3.org/1999/xlink" width="30pt" height="58pt" viewBox="0 0 30 58" version="1.1">
<g id="surface1">
<path style="fill:none;stroke-width:0.79701;stroke-linecap:butt;stroke-linejoin:miter;stroke:rgb(0%,0%,0%);stroke-opacity:1;stroke-miterlimit:10;" d="M 0.00075 3.984969 L 0.00075 52.707625 C 0.00075 54.91075 1.785906 56.692 3.985125 56.692 L 24.360125 56.692 C 26.56325 56.692 28.348406 54.91075 28.348406 52.707625 L 28.348406 3.984969 C 28.348406 1.78575 26.56325 0.00059375 24.360125 0.00059375 L 3.985125 0.00059375 C 1.785906 0.00059375 0.00075 1.78575 0.00075 3.984969 Z M 0.00075 3.984969 " transform="matrix(1,0,0,-1,1.093,57.567)"/>
<path style="fill:none;stroke-width:0.3985;stroke-linecap:butt;stroke-linejoin:miter;stroke:rgb(0%,0%,0%);stroke-opacity:1;stroke-miterlimit:10;" d="M 0.00075 28.34825 L 28.348406 28.34825 " transform="matrix(1,0,0,-1,1.093,57.567)"/>
<path style=" stroke:none;fill-rule:nonzero;fill:rgb(0%,0%,0%);fill-opacity:1;" d="M 10.171875 43.394531 C 10.171875 42.292969 9.28125 41.402344 8.179688 41.402344 C 7.078125 41.402344 6.1875 42.292969 6.1875 43.394531 C 6.1875 44.492188 7.078125 45.386719 8.179688 45.386719 C 9.28125 45.386719 10.171875 44.492188 10.171875 43.394531 Z M 10.171875 43.394531 "/>
<path style=" stroke:none;fill-rule:nonzero;fill:rgb(0%,0%,0%);fill-opacity:1;" d="M 24.34375 43.394531 C 24.34375 42.292969 23.453125 41.402344 22.351562 41.402344 C 21.253906 41.402344 20.359375 42.292969 20.359375 43.394531 C 20.359375 44.492188 21.253906 45.386719 22.351562 45.386719 C 23.453125 45.386719 24.34375 44.492188 24.34375 43.394531 Z M 24.34375 43.394531 "/>
<path style=" stroke:none;fill-rule:nonzero;fill:rgb(0%,0%,0%);fill-opacity:1;" d="M 10.171875 50.480469 C 10.171875 49.378906 9.28125 48.488281 8.179688 48.488281 C 7.078125 48.488281 6.1875 49.378906 6.1875 50.480469 C 6.1875 51.582031 7.078125 52.472656 8.179688 52.472656 C 9.28125 52.472656 10.171875 51.582031 10.171875 50.480469 Z M 10.171875 50.480469 "/>
<path style=" stroke:none;fill-rule:nonzero;fill:rgb(0%,0%,0%);fill-opacity:1;" d="M 10.171875 36.308594 C 10.171875 35.207031 9.28125 34.3125 8.179688 34.3125 C 7.078125 34.3125 6.1875 35.207031 6.1875 36.308594 C 6.1875 37.40625 7.078125 38.300781 8.179688 38.300781 C 9.28125 38.300781 10.171875 37.40625 10.171875 36.308594 Z M 10.171875 36.308594 "/>
<path style=" stroke:none;fill-rule:nonzero;fill:rgb(0%,0%,0%);fill-opacity:1;" d="M 24.34375 50.480469 C 24.34375 49.378906 23.453125 48.488281 22.351562 48.488281 C 21.253906 48.488281 20.359375 49.378906 20.359375 50.480469 C 20.359375 51.582031 21.253906 52.472656 22.351562 52.472656 C 23.453125 52.472656 24.34375 51.582031 24.34375 50.480469 Z M 24.34375 50.480469 "/>
<path style=" stroke:none;fill-rule:nonzero;fill:rgb(0%,0%,0%);fill-opacity:1;" d="M 24.34375 36.308594 C 24.34375 35.207031 23.453125 34.3125 22.351562 34.3125 C 21.253906 34.3125 20.359375 35.207031 20.359375 36.308594 C 20.359375 37.40625 21.253906 38.300781 22.351562 38.300781 C 23.453125 38.300781 24.34375 37.40625 24.34375 36.308594 Z M 24.34375 36.308594 "/>
<path style=" stroke:none;fill-rule:nonzero;fill:rgb(0%,0%,0%);fill-opacity:1;" d="M 10.171875 22.132812 C 10.171875 21.03125 9.28125 20.140625 8.179688 20.140625 C 7.078125 20.140625 6.1875 21.03125 6.1875 22.132812 C 6.1875 23.234375 7.078125 24.125 8.179688 24.125 C 9.28125 24.125 10.171875 23.234375 10.171875 22.132812 Z M 10.171875 22.132812 "/>
<path style=" stroke:none;fill-rule:nonzero;fill:rgb(0%,0%,0%);fill-opacity:1;" d="M 17.257812 15.046875 C 17.257812 13.945312 16.367188 13.054688 15.265625 13.054688 C 14.164062 13.054688 13.273438 13.945312 13.273438 15.046875 C 13.273438 16.148438 14.164062 17.039062 15.265625 17.039062 C 16.367188 17.039062 17.257812 16.148438 17.257812 15.046875 Z M 17.257812 15.046875 "/>
<path style=" stroke:none;fill-rule:nonzero;fill:rgb(0%,0%,0%);fill-opacity:1;" d="M 24.34375 7.960938 C 24.34375 6.859375 23.453125 5.96875 22.351562 5.96875 C 21.253906 5.96875 20.359375 6.859375 20.359375 7.960938 C 20.359375 9.0625 21.253906 9.953125 22.351562 9.953125 C 23.453125 9.953125 24.34375 9.0625 24.34375 7.960938 Z M 24.34375 7.960938 "/>
</g>
</svg>
