<?xml version="1.0" encoding="UTF-8"?>
<svg xmlns="http://www.w3.org/2000/svg" xmlns:xlink="http://www.w3.org/1999/xlink" width="81pt" height="77pt" viewBox="0 0 81 77" version="1.1">
<g id="surface1">
<path style="fill:none;stroke-width:0.79701;stroke-linecap:butt;stroke-linejoin:miter;stroke:rgb(0%,0%,0%);stroke-opacity:1;stroke-miterlimit:10;" d="M 37.744969 12.26275 L -0.001125 39.684625 L -37.743313 12.26275 L -23.325344 -32.104438 L 23.327 -32.104438 Z M 37.744969 12.26275 " transform="matrix(1,0,0,-1,40.423,42.044)"/>
<path style="fill:none;stroke-width:0.79701;stroke-linecap:butt;stroke-linejoin:miter;stroke:rgb(0%,0%,0%);stroke-opacity:1;stroke-miterlimit:10;" d="M 18.869969 6.129937 L -18.872219 6.129937 L 11.662937 -16.053656 L -0.001125 19.840875 L -11.661281 -16.053656 Z M 18.869969 6.129937 " transform="matrix(1,0,0,-1,40.423,42.044)"/>
<path style="fill:none;stroke-width:0.79701;stroke-linecap:butt;stroke-linejoin:miter;stroke:rgb(0%,0%,0%);stroke-opacity:1;stroke-miterlimit:10;" d="M 18.869969 6.129937 L 37.744969 12.26275 " transform="matrix(1,0,0,-1,40.423,42.044)"/>
<path style=" stroke:none;fill-rule:nonzero;fill:rgb(0%,0%,0%);fill-opacity:1;" d="M 61.289062 35.914062 C 61.289062 34.8125 60.394531 33.917969 59.292969 33.917969 C 58.195312 33.917969 57.300781 34.8125 57.300781 35.914062 C 57.300781 37.011719 58.195312 37.90625 59.292969 37.90625 C 60.394531 37.90625 61.289062 37.011719 61.289062 35.914062 Z M 61.289062 35.914062 "/>
<path style=" stroke:none;fill-rule:nonzero;fill:rgb(0%,0%,0%);fill-opacity:1;" d="M 80.160156 29.78125 C 80.160156 28.679688 79.265625 27.789062 78.167969 27.789062 C 77.066406 27.789062 76.171875 28.679688 76.171875 29.78125 C 76.171875 30.882812 77.066406 31.773438 78.167969 31.773438 C 79.265625 31.773438 80.160156 30.882812 80.160156 29.78125 Z M 80.160156 29.78125 "/>
<path style="fill:none;stroke-width:0.79701;stroke-linecap:butt;stroke-linejoin:miter;stroke:rgb(0%,0%,0%);stroke-opacity:1;stroke-miterlimit:10;" d="M -0.001125 19.840875 L -0.001125 39.684625 " transform="matrix(1,0,0,-1,40.423,42.044)"/>
<path style=" stroke:none;fill-rule:nonzero;fill:rgb(0%,0%,0%);fill-opacity:1;" d="M 42.414062 22.203125 C 42.414062 21.101562 41.523438 20.207031 40.421875 20.207031 C 39.324219 20.207031 38.429688 21.101562 38.429688 22.203125 C 38.429688 23.300781 39.324219 24.195312 40.421875 24.195312 C 41.523438 24.195312 42.414062 23.300781 42.414062 22.203125 Z M 42.414062 22.203125 "/>
<path style=" stroke:none;fill-rule:nonzero;fill:rgb(0%,0%,0%);fill-opacity:1;" d="M 42.414062 2.359375 C 42.414062 1.257812 41.523438 0.367188 40.421875 0.367188 C 39.324219 0.367188 38.429688 1.257812 38.429688 2.359375 C 38.429688 3.460938 39.324219 4.351562 40.421875 4.351562 C 41.523438 4.351562 42.414062 3.460938 42.414062 2.359375 Z M 42.414062 2.359375 "/>
<path style="fill:none;stroke-width:0.79701;stroke-linecap:butt;stroke-linejoin:miter;stroke:rgb(0%,0%,0%);stroke-opacity:1;stroke-miterlimit:10;" d="M -18.872219 6.129937 L -37.743313 12.26275 " transform="matrix(1,0,0,-1,40.423,42.044)"/>
<path style=" stroke:none;fill-rule:nonzero;fill:rgb(0%,0%,0%);fill-opacity:1;" d="M 23.542969 35.914062 C 23.542969 34.8125 22.652344 33.917969 21.550781 33.917969 C 20.449219 33.917969 19.558594 34.8125 19.558594 35.914062 C 19.558594 37.011719 20.449219 37.90625 21.550781 37.90625 C 22.652344 37.90625 23.542969 37.011719 23.542969 35.914062 Z M 23.542969 35.914062 "/>
<path style=" stroke:none;fill-rule:nonzero;fill:rgb(0%,0%,0%);fill-opacity:1;" d="M 4.671875 29.78125 C 4.671875 28.679688 3.78125 27.789062 2.679688 27.789062 C 1.578125 27.789062 0.6875 28.679688 0.6875 29.78125 C 0.6875 30.882812 1.578125 31.773438 2.679688 31.773438 C 3.78125 31.773438 4.671875 30.882812 4.671875 29.78125 Z M 4.671875 29.78125 "/>
<path style="fill:none;stroke-width:0.79701;stroke-linecap:butt;stroke-linejoin:miter;stroke:rgb(0%,0%,0%);stroke-opacity:1;stroke-miterlimit:10;" d="M -11.661281 -16.053656 L -23.325344 -32.104438 " transform="matrix(1,0,0,-1,40.423,42.044)"/>
<path style=" stroke:none;fill-rule:nonzero;fill:rgb(0%,0%,0%);fill-opacity:1;" d="M 30.753906 58.097656 C 30.753906 56.996094 29.859375 56.105469 28.761719 56.105469 C 27.660156 56.105469 26.765625 56.996094 26.765625 58.097656 C 26.765625 59.199219 27.660156 60.089844 28.761719 60.089844 C 29.859375 60.089844 30.753906 59.199219 30.753906 58.097656 Z M 30.753906 58.097656 "/>
<path style=" stroke:none;fill-rule:nonzero;fill:rgb(0%,0%,0%);fill-opacity:1;" d="M 19.089844 74.148438 C 19.089844 73.050781 18.195312 72.15625 17.097656 72.15625 C 15.996094 72.15625 15.105469 73.050781 15.105469 74.148438 C 15.105469 75.25 15.996094 76.144531 17.097656 76.144531 C 18.195312 76.144531 19.089844 75.25 19.089844 74.148438 Z M 19.089844 74.148438 "/>
<path style="fill:none;stroke-width:0.79701;stroke-linecap:butt;stroke-linejoin:miter;stroke:rgb(0%,0%,0%);stroke-opacity:1;stroke-miterlimit:10;" d="M 11.662937 -16.053656 L 23.327 -32.104438 " transform="matrix(1,0,0,-1,40.423,42.044)"/>
<path style=" stroke:none;fill-rule:nonzero;fill:rgb(0%,0%,0%);fill-opacity:1;" d="M 54.078125 58.097656 C 54.078125 56.996094 53.1875 56.105469 52.085938 56.105469 C 50.984375 56.105469 50.09375 56.996094 50.09375 58.097656 C 50.09375 59.199219 50.984375 60.089844 52.085938 60.089844 C 53.1875 60.089844 54.078125 59.199219 54.078125 58.097656 Z M 54.078125 58.097656 "/>
<path style=" stroke:none;fill-rule:nonzero;fill:rgb(0%,0%,0%);fill-opacity:1;" d="M 65.742188 74.148438 C 65.742188 73.050781 64.851562 72.15625 63.75 72.15625 C 62.648438 72.15625 61.757812 73.050781 61.757812 74.148438 C 61.757812 75.25 62.648438 76.144531 63.75 76.144531 C 64.851562 76.144531 65.742188 75.25 65.742188 74.148438 Z M 65.742188 74.148438 "/>
</g>
</svg>
