<?xml version="1.0" encoding="UTF-8"?>
<svg xmlns="http://www.w3.org/2000/svg" xmlns:xlink="http://www.w3.org/1999/xlink" width="62pt" height="62pt" viewBox="0 0 62 62" version="1.1">
<g id="surface1">
<path style="fill:none;stroke-width:0.3985;stroke-linecap:butt;stroke-linejoin:miter;stroke:rgb(0%,0%,0%);stroke-opacity:1;stroke-miterlimit:10;" d="M -28.346312 0.00065625 L -28.346312 56.692062 L 28.345094 56.692062 L 28.345094 0.00065625 L -28.346312 56.692062 " transform="matrix(1,0,0,-1,31.026,59.653)"/>
<path style=" stroke:none;fill-rule:nonzero;fill:rgb(0%,0%,0%);fill-opacity:1;" d="M 4.671875 59.652344 C 4.671875 58.550781 3.78125 57.660156 2.679688 57.660156 C 1.578125 57.660156 0.6875 58.550781 0.6875 59.652344 C 0.6875 60.753906 1.578125 61.644531 2.679688 61.644531 C 3.78125 61.644531 4.671875 60.753906 4.671875 59.652344 Z M 4.671875 59.652344 "/>
<path style=" stroke:none;fill-rule:nonzero;fill:rgb(0%,0%,0%);fill-opacity:1;" d="M 4.671875 2.960938 C 4.671875 1.859375 3.78125 0.96875 2.679688 0.96875 C 1.578125 0.96875 0.6875 1.859375 0.6875 2.960938 C 0.6875 4.058594 1.578125 4.953125 2.679688 4.953125 C 3.78125 4.953125 4.671875 4.058594 4.671875 2.960938 Z M 4.671875 2.960938 "/>
<path style=" stroke:none;fill-rule:nonzero;fill:rgb(0%,0%,0%);fill-opacity:1;" d="M 61.367188 2.960938 C 61.367188 1.859375 60.472656 0.96875 59.371094 0.96875 C 58.273438 0.96875 57.378906 1.859375 57.378906 2.960938 C 57.378906 4.058594 58.273438 4.953125 59.371094 4.953125 C 60.472656 4.953125 61.367188 4.058594 61.367188 2.960938 Z M 61.367188 2.960938 "/>
<path style=" stroke:none;fill-rule:nonzero;fill:rgb(0%,0%,0%);fill-opacity:1;" d="M 61.367188 59.652344 C 61.367188 58.550781 60.472656 57.660156 59.371094 57.660156 C 58.273438 57.660156 57.378906 58.550781 57.378906 59.652344 C 57.378906 60.753906 58.273438 61.644531 59.371094 61.644531 C 60.472656 61.644531 61.367188 60.753906 61.367188 59.652344 Z M 61.367188 59.652344 "/>
<path style="fill:none;stroke-width:0.3985;stroke-linecap:butt;stroke-linejoin:miter;stroke:rgb(0%,0%,0%);stroke-opacity:1;stroke-dasharray:2.98883,2.98883;stroke-miterlimit:10;" d="M 28.345094 0.00065625 L -28.346312 0.00065625 " transform="matrix(1,0,0,-1,31.026,59.653)"/>
</g>
</svg>
