<?xml version="1.0" encoding="UTF-8"?>
<svg xmlns="http://www.w3.org/2000/svg" xmlns:xlink="http://www.w3.org/1999/xlink" width="56pt" height="56pt" viewBox="0 0 56 56" version="1.1">
<g id="surface1">
<path style="fill:none;stroke-width:0.3985;stroke-linecap:butt;stroke-linejoin:miter;stroke:rgb(0%,0%,0%);stroke-opacity:1;stroke-miterlimit:10;" d="M -25.51125 -0.0003125 L 25.512187 -0.0003125 L 25.512187 51.023125 L -25.51125 51.023125 L -25.51125 -0.0003125 L 25.512187 51.023125 M -25.51125 51.023125 L 25.512187 -0.0003125 " transform="matrix(1,0,0,-1,27.73,53.82)"/>
<path style=" stroke:none;fill-rule:nonzero;fill:rgb(0%,0%,0%);fill-opacity:1;" d="M 4.210938 53.820312 C 4.210938 52.71875 3.320312 51.828125 2.21875 51.828125 C 1.117188 51.828125 0.226562 52.71875 0.226562 53.820312 C 0.226562 54.921875 1.117188 55.8125 2.21875 55.8125 C 3.320312 55.8125 4.210938 54.921875 4.210938 53.820312 Z M 4.210938 53.820312 "/>
<path style=" stroke:none;fill-rule:nonzero;fill:rgb(0%,0%,0%);fill-opacity:1;" d="M 55.234375 53.820312 C 55.234375 52.71875 54.34375 51.828125 53.242188 51.828125 C 52.140625 51.828125 51.25 52.71875 51.25 53.820312 C 51.25 54.921875 52.140625 55.8125 53.242188 55.8125 C 54.34375 55.8125 55.234375 54.921875 55.234375 53.820312 Z M 55.234375 53.820312 "/>
<path style=" stroke:none;fill-rule:nonzero;fill:rgb(0%,0%,0%);fill-opacity:1;" d="M 55.234375 2.796875 C 55.234375 1.695312 54.34375 0.804688 53.242188 0.804688 C 52.140625 0.804688 51.25 1.695312 51.25 2.796875 C 51.25 3.898438 52.140625 4.789062 53.242188 4.789062 C 54.34375 4.789062 55.234375 3.898438 55.234375 2.796875 Z M 55.234375 2.796875 "/>
<path style=" stroke:none;fill-rule:nonzero;fill:rgb(0%,0%,0%);fill-opacity:1;" d="M 4.210938 2.796875 C 4.210938 1.695312 3.320312 0.804688 2.21875 0.804688 C 1.117188 0.804688 0.226562 1.695312 0.226562 2.796875 C 0.226562 3.898438 1.117188 4.789062 2.21875 4.789062 C 3.320312 4.789062 4.210938 3.898438 4.210938 2.796875 Z M 4.210938 2.796875 "/>
<path style=" stroke:none;fill-rule:nonzero;fill:rgb(0%,0%,0%);fill-opacity:1;" d="M 29.722656 28.308594 C 29.722656 27.207031 28.832031 26.316406 27.730469 26.316406 C 26.628906 26.316406 25.738281 27.207031 25.738281 28.308594 C 25.738281 29.410156 26.628906 30.300781 27.730469 30.300781 C 28.832031 30.300781 29.722656 29.410156 29.722656 28.308594 Z M 29.722656 28.308594 "/>
</g>
</svg>
