<?xml version="1.0" encoding="UTF-8"?>
<svg xmlns="http://www.w3.org/2000/svg" xmlns:xlink="http://www.w3.org/1999/xlink" width="61pt" height="34pt" viewBox="0 0 61 34" version="1.1">
<g id="surface1">
<path style="fill:none;stroke-width:0.3985;stroke-linecap:butt;stroke-linejoin:miter;stroke:rgb(0%,0%,0%);stroke-opacity:1;stroke-miterlimit:10;" d="M -28.347344 -0.000625 L 28.347969 -0.000625 L 28.347969 28.347031 L -28.347344 28.347031 L -28.347344 -0.000625 L 0.0003125 14.175156 L 0.0003125 -0.000625 M 0.0003125 14.175156 L 28.347969 -0.000625 M 0.0003125 14.175156 L 0.0003125 28.347031 " transform="matrix(1,0,0,-1,30.57,31.14)"/>
<path style=" stroke:none;fill-rule:nonzero;fill:rgb(0%,0%,0%);fill-opacity:1;" d="M 4.214844 31.140625 C 4.214844 30.039062 3.324219 29.148438 2.222656 29.148438 C 1.121094 29.148438 0.230469 30.039062 0.230469 31.140625 C 0.230469 32.242188 1.121094 33.132812 2.222656 33.132812 C 3.324219 33.132812 4.214844 32.242188 4.214844 31.140625 Z M 4.214844 31.140625 "/>
<path style=" stroke:none;fill-rule:nonzero;fill:rgb(0%,0%,0%);fill-opacity:1;" d="M 32.5625 31.140625 C 32.5625 30.039062 31.671875 29.148438 30.570312 29.148438 C 29.46875 29.148438 28.578125 30.039062 28.578125 31.140625 C 28.578125 32.242188 29.46875 33.132812 30.570312 33.132812 C 31.671875 33.132812 32.5625 32.242188 32.5625 31.140625 Z M 32.5625 31.140625 "/>
<path style=" stroke:none;fill-rule:nonzero;fill:rgb(0%,0%,0%);fill-opacity:1;" d="M 60.910156 31.140625 C 60.910156 30.039062 60.015625 29.148438 58.917969 29.148438 C 57.816406 29.148438 56.925781 30.039062 56.925781 31.140625 C 56.925781 32.242188 57.816406 33.132812 58.917969 33.132812 C 60.015625 33.132812 60.910156 32.242188 60.910156 31.140625 Z M 60.910156 31.140625 "/>
<path style=" stroke:none;fill-rule:nonzero;fill:rgb(0%,0%,0%);fill-opacity:1;" d="M 60.910156 2.792969 C 60.910156 1.691406 60.015625 0.800781 58.917969 0.800781 C 57.816406 0.800781 56.925781 1.691406 56.925781 2.792969 C 56.925781 3.894531 57.816406 4.785156 58.917969 4.785156 C 60.015625 4.785156 60.910156 3.894531 60.910156 2.792969 Z M 60.910156 2.792969 "/>
<path style=" stroke:none;fill-rule:nonzero;fill:rgb(0%,0%,0%);fill-opacity:1;" d="M 32.5625 2.792969 C 32.5625 1.691406 31.671875 0.800781 30.570312 0.800781 C 29.46875 0.800781 28.578125 1.691406 28.578125 2.792969 C 28.578125 3.894531 29.46875 4.785156 30.570312 4.785156 C 31.671875 4.785156 32.5625 3.894531 32.5625 2.792969 Z M 32.5625 2.792969 "/>
<path style=" stroke:none;fill-rule:nonzero;fill:rgb(0%,0%,0%);fill-opacity:1;" d="M 4.214844 2.792969 C 4.214844 1.691406 3.324219 0.800781 2.222656 0.800781 C 1.121094 0.800781 0.230469 1.691406 0.230469 2.792969 C 0.230469 3.894531 1.121094 4.785156 2.222656 4.785156 C 3.324219 4.785156 4.214844 3.894531 4.214844 2.792969 Z M 4.214844 2.792969 "/>
<path style=" stroke:none;fill-rule:nonzero;fill:rgb(0%,0%,0%);fill-opacity:1;" d="M 32.5625 16.964844 C 32.5625 15.867188 31.671875 14.972656 30.570312 14.972656 C 29.46875 14.972656 28.578125 15.867188 28.578125 16.964844 C 28.578125 18.066406 29.46875 18.960938 30.570312 18.960938 C 31.671875 18.960938 32.5625 18.066406 32.5625 16.964844 Z M 32.5625 16.964844 "/>
</g>
</svg>
