<?xml version="1.0" encoding="UTF-8"?>
<svg xmlns="http://www.w3.org/2000/svg" xmlns:xlink="http://www.w3.org/1999/xlink" width="62pt" height="54pt" viewBox="0 0 62 54" version="1.1">
<g id="surface1">
<path style="fill:none;stroke-width:0.19925;stroke-linecap:butt;stroke-linejoin:miter;stroke:rgb(0%,0%,0%);stroke-opacity:1;stroke-miterlimit:10;" d="M 28.347969 -0.000625 L 14.172188 24.550156 L -28.347344 -0.000625 Z M 28.347969 -0.000625 " transform="matrix(1,0,0,-1,30.57,27.14)"/>
<path style=" stroke:none;fill-rule:nonzero;fill:rgb(0%,0%,0%);fill-opacity:1;" d="M 60.910156 27.140625 C 60.910156 26.039062 60.015625 25.148438 58.917969 25.148438 C 57.816406 25.148438 56.925781 26.039062 56.925781 27.140625 C 56.925781 28.242188 57.816406 29.132812 58.917969 29.132812 C 60.015625 29.132812 60.910156 28.242188 60.910156 27.140625 Z M 60.910156 27.140625 "/>
<path style="fill:none;stroke-width:0.19925;stroke-linecap:butt;stroke-linejoin:miter;stroke:rgb(0%,0%,0%);stroke-opacity:1;stroke-miterlimit:10;" d="M 14.172188 24.550156 L -14.171562 24.550156 L -14.171562 -24.5475 Z M 14.172188 24.550156 " transform="matrix(1,0,0,-1,30.57,27.14)"/>
<path style=" stroke:none;fill-rule:nonzero;fill:rgb(0%,0%,0%);fill-opacity:1;" d="M 46.734375 2.589844 C 46.734375 1.492188 45.84375 0.597656 44.742188 0.597656 C 43.644531 0.597656 42.75 1.492188 42.75 2.589844 C 42.75 3.691406 43.644531 4.582031 44.742188 4.582031 C 45.84375 4.582031 46.734375 3.691406 46.734375 2.589844 Z M 46.734375 2.589844 "/>
<path style="fill:none;stroke-width:0.19925;stroke-linecap:butt;stroke-linejoin:miter;stroke:rgb(0%,0%,0%);stroke-opacity:1;stroke-miterlimit:10;" d="M -14.171562 24.550156 L -28.347344 -0.000625 L 14.172188 -24.5475 Z M -14.171562 24.550156 " transform="matrix(1,0,0,-1,30.57,27.14)"/>
<path style=" stroke:none;fill-rule:nonzero;fill:rgb(0%,0%,0%);fill-opacity:1;" d="M 18.390625 2.589844 C 18.390625 1.492188 17.496094 0.597656 16.398438 0.597656 C 15.296875 0.597656 14.402344 1.492188 14.402344 2.589844 C 14.402344 3.691406 15.296875 4.582031 16.398438 4.582031 C 17.496094 4.582031 18.390625 3.691406 18.390625 2.589844 Z M 18.390625 2.589844 "/>
<path style="fill:none;stroke-width:0.19925;stroke-linecap:butt;stroke-linejoin:miter;stroke:rgb(0%,0%,0%);stroke-opacity:1;stroke-miterlimit:10;" d="M -28.347344 -0.000625 L -14.171562 -24.5475 L 28.347969 -0.000625 Z M -28.347344 -0.000625 " transform="matrix(1,0,0,-1,30.57,27.14)"/>
<path style=" stroke:none;fill-rule:nonzero;fill:rgb(0%,0%,0%);fill-opacity:1;" d="M 4.214844 27.140625 C 4.214844 26.039062 3.324219 25.148438 2.222656 25.148438 C 1.121094 25.148438 0.230469 26.039062 0.230469 27.140625 C 0.230469 28.242188 1.121094 29.132812 2.222656 29.132812 C 3.324219 29.132812 4.214844 28.242188 4.214844 27.140625 Z M 4.214844 27.140625 "/>
<path style="fill:none;stroke-width:0.19925;stroke-linecap:butt;stroke-linejoin:miter;stroke:rgb(0%,0%,0%);stroke-opacity:1;stroke-miterlimit:10;" d="M -14.171562 -24.5475 L 14.172188 -24.5475 L 14.172188 24.550156 Z M -14.171562 -24.5475 " transform="matrix(1,0,0,-1,30.57,27.14)"/>
<path style=" stroke:none;fill-rule:nonzero;fill:rgb(0%,0%,0%);fill-opacity:1;" d="M 18.390625 51.6875 C 18.390625 50.589844 17.496094 49.695312 16.398438 49.695312 C 15.296875 49.695312 14.402344 50.589844 14.402344 51.6875 C 14.402344 52.789062 15.296875 53.683594 16.398438 53.683594 C 17.496094 53.683594 18.390625 52.789062 18.390625 51.6875 Z M 18.390625 51.6875 "/>
<path style="fill:none;stroke-width:0.19925;stroke-linecap:butt;stroke-linejoin:miter;stroke:rgb(0%,0%,0%);stroke-opacity:1;stroke-miterlimit:10;" d="M 14.172188 -24.5475 L 28.347969 -0.000625 L -14.171562 24.550156 Z M 14.172188 -24.5475 " transform="matrix(1,0,0,-1,30.57,27.14)"/>
<path style=" stroke:none;fill-rule:nonzero;fill:rgb(0%,0%,0%);fill-opacity:1;" d="M 46.734375 51.6875 C 46.734375 50.589844 45.84375 49.695312 44.742188 49.695312 C 43.644531 49.695312 42.75 50.589844 42.75 51.6875 C 42.75 52.789062 43.644531 53.683594 44.742188 53.683594 C 45.84375 53.683594 46.734375 52.789062 46.734375 51.6875 Z M 46.734375 51.6875 "/>
<path style="fill:none;stroke-width:0.19925;stroke-linecap:butt;stroke-linejoin:miter;stroke:rgb(0%,0%,0%);stroke-opacity:1;stroke-miterlimit:10;" d="M 28.347969 -0.000625 L 14.172188 24.550156 L -28.347344 -0.000625 Z M 28.347969 -0.000625 " transform="matrix(1,0,0,-1,30.57,27.14)"/>
<path style=" stroke:none;fill-rule:nonzero;fill:rgb(0%,0%,0%);fill-opacity:1;" d="M 60.910156 27.140625 C 60.910156 26.039062 60.015625 25.148438 58.917969 25.148438 C 57.816406 25.148438 56.925781 26.039062 56.925781 27.140625 C 56.925781 28.242188 57.816406 29.132812 58.917969 29.132812 C 60.015625 29.132812 60.910156 28.242188 60.910156 27.140625 Z M 60.910156 27.140625 "/>
<path style="fill:none;stroke-width:1.19553;stroke-linecap:butt;stroke-linejoin:miter;stroke:rgb(0%,0%,0%);stroke-opacity:1;stroke-miterlimit:10;" d="M 28.347969 -0.000625 L 14.172188 24.550156 L -28.347344 -0.000625 L -14.171562 -24.5475 L 28.347969 -0.000625 L -28.347344 -0.000625 M 14.172188 24.550156 L -14.171562 -24.5475 " transform="matrix(1,0,0,-1,30.57,27.14)"/>
</g>
</svg>
