<?xml version="1.0" encoding="UTF-8"?>
<svg xmlns="http://www.w3.org/2000/svg" xmlns:xlink="http://www.w3.org/1999/xlink" width="61pt" height="51pt" viewBox="0 0 61 51" version="1.1">
<g id="surface1">
<path style="fill:none;stroke-width:0.3985;stroke-linecap:butt;stroke-linejoin:miter;stroke:rgb(0%,0%,0%);stroke-opacity:1;stroke-miterlimit:10;" d="M -28.347344 0.0015625 L 28.347969 0.0015625 L 14.172188 22.677344 L 0.0003125 0.0015625 L -14.171562 22.677344 L 0.0003125 45.353125 L 14.172188 22.677344 L -14.171562 22.677344 L -28.347344 0.0015625 " transform="matrix(1,0,0,-1,30.57,48.15)"/>
<path style=" stroke:none;fill-rule:nonzero;fill:rgb(0%,0%,0%);fill-opacity:1;" d="M 4.214844 48.148438 C 4.214844 47.050781 3.324219 46.15625 2.222656 46.15625 C 1.121094 46.15625 0.230469 47.050781 0.230469 48.148438 C 0.230469 49.25 1.121094 50.140625 2.222656 50.140625 C 3.324219 50.140625 4.214844 49.25 4.214844 48.148438 Z M 4.214844 48.148438 "/>
<path style=" stroke:none;fill-rule:nonzero;fill:rgb(0%,0%,0%);fill-opacity:1;" d="M 32.5625 48.148438 C 32.5625 47.050781 31.671875 46.15625 30.570312 46.15625 C 29.46875 46.15625 28.578125 47.050781 28.578125 48.148438 C 28.578125 49.25 29.46875 50.140625 30.570312 50.140625 C 31.671875 50.140625 32.5625 49.25 32.5625 48.148438 Z M 32.5625 48.148438 "/>
<path style=" stroke:none;fill-rule:nonzero;fill:rgb(0%,0%,0%);fill-opacity:1;" d="M 60.910156 48.148438 C 60.910156 47.050781 60.015625 46.15625 58.917969 46.15625 C 57.816406 46.15625 56.925781 47.050781 56.925781 48.148438 C 56.925781 49.25 57.816406 50.140625 58.917969 50.140625 C 60.015625 50.140625 60.910156 49.25 60.910156 48.148438 Z M 60.910156 48.148438 "/>
<path style=" stroke:none;fill-rule:nonzero;fill:rgb(0%,0%,0%);fill-opacity:1;" d="M 46.734375 25.472656 C 46.734375 24.371094 45.84375 23.480469 44.742188 23.480469 C 43.644531 23.480469 42.75 24.371094 42.75 25.472656 C 42.75 26.574219 43.644531 27.464844 44.742188 27.464844 C 45.84375 27.464844 46.734375 26.574219 46.734375 25.472656 Z M 46.734375 25.472656 "/>
<path style=" stroke:none;fill-rule:nonzero;fill:rgb(0%,0%,0%);fill-opacity:1;" d="M 18.390625 25.472656 C 18.390625 24.371094 17.496094 23.480469 16.398438 23.480469 C 15.296875 23.480469 14.402344 24.371094 14.402344 25.472656 C 14.402344 26.574219 15.296875 27.464844 16.398438 27.464844 C 17.496094 27.464844 18.390625 26.574219 18.390625 25.472656 Z M 18.390625 25.472656 "/>
<path style=" stroke:none;fill-rule:nonzero;fill:rgb(0%,0%,0%);fill-opacity:1;" d="M 32.5625 2.796875 C 32.5625 1.695312 31.671875 0.800781 30.570312 0.800781 C 29.46875 0.800781 28.578125 1.695312 28.578125 2.796875 C 28.578125 3.894531 29.46875 4.789062 30.570312 4.789062 C 31.671875 4.789062 32.5625 3.894531 32.5625 2.796875 Z M 32.5625 2.796875 "/>
</g>
</svg>
