<?xml version="1.0" encoding="UTF-8"?>
<svg xmlns="http://www.w3.org/2000/svg" xmlns:xlink="http://www.w3.org/1999/xlink" width="104pt" height="79pt" viewBox="0 0 104 79" version="1.1">
<g id="surface1">
<path style="fill:none;stroke-width:0.3985;stroke-linecap:butt;stroke-linejoin:miter;stroke:rgb(0%,0%,0%);stroke-opacity:1;stroke-miterlimit:10;" d="M -19.842438 19.841313 L -29.764313 29.763188 M -19.842438 19.841313 L -17.858063 39.685063 M -19.842438 19.841313 L -3.967438 9.919438 M -19.842438 19.841313 L -9.920563 3.970219 " transform="matrix(1,0,0,-1,32.444,42.646)"/>
<path style=" stroke:none;fill-rule:nonzero;fill:rgb(0%,0%,0%);fill-opacity:1;" d="M 14.59375 22.804688 C 14.59375 21.703125 13.703125 20.8125 12.601562 20.8125 C 11.5 20.8125 10.609375 21.703125 10.609375 22.804688 C 10.609375 23.902344 11.5 24.796875 12.601562 24.796875 C 13.703125 24.796875 14.59375 23.902344 14.59375 22.804688 Z M 14.59375 22.804688 "/>
<path style=" stroke:none;fill-rule:nonzero;fill:rgb(0%,0%,0%);fill-opacity:1;" d="M 4.671875 12.882812 C 4.671875 11.78125 3.78125 10.890625 2.679688 10.890625 C 1.578125 10.890625 0.6875 11.78125 0.6875 12.882812 C 0.6875 13.984375 1.578125 14.875 2.679688 14.875 C 3.78125 14.875 4.671875 13.984375 4.671875 12.882812 Z M 4.671875 12.882812 "/>
<path style=" stroke:none;fill-rule:nonzero;fill:rgb(0%,0%,0%);fill-opacity:1;" d="M 16.578125 2.960938 C 16.578125 1.859375 15.6875 0.96875 14.585938 0.96875 C 13.484375 0.96875 12.59375 1.859375 12.59375 2.960938 C 12.59375 4.0625 13.484375 4.953125 14.585938 4.953125 C 15.6875 4.953125 16.578125 4.0625 16.578125 2.960938 Z M 16.578125 2.960938 "/>
<path style=" stroke:none;fill-rule:nonzero;fill:rgb(0%,0%,0%);fill-opacity:1;" d="M 30.46875 32.726562 C 30.46875 31.625 29.574219 30.730469 28.476562 30.730469 C 27.375 30.730469 26.484375 31.625 26.484375 32.726562 C 26.484375 33.824219 27.375 34.71875 28.476562 34.71875 C 29.574219 34.71875 30.46875 33.824219 30.46875 32.726562 Z M 30.46875 32.726562 "/>
<path style=" stroke:none;fill-rule:nonzero;fill:rgb(0%,0%,0%);fill-opacity:1;" d="M 24.515625 38.675781 C 24.515625 37.578125 23.625 36.683594 22.523438 36.683594 C 21.421875 36.683594 20.53125 37.578125 20.53125 38.675781 C 20.53125 39.777344 21.421875 40.671875 22.523438 40.671875 C 23.625 40.671875 24.515625 39.777344 24.515625 38.675781 Z M 24.515625 38.675781 "/>
<path style="fill:none;stroke-width:0.3985;stroke-linecap:butt;stroke-linejoin:miter;stroke:rgb(0%,0%,0%);stroke-opacity:1;stroke-miterlimit:10;" d="M -19.842438 19.841313 L 19.841156 19.841313 L 9.923187 25.794438 M 19.841156 19.841313 L 19.841156 39.685063 M 19.841156 19.841313 L 29.763031 25.794438 M 19.841156 19.841313 L 29.763031 19.841313 " transform="matrix(1,0,0,-1,32.444,42.646)"/>
<path style=" stroke:none;fill-rule:nonzero;fill:rgb(0%,0%,0%);fill-opacity:1;" d="M 54.277344 22.804688 C 54.277344 21.703125 53.386719 20.8125 52.285156 20.8125 C 51.1875 20.8125 50.292969 21.703125 50.292969 22.804688 C 50.292969 23.902344 51.1875 24.796875 52.285156 24.796875 C 53.386719 24.796875 54.277344 23.902344 54.277344 22.804688 Z M 54.277344 22.804688 "/>
<path style=" stroke:none;fill-rule:nonzero;fill:rgb(0%,0%,0%);fill-opacity:1;" d="M 44.359375 16.851562 C 44.359375 15.75 43.464844 14.859375 42.367188 14.859375 C 41.265625 14.859375 40.371094 15.75 40.371094 16.851562 C 40.371094 17.949219 41.265625 18.84375 42.367188 18.84375 C 43.464844 18.84375 44.359375 17.949219 44.359375 16.851562 Z M 44.359375 16.851562 "/>
<path style=" stroke:none;fill-rule:nonzero;fill:rgb(0%,0%,0%);fill-opacity:1;" d="M 54.277344 2.960938 C 54.277344 1.859375 53.386719 0.96875 52.285156 0.96875 C 51.1875 0.96875 50.292969 1.859375 50.292969 2.960938 C 50.292969 4.0625 51.1875 4.953125 52.285156 4.953125 C 53.386719 4.953125 54.277344 4.0625 54.277344 2.960938 Z M 54.277344 2.960938 "/>
<path style=" stroke:none;fill-rule:nonzero;fill:rgb(0%,0%,0%);fill-opacity:1;" d="M 64.199219 16.851562 C 64.199219 15.75 63.308594 14.859375 62.207031 14.859375 C 61.109375 14.859375 60.214844 15.75 60.214844 16.851562 C 60.214844 17.949219 61.109375 18.84375 62.207031 18.84375 C 63.308594 18.84375 64.199219 17.949219 64.199219 16.851562 Z M 64.199219 16.851562 "/>
<path style=" stroke:none;fill-rule:nonzero;fill:rgb(0%,0%,0%);fill-opacity:1;" d="M 64.199219 22.804688 C 64.199219 21.703125 63.308594 20.8125 62.207031 20.8125 C 61.109375 20.8125 60.214844 21.703125 60.214844 22.804688 C 60.214844 23.902344 61.109375 24.796875 62.207031 24.796875 C 63.308594 24.796875 64.199219 23.902344 64.199219 22.804688 Z M 64.199219 22.804688 "/>
<path style="fill:none;stroke-width:0.3985;stroke-linecap:butt;stroke-linejoin:miter;stroke:rgb(0%,0%,0%);stroke-opacity:1;stroke-miterlimit:10;" d="M 19.841156 19.841313 L 0.0013125 0.00146875 L -3.967438 -19.842281 M 0.0013125 0.00146875 L 3.970062 -19.842281 M 0.0013125 0.00146875 L 39.684906 0.00146875 L 39.684906 19.841313 L 49.606781 29.763188 M 39.684906 19.841313 L 47.622406 21.825688 " transform="matrix(1,0,0,-1,32.444,42.646)"/>
<path style=" stroke:none;fill-rule:nonzero;fill:rgb(0%,0%,0%);fill-opacity:1;" d="M 34.4375 42.644531 C 34.4375 41.546875 33.542969 40.652344 32.445312 40.652344 C 31.34375 40.652344 30.453125 41.546875 30.453125 42.644531 C 30.453125 43.746094 31.34375 44.636719 32.445312 44.636719 C 33.542969 44.636719 34.4375 43.746094 34.4375 42.644531 Z M 34.4375 42.644531 "/>
<path style=" stroke:none;fill-rule:nonzero;fill:rgb(0%,0%,0%);fill-opacity:1;" d="M 30.46875 62.488281 C 30.46875 61.386719 29.574219 60.496094 28.476562 60.496094 C 27.375 60.496094 26.484375 61.386719 26.484375 62.488281 C 26.484375 63.589844 27.375 64.480469 28.476562 64.480469 C 29.574219 64.480469 30.46875 63.589844 30.46875 62.488281 Z M 30.46875 62.488281 "/>
<path style=" stroke:none;fill-rule:nonzero;fill:rgb(0%,0%,0%);fill-opacity:1;" d="M 38.40625 62.488281 C 38.40625 61.386719 37.511719 60.496094 36.414062 60.496094 C 35.3125 60.496094 34.417969 61.386719 34.417969 62.488281 C 34.417969 63.589844 35.3125 64.480469 36.414062 64.480469 C 37.511719 64.480469 38.40625 63.589844 38.40625 62.488281 Z M 38.40625 62.488281 "/>
<path style=" stroke:none;fill-rule:nonzero;fill:rgb(0%,0%,0%);fill-opacity:1;" d="M 74.121094 42.644531 C 74.121094 41.546875 73.230469 40.652344 72.128906 40.652344 C 71.027344 40.652344 70.136719 41.546875 70.136719 42.644531 C 70.136719 43.746094 71.027344 44.636719 72.128906 44.636719 C 73.230469 44.636719 74.121094 43.746094 74.121094 42.644531 Z M 74.121094 42.644531 "/>
<path style=" stroke:none;fill-rule:nonzero;fill:rgb(0%,0%,0%);fill-opacity:1;" d="M 74.121094 22.804688 C 74.121094 21.703125 73.230469 20.8125 72.128906 20.8125 C 71.027344 20.8125 70.136719 21.703125 70.136719 22.804688 C 70.136719 23.902344 71.027344 24.796875 72.128906 24.796875 C 73.230469 24.796875 74.121094 23.902344 74.121094 22.804688 Z M 74.121094 22.804688 "/>
<path style=" stroke:none;fill-rule:nonzero;fill:rgb(0%,0%,0%);fill-opacity:1;" d="M 84.042969 12.882812 C 84.042969 11.78125 83.152344 10.890625 82.050781 10.890625 C 80.949219 10.890625 80.058594 11.78125 80.058594 12.882812 C 80.058594 13.984375 80.949219 14.875 82.050781 14.875 C 83.152344 14.875 84.042969 13.984375 84.042969 12.882812 Z M 84.042969 12.882812 "/>
<path style=" stroke:none;fill-rule:nonzero;fill:rgb(0%,0%,0%);fill-opacity:1;" d="M 82.058594 20.820312 C 82.058594 19.71875 81.167969 18.828125 80.066406 18.828125 C 78.964844 18.828125 78.074219 19.71875 78.074219 20.820312 C 78.074219 21.917969 78.964844 22.8125 80.066406 22.8125 C 81.167969 22.8125 82.058594 21.917969 82.058594 20.820312 Z M 82.058594 20.820312 "/>
<path style="fill:none;stroke-width:0.3985;stroke-linecap:butt;stroke-linejoin:miter;stroke:rgb(0%,0%,0%);stroke-opacity:1;stroke-miterlimit:10;" d="M 39.684906 0.00146875 L 39.684906 -19.842281 L 47.622406 -9.920406 M 39.684906 -19.842281 L 47.622406 -27.779781 M 39.684906 -19.842281 L 39.684906 -33.732906 M 39.684906 -19.842281 L 31.747406 -27.779781 M 39.684906 -19.842281 L 31.747406 -11.904781 " transform="matrix(1,0,0,-1,32.444,42.646)"/>
<path style=" stroke:none;fill-rule:nonzero;fill:rgb(0%,0%,0%);fill-opacity:1;" d="M 74.121094 62.488281 C 74.121094 61.386719 73.230469 60.496094 72.128906 60.496094 C 71.027344 60.496094 70.136719 61.386719 70.136719 62.488281 C 70.136719 63.589844 71.027344 64.480469 72.128906 64.480469 C 73.230469 64.480469 74.121094 63.589844 74.121094 62.488281 Z M 74.121094 62.488281 "/>
<path style=" stroke:none;fill-rule:nonzero;fill:rgb(0%,0%,0%);fill-opacity:1;" d="M 82.058594 52.566406 C 82.058594 51.46875 81.167969 50.574219 80.066406 50.574219 C 78.964844 50.574219 78.074219 51.46875 78.074219 52.566406 C 78.074219 53.667969 78.964844 54.558594 80.066406 54.558594 C 81.167969 54.558594 82.058594 53.667969 82.058594 52.566406 Z M 82.058594 52.566406 "/>
<path style=" stroke:none;fill-rule:nonzero;fill:rgb(0%,0%,0%);fill-opacity:1;" d="M 82.058594 70.425781 C 82.058594 69.324219 81.167969 68.433594 80.066406 68.433594 C 78.964844 68.433594 78.074219 69.324219 78.074219 70.425781 C 78.074219 71.527344 78.964844 72.417969 80.066406 72.417969 C 81.167969 72.417969 82.058594 71.527344 82.058594 70.425781 Z M 82.058594 70.425781 "/>
<path style=" stroke:none;fill-rule:nonzero;fill:rgb(0%,0%,0%);fill-opacity:1;" d="M 74.121094 76.378906 C 74.121094 75.277344 73.230469 74.386719 72.128906 74.386719 C 71.027344 74.386719 70.136719 75.277344 70.136719 76.378906 C 70.136719 77.480469 71.027344 78.371094 72.128906 78.371094 C 73.230469 78.371094 74.121094 77.480469 74.121094 76.378906 Z M 74.121094 76.378906 "/>
<path style=" stroke:none;fill-rule:nonzero;fill:rgb(0%,0%,0%);fill-opacity:1;" d="M 66.183594 70.425781 C 66.183594 69.324219 65.292969 68.433594 64.191406 68.433594 C 63.09375 68.433594 62.199219 69.324219 62.199219 70.425781 C 62.199219 71.527344 63.09375 72.417969 64.191406 72.417969 C 65.292969 72.417969 66.183594 71.527344 66.183594 70.425781 Z M 66.183594 70.425781 "/>
<path style=" stroke:none;fill-rule:nonzero;fill:rgb(0%,0%,0%);fill-opacity:1;" d="M 66.183594 54.550781 C 66.183594 53.453125 65.292969 52.558594 64.191406 52.558594 C 63.09375 52.558594 62.199219 53.453125 62.199219 54.550781 C 62.199219 55.652344 63.09375 56.542969 64.191406 56.542969 C 65.292969 56.542969 66.183594 55.652344 66.183594 54.550781 Z M 66.183594 54.550781 "/>
<path style="fill:none;stroke-width:0.3985;stroke-linecap:butt;stroke-linejoin:miter;stroke:rgb(0%,0%,0%);stroke-opacity:1;stroke-miterlimit:10;" d="M 39.684906 0.00146875 L 59.528656 19.841313 L 59.528656 29.763188 L 69.450531 39.685063 M 59.528656 19.841313 L 59.528656 9.919438 L 69.450531 0.00146875 " transform="matrix(1,0,0,-1,32.444,42.646)"/>
<path style=" stroke:none;fill-rule:nonzero;fill:rgb(0%,0%,0%);fill-opacity:1;" d="M 93.964844 22.804688 C 93.964844 21.703125 93.074219 20.8125 91.972656 20.8125 C 90.871094 20.8125 89.980469 21.703125 89.980469 22.804688 C 89.980469 23.902344 90.871094 24.796875 91.972656 24.796875 C 93.074219 24.796875 93.964844 23.902344 93.964844 22.804688 Z M 93.964844 22.804688 "/>
<path style=" stroke:none;fill-rule:nonzero;fill:rgb(0%,0%,0%);fill-opacity:1;" d="M 93.964844 12.882812 C 93.964844 11.78125 93.074219 10.890625 91.972656 10.890625 C 90.871094 10.890625 89.980469 11.78125 89.980469 12.882812 C 89.980469 13.984375 90.871094 14.875 91.972656 14.875 C 93.074219 14.875 93.964844 13.984375 93.964844 12.882812 Z M 93.964844 12.882812 "/>
<path style=" stroke:none;fill-rule:nonzero;fill:rgb(0%,0%,0%);fill-opacity:1;" d="M 103.886719 2.960938 C 103.886719 1.859375 102.992188 0.96875 101.894531 0.96875 C 100.792969 0.96875 99.902344 1.859375 99.902344 2.960938 C 99.902344 4.0625 100.792969 4.953125 101.894531 4.953125 C 102.992188 4.953125 103.886719 4.0625 103.886719 2.960938 Z M 103.886719 2.960938 "/>
<path style=" stroke:none;fill-rule:nonzero;fill:rgb(0%,0%,0%);fill-opacity:1;" d="M 93.964844 32.726562 C 93.964844 31.625 93.074219 30.730469 91.972656 30.730469 C 90.871094 30.730469 89.980469 31.625 89.980469 32.726562 C 89.980469 33.824219 90.871094 34.71875 91.972656 34.71875 C 93.074219 34.71875 93.964844 33.824219 93.964844 32.726562 Z M 93.964844 32.726562 "/>
<path style=" stroke:none;fill-rule:nonzero;fill:rgb(0%,0%,0%);fill-opacity:1;" d="M 103.886719 42.644531 C 103.886719 41.546875 102.992188 40.652344 101.894531 40.652344 C 100.792969 40.652344 99.902344 41.546875 99.902344 42.644531 C 99.902344 43.746094 100.792969 44.636719 101.894531 44.636719 C 102.992188 44.636719 103.886719 43.746094 103.886719 42.644531 Z M 103.886719 42.644531 "/>
</g>
</svg>
