<?xml version="1.0" encoding="UTF-8"?>
<svg xmlns="http://www.w3.org/2000/svg" xmlns:xlink="http://www.w3.org/1999/xlink" width="138pt" height="70pt" viewBox="0 0 138 70" version="1.1">
<g id="surface1">
<path style="fill:none;stroke-width:1.19553;stroke-linecap:butt;stroke-linejoin:miter;stroke:rgb(0%,0%,0%);stroke-opacity:1;stroke-miterlimit:10;" d="M -68.031031 -0.00146875 L -68.031031 68.033688 L 68.031469 68.033688 L 68.031469 -0.00146875 Z M -68.031031 -0.00146875 " transform="matrix(1,0,0,-1,69.324,69.229)"/>
<path style="fill:none;stroke-width:1.19553;stroke-linecap:butt;stroke-linejoin:miter;stroke:rgb(0%,0%,0%);stroke-opacity:1;stroke-miterlimit:10;" d="M -68.031031 40.818844 L -61.23025 40.818844 M -52.159937 40.818844 L -34.015406 40.818844 M -34.015406 36.283688 L -22.679469 36.283688 M -13.60525 36.283688 L 6.804906 36.283688 M 15.875219 36.283688 L 22.676 36.283688 M 22.676 18.143063 L 34.015844 18.143063 M 43.086156 18.143063 L 68.031469 18.143063 " transform="matrix(1,0,0,-1,69.324,69.229)"/>
<path style="fill:none;stroke-width:1.19553;stroke-linecap:butt;stroke-linejoin:miter;stroke:rgb(0%,0%,0%);stroke-opacity:1;stroke-miterlimit:10;" d="M -34.015406 -0.00146875 L -34.015406 18.143063 M -34.015406 27.213375 L -34.015406 47.623531 M -34.015406 56.693844 L -34.015406 68.033688 " transform="matrix(1,0,0,-1,69.324,69.229)"/>
<path style="fill:none;stroke-width:1.19553;stroke-linecap:butt;stroke-linejoin:miter;stroke:rgb(0%,0%,0%);stroke-opacity:1;stroke-miterlimit:10;" d="M 0.00021875 -0.00146875 L 0.00021875 13.607906 M 0.00021875 22.678219 L 0.00021875 36.283688 " transform="matrix(1,0,0,-1,69.324,69.229)"/>
<path style="fill:none;stroke-width:1.19553;stroke-linecap:butt;stroke-linejoin:miter;stroke:rgb(0%,0%,0%);stroke-opacity:1;stroke-miterlimit:10;" d="M 22.676 -0.00146875 L 22.676 4.533688 M 22.676 13.607906 L 22.676 22.678219 M 22.676 31.748531 L 22.676 47.623531 M 22.676 56.693844 L 22.676 68.033688 " transform="matrix(1,0,0,-1,69.324,69.229)"/>
</g>
</svg>
