<?xml version="1.0" encoding="UTF-8"?>
<svg xmlns="http://www.w3.org/2000/svg" xmlns:xlink="http://www.w3.org/1999/xlink" width="61pt" height="62pt" viewBox="0 0 61 62" version="1.1">
<g id="surface1">
<path style="fill:none;stroke-width:0.3985;stroke-linecap:butt;stroke-linejoin:miter;stroke:rgb(0%,0%,0%);stroke-opacity:1;stroke-miterlimit:10;" d="M 28.347969 -0.000625 L 0.0003125 28.347031 L -28.347344 -0.000625 Z M 28.347969 -0.000625 " transform="matrix(1,0,0,-1,30.57,31.14)"/>
<path style=" stroke:none;fill-rule:nonzero;fill:rgb(0%,0%,0%);fill-opacity:1;" d="M 60.910156 31.140625 C 60.910156 30.039062 60.015625 29.148438 58.917969 29.148438 C 57.816406 29.148438 56.925781 30.039062 56.925781 31.140625 C 56.925781 32.242188 57.816406 33.132812 58.917969 33.132812 C 60.015625 33.132812 60.910156 32.242188 60.910156 31.140625 Z M 60.910156 31.140625 "/>
<path style="fill:none;stroke-width:0.3985;stroke-linecap:butt;stroke-linejoin:miter;stroke:rgb(0%,0%,0%);stroke-opacity:1;stroke-miterlimit:10;" d="M 0.0003125 28.347031 L -28.347344 -0.000625 L 0.0003125 -28.348281 Z M 0.0003125 28.347031 " transform="matrix(1,0,0,-1,30.57,31.14)"/>
<path style=" stroke:none;fill-rule:nonzero;fill:rgb(0%,0%,0%);fill-opacity:1;" d="M 32.5625 2.792969 C 32.5625 1.691406 31.671875 0.800781 30.570312 0.800781 C 29.46875 0.800781 28.578125 1.691406 28.578125 2.792969 C 28.578125 3.894531 29.46875 4.785156 30.570312 4.785156 C 31.671875 4.785156 32.5625 3.894531 32.5625 2.792969 Z M 32.5625 2.792969 "/>
<path style="fill:none;stroke-width:0.3985;stroke-linecap:butt;stroke-linejoin:miter;stroke:rgb(0%,0%,0%);stroke-opacity:1;stroke-miterlimit:10;" d="M -28.347344 -0.000625 L 0.0003125 -28.348281 L 28.347969 -0.000625 Z M -28.347344 -0.000625 " transform="matrix(1,0,0,-1,30.57,31.14)"/>
<path style=" stroke:none;fill-rule:nonzero;fill:rgb(0%,0%,0%);fill-opacity:1;" d="M 4.214844 31.140625 C 4.214844 30.039062 3.324219 29.148438 2.222656 29.148438 C 1.121094 29.148438 0.230469 30.039062 0.230469 31.140625 C 0.230469 32.242188 1.121094 33.132812 2.222656 33.132812 C 3.324219 33.132812 4.214844 32.242188 4.214844 31.140625 Z M 4.214844 31.140625 "/>
<path style="fill:none;stroke-width:0.3985;stroke-linecap:butt;stroke-linejoin:miter;stroke:rgb(0%,0%,0%);stroke-opacity:1;stroke-miterlimit:10;" d="M 0.0003125 -28.348281 L 28.347969 -0.000625 L 0.0003125 28.347031 Z M 0.0003125 -28.348281 " transform="matrix(1,0,0,-1,30.57,31.14)"/>
<path style=" stroke:none;fill-rule:nonzero;fill:rgb(0%,0%,0%);fill-opacity:1;" d="M 32.5625 59.488281 C 32.5625 58.386719 31.671875 57.496094 30.570312 57.496094 C 29.46875 57.496094 28.578125 58.386719 28.578125 59.488281 C 28.578125 60.585938 29.46875 61.480469 30.570312 61.480469 C 31.671875 61.480469 32.5625 60.585938 32.5625 59.488281 Z M 32.5625 59.488281 "/>
<path style="fill:none;stroke-width:0.3985;stroke-linecap:butt;stroke-linejoin:miter;stroke:rgb(0%,0%,0%);stroke-opacity:1;stroke-miterlimit:10;" d="M 28.347969 -0.000625 L 0.0003125 28.347031 L -28.347344 -0.000625 Z M 28.347969 -0.000625 " transform="matrix(1,0,0,-1,30.57,31.14)"/>
<path style=" stroke:none;fill-rule:nonzero;fill:rgb(0%,0%,0%);fill-opacity:1;" d="M 60.910156 31.140625 C 60.910156 30.039062 60.015625 29.148438 58.917969 29.148438 C 57.816406 29.148438 56.925781 30.039062 56.925781 31.140625 C 56.925781 32.242188 57.816406 33.132812 58.917969 33.132812 C 60.015625 33.132812 60.910156 32.242188 60.910156 31.140625 Z M 60.910156 31.140625 "/>
</g>
</svg>
