<?xml version="1.0" encoding="UTF-8"?>
<svg xmlns="http://www.w3.org/2000/svg" xmlns:xlink="http://www.w3.org/1999/xlink" width="208pt" height="206pt" viewBox="0 0 208 206" version="1.1">
<g id="surface1">
<path style="fill:none;stroke-width:0.79701;stroke-linecap:butt;stroke-linejoin:miter;stroke:rgb(0%,0%,0%);stroke-opacity:1;stroke-miterlimit:10;" d="M 2.836344 28.348594 C 2.836344 28.348594 -7.47225 3.934531 0.00040625 0.0009375 C 7.473062 -3.932656 40.961344 -0.393594 56.691812 0.0009375 C 72.426187 0.391562 101.586344 2.832969 113.387125 2.832969 C 125.187906 2.832969 133.867594 0.391562 141.734781 0.0009375 C 149.601969 -0.393594 162.21525 0.0009375 170.082437 0.0009375 C 177.945719 0.0009375 194.4965 -3.932656 198.426187 0.0009375 C 202.359781 3.934531 198.035562 14.582969 198.426187 28.348594 C 198.820719 42.114219 201.262125 99.211875 201.262125 99.211875 M 28.348062 28.348594 C 28.348062 28.348594 6.766031 12.614219 2.836344 28.348594 C -1.09725 44.079062 0.00040625 141.735312 0.00040625 141.735312 M 56.691812 141.735312 C 56.691812 141.735312 32.281656 145.668906 28.348062 141.735312 C 24.414469 137.801719 28.348062 129.118125 28.348062 113.387656 C 28.348062 97.653281 28.348062 42.114219 28.348062 28.348594 C 28.348062 14.582969 20.480875 16.141562 28.348062 14.172812 C 36.211344 12.207969 77.176187 11.223594 85.039469 14.172812 C 92.906656 17.122031 85.039469 35.434531 85.039469 35.434531 M 141.734781 0.0009375 C 141.734781 0.0009375 137.801187 24.415 141.734781 28.348594 C 145.668375 32.278281 166.148844 32.278281 170.082437 28.348594 C 174.012125 24.415 170.082437 0.0009375 170.082437 0.0009375 M 170.082437 28.348594 C 170.082437 28.348594 170.082437 75.207969 170.082437 85.04 C 170.082437 94.872031 172.047281 97.247031 170.082437 99.211875 C 168.113687 101.180625 155.906656 99.211875 155.906656 99.211875 M 141.734781 28.348594 C 141.734781 28.348594 117.320719 27.364219 113.387125 28.348594 C 109.453531 29.329062 113.387125 33.465781 113.387125 35.434531 C 113.387125 37.399375 113.387125 35.637656 113.387125 42.520469 C 113.387125 49.403281 121.254312 79.141562 113.387125 85.04 C 105.519937 90.938437 64.559 92.907187 56.691812 85.04 C 48.828531 77.172812 52.762125 35.231406 56.691812 28.348594 C 60.625406 21.465781 77.176187 34.450156 85.039469 35.434531 C 92.906656 36.415 113.387125 35.434531 113.387125 35.434531 M 113.387125 42.520469 C 113.387125 42.520469 137.801187 36.622031 141.734781 42.520469 C 145.668375 48.418906 141.734781 75.207969 141.734781 85.04 C 141.734781 94.872031 145.668375 109.454062 141.734781 113.387656 C 137.801187 117.32125 121.254312 113.9775 113.387125 113.387656 C 105.519937 112.797812 92.906656 109.13375 85.039469 109.13375 C 77.176187 109.13375 62.594156 112.797812 56.691812 113.387656 C 50.793375 113.9775 44.484781 117.32125 42.519937 113.387656 C 40.555094 109.454062 40.555094 88.973594 42.519937 85.04 C 44.484781 81.106406 56.691812 85.04 56.691812 85.04 M 141.734781 85.04 C 141.734781 85.04 153.941812 83.075156 155.906656 85.04 C 157.875406 87.00875 155.906656 94.493125 155.906656 99.211875 C 155.906656 103.934531 155.906656 113.157187 155.906656 119.055625 C 155.906656 124.957969 161.805094 138.586875 155.906656 141.735312 C 150.008219 144.879844 119.285562 145.668906 113.387125 141.735312 C 107.488687 137.801719 113.387125 113.387656 113.387125 113.387656 M 170.082437 85.04 C 170.082437 85.04 197.328531 91.348594 201.262125 99.211875 C 205.195719 107.079062 204.719156 138.981406 198.426187 141.735312 C 192.133219 144.485312 155.906656 119.055625 155.906656 119.055625 M 198.426187 141.735312 C 198.426187 141.735312 153.531656 176.387656 141.734781 184.254844 C 129.934 192.122031 129.117594 196.461875 113.387125 198.426719 C 97.656656 200.395469 44.078531 206.293906 28.348062 198.426719 C 12.613687 190.563437 0.00040625 153.532187 0.00040625 141.735312 C 0.00040625 129.934531 28.348062 113.387656 28.348062 113.387656 M 56.691812 113.387656 C 56.691812 113.387656 57.480875 135.832969 56.691812 141.735312 C 55.906656 147.63375 51.023844 151.973594 51.023844 155.907187 C 51.023844 159.840781 51.973062 166.149375 56.691812 170.079062 C 61.414469 174.012656 77.176187 188.188437 85.039469 184.254844 C 92.906656 180.32125 113.387125 141.735312 113.387125 141.735312 M 28.348062 198.426719 C 28.348062 198.426719 85.039469 184.254844 85.039469 184.254844 " transform="matrix(1,0,0,-1,3.566,203.29)"/>
</g>
</svg>
