<?xml version="1.0" encoding="UTF-8"?>
<svg xmlns="http://www.w3.org/2000/svg" xmlns:xlink="http://www.w3.org/1999/xlink" width="45pt" height="45pt" viewBox="0 0 45 45" version="1.1">
<g id="surface1">
<path style="fill:none;stroke-width:0.3985;stroke-linecap:butt;stroke-linejoin:miter;stroke:rgb(0%,0%,0%);stroke-opacity:1;stroke-miterlimit:10;" d="M 8.019063 8.015781 L 20.0425 20.043125 L -20.043437 20.043125 M 8.019063 8.015781 L -8.016094 8.015781 " transform="matrix(1,0,0,-1,22.27,22.84)"/>
<path style=" stroke:none;fill-rule:nonzero;fill:rgb(0%,0%,0%);fill-opacity:1;" d="M 32.28125 14.824219 C 32.28125 13.722656 31.386719 12.828125 30.289062 12.828125 C 29.1875 12.828125 28.296875 13.722656 28.296875 14.824219 C 28.296875 15.921875 29.1875 16.816406 30.289062 16.816406 C 31.386719 16.816406 32.28125 15.921875 32.28125 14.824219 Z M 32.28125 14.824219 "/>
<path style=" stroke:none;fill-rule:nonzero;fill:rgb(0%,0%,0%);fill-opacity:1;" d="M 44.308594 2.796875 C 44.308594 1.695312 43.414062 0.804688 42.3125 0.804688 C 41.214844 0.804688 40.320312 1.695312 40.320312 2.796875 C 40.320312 3.894531 41.214844 4.789062 42.3125 4.789062 C 43.414062 4.789062 44.308594 3.894531 44.308594 2.796875 Z M 44.308594 2.796875 "/>
<path style="fill:none;stroke-width:0.3985;stroke-linecap:butt;stroke-linejoin:miter;stroke:rgb(0%,0%,0%);stroke-opacity:1;stroke-miterlimit:10;" d="M -8.016094 8.015781 L -20.043437 20.043125 L -20.043437 -20.042813 M -8.016094 8.015781 L -8.016094 -8.019375 " transform="matrix(1,0,0,-1,22.27,22.84)"/>
<path style=" stroke:none;fill-rule:nonzero;fill:rgb(0%,0%,0%);fill-opacity:1;" d="M 16.246094 14.824219 C 16.246094 13.722656 15.351562 12.828125 14.253906 12.828125 C 13.152344 12.828125 12.261719 13.722656 12.261719 14.824219 C 12.261719 15.921875 13.152344 16.816406 14.253906 16.816406 C 15.351562 16.816406 16.246094 15.921875 16.246094 14.824219 Z M 16.246094 14.824219 "/>
<path style=" stroke:none;fill-rule:nonzero;fill:rgb(0%,0%,0%);fill-opacity:1;" d="M 4.21875 2.796875 C 4.21875 1.695312 3.328125 0.804688 2.226562 0.804688 C 1.125 0.804688 0.234375 1.695312 0.234375 2.796875 C 0.234375 3.894531 1.125 4.789062 2.226562 4.789062 C 3.328125 4.789062 4.21875 3.894531 4.21875 2.796875 Z M 4.21875 2.796875 "/>
<path style="fill:none;stroke-width:0.3985;stroke-linecap:butt;stroke-linejoin:miter;stroke:rgb(0%,0%,0%);stroke-opacity:1;stroke-miterlimit:10;" d="M -8.016094 -8.019375 L -20.043437 -20.042813 L 20.0425 -20.042813 M -8.016094 -8.019375 L 8.019063 -8.019375 " transform="matrix(1,0,0,-1,22.27,22.84)"/>
<path style=" stroke:none;fill-rule:nonzero;fill:rgb(0%,0%,0%);fill-opacity:1;" d="M 16.246094 30.859375 C 16.246094 29.757812 15.351562 28.863281 14.253906 28.863281 C 13.152344 28.863281 12.261719 29.757812 12.261719 30.859375 C 12.261719 31.957031 13.152344 32.851562 14.253906 32.851562 C 15.351562 32.851562 16.246094 31.957031 16.246094 30.859375 Z M 16.246094 30.859375 "/>
<path style=" stroke:none;fill-rule:nonzero;fill:rgb(0%,0%,0%);fill-opacity:1;" d="M 4.21875 42.882812 C 4.21875 41.785156 3.328125 40.890625 2.226562 40.890625 C 1.125 40.890625 0.234375 41.785156 0.234375 42.882812 C 0.234375 43.984375 1.125 44.875 2.226562 44.875 C 3.328125 44.875 4.21875 43.984375 4.21875 42.882812 Z M 4.21875 42.882812 "/>
<path style="fill:none;stroke-width:0.3985;stroke-linecap:butt;stroke-linejoin:miter;stroke:rgb(0%,0%,0%);stroke-opacity:1;stroke-miterlimit:10;" d="M 8.019063 -8.019375 L 20.0425 -20.042813 L 20.0425 20.043125 M 8.019063 -8.019375 L 8.019063 8.015781 " transform="matrix(1,0,0,-1,22.27,22.84)"/>
<path style=" stroke:none;fill-rule:nonzero;fill:rgb(0%,0%,0%);fill-opacity:1;" d="M 32.28125 30.859375 C 32.28125 29.757812 31.386719 28.863281 30.289062 28.863281 C 29.1875 28.863281 28.296875 29.757812 28.296875 30.859375 C 28.296875 31.957031 29.1875 32.851562 30.289062 32.851562 C 31.386719 32.851562 32.28125 31.957031 32.28125 30.859375 Z M 32.28125 30.859375 "/>
<path style=" stroke:none;fill-rule:nonzero;fill:rgb(0%,0%,0%);fill-opacity:1;" d="M 44.308594 42.882812 C 44.308594 41.785156 43.414062 40.890625 42.3125 40.890625 C 41.214844 40.890625 40.320312 41.785156 40.320312 42.882812 C 40.320312 43.984375 41.214844 44.875 42.3125 44.875 C 43.414062 44.875 44.308594 43.984375 44.308594 42.882812 Z M 44.308594 42.882812 "/>
</g>
</svg>
