<?xml version="1.0" encoding="UTF-8"?>
<svg xmlns="http://www.w3.org/2000/svg" xmlns:xlink="http://www.w3.org/1999/xlink" width="62pt" height="34pt" viewBox="0 0 62 34" version="1.1">
<g id="surface1">
<path style="fill:none;stroke-width:0.3985;stroke-linecap:butt;stroke-linejoin:miter;stroke:rgb(0%,0%,0%);stroke-opacity:1;stroke-miterlimit:10;" d="M 0.00134375 -0.00159375 L -28.346312 28.346063 M 0.00134375 -0.00159375 L 14.173219 14.174188 L 28.345094 28.346063 " transform="matrix(1,0,0,-1,31.026,31.307)"/>
<path style=" stroke:none;fill-rule:nonzero;fill:rgb(0%,0%,0%);fill-opacity:1;" d="M 33.019531 31.308594 C 33.019531 30.207031 32.125 29.3125 31.027344 29.3125 C 29.925781 29.3125 29.035156 30.207031 29.035156 31.308594 C 29.035156 32.40625 29.925781 33.300781 31.027344 33.300781 C 32.125 33.300781 33.019531 32.40625 33.019531 31.308594 Z M 33.019531 31.308594 "/>
<path style=" stroke:none;fill-rule:nonzero;fill:rgb(0%,0%,0%);fill-opacity:1;" d="M 4.671875 2.960938 C 4.671875 1.859375 3.78125 0.96875 2.679688 0.96875 C 1.578125 0.96875 0.6875 1.859375 0.6875 2.960938 C 0.6875 4.0625 1.578125 4.953125 2.679688 4.953125 C 3.78125 4.953125 4.671875 4.0625 4.671875 2.960938 Z M 4.671875 2.960938 "/>
<path style=" stroke:none;fill-rule:nonzero;fill:rgb(0%,0%,0%);fill-opacity:1;" d="M 47.191406 17.132812 C 47.191406 16.03125 46.300781 15.140625 45.199219 15.140625 C 44.097656 15.140625 43.207031 16.03125 43.207031 17.132812 C 43.207031 18.234375 44.097656 19.125 45.199219 19.125 C 46.300781 19.125 47.191406 18.234375 47.191406 17.132812 Z M 47.191406 17.132812 "/>
<path style=" stroke:none;fill-rule:nonzero;fill:rgb(0%,0%,0%);fill-opacity:1;" d="M 61.367188 2.960938 C 61.367188 1.859375 60.472656 0.96875 59.371094 0.96875 C 58.273438 0.96875 57.378906 1.859375 57.378906 2.960938 C 57.378906 4.0625 58.273438 4.953125 59.371094 4.953125 C 60.472656 4.953125 61.367188 4.0625 61.367188 2.960938 Z M 61.367188 2.960938 "/>
</g>
</svg>
