<?xml version="1.0" encoding="UTF-8"?>
<svg xmlns="http://www.w3.org/2000/svg" xmlns:xlink="http://www.w3.org/1999/xlink" width="62pt" height="34pt" viewBox="0 0 62 34" version="1.1">
<g id="surface1">
<path style="fill:none;stroke-width:0.3985;stroke-linecap:butt;stroke-linejoin:miter;stroke:rgb(0%,0%,0%);stroke-opacity:1;stroke-miterlimit:10;" d="M -28.346312 -0.00159375 L -14.174437 28.346063 L 0.00134375 -0.00159375 L 14.173219 28.346063 L 28.345094 -0.00159375 L -14.174437 28.346063 M -28.346312 -0.00159375 L 14.173219 28.346063 " transform="matrix(1,0,0,-1,31.026,31.307)"/>
<path style=" stroke:none;fill-rule:nonzero;fill:rgb(0%,0%,0%);fill-opacity:1;" d="M 4.671875 31.308594 C 4.671875 30.207031 3.78125 29.3125 2.679688 29.3125 C 1.578125 29.3125 0.6875 30.207031 0.6875 31.308594 C 0.6875 32.40625 1.578125 33.300781 2.679688 33.300781 C 3.78125 33.300781 4.671875 32.40625 4.671875 31.308594 Z M 4.671875 31.308594 "/>
<path style=" stroke:none;fill-rule:nonzero;fill:rgb(0%,0%,0%);fill-opacity:1;" d="M 33.019531 31.308594 C 33.019531 30.207031 32.125 29.3125 31.027344 29.3125 C 29.925781 29.3125 29.035156 30.207031 29.035156 31.308594 C 29.035156 32.40625 29.925781 33.300781 31.027344 33.300781 C 32.125 33.300781 33.019531 32.40625 33.019531 31.308594 Z M 33.019531 31.308594 "/>
<path style=" stroke:none;fill-rule:nonzero;fill:rgb(0%,0%,0%);fill-opacity:1;" d="M 61.367188 31.308594 C 61.367188 30.207031 60.472656 29.3125 59.371094 29.3125 C 58.273438 29.3125 57.378906 30.207031 57.378906 31.308594 C 57.378906 32.40625 58.273438 33.300781 59.371094 33.300781 C 60.472656 33.300781 61.367188 32.40625 61.367188 31.308594 Z M 61.367188 31.308594 "/>
<path style=" stroke:none;fill-rule:nonzero;fill:rgb(0%,0%,0%);fill-opacity:1;" d="M 18.84375 2.960938 C 18.84375 1.859375 17.953125 0.96875 16.851562 0.96875 C 15.753906 0.96875 14.859375 1.859375 14.859375 2.960938 C 14.859375 4.0625 15.753906 4.953125 16.851562 4.953125 C 17.953125 4.953125 18.84375 4.0625 18.84375 2.960938 Z M 18.84375 2.960938 "/>
<path style=" stroke:none;fill-rule:nonzero;fill:rgb(0%,0%,0%);fill-opacity:1;" d="M 47.191406 2.960938 C 47.191406 1.859375 46.300781 0.96875 45.199219 0.96875 C 44.097656 0.96875 43.207031 1.859375 43.207031 2.960938 C 43.207031 4.0625 44.097656 4.953125 45.199219 4.953125 C 46.300781 4.953125 47.191406 4.0625 47.191406 2.960938 Z M 47.191406 2.960938 "/>
</g>
</svg>
