<?xml version="1.0" encoding="UTF-8"?>
<svg xmlns="http://www.w3.org/2000/svg" xmlns:xlink="http://www.w3.org/1999/xlink" width="107pt" height="56pt" viewBox="0 0 107 56" version="1.1">
<g id="surface1">
<path style="fill:none;stroke-width:0.3985;stroke-linecap:butt;stroke-linejoin:miter;stroke:rgb(0%,0%,0%);stroke-opacity:1;stroke-miterlimit:10;" d="M -25.511719 -0.0003125 L 25.511719 -0.0003125 L 25.511719 51.023125 L -25.511719 51.023125 L -25.511719 -0.0003125 L 25.511719 51.023125 M -25.511719 51.023125 L 25.511719 -0.0003125 " transform="matrix(1,0,0,-1,53.25,53.82)"/>
<path style=" stroke:none;fill-rule:nonzero;fill:rgb(0%,0%,0%);fill-opacity:1;" d="M 29.730469 53.820312 C 29.730469 52.71875 28.839844 51.828125 27.738281 51.828125 C 26.636719 51.828125 25.746094 52.71875 25.746094 53.820312 C 25.746094 54.921875 26.636719 55.8125 27.738281 55.8125 C 28.839844 55.8125 29.730469 54.921875 29.730469 53.820312 Z M 29.730469 53.820312 "/>
<path style=" stroke:none;fill-rule:nonzero;fill:rgb(0%,0%,0%);fill-opacity:1;" d="M 80.753906 53.820312 C 80.753906 52.71875 79.863281 51.828125 78.761719 51.828125 C 77.660156 51.828125 76.769531 52.71875 76.769531 53.820312 C 76.769531 54.921875 77.660156 55.8125 78.761719 55.8125 C 79.863281 55.8125 80.753906 54.921875 80.753906 53.820312 Z M 80.753906 53.820312 "/>
<path style=" stroke:none;fill-rule:nonzero;fill:rgb(0%,0%,0%);fill-opacity:1;" d="M 80.753906 2.796875 C 80.753906 1.695312 79.863281 0.804688 78.761719 0.804688 C 77.660156 0.804688 76.769531 1.695312 76.769531 2.796875 C 76.769531 3.898438 77.660156 4.789062 78.761719 4.789062 C 79.863281 4.789062 80.753906 3.898438 80.753906 2.796875 Z M 80.753906 2.796875 "/>
<path style=" stroke:none;fill-rule:nonzero;fill:rgb(0%,0%,0%);fill-opacity:1;" d="M 29.730469 2.796875 C 29.730469 1.695312 28.839844 0.804688 27.738281 0.804688 C 26.636719 0.804688 25.746094 1.695312 25.746094 2.796875 C 25.746094 3.898438 26.636719 4.789062 27.738281 4.789062 C 28.839844 4.789062 29.730469 3.898438 29.730469 2.796875 Z M 29.730469 2.796875 "/>
<path style=" stroke:none;fill-rule:nonzero;fill:rgb(0%,0%,0%);fill-opacity:1;" d="M 55.242188 28.308594 C 55.242188 27.207031 54.351562 26.316406 53.25 26.316406 C 52.148438 26.316406 51.257812 27.207031 51.257812 28.308594 C 51.257812 29.410156 52.148438 30.300781 53.25 30.300781 C 54.351562 30.300781 55.242188 29.410156 55.242188 28.308594 Z M 55.242188 28.308594 "/>
<path style="fill:none;stroke-width:0.3985;stroke-linecap:butt;stroke-linejoin:miter;stroke:rgb(0%,0%,0%);stroke-opacity:1;stroke-miterlimit:10;" d="M -25.511719 -0.0003125 L -51.023438 25.511406 L -25.511719 51.023125 M 25.511719 51.023125 L 51.023438 25.511406 L 25.511719 -0.0003125 " transform="matrix(1,0,0,-1,53.25,53.82)"/>
<path style=" stroke:none;fill-rule:nonzero;fill:rgb(0%,0%,0%);fill-opacity:1;" d="M 4.21875 28.308594 C 4.21875 27.207031 3.328125 26.316406 2.226562 26.316406 C 1.125 26.316406 0.234375 27.207031 0.234375 28.308594 C 0.234375 29.410156 1.125 30.300781 2.226562 30.300781 C 3.328125 30.300781 4.21875 29.410156 4.21875 28.308594 Z M 4.21875 28.308594 "/>
<path style=" stroke:none;fill-rule:nonzero;fill:rgb(0%,0%,0%);fill-opacity:1;" d="M 106.265625 28.308594 C 106.265625 27.207031 105.375 26.316406 104.273438 26.316406 C 103.171875 26.316406 102.28125 27.207031 102.28125 28.308594 C 102.28125 29.410156 103.171875 30.300781 104.273438 30.300781 C 105.375 30.300781 106.265625 29.410156 106.265625 28.308594 Z M 106.265625 28.308594 "/>
</g>
</svg>
