<?xml version="1.0" encoding="UTF-8"?>
<svg xmlns="http://www.w3.org/2000/svg" xmlns:xlink="http://www.w3.org/1999/xlink" width="68pt" height="56pt" viewBox="0 0 68 56" version="1.1">
<g id="surface1">
<path style="fill:none;stroke-width:0.3985;stroke-linecap:butt;stroke-linejoin:miter;stroke:rgb(0%,0%,0%);stroke-opacity:1;stroke-miterlimit:10;" d="M -28.345781 -25.512375 C -39.400469 -16.895188 -39.400469 -8.617844 -28.345781 -0.00065625 C -39.400469 8.616531 -39.400469 16.897781 -28.345781 25.511062 C -17.291094 16.897781 -17.291094 8.616531 -28.345781 -0.00065625 C -17.291094 -8.617844 -17.291094 -16.895188 -28.345781 -25.512375 " transform="matrix(1,0,0,-1,37.295,28.472)"/>
<path style=" stroke:none;fill-rule:nonzero;fill:rgb(0%,0%,0%);fill-opacity:1;" d="M 10.941406 53.984375 C 10.941406 52.882812 10.046875 51.992188 8.949219 51.992188 C 7.847656 51.992188 6.957031 52.882812 6.957031 53.984375 C 6.957031 55.085938 7.847656 55.976562 8.949219 55.976562 C 10.046875 55.976562 10.941406 55.085938 10.941406 53.984375 Z M 10.941406 53.984375 "/>
<path style=" stroke:none;fill-rule:nonzero;fill:rgb(0%,0%,0%);fill-opacity:1;" d="M 10.941406 28.472656 C 10.941406 27.371094 10.046875 26.480469 8.949219 26.480469 C 7.847656 26.480469 6.957031 27.371094 6.957031 28.472656 C 6.957031 29.574219 7.847656 30.464844 8.949219 30.464844 C 10.046875 30.464844 10.941406 29.574219 10.941406 28.472656 Z M 10.941406 28.472656 "/>
<path style=" stroke:none;fill-rule:nonzero;fill:rgb(0%,0%,0%);fill-opacity:1;" d="M 10.941406 2.960938 C 10.941406 1.859375 10.046875 0.96875 8.949219 0.96875 C 7.847656 0.96875 6.957031 1.859375 6.957031 2.960938 C 6.957031 4.058594 7.847656 4.953125 8.949219 4.953125 C 10.046875 4.953125 10.941406 4.058594 10.941406 2.960938 Z M 10.941406 2.960938 "/>
<path style="fill:none;stroke-width:0.3985;stroke-linecap:butt;stroke-linejoin:miter;stroke:rgb(0%,0%,0%);stroke-opacity:1;stroke-miterlimit:10;" d="M 28.345625 -0.00065625 L -28.345781 25.511062 M -28.345781 -0.00065625 L 28.345625 -0.00065625 L -28.345781 -25.512375 " transform="matrix(1,0,0,-1,37.295,28.472)"/>
<path style=" stroke:none;fill-rule:nonzero;fill:rgb(0%,0%,0%);fill-opacity:1;" d="M 67.632812 28.472656 C 67.632812 27.371094 66.742188 26.480469 65.640625 26.480469 C 64.542969 26.480469 63.648438 27.371094 63.648438 28.472656 C 63.648438 29.574219 64.542969 30.464844 65.640625 30.464844 C 66.742188 30.464844 67.632812 29.574219 67.632812 28.472656 Z M 67.632812 28.472656 "/>
</g>
</svg>
