<?xml version="1.0" encoding="UTF-8"?>
<svg xmlns="http://www.w3.org/2000/svg" xmlns:xlink="http://www.w3.org/1999/xlink" width="56pt" height="82pt" viewBox="0 0 56 82" version="1.1">
<g id="surface1">
<path style="fill:none;stroke-width:0.3985;stroke-linecap:butt;stroke-linejoin:miter;stroke:rgb(0%,0%,0%);stroke-opacity:1;stroke-miterlimit:10;" d="M -25.511313 -0.00109375 L 25.512125 -0.00109375 L 25.512125 51.022344 L -25.511313 51.022344 L -25.511313 -0.00109375 L 25.512125 51.022344 M -25.511313 51.022344 L 25.512125 -0.00109375 " transform="matrix(1,0,0,-1,28.191,79.495)"/>
<path style=" stroke:none;fill-rule:nonzero;fill:rgb(0%,0%,0%);fill-opacity:1;" d="M 4.671875 79.496094 C 4.671875 78.394531 3.78125 77.503906 2.679688 77.503906 C 1.578125 77.503906 0.6875 78.394531 0.6875 79.496094 C 0.6875 80.59375 1.578125 81.488281 2.679688 81.488281 C 3.78125 81.488281 4.671875 80.59375 4.671875 79.496094 Z M 4.671875 79.496094 "/>
<path style=" stroke:none;fill-rule:nonzero;fill:rgb(0%,0%,0%);fill-opacity:1;" d="M 55.695312 79.496094 C 55.695312 78.394531 54.804688 77.503906 53.703125 77.503906 C 52.601562 77.503906 51.710938 78.394531 51.710938 79.496094 C 51.710938 80.59375 52.601562 81.488281 53.703125 81.488281 C 54.804688 81.488281 55.695312 80.59375 55.695312 79.496094 Z M 55.695312 79.496094 "/>
<path style=" stroke:none;fill-rule:nonzero;fill:rgb(0%,0%,0%);fill-opacity:1;" d="M 55.695312 28.472656 C 55.695312 27.371094 54.804688 26.480469 53.703125 26.480469 C 52.601562 26.480469 51.710938 27.371094 51.710938 28.472656 C 51.710938 29.570312 52.601562 30.464844 53.703125 30.464844 C 54.804688 30.464844 55.695312 29.570312 55.695312 28.472656 Z M 55.695312 28.472656 "/>
<path style=" stroke:none;fill-rule:nonzero;fill:rgb(0%,0%,0%);fill-opacity:1;" d="M 4.671875 28.472656 C 4.671875 27.371094 3.78125 26.480469 2.679688 26.480469 C 1.578125 26.480469 0.6875 27.371094 0.6875 28.472656 C 0.6875 29.570312 1.578125 30.464844 2.679688 30.464844 C 3.78125 30.464844 4.671875 29.570312 4.671875 28.472656 Z M 4.671875 28.472656 "/>
<path style=" stroke:none;fill-rule:nonzero;fill:rgb(0%,0%,0%);fill-opacity:1;" d="M 30.183594 53.984375 C 30.183594 52.882812 29.292969 51.992188 28.191406 51.992188 C 27.089844 51.992188 26.199219 52.882812 26.199219 53.984375 C 26.199219 55.082031 27.089844 55.976562 28.191406 55.976562 C 29.292969 55.976562 30.183594 55.082031 30.183594 53.984375 Z M 30.183594 53.984375 "/>
<path style="fill:none;stroke-width:0.3985;stroke-linecap:butt;stroke-linejoin:miter;stroke:rgb(0%,0%,0%);stroke-opacity:1;stroke-miterlimit:10;" d="M -25.511313 51.022344 L 0.00040625 76.534063 L 25.512125 51.022344 " transform="matrix(1,0,0,-1,28.191,79.495)"/>
<path style=" stroke:none;fill-rule:nonzero;fill:rgb(0%,0%,0%);fill-opacity:1;" d="M 30.183594 2.960938 C 30.183594 1.859375 29.292969 0.964844 28.191406 0.964844 C 27.089844 0.964844 26.199219 1.859375 26.199219 2.960938 C 26.199219 4.058594 27.089844 4.953125 28.191406 4.953125 C 29.292969 4.953125 30.183594 4.058594 30.183594 2.960938 Z M 30.183594 2.960938 "/>
</g>
</svg>
