<?xml version="1.0" encoding="UTF-8"?>
<svg xmlns="http://www.w3.org/2000/svg" xmlns:xlink="http://www.w3.org/1999/xlink" width="138pt" height="70pt" viewBox="0 0 138 70" version="1.1">
<g id="surface1">
<path style="fill:none;stroke-width:1.19553;stroke-linecap:butt;stroke-linejoin:miter;stroke:rgb(0%,0%,0%);stroke-opacity:1;stroke-miterlimit:10;" d="M -68.032031 -0.00046875 L -68.032031 68.030781 L 68.034375 68.030781 L 68.034375 -0.00046875 Z M -68.032031 -0.00046875 " transform="matrix(1,0,0,-1,68.95,69.23)"/>
<path style="fill:none;stroke-width:1.19553;stroke-linecap:butt;stroke-linejoin:miter;stroke:rgb(0%,0%,0%);stroke-opacity:1;stroke-miterlimit:10;" d="M -68.032031 40.819844 L -61.227344 40.819844 M -52.157031 40.819844 L -34.016406 40.819844 M -34.016406 36.284688 L -22.676563 36.284688 M -13.60625 36.284688 L 6.803906 36.284688 M 15.874219 36.284688 L 22.678906 36.284688 M 22.678906 18.140156 L 34.014844 18.140156 M 43.089062 18.140156 L 68.034375 18.140156 " transform="matrix(1,0,0,-1,68.95,69.23)"/>
<path style="fill:none;stroke-width:1.19553;stroke-linecap:butt;stroke-linejoin:miter;stroke:rgb(0%,0%,0%);stroke-opacity:1;stroke-miterlimit:10;" d="M -34.016406 -0.00046875 L -34.016406 18.140156 M -34.016406 27.214375 L -34.016406 47.624531 M -34.016406 56.694844 L -34.016406 68.030781 " transform="matrix(1,0,0,-1,68.95,69.23)"/>
<path style="fill:none;stroke-width:1.19553;stroke-linecap:butt;stroke-linejoin:miter;stroke:rgb(0%,0%,0%);stroke-opacity:1;stroke-miterlimit:10;" d="M -0.00078125 -0.00046875 L -0.00078125 13.605 M -0.00078125 22.679219 L -0.00078125 36.284688 " transform="matrix(1,0,0,-1,68.95,69.23)"/>
<path style="fill:none;stroke-width:1.19553;stroke-linecap:butt;stroke-linejoin:miter;stroke:rgb(0%,0%,0%);stroke-opacity:1;stroke-miterlimit:10;" d="M 22.678906 -0.00046875 L 22.678906 4.534688 M 22.678906 13.605 L 22.678906 22.679219 M 22.678906 31.749531 L 22.678906 47.624531 M 22.678906 56.694844 L 22.678906 68.030781 " transform="matrix(1,0,0,-1,68.95,69.23)"/>
</g>
</svg>
