<?xml version="1.0" encoding="UTF-8"?>
<svg xmlns="http://www.w3.org/2000/svg" xmlns:xlink="http://www.w3.org/1999/xlink" width="43pt" height="36pt" viewBox="0 0 43 36" version="1.1">
<g id="surface1">
<path style="fill:none;stroke-width:1.79329;stroke-linecap:butt;stroke-linejoin:miter;stroke:rgb(0%,0%,0%);stroke-opacity:1;stroke-miterlimit:10;" d="M 0.0015625 22.677813 L 19.638281 -11.337812 L -19.639062 -11.337812 L 0.0015625 22.677813 " transform="matrix(1,0,0,-1,21.35,23.67)"/>
<path style=" stroke:none;fill-rule:nonzero;fill:rgb(100%,100%,100%);fill-opacity:1;" d="M 23.742188 0.992188 C 23.742188 -0.328125 22.671875 -1.398438 21.351562 -1.398438 C 20.03125 -1.398438 18.957031 -0.328125 18.957031 0.992188 C 18.957031 2.3125 20.03125 3.382812 21.351562 3.382812 C 22.671875 3.382812 23.742188 2.3125 23.742188 0.992188 Z M 23.742188 0.992188 "/>
<path style=" stroke:none;fill-rule:nonzero;fill:rgb(100%,100%,100%);fill-opacity:1;" d="M 43.378906 35.007812 C 43.378906 33.6875 42.308594 32.617188 40.988281 32.617188 C 39.667969 32.617188 38.597656 33.6875 38.597656 35.007812 C 38.597656 36.328125 39.667969 37.398438 40.988281 37.398438 C 42.308594 37.398438 43.378906 36.328125 43.378906 35.007812 Z M 43.378906 35.007812 "/>
<path style=" stroke:none;fill-rule:nonzero;fill:rgb(100%,100%,100%);fill-opacity:1;" d="M 4.101562 35.007812 C 4.101562 33.6875 3.03125 32.617188 1.710938 32.617188 C 0.390625 32.617188 -0.679688 33.6875 -0.679688 35.007812 C -0.679688 36.328125 0.390625 37.398438 1.710938 37.398438 C 3.03125 37.398438 4.101562 36.328125 4.101562 35.007812 Z M 4.101562 35.007812 "/>
</g>
</svg>
