<?xml version="1.0" encoding="UTF-8"?>
<svg xmlns="http://www.w3.org/2000/svg" xmlns:xlink="http://www.w3.org/1999/xlink" width="59pt" height="57pt" viewBox="0 0 59 57" version="1.1">
<g id="surface1">
<path style="fill:none;stroke-width:0.3985;stroke-linecap:butt;stroke-linejoin:miter;stroke:rgb(0%,0%,0%);stroke-opacity:1;stroke-miterlimit:10;" d="M 26.958656 8.760125 L 0.001625 28.346063 L -26.959312 8.760125 L -16.662437 -22.931281 L 16.661781 -22.931281 Z M 26.958656 8.760125 " transform="matrix(1,0,0,-1,29.639,31.307)"/>
<path style="fill:none;stroke-width:0.3985;stroke-linecap:butt;stroke-linejoin:miter;stroke:rgb(0%,0%,0%);stroke-opacity:1;stroke-miterlimit:10;" d="M 13.478188 4.381219 L -13.478844 4.381219 L 8.32975 -11.466437 L 0.001625 14.174188 L -8.330406 -11.466437 Z M 13.478188 4.381219 " transform="matrix(1,0,0,-1,29.639,31.307)"/>
<path style="fill:none;stroke-width:0.3985;stroke-linecap:butt;stroke-linejoin:miter;stroke:rgb(0%,0%,0%);stroke-opacity:1;stroke-miterlimit:10;" d="M 13.478188 4.381219 L 26.958656 8.760125 " transform="matrix(1,0,0,-1,29.639,31.307)"/>
<path style=" stroke:none;fill-rule:nonzero;fill:rgb(0%,0%,0%);fill-opacity:1;" d="M 45.113281 26.925781 C 45.113281 25.828125 44.21875 24.933594 43.117188 24.933594 C 42.019531 24.933594 41.125 25.828125 41.125 26.925781 C 41.125 28.027344 42.019531 28.917969 43.117188 28.917969 C 44.21875 28.917969 45.113281 28.027344 45.113281 26.925781 Z M 45.113281 26.925781 "/>
<path style=" stroke:none;fill-rule:nonzero;fill:rgb(0%,0%,0%);fill-opacity:1;" d="M 58.589844 22.546875 C 58.589844 21.445312 57.699219 20.554688 56.597656 20.554688 C 55.5 20.554688 54.605469 21.445312 54.605469 22.546875 C 54.605469 23.648438 55.5 24.539062 56.597656 24.539062 C 57.699219 24.539062 58.589844 23.648438 58.589844 22.546875 Z M 58.589844 22.546875 "/>
<path style="fill:none;stroke-width:0.3985;stroke-linecap:butt;stroke-linejoin:miter;stroke:rgb(0%,0%,0%);stroke-opacity:1;stroke-miterlimit:10;" d="M 0.001625 14.174188 L 0.001625 28.346063 " transform="matrix(1,0,0,-1,29.639,31.307)"/>
<path style=" stroke:none;fill-rule:nonzero;fill:rgb(0%,0%,0%);fill-opacity:1;" d="M 31.632812 17.132812 C 31.632812 16.03125 30.738281 15.140625 29.640625 15.140625 C 28.539062 15.140625 27.644531 16.03125 27.644531 17.132812 C 27.644531 18.234375 28.539062 19.125 29.640625 19.125 C 30.738281 19.125 31.632812 18.234375 31.632812 17.132812 Z M 31.632812 17.132812 "/>
<path style=" stroke:none;fill-rule:nonzero;fill:rgb(0%,0%,0%);fill-opacity:1;" d="M 31.632812 2.960938 C 31.632812 1.859375 30.738281 0.96875 29.640625 0.96875 C 28.539062 0.96875 27.644531 1.859375 27.644531 2.960938 C 27.644531 4.0625 28.539062 4.953125 29.640625 4.953125 C 30.738281 4.953125 31.632812 4.0625 31.632812 2.960938 Z M 31.632812 2.960938 "/>
<path style="fill:none;stroke-width:0.3985;stroke-linecap:butt;stroke-linejoin:miter;stroke:rgb(0%,0%,0%);stroke-opacity:1;stroke-miterlimit:10;" d="M -13.478844 4.381219 L -26.959312 8.760125 " transform="matrix(1,0,0,-1,29.639,31.307)"/>
<path style=" stroke:none;fill-rule:nonzero;fill:rgb(0%,0%,0%);fill-opacity:1;" d="M 18.152344 26.925781 C 18.152344 25.828125 17.257812 24.933594 16.160156 24.933594 C 15.058594 24.933594 14.167969 25.828125 14.167969 26.925781 C 14.167969 28.027344 15.058594 28.917969 16.160156 28.917969 C 17.257812 28.917969 18.152344 28.027344 18.152344 26.925781 Z M 18.152344 26.925781 "/>
<path style=" stroke:none;fill-rule:nonzero;fill:rgb(0%,0%,0%);fill-opacity:1;" d="M 4.671875 22.546875 C 4.671875 21.445312 3.78125 20.554688 2.679688 20.554688 C 1.578125 20.554688 0.6875 21.445312 0.6875 22.546875 C 0.6875 23.648438 1.578125 24.539062 2.679688 24.539062 C 3.78125 24.539062 4.671875 23.648438 4.671875 22.546875 Z M 4.671875 22.546875 "/>
<path style="fill:none;stroke-width:0.3985;stroke-linecap:butt;stroke-linejoin:miter;stroke:rgb(0%,0%,0%);stroke-opacity:1;stroke-miterlimit:10;" d="M -8.330406 -11.466437 L -16.662437 -22.931281 " transform="matrix(1,0,0,-1,29.639,31.307)"/>
<path style=" stroke:none;fill-rule:nonzero;fill:rgb(0%,0%,0%);fill-opacity:1;" d="M 23.300781 42.773438 C 23.300781 41.671875 22.410156 40.78125 21.308594 40.78125 C 20.207031 40.78125 19.316406 41.671875 19.316406 42.773438 C 19.316406 43.875 20.207031 44.765625 21.308594 44.765625 C 22.410156 44.765625 23.300781 43.875 23.300781 42.773438 Z M 23.300781 42.773438 "/>
<path style=" stroke:none;fill-rule:nonzero;fill:rgb(0%,0%,0%);fill-opacity:1;" d="M 14.96875 54.238281 C 14.96875 53.140625 14.078125 52.246094 12.976562 52.246094 C 11.875 52.246094 10.984375 53.140625 10.984375 54.238281 C 10.984375 55.339844 11.875 56.234375 12.976562 56.234375 C 14.078125 56.234375 14.96875 55.339844 14.96875 54.238281 Z M 14.96875 54.238281 "/>
<path style="fill:none;stroke-width:0.3985;stroke-linecap:butt;stroke-linejoin:miter;stroke:rgb(0%,0%,0%);stroke-opacity:1;stroke-miterlimit:10;" d="M 8.32975 -11.466437 L 16.661781 -22.931281 " transform="matrix(1,0,0,-1,29.639,31.307)"/>
<path style=" stroke:none;fill-rule:nonzero;fill:rgb(0%,0%,0%);fill-opacity:1;" d="M 39.960938 42.773438 C 39.960938 41.671875 39.070312 40.78125 37.96875 40.78125 C 36.871094 40.78125 35.976562 41.671875 35.976562 42.773438 C 35.976562 43.875 36.871094 44.765625 37.96875 44.765625 C 39.070312 44.765625 39.960938 43.875 39.960938 42.773438 Z M 39.960938 42.773438 "/>
<path style=" stroke:none;fill-rule:nonzero;fill:rgb(0%,0%,0%);fill-opacity:1;" d="M 48.292969 54.238281 C 48.292969 53.140625 47.402344 52.246094 46.300781 52.246094 C 45.199219 52.246094 44.308594 53.140625 44.308594 54.238281 C 44.308594 55.339844 45.199219 56.234375 46.300781 56.234375 C 47.402344 56.234375 48.292969 55.339844 48.292969 54.238281 Z M 48.292969 54.238281 "/>
</g>
</svg>
