<?xml version="1.0" encoding="UTF-8"?>
<svg xmlns="http://www.w3.org/2000/svg" xmlns:xlink="http://www.w3.org/1999/xlink" width="30pt" height="59pt" viewBox="0 0 30 59" version="1.1">
<g id="surface1">
<path style="fill:none;stroke-width:0.79701;stroke-linecap:butt;stroke-linejoin:miter;stroke:rgb(0%,0%,0%);stroke-opacity:1;stroke-miterlimit:10;" d="M 0.00075 3.983969 L 0.00075 52.706625 C 0.00075 54.90975 1.785906 56.694906 3.985125 56.694906 L 24.360125 56.694906 C 26.56325 56.694906 28.348406 54.90975 28.348406 52.706625 L 28.348406 3.983969 C 28.348406 1.78475 26.56325 -0.00040625 24.360125 -0.00040625 L 3.985125 -0.00040625 C 1.785906 -0.00040625 0.00075 1.78475 0.00075 3.983969 Z M 0.00075 3.983969 " transform="matrix(1,0,0,-1,1.093,57.691)"/>
<path style="fill:none;stroke-width:0.3985;stroke-linecap:butt;stroke-linejoin:miter;stroke:rgb(0%,0%,0%);stroke-opacity:1;stroke-miterlimit:10;" d="M 0.00075 28.34725 L 28.348406 28.34725 " transform="matrix(1,0,0,-1,1.093,57.691)"/>
<path style=" stroke:none;fill-rule:nonzero;fill:rgb(0%,0%,0%);fill-opacity:1;" d="M 10.171875 50.605469 C 10.171875 49.503906 9.28125 48.613281 8.179688 48.613281 C 7.078125 48.613281 6.1875 49.503906 6.1875 50.605469 C 6.1875 51.703125 7.078125 52.597656 8.179688 52.597656 C 9.28125 52.597656 10.171875 51.703125 10.171875 50.605469 Z M 10.171875 50.605469 "/>
<path style=" stroke:none;fill-rule:nonzero;fill:rgb(0%,0%,0%);fill-opacity:1;" d="M 17.257812 43.519531 C 17.257812 42.417969 16.367188 41.523438 15.265625 41.523438 C 14.164062 41.523438 13.273438 42.417969 13.273438 43.519531 C 13.273438 44.617188 14.164062 45.511719 15.265625 45.511719 C 16.367188 45.511719 17.257812 44.617188 17.257812 43.519531 Z M 17.257812 43.519531 "/>
<path style=" stroke:none;fill-rule:nonzero;fill:rgb(0%,0%,0%);fill-opacity:1;" d="M 24.34375 36.429688 C 24.34375 35.332031 23.453125 34.4375 22.351562 34.4375 C 21.253906 34.4375 20.359375 35.332031 20.359375 36.429688 C 20.359375 37.53125 21.253906 38.421875 22.351562 38.421875 C 23.453125 38.421875 24.34375 37.53125 24.34375 36.429688 Z M 24.34375 36.429688 "/>
<path style=" stroke:none;fill-rule:nonzero;fill:rgb(0%,0%,0%);fill-opacity:1;" d="M 17.257812 15.171875 C 17.257812 14.070312 16.367188 13.179688 15.265625 13.179688 C 14.164062 13.179688 13.273438 14.070312 13.273438 15.171875 C 13.273438 16.269531 14.164062 17.164062 15.265625 17.164062 C 16.367188 17.164062 17.257812 16.269531 17.257812 15.171875 Z M 17.257812 15.171875 "/>
</g>
</svg>
