<?xml version="1.0" encoding="UTF-8"?>
<svg xmlns="http://www.w3.org/2000/svg" xmlns:xlink="http://www.w3.org/1999/xlink" width="90pt" height="62pt" viewBox="0 0 90 62" version="1.1">
<g id="surface1">
<path style="fill:none;stroke-width:0.3985;stroke-linecap:butt;stroke-linejoin:miter;stroke:rgb(0%,0%,0%);stroke-opacity:1;stroke-miterlimit:10;" d="M -28.347344 0.00171875 L -28.347344 56.693125 L 28.347969 56.693125 L 28.347969 0.00171875 L -28.347344 56.693125 " transform="matrix(1,0,0,-1,30.57,59.49)"/>
<path style=" stroke:none;fill-rule:nonzero;fill:rgb(0%,0%,0%);fill-opacity:1;" d="M 4.214844 59.488281 C 4.214844 58.390625 3.324219 57.496094 2.222656 57.496094 C 1.121094 57.496094 0.230469 58.390625 0.230469 59.488281 C 0.230469 60.589844 1.121094 61.484375 2.222656 61.484375 C 3.324219 61.484375 4.214844 60.589844 4.214844 59.488281 Z M 4.214844 59.488281 "/>
<path style=" stroke:none;fill-rule:nonzero;fill:rgb(0%,0%,0%);fill-opacity:1;" d="M 4.214844 2.796875 C 4.214844 1.695312 3.324219 0.804688 2.222656 0.804688 C 1.121094 0.804688 0.230469 1.695312 0.230469 2.796875 C 0.230469 3.898438 1.121094 4.789062 2.222656 4.789062 C 3.324219 4.789062 4.214844 3.898438 4.214844 2.796875 Z M 4.214844 2.796875 "/>
<path style=" stroke:none;fill-rule:nonzero;fill:rgb(0%,0%,0%);fill-opacity:1;" d="M 60.910156 2.796875 C 60.910156 1.695312 60.015625 0.804688 58.917969 0.804688 C 57.816406 0.804688 56.925781 1.695312 56.925781 2.796875 C 56.925781 3.898438 57.816406 4.789062 58.917969 4.789062 C 60.015625 4.789062 60.910156 3.898438 60.910156 2.796875 Z M 60.910156 2.796875 "/>
<path style=" stroke:none;fill-rule:nonzero;fill:rgb(0%,0%,0%);fill-opacity:1;" d="M 60.910156 59.488281 C 60.910156 58.390625 60.015625 57.496094 58.917969 57.496094 C 57.816406 57.496094 56.925781 58.390625 56.925781 59.488281 C 56.925781 60.589844 57.816406 61.484375 58.917969 61.484375 C 60.015625 61.484375 60.910156 60.589844 60.910156 59.488281 Z M 60.910156 59.488281 "/>
<path style="fill:none;stroke-width:0.3985;stroke-linecap:butt;stroke-linejoin:miter;stroke:rgb(0%,0%,0%);stroke-opacity:1;stroke-dasharray:2.98883,2.98883;stroke-miterlimit:10;" d="M 28.347969 56.693125 L 56.691719 28.345469 " transform="matrix(1,0,0,-1,30.57,59.49)"/>
<path style=" stroke:none;fill-rule:nonzero;fill:rgb(0%,0%,0%);fill-opacity:1;" d="M 89.257812 31.144531 C 89.257812 30.042969 88.363281 29.152344 87.261719 29.152344 C 86.164062 29.152344 85.269531 30.042969 85.269531 31.144531 C 85.269531 32.242188 86.164062 33.136719 87.261719 33.136719 C 88.363281 33.136719 89.257812 32.242188 89.257812 31.144531 Z M 89.257812 31.144531 "/>
</g>
</svg>
