<?xml version="1.0" encoding="UTF-8"?>
<svg xmlns="http://www.w3.org/2000/svg" xmlns:xlink="http://www.w3.org/1999/xlink" width="33pt" height="34pt" viewBox="0 0 33 34" version="1.1">
<g id="surface1">
<path style="fill:none;stroke-width:0.3985;stroke-linecap:butt;stroke-linejoin:miter;stroke:rgb(0%,0%,0%);stroke-opacity:1;stroke-miterlimit:10;" d="M -14.173438 -14.174531 L 14.174219 14.173125 " transform="matrix(1,0,0,-1,16.4,16.97)"/>
<path style=" stroke:none;fill-rule:nonzero;fill:rgb(0%,0%,0%);fill-opacity:1;" d="M 4.21875 31.144531 C 4.21875 30.042969 3.328125 29.152344 2.226562 29.152344 C 1.125 29.152344 0.234375 30.042969 0.234375 31.144531 C 0.234375 32.242188 1.125 33.136719 2.226562 33.136719 C 3.328125 33.136719 4.21875 32.242188 4.21875 31.144531 Z M 4.21875 31.144531 "/>
<path style=" stroke:none;fill-rule:nonzero;fill:rgb(0%,0%,0%);fill-opacity:1;" d="M 32.566406 2.796875 C 32.566406 1.695312 31.675781 0.804688 30.574219 0.804688 C 29.472656 0.804688 28.582031 1.695312 28.582031 2.796875 C 28.582031 3.898438 29.472656 4.789062 30.574219 4.789062 C 31.675781 4.789062 32.566406 3.898438 32.566406 2.796875 Z M 32.566406 2.796875 "/>
</g>
</svg>
