<?xml version="1.0" encoding="UTF-8"?>
<svg xmlns="http://www.w3.org/2000/svg" xmlns:xlink="http://www.w3.org/1999/xlink" width="154pt" height="54pt" viewBox="0 0 154 54" version="1.1">
<g id="surface1">
<path style="fill:none;stroke-width:0.3985;stroke-linecap:butt;stroke-linejoin:miter;stroke:rgb(0%,0%,0%);stroke-opacity:1;stroke-miterlimit:10;" d="M -51.024844 0.00140625 L -0.00140625 25.513125 L 51.022031 0.00140625 " transform="matrix(1,0,0,-1,77.06,28.31)"/>
<path style=" stroke:none;fill-rule:nonzero;fill:rgb(0%,0%,0%);fill-opacity:1;" d="M 28.027344 28.308594 C 28.027344 27.210938 27.136719 26.316406 26.035156 26.316406 C 24.9375 26.316406 24.042969 27.210938 24.042969 28.308594 C 24.042969 29.410156 24.9375 30.300781 26.035156 30.300781 C 27.136719 30.300781 28.027344 29.410156 28.027344 28.308594 Z M 28.027344 28.308594 "/>
<path style=" stroke:none;fill-rule:nonzero;fill:rgb(0%,0%,0%);fill-opacity:1;" d="M 79.050781 2.796875 C 79.050781 1.699219 78.160156 0.804688 77.058594 0.804688 C 75.960938 0.804688 75.066406 1.699219 75.066406 2.796875 C 75.066406 3.898438 75.960938 4.789062 77.058594 4.789062 C 78.160156 4.789062 79.050781 3.898438 79.050781 2.796875 Z M 79.050781 2.796875 "/>
<path style=" stroke:none;fill-rule:nonzero;fill:rgb(0%,0%,0%);fill-opacity:1;" d="M 130.078125 28.308594 C 130.078125 27.210938 129.183594 26.316406 128.082031 26.316406 C 126.984375 26.316406 126.089844 27.210938 126.089844 28.308594 C 126.089844 29.410156 126.984375 30.300781 128.082031 30.300781 C 129.183594 30.300781 130.078125 29.410156 130.078125 28.308594 Z M 130.078125 28.308594 "/>
<path style="fill:none;stroke-width:0.3985;stroke-linecap:butt;stroke-linejoin:miter;stroke:rgb(0%,0%,0%);stroke-opacity:1;stroke-miterlimit:10;" d="M -51.024844 0.00140625 L -63.77875 -12.756406 M -51.024844 0.00140625 L -51.024844 -12.756406 M -51.024844 0.00140625 L -38.267031 -12.756406 " transform="matrix(1,0,0,-1,77.06,28.31)"/>
<path style="fill:none;stroke-width:0.3985;stroke-linecap:butt;stroke-linejoin:miter;stroke:rgb(0%,0%,0%);stroke-opacity:1;stroke-dasharray:2.98883,2.98883;stroke-miterlimit:10;" d="M -63.77875 -12.756406 L -76.536563 -25.510312 M -51.024844 -12.756406 L -51.024844 -25.510312 M -38.267031 -12.756406 L -25.513125 -25.510312 " transform="matrix(1,0,0,-1,77.06,28.31)"/>
<path style="fill:none;stroke-width:0.3985;stroke-linecap:butt;stroke-linejoin:miter;stroke:rgb(0%,0%,0%);stroke-opacity:1;stroke-miterlimit:10;" d="M 51.022031 0.00140625 L 63.779844 -12.756406 M 51.022031 0.00140625 L 51.022031 -12.756406 M 51.022031 0.00140625 L 38.268125 -12.756406 " transform="matrix(1,0,0,-1,77.06,28.31)"/>
<path style="fill:none;stroke-width:0.3985;stroke-linecap:butt;stroke-linejoin:miter;stroke:rgb(0%,0%,0%);stroke-opacity:1;stroke-dasharray:2.98883,2.98883;stroke-miterlimit:10;" d="M 63.779844 -12.756406 L 76.537656 -25.510312 M 51.022031 -12.756406 L 51.022031 -25.510312 M 38.268125 -12.756406 L 25.510312 -25.510312 " transform="matrix(1,0,0,-1,77.06,28.31)"/>
<path style="fill:none;stroke-width:0.3985;stroke-linecap:butt;stroke-linejoin:miter;stroke:rgb(0%,0%,0%);stroke-opacity:1;stroke-miterlimit:10;" d="M -0.00140625 25.513125 L -6.376406 0.00140625 M -0.00140625 25.513125 L -0.00140625 0.00140625 M -0.00140625 25.513125 L 6.3775 0.00140625 " transform="matrix(1,0,0,-1,77.06,28.31)"/>
<path style="fill:none;stroke-width:0.3985;stroke-linecap:butt;stroke-linejoin:miter;stroke:rgb(0%,0%,0%);stroke-opacity:1;stroke-dasharray:2.98883,2.98883;stroke-miterlimit:10;" d="M -6.376406 0.00140625 L -12.755313 -25.510312 M -0.00140625 0.00140625 L -0.00140625 -25.510312 M 6.3775 0.00140625 L 12.756406 -25.510312 " transform="matrix(1,0,0,-1,77.06,28.31)"/>
</g>
</svg>
