<?xml version="1.0" encoding="UTF-8"?>
<svg xmlns="http://www.w3.org/2000/svg" xmlns:xlink="http://www.w3.org/1999/xlink" width="56pt" height="82pt" viewBox="0 0 56 82" version="1.1">
<g id="surface1">
<path style="fill:none;stroke-width:0.3985;stroke-linecap:butt;stroke-linejoin:miter;stroke:rgb(0%,0%,0%);stroke-opacity:1;stroke-miterlimit:10;" d="M -25.51125 0.001875 L 25.512187 0.001875 L 25.512187 51.025312 L -25.51125 51.025312 L -25.51125 0.001875 L 25.512187 51.025312 M -25.51125 51.025312 L 25.512187 0.001875 " transform="matrix(1,0,0,-1,27.73,79.33)"/>
<path style=" stroke:none;fill-rule:nonzero;fill:rgb(0%,0%,0%);fill-opacity:1;" d="M 4.210938 79.328125 C 4.210938 78.230469 3.320312 77.335938 2.21875 77.335938 C 1.117188 77.335938 0.226562 78.230469 0.226562 79.328125 C 0.226562 80.429688 1.117188 81.324219 2.21875 81.324219 C 3.320312 81.324219 4.210938 80.429688 4.210938 79.328125 Z M 4.210938 79.328125 "/>
<path style=" stroke:none;fill-rule:nonzero;fill:rgb(0%,0%,0%);fill-opacity:1;" d="M 55.234375 79.328125 C 55.234375 78.230469 54.34375 77.335938 53.242188 77.335938 C 52.140625 77.335938 51.25 78.230469 51.25 79.328125 C 51.25 80.429688 52.140625 81.324219 53.242188 81.324219 C 54.34375 81.324219 55.234375 80.429688 55.234375 79.328125 Z M 55.234375 79.328125 "/>
<path style=" stroke:none;fill-rule:nonzero;fill:rgb(0%,0%,0%);fill-opacity:1;" d="M 55.234375 28.304688 C 55.234375 27.207031 54.34375 26.3125 53.242188 26.3125 C 52.140625 26.3125 51.25 27.207031 51.25 28.304688 C 51.25 29.40625 52.140625 30.296875 53.242188 30.296875 C 54.34375 30.296875 55.234375 29.40625 55.234375 28.304688 Z M 55.234375 28.304688 "/>
<path style=" stroke:none;fill-rule:nonzero;fill:rgb(0%,0%,0%);fill-opacity:1;" d="M 4.210938 28.304688 C 4.210938 27.207031 3.320312 26.3125 2.21875 26.3125 C 1.117188 26.3125 0.226562 27.207031 0.226562 28.304688 C 0.226562 29.40625 1.117188 30.296875 2.21875 30.296875 C 3.320312 30.296875 4.210938 29.40625 4.210938 28.304688 Z M 4.210938 28.304688 "/>
<path style=" stroke:none;fill-rule:nonzero;fill:rgb(0%,0%,0%);fill-opacity:1;" d="M 29.722656 53.816406 C 29.722656 52.71875 28.832031 51.824219 27.730469 51.824219 C 26.628906 51.824219 25.738281 52.71875 25.738281 53.816406 C 25.738281 54.917969 26.628906 55.8125 27.730469 55.8125 C 28.832031 55.8125 29.722656 54.917969 29.722656 53.816406 Z M 29.722656 53.816406 "/>
<path style="fill:none;stroke-width:0.3985;stroke-linecap:butt;stroke-linejoin:miter;stroke:rgb(0%,0%,0%);stroke-opacity:1;stroke-miterlimit:10;" d="M -25.51125 51.025312 L 0.00046875 76.537031 L 25.512187 51.025312 " transform="matrix(1,0,0,-1,27.73,79.33)"/>
<path style=" stroke:none;fill-rule:nonzero;fill:rgb(0%,0%,0%);fill-opacity:1;" d="M 29.722656 2.792969 C 29.722656 1.695312 28.832031 0.800781 27.730469 0.800781 C 26.628906 0.800781 25.738281 1.695312 25.738281 2.792969 C 25.738281 3.894531 26.628906 4.785156 27.730469 4.785156 C 28.832031 4.785156 29.722656 3.894531 29.722656 2.792969 Z M 29.722656 2.792969 "/>
</g>
</svg>
