<?xml version="1.0" encoding="UTF-8"?>
<svg xmlns="http://www.w3.org/2000/svg" xmlns:xlink="http://www.w3.org/1999/xlink" width="30pt" height="58pt" viewBox="0 0 30 58" version="1.1">
<g id="surface1">
<path style="fill:none;stroke-width:0.79701;stroke-linecap:butt;stroke-linejoin:miter;stroke:rgb(0%,0%,0%);stroke-opacity:1;stroke-miterlimit:10;" d="M 0.00075 3.984969 L 0.00075 52.707625 C 0.00075 54.91075 1.785906 56.692 3.985125 56.692 L 24.360125 56.692 C 26.56325 56.692 28.348406 54.91075 28.348406 52.707625 L 28.348406 3.984969 C 28.348406 1.78575 26.56325 0.00059375 24.360125 0.00059375 L 3.985125 0.00059375 C 1.785906 0.00059375 0.00075 1.78575 0.00075 3.984969 Z M 0.00075 3.984969 " transform="matrix(1,0,0,-1,1.093,57.567)"/>
<path style="fill:none;stroke-width:0.3985;stroke-linecap:butt;stroke-linejoin:miter;stroke:rgb(0%,0%,0%);stroke-opacity:1;stroke-miterlimit:10;" d="M 0.00075 28.34825 L 28.348406 28.34825 " transform="matrix(1,0,0,-1,1.093,57.567)"/>
<path style=" stroke:none;fill-rule:nonzero;fill:rgb(0%,0%,0%);fill-opacity:1;" d="M 17.257812 43.394531 C 17.257812 42.292969 16.367188 41.402344 15.265625 41.402344 C 14.164062 41.402344 13.273438 42.292969 13.273438 43.394531 C 13.273438 44.492188 14.164062 45.386719 15.265625 45.386719 C 16.367188 45.386719 17.257812 44.492188 17.257812 43.394531 Z M 17.257812 43.394531 "/>
<path style=" stroke:none;fill-rule:nonzero;fill:rgb(0%,0%,0%);fill-opacity:1;" d="M 10.171875 50.480469 C 10.171875 49.378906 9.28125 48.488281 8.179688 48.488281 C 7.078125 48.488281 6.1875 49.378906 6.1875 50.480469 C 6.1875 51.582031 7.078125 52.472656 8.179688 52.472656 C 9.28125 52.472656 10.171875 51.582031 10.171875 50.480469 Z M 10.171875 50.480469 "/>
<path style=" stroke:none;fill-rule:nonzero;fill:rgb(0%,0%,0%);fill-opacity:1;" d="M 10.171875 36.308594 C 10.171875 35.207031 9.28125 34.3125 8.179688 34.3125 C 7.078125 34.3125 6.1875 35.207031 6.1875 36.308594 C 6.1875 37.40625 7.078125 38.300781 8.179688 38.300781 C 9.28125 38.300781 10.171875 37.40625 10.171875 36.308594 Z M 10.171875 36.308594 "/>
<path style=" stroke:none;fill-rule:nonzero;fill:rgb(0%,0%,0%);fill-opacity:1;" d="M 24.34375 50.480469 C 24.34375 49.378906 23.453125 48.488281 22.351562 48.488281 C 21.253906 48.488281 20.359375 49.378906 20.359375 50.480469 C 20.359375 51.582031 21.253906 52.472656 22.351562 52.472656 C 23.453125 52.472656 24.34375 51.582031 24.34375 50.480469 Z M 24.34375 50.480469 "/>
<path style=" stroke:none;fill-rule:nonzero;fill:rgb(0%,0%,0%);fill-opacity:1;" d="M 24.34375 36.308594 C 24.34375 35.207031 23.453125 34.3125 22.351562 34.3125 C 21.253906 34.3125 20.359375 35.207031 20.359375 36.308594 C 20.359375 37.40625 21.253906 38.300781 22.351562 38.300781 C 23.453125 38.300781 24.34375 37.40625 24.34375 36.308594 Z M 24.34375 36.308594 "/>
<path style=" stroke:none;fill-rule:nonzero;fill:rgb(0%,0%,0%);fill-opacity:1;" d="M 10.171875 15.046875 C 10.171875 13.945312 9.28125 13.054688 8.179688 13.054688 C 7.078125 13.054688 6.1875 13.945312 6.1875 15.046875 C 6.1875 16.148438 7.078125 17.039062 8.179688 17.039062 C 9.28125 17.039062 10.171875 16.148438 10.171875 15.046875 Z M 10.171875 15.046875 "/>
<path style=" stroke:none;fill-rule:nonzero;fill:rgb(0%,0%,0%);fill-opacity:1;" d="M 24.34375 15.046875 C 24.34375 13.945312 23.453125 13.054688 22.351562 13.054688 C 21.253906 13.054688 20.359375 13.945312 20.359375 15.046875 C 20.359375 16.148438 21.253906 17.039062 22.351562 17.039062 C 23.453125 17.039062 24.34375 16.148438 24.34375 15.046875 Z M 24.34375 15.046875 "/>
<path style=" stroke:none;fill-rule:nonzero;fill:rgb(0%,0%,0%);fill-opacity:1;" d="M 10.171875 22.132812 C 10.171875 21.03125 9.28125 20.140625 8.179688 20.140625 C 7.078125 20.140625 6.1875 21.03125 6.1875 22.132812 C 6.1875 23.234375 7.078125 24.125 8.179688 24.125 C 9.28125 24.125 10.171875 23.234375 10.171875 22.132812 Z M 10.171875 22.132812 "/>
<path style=" stroke:none;fill-rule:nonzero;fill:rgb(0%,0%,0%);fill-opacity:1;" d="M 10.171875 7.960938 C 10.171875 6.859375 9.28125 5.96875 8.179688 5.96875 C 7.078125 5.96875 6.1875 6.859375 6.1875 7.960938 C 6.1875 9.0625 7.078125 9.953125 8.179688 9.953125 C 9.28125 9.953125 10.171875 9.0625 10.171875 7.960938 Z M 10.171875 7.960938 "/>
<path style=" stroke:none;fill-rule:nonzero;fill:rgb(0%,0%,0%);fill-opacity:1;" d="M 24.34375 22.132812 C 24.34375 21.03125 23.453125 20.140625 22.351562 20.140625 C 21.253906 20.140625 20.359375 21.03125 20.359375 22.132812 C 20.359375 23.234375 21.253906 24.125 22.351562 24.125 C 23.453125 24.125 24.34375 23.234375 24.34375 22.132812 Z M 24.34375 22.132812 "/>
<path style=" stroke:none;fill-rule:nonzero;fill:rgb(0%,0%,0%);fill-opacity:1;" d="M 24.34375 7.960938 C 24.34375 6.859375 23.453125 5.96875 22.351562 5.96875 C 21.253906 5.96875 20.359375 6.859375 20.359375 7.960938 C 20.359375 9.0625 21.253906 9.953125 22.351562 9.953125 C 23.453125 9.953125 24.34375 9.0625 24.34375 7.960938 Z M 24.34375 7.960938 "/>
</g>
</svg>
