<?xml version="1.0" encoding="UTF-8"?>
<svg xmlns="http://www.w3.org/2000/svg" xmlns:xlink="http://www.w3.org/1999/xlink" width="62pt" height="55pt" viewBox="0 0 62 55" version="1.1">
<g id="surface1">
<path style="fill:none;stroke-width:0.3985;stroke-linecap:butt;stroke-linejoin:miter;stroke:rgb(0%,0%,0%);stroke-opacity:1;stroke-miterlimit:10;" d="M 28.345094 0.0011875 L 14.173219 24.548063 " transform="matrix(1,0,0,-1,31.026,27.509)"/>
<path style="fill:none;stroke-width:0.3985;stroke-linecap:butt;stroke-linejoin:miter;stroke:rgb(0%,0%,0%);stroke-opacity:1;stroke-miterlimit:10;" d="M 28.345094 0.0011875 L -14.174437 24.548063 " transform="matrix(1,0,0,-1,31.026,27.509)"/>
<path style="fill:none;stroke-width:0.3985;stroke-linecap:butt;stroke-linejoin:miter;stroke:rgb(0%,0%,0%);stroke-opacity:1;stroke-miterlimit:10;" d="M 28.345094 0.0011875 L -28.346312 0.0011875 " transform="matrix(1,0,0,-1,31.026,27.509)"/>
<path style="fill:none;stroke-width:0.3985;stroke-linecap:butt;stroke-linejoin:miter;stroke:rgb(0%,0%,0%);stroke-opacity:1;stroke-miterlimit:10;" d="M 28.345094 0.0011875 L -14.174437 -24.549594 " transform="matrix(1,0,0,-1,31.026,27.509)"/>
<path style="fill:none;stroke-width:0.3985;stroke-linecap:butt;stroke-linejoin:miter;stroke:rgb(0%,0%,0%);stroke-opacity:1;stroke-miterlimit:10;" d="M 28.345094 0.0011875 L 14.173219 -24.549594 " transform="matrix(1,0,0,-1,31.026,27.509)"/>
<path style=" stroke:none;fill-rule:nonzero;fill:rgb(0%,0%,0%);fill-opacity:1;" d="M 61.367188 27.507812 C 61.367188 26.410156 60.472656 25.515625 59.371094 25.515625 C 58.273438 25.515625 57.378906 26.410156 57.378906 27.507812 C 57.378906 28.609375 58.273438 29.5 59.371094 29.5 C 60.472656 29.5 61.367188 28.609375 61.367188 27.507812 Z M 61.367188 27.507812 "/>
<path style="fill:none;stroke-width:0.3985;stroke-linecap:butt;stroke-linejoin:miter;stroke:rgb(0%,0%,0%);stroke-opacity:1;stroke-miterlimit:10;" d="M 14.173219 24.548063 L -14.174437 24.548063 " transform="matrix(1,0,0,-1,31.026,27.509)"/>
<path style="fill:none;stroke-width:0.3985;stroke-linecap:butt;stroke-linejoin:miter;stroke:rgb(0%,0%,0%);stroke-opacity:1;stroke-miterlimit:10;" d="M 14.173219 24.548063 L -28.346312 0.0011875 " transform="matrix(1,0,0,-1,31.026,27.509)"/>
<path style="fill:none;stroke-width:0.3985;stroke-linecap:butt;stroke-linejoin:miter;stroke:rgb(0%,0%,0%);stroke-opacity:1;stroke-miterlimit:10;" d="M 14.173219 24.548063 L -14.174437 -24.549594 " transform="matrix(1,0,0,-1,31.026,27.509)"/>
<path style="fill:none;stroke-width:0.3985;stroke-linecap:butt;stroke-linejoin:miter;stroke:rgb(0%,0%,0%);stroke-opacity:1;stroke-miterlimit:10;" d="M 14.173219 24.548063 L 14.173219 -24.549594 " transform="matrix(1,0,0,-1,31.026,27.509)"/>
<path style="fill:none;stroke-width:0.3985;stroke-linecap:butt;stroke-linejoin:miter;stroke:rgb(0%,0%,0%);stroke-opacity:1;stroke-miterlimit:10;" d="M 14.173219 24.548063 L 28.345094 0.0011875 " transform="matrix(1,0,0,-1,31.026,27.509)"/>
<path style=" stroke:none;fill-rule:nonzero;fill:rgb(0%,0%,0%);fill-opacity:1;" d="M 47.191406 2.960938 C 47.191406 1.859375 46.300781 0.96875 45.199219 0.96875 C 44.097656 0.96875 43.207031 1.859375 43.207031 2.960938 C 43.207031 4.058594 44.097656 4.953125 45.199219 4.953125 C 46.300781 4.953125 47.191406 4.058594 47.191406 2.960938 Z M 47.191406 2.960938 "/>
<path style="fill:none;stroke-width:0.3985;stroke-linecap:butt;stroke-linejoin:miter;stroke:rgb(0%,0%,0%);stroke-opacity:1;stroke-miterlimit:10;" d="M -14.174437 24.548063 L -28.346312 0.0011875 " transform="matrix(1,0,0,-1,31.026,27.509)"/>
<path style="fill:none;stroke-width:0.3985;stroke-linecap:butt;stroke-linejoin:miter;stroke:rgb(0%,0%,0%);stroke-opacity:1;stroke-miterlimit:10;" d="M -14.174437 24.548063 L -14.174437 -24.549594 " transform="matrix(1,0,0,-1,31.026,27.509)"/>
<path style="fill:none;stroke-width:0.3985;stroke-linecap:butt;stroke-linejoin:miter;stroke:rgb(0%,0%,0%);stroke-opacity:1;stroke-miterlimit:10;" d="M -14.174437 24.548063 L 14.173219 -24.549594 " transform="matrix(1,0,0,-1,31.026,27.509)"/>
<path style="fill:none;stroke-width:0.3985;stroke-linecap:butt;stroke-linejoin:miter;stroke:rgb(0%,0%,0%);stroke-opacity:1;stroke-miterlimit:10;" d="M -14.174437 24.548063 L 28.345094 0.0011875 " transform="matrix(1,0,0,-1,31.026,27.509)"/>
<path style="fill:none;stroke-width:0.3985;stroke-linecap:butt;stroke-linejoin:miter;stroke:rgb(0%,0%,0%);stroke-opacity:1;stroke-miterlimit:10;" d="M -14.174437 24.548063 L 14.173219 24.548063 " transform="matrix(1,0,0,-1,31.026,27.509)"/>
<path style=" stroke:none;fill-rule:nonzero;fill:rgb(0%,0%,0%);fill-opacity:1;" d="M 18.84375 2.960938 C 18.84375 1.859375 17.953125 0.96875 16.851562 0.96875 C 15.753906 0.96875 14.859375 1.859375 14.859375 2.960938 C 14.859375 4.058594 15.753906 4.953125 16.851562 4.953125 C 17.953125 4.953125 18.84375 4.058594 18.84375 2.960938 Z M 18.84375 2.960938 "/>
<path style="fill:none;stroke-width:0.3985;stroke-linecap:butt;stroke-linejoin:miter;stroke:rgb(0%,0%,0%);stroke-opacity:1;stroke-miterlimit:10;" d="M -28.346312 0.0011875 L -14.174437 -24.549594 " transform="matrix(1,0,0,-1,31.026,27.509)"/>
<path style="fill:none;stroke-width:0.3985;stroke-linecap:butt;stroke-linejoin:miter;stroke:rgb(0%,0%,0%);stroke-opacity:1;stroke-miterlimit:10;" d="M -28.346312 0.0011875 L 14.173219 -24.549594 " transform="matrix(1,0,0,-1,31.026,27.509)"/>
<path style="fill:none;stroke-width:0.3985;stroke-linecap:butt;stroke-linejoin:miter;stroke:rgb(0%,0%,0%);stroke-opacity:1;stroke-miterlimit:10;" d="M -28.346312 0.0011875 L 28.345094 0.0011875 " transform="matrix(1,0,0,-1,31.026,27.509)"/>
<path style="fill:none;stroke-width:0.3985;stroke-linecap:butt;stroke-linejoin:miter;stroke:rgb(0%,0%,0%);stroke-opacity:1;stroke-miterlimit:10;" d="M -28.346312 0.0011875 L 14.173219 24.548063 " transform="matrix(1,0,0,-1,31.026,27.509)"/>
<path style="fill:none;stroke-width:0.3985;stroke-linecap:butt;stroke-linejoin:miter;stroke:rgb(0%,0%,0%);stroke-opacity:1;stroke-miterlimit:10;" d="M -28.346312 0.0011875 L -14.174437 24.548063 " transform="matrix(1,0,0,-1,31.026,27.509)"/>
<path style=" stroke:none;fill-rule:nonzero;fill:rgb(0%,0%,0%);fill-opacity:1;" d="M 4.671875 27.507812 C 4.671875 26.410156 3.78125 25.515625 2.679688 25.515625 C 1.578125 25.515625 0.6875 26.410156 0.6875 27.507812 C 0.6875 28.609375 1.578125 29.5 2.679688 29.5 C 3.78125 29.5 4.671875 28.609375 4.671875 27.507812 Z M 4.671875 27.507812 "/>
<path style="fill:none;stroke-width:0.3985;stroke-linecap:butt;stroke-linejoin:miter;stroke:rgb(0%,0%,0%);stroke-opacity:1;stroke-miterlimit:10;" d="M -14.174437 -24.549594 L 14.173219 -24.549594 " transform="matrix(1,0,0,-1,31.026,27.509)"/>
<path style="fill:none;stroke-width:0.3985;stroke-linecap:butt;stroke-linejoin:miter;stroke:rgb(0%,0%,0%);stroke-opacity:1;stroke-miterlimit:10;" d="M -14.174437 -24.549594 L 28.345094 0.0011875 " transform="matrix(1,0,0,-1,31.026,27.509)"/>
<path style="fill:none;stroke-width:0.3985;stroke-linecap:butt;stroke-linejoin:miter;stroke:rgb(0%,0%,0%);stroke-opacity:1;stroke-miterlimit:10;" d="M -14.174437 -24.549594 L 14.173219 24.548063 " transform="matrix(1,0,0,-1,31.026,27.509)"/>
<path style="fill:none;stroke-width:0.3985;stroke-linecap:butt;stroke-linejoin:miter;stroke:rgb(0%,0%,0%);stroke-opacity:1;stroke-miterlimit:10;" d="M -14.174437 -24.549594 L -14.174437 24.548063 " transform="matrix(1,0,0,-1,31.026,27.509)"/>
<path style="fill:none;stroke-width:0.3985;stroke-linecap:butt;stroke-linejoin:miter;stroke:rgb(0%,0%,0%);stroke-opacity:1;stroke-miterlimit:10;" d="M -14.174437 -24.549594 L -28.346312 0.0011875 " transform="matrix(1,0,0,-1,31.026,27.509)"/>
<path style=" stroke:none;fill-rule:nonzero;fill:rgb(0%,0%,0%);fill-opacity:1;" d="M 18.84375 52.058594 C 18.84375 50.957031 17.953125 50.066406 16.851562 50.066406 C 15.753906 50.066406 14.859375 50.957031 14.859375 52.058594 C 14.859375 53.160156 15.753906 54.050781 16.851562 54.050781 C 17.953125 54.050781 18.84375 53.160156 18.84375 52.058594 Z M 18.84375 52.058594 "/>
<path style="fill:none;stroke-width:0.3985;stroke-linecap:butt;stroke-linejoin:miter;stroke:rgb(0%,0%,0%);stroke-opacity:1;stroke-miterlimit:10;" d="M 14.173219 -24.549594 L 28.345094 0.0011875 " transform="matrix(1,0,0,-1,31.026,27.509)"/>
<path style="fill:none;stroke-width:0.3985;stroke-linecap:butt;stroke-linejoin:miter;stroke:rgb(0%,0%,0%);stroke-opacity:1;stroke-miterlimit:10;" d="M 14.173219 -24.549594 L 14.173219 24.548063 " transform="matrix(1,0,0,-1,31.026,27.509)"/>
<path style="fill:none;stroke-width:0.3985;stroke-linecap:butt;stroke-linejoin:miter;stroke:rgb(0%,0%,0%);stroke-opacity:1;stroke-miterlimit:10;" d="M 14.173219 -24.549594 L -14.174437 24.548063 " transform="matrix(1,0,0,-1,31.026,27.509)"/>
<path style="fill:none;stroke-width:0.3985;stroke-linecap:butt;stroke-linejoin:miter;stroke:rgb(0%,0%,0%);stroke-opacity:1;stroke-miterlimit:10;" d="M 14.173219 -24.549594 L -28.346312 0.0011875 " transform="matrix(1,0,0,-1,31.026,27.509)"/>
<path style="fill:none;stroke-width:0.3985;stroke-linecap:butt;stroke-linejoin:miter;stroke:rgb(0%,0%,0%);stroke-opacity:1;stroke-miterlimit:10;" d="M 14.173219 -24.549594 L -14.174437 -24.549594 " transform="matrix(1,0,0,-1,31.026,27.509)"/>
<path style=" stroke:none;fill-rule:nonzero;fill:rgb(0%,0%,0%);fill-opacity:1;" d="M 47.191406 52.058594 C 47.191406 50.957031 46.300781 50.066406 45.199219 50.066406 C 44.097656 50.066406 43.207031 50.957031 43.207031 52.058594 C 43.207031 53.160156 44.097656 54.050781 45.199219 54.050781 C 46.300781 54.050781 47.191406 53.160156 47.191406 52.058594 Z M 47.191406 52.058594 "/>
</g>
</svg>
