<?xml version="1.0" encoding="UTF-8"?>
<svg xmlns="http://www.w3.org/2000/svg" xmlns:xlink="http://www.w3.org/1999/xlink" width="91pt" height="88pt" viewBox="0 0 91 88" version="1.1">
<g id="surface1">
<path style="fill:none;stroke-width:0.3985;stroke-linecap:butt;stroke-linejoin:miter;stroke:rgb(0%,0%,0%);stroke-opacity:1;stroke-miterlimit:10;" d="M -0.00059375 0.00059375 L -0.00059375 22.676375 L -43.137313 14.016219 L -0.00059375 45.356062 L -21.567 7.008406 " transform="matrix(1,0,0,-1,45.817,48.317)"/>
<path style=" stroke:none;fill-rule:nonzero;fill:rgb(0%,0%,0%);fill-opacity:1;" d="M 47.808594 48.316406 C 47.808594 47.214844 46.917969 46.324219 45.816406 46.324219 C 44.714844 46.324219 43.824219 47.214844 43.824219 48.316406 C 43.824219 49.417969 44.714844 50.308594 45.816406 50.308594 C 46.917969 50.308594 47.808594 49.417969 47.808594 48.316406 Z M 47.808594 48.316406 "/>
<path style=" stroke:none;fill-rule:nonzero;fill:rgb(0%,0%,0%);fill-opacity:1;" d="M 47.808594 25.640625 C 47.808594 24.539062 46.917969 23.648438 45.816406 23.648438 C 44.714844 23.648438 43.824219 24.539062 43.824219 25.640625 C 43.824219 26.738281 44.714844 27.632812 45.816406 27.632812 C 46.917969 27.632812 47.808594 26.738281 47.808594 25.640625 Z M 47.808594 25.640625 "/>
<path style=" stroke:none;fill-rule:nonzero;fill:rgb(0%,0%,0%);fill-opacity:1;" d="M 4.675781 34.300781 C 4.675781 33.199219 3.78125 32.308594 2.679688 32.308594 C 1.582031 32.308594 0.6875 33.199219 0.6875 34.300781 C 0.6875 35.402344 1.582031 36.292969 2.679688 36.292969 C 3.78125 36.292969 4.675781 35.402344 4.675781 34.300781 Z M 4.675781 34.300781 "/>
<path style="fill:none;stroke-width:0.3985;stroke-linecap:butt;stroke-linejoin:miter;stroke:rgb(0%,0%,19.999695%);stroke-opacity:1;stroke-miterlimit:10;" d="M -0.00059375 22.676375 L -21.567 7.008406 " transform="matrix(1,0,0,-1,45.817,48.317)"/>
<path style="fill:none;stroke-width:0.3985;stroke-linecap:butt;stroke-linejoin:miter;stroke:rgb(0%,0%,0%);stroke-opacity:1;stroke-miterlimit:10;" d="M -0.00059375 0.00059375 L -21.567 7.008406 L -26.66075 -36.694719 L -43.137313 14.016219 L -13.328719 -18.347063 " transform="matrix(1,0,0,-1,45.817,48.317)"/>
<path style=" stroke:none;fill-rule:nonzero;fill:rgb(0%,0%,0%);fill-opacity:1;" d="M 47.808594 48.316406 C 47.808594 47.214844 46.917969 46.324219 45.816406 46.324219 C 44.714844 46.324219 43.824219 47.214844 43.824219 48.316406 C 43.824219 49.417969 44.714844 50.308594 45.816406 50.308594 C 46.917969 50.308594 47.808594 49.417969 47.808594 48.316406 Z M 47.808594 48.316406 "/>
<path style=" stroke:none;fill-rule:nonzero;fill:rgb(0%,0%,0%);fill-opacity:1;" d="M 26.242188 41.308594 C 26.242188 40.207031 25.351562 39.316406 24.25 39.316406 C 23.148438 39.316406 22.257812 40.207031 22.257812 41.308594 C 22.257812 42.410156 23.148438 43.300781 24.25 43.300781 C 25.351562 43.300781 26.242188 42.410156 26.242188 41.308594 Z M 26.242188 41.308594 "/>
<path style=" stroke:none;fill-rule:nonzero;fill:rgb(0%,0%,0%);fill-opacity:1;" d="M 21.152344 85.011719 C 21.152344 83.910156 20.257812 83.019531 19.15625 83.019531 C 18.058594 83.019531 17.164062 83.910156 17.164062 85.011719 C 17.164062 86.109375 18.058594 87.003906 19.15625 87.003906 C 20.257812 87.003906 21.152344 86.109375 21.152344 85.011719 Z M 21.152344 85.011719 "/>
<path style="fill:none;stroke-width:0.3985;stroke-linecap:butt;stroke-linejoin:miter;stroke:rgb(0%,0%,19.999695%);stroke-opacity:1;stroke-miterlimit:10;" d="M -21.567 7.008406 L -13.328719 -18.347063 " transform="matrix(1,0,0,-1,45.817,48.317)"/>
<path style="fill:none;stroke-width:0.3985;stroke-linecap:butt;stroke-linejoin:miter;stroke:rgb(0%,0%,0%);stroke-opacity:1;stroke-miterlimit:10;" d="M -0.00059375 0.00059375 L -13.328719 -18.347063 L 26.659562 -36.694719 L -26.66075 -36.694719 L 13.327531 -18.347063 " transform="matrix(1,0,0,-1,45.817,48.317)"/>
<path style=" stroke:none;fill-rule:nonzero;fill:rgb(0%,0%,0%);fill-opacity:1;" d="M 47.808594 48.316406 C 47.808594 47.214844 46.917969 46.324219 45.816406 46.324219 C 44.714844 46.324219 43.824219 47.214844 43.824219 48.316406 C 43.824219 49.417969 44.714844 50.308594 45.816406 50.308594 C 46.917969 50.308594 47.808594 49.417969 47.808594 48.316406 Z M 47.808594 48.316406 "/>
<path style=" stroke:none;fill-rule:nonzero;fill:rgb(0%,0%,0%);fill-opacity:1;" d="M 34.480469 66.664062 C 34.480469 65.5625 33.589844 64.671875 32.488281 64.671875 C 31.386719 64.671875 30.496094 65.5625 30.496094 66.664062 C 30.496094 67.765625 31.386719 68.65625 32.488281 68.65625 C 33.589844 68.65625 34.480469 67.765625 34.480469 66.664062 Z M 34.480469 66.664062 "/>
<path style=" stroke:none;fill-rule:nonzero;fill:rgb(0%,0%,0%);fill-opacity:1;" d="M 74.46875 85.011719 C 74.46875 83.910156 73.578125 83.019531 72.476562 83.019531 C 71.375 83.019531 70.484375 83.910156 70.484375 85.011719 C 70.484375 86.109375 71.375 87.003906 72.476562 87.003906 C 73.578125 87.003906 74.46875 86.109375 74.46875 85.011719 Z M 74.46875 85.011719 "/>
<path style="fill:none;stroke-width:0.3985;stroke-linecap:butt;stroke-linejoin:miter;stroke:rgb(0%,0%,19.999695%);stroke-opacity:1;stroke-miterlimit:10;" d="M -13.328719 -18.347063 L 13.327531 -18.347063 " transform="matrix(1,0,0,-1,45.817,48.317)"/>
<path style="fill:none;stroke-width:0.3985;stroke-linecap:butt;stroke-linejoin:miter;stroke:rgb(0%,0%,0%);stroke-opacity:1;stroke-miterlimit:10;" d="M -0.00059375 0.00059375 L 13.327531 -18.347063 L 43.136125 14.016219 L 26.659562 -36.694719 L 21.569719 7.008406 " transform="matrix(1,0,0,-1,45.817,48.317)"/>
<path style=" stroke:none;fill-rule:nonzero;fill:rgb(0%,0%,0%);fill-opacity:1;" d="M 47.808594 48.316406 C 47.808594 47.214844 46.917969 46.324219 45.816406 46.324219 C 44.714844 46.324219 43.824219 47.214844 43.824219 48.316406 C 43.824219 49.417969 44.714844 50.308594 45.816406 50.308594 C 46.917969 50.308594 47.808594 49.417969 47.808594 48.316406 Z M 47.808594 48.316406 "/>
<path style=" stroke:none;fill-rule:nonzero;fill:rgb(0%,0%,0%);fill-opacity:1;" d="M 61.140625 66.664062 C 61.140625 65.5625 60.246094 64.671875 59.144531 64.671875 C 58.046875 64.671875 57.152344 65.5625 57.152344 66.664062 C 57.152344 67.765625 58.046875 68.65625 59.144531 68.65625 C 60.246094 68.65625 61.140625 67.765625 61.140625 66.664062 Z M 61.140625 66.664062 "/>
<path style=" stroke:none;fill-rule:nonzero;fill:rgb(0%,0%,0%);fill-opacity:1;" d="M 90.945312 34.300781 C 90.945312 33.199219 90.054688 32.308594 88.953125 32.308594 C 87.851562 32.308594 86.960938 33.199219 86.960938 34.300781 C 86.960938 35.402344 87.851562 36.292969 88.953125 36.292969 C 90.054688 36.292969 90.945312 35.402344 90.945312 34.300781 Z M 90.945312 34.300781 "/>
<path style="fill:none;stroke-width:0.3985;stroke-linecap:butt;stroke-linejoin:miter;stroke:rgb(0%,0%,19.999695%);stroke-opacity:1;stroke-miterlimit:10;" d="M 13.327531 -18.347063 L 21.569719 7.008406 " transform="matrix(1,0,0,-1,45.817,48.317)"/>
<path style="fill:none;stroke-width:0.3985;stroke-linecap:butt;stroke-linejoin:miter;stroke:rgb(0%,0%,0%);stroke-opacity:1;stroke-miterlimit:10;" d="M -0.00059375 0.00059375 L 21.569719 7.008406 L -0.00059375 45.356062 L 43.136125 14.016219 L -0.00059375 22.676375 " transform="matrix(1,0,0,-1,45.817,48.317)"/>
<path style=" stroke:none;fill-rule:nonzero;fill:rgb(0%,0%,0%);fill-opacity:1;" d="M 47.808594 48.316406 C 47.808594 47.214844 46.917969 46.324219 45.816406 46.324219 C 44.714844 46.324219 43.824219 47.214844 43.824219 48.316406 C 43.824219 49.417969 44.714844 50.308594 45.816406 50.308594 C 46.917969 50.308594 47.808594 49.417969 47.808594 48.316406 Z M 47.808594 48.316406 "/>
<path style=" stroke:none;fill-rule:nonzero;fill:rgb(0%,0%,0%);fill-opacity:1;" d="M 69.378906 41.308594 C 69.378906 40.207031 68.484375 39.316406 67.386719 39.316406 C 66.285156 39.316406 65.390625 40.207031 65.390625 41.308594 C 65.390625 42.410156 66.285156 43.300781 67.386719 43.300781 C 68.484375 43.300781 69.378906 42.410156 69.378906 41.308594 Z M 69.378906 41.308594 "/>
<path style=" stroke:none;fill-rule:nonzero;fill:rgb(0%,0%,0%);fill-opacity:1;" d="M 47.808594 2.960938 C 47.808594 1.863281 46.917969 0.96875 45.816406 0.96875 C 44.714844 0.96875 43.824219 1.863281 43.824219 2.960938 C 43.824219 4.0625 44.714844 4.953125 45.816406 4.953125 C 46.917969 4.953125 47.808594 4.0625 47.808594 2.960938 Z M 47.808594 2.960938 "/>
<path style="fill:none;stroke-width:0.3985;stroke-linecap:butt;stroke-linejoin:miter;stroke:rgb(0%,0%,19.999695%);stroke-opacity:1;stroke-miterlimit:10;" d="M 21.569719 7.008406 L -0.00059375 22.676375 " transform="matrix(1,0,0,-1,45.817,48.317)"/>
</g>
</svg>
