<?xml version="1.0" encoding="UTF-8"?>
<svg xmlns="http://www.w3.org/2000/svg" xmlns:xlink="http://www.w3.org/1999/xlink" width="134pt" height="64pt" viewBox="0 0 134 64" version="1.1">
<g id="surface1">
<path style="fill-rule:nonzero;fill:rgb(0%,0%,0%);fill-opacity:1;stroke-width:0.3985;stroke-linecap:butt;stroke-linejoin:miter;stroke:rgb(0%,0%,0%);stroke-opacity:1;stroke-miterlimit:10;" d="M -61.54 10.631094 C -61.54 11.869375 -62.543906 12.873281 -63.782188 12.873281 C -65.016563 12.873281 -66.020469 11.869375 -66.020469 10.631094 C -66.020469 9.392813 -65.016563 8.388906 -63.782188 8.388906 C -62.543906 8.388906 -61.54 9.392813 -61.54 10.631094 Z M -61.54 10.631094 " transform="matrix(1,0,0,-1,66.915,72.135)"/>
<path style="fill-rule:nonzero;fill:rgb(0%,0%,0%);fill-opacity:1;stroke-width:0.3985;stroke-linecap:butt;stroke-linejoin:miter;stroke:rgb(0%,0%,0%);stroke-opacity:1;stroke-miterlimit:10;" d="M -40.278281 10.631094 C -40.278281 11.869375 -41.282188 12.873281 -42.520469 12.873281 C -43.75875 12.873281 -44.762656 11.869375 -44.762656 10.631094 C -44.762656 9.392813 -43.75875 8.388906 -42.520469 8.388906 C -41.282188 8.388906 -40.278281 9.392813 -40.278281 10.631094 Z M -40.278281 10.631094 " transform="matrix(1,0,0,-1,66.915,72.135)"/>
<path style="fill-rule:nonzero;fill:rgb(0%,0%,0%);fill-opacity:1;stroke-width:0.3985;stroke-linecap:butt;stroke-linejoin:miter;stroke:rgb(0%,0%,0%);stroke-opacity:1;stroke-miterlimit:10;" d="M -19.016563 10.631094 C -19.016563 11.869375 -20.020469 12.873281 -21.25875 12.873281 C -22.497031 12.873281 -23.500938 11.869375 -23.500938 10.631094 C -23.500938 9.392813 -22.497031 8.388906 -21.25875 8.388906 C -20.020469 8.388906 -19.016563 9.392813 -19.016563 10.631094 Z M -19.016563 10.631094 " transform="matrix(1,0,0,-1,66.915,72.135)"/>
<path style="fill-rule:nonzero;fill:rgb(0%,0%,0%);fill-opacity:1;stroke-width:0.3985;stroke-linecap:butt;stroke-linejoin:miter;stroke:rgb(0%,0%,0%);stroke-opacity:1;stroke-miterlimit:10;" d="M 2.24125 10.631094 C 2.24125 11.869375 1.237344 12.873281 -0.0009375 12.873281 C -1.239219 12.873281 -2.243125 11.869375 -2.243125 10.631094 C -2.243125 9.392813 -1.239219 8.388906 -0.0009375 8.388906 C 1.237344 8.388906 2.24125 9.392813 2.24125 10.631094 Z M 2.24125 10.631094 " transform="matrix(1,0,0,-1,66.915,72.135)"/>
<path style="fill-rule:nonzero;fill:rgb(0%,0%,0%);fill-opacity:1;stroke-width:0.3985;stroke-linecap:butt;stroke-linejoin:miter;stroke:rgb(0%,0%,0%);stroke-opacity:1;stroke-miterlimit:10;" d="M 23.502969 10.631094 C 23.502969 11.869375 22.499062 12.873281 21.260781 12.873281 C 20.0225 12.873281 19.018594 11.869375 19.018594 10.631094 C 19.018594 9.392813 20.0225 8.388906 21.260781 8.388906 C 22.499062 8.388906 23.502969 9.392813 23.502969 10.631094 Z M 23.502969 10.631094 " transform="matrix(1,0,0,-1,66.915,72.135)"/>
<path style="fill-rule:nonzero;fill:rgb(0%,0%,0%);fill-opacity:1;stroke-width:0.3985;stroke-linecap:butt;stroke-linejoin:miter;stroke:rgb(0%,0%,0%);stroke-opacity:1;stroke-miterlimit:10;" d="M 44.760781 10.631094 C 44.760781 11.869375 43.756875 12.873281 42.518594 12.873281 C 41.280312 12.873281 40.280312 11.869375 40.280312 10.631094 C 40.280312 9.392813 41.280312 8.388906 42.518594 8.388906 C 43.756875 8.388906 44.760781 9.392813 44.760781 10.631094 Z M 44.760781 10.631094 " transform="matrix(1,0,0,-1,66.915,72.135)"/>
<path style="fill-rule:nonzero;fill:rgb(0%,0%,0%);fill-opacity:1;stroke-width:0.3985;stroke-linecap:butt;stroke-linejoin:miter;stroke:rgb(0%,0%,0%);stroke-opacity:1;stroke-miterlimit:10;" d="M 66.0225 10.631094 C 66.0225 11.869375 65.018594 12.873281 63.780312 12.873281 C 62.542031 12.873281 61.538125 11.869375 61.538125 10.631094 C 61.538125 9.392813 62.542031 8.388906 63.780312 8.388906 C 65.018594 8.388906 66.0225 9.392813 66.0225 10.631094 Z M 66.0225 10.631094 " transform="matrix(1,0,0,-1,66.915,72.135)"/>
<path style="fill-rule:nonzero;fill:rgb(0%,0%,0%);fill-opacity:1;stroke-width:0.3985;stroke-linecap:butt;stroke-linejoin:miter;stroke:rgb(0%,0%,0%);stroke-opacity:1;stroke-miterlimit:10;" d="M 62.081094 34.549063 C 62.081094 35.787344 61.077187 36.787344 59.838906 36.787344 C 58.600625 36.787344 57.596719 35.787344 57.596719 34.549063 C 57.596719 33.310781 58.600625 32.306875 59.838906 32.306875 C 61.077187 32.306875 62.081094 33.310781 62.081094 34.549063 Z M 62.081094 34.549063 " transform="matrix(1,0,0,-1,66.915,72.135)"/>
<path style="fill-rule:nonzero;fill:rgb(0%,0%,0%);fill-opacity:1;stroke-width:0.3985;stroke-linecap:butt;stroke-linejoin:miter;stroke:rgb(0%,0%,0%);stroke-opacity:1;stroke-miterlimit:10;" d="M 36.788125 59.838125 C 36.788125 61.076406 35.784219 62.080313 34.545937 62.080313 C 33.311562 62.080313 32.307656 61.076406 32.307656 59.838125 C 32.307656 58.599844 33.311562 57.595938 34.545937 57.595938 C 35.784219 57.595938 36.788125 58.599844 36.788125 59.838125 Z M 36.788125 59.838125 " transform="matrix(1,0,0,-1,66.915,72.135)"/>
<path style="fill-rule:nonzero;fill:rgb(0%,0%,0%);fill-opacity:1;stroke-width:0.3985;stroke-linecap:butt;stroke-linejoin:miter;stroke:rgb(0%,0%,0%);stroke-opacity:1;stroke-miterlimit:10;" d="M 2.24125 69.095938 C 2.24125 70.334219 1.237344 71.338125 -0.0009375 71.338125 C -1.239219 71.338125 -2.243125 70.334219 -2.243125 69.095938 C -2.243125 67.857656 -1.239219 66.85375 -0.0009375 66.85375 C 1.237344 66.85375 2.24125 67.857656 2.24125 69.095938 Z M 2.24125 69.095938 " transform="matrix(1,0,0,-1,66.915,72.135)"/>
<path style="fill-rule:nonzero;fill:rgb(0%,0%,0%);fill-opacity:1;stroke-width:0.3985;stroke-linecap:butt;stroke-linejoin:miter;stroke:rgb(0%,0%,0%);stroke-opacity:1;stroke-miterlimit:10;" d="M -32.305625 59.838125 C -32.305625 61.076406 -33.309531 62.080313 -34.547813 62.080313 C -35.786094 62.080313 -36.79 61.076406 -36.79 59.838125 C -36.79 58.599844 -35.786094 57.595938 -34.547813 57.595938 C -33.309531 57.595938 -32.305625 58.599844 -32.305625 59.838125 Z M -32.305625 59.838125 " transform="matrix(1,0,0,-1,66.915,72.135)"/>
<path style="fill-rule:nonzero;fill:rgb(0%,0%,0%);fill-opacity:1;stroke-width:0.3985;stroke-linecap:butt;stroke-linejoin:miter;stroke:rgb(0%,0%,0%);stroke-opacity:1;stroke-miterlimit:10;" d="M -57.598594 34.549063 C -57.598594 35.787344 -58.598594 36.787344 -59.836875 36.787344 C -61.075156 36.787344 -62.079063 35.787344 -62.079063 34.549063 C -62.079063 33.310781 -61.075156 32.306875 -59.836875 32.306875 C -58.598594 32.306875 -57.598594 33.310781 -57.598594 34.549063 Z M -57.598594 34.549063 " transform="matrix(1,0,0,-1,66.915,72.135)"/>
</g>
</svg>
