<?xml version="1.0" encoding="UTF-8"?>
<svg xmlns="http://www.w3.org/2000/svg" xmlns:xlink="http://www.w3.org/1999/xlink" width="133pt" height="64pt" viewBox="0 0 133 64" version="1.1">
<g id="surface1">
<path style="fill-rule:nonzero;fill:rgb(0%,0%,0%);fill-opacity:1;stroke-width:0.3985;stroke-linecap:butt;stroke-linejoin:miter;stroke:rgb(0%,0%,0%);stroke-opacity:1;stroke-miterlimit:10;" d="M -61.54 10.628281 C -61.54 11.866563 -62.543906 12.870469 -63.782188 12.870469 C -65.016563 12.870469 -66.020469 11.866563 -66.020469 10.628281 C -66.020469 9.393906 -65.016563 8.39 -63.782188 8.39 C -62.543906 8.39 -61.54 9.393906 -61.54 10.628281 Z M -61.54 10.628281 " transform="matrix(1,0,0,-1,66.54,72.14)"/>
<path style="fill-rule:nonzero;fill:rgb(0%,0%,0%);fill-opacity:1;stroke-width:0.3985;stroke-linecap:butt;stroke-linejoin:miter;stroke:rgb(0%,0%,0%);stroke-opacity:1;stroke-miterlimit:10;" d="M -40.278281 10.628281 C -40.278281 11.866563 -41.282188 12.870469 -42.520469 12.870469 C -43.75875 12.870469 -44.762656 11.866563 -44.762656 10.628281 C -44.762656 9.393906 -43.75875 8.39 -42.520469 8.39 C -41.282188 8.39 -40.278281 9.393906 -40.278281 10.628281 Z M -40.278281 10.628281 " transform="matrix(1,0,0,-1,66.54,72.14)"/>
<path style="fill-rule:nonzero;fill:rgb(0%,0%,0%);fill-opacity:1;stroke-width:0.3985;stroke-linecap:butt;stroke-linejoin:miter;stroke:rgb(0%,0%,0%);stroke-opacity:1;stroke-miterlimit:10;" d="M -19.016563 10.628281 C -19.016563 11.866563 -20.020469 12.870469 -21.25875 12.870469 C -22.497031 12.870469 -23.500938 11.866563 -23.500938 10.628281 C -23.500938 9.393906 -22.497031 8.39 -21.25875 8.39 C -20.020469 8.39 -19.016563 9.393906 -19.016563 10.628281 Z M -19.016563 10.628281 " transform="matrix(1,0,0,-1,66.54,72.14)"/>
<path style="fill-rule:nonzero;fill:rgb(0%,0%,0%);fill-opacity:1;stroke-width:0.3985;stroke-linecap:butt;stroke-linejoin:miter;stroke:rgb(0%,0%,0%);stroke-opacity:1;stroke-miterlimit:10;" d="M 2.24125 10.628281 C 2.24125 11.866563 1.237344 12.870469 -0.0009375 12.870469 C -1.239219 12.870469 -2.243125 11.866563 -2.243125 10.628281 C -2.243125 9.393906 -1.239219 8.39 -0.0009375 8.39 C 1.237344 8.39 2.24125 9.393906 2.24125 10.628281 Z M 2.24125 10.628281 " transform="matrix(1,0,0,-1,66.54,72.14)"/>
<path style="fill-rule:nonzero;fill:rgb(0%,0%,0%);fill-opacity:1;stroke-width:0.3985;stroke-linecap:butt;stroke-linejoin:miter;stroke:rgb(0%,0%,0%);stroke-opacity:1;stroke-miterlimit:10;" d="M 23.502969 10.628281 C 23.502969 11.866563 22.499062 12.870469 21.260781 12.870469 C 20.0225 12.870469 19.018594 11.866563 19.018594 10.628281 C 19.018594 9.393906 20.0225 8.39 21.260781 8.39 C 22.499062 8.39 23.502969 9.393906 23.502969 10.628281 Z M 23.502969 10.628281 " transform="matrix(1,0,0,-1,66.54,72.14)"/>
<path style="fill-rule:nonzero;fill:rgb(0%,0%,0%);fill-opacity:1;stroke-width:0.3985;stroke-linecap:butt;stroke-linejoin:miter;stroke:rgb(0%,0%,0%);stroke-opacity:1;stroke-miterlimit:10;" d="M 44.760781 10.628281 C 44.760781 11.866563 43.756875 12.870469 42.518594 12.870469 C 41.280312 12.870469 40.280312 11.866563 40.280312 10.628281 C 40.280312 9.393906 41.280312 8.39 42.518594 8.39 C 43.756875 8.39 44.760781 9.393906 44.760781 10.628281 Z M 44.760781 10.628281 " transform="matrix(1,0,0,-1,66.54,72.14)"/>
<path style="fill-rule:nonzero;fill:rgb(0%,0%,0%);fill-opacity:1;stroke-width:0.3985;stroke-linecap:butt;stroke-linejoin:miter;stroke:rgb(0%,0%,0%);stroke-opacity:1;stroke-miterlimit:10;" d="M 66.0225 10.628281 C 66.0225 11.866563 65.018594 12.870469 63.780312 12.870469 C 62.542031 12.870469 61.538125 11.866563 61.538125 10.628281 C 61.538125 9.393906 62.542031 8.39 63.780312 8.39 C 65.018594 8.39 66.0225 9.393906 66.0225 10.628281 Z M 66.0225 10.628281 " transform="matrix(1,0,0,-1,66.54,72.14)"/>
<path style="fill-rule:nonzero;fill:rgb(0%,0%,0%);fill-opacity:1;stroke-width:0.3985;stroke-linecap:butt;stroke-linejoin:miter;stroke:rgb(0%,0%,0%);stroke-opacity:1;stroke-miterlimit:10;" d="M 62.081094 34.54625 C 62.081094 35.784531 61.077187 36.788438 59.838906 36.788438 C 58.600625 36.788438 57.596719 35.784531 57.596719 34.54625 C 57.596719 33.307969 58.600625 32.307969 59.838906 32.307969 C 61.077187 32.307969 62.081094 33.307969 62.081094 34.54625 Z M 62.081094 34.54625 " transform="matrix(1,0,0,-1,66.54,72.14)"/>
<path style="fill-rule:nonzero;fill:rgb(0%,0%,0%);fill-opacity:1;stroke-width:0.3985;stroke-linecap:butt;stroke-linejoin:miter;stroke:rgb(0%,0%,0%);stroke-opacity:1;stroke-miterlimit:10;" d="M 36.788125 59.839219 C 36.788125 61.0775 35.784219 62.081406 34.545937 62.081406 C 33.311562 62.081406 32.307656 61.0775 32.307656 59.839219 C 32.307656 58.600938 33.311562 57.597031 34.545937 57.597031 C 35.784219 57.597031 36.788125 58.600938 36.788125 59.839219 Z M 36.788125 59.839219 " transform="matrix(1,0,0,-1,66.54,72.14)"/>
<path style="fill-rule:nonzero;fill:rgb(0%,0%,0%);fill-opacity:1;stroke-width:0.3985;stroke-linecap:butt;stroke-linejoin:miter;stroke:rgb(0%,0%,0%);stroke-opacity:1;stroke-miterlimit:10;" d="M 2.24125 69.097031 C 2.24125 70.331406 1.237344 71.335313 -0.0009375 71.335313 C -1.239219 71.335313 -2.243125 70.331406 -2.243125 69.097031 C -2.243125 67.85875 -1.239219 66.854844 -0.0009375 66.854844 C 1.237344 66.854844 2.24125 67.85875 2.24125 69.097031 Z M 2.24125 69.097031 " transform="matrix(1,0,0,-1,66.54,72.14)"/>
<path style="fill-rule:nonzero;fill:rgb(0%,0%,0%);fill-opacity:1;stroke-width:0.3985;stroke-linecap:butt;stroke-linejoin:miter;stroke:rgb(0%,0%,0%);stroke-opacity:1;stroke-miterlimit:10;" d="M -32.305625 59.839219 C -32.305625 61.0775 -33.309531 62.081406 -34.547813 62.081406 C -35.786094 62.081406 -36.79 61.0775 -36.79 59.839219 C -36.79 58.600938 -35.786094 57.597031 -34.547813 57.597031 C -33.309531 57.597031 -32.305625 58.600938 -32.305625 59.839219 Z M -32.305625 59.839219 " transform="matrix(1,0,0,-1,66.54,72.14)"/>
<path style="fill-rule:nonzero;fill:rgb(0%,0%,0%);fill-opacity:1;stroke-width:0.3985;stroke-linecap:butt;stroke-linejoin:miter;stroke:rgb(0%,0%,0%);stroke-opacity:1;stroke-miterlimit:10;" d="M -57.598594 34.54625 C -57.598594 35.784531 -58.598594 36.788438 -59.836875 36.788438 C -61.075156 36.788438 -62.079063 35.784531 -62.079063 34.54625 C -62.079063 33.307969 -61.075156 32.307969 -59.836875 32.307969 C -58.598594 32.307969 -57.598594 33.307969 -57.598594 34.54625 Z M -57.598594 34.54625 " transform="matrix(1,0,0,-1,66.54,72.14)"/>
</g>
</svg>
