<?xml version="1.0" encoding="UTF-8"?>
<svg xmlns="http://www.w3.org/2000/svg" xmlns:xlink="http://www.w3.org/1999/xlink" width="91pt" height="87pt" viewBox="0 0 91 87" version="1.1">
<g id="surface1">
<path style="fill:none;stroke-width:0.3985;stroke-linecap:butt;stroke-linejoin:miter;stroke:rgb(0%,0%,0%);stroke-opacity:1;stroke-miterlimit:10;" d="M -0.000625 0.0015625 L -0.000625 22.677344 L -43.137344 14.017187 L -0.000625 45.353125 L -21.567031 7.009375 " transform="matrix(1,0,0,-1,45.36,48.15)"/>
<path style=" stroke:none;fill-rule:nonzero;fill:rgb(0%,0%,0%);fill-opacity:1;" d="M 47.351562 48.148438 C 47.351562 47.050781 46.460938 46.15625 45.359375 46.15625 C 44.257812 46.15625 43.367188 47.050781 43.367188 48.148438 C 43.367188 49.25 44.257812 50.140625 45.359375 50.140625 C 46.460938 50.140625 47.351562 49.25 47.351562 48.148438 Z M 47.351562 48.148438 "/>
<path style=" stroke:none;fill-rule:nonzero;fill:rgb(0%,0%,0%);fill-opacity:1;" d="M 47.351562 25.472656 C 47.351562 24.371094 46.460938 23.480469 45.359375 23.480469 C 44.257812 23.480469 43.367188 24.371094 43.367188 25.472656 C 43.367188 26.574219 44.257812 27.464844 45.359375 27.464844 C 46.460938 27.464844 47.351562 26.574219 47.351562 25.472656 Z M 47.351562 25.472656 "/>
<path style=" stroke:none;fill-rule:nonzero;fill:rgb(0%,0%,0%);fill-opacity:1;" d="M 4.21875 34.132812 C 4.21875 33.035156 3.324219 32.140625 2.222656 32.140625 C 1.125 32.140625 0.230469 33.035156 0.230469 34.132812 C 0.230469 35.234375 1.125 36.125 2.222656 36.125 C 3.324219 36.125 4.21875 35.234375 4.21875 34.132812 Z M 4.21875 34.132812 "/>
<path style="fill:none;stroke-width:0.3985;stroke-linecap:butt;stroke-linejoin:miter;stroke:rgb(0%,0%,0%);stroke-opacity:1;stroke-miterlimit:10;" d="M -0.000625 0.0015625 L -21.567031 7.009375 L -26.660781 -36.69375 L -43.137344 14.017187 L -13.32875 -18.346094 " transform="matrix(1,0,0,-1,45.36,48.15)"/>
<path style=" stroke:none;fill-rule:nonzero;fill:rgb(0%,0%,0%);fill-opacity:1;" d="M 47.351562 48.148438 C 47.351562 47.050781 46.460938 46.15625 45.359375 46.15625 C 44.257812 46.15625 43.367188 47.050781 43.367188 48.148438 C 43.367188 49.25 44.257812 50.140625 45.359375 50.140625 C 46.460938 50.140625 47.351562 49.25 47.351562 48.148438 Z M 47.351562 48.148438 "/>
<path style=" stroke:none;fill-rule:nonzero;fill:rgb(0%,0%,0%);fill-opacity:1;" d="M 25.785156 41.140625 C 25.785156 40.042969 24.894531 39.148438 23.792969 39.148438 C 22.691406 39.148438 21.800781 40.042969 21.800781 41.140625 C 21.800781 42.242188 22.691406 43.132812 23.792969 43.132812 C 24.894531 43.132812 25.785156 42.242188 25.785156 41.140625 Z M 25.785156 41.140625 "/>
<path style=" stroke:none;fill-rule:nonzero;fill:rgb(0%,0%,0%);fill-opacity:1;" d="M 20.695312 84.84375 C 20.695312 83.742188 19.800781 82.851562 18.699219 82.851562 C 17.601562 82.851562 16.707031 83.742188 16.707031 84.84375 C 16.707031 85.945312 17.601562 86.835938 18.699219 86.835938 C 19.800781 86.835938 20.695312 85.945312 20.695312 84.84375 Z M 20.695312 84.84375 "/>
<path style="fill:none;stroke-width:0.3985;stroke-linecap:butt;stroke-linejoin:miter;stroke:rgb(0%,0%,0%);stroke-opacity:1;stroke-miterlimit:10;" d="M -0.000625 0.0015625 L -13.32875 -18.346094 L 26.659531 -36.69375 L -26.660781 -36.69375 L 13.331406 -18.346094 " transform="matrix(1,0,0,-1,45.36,48.15)"/>
<path style=" stroke:none;fill-rule:nonzero;fill:rgb(0%,0%,0%);fill-opacity:1;" d="M 47.351562 48.148438 C 47.351562 47.050781 46.460938 46.15625 45.359375 46.15625 C 44.257812 46.15625 43.367188 47.050781 43.367188 48.148438 C 43.367188 49.25 44.257812 50.140625 45.359375 50.140625 C 46.460938 50.140625 47.351562 49.25 47.351562 48.148438 Z M 47.351562 48.148438 "/>
<path style=" stroke:none;fill-rule:nonzero;fill:rgb(0%,0%,0%);fill-opacity:1;" d="M 34.023438 66.496094 C 34.023438 65.394531 33.132812 64.503906 32.03125 64.503906 C 30.929688 64.503906 30.039062 65.394531 30.039062 66.496094 C 30.039062 67.597656 30.929688 68.488281 32.03125 68.488281 C 33.132812 68.488281 34.023438 67.597656 34.023438 66.496094 Z M 34.023438 66.496094 "/>
<path style=" stroke:none;fill-rule:nonzero;fill:rgb(0%,0%,0%);fill-opacity:1;" d="M 74.011719 84.84375 C 74.011719 83.742188 73.121094 82.851562 72.019531 82.851562 C 70.917969 82.851562 70.027344 83.742188 70.027344 84.84375 C 70.027344 85.945312 70.917969 86.835938 72.019531 86.835938 C 73.121094 86.835938 74.011719 85.945312 74.011719 84.84375 Z M 74.011719 84.84375 "/>
<path style="fill:none;stroke-width:0.3985;stroke-linecap:butt;stroke-linejoin:miter;stroke:rgb(0%,0%,0%);stroke-opacity:1;stroke-miterlimit:10;" d="M -0.000625 0.0015625 L 13.331406 -18.346094 L 43.136094 14.017187 L 26.659531 -36.69375 L 21.569688 7.009375 " transform="matrix(1,0,0,-1,45.36,48.15)"/>
<path style=" stroke:none;fill-rule:nonzero;fill:rgb(0%,0%,0%);fill-opacity:1;" d="M 47.351562 48.148438 C 47.351562 47.050781 46.460938 46.15625 45.359375 46.15625 C 44.257812 46.15625 43.367188 47.050781 43.367188 48.148438 C 43.367188 49.25 44.257812 50.140625 45.359375 50.140625 C 46.460938 50.140625 47.351562 49.25 47.351562 48.148438 Z M 47.351562 48.148438 "/>
<path style=" stroke:none;fill-rule:nonzero;fill:rgb(0%,0%,0%);fill-opacity:1;" d="M 60.683594 66.496094 C 60.683594 65.394531 59.789062 64.503906 58.691406 64.503906 C 57.589844 64.503906 56.695312 65.394531 56.695312 66.496094 C 56.695312 67.597656 57.589844 68.488281 58.691406 68.488281 C 59.789062 68.488281 60.683594 67.597656 60.683594 66.496094 Z M 60.683594 66.496094 "/>
<path style=" stroke:none;fill-rule:nonzero;fill:rgb(0%,0%,0%);fill-opacity:1;" d="M 90.488281 34.132812 C 90.488281 33.035156 89.597656 32.140625 88.496094 32.140625 C 87.394531 32.140625 86.503906 33.035156 86.503906 34.132812 C 86.503906 35.234375 87.394531 36.125 88.496094 36.125 C 89.597656 36.125 90.488281 35.234375 90.488281 34.132812 Z M 90.488281 34.132812 "/>
<path style="fill:none;stroke-width:0.3985;stroke-linecap:butt;stroke-linejoin:miter;stroke:rgb(0%,0%,0%);stroke-opacity:1;stroke-miterlimit:10;" d="M -0.000625 0.0015625 L 21.569688 7.009375 L -0.000625 45.353125 L 43.136094 14.017187 L -0.000625 22.677344 " transform="matrix(1,0,0,-1,45.36,48.15)"/>
<path style=" stroke:none;fill-rule:nonzero;fill:rgb(0%,0%,0%);fill-opacity:1;" d="M 47.351562 48.148438 C 47.351562 47.050781 46.460938 46.15625 45.359375 46.15625 C 44.257812 46.15625 43.367188 47.050781 43.367188 48.148438 C 43.367188 49.25 44.257812 50.140625 45.359375 50.140625 C 46.460938 50.140625 47.351562 49.25 47.351562 48.148438 Z M 47.351562 48.148438 "/>
<path style=" stroke:none;fill-rule:nonzero;fill:rgb(0%,0%,0%);fill-opacity:1;" d="M 68.921875 41.140625 C 68.921875 40.042969 68.027344 39.148438 66.929688 39.148438 C 65.828125 39.148438 64.933594 40.042969 64.933594 41.140625 C 64.933594 42.242188 65.828125 43.132812 66.929688 43.132812 C 68.027344 43.132812 68.921875 42.242188 68.921875 41.140625 Z M 68.921875 41.140625 "/>
<path style=" stroke:none;fill-rule:nonzero;fill:rgb(0%,0%,0%);fill-opacity:1;" d="M 47.351562 2.796875 C 47.351562 1.695312 46.460938 0.800781 45.359375 0.800781 C 44.257812 0.800781 43.367188 1.695312 43.367188 2.796875 C 43.367188 3.894531 44.257812 4.789062 45.359375 4.789062 C 46.460938 4.789062 47.351562 3.894531 47.351562 2.796875 Z M 47.351562 2.796875 "/>
</g>
</svg>
