<?xml version="1.0" encoding="UTF-8"?>
<svg xmlns="http://www.w3.org/2000/svg" xmlns:xlink="http://www.w3.org/1999/xlink" width="57pt" height="42pt" viewBox="0 0 57 42" version="1.1">
<g id="surface1">
<path style=" stroke:none;fill-rule:nonzero;fill:rgb(0%,0%,0%);fill-opacity:1;" d="M 5.417969 3.15625 C 5.417969 1.746094 4.277344 0.605469 2.867188 0.605469 C 1.460938 0.605469 0.316406 1.746094 0.316406 3.15625 C 0.316406 4.566406 1.460938 5.707031 2.867188 5.707031 C 4.277344 5.707031 5.417969 4.566406 5.417969 3.15625 Z M 30.929688 3.15625 C 30.929688 1.746094 29.789062 0.605469 28.378906 0.605469 C 26.972656 0.605469 25.828125 1.746094 25.828125 3.15625 C 25.828125 4.566406 26.972656 5.707031 28.378906 5.707031 C 29.789062 5.707031 30.929688 4.566406 30.929688 3.15625 Z M 56.441406 3.15625 C 56.441406 1.746094 55.300781 0.605469 53.890625 0.605469 C 52.484375 0.605469 51.339844 1.746094 51.339844 3.15625 C 51.339844 4.566406 52.484375 5.707031 53.890625 5.707031 C 55.300781 5.707031 56.441406 4.566406 56.441406 3.15625 Z M 56.441406 3.15625 "/>
<path style="fill:none;stroke-width:0.3985;stroke-linecap:butt;stroke-linejoin:miter;stroke:rgb(0%,0%,0%);stroke-opacity:1;stroke-miterlimit:10;" d="M -25.512812 25.512187 L -12.962031 0.410625 " transform="matrix(1,0,0,-1,28.38,33.77)"/>
<path style="fill:none;stroke-width:0.31879;stroke-linecap:round;stroke-linejoin:round;stroke:rgb(0%,0%,0%);stroke-opacity:1;stroke-miterlimit:10;" d="M -1.196002 1.592547 C -1.09645 0.996847 0.000578202 0.0988953 0.301043 0.0010575 C 0.000571015 -0.101999 -1.096521 -0.994632 -1.196116 -1.595566 " transform="matrix(0.44725,0.89442,0.89442,-0.44725,15.4191,33.36012)"/>
<path style="fill:none;stroke-width:0.3985;stroke-linecap:butt;stroke-linejoin:miter;stroke:rgb(0%,0%,0%);stroke-opacity:1;stroke-miterlimit:10;" d="M 25.510625 25.512187 L 12.959844 0.410625 " transform="matrix(1,0,0,-1,28.38,33.77)"/>
<path style="fill:none;stroke-width:0.31879;stroke-linecap:round;stroke-linejoin:round;stroke:rgb(0%,0%,0%);stroke-opacity:1;stroke-miterlimit:10;" d="M -1.195138 1.593609 C -1.09729 0.996169 0.00154935 0.100043 0.300275 0.000479753 C 0.00155654 -0.100852 -1.097218 -0.995309 -1.195024 -1.594503 " transform="matrix(-0.44725,0.89442,0.89442,0.44725,41.3409,33.36012)"/>
<path style="fill:none;stroke-width:0.3985;stroke-linecap:butt;stroke-linejoin:miter;stroke:rgb(0%,0%,0%);stroke-opacity:1;stroke-miterlimit:10;" d="M -10.204219 -5.101094 C -10.204219 -3.694844 -11.34875 -2.550313 -12.755 -2.550313 C -14.165156 -2.550313 -15.305781 -3.694844 -15.305781 -5.101094 C -15.305781 -6.51125 -14.165156 -7.651875 -12.755 -7.651875 C -11.34875 -7.651875 -10.204219 -6.51125 -10.204219 -5.101094 Z M 15.3075 -5.101094 C 15.3075 -3.694844 14.166875 -2.550313 12.756719 -2.550313 C 11.346563 -2.550313 10.205938 -3.694844 10.205938 -5.101094 C 10.205938 -6.51125 11.346563 -7.651875 12.756719 -7.651875 C 14.166875 -7.651875 15.3075 -6.51125 15.3075 -5.101094 Z M 15.3075 -5.101094 " transform="matrix(1,0,0,-1,28.38,33.77)"/>
</g>
</svg>
