<?xml version="1.0" encoding="UTF-8"?>
<svg xmlns="http://www.w3.org/2000/svg" xmlns:xlink="http://www.w3.org/1999/xlink" width="83pt" height="42pt" viewBox="0 0 83 42" version="1.1">
<g id="surface1">
<path style=" stroke:none;fill-rule:nonzero;fill:rgb(0%,0%,0%);fill-opacity:1;" d="M 18.378906 3.15625 C 18.378906 1.746094 17.238281 0.605469 15.828125 0.605469 C 14.417969 0.605469 13.277344 1.746094 13.277344 3.15625 C 13.277344 4.566406 14.417969 5.707031 15.828125 5.707031 C 17.238281 5.707031 18.378906 4.566406 18.378906 3.15625 Z M 43.890625 3.15625 C 43.890625 1.746094 42.75 0.605469 41.339844 0.605469 C 39.929688 0.605469 38.789062 1.746094 38.789062 3.15625 C 38.789062 4.566406 39.929688 5.707031 41.339844 5.707031 C 42.75 5.707031 43.890625 4.566406 43.890625 3.15625 Z M 69.402344 3.15625 C 69.402344 1.746094 68.261719 0.605469 66.851562 0.605469 C 65.441406 0.605469 64.300781 1.746094 64.300781 3.15625 C 64.300781 4.566406 65.441406 5.707031 66.851562 5.707031 C 68.261719 5.707031 69.402344 4.566406 69.402344 3.15625 Z M 69.402344 3.15625 "/>
<path style="fill:none;stroke-width:0.3985;stroke-linecap:butt;stroke-linejoin:miter;stroke:rgb(0%,0%,0%);stroke-opacity:1;stroke-miterlimit:10;" d="M -28.062656 25.512187 L -38.097813 0.42625 " transform="matrix(1,0,0,-1,41.34,33.77)"/>
<path style="fill:none;stroke-width:0.31879;stroke-linecap:round;stroke-linejoin:round;stroke:rgb(0%,0%,0%);stroke-opacity:1;stroke-miterlimit:10;" d="M -1.194665 1.596164 C -1.097458 0.995555 0.000769046 0.101181 0.297448 0.00108221 C 0.00149667 -0.100474 -1.095259 -0.997774 -1.197531 -1.594033 " transform="matrix(-0.3714,0.92847,0.92847,0.3714,3.24228,33.34452)"/>
<path style="fill:none;stroke-width:0.3985;stroke-linecap:butt;stroke-linejoin:miter;stroke:rgb(0%,0%,0%);stroke-opacity:1;stroke-miterlimit:10;" d="M -22.961094 25.512187 L -12.925938 0.42625 " transform="matrix(1,0,0,-1,41.34,33.77)"/>
<path style="fill:none;stroke-width:0.31879;stroke-linecap:round;stroke-linejoin:round;stroke:rgb(0%,0%,0%);stroke-opacity:1;stroke-miterlimit:10;" d="M -1.197482 1.594153 C -1.095211 0.997895 0.00154495 0.100594 0.297497 -0.000961505 C 0.000817328 -0.10106 -1.097409 -0.995434 -1.194616 -1.596043 " transform="matrix(0.3714,0.92847,0.92847,-0.3714,28.41384,33.34452)"/>
<path style="fill:none;stroke-width:0.3985;stroke-linecap:butt;stroke-linejoin:miter;stroke:rgb(0%,0%,0%);stroke-opacity:1;stroke-miterlimit:10;" d="M -0.00015625 25.512187 L 12.550625 0.410625 " transform="matrix(1,0,0,-1,41.34,33.77)"/>
<path style="fill:none;stroke-width:0.31879;stroke-linecap:round;stroke-linejoin:round;stroke:rgb(0%,0%,0%);stroke-opacity:1;stroke-miterlimit:10;" d="M -1.195688 1.593211 C -1.09613 0.997509 0.000911069 0.0995632 0.299631 -0.00176614 C 0.000905679 -0.101332 -1.096183 -0.993979 -1.195774 -1.594916 " transform="matrix(0.44724,0.89442,0.89442,-0.44724,53.89101,33.36012)"/>
<path style="fill:none;stroke-width:0.3985;stroke-linecap:butt;stroke-linejoin:miter;stroke:rgb(0%,0%,0%);stroke-opacity:1;stroke-miterlimit:10;" d="M 25.511562 25.512187 L 38.062344 0.410625 " transform="matrix(1,0,0,-1,41.34,33.77)"/>
<path style="fill:none;stroke-width:0.31879;stroke-linecap:round;stroke-linejoin:round;stroke:rgb(0%,0%,0%);stroke-opacity:1;stroke-miterlimit:10;" d="M -1.195772 1.593008 C -1.096219 0.997307 0.000808531 0.0993559 0.299527 -0.00197564 C 0.000801344 -0.101539 -1.096291 -0.994171 -1.195886 -1.595105 " transform="matrix(0.44725,0.89442,0.89442,-0.44725,79.40296,33.36012)"/>
<path style="fill:none;stroke-width:0.3985;stroke-linecap:butt;stroke-linejoin:miter;stroke:rgb(0%,0%,0%);stroke-opacity:1;stroke-miterlimit:10;" d="M -10.203281 -5.101094 C -10.203281 -3.694844 -11.347813 -2.550313 -12.754063 -2.550313 C -14.164219 -2.550313 -15.30875 -3.694844 -15.30875 -5.101094 C -15.30875 -6.51125 -14.164219 -7.651875 -12.754063 -7.651875 C -11.347813 -7.651875 -10.203281 -6.51125 -10.203281 -5.101094 Z M 15.308437 -5.101094 C 15.308437 -3.694844 14.163906 -2.550313 12.757656 -2.550313 C 11.3475 -2.550313 10.202969 -3.694844 10.202969 -5.101094 C 10.202969 -6.51125 11.3475 -7.651875 12.757656 -7.651875 C 14.163906 -7.651875 15.308437 -6.51125 15.308437 -5.101094 Z M -35.715 -5.101094 C -35.715 -3.694844 -36.859531 -2.550313 -38.269688 -2.550313 C -39.675938 -2.550313 -40.820469 -3.694844 -40.820469 -5.101094 C -40.820469 -6.51125 -39.675938 -7.651875 -38.269688 -7.651875 C -36.859531 -7.651875 -35.715 -6.51125 -35.715 -5.101094 Z M 40.820156 -5.101094 C 40.820156 -3.694844 39.675625 -2.550313 38.269375 -2.550313 C 36.859219 -2.550313 35.714687 -3.694844 35.714687 -5.101094 C 35.714687 -6.51125 36.859219 -7.651875 38.269375 -7.651875 C 39.675625 -7.651875 40.820156 -6.51125 40.820156 -5.101094 Z M 40.820156 -5.101094 " transform="matrix(1,0,0,-1,41.34,33.77)"/>
</g>
</svg>
