<?xml version="1.0" encoding="UTF-8"?>
<svg xmlns="http://www.w3.org/2000/svg" xmlns:xlink="http://www.w3.org/1999/xlink" width="83pt" height="42pt" viewBox="0 0 83 42" version="1.1">
<g id="surface1">
<path style=" stroke:none;fill-rule:nonzero;fill:rgb(0%,0%,0%);fill-opacity:1;" d="M 18.753906 3.152344 C 18.753906 1.742188 17.609375 0.597656 16.199219 0.597656 C 14.792969 0.597656 13.648438 1.742188 13.648438 3.152344 C 13.648438 4.558594 14.792969 5.703125 16.199219 5.703125 C 17.609375 5.703125 18.753906 4.558594 18.753906 3.152344 Z M 44.265625 3.152344 C 44.265625 1.742188 43.121094 0.597656 41.714844 0.597656 C 40.304688 0.597656 39.160156 1.742188 39.160156 3.152344 C 39.160156 4.558594 40.304688 5.703125 41.714844 5.703125 C 43.121094 5.703125 44.265625 4.558594 44.265625 3.152344 Z M 69.777344 3.152344 C 69.777344 1.742188 68.632812 0.597656 67.226562 0.597656 C 65.816406 0.597656 64.671875 1.742188 64.671875 3.152344 C 64.671875 4.558594 65.816406 5.703125 67.226562 5.703125 C 68.632812 5.703125 69.777344 4.558594 69.777344 3.152344 Z M 69.777344 3.152344 "/>
<path style="fill:none;stroke-width:0.3985;stroke-linecap:butt;stroke-linejoin:miter;stroke:rgb(0%,0%,0%);stroke-opacity:1;stroke-miterlimit:10;" d="M -28.064563 25.511094 L -38.095813 0.425156 " transform="matrix(1,0,0,-1,41.713,33.765)"/>
<path style="fill:none;stroke-width:0.31879;stroke-linecap:round;stroke-linejoin:round;stroke:rgb(0%,0%,0%);stroke-opacity:1;stroke-miterlimit:10;" d="M -1.196592 1.593441 C -1.095764 0.994258 -0.00113642 0.0983792 0.29918 -0.000277204 C -0.00186293 -0.0996557 -1.09505 -0.995522 -1.195884 -1.595429 " transform="matrix(-0.37137,0.92844,0.92844,0.37137,3.61527,33.33952)"/>
<path style="fill:none;stroke-width:0.3985;stroke-linecap:butt;stroke-linejoin:miter;stroke:rgb(0%,0%,0%);stroke-opacity:1;stroke-miterlimit:10;" d="M -22.959094 25.511094 L -12.927844 0.425156 " transform="matrix(1,0,0,-1,41.713,33.765)"/>
<path style="fill:none;stroke-width:0.31879;stroke-linecap:round;stroke-linejoin:round;stroke:rgb(0%,0%,0%);stroke-opacity:1;stroke-miterlimit:10;" d="M -1.195801 1.595637 C -1.094967 0.99573 -0.00177982 0.0998635 0.299263 0.00048496 C -0.00105332 -0.0981715 -1.097132 -0.997677 -1.196509 -1.593233 " transform="matrix(0.37137,0.92844,0.92844,-0.37137,28.78685,33.33952)"/>
<path style="fill:none;stroke-width:0.3985;stroke-linecap:butt;stroke-linejoin:miter;stroke:rgb(0%,0%,0%);stroke-opacity:1;stroke-miterlimit:10;" d="M 0.00184375 25.511094 L 12.552625 0.409531 " transform="matrix(1,0,0,-1,41.713,33.765)"/>
<path style="fill:none;stroke-width:0.31879;stroke-linecap:round;stroke-linejoin:round;stroke:rgb(0%,0%,0%);stroke-opacity:1;stroke-miterlimit:10;" d="M -1.193992 1.59459 C -1.096151 0.995347 0.0010155 0.0973639 0.298018 0.00127789 C -0.000729814 -0.0983076 -1.096133 -0.99631 -1.193963 -1.593808 " transform="matrix(0.44717,0.89436,0.89436,-0.44717,54.26403,33.35513)"/>
<path style="fill:none;stroke-width:0.3985;stroke-linecap:butt;stroke-linejoin:miter;stroke:rgb(0%,0%,0%);stroke-opacity:1;stroke-miterlimit:10;" d="M 25.513562 25.511094 L 38.064344 0.409531 " transform="matrix(1,0,0,-1,41.713,33.765)"/>
<path style="fill:none;stroke-width:0.31879;stroke-linecap:round;stroke-linejoin:round;stroke:rgb(0%,0%,0%);stroke-opacity:1;stroke-miterlimit:10;" d="M -1.194091 1.594392 C -1.09625 0.995149 0.000916551 0.097166 0.297919 0.00107998 C -0.000828766 -0.0985055 -1.096232 -0.996508 -1.194062 -1.594006 " transform="matrix(0.44717,0.89436,0.89436,-0.44717,79.77597,33.35513)"/>
<path style="fill:none;stroke-width:0.3985;stroke-linecap:butt;stroke-linejoin:miter;stroke:rgb(0%,0%,0%);stroke-opacity:1;stroke-miterlimit:10;" d="M -10.205188 -5.102187 C -10.205188 -3.692031 -11.345813 -2.551406 -12.755969 -2.551406 C -14.166125 -2.551406 -15.30675 -3.692031 -15.30675 -5.102187 C -15.30675 -6.512344 -14.166125 -7.652969 -12.755969 -7.652969 C -11.345813 -7.652969 -10.205188 -6.512344 -10.205188 -5.102187 Z M 15.306531 -5.102187 C 15.306531 -3.692031 14.165906 -2.551406 12.75575 -2.551406 C 11.345594 -2.551406 10.204969 -3.692031 10.204969 -5.102187 C 10.204969 -6.512344 11.345594 -7.652969 12.75575 -7.652969 C 14.165906 -7.652969 15.306531 -6.512344 15.306531 -5.102187 Z M -35.716906 -5.102187 C -35.716906 -3.692031 -36.857531 -2.551406 -38.267688 -2.551406 C -39.677844 -2.551406 -40.818469 -3.692031 -40.818469 -5.102187 C -40.818469 -6.512344 -39.677844 -7.652969 -38.267688 -7.652969 C -36.857531 -7.652969 -35.716906 -6.512344 -35.716906 -5.102187 Z M 40.81825 -5.102187 C 40.81825 -3.692031 39.677625 -2.551406 38.267469 -2.551406 C 36.857312 -2.551406 35.716687 -3.692031 35.716687 -5.102187 C 35.716687 -6.512344 36.857312 -7.652969 38.267469 -7.652969 C 39.677625 -7.652969 40.81825 -6.512344 40.81825 -5.102187 Z M 40.81825 -5.102187 " transform="matrix(1,0,0,-1,41.713,33.765)"/>
</g>
</svg>
