<?xml version="1.0" encoding="UTF-8"?>
<svg xmlns="http://www.w3.org/2000/svg" xmlns:xlink="http://www.w3.org/1999/xlink" width="159pt" height="58pt" viewBox="0 0 159 58" version="1.1">
<g id="surface1">
<path style=" stroke:none;fill-rule:nonzero;fill:rgb(0%,0%,0%);fill-opacity:1;" d="M 5.703125 54.3125 C 5.703125 52.828125 4.5 51.621094 3.015625 51.621094 C 1.527344 51.621094 0.324219 52.828125 0.324219 54.3125 C 0.324219 55.796875 1.527344 57 3.015625 57 C 4.5 57 5.703125 55.796875 5.703125 54.3125 Z M 5.703125 54.3125 "/>
<path style=" stroke:none;fill-rule:nonzero;fill:rgb(0%,0%,0%);fill-opacity:1;" d="M 5.703125 3.289062 C 5.703125 1.800781 4.5 0.597656 3.015625 0.597656 C 1.527344 0.597656 0.324219 1.800781 0.324219 3.289062 C 0.324219 4.773438 1.527344 5.976562 3.015625 5.976562 C 4.5 5.976562 5.703125 4.773438 5.703125 3.289062 Z M 5.703125 3.289062 "/>
<path style=" stroke:none;fill-rule:nonzero;fill:rgb(0%,0%,0%);fill-opacity:1;" d="M 31.214844 54.3125 C 31.214844 52.828125 30.011719 51.621094 28.527344 51.621094 C 27.039062 51.621094 25.835938 52.828125 25.835938 54.3125 C 25.835938 55.796875 27.039062 57 28.527344 57 C 30.011719 57 31.214844 55.796875 31.214844 54.3125 Z M 31.214844 54.3125 "/>
<path style=" stroke:none;fill-rule:nonzero;fill:rgb(0%,0%,0%);fill-opacity:1;" d="M 31.214844 3.289062 C 31.214844 1.800781 30.011719 0.597656 28.527344 0.597656 C 27.039062 0.597656 25.835938 1.800781 25.835938 3.289062 C 25.835938 4.773438 27.039062 5.976562 28.527344 5.976562 C 30.011719 5.976562 31.214844 4.773438 31.214844 3.289062 Z M 31.214844 3.289062 "/>
<path style=" stroke:none;fill-rule:nonzero;fill:rgb(0%,0%,0%);fill-opacity:1;" d="M 56.726562 54.3125 C 56.726562 52.828125 55.523438 51.621094 54.039062 51.621094 C 52.550781 51.621094 51.347656 52.828125 51.347656 54.3125 C 51.347656 55.796875 52.550781 57 54.039062 57 C 55.523438 57 56.726562 55.796875 56.726562 54.3125 Z M 56.726562 54.3125 "/>
<path style=" stroke:none;fill-rule:nonzero;fill:rgb(0%,0%,0%);fill-opacity:1;" d="M 56.726562 3.289062 C 56.726562 1.800781 55.523438 0.597656 54.039062 0.597656 C 52.550781 0.597656 51.347656 1.800781 51.347656 3.289062 C 51.347656 4.773438 52.550781 5.976562 54.039062 5.976562 C 55.523438 5.976562 56.726562 4.773438 56.726562 3.289062 Z M 56.726562 3.289062 "/>
<path style=" stroke:none;fill-rule:nonzero;fill:rgb(0%,0%,0%);fill-opacity:1;" d="M 82.238281 54.3125 C 82.238281 52.828125 81.035156 51.621094 79.550781 51.621094 C 78.0625 51.621094 76.859375 52.828125 76.859375 54.3125 C 76.859375 55.796875 78.0625 57 79.550781 57 C 81.035156 57 82.238281 55.796875 82.238281 54.3125 Z M 82.238281 54.3125 "/>
<path style=" stroke:none;fill-rule:nonzero;fill:rgb(0%,0%,0%);fill-opacity:1;" d="M 82.238281 3.289062 C 82.238281 1.800781 81.035156 0.597656 79.550781 0.597656 C 78.0625 0.597656 76.859375 1.800781 76.859375 3.289062 C 76.859375 4.773438 78.0625 5.976562 79.550781 5.976562 C 81.035156 5.976562 82.238281 4.773438 82.238281 3.289062 Z M 82.238281 3.289062 "/>
<path style=" stroke:none;fill-rule:nonzero;fill:rgb(0%,0%,0%);fill-opacity:1;" d="M 107.75 54.3125 C 107.75 52.828125 106.546875 51.621094 105.0625 51.621094 C 103.578125 51.621094 102.371094 52.828125 102.371094 54.3125 C 102.371094 55.796875 103.578125 57 105.0625 57 C 106.546875 57 107.75 55.796875 107.75 54.3125 Z M 107.75 54.3125 "/>
<path style=" stroke:none;fill-rule:nonzero;fill:rgb(0%,0%,0%);fill-opacity:1;" d="M 107.75 3.289062 C 107.75 1.800781 106.546875 0.597656 105.0625 0.597656 C 103.578125 0.597656 102.371094 1.800781 102.371094 3.289062 C 102.371094 4.773438 103.578125 5.976562 105.0625 5.976562 C 106.546875 5.976562 107.75 4.773438 107.75 3.289062 Z M 107.75 3.289062 "/>
<path style=" stroke:none;fill-rule:nonzero;fill:rgb(0%,0%,0%);fill-opacity:1;" d="M 133.265625 54.3125 C 133.265625 52.828125 132.058594 51.621094 130.574219 51.621094 C 129.089844 51.621094 127.882812 52.828125 127.882812 54.3125 C 127.882812 55.796875 129.089844 57 130.574219 57 C 132.058594 57 133.265625 55.796875 133.265625 54.3125 Z M 133.265625 54.3125 "/>
<path style=" stroke:none;fill-rule:nonzero;fill:rgb(0%,0%,0%);fill-opacity:1;" d="M 133.265625 3.289062 C 133.265625 1.800781 132.058594 0.597656 130.574219 0.597656 C 129.089844 0.597656 127.882812 1.800781 127.882812 3.289062 C 127.882812 4.773438 129.089844 5.976562 130.574219 5.976562 C 132.058594 5.976562 133.265625 4.773438 133.265625 3.289062 Z M 133.265625 3.289062 "/>
<path style=" stroke:none;fill-rule:nonzero;fill:rgb(0%,0%,0%);fill-opacity:1;" d="M 158.777344 54.3125 C 158.777344 52.828125 157.570312 51.621094 156.085938 51.621094 C 154.601562 51.621094 153.394531 52.828125 153.394531 54.3125 C 153.394531 55.796875 154.601562 57 156.085938 57 C 157.570312 57 158.777344 55.796875 158.777344 54.3125 Z M 158.777344 54.3125 "/>
<path style=" stroke:none;fill-rule:nonzero;fill:rgb(0%,0%,0%);fill-opacity:1;" d="M 158.777344 3.289062 C 158.777344 1.800781 157.570312 0.597656 156.085938 0.597656 C 154.601562 0.597656 153.394531 1.800781 153.394531 3.289062 C 153.394531 4.773438 154.601562 5.976562 156.085938 5.976562 C 157.570312 5.976562 158.777344 4.773438 158.777344 3.289062 Z M 158.777344 3.289062 "/>
</g>
</svg>
