<?xml version="1.0" encoding="UTF-8"?>
<svg xmlns="http://www.w3.org/2000/svg" xmlns:xlink="http://www.w3.org/1999/xlink" width="160pt" height="58pt" viewBox="0 0 160 58" version="1.1">
<g id="surface1">
<path style=" stroke:none;fill-rule:nonzero;fill:rgb(0%,0%,0%);fill-opacity:1;" d="M 6.074219 54.3125 C 6.074219 52.828125 4.871094 51.625 3.382812 51.625 C 1.898438 51.625 0.695312 52.828125 0.695312 54.3125 C 0.695312 55.800781 1.898438 57.003906 3.382812 57.003906 C 4.871094 57.003906 6.074219 55.800781 6.074219 54.3125 Z M 6.074219 54.3125 "/>
<path style=" stroke:none;fill-rule:nonzero;fill:rgb(0%,0%,0%);fill-opacity:1;" d="M 6.074219 3.289062 C 6.074219 1.804688 4.871094 0.601562 3.382812 0.601562 C 1.898438 0.601562 0.695312 1.804688 0.695312 3.289062 C 0.695312 4.777344 1.898438 5.980469 3.382812 5.980469 C 4.871094 5.980469 6.074219 4.777344 6.074219 3.289062 Z M 6.074219 3.289062 "/>
<path style=" stroke:none;fill-rule:nonzero;fill:rgb(0%,0%,0%);fill-opacity:1;" d="M 31.585938 54.3125 C 31.585938 52.828125 30.382812 51.625 28.894531 51.625 C 27.410156 51.625 26.207031 52.828125 26.207031 54.3125 C 26.207031 55.800781 27.410156 57.003906 28.894531 57.003906 C 30.382812 57.003906 31.585938 55.800781 31.585938 54.3125 Z M 31.585938 54.3125 "/>
<path style=" stroke:none;fill-rule:nonzero;fill:rgb(0%,0%,0%);fill-opacity:1;" d="M 31.585938 3.289062 C 31.585938 1.804688 30.382812 0.601562 28.894531 0.601562 C 27.410156 0.601562 26.207031 1.804688 26.207031 3.289062 C 26.207031 4.777344 27.410156 5.980469 28.894531 5.980469 C 30.382812 5.980469 31.585938 4.777344 31.585938 3.289062 Z M 31.585938 3.289062 "/>
<path style=" stroke:none;fill-rule:nonzero;fill:rgb(0%,0%,0%);fill-opacity:1;" d="M 57.097656 54.3125 C 57.097656 52.828125 55.894531 51.625 54.40625 51.625 C 52.921875 51.625 51.71875 52.828125 51.71875 54.3125 C 51.71875 55.800781 52.921875 57.003906 54.40625 57.003906 C 55.894531 57.003906 57.097656 55.800781 57.097656 54.3125 Z M 57.097656 54.3125 "/>
<path style=" stroke:none;fill-rule:nonzero;fill:rgb(0%,0%,0%);fill-opacity:1;" d="M 57.097656 3.289062 C 57.097656 1.804688 55.894531 0.601562 54.40625 0.601562 C 52.921875 0.601562 51.71875 1.804688 51.71875 3.289062 C 51.71875 4.777344 52.921875 5.980469 54.40625 5.980469 C 55.894531 5.980469 57.097656 4.777344 57.097656 3.289062 Z M 57.097656 3.289062 "/>
<path style=" stroke:none;fill-rule:nonzero;fill:rgb(0%,0%,0%);fill-opacity:1;" d="M 82.609375 54.3125 C 82.609375 52.828125 81.40625 51.625 79.921875 51.625 C 78.433594 51.625 77.230469 52.828125 77.230469 54.3125 C 77.230469 55.800781 78.433594 57.003906 79.921875 57.003906 C 81.40625 57.003906 82.609375 55.800781 82.609375 54.3125 Z M 82.609375 54.3125 "/>
<path style=" stroke:none;fill-rule:nonzero;fill:rgb(0%,0%,0%);fill-opacity:1;" d="M 82.609375 3.289062 C 82.609375 1.804688 81.40625 0.601562 79.921875 0.601562 C 78.433594 0.601562 77.230469 1.804688 77.230469 3.289062 C 77.230469 4.777344 78.433594 5.980469 79.921875 5.980469 C 81.40625 5.980469 82.609375 4.777344 82.609375 3.289062 Z M 82.609375 3.289062 "/>
<path style=" stroke:none;fill-rule:nonzero;fill:rgb(0%,0%,0%);fill-opacity:1;" d="M 108.121094 54.3125 C 108.121094 52.828125 106.917969 51.625 105.433594 51.625 C 103.945312 51.625 102.742188 52.828125 102.742188 54.3125 C 102.742188 55.800781 103.945312 57.003906 105.433594 57.003906 C 106.917969 57.003906 108.121094 55.800781 108.121094 54.3125 Z M 108.121094 54.3125 "/>
<path style=" stroke:none;fill-rule:nonzero;fill:rgb(0%,0%,0%);fill-opacity:1;" d="M 108.121094 3.289062 C 108.121094 1.804688 106.917969 0.601562 105.433594 0.601562 C 103.945312 0.601562 102.742188 1.804688 102.742188 3.289062 C 102.742188 4.777344 103.945312 5.980469 105.433594 5.980469 C 106.917969 5.980469 108.121094 4.777344 108.121094 3.289062 Z M 108.121094 3.289062 "/>
<path style=" stroke:none;fill-rule:nonzero;fill:rgb(0%,0%,0%);fill-opacity:1;" d="M 133.632812 54.3125 C 133.632812 52.828125 132.429688 51.625 130.945312 51.625 C 129.457031 51.625 128.253906 52.828125 128.253906 54.3125 C 128.253906 55.800781 129.457031 57.003906 130.945312 57.003906 C 132.429688 57.003906 133.632812 55.800781 133.632812 54.3125 Z M 133.632812 54.3125 "/>
<path style=" stroke:none;fill-rule:nonzero;fill:rgb(0%,0%,0%);fill-opacity:1;" d="M 133.632812 3.289062 C 133.632812 1.804688 132.429688 0.601562 130.945312 0.601562 C 129.457031 0.601562 128.253906 1.804688 128.253906 3.289062 C 128.253906 4.777344 129.457031 5.980469 130.945312 5.980469 C 132.429688 5.980469 133.632812 4.777344 133.632812 3.289062 Z M 133.632812 3.289062 "/>
<path style=" stroke:none;fill-rule:nonzero;fill:rgb(0%,0%,0%);fill-opacity:1;" d="M 159.144531 54.3125 C 159.144531 52.828125 157.941406 51.625 156.457031 51.625 C 154.96875 51.625 153.765625 52.828125 153.765625 54.3125 C 153.765625 55.800781 154.96875 57.003906 156.457031 57.003906 C 157.941406 57.003906 159.144531 55.800781 159.144531 54.3125 Z M 159.144531 54.3125 "/>
<path style=" stroke:none;fill-rule:nonzero;fill:rgb(0%,0%,0%);fill-opacity:1;" d="M 159.144531 3.289062 C 159.144531 1.804688 157.941406 0.601562 156.457031 0.601562 C 154.96875 0.601562 153.765625 1.804688 153.765625 3.289062 C 153.765625 4.777344 154.96875 5.980469 156.457031 5.980469 C 157.941406 5.980469 159.144531 4.777344 159.144531 3.289062 Z M 159.144531 3.289062 "/>
</g>
</svg>
