<?xml version="1.0" encoding="UTF-8"?>
<svg xmlns="http://www.w3.org/2000/svg" xmlns:xlink="http://www.w3.org/1999/xlink" width="102pt" height="83pt" viewBox="0 0 102 83" version="1.1">
<g id="surface1">
<path style="fill-rule:nonzero;fill:rgb(100%,100%,100%);fill-opacity:1;stroke-width:0.69739;stroke-linecap:butt;stroke-linejoin:miter;stroke:rgb(100%,100%,100%);stroke-opacity:1;stroke-miterlimit:10;" d="M 46.443781 -103.47425 L 46.8305 -102.767219 L 47.279719 -102.700812 L 47.346125 -102.864875 L 46.928156 -103.47425 Z M 48.475031 -102.735969 L 49.697688 -103.251594 L 50.115656 -103.185187 L 50.439875 -102.41175 L 50.310969 -101.735969 L 49.471125 -101.638312 L 48.666438 -101.993781 Z M 54.592219 -104.732062 L 55.334406 -105.825812 L 55.818781 -105.763312 L 56.041438 -105.665656 L 56.334406 -105.923469 L 57.072688 -105.892219 L 57.268 -105.603156 L 56.685969 -105.247687 L 56.29925 -104.5055 L 55.881281 -103.798469 L 54.721125 -104.376594 Z M 58.619563 -106.501594 L 58.877375 -106.118781 L 59.810969 -106.310187 L 59.939875 -106.212531 L 61.166438 -106.341437 L 61.100031 -106.59925 L 60.584406 -106.888312 L 59.717219 -106.825812 Z M 59.682063 -107.532844 L 60.068781 -108.306281 L 60.682063 -108.083625 L 60.744563 -107.759406 L 60.42425 -107.341437 L 59.682063 -107.275031 Z M 61.068781 -107.310187 L 61.518 -106.728156 L 62.451594 -107.212531 L 63.322688 -107.439094 L 64.193781 -107.985969 L 64.193781 -108.372687 L 63.482844 -108.72425 L 62.518 -108.919562 L 62.033625 -108.6305 Z M 64.385188 -110.400031 L 64.709406 -110.142219 L 65.385188 -110.466437 L 66.896906 -111.173469 L 67.576594 -111.591437 L 67.896906 -112.075812 L 68.283625 -112.946906 L 69.088313 -113.462531 L 69.025813 -113.720344 L 68.252375 -114.364875 L 67.412531 -114.653937 L 67.123469 -114.525031 L 66.514094 -114.8805 L 66.029719 -115.521125 L 65.576594 -116.103156 L 65.225031 -116.071906 L 64.514094 -115.556281 L 64.451594 -114.653937 L 64.5805 -114.169562 L 64.256281 -113.040656 L 63.838313 -112.689094 L 63.807063 -112.173469 L 64.256281 -111.978156 L 64.67425 -111.368781 L 64.771906 -111.173469 L 64.451594 -110.818 Z M 64.385188 -110.400031 " transform="matrix(1,0,0,-1,-4.143,-29.568)"/>
<path style="fill-rule:nonzero;fill:rgb(100%,100%,100%);fill-opacity:1;stroke-width:0.69739;stroke-linecap:butt;stroke-linejoin:miter;stroke:rgb(100%,100%,100%);stroke-opacity:1;stroke-miterlimit:10;" d="M 31.498469 -90.396125 L 31.432063 -107.403937 L 31.756281 -107.59925 L 32.365656 -107.6305 L 32.658625 -107.403937 L 33.17425 -107.403937 L 33.2055 -107.985969 L 34.588313 -109.337531 L 34.685969 -109.853156 L 35.36175 -109.466437 L 35.490656 -109.435187 L 35.557063 -108.821906 L 35.846125 -108.501594 L 36.072688 -108.470344 L 36.459406 -108.177375 L 37.068781 -108.595344 L 37.197688 -109.177375 L 37.584406 -109.403937 L 37.810969 -109.884406 L 38.584406 -110.239875 L 39.260188 -111.431281 L 39.807063 -112.204719 L 40.260188 -112.751594 L 40.54925 -113.493781 L 41.54925 -113.84925 L 42.5805 -114.267219 L 42.771906 -115.134406 L 42.869563 -115.747687 L 42.67425 -116.423469 L 42.322688 -116.876594 L 41.998469 -116.716437 L 41.709406 -116.103156 L 41.162531 -115.814094 L 40.807063 -115.587531 L 40.646906 -115.747687 L 40.935969 -116.294562 L 40.967219 -117.03675 L 40.740656 -117.134406 L 40.357844 -116.747687 L 39.935969 -116.489875 L 40.033625 -116.810187 L 40.291438 -117.165656 L 40.131281 -117.325812 C 40.131281 -117.325812 39.971125 -117.263312 39.873469 -117.134406 C 39.775813 -117.0055 39.4555 -116.458625 39.4555 -116.458625 L 39.260188 -116.0055 C 39.260188 -116.0055 39.197688 -116.263312 39.068781 -116.200812 C 38.939875 -116.134406 38.810969 -115.907844 38.810969 -115.907844 L 39.162531 -115.521125 L 38.873469 -115.232062 L 38.873469 -114.235969 L 38.713313 -114.235969 L 38.553156 -114.91175 L 38.326594 -115.009406 L 38.135188 -114.267219 L 38.006281 -113.525031 L 37.842219 -113.427375 L 37.908625 -114.556281 L 37.908625 -114.782844 L 37.619563 -114.525031 L 36.908625 -113.333625 L 36.490656 -113.235969 L 36.36175 -112.493781 L 36.041438 -111.915656 L 35.717219 -111.689094 L 35.717219 -111.239875 L 36.135188 -110.982062 L 36.041438 -110.915656 L 35.525813 -111.044562 L 34.846125 -110.564094 L 34.3305 -109.982062 L 33.365656 -109.466437 L 32.560969 -108.950812 L 32.818781 -108.306281 L 32.818781 -107.985969 L 32.463313 -108.306281 L 31.885188 -108.532844 L 31.143 -108.306281 L 30.014094 -107.825812 L 28.920344 -107.825812 L 28.791438 -107.919562 L 27.502375 -107.146125 L 27.084406 -107.083625 L 26.537531 -105.923469 L 25.826594 -105.989875 L 25.119563 -106.278937 L 25.217219 -107.181281 L 25.443781 -106.59925 L 25.635188 -106.665656 L 25.346125 -107.532844 L 25.990656 -106.985969 L 26.119563 -107.310187 L 25.346125 -108.177375 L 25.088313 -108.114875 L 24.990656 -107.728156 L 24.732844 -107.568 L 24.475031 -107.790656 L 23.928156 -107.439094 L 23.314875 -107.857062 L 22.963313 -108.275031 L 22.283625 -108.693 L 21.350031 -108.66175 L 21.252375 -108.243781 L 21.994563 -108.114875 L 21.994563 -107.857062 L 21.545344 -107.728156 L 21.73675 -107.243781 L 22.189875 -106.470344 L 22.189875 -106.118781 L 22.221125 -105.954719 L 23.092219 -105.5055 L 23.283625 -105.763312 L 23.8305 -105.763312 L 23.572688 -105.247687 L 22.834406 -105.181281 L 21.834406 -105.732062 L 21.350031 -106.407844 L 20.998469 -106.923469 L 20.771906 -107.372687 L 19.932063 -107.66175 L 19.322688 -108.177375 L 19.256281 -108.501594 L 19.709406 -108.693 L 19.869563 -109.110969 L 19.322688 -109.7555 L 18.033625 -110.595344 L 16.48675 -111.431281 L 16.068781 -111.657844 L 15.006281 -111.884406 L 13.943781 -112.333625 L 14.295344 -112.591437 L 14.006281 -112.8805 L 13.908625 -113.107062 L 13.36175 -112.91175 L 12.717219 -112.946906 L 12.557063 -113.396125 L 12.365656 -113.396125 L 12.428156 -112.91175 L 11.721125 -113.169562 L 11.139094 -113.364875 L 10.463313 -113.107062 L 9.885188 -113.493781 L 9.240656 -113.493781 L 8.818781 -113.751594 L 8.498469 -113.91175 L 8.0805 -113.84925 L 7.564875 -113.622687 L 7.11175 -113.751594 L 6.920344 -113.943 L 6.596125 -113.720344 L 6.596125 -113.333625 L 7.209406 -113.075812 L 8.467219 -113.204719 L 9.334406 -112.8805 L 9.756281 -112.462531 L 10.334406 -112.333625 L 10.689875 -112.173469 L 11.23675 -112.204719 L 11.557063 -112.462531 L 11.752375 -112.400031 L 12.201594 -111.84925 L 12.814875 -111.657844 L 13.490656 -111.528937 L 13.748469 -111.462531 L 13.877375 -111.560187 L 14.037531 -111.560187 L 14.295344 -110.818 L 15.100031 -110.528937 L 15.48675 -109.790656 L 15.939875 -108.888312 L 16.260188 -108.595344 L 16.326594 -108.083625 L 16.002375 -108.341437 L 15.326594 -108.470344 L 15.197688 -107.985969 L 14.939875 -107.919562 L 14.748469 -108.114875 L 14.717219 -108.693 L 14.42425 -108.66175 L 14.135188 -107.501594 L 13.877375 -107.759406 L 13.650813 -107.66175 L 13.588313 -107.275031 L 12.783625 -107.310187 L 12.365656 -107.532844 L 11.850031 -107.470344 L 12.139094 -107.181281 L 12.23675 -106.665656 L 12.107844 -106.278937 L 12.396906 -106.083625 L 12.654719 -106.052375 L 12.525813 -105.696906 L 12.525813 -104.829719 L 12.3305 -104.634406 L 12.170344 -104.923469 L 10.947688 -104.923469 L 10.654719 -104.665656 L 10.525813 -103.896125 L 10.107844 -103.185187 L 10.107844 -102.993781 L 10.525813 -102.829719 L 10.560969 -102.41175 L 10.783625 -102.185187 L 10.623469 -102.091437 L 10.365656 -102.185187 L 10.143 -101.638312 L 10.334406 -100.642219 L 11.23675 -99.997687 L 11.752375 -99.673469 L 12.139094 -98.935187 L 12.685969 -98.677375 L 13.201594 -98.900031 L 13.264094 -99.384406 L 13.748469 -99.321906 L 14.393 -98.837531 L 14.717219 -98.966437 L 14.908625 -99.095344 L 15.228938 -99.095344 L 15.682063 -98.837531 L 15.842219 -97.966437 C 15.842219 -97.966437 15.908625 -97.388312 16.037531 -97.290656 C 16.166438 -97.193 16.228938 -97.09925 16.228938 -97.09925 L 16.002375 -96.712531 L 15.48675 -96.872687 L 14.842219 -97.032844 L 14.459406 -96.935187 L 13.748469 -96.583625 L 12.748469 -96.548469 L 12.041438 -95.810187 L 12.139094 -95.03675 L 12.268 -94.552375 L 11.850031 -94.196906 L 11.463313 -93.458625 L 11.557063 -93.298469 L 12.912531 -93.200812 L 13.3305 -93.200812 L 13.521906 -93.392219 L 13.650813 -93.392219 L 13.619563 -93.071906 L 14.393 -92.943 L 14.908625 -93.0055 L 15.197688 -93.232062 L 14.908625 -93.650031 L 14.810969 -93.939094 L 15.357844 -94.263312 L 16.357844 -94.618781 L 16.713313 -94.423469 L 16.260188 -93.552375 L 16.068781 -92.91175 L 16.260188 -92.747687 L 15.584406 -92.360969 L 15.48675 -92.138312 L 15.584406 -91.814094 L 15.42425 -91.040656 L 14.842219 -90.107062 L 14.36175 -89.271125 L 14.939875 -88.884406 L 15.584406 -88.884406 L 15.939875 -89.013312 L 16.775813 -88.982062 L 17.518 -88.271125 L 17.744563 -87.657844 L 18.482844 -87.177375 L 18.807063 -87.368781 L 19.353938 -87.239875 L 20.096125 -86.821906 L 20.318781 -86.790656 L 20.514094 -86.950812 L 21.416438 -86.919562 L 21.963313 -86.306281 L 22.189875 -86.306281 L 22.896906 -86.790656 L 23.283625 -87.208625 L 23.185969 -87.435187 L 23.314875 -87.657844 L 23.639094 -87.337531 L 24.412531 -87.400031 L 24.475031 -88.142219 L 24.86175 -88.431281 L 26.279719 -88.560187 L 27.537531 -89.400031 L 27.826594 -89.204719 L 28.857844 -89.720344 L 29.275813 -89.591437 L 29.662531 -89.431281 L 30.627375 -89.818 Z M 8.560969 -96.16175 L 8.982844 -97.228156 L 8.947688 -97.419562 L 8.369563 -97.357062 L 8.014094 -96.548469 L 7.662531 -96.259406 L 7.178156 -96.259406 L 7.146906 -95.743781 L 7.498469 -95.263312 L 7.725031 -95.743781 L 8.014094 -96.032844 Z M 8.04925 -102.829719 L 8.787531 -102.993781 L 9.529719 -103.185187 L 9.689875 -103.3805 L 9.369563 -104.118781 L 8.756281 -104.087531 L 8.0805 -103.3805 Z M 3.92425 -100.028937 L 4.150813 -100.544562 L 4.373469 -100.864875 L 4.150813 -101.028937 L 3.732844 -100.415656 L 3.732844 -100.028937 Z M 1.185969 -114.587531 L 1.86175 -114.138312 L 2.537531 -113.943 L 3.053156 -114.009406 L 3.150813 -114.329719 L 3.537531 -114.427375 L 3.92425 -114.040656 L 3.86175 -113.720344 L 4.408625 -113.591437 L 4.98675 -114.107062 L 4.760188 -114.458625 L 3.893 -114.685187 L 3.346125 -114.587531 L 2.603938 -114.364875 L 1.732844 -114.653937 L 1.412531 -114.716437 Z M 10.947688 -113.685187 L 11.268 -114.071906 L 11.685969 -113.751594 L 11.396906 -113.493781 Z M 11.525813 -114.298469 L 11.752375 -113.84925 L 12.170344 -113.91175 L 12.010188 -114.298469 Z M 16.228938 -113.91175 L 16.518 -114.267219 L 16.713313 -114.040656 L 16.553156 -113.653937 Z M 17.967219 -111.431281 L 18.193781 -112.591437 L 18.775813 -112.751594 L 19.771906 -112.173469 L 20.643 -111.657844 L 20.318781 -111.173469 L 20.416438 -110.693 L 19.998469 -110.946906 L 19.416438 -110.78675 L 19.740656 -110.564094 L 20.127375 -110.72425 L 20.900813 -110.368781 L 20.998469 -110.079719 L 20.514094 -109.919562 L 20.67425 -109.532844 L 20.127375 -109.919562 L 19.193781 -110.626594 L 18.225031 -111.204719 Z M 26.408625 -107.470344 L 26.893 -107.181281 L 26.697688 -106.825812 L 26.342219 -107.017219 Z M 26.408625 -107.470344 " transform="matrix(1,0,0,-1,-4.143,-29.568)"/>
<path style="fill:none;stroke-width:0.69739;stroke-linecap:butt;stroke-linejoin:miter;stroke:rgb(100%,100%,100%);stroke-opacity:1;stroke-miterlimit:10;" d="M 115.893 -16.34925 L 116.256281 -15.939094 L 116.689875 -15.782844 L 117.760188 -15.0055 L 118.213313 -14.892219 L 118.307063 -14.985969 L 117.279719 -16.009406 L 116.619563 -16.396125 L 116.209406 -16.579719 Z M 133.060969 -22.751594 L 133.189875 -23.251594 L 133.834406 -23.282844 L 134.092219 -23.040656 C 134.092219 -23.040656 134.076594 -22.751594 134.014094 -22.720344 C 133.947688 -22.689094 133.689875 -22.34925 133.689875 -22.34925 L 133.256281 -22.400031 L 132.932063 -22.431281 L 132.869563 -22.653937 Z M 113.076594 -22.16175 L 113.217219 -22.044562 L 113.768 -21.884406 L 114.475031 -21.431281 L 114.475031 -21.239875 L 114.603938 -21.110969 L 115.795344 -20.915656 L 116.279719 -20.528937 L 117.146906 -20.110969 L 117.182063 -19.853156 L 117.568781 -19.275031 L 117.920344 -19.114875 L 118.178156 -18.759406 L 118.631281 -18.306281 L 119.498469 -17.825812 L 120.435969 -17.728156 L 120.658625 -17.954719 L 120.596125 -18.146125 L 119.853938 -18.341437 L 119.564875 -18.950812 L 119.115656 -19.114875 L 119.018 -19.595344 L 118.533625 -20.239875 L 118.471125 -20.7555 L 118.631281 -20.853156 L 118.822688 -20.626594 L 119.533625 -20.048469 L 119.791438 -20.306281 L 120.240656 -20.306281 L 120.885188 -20.497687 L 121.17425 -20.72425 L 121.463313 -21.333625 L 122.014094 -21.884406 L 122.787531 -21.84925 L 123.076594 -21.657844 L 123.396906 -21.915656 L 123.721125 -22.013312 L 123.978938 -21.84925 L 124.201594 -21.84925 L 124.525813 -21.657844 L 125.3305 -20.950812 L 126.006281 -20.72425 L 127.326594 -20.657844 L 128.228938 -20.271125 L 128.744563 -20.013312 L 129.033625 -20.048469 L 129.033625 -21.173469 L 129.131281 -21.239875 L 129.713313 -21.400031 L 130.096125 -21.302375 L 131.322688 -20.982062 L 131.54925 -20.7555 L 131.838313 -20.853156 L 131.838313 -22.235969 L 132.482844 -22.84925 L 132.740656 -22.978156 L 132.998469 -23.173469 L 132.740656 -23.235969 L 132.576594 -23.173469 L 131.838313 -23.075812 L 131.420344 -23.204719 L 130.967219 -23.173469 L 130.322688 -23.462531 L 129.967219 -23.462531 L 128.810969 -23.204719 L 127.779719 -23.235969 L 127.393 -23.751594 L 126.006281 -23.8805 L 125.525813 -24.040656 L 125.29925 -24.653937 L 125.041438 -24.8805 L 124.943781 -24.845344 L 124.654719 -24.525031 L 123.752375 -25.009406 L 123.623469 -25.009406 L 123.396906 -24.685187 L 123.23675 -24.716437 L 122.850031 -25.587531 L 122.658625 -26.392219 L 122.021906 -27.78675 L 121.787531 -27.583625 L 121.514094 -27.376594 L 121.127375 -25.325812 L 120.42425 -25.052375 L 120.014094 -24.59925 L 117.600031 -24.052375 L 117.029719 -23.845344 L 115.389094 -23.41175 L 113.818781 -23.185187 Z M 113.076594 -22.16175 " transform="matrix(1,0,0,-1,-4.143,-29.568)"/>
<path style="fill:none;stroke-width:0.69739;stroke-linecap:butt;stroke-linejoin:miter;stroke:rgb(100%,100%,100%);stroke-opacity:1;stroke-miterlimit:10;" d="M 123.447688 -59.845344 L 123.4555 -59.200812 L 123.564875 -58.275031 L 124.029719 -57.693 L 124.404719 -56.884406 L 124.850031 -56.087531 L 124.775813 -55.040656 L 124.373469 -54.333625 L 124.353938 -53.665656 L 124.494563 -52.618781 L 124.3305 -51.185187 L 124.115656 -48.044562 L 123.857844 -45.052375 L 123.67425 -42.732062 L 123.619563 -42.548469 L 123.459406 -42.032844 L 123.201594 -41.290656 L 122.881281 -40.939094 L 122.592219 -40.423469 L 122.545344 -39.329719 L 113.420344 -39.845344 L 113.463313 -40.318 L 113.920344 -40.454719 L 114.103938 -40.681281 L 114.193781 -41.048469 L 114.967219 -41.732062 L 115.103938 -42.185187 L 114.967219 -42.868781 L 114.603938 -43.59925 L 114.467219 -44.09925 L 114.010188 -44.462531 L 113.646906 -44.59925 L 112.600031 -44.872687 L 112.463313 -45.239875 L 112.326594 -45.650031 L 112.463313 -45.923469 L 112.826594 -46.239875 L 112.779719 -47.060187 L 112.416438 -47.3805 L 112.279719 -47.696906 L 112.279719 -48.243781 L 111.916438 -48.337531 L 111.596125 -48.564094 L 111.54925 -48.837531 L 111.596125 -49.247687 L 111.256281 -49.509406 L 111.04925 -50.068 L 111.143 -50.794562 L 111.596125 -52.2555 L 113.053156 -53.7555 L 114.146906 -54.485969 L 114.103938 -55.353156 L 114.283625 -55.626594 L 115.560969 -55.716437 L 116.107844 -55.989875 L 115.971125 -56.716437 L 115.514094 -57.903937 L 115.377375 -58.540656 L 115.834406 -59.314094 L 117.107844 -60.360969 L 118.018 -60.497687 L 118.428156 -61.501594 L 118.838313 -62.138312 L 118.658625 -62.732062 L 118.975031 -63.552375 L 119.342219 -63.962531 L 119.623469 -63.78675 L 119.803156 -63.372687 L 120.244563 -63.025031 L 120.670344 -62.903937 L 121.185969 -63.138312 L 121.908625 -63.41175 L 122.146906 -63.353156 L 122.185969 -62.900031 L 121.932063 -62.419562 L 121.990656 -61.946906 L 122.357844 -61.677375 L 122.959406 -61.517219 L 123.209406 -61.427375 L 123.088313 -61.150031 L 122.932063 -60.681281 L 123.217219 -60.485969 Z M 123.447688 -59.845344 " transform="matrix(1,0,0,-1,-4.143,-29.568)"/>
<path style="fill-rule:nonzero;fill:rgb(100%,100%,100%);fill-opacity:1;stroke-width:0.69739;stroke-linecap:butt;stroke-linejoin:miter;stroke:rgb(100%,100%,100%);stroke-opacity:1;stroke-miterlimit:10;" d="M 122.557063 -39.325812 L 122.541438 -38.696906 L 122.307063 -37.794562 L 122.178156 -36.571906 L 121.951594 -36.087531 L 122.146906 -35.478156 L 122.307063 -34.896125 L 122.596125 -34.3805 L 122.467219 -33.704719 L 122.338313 -32.997687 L 122.435969 -32.642219 L 122.822688 -32.157844 L 122.853938 -31.610969 L 122.693781 -31.353156 L 122.822688 -30.837531 L 122.732844 -30.0055 L 123.279719 -28.8805 L 123.86175 -27.525031 L 123.893 -27.075812 L 123.826594 -26.884406 L 123.666438 -26.978156 L 122.8305 -28.235969 L 122.279719 -29.040656 L 121.896906 -29.396125 L 121.732844 -29.845344 L 121.346125 -30.0055 L 121.119563 -30.392219 L 120.8305 -30.329719 L 120.795344 -29.97425 L 121.053156 -29.489875 L 121.475031 -28.556281 L 121.826594 -28.235969 L 122.025813 -27.767219 L 121.514094 -27.388312 L 121.119563 -25.321906 L 120.416438 -25.052375 L 120.025813 -24.595344 L 117.61175 -24.052375 L 117.037531 -23.84925 L 115.400813 -23.419562 L 113.822688 -23.185187 L 113.072688 -22.165656 L 112.92425 -22.275031 L 112.685969 -22.243781 L 112.557063 -22.017219 L 112.291438 -22.075812 L 112.064875 -22.107062 L 111.709406 -22.302375 L 111.518 -22.173469 L 111.646906 -21.78675 L 112.033625 -21.173469 L 112.256281 -20.950812 L 111.869563 -20.657844 L 111.451594 -20.821906 L 110.873469 -21.208625 L 109.389094 -21.84925 L 108.810969 -21.978156 L 108.228938 -21.884406 L 108.033625 -21.708625 L 107.61175 -22.275031 L 107.568781 -22.818 L 107.568781 -24.5055 L 107.338313 -24.825812 L 106.291438 -25.59925 L 105.838313 -26.782844 L 105.928156 -26.829719 L 106.428156 -27.239875 L 106.564875 -27.876594 L 106.201594 -28.513312 L 106.201594 -29.28675 L 106.291438 -30.610969 L 106.885188 -31.200812 L 107.568781 -31.200812 L 107.932063 -31.841437 L 108.615656 -31.931281 L 109.389094 -33.068 L 110.803156 -33.888312 L 111.213313 -34.435187 L 111.393 -35.915656 L 111.529719 -36.575812 L 111.98675 -36.896125 L 112.033625 -37.169562 L 111.623469 -37.853156 L 111.666438 -38.489875 L 112.170344 -39.263312 L 112.670344 -39.493781 L 113.264094 -39.583625 L 113.529719 -39.857062 Z M 122.557063 -39.325812 " transform="matrix(1,0,0,-1,-4.143,-29.568)"/>
<path style="fill-rule:nonzero;fill:rgb(100%,100%,100%);fill-opacity:1;stroke-width:0.69739;stroke-linecap:butt;stroke-linejoin:miter;stroke:rgb(100%,100%,100%);stroke-opacity:1;stroke-miterlimit:10;" d="M 118.322688 -68.357062 L 117.529719 -68.497687 L 116.510188 -68.372687 L 116.596125 -68.052375 L 117.189875 -67.540656 L 117.377375 -66.814094 L 117.014094 -66.220344 L 101.389094 -66.720344 L 101.7055 -68.087531 L 101.7055 -69.728156 L 101.978938 -71.915656 L 102.025813 -79.454719 L 102.478938 -79.841437 L 103.072688 -79.568 L 103.619563 -79.794562 L 103.756281 -81.107062 L 114.838313 -80.876594 L 115.064875 -80.462531 L 115.010188 -79.7555 L 114.646906 -79.16175 L 114.963313 -78.864875 L 114.646906 -78.364875 L 114.783625 -77.864875 L 115.053156 -76.747687 L 115.557063 -76.337531 L 115.420344 -75.884406 L 116.146906 -74.814094 L 116.693781 -74.540656 L 116.67425 -74.243781 L 116.603938 -73.876594 L 117.17425 -72.763312 L 117.650813 -72.513312 L 117.728938 -71.829719 L 118.0805 -71.583625 L 117.4555 -71.485969 L 117.185969 -70.685187 L 117.744563 -70.212531 L 117.853938 -69.810187 L 118.11175 -69.0055 Z M 118.322688 -68.357062 " transform="matrix(1,0,0,-1,-4.143,-29.568)"/>
<path style="fill-rule:nonzero;fill:rgb(100%,100%,100%);fill-opacity:1;stroke-width:0.69739;stroke-linecap:butt;stroke-linejoin:miter;stroke:rgb(100%,100%,100%);stroke-opacity:1;stroke-miterlimit:10;" d="M 111.271906 -49.439094 L 110.771906 -48.821906 L 110.541438 -48.368781 L 97.721125 -48.845344 L 97.264094 -48.868781 L 97.514094 -49.368781 L 97.467219 -49.825812 L 97.971125 -50.59925 L 98.584406 -51.419562 L 99.201594 -51.966437 L 99.631281 -52.013312 L 99.928156 -52.193 L 99.928156 -52.78675 L 99.564875 -53.103156 L 99.471125 -53.560187 L 99.881281 -54.243781 L 100.385188 -54.837531 L 100.885188 -55.200812 L 101.158625 -57.525031 L 101.221125 -64.712531 L 101.268 -65.646125 L 101.357844 -66.716437 L 105.826594 -66.544562 L 110.451594 -66.407844 L 114.596125 -66.247687 L 116.920344 -66.204719 L 117.350031 -66.884406 L 117.217219 -67.544562 L 116.600031 -68.025031 L 116.48675 -68.388312 L 117.557063 -68.482062 L 118.334406 -68.345344 L 118.67425 -67.247687 L 118.807063 -66.083625 L 119.225031 -65.571906 L 119.740656 -65.278937 L 119.752375 -64.669562 L 119.9555 -64.282844 L 119.615656 -63.775031 L 119.350031 -63.97425 L 118.9555 -63.528937 L 118.697688 -62.579719 L 118.857844 -62.079719 L 118.471125 -61.396125 L 118.103938 -60.485969 L 117.150813 -60.325812 L 115.760188 -59.208625 L 115.416438 -58.388312 L 115.576594 -57.751594 L 115.98675 -56.544562 L 116.0805 -55.97425 L 115.689875 -55.767219 L 114.326594 -55.610969 L 114.119563 -55.267219 L 114.096125 -54.427375 L 113.006281 -53.743781 L 111.615656 -52.193 L 111.158625 -50.735969 L 111.11175 -49.892219 Z M 111.271906 -49.439094 " transform="matrix(1,0,0,-1,-4.143,-29.568)"/>
<path style="fill-rule:nonzero;fill:rgb(100%,100%,100%);fill-opacity:1;stroke-width:0.69739;stroke-linecap:butt;stroke-linejoin:miter;stroke:rgb(100%,100%,100%);stroke-opacity:1;stroke-miterlimit:10;" d="M 121.143 -91.489875 L 120.48675 -90.860969 L 120.685969 -89.763312 L 120.557063 -89.587531 L 118.709406 -89.78675 L 113.725031 -89.876594 L 113.588313 -89.400031 L 113.768 -87.716437 L 114.428156 -86.532844 L 115.432063 -84.798469 L 115.318781 -84.321906 L 115.568781 -84.185187 L 115.658625 -83.798469 L 115.2055 -83.388312 L 115.182063 -83.001594 L 114.818781 -82.134406 L 114.787531 -80.872687 L 103.732844 -81.056281 L 103.740656 -82.962531 L 103.877375 -84.829719 L 104.014094 -85.607062 L 104.514094 -86.423469 L 104.697688 -87.427375 L 105.560969 -88.521125 L 105.607844 -89.157844 L 105.744563 -89.294562 L 105.607844 -90.982062 L 105.014094 -91.982062 L 105.334406 -92.392219 L 105.197688 -92.892219 L 105.060969 -94.353156 L 104.787531 -94.989875 L 104.810969 -95.708625 L 105.744563 -95.407844 L 108.158625 -95.446906 L 110.221125 -96.157844 L 111.510188 -96.384406 L 112.252375 -96.091437 L 112.893 -96.318 L 113.537531 -96.509406 L 113.701594 -96.091437 L 113.057063 -95.868781 L 112.541438 -95.962531 L 111.994563 -95.642219 C 111.994563 -95.642219 112.025813 -95.384406 112.154719 -95.353156 C 112.283625 -95.318 112.768 -95.157844 112.768 -95.157844 L 113.119563 -95.446906 L 113.475031 -95.2555 L 114.119563 -95.384406 L 114.408625 -95.868781 L 114.475031 -96.318 L 115.373469 -96.384406 L 115.728938 -96.735969 L 115.568781 -97.060187 L 115.310969 -97.220344 L 115.631281 -97.540656 L 117.307063 -98.251594 L 118.018 -97.993781 L 118.209406 -97.509406 L 118.725031 -97.3805 L 119.0805 -97.091437 L 119.338313 -97.282844 L 119.498469 -97.864875 L 119.04925 -98.025031 L 119.178156 -98.153937 L 119.853938 -97.896125 L 120.303156 -97.220344 L 120.463313 -97.122687 L 120.045344 -97.060187 L 120.2055 -96.735969 L 120.17425 -96.446906 L 120.592219 -96.34925 L 120.818781 -96.091437 L 120.947688 -96.2555 C 120.947688 -96.2555 120.916438 -96.864875 121.076594 -96.864875 C 121.23675 -96.864875 121.912531 -96.993781 121.912531 -96.993781 L 122.721125 -97.3805 L 122.912531 -97.669562 L 123.494563 -97.669562 L 123.717219 -97.864875 L 124.170344 -97.251594 L 124.170344 -96.962531 L 123.912531 -96.962531 L 123.23675 -96.415656 L 122.076594 -96.2555 L 121.432063 -95.802375 L 121.654719 -95.2555 L 122.107844 -95.318 L 122.139094 -95.189094 L 121.783625 -94.997687 L 121.783625 -94.900031 L 122.428156 -94.900031 L 122.783625 -94.28675 L 122.525813 -93.903937 L 122.463313 -93.353156 L 122.170344 -93.388312 L 121.783625 -93.806281 L 121.654719 -94.321906 L 121.045344 -94.193 L 120.850031 -93.837531 L 121.2055 -93.450812 L 121.584406 -92.763312 L 121.373469 -92.282844 Z M 121.143 -91.489875 " transform="matrix(1,0,0,-1,-4.143,-29.568)"/>
<path style="fill:none;stroke-width:0.69739;stroke-linecap:butt;stroke-linejoin:miter;stroke:rgb(100%,100%,100%);stroke-opacity:1;stroke-miterlimit:10;" d="M 125.842219 -91.528937 L 125.791438 -91.778937 L 124.760188 -91.778937 L 124.471125 -91.614875 L 124.053156 -91.552375 L 122.697688 -91.939094 L 122.346125 -91.778937 L 121.8305 -92.614875 L 121.607844 -92.771125 L 121.385188 -92.275031 L 121.158625 -91.501594 L 120.475031 -90.860969 L 120.701594 -89.7555 L 120.564875 -89.575812 L 120.201594 -89.618781 L 118.623469 -89.794562 L 113.732844 -89.868781 L 113.5805 -89.427375 L 113.752375 -87.7555 L 114.373469 -86.626594 L 115.416438 -84.802375 L 115.326594 -84.318 L 115.572688 -84.189094 L 115.658625 -83.806281 L 115.197688 -83.392219 L 115.17425 -82.966437 L 114.810969 -82.142219 L 114.787531 -80.954719 L 115.053156 -80.462531 L 115.006281 -79.778937 L 114.654719 -79.165656 L 114.959406 -78.872687 L 114.646906 -78.372687 L 114.73675 -78.044562 L 115.053156 -76.743781 L 115.54925 -76.337531 L 115.420344 -75.864875 L 116.146906 -74.810187 L 116.713313 -74.540656 L 116.670344 -74.204719 L 116.61175 -73.868781 L 117.185969 -72.759406 L 117.650813 -72.517219 L 117.682063 -72.337531 L 125.123469 -71.564094 L 125.158625 -72.818 L 125.193781 -76.134406 L 125.029719 -82.318 L 124.998469 -85.122687 L 125.545344 -88.857062 Z M 125.842219 -91.528937 " transform="matrix(1,0,0,-1,-4.143,-29.568)"/>
<path style="fill-rule:nonzero;fill:rgb(100%,100%,100%);fill-opacity:1;stroke-width:0.69739;stroke-linecap:butt;stroke-linejoin:miter;stroke:rgb(100%,100%,100%);stroke-opacity:1;stroke-miterlimit:10;" d="M 113.416438 -39.767219 L 113.467219 -40.321906 L 113.912531 -40.439094 L 114.100031 -40.681281 L 114.201594 -41.052375 L 114.9555 -41.720344 L 115.092219 -42.196906 L 114.959406 -42.8805 L 114.643 -43.525031 L 114.482844 -44.071906 L 114.04925 -44.388312 L 113.709406 -44.5055 L 112.596125 -44.876594 L 112.318781 -45.642219 L 112.467219 -45.915656 L 112.8305 -46.251594 L 112.775813 -47.056281 L 112.42425 -47.360969 L 112.271906 -47.689094 L 112.295344 -48.239875 L 111.920344 -48.333625 L 111.596125 -48.552375 L 111.541438 -48.821906 L 111.596125 -49.243781 L 111.287531 -49.466437 L 110.795344 -48.841437 L 110.545344 -48.353156 L 97.443781 -48.853156 L 97.264094 -48.888312 L 96.853938 -47.985969 L 96.807063 -46.665656 L 96.490656 -45.845344 L 96.353938 -44.798469 L 95.896906 -44.071906 L 95.713313 -43.114875 L 95.166438 -41.610969 L 94.939875 -40.540656 L 94.666438 -40.107062 L 94.346125 -39.560187 L 94.73675 -38.595344 L 95.010188 -37.454719 L 94.463313 -37.044562 L 94.373469 -36.497687 L 94.553156 -35.997687 L 94.896906 -35.997687 L 111.365656 -35.743781 L 111.533625 -36.579719 L 111.978938 -36.888312 L 112.033625 -37.173469 L 111.627375 -37.84925 L 111.666438 -38.485969 L 112.166438 -39.243781 L 112.670344 -39.501594 L 113.283625 -39.603156 Z M 113.416438 -39.767219 " transform="matrix(1,0,0,-1,-4.143,-29.568)"/>
<path style="fill-rule:nonzero;fill:rgb(100%,100%,100%);fill-opacity:1;stroke-width:0.69739;stroke-linecap:butt;stroke-linejoin:miter;stroke:rgb(100%,100%,100%);stroke-opacity:1;stroke-miterlimit:10;" d="M 94.693781 -25.669562 L 94.603938 -23.982062 L 94.23675 -22.525031 L 93.873469 -19.837531 L 93.783625 -17.8805 L 93.420344 -17.196906 L 93.100031 -16.193 L 93.100031 -14.142219 L 93.23675 -13.368781 L 92.873469 -12.282844 L 98.877375 -12.290656 L 98.943781 -10.646125 L 99.072688 -10.614875 L 99.521906 -10.712531 L 99.908625 -10.872687 L 100.068781 -11.966437 L 100.357844 -13.193 L 100.682063 -13.513312 L 101.646906 -13.513312 L 101.713313 -13.802375 L 102.967219 -13.868781 L 102.967219 -14.28675 L 103.935969 -14.28675 L 103.998469 -14.028937 L 104.225031 -13.802375 L 104.67425 -13.673469 L 104.932063 -13.868781 L 105.514094 -13.868781 L 106.287531 -14.384406 L 107.350031 -14.868781 L 107.8305 -14.962531 L 107.928156 -14.771125 L 108.217219 -14.673469 L 108.314875 -15.2555 L 108.8305 -15.509406 L 108.928156 -15.415656 L 109.185969 -15.446906 L 109.185969 -15.864875 L 109.701594 -16.060187 L 110.310969 -16.060187 L 110.635188 -15.896125 L 111.279719 -15.2555 L 111.795344 -15.157844 L 111.9555 -15.509406 L 112.053156 -15.767219 L 112.244563 -15.767219 L 112.439875 -15.607062 L 114.209406 -15.544562 L 114.564875 -16.153937 L 114.693781 -16.153937 L 114.834406 -15.939094 L 115.721125 -15.864875 L 115.600031 -16.318 L 114.814875 -16.685187 L 112.971125 -17.493781 L 112.018 -17.896125 L 111.408625 -18.41175 L 110.92425 -19.118781 L 110.475031 -19.892219 L 110.119563 -20.052375 L 109.217219 -21.052375 L 108.959406 -21.083625 L 108.096125 -21.634406 L 107.607844 -22.271125 L 107.560969 -22.907844 L 107.5805 -24.509406 L 107.307063 -24.845344 L 106.291438 -25.595344 L 105.850031 -26.78675 L 106.420344 -27.232062 L 106.557063 -27.876594 L 106.185969 -28.521125 L 106.221125 -29.267219 L 106.295344 -30.610969 L 106.896906 -31.208625 L 107.560969 -31.208625 L 107.939875 -31.833625 L 108.61175 -31.931281 L 109.381281 -33.064094 L 110.791438 -33.884406 L 111.221125 -34.454719 L 111.353938 -35.739875 L 95.170344 -35.966437 L 95.103938 -28.857062 L 95.014094 -28.267219 L 94.193781 -27.583625 L 93.963313 -27.216437 L 93.963313 -26.900031 L 94.373469 -26.579719 L 94.646906 -26.306281 Z M 94.693781 -25.669562 " transform="matrix(1,0,0,-1,-4.143,-29.568)"/>
<path style="fill-rule:nonzero;fill:rgb(50%,50%,50%);fill-opacity:1;stroke-width:0.69739;stroke-linecap:butt;stroke-linejoin:miter;stroke:rgb(100%,100%,100%);stroke-opacity:1;stroke-miterlimit:10;" d="M 75.787531 -63.927375 L 72.459406 -63.673469 L 72.287531 -65.853156 L 76.365656 -66.083625 L 82.752375 -66.345344 L 82.287531 -71.208625 L 82.193781 -74.763312 L 82.240656 -75.083625 L 83.103938 -75.810187 L 83.514094 -76.040656 L 83.650813 -75.993781 L 83.787531 -75.583625 L 84.060969 -75.946906 L 84.471125 -75.946906 L 84.471125 -75.673469 L 85.018 -75.946906 L 84.928156 -76.720344 L 85.748469 -76.767219 L 86.248469 -76.993781 L 87.068781 -77.1305 L 87.568781 -77.497687 L 88.025813 -77.087531 L 88.709406 -77.22425 L 89.209406 -77.907844 L 89.393 -77.907844 L 89.393 -78.360969 L 89.846125 -78.497687 L 90.303156 -78.044562 L 90.666438 -78.181281 L 91.170344 -78.181281 L 91.350031 -78.681281 L 92.607844 -79.095344 L 92.881281 -78.958625 L 93.244563 -78.138312 L 93.471125 -78.138312 L 93.701594 -78.548469 L 94.521906 -78.685187 L 95.248469 -78.958625 L 95.842219 -79.142219 L 96.2055 -78.958625 L 96.342219 -78.458625 L 97.209406 -78.458625 L 97.619563 -78.638312 L 98.162531 -78.228156 L 98.393 -78.228156 L 98.529719 -78.548469 L 99.350031 -78.548469 L 99.666438 -78.138312 L 100.033625 -78.228156 L 100.443781 -78.732062 L 101.0805 -79.095344 L 101.717219 -79.278937 L 102.103938 -79.501594 L 102.025813 -72.083625 L 101.752375 -69.900031 L 101.721125 -68.1305 L 101.435969 -66.825812 L 101.279719 -65.396125 L 101.264094 -64.638312 L 98.846125 -64.700812 L 89.600031 -64.607062 L 80.627375 -64.200812 Z M 75.787531 -63.927375 " transform="matrix(1,0,0,-1,-4.143,-29.568)"/>
<path style="fill-rule:nonzero;fill:rgb(50%,50%,50%);fill-opacity:1;stroke-width:0.69739;stroke-linecap:butt;stroke-linejoin:miter;stroke:rgb(100%,100%,100%);stroke-opacity:1;stroke-miterlimit:10;" d="M 72.025813 -65.868781 L 76.545344 -66.083625 L 82.740656 -66.314094 L 82.275813 -70.985969 L 82.217219 -74.603156 L 82.228938 -75.017219 L 83.096125 -75.778937 L 83.490656 -76.068 L 83.728938 -75.954719 L 83.803156 -75.595344 L 84.029719 -75.954719 L 84.447688 -75.962531 L 84.447688 -75.673469 L 84.783625 -75.864875 L 85.010188 -75.946906 L 84.935969 -76.739875 L 85.752375 -76.7555 L 86.334406 -76.997687 L 87.123469 -77.09925 L 87.596125 -77.513312 L 88.021906 -77.09925 L 88.764094 -77.22425 L 89.2055 -77.864875 L 89.420344 -77.931281 L 89.389094 -78.321906 L 89.826594 -78.478156 L 90.291438 -78.071906 L 90.717219 -78.193 L 91.162531 -78.200812 L 91.346125 -78.685187 L 92.607844 -79.107062 L 92.92425 -78.954719 L 93.221125 -78.122687 L 93.291438 -78.122687 L 93.471125 -78.138312 L 93.717219 -78.548469 L 94.498469 -78.681281 L 95.162531 -78.907844 L 95.846125 -79.146125 L 96.213313 -78.950812 L 96.353938 -78.450812 L 97.244563 -78.458625 L 97.603938 -78.642219 L 98.162531 -78.22425 L 98.381281 -78.232062 L 98.54925 -78.552375 L 99.357844 -78.552375 L 99.662531 -78.146125 L 100.033625 -78.228156 L 100.420344 -78.708625 L 101.123469 -79.114875 L 101.693781 -79.275031 L 101.994563 -79.435187 L 102.482844 -79.833625 L 103.088313 -79.568 L 103.623469 -79.794562 L 103.73675 -81.013312 L 103.728938 -82.946906 L 103.865656 -84.845344 L 104.006281 -85.564094 L 104.537531 -86.443 L 104.717219 -87.431281 L 105.557063 -88.532844 L 105.596125 -89.16175 L 105.744563 -89.318 L 105.600031 -90.985969 L 105.025813 -91.985969 L 105.334406 -92.415656 L 105.2055 -92.8805 L 105.072688 -94.357062 L 104.775813 -95.021125 L 104.834406 -95.720344 L 103.7055 -96.032844 L 101.740656 -96.935187 L 101.545344 -97.321906 L 101.029719 -97.708625 L 100.61175 -97.997687 L 100.353938 -98.16175 L 99.225031 -99.22425 L 98.678156 -99.642219 L 97.615656 -100.28675 L 96.48675 -100.771125 L 95.232844 -101.446906 L 94.877375 -101.735969 L 93.717219 -102.443 L 93.041438 -102.571906 L 92.268 -103.669562 L 91.463313 -103.732062 L 91.271906 -104.118781 L 91.721125 -104.5055 L 91.432063 -105.603156 L 91.17425 -106.501594 L 90.947688 -107.275031 L 90.787531 -108.177375 L 90.947688 -108.66175 L 91.303156 -110.048469 L 91.494563 -111.271125 L 91.850031 -111.818 L 91.654719 -112.107062 L 91.045344 -112.493781 L 89.916438 -111.720344 L 88.822688 -111.497687 L 88.564875 -111.591437 L 87.920344 -111.462531 L 87.084406 -110.853156 L 86.053156 -110.626594 L 84.537531 -109.950812 L 84.119563 -109.177375 L 83.86175 -107.888312 L 83.217219 -107.501594 L 83.088313 -107.052375 L 83.217219 -106.923469 L 83.279719 -106.243781 L 83.025813 -106.114875 L 82.896906 -105.923469 L 83.150813 -105.052375 L 82.8305 -104.603156 L 82.185969 -104.345344 L 81.510188 -103.47425 L 80.803156 -102.153937 L 79.963313 -101.638312 L 79.994563 -101.251594 L 78.932063 -98.806281 L 78.771906 -97.966437 L 78.416438 -97.579719 L 78.385188 -97.290656 L 77.193781 -96.228156 L 76.678156 -95.614875 L 76.678156 -95.388312 L 76.162531 -94.970344 L 74.810969 -94.747687 L 73.326594 -94.618781 L 72.717219 -94.165656 L 71.814875 -94.521125 L 71.103938 -94.810187 L 70.654719 -95.454719 L 70.459406 -96.196906 L 69.592219 -97.419562 L 69.107844 -97.903937 L 68.592219 -97.708625 L 68.23675 -97.482062 L 67.853938 -97.353156 L 67.0805 -96.903937 L 67.0805 -96.775031 L 66.725031 -96.388312 L 65.693781 -95.970344 L 64.213313 -94.423469 L 63.760188 -93.489875 L 63.760188 -91.8805 L 63.115656 -90.591437 L 63.021906 -90.044562 L 62.697688 -89.84925 L 62.471125 -89.431281 L 61.475031 -89.013312 L 61.217219 -88.689094 L 59.79925 -87.110969 L 59.541438 -86.466437 L 58.607844 -86.017219 L 58.318781 -85.146125 L 57.803156 -84.568 L 57.416438 -84.470344 L 57.287531 -83.53675 L 58.881281 -83.673469 L 64.666438 -84.220344 L 70.451594 -84.540656 L 70.896906 -80.66175 L 71.670344 -69.591437 L 71.990656 -65.857062 L 72.264094 -65.864875 M 91.994563 -111.626594 L 91.881281 -110.208625 L 91.334406 -108.775031 L 91.221125 -107.372687 L 91.529719 -105.728156 L 92.189875 -104.360969 L 92.881281 -103.282844 L 93.510188 -102.571906 L 93.639094 -102.622687 L 92.685969 -103.943 L 91.818781 -105.247687 L 91.416438 -106.568 L 91.350031 -107.59925 L 91.529719 -108.821906 L 92.045344 -110.2555 L 92.139094 -111.28675 L 92.17425 -111.575812 Z M 91.994563 -111.626594 " transform="matrix(1,0,0,-1,-4.143,-29.568)"/>
<path style="fill-rule:nonzero;fill:rgb(50%,50%,50%);fill-opacity:1;stroke-width:0.69739;stroke-linecap:butt;stroke-linejoin:miter;stroke:rgb(100%,100%,100%);stroke-opacity:1;stroke-miterlimit:10;" d="M 57.416438 -84.485969 L 57.260188 -83.540656 L 58.982844 -83.646125 L 64.994563 -84.232062 L 70.428156 -84.568 L 70.869563 -80.841437 L 71.639094 -69.708625 L 71.98675 -65.845344 L 72.29925 -65.868781 L 72.463313 -63.646125 L 51.740656 -61.525031 L 48.252375 -85.525031 L 51.334406 -85.919562 L 51.592219 -83.923469 Z M 57.416438 -84.485969 " transform="matrix(1,0,0,-1,-4.143,-29.568)"/>
<path style="fill-rule:nonzero;fill:rgb(50%,50%,50%);fill-opacity:1;stroke-width:0.69739;stroke-linecap:butt;stroke-linejoin:miter;stroke:rgb(100%,100%,100%);stroke-opacity:1;stroke-miterlimit:10;" d="M 101.197688 -64.634406 L 98.685969 -64.677375 L 89.502375 -64.583625 L 80.623469 -64.173469 L 75.713313 -63.923469 L 76.490656 -51.052375 L 80.889094 -51.189094 L 88.920344 -51.353156 L 97.744563 -51.552375 L 98.760188 -51.552375 L 99.197688 -51.982062 L 99.600031 -51.978156 L 99.92425 -52.181281 L 99.912531 -52.778937 L 99.54925 -53.122687 L 99.482844 -53.568 L 99.850031 -54.247687 L 100.435969 -54.884406 L 100.900813 -55.204719 L 101.162531 -57.443 Z M 101.197688 -64.634406 " transform="matrix(1,0,0,-1,-4.143,-29.568)"/>
<path style="fill-rule:nonzero;fill:rgb(100%,100%,100%);fill-opacity:1;stroke-width:0.69739;stroke-linecap:butt;stroke-linejoin:miter;stroke:rgb(100%,100%,100%);stroke-opacity:1;stroke-miterlimit:10;" d="M 96.857844 -47.962531 L 97.502375 -49.360969 L 97.475031 -49.818 L 98.166438 -50.91175 L 98.7055 -51.540656 L 97.701594 -51.540656 L 89.037531 -51.353156 L 80.908625 -51.177375 L 76.475031 -51.021125 L 76.689875 -46.771125 L 70.248469 -46.189094 L 71.115656 -37.419562 L 74.213313 -37.626594 L 78.221125 -37.853156 L 81.775813 -38.079719 L 86.514094 -38.310187 L 88.654719 -38.216437 L 89.064875 -38.673469 L 90.021906 -39.263312 L 90.248469 -39.446906 L 91.115656 -39.173469 L 91.889094 -39.083625 L 92.435969 -39.03675 L 92.79925 -39.310187 L 93.607844 -39.6305 L 94.201594 -39.946906 L 94.291438 -40.267219 L 94.475031 -40.677375 L 94.838313 -40.677375 L 94.998469 -40.685187 L 95.17425 -41.618781 L 95.756281 -43.306281 L 95.869563 -44.056281 L 96.373469 -44.806281 L 96.48675 -45.825812 L 96.807063 -46.669562 Z M 96.857844 -47.962531 " transform="matrix(1,0,0,-1,-4.143,-29.568)"/>
<path style="fill-rule:nonzero;fill:rgb(100%,100%,100%);fill-opacity:1;stroke-width:0.69739;stroke-linecap:butt;stroke-linejoin:miter;stroke:rgb(100%,100%,100%);stroke-opacity:1;stroke-miterlimit:10;" d="M 94.935969 -40.653937 L 94.92425 -40.53675 L 94.350031 -39.571906 L 94.721125 -38.634406 L 95.018 -37.458625 L 94.463313 -37.044562 L 94.385188 -36.497687 L 94.545344 -35.989875 L 95.178156 -35.993781 L 95.154719 -34.993781 L 95.088313 -28.982062 L 94.963313 -28.232062 L 94.154719 -27.568 L 93.959406 -27.235969 L 93.943781 -26.915656 L 94.346125 -26.610969 L 94.654719 -26.278937 L 94.701594 -25.747687 L 83.092219 -25.427375 L 72.17425 -24.743781 L 71.115656 -37.431281 L 74.021906 -37.610969 L 77.994563 -37.853156 L 81.529719 -38.03675 L 86.268 -38.298469 L 88.658625 -38.212531 L 89.04925 -38.66175 L 90.084406 -39.310187 L 90.23675 -39.454719 L 91.139094 -39.16175 L 92.443781 -39.040656 L 92.779719 -39.306281 L 93.615656 -39.626594 L 94.201594 -39.950812 L 94.283625 -40.247687 L 94.490656 -40.693 Z M 94.935969 -40.653937 " transform="matrix(1,0,0,-1,-4.143,-29.568)"/>
<path style="fill:none;stroke-width:0.69739;stroke-linecap:butt;stroke-linejoin:miter;stroke:rgb(100%,100%,100%);stroke-opacity:1;stroke-miterlimit:10;" d="M 94.709406 -25.689094 L 94.584406 -24.0055 L 94.252375 -22.650031 L 93.873469 -20.052375 L 93.783625 -17.864875 L 93.435969 -17.251594 L 93.084406 -16.216437 L 93.092219 -14.134406 L 93.217219 -13.372687 L 92.850031 -12.282844 L 87.143 -12.173469 L 83.439875 -12.044562 L 78.158625 -11.78675 L 73.584406 -11.360969 L 72.189875 -24.743781 L 83.135188 -25.41175 Z M 94.709406 -25.689094 " transform="matrix(1,0,0,-1,-4.143,-29.568)"/>
<path style="fill-rule:nonzero;fill:rgb(100%,100%,100%);fill-opacity:1;stroke-width:0.69739;stroke-linecap:butt;stroke-linejoin:miter;stroke:rgb(100%,100%,100%);stroke-opacity:1;stroke-miterlimit:10;" d="M 71.807063 -28.548469 L 50.537531 -25.868781 L 47.732844 -43.493781 L 70.29925 -46.200812 Z M 71.807063 -28.548469 " transform="matrix(1,0,0,-1,-4.143,-29.568)"/>
<path style="fill:none;stroke-width:0.69739;stroke-linecap:butt;stroke-linejoin:miter;stroke:rgb(100%,100%,100%);stroke-opacity:1;stroke-miterlimit:10;" d="M 73.568781 -11.353156 L 67.4555 -10.790656 L 61.623469 -10.083625 L 55.795344 -9.278937 L 49.353938 -8.216437 L 45.678156 -7.53675 L 39.158625 -6.157844 L 38.268 -10.41175 L 38.951594 -11.915656 L 38.678156 -12.825812 L 39.041438 -13.735969 L 39.678156 -14.009406 L 40.600031 -16.153937 L 41.135188 -16.78675 L 41.228938 -17.017219 L 41.912531 -17.243781 L 42.002375 -17.653937 L 40.592219 -21.16175 L 40.592219 -21.66175 L 41.092219 -22.302375 L 41.271906 -22.302375 L 42.228938 -21.708625 L 42.365656 -21.482062 L 42.685969 -21.618781 L 42.639094 -22.665656 L 43.185969 -25.169562 L 43.779719 -25.673469 L 43.963313 -25.806281 L 44.326594 -26.263312 L 44.232844 -26.946906 L 44.369563 -27.6305 L 44.600031 -27.814094 L 45.053156 -27.357062 L 45.600031 -27.357062 L 46.240656 -27.677375 L 46.740656 -27.493781 L 47.560969 -27.493781 L 48.287531 -27.814094 L 48.834406 -27.720344 L 48.928156 -27.1305 L 49.518 -26.993781 L 49.791438 -27.267219 L 49.885188 -27.903937 L 50.166438 -28.071906 L 50.545344 -25.872687 L 71.814875 -28.548469 Z M 73.568781 -11.353156 " transform="matrix(1,0,0,-1,-4.143,-29.568)"/>
<path style="fill-rule:nonzero;fill:rgb(50%,50%,50%);fill-opacity:1;stroke-width:0.69739;stroke-linecap:butt;stroke-linejoin:miter;stroke:rgb(100%,100%,100%);stroke-opacity:1;stroke-miterlimit:10;" d="M 75.725031 -63.954719 L 76.701594 -46.751594 L 54.107844 -44.232062 L 51.67425 -61.7555 Z M 75.725031 -63.954719 " transform="matrix(1,0,0,-1,-4.143,-29.568)"/>
<path style="fill-rule:nonzero;fill:rgb(100%,100%,100%);fill-opacity:1;stroke-width:0.69739;stroke-linecap:butt;stroke-linejoin:miter;stroke:rgb(100%,100%,100%);stroke-opacity:1;stroke-miterlimit:10;" d="M 29.584406 -35.165656 L 31.334406 -28.146125 L 31.607844 -27.306281 L 32.107844 -26.118781 L 31.857844 -25.665656 L 31.353938 -25.689094 L 31.197688 -25.482062 L 31.287531 -25.2555 L 31.353938 -24.638312 L 32.244563 -23.548469 L 32.607844 -23.454719 L 32.834406 -23.228156 L 32.951594 -22.591437 L 33.131281 -22.454719 L 33.908625 -21.290656 L 34.682063 -20.427375 L 34.725031 -19.673469 L 34.045344 -19.150031 L 33.73675 -18.275031 L 36.451594 -5.653937 L 39.146906 -6.157844 L 38.268 -10.415656 L 38.975031 -11.907844 L 38.662531 -12.837531 L 39.053156 -13.763312 L 39.678156 -14.013312 L 40.443781 -15.915656 L 41.143 -16.798469 L 41.244563 -17.028937 L 41.908625 -17.2555 L 41.982844 -17.673469 L 40.596125 -21.134406 L 40.560969 -21.646125 L 41.088313 -22.310187 L 41.268 -22.298469 L 42.244563 -21.696906 L 42.381281 -21.478156 L 42.689875 -21.610969 L 42.635188 -22.677375 L 43.182063 -25.185187 L 43.963313 -25.818 L 44.29925 -26.247687 L 44.154719 -27.060187 L 44.365656 -27.622687 L 44.5805 -27.837531 L 45.072688 -27.368781 L 45.639094 -27.3805 L 46.221125 -27.646125 L 46.775813 -27.509406 L 47.533625 -27.478156 L 48.326594 -27.798469 L 48.869563 -27.739875 L 48.971125 -27.134406 L 49.553156 -26.982062 L 49.807063 -27.282844 L 49.893 -27.868781 L 50.178156 -28.110969 L 48.506281 -38.794562 C 48.506281 -38.794562 30.978938 -35.466437 29.584406 -35.165656 Z M 29.584406 -35.165656 " transform="matrix(1,0,0,-1,-4.143,-29.568)"/>
<path style="fill-rule:nonzero;fill:rgb(50%,50%,50%);fill-opacity:1;stroke-width:0.69739;stroke-linecap:butt;stroke-linejoin:miter;stroke:rgb(100%,100%,100%);stroke-opacity:1;stroke-miterlimit:10;" d="M 51.7055 -61.790656 L 35.018 -59.423469 L 39.119563 -37.001594 L 48.443781 -38.743781 L 48.146906 -40.860969 L 47.685969 -43.485969 L 49.240656 -43.669562 L 52.510188 -44.028937 L 54.146906 -44.200812 Z M 51.7055 -61.790656 " transform="matrix(1,0,0,-1,-4.143,-29.568)"/>
<path style="fill-rule:nonzero;fill:rgb(50%,50%,50%);fill-opacity:1;stroke-width:0.69739;stroke-linecap:butt;stroke-linejoin:miter;stroke:rgb(100%,100%,100%);stroke-opacity:1;stroke-miterlimit:10;" d="M 28.873469 -76.239875 L 28.350031 -76.669562 L 28.287531 -76.962531 L 28.381281 -77.153937 L 32.150813 -79.278937 L 34.568781 -80.794562 L 37.498469 -82.501594 L 40.850031 -84.497687 L 43.295344 -84.982062 L 48.268 -85.521125 L 51.7055 -61.782844 L 35.021906 -59.407844 L 34.404719 -62.681281 L 34.084406 -62.681281 L 33.744563 -63.208625 L 33.244563 -63.185187 L 32.994563 -62.638312 L 32.447688 -62.568 L 32.264094 -62.341437 L 32.0805 -62.341437 L 31.900813 -62.454719 L 31.514094 -62.66175 L 31.490656 -64.048469 L 31.443781 -64.392219 L 31.3305 -66.896125 L 31.033625 -67.329719 L 30.920344 -67.989875 L 31.467219 -68.970344 L 31.717219 -70.1305 L 31.877375 -70.337531 L 32.0805 -70.450812 L 32.057063 -70.903937 L 31.740656 -71.177375 L 31.057063 -71.521125 L 30.670344 -71.907844 L 30.373469 -72.638312 L 30.260188 -73.614875 L 29.689875 -74.16175 L 29.279719 -74.298469 L 29.307063 -74.466437 L 29.217219 -74.806281 L 29.307063 -74.966437 L 30.037531 -75.079719 L 29.920344 -75.626594 L 29.627375 -76.060187 Z M 28.873469 -76.239875 " transform="matrix(1,0,0,-1,-4.143,-29.568)"/>
<path style="fill-rule:nonzero;fill:rgb(50%,50%,50%);fill-opacity:1;stroke-width:0.69739;stroke-linecap:butt;stroke-linejoin:miter;stroke:rgb(100%,100%,100%);stroke-opacity:1;stroke-miterlimit:10;" d="M 39.131281 -36.978156 L 34.420344 -62.646125 L 34.057063 -62.716437 L 33.744563 -63.193 L 33.271906 -63.196906 L 32.978938 -62.650031 L 32.4555 -62.575812 L 32.303156 -62.353156 L 32.096125 -62.345344 L 31.541438 -62.669562 L 31.478938 -64.025031 L 31.408625 -65.173469 L 31.338313 -66.888312 L 31.04925 -67.302375 L 30.564875 -67.087531 L 16.79925 -46.325812 L 20.584406 -32.860969 Z M 39.131281 -36.978156 " transform="matrix(1,0,0,-1,-4.143,-29.568)"/>
<path style="fill-rule:nonzero;fill:rgb(100%,100%,100%);fill-opacity:1;stroke-width:0.69739;stroke-linecap:butt;stroke-linejoin:miter;stroke:rgb(100%,100%,100%);stroke-opacity:1;stroke-miterlimit:10;" d="M 29.635188 -34.97425 L 31.396906 -28.040656 L 31.607844 -27.196906 L 32.076594 -26.079719 L 31.951594 -25.845344 L 31.451594 -25.837531 L 31.197688 -25.5055 L 31.287531 -25.212531 L 31.389094 -24.564094 L 32.275813 -23.470344 L 32.639094 -23.251594 L 32.869563 -23.025031 L 33.166438 -22.314094 L 33.971125 -21.185187 L 34.682063 -20.415656 L 34.725031 -19.728156 L 34.076594 -19.235969 L 33.721125 -18.310187 L 31.197688 -17.591437 L 28.189875 -16.884406 L 25.115656 -16.907844 L 25.025813 -16.634406 L 23.932063 -17.044562 L 23.041438 -16.931281 L 22.564875 -16.610969 L 22.314875 -16.747687 L 21.381281 -16.704719 L 21.037531 -16.431281 L 19.990656 -16.021125 L 19.8305 -16.040656 L 18.967219 -15.747687 L 18.576594 -16.110969 L 17.350031 -16.040656 L 16.162531 -15.22425 L 16.29925 -15.064094 L 16.346125 -13.513312 L 15.889094 -12.739875 L 15.068781 -12.626594 L 14.932063 -12.126594 L 14.463313 -12.032844 L 13.310969 -12.443 L 12.857844 -13.732062 L 12.213313 -15.728156 L 11.568781 -17.017219 L 10.572688 -19.818 L 9.283625 -22.525031 L 7.67425 -25.03675 L 7.287531 -25.614875 L 7.123469 -27.325812 L 7.201594 -29.732062 Z M 29.635188 -34.97425 " transform="matrix(1,0,0,-1,-4.143,-29.568)"/>
<path style="fill-rule:nonzero;fill:rgb(50%,50%,50%);fill-opacity:1;stroke-width:0.69739;stroke-linecap:butt;stroke-linejoin:miter;stroke:rgb(100%,100%,100%);stroke-opacity:1;stroke-miterlimit:10;" d="M 28.8305 -76.153937 L 29.615656 -76.056281 L 29.912531 -75.657844 L 30.021906 -75.071906 L 29.314875 -74.954719 L 29.209406 -74.821906 L 29.307063 -74.415656 L 29.275813 -74.298469 L 29.658625 -74.173469 L 30.264094 -73.610969 L 30.381281 -72.614875 L 30.654719 -71.935187 L 31.041438 -71.5055 L 31.744563 -71.189094 L 32.072688 -70.868781 L 32.084406 -70.446906 L 31.889094 -70.333625 L 31.685969 -70.118781 L 31.4555 -68.954719 L 30.920344 -67.989875 L 31.033625 -67.294562 L 30.54925 -67.087531 L 16.787531 -46.329719 L 20.557063 -32.860969 L 7.189875 -29.732062 L 6.889094 -30.673469 L 6.857844 -32.157844 L 5.826594 -34.509406 L 5.213313 -35.025031 L 5.150813 -35.247687 L 4.795344 -35.41175 L 4.506281 -36.247687 L 4.342219 -36.892219 L 4.893 -37.728156 L 5.213313 -38.568 L 5.439875 -39.275031 L 5.373469 -40.564094 L 5.021906 -41.177375 L 4.893 -42.337531 L 4.697688 -43.075812 L 5.053156 -43.84925 L 5.600031 -44.751594 L 6.053156 -45.716437 L 6.310969 -46.525031 L 6.244563 -47.165656 L 6.182063 -47.263312 L 6.182063 -47.681281 L 7.307063 -48.939094 L 7.209406 -49.423469 L 7.0805 -49.872687 L 6.951594 -50.259406 L 6.98675 -51.903937 L 7.404719 -52.642219 L 7.791438 -53.157844 L 8.338313 -53.2555 L 8.533625 -53.802375 L 8.307063 -54.513312 L 7.889094 -54.833625 L 7.662531 -54.833625 L 7.502375 -55.607062 L 7.596125 -56.185187 L 8.240656 -57.056281 L 8.564875 -58.118781 L 8.853938 -59.052375 L 9.11175 -59.665656 L 9.787531 -60.825812 L 10.076594 -61.341437 L 10.17425 -61.919562 L 10.498469 -62.114875 L 10.498469 -62.595344 L 10.334406 -62.982062 L 9.982844 -64.400031 L 9.885188 -64.78675 L 10.369563 -65.333625 L 11.2055 -65.431281 L 12.107844 -65.78675 L 12.881281 -66.204719 L 13.459406 -66.204719 L 14.041438 -66.818 L 14.557063 -67.782844 L 14.779719 -68.232062 L 15.553156 -68.653937 L 16.521906 -68.814094 L 16.810969 -69.232062 L 16.939875 -69.876594 L 16.650813 -70.0055 L 16.713313 -70.200812 L 17.357844 -70.360969 L 17.904719 -70.392219 L 18.533625 -70.056281 L 19.307063 -70.892219 L 19.467219 -71.345344 L 19.982844 -72.181281 L 20.04925 -72.825812 L 20.04925 -74.693 L 20.146906 -75.048469 L 22.143 -75.337531 L 26.072688 -75.888312 Z M 11.268 -67.443 L 11.525813 -67.751594 L 11.494563 -68.009406 L 10.850031 -67.993781 L 10.73675 -67.751594 L 10.607844 -67.462531 Z M 11.654719 -67.443 L 11.896906 -67.314094 L 12.607844 -67.735969 L 13.217219 -67.97425 L 13.041438 -68.103156 L 12.139094 -68.056281 L 11.818781 -67.735969 Z M 15.779719 -71.392219 L 16.135188 -71.857062 L 16.295344 -72.052375 L 16.600031 -72.16175 L 16.713313 -71.872687 L 16.521906 -71.521125 L 15.990656 -71.114875 L 15.779719 -71.150031 Z M 15.490656 -73.114875 L 15.842219 -73.743781 L 16.084406 -74.126594 L 15.795344 -74.177375 L 15.537531 -73.935187 C 15.537531 -73.935187 15.393 -73.646125 15.393 -73.564094 C 15.393 -73.485969 15.393 -73.1305 15.393 -73.1305 Z M 15.490656 -73.114875 " transform="matrix(1,0,0,-1,-4.143,-29.568)"/>
</g>
</svg>
