<?xml version="1.0" encoding="UTF-8"?>
<svg xmlns="http://www.w3.org/2000/svg" xmlns:xlink="http://www.w3.org/1999/xlink" width="103pt" height="107pt" viewBox="0 0 103 107" version="1.1">
<g id="surface1">
<path style="fill-rule:nonzero;fill:rgb(100%,100%,100%);fill-opacity:1;stroke-width:0.69739;stroke-linecap:butt;stroke-linejoin:miter;stroke:rgb(100%,100%,100%);stroke-opacity:1;stroke-miterlimit:10;" d="M 46.445781 -103.47625 L 46.8325 -102.765312 L 47.281719 -102.702812 L 47.344219 -102.862969 L 46.92625 -103.47625 Z M 48.473125 -102.734062 L 49.695781 -103.249687 L 50.117656 -103.187187 L 50.437969 -102.41375 L 50.309063 -101.737969 L 49.473125 -101.640312 L 48.668438 -101.995781 Z M 54.594219 -104.730156 L 55.336406 -105.827812 L 55.816875 -105.761406 L 56.043438 -105.667656 L 56.3325 -105.925469 L 57.074688 -105.890312 L 57.266094 -105.60125 L 56.687969 -105.245781 L 56.30125 -104.5075 L 55.883281 -103.796562 L 54.723125 -104.378594 Z M 58.621563 -106.503594 L 58.879375 -106.116875 L 59.812969 -106.312187 L 59.941875 -106.214531 L 61.164531 -106.343437 L 61.102031 -106.60125 L 60.586406 -106.890312 L 59.715313 -106.823906 Z M 59.684063 -107.534844 L 60.070781 -108.308281 L 60.680156 -108.081719 L 60.746563 -107.761406 L 60.422344 -107.339531 L 59.684063 -107.277031 Z M 61.066875 -107.308281 L 61.52 -106.730156 L 62.453594 -107.210625 L 63.324688 -107.437187 L 64.191875 -107.984062 L 64.191875 -108.370781 L 63.484844 -108.72625 L 62.516094 -108.917656 L 62.035625 -108.628594 Z M 64.387188 -110.402031 L 64.7075 -110.144219 L 65.383281 -110.464531 L 66.898906 -111.175469 L 67.574688 -111.593437 L 67.898906 -112.077812 L 68.285625 -112.945 L 69.090313 -113.460625 L 69.023906 -113.718437 L 68.250469 -114.362969 L 67.414531 -114.652031 L 67.125469 -114.523125 L 66.512188 -114.878594 L 66.027813 -115.523125 L 65.578594 -116.10125 L 65.223125 -116.07 L 64.516094 -115.554375 L 64.449688 -114.652031 L 64.578594 -114.171562 L 64.258281 -113.042656 L 63.840313 -112.687187 L 63.805156 -112.171562 L 64.258281 -111.980156 L 64.67625 -111.366875 L 64.773906 -111.175469 L 64.449688 -110.82 Z M 64.387188 -110.402031 " transform="matrix(1,0,0,-1,-3.52,-5.57)"/>
<path style="fill-rule:nonzero;fill:rgb(100%,100%,100%);fill-opacity:1;stroke-width:0.69739;stroke-linecap:butt;stroke-linejoin:miter;stroke:rgb(100%,100%,100%);stroke-opacity:1;stroke-miterlimit:10;" d="M 31.496563 -90.398125 L 31.434063 -107.405937 L 31.754375 -107.597344 L 32.367656 -107.6325 L 32.656719 -107.405937 L 33.172344 -107.405937 L 33.203594 -107.984062 L 34.590313 -109.339531 L 34.687969 -109.855156 L 35.36375 -109.468437 L 35.492656 -109.433281 L 35.555156 -108.823906 L 35.848125 -108.499687 L 36.070781 -108.468437 L 36.4575 -108.179375 L 37.070781 -108.597344 L 37.199688 -109.175469 L 37.586406 -109.402031 L 37.812969 -109.886406 L 38.5825 -110.241875 L 39.262188 -111.433281 L 39.809063 -112.206719 L 40.258281 -112.753594 L 40.55125 -113.491875 L 41.547344 -113.847344 L 42.578594 -114.265312 L 42.77 -115.136406 L 42.867656 -115.749687 L 42.67625 -116.425469 L 42.320781 -116.874687 L 42.000469 -116.714531 L 41.7075 -116.10125 L 41.160625 -115.812187 L 40.805156 -115.585625 L 40.645 -115.749687 L 40.934063 -116.296562 L 40.969219 -117.03875 L 40.742656 -117.1325 L 40.355938 -116.745781 L 39.937969 -116.487969 L 40.035625 -116.812187 L 40.293438 -117.16375 L 40.129375 -117.327812 C 40.129375 -117.327812 39.969219 -117.261406 39.871563 -117.1325 C 39.777813 -117.003594 39.453594 -116.456719 39.453594 -116.456719 L 39.262188 -116.0075 C 39.262188 -116.0075 39.195781 -116.265312 39.066875 -116.198906 C 38.937969 -116.136406 38.809063 -115.909844 38.809063 -115.909844 L 39.164531 -115.523125 L 38.875469 -115.234062 L 38.875469 -114.234062 L 38.711406 -114.234062 L 38.55125 -114.909844 L 38.328594 -115.0075 L 38.133281 -114.265312 L 38.004375 -113.527031 L 37.844219 -113.429375 L 37.906719 -114.558281 L 37.906719 -114.780937 L 37.617656 -114.523125 L 36.910625 -113.331719 L 36.48875 -113.234062 L 36.359844 -112.495781 L 36.039531 -111.91375 L 35.719219 -111.691094 L 35.719219 -111.237969 L 36.137188 -110.980156 L 36.039531 -110.917656 L 35.523906 -111.046562 L 34.848125 -110.562187 L 34.3325 -109.984062 L 33.367656 -109.468437 L 32.559063 -108.952812 L 32.816875 -108.308281 L 32.816875 -107.984062 L 32.465313 -108.308281 L 31.883281 -108.530937 L 31.145 -108.308281 L 30.016094 -107.823906 L 28.922344 -107.823906 L 28.793438 -107.921562 L 27.504375 -107.148125 L 27.086406 -107.081719 L 26.535625 -105.925469 L 25.828594 -105.987969 L 25.121563 -106.277031 L 25.215313 -107.179375 L 25.441875 -106.60125 L 25.633281 -106.66375 L 25.344219 -107.534844 L 25.98875 -106.987969 L 26.117656 -107.308281 L 25.344219 -108.179375 L 25.086406 -108.112969 L 24.992656 -107.72625 L 24.734844 -107.566094 L 24.477031 -107.792656 L 23.92625 -107.437187 L 23.316875 -107.855156 L 22.961406 -108.277031 L 22.285625 -108.695 L 21.352031 -108.659844 L 21.254375 -108.241875 L 21.996563 -108.112969 L 21.996563 -107.855156 L 21.543438 -107.72625 L 21.73875 -107.245781 L 22.187969 -106.472344 L 22.187969 -106.116875 L 22.219219 -105.956719 L 23.090313 -105.503594 L 23.285625 -105.761406 L 23.8325 -105.761406 L 23.574688 -105.245781 L 22.8325 -105.183281 L 21.8325 -105.730156 L 21.352031 -106.405937 L 20.996563 -106.921562 L 20.77 -107.374687 L 19.934063 -107.66375 L 19.320781 -108.179375 L 19.258281 -108.499687 L 19.7075 -108.695 L 19.867656 -109.112969 L 19.320781 -109.7575 L 18.031719 -110.593437 L 16.48875 -111.433281 L 16.066875 -111.655937 L 15.004375 -111.8825 L 13.941875 -112.335625 L 14.297344 -112.593437 L 14.008281 -112.8825 L 13.910625 -113.105156 L 13.36375 -112.91375 L 12.719219 -112.945 L 12.555156 -113.398125 L 12.36375 -113.398125 L 12.430156 -112.91375 L 11.719219 -113.171562 L 11.141094 -113.362969 L 10.461406 -113.105156 L 9.883281 -113.491875 L 9.23875 -113.491875 L 8.820781 -113.749687 L 8.496563 -113.91375 L 8.078594 -113.847344 L 7.562969 -113.620781 L 7.11375 -113.749687 L 6.918438 -113.945 L 6.598125 -113.718437 L 6.598125 -113.331719 L 7.211406 -113.073906 L 8.465313 -113.202812 L 9.336406 -112.8825 L 9.754375 -112.464531 L 10.336406 -112.335625 L 10.687969 -112.171562 L 11.234844 -112.206719 L 11.559063 -112.464531 L 11.750469 -112.398125 L 12.203594 -111.85125 L 12.812969 -111.655937 L 13.492656 -111.527031 L 13.750469 -111.464531 L 13.879375 -111.562187 L 14.039531 -111.562187 L 14.297344 -110.82 L 15.102031 -110.530937 L 15.48875 -109.78875 L 15.937969 -108.886406 L 16.262188 -108.597344 L 16.324688 -108.081719 L 16.004375 -108.339531 L 15.328594 -108.468437 L 15.199688 -107.984062 L 14.941875 -107.921562 L 14.746563 -108.112969 L 14.715313 -108.695 L 14.42625 -108.659844 L 14.137188 -107.503594 L 13.879375 -107.761406 L 13.652813 -107.66375 L 13.586406 -107.277031 L 12.781719 -107.308281 L 12.36375 -107.534844 L 11.848125 -107.468437 L 12.137188 -107.179375 L 12.234844 -106.66375 L 12.105938 -106.277031 L 12.395 -106.085625 L 12.652813 -106.054375 L 12.523906 -105.698906 L 12.523906 -104.827812 L 12.3325 -104.636406 L 12.172344 -104.925469 L 10.945781 -104.925469 L 10.656719 -104.667656 L 10.527813 -103.894219 L 10.109844 -103.187187 L 10.109844 -102.991875 L 10.527813 -102.831719 L 10.559063 -102.41375 L 10.785625 -102.187187 L 10.625469 -102.089531 L 10.367656 -102.187187 L 10.141094 -101.640312 L 10.336406 -100.640312 L 11.234844 -99.995781 L 11.750469 -99.675469 L 12.137188 -98.933281 L 12.684063 -98.675469 L 13.199688 -98.902031 L 13.266094 -99.386406 L 13.750469 -99.32 L 14.395 -98.835625 L 14.715313 -98.964531 L 14.906719 -99.093437 L 15.230938 -99.093437 L 15.680156 -98.835625 L 15.844219 -97.968437 C 15.844219 -97.968437 15.906719 -97.386406 16.035625 -97.292656 C 16.164531 -97.195 16.230938 -97.097344 16.230938 -97.097344 L 16.004375 -96.710625 L 15.48875 -96.870781 L 14.844219 -97.034844 L 14.4575 -96.937187 L 13.750469 -96.581719 L 12.750469 -96.550469 L 12.043438 -95.808281 L 12.137188 -95.034844 L 12.266094 -94.554375 L 11.848125 -94.198906 L 11.461406 -93.456719 L 11.559063 -93.296562 L 12.910625 -93.198906 L 13.328594 -93.198906 L 13.523906 -93.394219 L 13.652813 -93.394219 L 13.621563 -93.07 L 14.395 -92.941094 L 14.906719 -93.0075 L 15.199688 -93.234062 L 14.906719 -93.652031 L 14.812969 -93.941094 L 15.359844 -94.261406 L 16.359844 -94.616875 L 16.711406 -94.425469 L 16.262188 -93.554375 L 16.066875 -92.909844 L 16.262188 -92.749687 L 15.586406 -92.362969 L 15.48875 -92.136406 L 15.586406 -91.816094 L 15.422344 -91.042656 L 14.844219 -90.109062 L 14.359844 -89.269219 L 14.941875 -88.8825 L 15.586406 -88.8825 L 15.937969 -89.011406 L 16.777813 -88.980156 L 17.516094 -88.273125 L 17.742656 -87.659844 L 18.484844 -87.175469 L 18.805156 -87.370781 L 19.352031 -87.241875 L 20.094219 -86.823906 L 20.320781 -86.78875 L 20.512188 -86.948906 L 21.414531 -86.917656 L 21.961406 -86.308281 L 22.187969 -86.308281 L 22.898906 -86.78875 L 23.285625 -87.206719 L 23.187969 -87.433281 L 23.316875 -87.659844 L 23.637188 -87.335625 L 24.410625 -87.402031 L 24.477031 -88.144219 L 24.86375 -88.433281 L 26.277813 -88.562187 L 27.535625 -89.398125 L 27.824688 -89.206719 L 28.855938 -89.722344 L 29.273906 -89.593437 L 29.660625 -89.429375 L 30.629375 -89.816094 Z M 8.562969 -96.16375 L 8.980938 -97.22625 L 8.949688 -97.421562 L 8.367656 -97.355156 L 8.016094 -96.550469 L 7.660625 -96.261406 L 7.17625 -96.261406 L 7.145 -95.745781 L 7.500469 -95.261406 L 7.727031 -95.745781 L 8.016094 -96.034844 Z M 8.047344 -102.831719 L 8.789531 -102.991875 L 9.527813 -103.187187 L 9.691875 -103.378594 L 9.367656 -104.120781 L 8.754375 -104.089531 L 8.078594 -103.378594 Z M 3.922344 -100.027031 L 4.148906 -100.542656 L 4.375469 -100.866875 L 4.148906 -101.027031 L 3.730938 -100.41375 L 3.730938 -100.027031 Z M 1.187969 -114.589531 L 1.86375 -114.136406 L 2.539531 -113.945 L 3.055156 -114.0075 L 3.152813 -114.331719 L 3.539531 -114.429375 L 3.922344 -114.042656 L 3.859844 -113.718437 L 4.406719 -113.589531 L 4.98875 -114.105156 L 4.762188 -114.460625 L 3.891094 -114.687187 L 3.344219 -114.589531 L 2.602031 -114.362969 L 1.734844 -114.652031 L 1.410625 -114.718437 Z M 10.945781 -113.687187 L 11.27 -114.073906 L 11.687969 -113.749687 L 11.398906 -113.491875 Z M 11.527813 -114.300469 L 11.750469 -113.847344 L 12.172344 -113.91375 L 12.008281 -114.300469 Z M 16.230938 -113.91375 L 16.52 -114.265312 L 16.711406 -114.042656 L 16.55125 -113.655937 Z M 17.969219 -111.433281 L 18.195781 -112.593437 L 18.773906 -112.753594 L 19.773906 -112.171562 L 20.641094 -111.655937 L 20.320781 -111.175469 L 20.418438 -110.691094 L 19.996563 -110.948906 L 19.418438 -110.78875 L 19.73875 -110.562187 L 20.125469 -110.722344 L 20.898906 -110.370781 L 20.996563 -110.077812 L 20.512188 -109.917656 L 20.67625 -109.530937 L 20.125469 -109.917656 L 19.191875 -110.628594 L 18.227031 -111.206719 Z M 26.406719 -107.468437 L 26.891094 -107.179375 L 26.699688 -106.823906 L 26.344219 -107.019219 Z M 26.406719 -107.468437 " transform="matrix(1,0,0,-1,-3.52,-5.57)"/>
<path style="fill:none;stroke-width:0.69739;stroke-linecap:butt;stroke-linejoin:miter;stroke:rgb(100%,100%,100%);stroke-opacity:1;stroke-miterlimit:10;" d="M 115.891094 -16.35125 L 116.254375 -15.941094 L 116.687969 -15.780938 L 117.758281 -15.0075 L 118.215313 -14.894219 L 118.305156 -14.984063 L 117.281719 -16.0075 L 116.621563 -16.398125 L 116.211406 -16.577813 Z M 133.062969 -22.753594 L 133.191875 -23.253594 L 133.836406 -23.284844 L 134.094219 -23.042656 C 134.094219 -23.042656 134.078594 -22.753594 134.012188 -22.718438 C 133.949688 -22.687188 133.691875 -22.35125 133.691875 -22.35125 L 133.254375 -22.398125 L 132.934063 -22.429375 L 132.867656 -22.655938 Z M 113.074688 -22.159844 L 113.219219 -22.042656 L 113.766094 -21.8825 L 114.477031 -21.433281 L 114.477031 -21.237969 L 114.605938 -21.109063 L 115.797344 -20.917656 L 116.277813 -20.530938 L 117.148906 -20.112969 L 117.180156 -19.855156 L 117.566875 -19.273125 L 117.922344 -19.112969 L 118.180156 -18.7575 L 118.629375 -18.308281 L 119.500469 -17.823906 L 120.434063 -17.72625 L 120.660625 -17.952813 L 120.594219 -18.148125 L 119.855938 -18.339531 L 119.562969 -18.952813 L 119.11375 -19.112969 L 119.016094 -19.597344 L 118.535625 -20.241875 L 118.469219 -20.7575 L 118.629375 -20.85125 L 118.824688 -20.628594 L 119.531719 -20.046563 L 119.789531 -20.304375 L 120.242656 -20.304375 L 120.887188 -20.499688 L 121.17625 -20.722344 L 121.465313 -21.335625 L 122.012188 -21.8825 L 122.785625 -21.85125 L 123.074688 -21.655938 L 123.398906 -21.91375 L 123.719219 -22.011406 L 123.977031 -21.85125 L 124.203594 -21.85125 L 124.523906 -21.655938 L 125.3325 -20.948906 L 126.008281 -20.722344 L 127.328594 -20.659844 L 128.230938 -20.273125 L 128.746563 -20.015313 L 129.035625 -20.046563 L 129.035625 -21.175469 L 129.133281 -21.237969 L 129.711406 -21.398125 L 130.098125 -21.304375 L 131.320781 -20.980156 L 131.547344 -20.7575 L 131.836406 -20.85125 L 131.836406 -22.237969 L 132.480938 -22.85125 L 132.73875 -22.980156 L 132.996563 -23.171563 L 132.73875 -23.237969 L 132.578594 -23.171563 L 131.836406 -23.073906 L 131.418438 -23.202813 L 130.969219 -23.171563 L 130.324688 -23.460625 L 129.969219 -23.460625 L 128.809063 -23.202813 L 127.777813 -23.237969 L 127.391094 -23.749688 L 126.008281 -23.878594 L 125.523906 -24.042656 L 125.297344 -24.652031 L 125.039531 -24.878594 L 124.945781 -24.847344 L 124.652813 -24.523125 L 123.750469 -25.0075 L 123.621563 -25.0075 L 123.398906 -24.687188 L 123.23875 -24.718438 L 122.852031 -25.585625 L 122.656719 -26.394219 L 122.023906 -27.78875 L 121.789531 -27.581719 L 121.516094 -27.374688 L 121.129375 -25.327813 L 120.422344 -25.054375 L 120.012188 -24.597344 L 117.598125 -24.050469 L 117.027813 -23.847344 L 115.391094 -23.41375 L 113.816875 -23.183281 Z M 113.074688 -22.159844 " transform="matrix(1,0,0,-1,-3.52,-5.57)"/>
<path style="fill:none;stroke-width:0.69739;stroke-linecap:butt;stroke-linejoin:miter;stroke:rgb(100%,100%,100%);stroke-opacity:1;stroke-miterlimit:10;" d="M 123.445781 -59.843438 L 123.453594 -59.202813 L 123.566875 -58.277031 L 124.031719 -57.695 L 124.402813 -56.8825 L 124.848125 -56.085625 L 124.773906 -55.03875 L 124.375469 -54.335625 L 124.355938 -53.667656 L 124.492656 -52.616875 L 124.328594 -51.187188 L 124.117656 -48.042656 L 123.859844 -45.050469 L 123.67625 -42.730156 L 123.621563 -42.546563 L 123.461406 -42.030938 L 123.203594 -41.292656 L 122.879375 -40.937188 L 122.590313 -40.421563 L 122.543438 -39.327813 L 113.418438 -39.847344 L 113.465313 -40.32 L 113.918438 -40.456719 L 114.102031 -40.683281 L 114.191875 -41.046563 L 114.969219 -41.730156 L 115.105938 -42.187188 L 114.969219 -42.870781 L 114.602031 -43.597344 L 114.465313 -44.10125 L 114.012188 -44.464531 L 113.645 -44.60125 L 112.598125 -44.874688 L 112.461406 -45.237969 L 112.324688 -45.648125 L 112.461406 -45.921563 L 112.824688 -46.241875 L 112.781719 -47.062188 L 112.418438 -47.378594 L 112.281719 -47.698906 L 112.281719 -48.245781 L 111.914531 -48.335625 L 111.598125 -48.566094 L 111.55125 -48.835625 L 111.598125 -49.245781 L 111.254375 -49.5075 L 111.05125 -50.066094 L 111.141094 -50.796563 L 111.598125 -52.253594 L 113.055156 -53.7575 L 114.148906 -54.487969 L 114.102031 -55.35125 L 114.285625 -55.624688 L 115.559063 -55.714531 L 116.105938 -55.987969 L 115.969219 -56.718438 L 115.516094 -57.902031 L 115.379375 -58.53875 L 115.8325 -59.316094 L 117.109844 -60.362969 L 118.02 -60.499688 L 118.430156 -61.499688 L 118.840313 -62.140313 L 118.656719 -62.730156 L 118.977031 -63.550469 L 119.340313 -63.960625 L 119.621563 -63.784844 L 119.805156 -63.370781 L 120.242656 -63.023125 L 120.668438 -62.902031 L 121.187969 -63.136406 L 121.910625 -63.409844 L 122.148906 -63.35125 L 122.187969 -62.902031 L 121.930156 -62.421563 L 121.992656 -61.948906 L 122.355938 -61.679375 L 122.961406 -61.519219 L 123.211406 -61.425469 L 123.090313 -61.148125 L 122.930156 -60.679375 L 123.215313 -60.484063 Z M 123.445781 -59.843438 " transform="matrix(1,0,0,-1,-3.52,-5.57)"/>
<path style="fill-rule:nonzero;fill:rgb(100%,100%,100%);fill-opacity:1;stroke-width:0.69739;stroke-linecap:butt;stroke-linejoin:miter;stroke:rgb(100%,100%,100%);stroke-opacity:1;stroke-miterlimit:10;" d="M 122.555156 -39.327813 L 122.543438 -38.698906 L 122.309063 -37.796563 L 122.180156 -36.57 L 121.953594 -36.089531 L 122.145 -35.47625 L 122.309063 -34.898125 L 122.598125 -34.3825 L 122.469219 -33.706719 L 122.340313 -32.995781 L 122.437969 -32.640313 L 122.824688 -32.159844 L 122.855938 -31.612969 L 122.695781 -31.355156 L 122.824688 -30.839531 L 122.730938 -30.0075 L 123.281719 -28.878594 L 123.859844 -27.527031 L 123.891094 -27.073906 L 123.828594 -26.8825 L 123.668438 -26.980156 L 122.828594 -28.234063 L 122.281719 -29.03875 L 121.895 -29.394219 L 121.734844 -29.847344 L 121.344219 -30.0075 L 121.117656 -30.394219 L 120.828594 -30.327813 L 120.797344 -29.97625 L 121.055156 -29.491875 L 121.473125 -28.558281 L 121.828594 -28.234063 L 122.023906 -27.765313 L 121.516094 -27.386406 L 121.121563 -25.32 L 120.414531 -25.054375 L 120.027813 -24.593438 L 117.609844 -24.050469 L 117.035625 -23.85125 L 115.398906 -23.417656 L 113.820781 -23.187188 L 113.070781 -22.16375 L 112.922344 -22.273125 L 112.684063 -22.241875 L 112.555156 -22.019219 L 112.289531 -22.077813 L 112.062969 -22.109063 L 111.711406 -22.300469 L 111.516094 -22.171563 L 111.645 -21.784844 L 112.031719 -21.175469 L 112.258281 -20.948906 L 111.871563 -20.659844 L 111.453594 -20.82 L 110.871563 -21.206719 L 109.391094 -21.85125 L 108.809063 -21.980156 L 108.230938 -21.8825 L 108.035625 -21.706719 L 107.61375 -22.273125 L 107.566875 -22.82 L 107.566875 -24.503594 L 107.340313 -24.823906 L 106.293438 -25.597344 L 105.836406 -26.784844 L 105.92625 -26.827813 L 106.430156 -27.237969 L 106.566875 -27.874688 L 106.199688 -28.515313 L 106.199688 -29.28875 L 106.293438 -30.609063 L 106.883281 -31.202813 L 107.566875 -31.202813 L 107.934063 -31.839531 L 108.61375 -31.929375 L 109.391094 -33.07 L 110.80125 -33.890313 L 111.211406 -34.437188 L 111.395 -35.917656 L 111.531719 -36.577813 L 111.984844 -36.894219 L 112.031719 -37.167656 L 111.621563 -37.85125 L 111.668438 -38.491875 L 112.168438 -39.265313 L 112.668438 -39.491875 L 113.262188 -39.585625 L 113.527813 -39.859063 Z M 122.555156 -39.327813 " transform="matrix(1,0,0,-1,-3.52,-5.57)"/>
<path style="fill-rule:nonzero;fill:rgb(100%,100%,100%);fill-opacity:1;stroke-width:0.69739;stroke-linecap:butt;stroke-linejoin:miter;stroke:rgb(100%,100%,100%);stroke-opacity:1;stroke-miterlimit:10;" d="M 118.324688 -68.355156 L 117.531719 -68.499687 L 116.512188 -68.370781 L 116.594219 -68.054375 L 117.187969 -67.542656 L 117.375469 -66.812187 L 117.012188 -66.222344 L 101.387188 -66.722344 L 101.7075 -68.089531 L 101.7075 -69.72625 L 101.980938 -71.91375 L 102.023906 -79.452812 L 102.480938 -79.839531 L 103.074688 -79.566094 L 103.621563 -79.796562 L 103.754375 -81.105156 L 114.836406 -80.878594 L 115.066875 -80.460625 L 115.008281 -79.753594 L 114.645 -79.16375 L 114.965313 -78.866875 L 114.645 -78.366875 L 114.781719 -77.866875 L 115.055156 -76.749687 L 115.555156 -76.339531 L 115.418438 -75.8825 L 116.148906 -74.812187 L 116.695781 -74.53875 L 116.672344 -74.241875 L 116.602031 -73.878594 L 117.172344 -72.761406 L 117.652813 -72.511406 L 117.727031 -71.827812 L 118.0825 -71.581719 L 117.453594 -71.484062 L 117.187969 -70.687187 L 117.746563 -70.214531 L 117.855938 -69.812187 L 118.109844 -69.003594 Z M 118.324688 -68.355156 " transform="matrix(1,0,0,-1,-3.52,-5.57)"/>
<path style="fill-rule:nonzero;fill:rgb(100%,100%,100%);fill-opacity:1;stroke-width:0.69739;stroke-linecap:butt;stroke-linejoin:miter;stroke:rgb(100%,100%,100%);stroke-opacity:1;stroke-miterlimit:10;" d="M 111.273906 -49.437188 L 110.77 -48.823906 L 110.543438 -48.366875 L 97.719219 -48.847344 L 97.262188 -48.866875 L 97.516094 -49.370781 L 97.469219 -49.823906 L 97.969219 -50.60125 L 98.586406 -51.417656 L 99.199688 -51.964531 L 99.629375 -52.011406 L 99.930156 -52.195 L 99.930156 -52.784844 L 99.562969 -53.105156 L 99.473125 -53.562188 L 99.883281 -54.245781 L 100.383281 -54.835625 L 100.883281 -55.198906 L 101.156719 -57.523125 L 101.219219 -64.710625 L 101.266094 -65.644219 L 101.355938 -66.718437 L 105.828594 -66.546562 L 110.449688 -66.409844 L 114.598125 -66.249687 L 116.918438 -66.202812 L 117.352031 -66.886406 L 117.215313 -67.546562 L 116.602031 -68.023125 L 116.484844 -68.390312 L 117.559063 -68.480156 L 118.3325 -68.343437 L 118.67625 -67.249687 L 118.805156 -66.081719 L 119.223125 -65.573906 L 119.742656 -65.277031 L 119.750469 -64.667656 L 119.953594 -64.284844 L 119.617656 -63.777031 L 119.352031 -63.972344 L 118.953594 -63.527031 L 118.699688 -62.581719 L 118.855938 -62.077813 L 118.469219 -61.394219 L 118.105938 -60.484063 L 117.148906 -60.323906 L 115.762188 -59.210625 L 115.418438 -58.390313 L 115.578594 -57.753594 L 115.98875 -56.546563 L 116.078594 -55.972344 L 115.691875 -55.769219 L 114.324688 -55.609063 L 114.121563 -55.269219 L 114.098125 -54.425469 L 113.004375 -53.741875 L 111.61375 -52.195 L 111.160625 -50.734063 L 111.11375 -49.894219 Z M 111.273906 -49.437188 " transform="matrix(1,0,0,-1,-3.52,-5.57)"/>
<path style="fill-rule:nonzero;fill:rgb(100%,100%,100%);fill-opacity:1;stroke-width:0.69739;stroke-linecap:butt;stroke-linejoin:miter;stroke:rgb(100%,100%,100%);stroke-opacity:1;stroke-miterlimit:10;" d="M 121.141094 -91.491875 L 120.484844 -90.859062 L 120.687969 -89.765312 L 120.555156 -89.585625 L 118.711406 -89.784844 L 113.723125 -89.878594 L 113.586406 -89.402031 L 113.77 -87.714531 L 114.430156 -86.530937 L 115.434063 -84.800469 L 115.316875 -84.32 L 115.566875 -84.187187 L 115.660625 -83.796562 L 115.203594 -83.386406 L 115.180156 -82.999687 L 114.816875 -82.1325 L 114.789531 -80.870781 L 103.734844 -81.054375 L 103.73875 -82.964531 L 103.875469 -84.831719 L 104.012188 -85.605156 L 104.516094 -86.425469 L 104.695781 -87.425469 L 105.562969 -88.519219 L 105.609844 -89.159844 L 105.742656 -89.296562 L 105.609844 -90.980156 L 105.016094 -91.984062 L 105.336406 -92.394219 L 105.199688 -92.894219 L 105.062969 -94.35125 L 104.789531 -94.987969 L 104.812969 -95.710625 L 105.746563 -95.405937 L 108.160625 -95.448906 L 110.223125 -96.155937 L 111.508281 -96.3825 L 112.250469 -96.093437 L 112.895 -96.316094 L 113.539531 -96.511406 L 113.699688 -96.093437 L 113.055156 -95.866875 L 112.539531 -95.964531 L 111.992656 -95.640312 C 111.992656 -95.640312 112.023906 -95.3825 112.152813 -95.35125 C 112.281719 -95.32 112.766094 -95.159844 112.766094 -95.159844 L 113.121563 -95.448906 L 113.473125 -95.253594 L 114.117656 -95.3825 L 114.410625 -95.866875 L 114.473125 -96.316094 L 115.375469 -96.3825 L 115.730938 -96.737969 L 115.566875 -97.058281 L 115.309063 -97.218437 L 115.633281 -97.542656 L 117.309063 -98.249687 L 118.016094 -97.991875 L 118.211406 -97.511406 L 118.727031 -97.3825 L 119.078594 -97.089531 L 119.336406 -97.284844 L 119.496563 -97.862969 L 119.047344 -98.027031 L 119.17625 -98.155937 L 119.852031 -97.898125 L 120.305156 -97.218437 L 120.465313 -97.124687 L 120.047344 -97.058281 L 120.2075 -96.737969 L 120.17625 -96.445 L 120.594219 -96.35125 L 120.820781 -96.093437 L 120.949688 -96.253594 C 120.949688 -96.253594 120.914531 -96.866875 121.078594 -96.866875 C 121.23875 -96.866875 121.914531 -96.995781 121.914531 -96.995781 L 122.719219 -97.3825 L 122.914531 -97.671562 L 123.492656 -97.671562 L 123.719219 -97.862969 L 124.168438 -97.253594 L 124.168438 -96.960625 L 123.910625 -96.960625 L 123.234844 -96.41375 L 122.074688 -96.253594 L 121.430156 -95.804375 L 121.656719 -95.253594 L 122.105938 -95.32 L 122.141094 -95.191094 L 121.785625 -94.995781 L 121.785625 -94.902031 L 122.430156 -94.902031 L 122.785625 -94.28875 L 122.527813 -93.902031 L 122.461406 -93.355156 L 122.172344 -93.386406 L 121.785625 -93.804375 L 121.656719 -94.32 L 121.043438 -94.191094 L 120.852031 -93.839531 L 121.2075 -93.452812 L 121.586406 -92.765312 L 121.371563 -92.284844 Z M 121.141094 -91.491875 " transform="matrix(1,0,0,-1,-3.52,-5.57)"/>
<path style="fill:none;stroke-width:0.69739;stroke-linecap:butt;stroke-linejoin:miter;stroke:rgb(100%,100%,100%);stroke-opacity:1;stroke-miterlimit:10;" d="M 125.840313 -91.527031 L 125.789531 -91.777031 L 124.762188 -91.777031 L 124.469219 -91.616875 L 124.05125 -91.550469 L 122.699688 -91.937187 L 122.344219 -91.777031 L 121.828594 -92.616875 L 121.609844 -92.769219 L 121.387188 -92.273125 L 121.156719 -91.499687 L 120.473125 -90.862969 L 120.703594 -89.7575 L 120.566875 -89.573906 L 120.199688 -89.620781 L 118.621563 -89.796562 L 113.730938 -89.870781 L 113.578594 -89.425469 L 113.754375 -87.7575 L 114.375469 -86.624687 L 115.414531 -84.804375 L 115.328594 -84.32 L 115.574688 -84.187187 L 115.660625 -83.804375 L 115.199688 -83.390312 L 115.17625 -82.964531 L 114.809063 -82.144219 L 114.789531 -80.956719 L 115.05125 -80.460625 L 115.008281 -79.780937 L 114.656719 -79.167656 L 114.961406 -78.870781 L 114.645 -78.374687 L 114.73875 -78.042656 L 115.05125 -76.741875 L 115.547344 -76.339531 L 115.418438 -75.866875 L 116.148906 -74.808281 L 116.711406 -74.53875 L 116.668438 -74.206719 L 116.609844 -73.870781 L 117.184063 -72.761406 L 117.652813 -72.515312 L 117.680156 -72.339531 L 125.121563 -71.566094 L 125.160625 -72.816094 L 125.191875 -76.1325 L 125.031719 -82.32 L 125.000469 -85.120781 L 125.547344 -88.859062 Z M 125.840313 -91.527031 " transform="matrix(1,0,0,-1,-3.52,-5.57)"/>
<path style="fill-rule:nonzero;fill:rgb(100%,100%,100%);fill-opacity:1;stroke-width:0.69739;stroke-linecap:butt;stroke-linejoin:miter;stroke:rgb(100%,100%,100%);stroke-opacity:1;stroke-miterlimit:10;" d="M 113.414531 -39.769219 L 113.469219 -40.323906 L 113.910625 -40.437188 L 114.102031 -40.683281 L 114.199688 -41.054375 L 114.9575 -41.722344 L 115.094219 -42.198906 L 114.9575 -42.878594 L 114.645 -43.523125 L 114.484844 -44.07 L 114.05125 -44.390313 L 113.7075 -44.503594 L 112.598125 -44.874688 L 112.320781 -45.640313 L 112.465313 -45.91375 L 112.8325 -46.249688 L 112.773906 -47.054375 L 112.42625 -47.359063 L 112.27 -47.687188 L 112.297344 -48.241875 L 111.918438 -48.331719 L 111.598125 -48.554375 L 111.539531 -48.823906 L 111.598125 -49.241875 L 111.285625 -49.464531 L 110.793438 -48.843438 L 110.543438 -48.355156 L 97.445781 -48.855156 L 97.262188 -48.886406 L 96.852031 -47.987969 L 96.809063 -46.667656 L 96.48875 -45.847344 L 96.352031 -44.800469 L 95.895 -44.07 L 95.715313 -43.112969 L 95.168438 -41.609063 L 94.941875 -40.53875 L 94.668438 -40.105156 L 94.348125 -39.562188 L 94.73875 -38.593438 L 95.012188 -37.456719 L 94.465313 -37.046563 L 94.371563 -36.499688 L 94.555156 -35.999688 L 94.895 -35.999688 L 111.367656 -35.745781 L 111.531719 -36.577813 L 111.980938 -36.890313 L 112.031719 -37.175469 L 111.629375 -37.847344 L 111.664531 -38.487969 L 112.168438 -39.245781 L 112.668438 -39.503594 L 113.285625 -39.60125 Z M 113.414531 -39.769219 " transform="matrix(1,0,0,-1,-3.52,-5.57)"/>
<path style="fill-rule:nonzero;fill:rgb(100%,100%,100%);fill-opacity:1;stroke-width:0.69739;stroke-linecap:butt;stroke-linejoin:miter;stroke:rgb(100%,100%,100%);stroke-opacity:1;stroke-miterlimit:10;" d="M 94.695781 -25.667656 L 94.602031 -23.984063 L 94.23875 -22.527031 L 93.875469 -19.839531 L 93.781719 -17.878594 L 93.418438 -17.195 L 93.098125 -16.195 L 93.098125 -14.144219 L 93.234844 -13.370781 L 92.871563 -12.284844 L 98.879375 -12.28875 L 98.941875 -10.648125 L 99.070781 -10.616875 L 99.52 -10.710625 L 99.906719 -10.874688 L 100.070781 -11.968438 L 100.359844 -13.191094 L 100.680156 -13.515313 L 101.648906 -13.515313 L 101.711406 -13.804375 L 102.969219 -13.866875 L 102.969219 -14.28875 L 103.934063 -14.28875 L 104.000469 -14.030938 L 104.223125 -13.804375 L 104.67625 -13.675469 L 104.934063 -13.866875 L 105.512188 -13.866875 L 106.285625 -14.3825 L 107.348125 -14.866875 L 107.8325 -14.964531 L 107.930156 -14.769219 L 108.219219 -14.675469 L 108.316875 -15.253594 L 108.8325 -15.511406 L 108.92625 -15.41375 L 109.184063 -15.445 L 109.184063 -15.866875 L 109.699688 -16.058281 L 110.312969 -16.058281 L 110.633281 -15.898125 L 111.277813 -15.253594 L 111.793438 -15.155938 L 111.953594 -15.511406 L 112.05125 -15.769219 L 112.246563 -15.769219 L 112.437969 -15.609063 L 114.211406 -15.542656 L 114.562969 -16.155938 L 114.691875 -16.155938 L 114.836406 -15.941094 L 115.719219 -15.866875 L 115.598125 -16.32 L 114.812969 -16.687188 L 112.973125 -17.495781 L 112.02 -17.894219 L 111.406719 -18.409844 L 110.92625 -19.120781 L 110.473125 -19.890313 L 110.117656 -20.054375 L 109.219219 -21.050469 L 108.961406 -21.085625 L 108.098125 -21.6325 L 107.605938 -22.273125 L 107.562969 -22.905938 L 107.578594 -24.511406 L 107.305156 -24.847344 L 106.293438 -25.597344 L 105.848125 -26.78875 L 106.422344 -27.234063 L 106.555156 -27.874688 L 106.187969 -28.523125 L 106.219219 -29.269219 L 106.293438 -30.609063 L 106.898906 -31.206719 L 107.562969 -31.206719 L 107.937969 -31.831719 L 108.609844 -31.933281 L 109.379375 -33.062188 L 110.793438 -33.8825 L 111.219219 -34.456719 L 111.352031 -35.737969 L 95.172344 -35.968438 L 95.105938 -28.859063 L 95.012188 -28.265313 L 94.191875 -27.581719 L 93.965313 -27.218438 L 93.965313 -26.898125 L 94.375469 -26.581719 L 94.648906 -26.308281 Z M 94.695781 -25.667656 " transform="matrix(1,0,0,-1,-3.52,-5.57)"/>
<path style="fill-rule:nonzero;fill:rgb(50%,50%,50%);fill-opacity:1;stroke-width:0.69739;stroke-linecap:butt;stroke-linejoin:miter;stroke:rgb(100%,100%,100%);stroke-opacity:1;stroke-miterlimit:10;" d="M 75.785625 -63.925469 L 72.461406 -63.671563 L 72.285625 -65.855156 L 76.36375 -66.085625 L 82.750469 -66.343437 L 82.285625 -71.210625 L 82.195781 -74.761406 L 82.23875 -75.081719 L 83.105938 -75.812187 L 83.516094 -76.03875 L 83.652813 -75.991875 L 83.789531 -75.581719 L 84.062969 -75.948906 L 84.473125 -75.948906 L 84.473125 -75.675469 L 85.02 -75.948906 L 84.92625 -76.722344 L 85.746563 -76.769219 L 86.250469 -76.995781 L 87.070781 -77.1325 L 87.570781 -77.495781 L 88.023906 -77.085625 L 88.7075 -77.222344 L 89.211406 -77.905937 L 89.391094 -77.905937 L 89.391094 -78.362969 L 89.848125 -78.499687 L 90.305156 -78.042656 L 90.668438 -78.179375 L 91.168438 -78.179375 L 91.352031 -78.679375 L 92.605938 -79.093437 L 92.879375 -78.956719 L 93.242656 -78.140312 L 93.473125 -78.140312 L 93.699688 -78.550469 L 94.52 -78.687187 L 95.250469 -78.956719 L 95.840313 -79.140312 L 96.203594 -78.956719 L 96.340313 -78.456719 L 97.2075 -78.456719 L 97.617656 -78.640312 L 98.164531 -78.230156 L 98.391094 -78.230156 L 98.527813 -78.550469 L 99.348125 -78.550469 L 99.668438 -78.140312 L 100.031719 -78.230156 L 100.441875 -78.730156 L 101.078594 -79.093437 L 101.719219 -79.277031 L 102.105938 -79.499687 L 102.027813 -72.085625 L 101.754375 -69.898125 L 101.723125 -68.128594 L 101.434063 -66.827812 L 101.277813 -65.398125 L 101.266094 -64.636406 L 98.848125 -64.698906 L 89.602031 -64.609062 L 80.625469 -64.198906 Z M 75.785625 -63.925469 " transform="matrix(1,0,0,-1,-3.52,-5.57)"/>
<path style="fill-rule:nonzero;fill:rgb(50%,50%,50%);fill-opacity:1;stroke-width:0.69739;stroke-linecap:butt;stroke-linejoin:miter;stroke:rgb(100%,100%,100%);stroke-opacity:1;stroke-miterlimit:10;" d="M 72.023906 -65.866875 L 76.543438 -66.085625 L 82.73875 -66.312187 L 82.273906 -70.987969 L 82.215313 -74.605156 L 82.230938 -75.019219 L 83.094219 -75.780937 L 83.492656 -76.066094 L 83.727031 -75.956719 L 83.80125 -75.593437 L 84.027813 -75.952812 L 84.449688 -75.960625 L 84.449688 -75.675469 L 84.781719 -75.866875 L 85.008281 -75.948906 L 84.937969 -76.737969 L 85.750469 -76.7575 L 86.336406 -76.995781 L 87.121563 -77.10125 L 87.598125 -77.515312 L 88.02 -77.10125 L 88.762188 -77.222344 L 89.203594 -77.866875 L 89.418438 -77.929375 L 89.387188 -78.32 L 89.828594 -78.480156 L 90.293438 -78.07 L 90.719219 -78.191094 L 91.160625 -78.198906 L 91.348125 -78.683281 L 92.609844 -79.105156 L 92.92625 -78.952812 L 93.223125 -78.120781 L 93.289531 -78.120781 L 93.473125 -78.136406 L 93.715313 -78.550469 L 94.500469 -78.683281 L 95.164531 -78.905937 L 95.848125 -79.144219 L 96.215313 -78.948906 L 96.355938 -78.448906 L 97.242656 -78.456719 L 97.602031 -78.644219 L 98.160625 -78.222344 L 98.379375 -78.234062 L 98.55125 -78.550469 L 99.359844 -78.550469 L 99.660625 -78.148125 L 100.031719 -78.230156 L 100.422344 -78.706719 L 101.121563 -79.116875 L 101.691875 -79.277031 L 101.992656 -79.437187 L 102.480938 -79.835625 L 103.086406 -79.57 L 103.625469 -79.796562 L 103.734844 -81.011406 L 103.727031 -82.945 L 103.86375 -84.847344 L 104.004375 -85.562187 L 104.539531 -86.445 L 104.715313 -87.429375 L 105.559063 -88.534844 L 105.598125 -89.159844 L 105.746563 -89.316094 L 105.598125 -90.987969 L 105.027813 -91.984062 L 105.3325 -92.41375 L 105.2075 -92.878594 L 105.074688 -94.355156 L 104.773906 -95.019219 L 104.8325 -95.718437 L 103.703594 -96.034844 L 101.73875 -96.937187 L 101.547344 -97.323906 L 101.031719 -97.710625 L 100.609844 -97.999687 L 100.352031 -98.159844 L 99.227031 -99.222344 L 98.680156 -99.640312 L 97.617656 -100.284844 L 96.48875 -100.769219 L 95.230938 -101.445 L 94.879375 -101.734062 L 93.719219 -102.445 L 93.043438 -102.573906 L 92.27 -103.667656 L 91.465313 -103.734062 L 91.27 -104.120781 L 91.719219 -104.5075 L 91.430156 -105.60125 L 91.172344 -106.503594 L 90.949688 -107.277031 L 90.785625 -108.179375 L 90.949688 -108.659844 L 91.30125 -110.046562 L 91.496563 -111.269219 L 91.848125 -111.82 L 91.656719 -112.109062 L 91.043438 -112.495781 L 89.918438 -111.722344 L 88.820781 -111.495781 L 88.562969 -111.593437 L 87.918438 -111.464531 L 87.0825 -110.85125 L 86.05125 -110.624687 L 84.539531 -109.948906 L 84.117656 -109.175469 L 83.859844 -107.886406 L 83.215313 -107.503594 L 83.086406 -107.050469 L 83.215313 -106.921562 L 83.281719 -106.245781 L 83.023906 -106.116875 L 82.895 -105.921562 L 83.152813 -105.054375 L 82.8325 -104.60125 L 82.187969 -104.343437 L 81.508281 -103.47625 L 80.80125 -102.155937 L 79.965313 -101.640312 L 79.996563 -101.253594 L 78.934063 -98.804375 L 78.77 -97.968437 L 78.418438 -97.581719 L 78.387188 -97.28875 L 77.191875 -96.22625 L 76.67625 -95.616875 L 76.67625 -95.390312 L 76.164531 -94.972344 L 74.809063 -94.745781 L 73.328594 -94.616875 L 72.715313 -94.167656 L 71.812969 -94.519219 L 71.105938 -94.812187 L 70.652813 -95.452812 L 70.461406 -96.195 L 69.590313 -97.417656 L 69.109844 -97.902031 L 68.594219 -97.710625 L 68.23875 -97.484062 L 67.852031 -97.355156 L 67.078594 -96.905937 L 67.078594 -96.777031 L 66.723125 -96.390312 L 65.695781 -95.968437 L 64.211406 -94.425469 L 63.762188 -93.487969 L 63.762188 -91.878594 L 63.117656 -90.589531 L 63.02 -90.042656 L 62.699688 -89.85125 L 62.473125 -89.429375 L 61.473125 -89.011406 L 61.215313 -88.691094 L 59.797344 -87.112969 L 59.539531 -86.468437 L 58.605938 -86.015312 L 58.316875 -85.148125 L 57.80125 -84.566094 L 57.414531 -84.468437 L 57.285625 -83.53875 L 58.879375 -83.675469 L 64.664531 -84.222344 L 70.449688 -84.53875 L 70.895 -80.66375 L 71.672344 -69.593437 L 71.98875 -65.859062 L 72.262188 -65.862969 M 91.996563 -111.624687 L 91.883281 -110.206719 L 91.336406 -108.773125 L 91.223125 -107.374687 L 91.527813 -105.730156 L 92.187969 -104.362969 L 92.879375 -103.280937 L 93.508281 -102.573906 L 93.637188 -102.620781 L 92.687969 -103.941094 L 91.816875 -105.245781 L 91.414531 -106.566094 L 91.352031 -107.597344 L 91.527813 -108.823906 L 92.043438 -110.2575 L 92.141094 -111.284844 L 92.172344 -111.577812 Z M 91.996563 -111.624687 " transform="matrix(1,0,0,-1,-3.52,-5.57)"/>
<path style="fill-rule:nonzero;fill:rgb(50%,50%,50%);fill-opacity:1;stroke-width:0.69739;stroke-linecap:butt;stroke-linejoin:miter;stroke:rgb(100%,100%,100%);stroke-opacity:1;stroke-miterlimit:10;" d="M 57.414531 -84.487969 L 57.262188 -83.542656 L 58.984844 -83.644219 L 64.996563 -84.234062 L 70.430156 -84.57 L 70.871563 -80.843437 L 71.641094 -69.706719 L 71.984844 -65.843437 L 72.297344 -65.870781 L 72.461406 -63.644219 L 51.73875 -61.527031 L 48.254375 -85.523125 L 51.3325 -85.921562 L 51.590313 -83.921562 Z M 57.414531 -84.487969 " transform="matrix(1,0,0,-1,-3.52,-5.57)"/>
<path style="fill-rule:nonzero;fill:rgb(50%,50%,50%);fill-opacity:1;stroke-width:0.69739;stroke-linecap:butt;stroke-linejoin:miter;stroke:rgb(100%,100%,100%);stroke-opacity:1;stroke-miterlimit:10;" d="M 101.199688 -64.636406 L 98.684063 -64.675469 L 89.500469 -64.585625 L 80.621563 -64.175469 L 75.715313 -63.925469 L 76.48875 -51.054375 L 80.891094 -51.187188 L 88.918438 -51.355156 L 97.746563 -51.550469 L 98.762188 -51.550469 L 99.195781 -51.984063 L 99.598125 -51.980156 L 99.92625 -52.179375 L 99.914531 -52.780938 L 99.547344 -53.124688 L 99.480938 -53.57 L 99.848125 -54.245781 L 100.437969 -54.8825 L 100.902813 -55.202813 L 101.160625 -57.445 Z M 101.199688 -64.636406 " transform="matrix(1,0,0,-1,-3.52,-5.57)"/>
<path style="fill-rule:nonzero;fill:rgb(100%,100%,100%);fill-opacity:1;stroke-width:0.69739;stroke-linecap:butt;stroke-linejoin:miter;stroke:rgb(100%,100%,100%);stroke-opacity:1;stroke-miterlimit:10;" d="M 96.859844 -47.960625 L 97.500469 -49.359063 L 97.477031 -49.82 L 98.164531 -50.91375 L 98.7075 -51.542656 L 97.699688 -51.542656 L 89.035625 -51.355156 L 80.910625 -51.175469 L 76.477031 -51.019219 L 76.687969 -46.769219 L 70.250469 -46.191094 L 71.11375 -37.421563 L 74.211406 -37.624688 L 78.223125 -37.85125 L 81.773906 -38.081719 L 86.512188 -38.308281 L 88.652813 -38.218438 L 89.062969 -38.671563 L 90.02 -39.265313 L 90.246563 -39.448906 L 91.11375 -39.175469 L 91.887188 -39.081719 L 92.434063 -39.03875 L 92.80125 -39.312188 L 93.609844 -39.628594 L 94.199688 -39.948906 L 94.289531 -40.265313 L 94.473125 -40.675469 L 94.836406 -40.675469 L 94.996563 -40.687188 L 95.17625 -41.620781 L 95.758281 -43.308281 L 95.871563 -44.054375 L 96.375469 -44.808281 L 96.48875 -45.827813 L 96.809063 -46.671563 Z M 96.859844 -47.960625 " transform="matrix(1,0,0,-1,-3.52,-5.57)"/>
<path style="fill-rule:nonzero;fill:rgb(100%,100%,100%);fill-opacity:1;stroke-width:0.69739;stroke-linecap:butt;stroke-linejoin:miter;stroke:rgb(100%,100%,100%);stroke-opacity:1;stroke-miterlimit:10;" d="M 94.934063 -40.652031 L 94.92625 -40.53875 L 94.348125 -39.57 L 94.719219 -38.6325 L 95.016094 -37.460625 L 94.461406 -37.046563 L 94.387188 -36.499688 L 94.543438 -35.991875 L 95.180156 -35.991875 L 95.152813 -34.995781 L 95.086406 -28.984063 L 94.965313 -28.234063 L 94.152813 -27.57 L 93.9575 -27.234063 L 93.945781 -26.91375 L 94.348125 -26.609063 L 94.652813 -26.277031 L 94.703594 -25.749688 L 83.094219 -25.429375 L 72.17625 -24.741875 L 71.11375 -37.433281 L 74.02 -37.612969 L 77.996563 -37.85125 L 81.531719 -38.03875 L 86.27 -38.296563 L 88.656719 -38.214531 L 89.047344 -38.659844 L 90.0825 -39.308281 L 90.234844 -39.452813 L 91.141094 -39.16375 L 92.445781 -39.042656 L 92.777813 -39.308281 L 93.61375 -39.624688 L 94.203594 -39.952813 L 94.281719 -40.245781 L 94.48875 -40.695 Z M 94.934063 -40.652031 " transform="matrix(1,0,0,-1,-3.52,-5.57)"/>
<path style="fill-rule:nonzero;fill:rgb(100%,100%,100%);fill-opacity:1;stroke-width:0.69739;stroke-linecap:butt;stroke-linejoin:miter;stroke:rgb(100%,100%,100%);stroke-opacity:1;stroke-miterlimit:10;" d="M 94.7075 -25.687188 L 94.586406 -24.0075 L 94.250469 -22.648125 L 93.875469 -20.054375 L 93.781719 -17.862969 L 93.437969 -17.253594 L 93.086406 -16.218438 L 93.094219 -14.136406 L 93.215313 -13.374688 L 92.852031 -12.284844 L 87.145 -12.171563 L 83.437969 -12.042656 L 78.156719 -11.784844 L 73.586406 -11.359063 L 72.191875 -24.745781 L 83.137188 -25.409844 Z M 94.7075 -25.687188 " transform="matrix(1,0,0,-1,-3.52,-5.57)"/>
<path style="fill-rule:nonzero;fill:rgb(50%,50%,50%);fill-opacity:1;stroke-width:0.69739;stroke-linecap:butt;stroke-linejoin:miter;stroke:rgb(100%,100%,100%);stroke-opacity:1;stroke-miterlimit:10;" d="M 71.809063 -28.550469 L 50.539531 -25.866875 L 47.730938 -43.491875 L 70.30125 -46.198906 Z M 71.809063 -28.550469 " transform="matrix(1,0,0,-1,-3.52,-5.57)"/>
<path style="fill-rule:nonzero;fill:rgb(100%,100%,100%);fill-opacity:1;stroke-width:0.69739;stroke-linecap:butt;stroke-linejoin:miter;stroke:rgb(100%,100%,100%);stroke-opacity:1;stroke-miterlimit:10;" d="M 73.566875 -11.35125 L 67.453594 -10.792656 L 61.625469 -10.081719 L 55.793438 -9.277031 L 49.352031 -8.214531 L 45.680156 -7.53875 L 39.160625 -6.155938 L 38.266094 -10.409844 L 38.949688 -11.91375 L 38.67625 -12.823906 L 39.043438 -13.737969 L 39.680156 -14.011406 L 40.598125 -16.155938 L 41.137188 -16.78875 L 41.227031 -17.015313 L 41.910625 -17.245781 L 42.004375 -17.652031 L 40.590313 -21.159844 L 40.590313 -21.66375 L 41.090313 -22.300469 L 41.273906 -22.300469 L 42.230938 -21.706719 L 42.367656 -21.480156 L 42.684063 -21.616875 L 42.641094 -22.66375 L 43.187969 -25.171563 L 43.777813 -25.671563 L 43.961406 -25.808281 L 44.324688 -26.265313 L 44.234844 -26.948906 L 44.371563 -27.628594 L 44.598125 -27.812188 L 45.055156 -27.355156 L 45.602031 -27.355156 L 46.23875 -27.675469 L 46.73875 -27.491875 L 47.559063 -27.491875 L 48.289531 -27.812188 L 48.836406 -27.722344 L 48.92625 -27.128594 L 49.52 -26.991875 L 49.793438 -27.265313 L 49.883281 -27.902031 L 50.168438 -28.07 L 50.543438 -25.870781 L 71.812969 -28.546563 Z M 73.566875 -11.35125 " transform="matrix(1,0,0,-1,-3.52,-5.57)"/>
<path style="fill-rule:nonzero;fill:rgb(50%,50%,50%);fill-opacity:1;stroke-width:0.69739;stroke-linecap:butt;stroke-linejoin:miter;stroke:rgb(100%,100%,100%);stroke-opacity:1;stroke-miterlimit:10;" d="M 75.723125 -63.952813 L 76.699688 -46.753594 L 54.105938 -44.234063 L 51.672344 -61.7575 Z M 75.723125 -63.952813 " transform="matrix(1,0,0,-1,-3.52,-5.57)"/>
<path style="fill-rule:nonzero;fill:rgb(50%,50%,50%);fill-opacity:1;stroke-width:0.69739;stroke-linecap:butt;stroke-linejoin:miter;stroke:rgb(100%,100%,100%);stroke-opacity:1;stroke-miterlimit:10;" d="M 29.586406 -35.16375 L 31.3325 -28.148125 L 31.605938 -27.304375 L 32.105938 -26.120781 L 31.855938 -25.66375 L 31.355938 -25.687188 L 31.195781 -25.484063 L 31.285625 -25.253594 L 31.355938 -24.640313 L 32.242656 -23.546563 L 32.609844 -23.456719 L 32.836406 -23.22625 L 32.949688 -22.589531 L 33.133281 -22.452813 L 33.906719 -21.292656 L 34.680156 -20.425469 L 34.727031 -19.675469 L 34.043438 -19.152031 L 33.73875 -18.273125 L 36.453594 -5.652031 L 39.145 -6.155938 L 38.266094 -10.417656 L 38.977031 -11.909844 L 38.660625 -12.835625 L 39.055156 -13.761406 L 39.680156 -14.011406 L 40.445781 -15.917656 L 41.145 -16.800469 L 41.246563 -17.027031 L 41.910625 -17.2575 L 41.984844 -17.675469 L 40.594219 -21.136406 L 40.562969 -21.648125 L 41.086406 -22.308281 L 41.266094 -22.300469 L 42.246563 -21.695 L 42.379375 -21.480156 L 42.691875 -21.609063 L 42.637188 -22.675469 L 43.180156 -25.183281 L 43.961406 -25.816094 L 44.297344 -26.249688 L 44.156719 -27.062188 L 44.367656 -27.620781 L 44.578594 -27.839531 L 45.074688 -27.370781 L 45.641094 -27.378594 L 46.223125 -27.644219 L 46.777813 -27.511406 L 47.531719 -27.480156 L 48.324688 -27.796563 L 48.871563 -27.737969 L 48.969219 -27.1325 L 49.555156 -26.980156 L 49.805156 -27.280938 L 49.895 -27.870781 L 50.17625 -28.109063 L 48.508281 -38.792656 C 48.508281 -38.792656 30.977031 -35.464531 29.586406 -35.16375 Z M 29.586406 -35.16375 " transform="matrix(1,0,0,-1,-3.52,-5.57)"/>
<path style="fill-rule:nonzero;fill:rgb(50%,50%,50%);fill-opacity:1;stroke-width:0.69739;stroke-linecap:butt;stroke-linejoin:miter;stroke:rgb(100%,100%,100%);stroke-opacity:1;stroke-miterlimit:10;" d="M 51.7075 -61.78875 L 35.02 -59.425469 L 39.121563 -36.999688 L 48.441875 -38.741875 L 48.145 -40.859063 L 47.687969 -43.484063 L 49.242656 -43.671563 L 52.512188 -44.030938 L 54.148906 -44.198906 Z M 51.7075 -61.78875 " transform="matrix(1,0,0,-1,-3.52,-5.57)"/>
<path style="fill-rule:nonzero;fill:rgb(50%,50%,50%);fill-opacity:1;stroke-width:0.69739;stroke-linecap:butt;stroke-linejoin:miter;stroke:rgb(100%,100%,100%);stroke-opacity:1;stroke-miterlimit:10;" d="M 28.875469 -76.241875 L 28.352031 -76.671562 L 28.285625 -76.960625 L 28.383281 -77.155937 L 32.152813 -79.280937 L 34.566875 -80.792656 L 37.500469 -82.499687 L 40.848125 -84.499687 L 43.297344 -84.980156 L 48.27 -85.519219 L 51.7075 -61.784844 L 35.023906 -59.409844 L 34.406719 -62.679375 L 34.086406 -62.683281 L 33.742656 -63.206719 L 33.242656 -63.183281 L 32.992656 -62.636406 L 32.445781 -62.57 L 32.262188 -62.339531 L 32.0825 -62.339531 L 31.898906 -62.456719 L 31.512188 -62.659844 L 31.48875 -64.050469 L 31.445781 -64.390312 L 31.328594 -66.898125 L 31.035625 -67.327812 L 30.918438 -67.987969 L 31.465313 -68.968437 L 31.719219 -70.1325 L 31.875469 -70.335625 L 32.0825 -70.448906 L 32.059063 -70.905937 L 31.73875 -71.179375 L 31.055156 -71.519219 L 30.668438 -71.905937 L 30.371563 -72.636406 L 30.258281 -73.616875 L 29.691875 -74.16375 L 29.281719 -74.300469 L 29.309063 -74.464531 L 29.215313 -74.804375 L 29.309063 -74.964531 L 30.035625 -75.077812 L 29.922344 -75.624687 L 29.625469 -76.058281 Z M 28.875469 -76.241875 " transform="matrix(1,0,0,-1,-3.52,-5.57)"/>
<path style="fill-rule:nonzero;fill:rgb(50%,50%,50%);fill-opacity:1;stroke-width:0.69739;stroke-linecap:butt;stroke-linejoin:miter;stroke:rgb(100%,100%,100%);stroke-opacity:1;stroke-miterlimit:10;" d="M 39.133281 -36.97625 L 34.422344 -62.644219 L 34.059063 -62.714531 L 33.742656 -63.195 L 33.27 -63.195 L 32.977031 -62.652031 L 32.4575 -62.573906 L 32.30125 -62.355156 L 32.094219 -62.343438 L 31.543438 -62.671563 L 31.480938 -64.023125 L 31.406719 -65.175469 L 31.340313 -66.886406 L 31.05125 -67.304375 L 30.562969 -67.089531 L 16.80125 -46.327813 L 20.5825 -32.859063 Z M 39.133281 -36.97625 " transform="matrix(1,0,0,-1,-3.52,-5.57)"/>
<path style="fill-rule:nonzero;fill:rgb(50%,50%,50%);fill-opacity:1;stroke-width:0.69739;stroke-linecap:butt;stroke-linejoin:miter;stroke:rgb(100%,100%,100%);stroke-opacity:1;stroke-miterlimit:10;" d="M 29.633281 -34.97625 L 31.398906 -28.042656 L 31.605938 -27.198906 L 32.074688 -26.077813 L 31.953594 -25.847344 L 31.453594 -25.835625 L 31.195781 -25.503594 L 31.289531 -25.210625 L 31.387188 -24.566094 L 32.277813 -23.472344 L 32.641094 -23.253594 L 32.867656 -23.027031 L 33.164531 -22.316094 L 33.969219 -21.187188 L 34.680156 -20.417656 L 34.727031 -19.72625 L 34.074688 -19.237969 L 33.719219 -18.312188 L 31.195781 -17.589531 L 28.191875 -16.886406 L 25.11375 -16.909844 L 25.023906 -16.636406 L 23.930156 -17.046563 L 23.043438 -16.929375 L 22.562969 -16.612969 L 22.312969 -16.749688 L 21.379375 -16.702813 L 21.039531 -16.429375 L 19.98875 -16.019219 L 19.8325 -16.042656 L 18.965313 -15.745781 L 18.578594 -16.109063 L 17.348125 -16.042656 L 16.164531 -15.222344 L 16.30125 -15.062188 L 16.344219 -13.515313 L 15.891094 -12.737969 L 15.070781 -12.624688 L 14.934063 -12.124688 L 14.465313 -12.030938 L 13.309063 -12.441094 L 12.859844 -13.730156 L 12.215313 -15.72625 L 11.570781 -17.015313 L 10.570781 -19.82 L 9.281719 -22.523125 L 7.672344 -25.03875 L 7.285625 -25.616875 L 7.125469 -27.323906 L 7.203594 -29.730156 Z M 29.633281 -34.97625 " transform="matrix(1,0,0,-1,-3.52,-5.57)"/>
<path style="fill-rule:nonzero;fill:rgb(100%,100%,100%);fill-opacity:1;stroke-width:0.69739;stroke-linecap:butt;stroke-linejoin:miter;stroke:rgb(100%,100%,100%);stroke-opacity:1;stroke-miterlimit:10;" d="M 20.340313 -1.515313 L 21.2075 -1.808281 L 23.141094 -2.355156 L 24.848125 -2.741875 L 28.844219 -3.866875 L 33.418438 -4.995781 L 36.449688 -5.636406 L 33.734844 -18.304375 L 31.254375 -17.60125 L 28.164531 -16.890313 L 25.129375 -16.898125 L 25.039531 -16.628594 L 23.922344 -17.062188 L 23.008281 -16.917656 L 22.578594 -16.60125 L 22.316875 -16.734063 L 21.375469 -16.702813 L 21.035625 -16.437188 L 19.98875 -16.015313 L 19.840313 -16.042656 L 18.965313 -15.737969 L 18.590313 -16.10125 L 17.340313 -16.042656 L 16.160625 -15.222344 L 16.312969 -15.034844 L 16.340313 -13.503594 L 15.883281 -12.737969 L 15.062969 -12.616875 L 14.930156 -12.116875 L 14.477031 -12.027031 L 13.766094 -12.273125 L 13.316875 -11.6325 L 13.379375 -11.050469 L 13.930156 -10.987969 L 14.250469 -10.183281 L 13.734844 -9.956719 L 13.766094 -9.214531 L 14.637188 -9.085625 L 14.090313 -8.53875 L 13.80125 -7.120781 L 13.930156 -6.542656 L 13.930156 -4.964531 L 13.574688 -4.32 L 14.023906 -2.448906 L 14.445781 -2.546563 L 14.92625 -3.128594 L 15.473125 -3.644219 L 16.117656 -4.030938 L 17.02 -4.448906 L 17.633281 -4.577813 L 18.211406 -4.866875 L 18.891094 -5.058281 L 19.340313 -5.027031 L 19.340313 -4.542656 L 19.598125 -4.32 L 20.016094 -4.062188 L 20.0825 -4.28875 L 20.145 -4.640313 L 19.695781 -4.737969 L 19.629375 -5.155938 L 19.984844 -5.445 L 20.211406 -5.929375 L 20.340313 -6.316094 L 20.629375 -6.284844 L 20.660625 -6.027031 L 20.469219 -5.769219 L 20.371563 -5.124688 L 20.531719 -4.769219 L 20.402813 -4.480156 L 20.402813 -4.030938 L 20.758281 -3.32 L 20.531719 -2.804375 L 20.047344 -1.839531 L 20.11375 -1.679375 Z M 18.453594 -2.706719 L 18.855938 -2.675469 L 18.953594 -2.948906 L 19.258281 -2.628594 L 19.727031 -2.628594 L 19.887188 -2.933281 L 19.5825 -3.273125 L 19.711406 -3.433281 L 19.566875 -3.835625 L 19.293438 -3.917656 C 19.293438 -3.917656 19.11375 -3.933281 19.11375 -3.866875 C 19.11375 -3.804375 19.402813 -3.35125 19.402813 -3.35125 L 19.066875 -3.237969 L 19.000469 -3.530938 L 18.855938 -3.659844 L 18.55125 -3.206719 Z M 18.453594 -2.706719 " transform="matrix(1,0,0,-1,-3.52,-5.57)"/>
<path style="fill-rule:nonzero;fill:rgb(50%,50%,50%);fill-opacity:1;stroke-width:0.69739;stroke-linecap:butt;stroke-linejoin:miter;stroke:rgb(100%,100%,100%);stroke-opacity:1;stroke-miterlimit:10;" d="M 28.8325 -76.155937 L 29.617656 -76.058281 L 29.910625 -75.655937 L 30.02 -75.07 L 29.312969 -74.952812 L 29.211406 -74.82 L 29.305156 -74.41375 L 29.273906 -74.296562 L 29.656719 -74.175469 L 30.262188 -73.609062 L 30.379375 -72.612969 L 30.652813 -71.937187 L 31.043438 -71.503594 L 31.742656 -71.187187 L 32.070781 -70.866875 L 32.086406 -70.448906 L 31.887188 -70.331719 L 31.684063 -70.120781 L 31.453594 -68.952812 L 30.918438 -67.991875 L 31.031719 -67.292656 L 30.55125 -67.089531 L 16.789531 -46.327813 L 20.555156 -32.859063 L 7.187969 -29.730156 L 6.887188 -30.675469 L 6.855938 -32.155938 L 5.824688 -34.5075 L 5.215313 -35.023125 L 5.148906 -35.249688 L 4.793438 -35.409844 L 4.504375 -36.245781 L 4.344219 -36.890313 L 4.891094 -37.730156 L 5.215313 -38.566094 L 5.437969 -39.277031 L 5.375469 -40.562188 L 5.02 -41.175469 L 4.891094 -42.335625 L 4.699688 -43.077813 L 5.05125 -43.85125 L 5.602031 -44.749688 L 6.05125 -45.718438 L 6.309063 -46.523125 L 6.246563 -47.167656 L 6.180156 -47.265313 L 6.180156 -47.683281 L 7.309063 -48.937188 L 7.211406 -49.421563 L 7.0825 -49.874688 L 6.953594 -50.261406 L 6.984844 -51.902031 L 7.402813 -52.644219 L 7.789531 -53.159844 L 8.340313 -53.253594 L 8.531719 -53.804375 L 8.305156 -54.511406 L 7.887188 -54.835625 L 7.660625 -54.835625 L 7.500469 -55.605156 L 7.598125 -56.187188 L 8.242656 -57.058281 L 8.562969 -58.120781 L 8.852031 -59.054375 L 9.109844 -59.66375 L 9.789531 -60.823906 L 10.078594 -61.339531 L 10.17625 -61.921563 L 10.496563 -62.112969 L 10.496563 -62.597344 L 10.336406 -62.984063 L 9.980938 -64.402031 L 9.883281 -64.78875 L 10.367656 -65.335625 L 11.203594 -65.433281 L 12.105938 -65.784844 L 12.879375 -66.202812 L 13.461406 -66.202812 L 14.039531 -66.816094 L 14.555156 -67.784844 L 14.781719 -68.234062 L 15.555156 -68.652031 L 16.52 -68.812187 L 16.809063 -69.234062 L 16.937969 -69.878594 L 16.648906 -70.0075 L 16.715313 -70.198906 L 17.355938 -70.359062 L 17.906719 -70.390312 L 18.535625 -70.054375 L 19.309063 -70.894219 L 19.469219 -71.343437 L 19.984844 -72.183281 L 20.047344 -72.827812 L 20.047344 -74.695 L 20.145 -75.050469 L 22.141094 -75.339531 L 26.070781 -75.886406 Z M 11.27 -67.445 L 11.527813 -67.749687 L 11.496563 -68.0075 L 10.852031 -67.991875 L 10.73875 -67.749687 L 10.609844 -67.460625 Z M 11.656719 -67.445 L 11.898906 -67.316094 L 12.605938 -67.734062 L 13.219219 -67.97625 L 13.039531 -68.105156 L 12.141094 -68.058281 L 11.816875 -67.734062 Z M 15.777813 -71.390312 L 16.133281 -71.859062 L 16.293438 -72.050469 L 16.602031 -72.16375 L 16.715313 -71.874687 L 16.52 -71.519219 L 15.98875 -71.116875 L 15.777813 -71.148125 Z M 15.48875 -73.112969 L 15.844219 -73.741875 L 16.086406 -74.128594 L 15.797344 -74.175469 L 15.539531 -73.933281 C 15.539531 -73.933281 15.391094 -73.644219 15.391094 -73.566094 C 15.391094 -73.484062 15.391094 -73.128594 15.391094 -73.128594 Z M 15.48875 -73.112969 " transform="matrix(1,0,0,-1,-3.52,-5.57)"/>
</g>
</svg>
