<?xml version="1.0" encoding="UTF-8"?>
<svg xmlns="http://www.w3.org/2000/svg" xmlns:xlink="http://www.w3.org/1999/xlink" width="123pt" height="83pt" viewBox="0 0 123 83" version="1.1">
<g id="surface1">
<path style=" stroke:none;fill-rule:nonzero;fill:rgb(0%,0%,0%);fill-opacity:1;" d="M 3.484375 81.363281 C 3.484375 80.59375 2.859375 79.96875 2.089844 79.96875 C 1.320312 79.96875 0.695312 80.59375 0.695312 81.363281 C 0.695312 82.132812 1.320312 82.757812 2.089844 82.757812 C 2.859375 82.757812 3.484375 82.132812 3.484375 81.363281 Z M 3.484375 81.363281 "/>
<path style=" stroke:none;fill-rule:nonzero;fill:rgb(0%,0%,0%);fill-opacity:1;" d="M 23.328125 81.363281 C 23.328125 80.59375 22.703125 79.96875 21.933594 79.96875 C 21.164062 79.96875 20.539062 80.59375 20.539062 81.363281 C 20.539062 82.132812 21.164062 82.757812 21.933594 82.757812 C 22.703125 82.757812 23.328125 82.132812 23.328125 81.363281 Z M 23.328125 81.363281 "/>
<path style=" stroke:none;fill-rule:nonzero;fill:rgb(0%,0%,0%);fill-opacity:1;" d="M 43.171875 81.363281 C 43.171875 80.59375 42.546875 79.96875 41.773438 79.96875 C 41.003906 79.96875 40.378906 80.59375 40.378906 81.363281 C 40.378906 82.132812 41.003906 82.757812 41.773438 82.757812 C 42.546875 82.757812 43.171875 82.132812 43.171875 81.363281 Z M 43.171875 81.363281 "/>
<path style=" stroke:none;fill-rule:nonzero;fill:rgb(0%,0%,0%);fill-opacity:1;" d="M 63.011719 81.363281 C 63.011719 80.59375 62.386719 79.96875 61.617188 79.96875 C 60.847656 79.96875 60.222656 80.59375 60.222656 81.363281 C 60.222656 82.132812 60.847656 82.757812 61.617188 82.757812 C 62.386719 82.757812 63.011719 82.132812 63.011719 81.363281 Z M 63.011719 81.363281 "/>
<path style=" stroke:none;fill-rule:nonzero;fill:rgb(0%,0%,0%);fill-opacity:1;" d="M 82.855469 81.363281 C 82.855469 80.59375 82.230469 79.96875 81.460938 79.96875 C 80.691406 79.96875 80.066406 80.59375 80.066406 81.363281 C 80.066406 82.132812 80.691406 82.757812 81.460938 82.757812 C 82.230469 82.757812 82.855469 82.132812 82.855469 81.363281 Z M 82.855469 81.363281 "/>
<path style=" stroke:none;fill-rule:nonzero;fill:rgb(0%,0%,0%);fill-opacity:1;" d="M 102.699219 81.363281 C 102.699219 80.59375 102.074219 79.96875 101.304688 79.96875 C 100.53125 79.96875 99.910156 80.59375 99.910156 81.363281 C 99.910156 82.132812 100.53125 82.757812 101.304688 82.757812 C 102.074219 82.757812 102.699219 82.132812 102.699219 81.363281 Z M 102.699219 81.363281 "/>
<path style=" stroke:none;fill-rule:nonzero;fill:rgb(0%,0%,0%);fill-opacity:1;" d="M 122.539062 81.363281 C 122.539062 80.59375 121.917969 79.96875 121.144531 79.96875 C 120.375 79.96875 119.75 80.59375 119.75 81.363281 C 119.75 82.132812 120.375 82.757812 121.144531 82.757812 C 121.917969 82.757812 122.539062 82.132812 122.539062 81.363281 Z M 122.539062 81.363281 "/>
<path style=" stroke:none;fill-rule:nonzero;fill:rgb(0%,0%,0%);fill-opacity:1;" d="M 3.484375 61.519531 C 3.484375 60.75 2.859375 60.125 2.089844 60.125 C 1.320312 60.125 0.695312 60.75 0.695312 61.519531 C 0.695312 62.292969 1.320312 62.917969 2.089844 62.917969 C 2.859375 62.917969 3.484375 62.292969 3.484375 61.519531 Z M 3.484375 61.519531 "/>
<path style=" stroke:none;fill-rule:nonzero;fill:rgb(0%,0%,0%);fill-opacity:1;" d="M 3.484375 41.679688 C 3.484375 40.910156 2.859375 40.285156 2.089844 40.285156 C 1.320312 40.285156 0.695312 40.910156 0.695312 41.679688 C 0.695312 42.449219 1.320312 43.074219 2.089844 43.074219 C 2.859375 43.074219 3.484375 42.449219 3.484375 41.679688 Z M 3.484375 41.679688 "/>
<path style=" stroke:none;fill-rule:nonzero;fill:rgb(0%,0%,0%);fill-opacity:1;" d="M 3.484375 21.835938 C 3.484375 21.066406 2.859375 20.441406 2.089844 20.441406 C 1.320312 20.441406 0.695312 21.066406 0.695312 21.835938 C 0.695312 22.605469 1.320312 23.230469 2.089844 23.230469 C 2.859375 23.230469 3.484375 22.605469 3.484375 21.835938 Z M 3.484375 21.835938 "/>
<path style=" stroke:none;fill-rule:nonzero;fill:rgb(0%,0%,0%);fill-opacity:1;" d="M 3.484375 1.992188 C 3.484375 1.222656 2.859375 0.597656 2.089844 0.597656 C 1.320312 0.597656 0.695312 1.222656 0.695312 1.992188 C 0.695312 2.761719 1.320312 3.386719 2.089844 3.386719 C 2.859375 3.386719 3.484375 2.761719 3.484375 1.992188 Z M 3.484375 1.992188 "/>
</g>
</svg>
