<?xml version="1.0" encoding="UTF-8"?>
<svg xmlns="http://www.w3.org/2000/svg" xmlns:xlink="http://www.w3.org/1999/xlink" width="123pt" height="83pt" viewBox="0 0 123 83" version="1.1">
<g id="surface1">
<path style=" stroke:none;fill-rule:nonzero;fill:rgb(0%,0%,0%);fill-opacity:1;" d="M 3.113281 81.359375 C 3.113281 80.589844 2.492188 79.964844 1.71875 79.964844 C 0.949219 79.964844 0.324219 80.589844 0.324219 81.359375 C 0.324219 82.128906 0.949219 82.753906 1.71875 82.753906 C 2.492188 82.753906 3.113281 82.128906 3.113281 81.359375 Z M 3.113281 81.359375 "/>
<path style=" stroke:none;fill-rule:nonzero;fill:rgb(0%,0%,0%);fill-opacity:1;" d="M 22.957031 81.359375 C 22.957031 80.589844 22.332031 79.964844 21.5625 79.964844 C 20.792969 79.964844 20.167969 80.589844 20.167969 81.359375 C 20.167969 82.128906 20.792969 82.753906 21.5625 82.753906 C 22.332031 82.753906 22.957031 82.128906 22.957031 81.359375 Z M 22.957031 81.359375 "/>
<path style=" stroke:none;fill-rule:nonzero;fill:rgb(0%,0%,0%);fill-opacity:1;" d="M 42.800781 81.359375 C 42.800781 80.589844 42.175781 79.964844 41.40625 79.964844 C 40.636719 79.964844 40.011719 80.589844 40.011719 81.359375 C 40.011719 82.128906 40.636719 82.753906 41.40625 82.753906 C 42.175781 82.753906 42.800781 82.128906 42.800781 81.359375 Z M 42.800781 81.359375 "/>
<path style=" stroke:none;fill-rule:nonzero;fill:rgb(0%,0%,0%);fill-opacity:1;" d="M 62.644531 81.359375 C 62.644531 80.589844 62.019531 79.964844 61.246094 79.964844 C 60.476562 79.964844 59.851562 80.589844 59.851562 81.359375 C 59.851562 82.128906 60.476562 82.753906 61.246094 82.753906 C 62.019531 82.753906 62.644531 82.128906 62.644531 81.359375 Z M 62.644531 81.359375 "/>
<path style=" stroke:none;fill-rule:nonzero;fill:rgb(0%,0%,0%);fill-opacity:1;" d="M 82.484375 81.359375 C 82.484375 80.589844 81.859375 79.964844 81.089844 79.964844 C 80.320312 79.964844 79.695312 80.589844 79.695312 81.359375 C 79.695312 82.128906 80.320312 82.753906 81.089844 82.753906 C 81.859375 82.753906 82.484375 82.128906 82.484375 81.359375 Z M 82.484375 81.359375 "/>
<path style=" stroke:none;fill-rule:nonzero;fill:rgb(0%,0%,0%);fill-opacity:1;" d="M 102.328125 81.359375 C 102.328125 80.589844 101.703125 79.964844 100.933594 79.964844 C 100.164062 79.964844 99.539062 80.589844 99.539062 81.359375 C 99.539062 82.128906 100.164062 82.753906 100.933594 82.753906 C 101.703125 82.753906 102.328125 82.128906 102.328125 81.359375 Z M 102.328125 81.359375 "/>
<path style=" stroke:none;fill-rule:nonzero;fill:rgb(0%,0%,0%);fill-opacity:1;" d="M 122.171875 81.359375 C 122.171875 80.589844 121.546875 79.964844 120.777344 79.964844 C 120.003906 79.964844 119.382812 80.589844 119.382812 81.359375 C 119.382812 82.128906 120.003906 82.753906 120.777344 82.753906 C 121.546875 82.753906 122.171875 82.128906 122.171875 81.359375 Z M 122.171875 81.359375 "/>
<path style=" stroke:none;fill-rule:nonzero;fill:rgb(0%,0%,0%);fill-opacity:1;" d="M 3.113281 61.515625 C 3.113281 60.746094 2.492188 60.121094 1.71875 60.121094 C 0.949219 60.121094 0.324219 60.746094 0.324219 61.515625 C 0.324219 62.289062 0.949219 62.914062 1.71875 62.914062 C 2.492188 62.914062 3.113281 62.289062 3.113281 61.515625 Z M 3.113281 61.515625 "/>
<path style=" stroke:none;fill-rule:nonzero;fill:rgb(0%,0%,0%);fill-opacity:1;" d="M 3.113281 41.675781 C 3.113281 40.90625 2.492188 40.28125 1.71875 40.28125 C 0.949219 40.28125 0.324219 40.90625 0.324219 41.675781 C 0.324219 42.445312 0.949219 43.070312 1.71875 43.070312 C 2.492188 43.070312 3.113281 42.445312 3.113281 41.675781 Z M 3.113281 41.675781 "/>
<path style=" stroke:none;fill-rule:nonzero;fill:rgb(0%,0%,0%);fill-opacity:1;" d="M 3.113281 21.832031 C 3.113281 21.0625 2.492188 20.4375 1.71875 20.4375 C 0.949219 20.4375 0.324219 21.0625 0.324219 21.832031 C 0.324219 22.601562 0.949219 23.226562 1.71875 23.226562 C 2.492188 23.226562 3.113281 22.601562 3.113281 21.832031 Z M 3.113281 21.832031 "/>
<path style=" stroke:none;fill-rule:nonzero;fill:rgb(0%,0%,0%);fill-opacity:1;" d="M 3.113281 1.988281 C 3.113281 1.21875 2.492188 0.59375 1.71875 0.59375 C 0.949219 0.59375 0.324219 1.21875 0.324219 1.988281 C 0.324219 2.757812 0.949219 3.382812 1.71875 3.382812 C 2.492188 3.382812 3.113281 2.757812 3.113281 1.988281 Z M 3.113281 1.988281 "/>
</g>
</svg>
